<svg xmlns="http://www.w3.org/2000/svg" width="44" height="44" viewBox="0 0 44 44"><defs><style>.a{fill:#f4f4f4;}.b{fill:none;}.c{fill:#000d41;}</style></defs><rect class="a" width="44" height="44" rx="14"/><g transform="translate(9 9)"><path class="b" d="M0,0H26V26H0Z"/><path class="c" d="M4.31,6.852.757,3.305l1.55-1.548L5.86,5.305h16.7a1.094,1.094,0,0,1,1.05,1.408l-2.63,8.753a1.1,1.1,0,0,1-1.05.78H6.5v2.188H18.554v2.188H5.406a1.1,1.1,0,0,1-1.1-1.094ZM6.5,7.494v6.565H19.115l1.972-6.565ZM5.954,25A1.641,1.641,0,1,1,7.6,23.359,1.642,1.642,0,0,1,5.954,25ZM19.1,25a1.641,1.641,0,1,1,1.644-1.641A1.642,1.642,0,0,1,19.1,25Z" transform="translate(0 0)"/></g></svg>