<svg xmlns="http://www.w3.org/2000/svg" width="200" height="140" viewBox="0 0 200 140"><defs><style>.a{fill:none;}.b{fill:#e7e7e7;}.c{fill:#ffbea3;}.d{fill:#fff;}.e{fill:#ff6740;}.f{fill:#000d41;}</style></defs><g transform="translate(-1308 -1180)"><rect class="a" width="200" height="140" transform="translate(1308 1180)"/><g transform="translate(607.049 784.55)"><ellipse class="b" cx="75.5" cy="5.5" rx="75.5" ry="5.5" transform="translate(725.951 517.331)"/><path class="c" d="M869.451,459l-8-12h-11.9v12Z"/><path class="d" d="M864.053,451.637h-14.5V447h10.9l4.072,4.324Z"/><path class="d" d="M866.211,470.77a7.152,7.152,0,0,0-1.09-3.17,7.3,7.3,0,0,0-13.29,2.29,6.71,6.71,0,0,0-.14.88h-2.14l.07-10.67h18.99a4.919,4.919,0,0,1,.04.53v8.85a1.293,1.293,0,0,1-1.29,1.29Z"/><path class="d" d="M863.771,468.46a5.695,5.695,0,1,1-4.83-2.66,5.408,5.408,0,0,1,1.26.14A5.657,5.657,0,0,1,863.771,468.46Zm-2.32,3.04a2.5,2.5,0,1,0-2.5,2.5A2.5,2.5,0,0,0,861.451,471.5Z"/><circle class="e" cx="2.5" cy="2.5" r="2.5" transform="translate(856.451 469)"/><path class="d" d="M847.531,439.65a2.009,2.009,0,0,1,.6,1.46l-.18,29.66h-28.74a7.3,7.3,0,0,0-14.52,0H798.8a1.05,1.05,0,0,1-1.05-1.05V441.25a2.211,2.211,0,0,1,2.21-2.21h46.11A2.018,2.018,0,0,1,847.531,439.65Zm-5.08,24.24v-3.78a1.114,1.114,0,0,0-1.11-1.11h-10.78a1.114,1.114,0,0,0-1.11,1.11v3.78a1.114,1.114,0,0,0,1.11,1.11h10.78A1.114,1.114,0,0,0,842.451,463.89Z"/><rect class="c" width="13" height="6" rx="1.11" transform="translate(829.451 459)"/><path class="d" d="M817.651,471.5a5.7,5.7,0,1,1-5.7-5.7A5.71,5.71,0,0,1,817.651,471.5Zm-3.2,0a2.5,2.5,0,1,0-2.5,2.5A2.5,2.5,0,0,0,814.451,471.5Z"/><circle class="e" cx="2.5" cy="2.5" r="2.5" transform="translate(809.451 469)"/><path class="f" d="M851.711,472.37h-32.52a7.3,7.3,0,0,1-4.35,5.83h41.22a7.255,7.255,0,0,1-3.28-2.8A7.166,7.166,0,0,1,851.711,472.37Zm-45.46-.87a5.7,5.7,0,1,0,5.7-5.7A5.71,5.71,0,0,0,806.251,471.5Zm43.44-23.7-.06,10.7h18.5c-.08-.14-.15-.29-.24-.43l-6-9.23a2.309,2.309,0,0,0-1.93-1.04Zm12.3,28.52a5.7,5.7,0,0,0-1.79-10.38,5.408,5.408,0,0,0-1.26-.14,5.7,5.7,0,1,0,3.05,10.52Zm-50.04-12.12a7.3,7.3,0,0,1,7.26,6.57h28.74l.18-29.66a2.066,2.066,0,0,0-2.06-2.07h-46.11a2.211,2.211,0,0,0-2.21,2.21v28.47a1.05,1.05,0,0,0,1.05,1.05h5.89A7.3,7.3,0,0,1,811.951,464.2Zm-15.8,5.52V441.25a3.815,3.815,0,0,1,3.81-3.81h46.11a3.653,3.653,0,0,1,3.66,3.68l-.03,5.08h10.26a3.889,3.889,0,0,1,3.27,1.77l6,9.23a6.236,6.236,0,0,1,1.02,3.43v8.85a2.9,2.9,0,0,1-2.89,2.89H866.2a6.761,6.761,0,0,1-.13.74,7.239,7.239,0,0,1-3.22,4.56,7.065,7.065,0,0,1-1.02.53h8.62a.8.8,0,0,1,0,1.6h-74a.8.8,0,1,1,0-1.6h12.61a7.3,7.3,0,0,1-4.35-5.83H798.8A2.655,2.655,0,0,1,796.151,469.72Zm71.21,1.05a1.293,1.293,0,0,0,1.29-1.29v-8.85a4.919,4.919,0,0,0-.04-.53h-18.99l-.07,10.67h2.14a6.71,6.71,0,0,1,.14-.88,7.3,7.3,0,0,1,13.29-2.29,7.152,7.152,0,0,1,1.09,3.17Z"/><path class="f" d="M807.833,419.673a.8.8,0,0,0-1.131,0l-7,7a.8.8,0,0,0,1.131,1.131l7-7A.8.8,0,0,0,807.833,419.673Z"/><path class="f" d="M810.268,418.038a.8.8,0,0,0,.565-.234l1.211-1.211a.8.8,0,0,0-1.131-1.131l-1.211,1.211a.8.8,0,0,0,.566,1.365Z"/><path class="f" d="M810.887,427.535l-6.912,3.743a.8.8,0,0,0,.761,1.407l6.912-3.744a.8.8,0,1,0-.761-1.406Z"/><path class="f" d="M744.833,421.673A.8.8,0,0,0,743.7,422.8l7,7a.8.8,0,0,0,1.131-1.131Z"/><path class="f" d="M734.478,426.188l-1.646-.891a.8.8,0,1,0-.762,1.406l1.646.892a.8.8,0,0,0,.762-1.407Z"/><path class="f" d="M747.561,433.278l-9.673-5.241a.8.8,0,0,0-.762,1.406l9.673,5.242a.8.8,0,0,0,.762-1.407Z"/><path class="f" d="M819.611,458.91a.8.8,0,0,1,.12.67.809.809,0,0,1-.43.51l-9.08,4.32v17.61a.789.789,0,0,1-.44.71l-31.97,15.99a.9.9,0,0,1-.36.08.754.754,0,0,1-.33-.07l-34.64-15.99a.814.814,0,0,1-.46-.71l-.37-17.79-8.68-4.15a.775.775,0,0,1-.43-.52.8.8,0,0,1,.13-.67l9.5-13.03a.719.719,0,0,1,.32-.25l31.63-14.35a.786.786,0,0,1,.62-.01l34.97,13.8a.673.673,0,0,1,.36.28Zm-1.85.15-8.52-12.13-30.15,12.93,9.28,13.15Zm-9.14,22.46V465.17l-20.17,9.58a.816.816,0,0,1-1-.27l-8.88-12.59v34.66Zm-30.4-23,29.36-12.59-33.11-13.06-29.12,13.2Zm-1.25,38.38V461.95l-9.52,13.86a.8.8,0,0,1-.65.35.852.852,0,0,1-.35-.08l-23.18-11.07.34,16.49Zm-10.45-22.56,10.12-14.73L743.331,447l-8.8,12.06Z"/><path class="d" d="M809.241,446.93l8.52,12.13-29.39,13.95-9.28-13.15Z"/><path class="d" d="M808.621,465.17v16.35l-30.05,15.03V461.89l8.88,12.59a.816.816,0,0,0,1,.27Z"/><path class="d" d="M807.581,445.93l-29.36,12.59-32.87-12.45,29.12-13.2Z"/><path class="d" d="M776.971,461.95V496.9l-33.36-15.4-.34-16.49,23.18,11.07a.852.852,0,0,0,.35.08.8.8,0,0,0,.65-.35Z"/><path class="d" d="M776.641,459.61l-10.12,14.73-31.99-15.28,8.8-12.06Z"/><path class="e" d="M796.335,420.976l-4.16-11.834a2.009,2.009,0,0,0-.9-1.082l-8.472-4.8a1.954,1.954,0,0,0-.988-.261H769.481a2,2,0,0,0-.995.261l-8.465,4.8a2,2,0,0,0-.9,1.082l-4.16,11.834a2,2,0,0,0,.152,1.655,1.966,1.966,0,0,0,1.343.973l5.808,1.161V443.46a1.977,1.977,0,0,0,1.975,1.975h22.818a1.977,1.977,0,0,0,1.975-1.975V424.765l5.8-1.161a1.964,1.964,0,0,0,1.351-.973A2,2,0,0,0,796.335,420.976Zm-26.854-16.814h12.334a1.018,1.018,0,0,1,.327.065,6.54,6.54,0,0,1-13.068.036A.867.867,0,0,1,769.481,404.162Z"/><path class="d" d="M775.744,428.237l-2.939,1.645a.581.581,0,0,1-.854-.621l.656-3.3a.581.581,0,0,0-.176-.54l-2.473-2.287a.581.581,0,0,1,.327-1l3.344-.4a.582.582,0,0,0,.46-.334l1.411-3.058a.581.581,0,0,1,1.056,0l1.41,3.058a.582.582,0,0,0,.46.334l3.344.4a.581.581,0,0,1,.327,1l-2.473,2.287a.584.584,0,0,0-.176.54l.657,3.3a.582.582,0,0,1-.855.621l-2.938-1.645A.58.58,0,0,0,775.744,428.237Z"/></g></g></svg>