<svg id="like-icon" xmlns="http://www.w3.org/2000/svg" width="26" height="24" viewBox="0 0 26 24">
  <path id="Path_6476" data-name="Path 6476" d="M0,0H24V24H0Z" fill="none"/>
  <g id="heart-line" transform="translate(2)">
    <path id="Path_38526" data-name="Path 38526" d="M0,0H24V24H0Z" fill="none"/>
    <path id="Path_38527" data-name="Path 38527" d="M12,4.529a6,6,0,0,1,8.478,8.464L12,21.485,3.521,12.993A6,6,0,0,1,12,4.529ZM18.827,6.17a4,4,0,0,0-5.49-.153L12,7.215l-1.336-1.2A4,4,0,0,0,4.98,11.623L12,18.654l7.02-7.03a4,4,0,0,0-.193-5.454Z" transform="translate(0 0)" fill="#000d41"/>
  </g>
</svg>
