<svg xmlns="http://www.w3.org/2000/svg" width="200" height="160" viewBox="0 0 200 160"><defs><style>.a,.e{fill:none;}.b{fill:#dde6ed;}.c{fill:#fff;}.d{fill:#38435d;}.e{stroke:#38435d;stroke-linecap:round;stroke-linejoin:round;stroke-width:2.2px;}</style></defs><g transform="translate(-365 -326)"><rect class="a" width="200" height="160" transform="translate(365 326)"/><g transform="translate(-598.254 -36)"><g transform="translate(1018.254 376)"><path class="b" d="M1098,508l.13,1.02a111.666,111.666,0,0,1-11.2.94,3.108,3.108,0,0,1-3.16-2.54L1078.25,478l-11.85-58.27a10.137,10.137,0,0,0-.41-1.43l.1-.04Z" transform="translate(-1019.004 -376.962)"/><path class="c" d="M1101.58,421l1.09,10.1-14.42,5.9-5.59-6.92-.01-.01-.4-1.07,18.19-7.53Z" transform="translate(-1019.004 -376.367)"/><path class="c" d="M1102.67,431.1l2.58,23.9-1.5.57-8.57,3.29a1.528,1.528,0,0,1-1.97-.89l-10.55-27.89,5.59,6.92Z" transform="translate(-1019.004 -376.495)"/><path class="c" d="M1080.86,387.28a76.716,76.716,0,0,1-12.91,1.87c-2.05.14-4.04.17-5.95.13V383l.01-1.23A81.58,81.58,0,0,0,1093,376h.25l1.08,6.95-.33.05a77.679,77.679,0,0,1-7.4,2.72C1084.66,386.33,1082.74,386.85,1080.86,387.28ZM1067,385.5a1.5,1.5,0,1,0-1.5,1.5A1.5,1.5,0,0,0,1067,385.5Z" transform="translate(-1018.816 -376)"/><path class="c" d="M1047.43,380.24l-.15.76-.92,6.47c-2.18-.48-4.12-1-5.79-1.51a49.593,49.593,0,0,1-7.07-2.65l-.62-.1L1034,376A69.073,69.073,0,0,0,1047.43,380.24Z" transform="translate(-1018.398 -376)"/><path class="c" d="M1062.01,381.77,1062,383v6.28a78.27,78.27,0,0,1-15.64-1.81l.92-6.47.15-.76A73.571,73.571,0,0,0,1062.01,381.77Z" transform="translate(-1018.535 -376)"/><path class="c" d="M1044.59,430.08,1034.03,458a1.486,1.486,0,0,1-1.93.87l-8.6-3.3L1022,455l2.58-23.9L1039,437Z" transform="translate(-1018.254 -376.495)"/><path class="c" d="M1045,429l-.4,1.07-.01.01L1039,437l-14.42-5.9,1.09-10.1,1.14.47Z" transform="translate(-1018.254 -376.367)"/><path class="c" d="M1040.57,385.96l-.01.04-10.87,17.73,3.19-20.52.62.1A49.593,49.593,0,0,0,1040.57,385.96Z" transform="translate(-1018.254 -376)"/><path class="c" d="M1046.36,387.458a78.854,78.854,0,0,0,15.64,1.8V407.5a7.6,7.6,0,0,0,1.29,4.237l.35.516a1.191,1.191,0,0,1,.19.546,1.133,1.133,0,0,1-.12.566l-2.18,4.316a9.159,9.159,0,0,0-.77,2.223L1049,477.286l-5.52,29.192a3.1,3.1,0,0,1-3.16,2.52,120.659,120.659,0,0,1-19.58-2.332,3.081,3.081,0,0,1-2.47-3.324L1021,475.3l2.28-19.706.22-.566,8.6,3.274a1.489,1.489,0,0,0,1.93-.863l10.56-27.7.01-.01.4-1.062-18.19-7.472.19-.466,2.69-17.136L1040.56,386l.01-.04C1042.24,386.466,1044.18,386.982,1046.36,387.458Z" transform="translate(-1018.254 -376)"/><path class="c" d="M1068,390v9.53a3.369,3.369,0,0,1-2.27,3.18L1062,404V389.28c1.91.04,3.9.01,5.95-.13Z" transform="translate(-1018.641 -376)"/><path class="c" d="M1094.33,382.95l3.23,20.78L1086.69,386l-.09-.28A77.679,77.679,0,0,0,1094,383Z" transform="translate(-1019.004 -376)"/><path class="c" d="M1080.86,387.268c1.88-.427,3.8-.943,5.74-1.548l.09.278,10.87,17.592,2.69,17.135.19.466-18.19,7.471.4,1.062.01.01,10.55,27.673a1.531,1.531,0,0,0,1.97.883l8.57-3.264.22.566,2.28,19.705,2.74,28.04a3.1,3.1,0,0,1-2.48,3.324c-1.97.4-4.9.933-8.38,1.4l-.13-1.012-31.91-89.04-.1.04-1.99-5.259-.17.01a1.191,1.191,0,0,0-.19-.546l-.35-.516A7.6,7.6,0,0,1,1062,407.5v-3.641l3.73-1.28a3.345,3.345,0,0,0,2.27-3.155v-9.456l-.05-.843A77.28,77.28,0,0,0,1080.86,387.268Z" transform="translate(-1019.004 -376)"/><circle class="d" cx="1.5" cy="1.5" r="1.5" transform="translate(45.355 8)"/><path class="e" d="M1033.5,383.31a48.613,48.613,0,0,0,6.982,2.65c1.649.51,3.565,1.03,5.718,1.51a76.388,76.388,0,0,0,15.446,1.81c1.886.04,3.852.01,5.876-.13a74.889,74.889,0,0,0,12.75-1.87c1.857-.43,3.753-.95,5.669-1.56a76.108,76.108,0,0,0,7.308-2.72" transform="translate(-1018.254 -376)"/><path class="e" d="M1023.28,455.586,1021,475.3l-2.73,28.046a3.081,3.081,0,0,0,2.47,3.325A120.639,120.639,0,0,0,1040.32,509a3.1,3.1,0,0,0,3.16-2.521l5.52-29.2,11.76-57.392a9.162,9.162,0,0,1,.77-2.223l2.18-4.317a1.133,1.133,0,0,0,.12-.566,1.191,1.191,0,0,0-.19-.546l-.35-.516a7.607,7.607,0,0,1-1.29-4.238V383" transform="translate(-1018.254 -376)"/><path class="e" d="M1092.366,376.105a77.506,77.506,0,0,1-30.356,5.665,73.571,73.571,0,0,1-14.58-1.53A69.073,69.073,0,0,1,1034,376l-1.12,7.21-3.19,20.52L1027,421" transform="translate(-1018.254 -376)"/><path class="e" d="M1044.6,430.07l.4-1.07-18.19-7.53-1.14-.47-1.09,10.1L1022,455l1.5.57,8.6,3.3a1.486,1.486,0,0,0,1.93-.87l10.56-27.92" transform="translate(-1018.254 -376.451)"/><path class="e" d="M1044.6,430.07l-.01.01L1039,437l-14.42-5.9" transform="translate(-1018.254 -376.409)"/><path class="e" d="M1047.28,381l-.92,6.47L1046,390" transform="translate(-1018.487 -376)"/><line class="e" x1="10.87" y2="17.73" transform="translate(11.436 10)"/><path class="e" d="M1031,435l-1,3-5.42-1.8" transform="translate(-1018.254 -376.433)"/><path class="e" d="M1103.97,456.14l2.28,19.86,2.74,28.26a3.118,3.118,0,0,1-2.48,3.35c-1.97.4-4.9.94-8.38,1.41a111.666,111.666,0,0,1-11.2.94,3.108,3.108,0,0,1-3.16-2.54L1078.25,478l-11.85-58.27a10.137,10.137,0,0,0-.41-1.43L1064,413" transform="translate(-1019.004 -376.962)"/><path class="e" d="M1093.25,376l1.08,6.95,3.23,20.78,2.69,17.27" transform="translate(-1019.004 -376)"/><path class="e" d="M1082.65,430.07l-.4-1.07,18.19-7.53,1.14-.47,1.09,10.1,2.58,23.9-1.5.57-8.57,3.29a1.528,1.528,0,0,1-1.97-.89l-10.55-27.89" transform="translate(-1019.004 -376.451)"/><path class="e" d="M1082.65,430.07l.01.01,5.59,6.92,14.42-5.9" transform="translate(-1019.004 -376.409)"/><path class="e" d="M1079.97,381l.89,6.28.39,2.72" transform="translate(-1018.771 -376)"/><line class="e" x2="10.87" y2="17.73" transform="translate(67.686 10)"/><path class="e" d="M1096.25,435l1,3,5.42-1.8" transform="translate(-1019.004 -376.433)"/><path class="e" d="M1068,390v9.53a3.369,3.369,0,0,1-2.27,3.18L1063,404" transform="translate(-1018.641 -376)"/></g></g></g></svg>