<svg xmlns="http://www.w3.org/2000/svg" width="78" height="93.165" viewBox="0 0 78 93.165"><defs><style>.a{fill:#fff;}.a,.b{stroke:#000d41;stroke-miterlimit:10;}.a,.b,.e{stroke-width:2px;}.b,.e{fill:none;}.c{fill:#ffbea3;}.d{fill:#ff6740;}.e{stroke:#fff;stroke-linecap:round;stroke-linejoin:round;}.f{fill:#e7e7e7;}</style></defs><g transform="translate(-637.565 -558.52)"><g transform="translate(666.82 565.911)"><path class="a" d="M712.217,580.264l-13.811-11.57a4.022,4.022,0,0,0-5.666.5l-14.651,17.49a4.022,4.022,0,0,0,.5,5.666L696.078,607a4.022,4.022,0,0,0,5.666-.5l11.15-13.309a2.133,2.133,0,0,0,.5-1.456l-.411-9.928A2.132,2.132,0,0,0,712.217,580.264Z" transform="translate(-677.149 -567.755)"/><path class="b" d="M721.524,584.124l-3.368,4.019a3.162,3.162,0,0,0,.009,4.44l4.428,3.71" transform="translate(-686.313 -571.495)"/><g transform="translate(17.984 19.459)"><path d="M702.591,593.326l-.416-.349-1.716,2.056c.16.133.332.274.432.355.518.419,1.174.1,1.595-.4.2-.241.806-1.073.1-1.661Z" transform="translate(-700.459 -592.977)"/></g></g><g transform="translate(647.516 559.686)"><rect class="a" width="30.86" height="30.86" rx="5.213" transform="translate(0 5.632) rotate(-10.516)"/><g transform="translate(5.087 9.79)"><path class="c" d="M663.827,593.89l4.757-6.506a.435.435,0,0,1,.553-.115l5.417,2.989a.433.433,0,0,0,.559-.126l7.8-10.737a.432.432,0,0,1,.628-.077l8,6.315,1.237,6.693-6.705,7.381-20.828,1.737Z" transform="translate(-663.827 -576.27)"/><ellipse class="d" cx="2.947" cy="2.947" rx="2.947" ry="2.947" transform="translate(1.922)"/></g></g><path class="a" d="M704.122,630.219l4.4-31.233c.331-2.352-1.235-4.486-3.292-4.486H679.966a3.381,3.381,0,0,0-3.1,2.447h0a3.381,3.381,0,0,1-3.1,2.447H647.9c-2.1,0-3.678,2.223-3.271,4.612l4.488,26.339a3.5,3.5,0,0,0,3.271,3.115h48.442A3.524,3.524,0,0,0,704.122,630.219Z" transform="translate(0 -8.602)"/><circle class="d" cx="15.192" cy="15.192" r="15.192" transform="translate(661.373 609.301)"/><g transform="translate(673.312 619.686)"><line class="e" y2="9.346" transform="translate(3.357 0)"/><path class="e" d="M690.461,638.572l-3.356-3.357-3.357,3.357" transform="translate(-683.747 -635.215)"/></g><ellipse class="f" cx="39" cy="3.5" rx="39" ry="3.5" transform="translate(637.565 644.686)"/></g></svg>