<svg xmlns="http://www.w3.org/2000/svg" width="25" height="24" viewBox="0 0 25 24"><defs><style>.a{fill:#9b9b9b;}</style></defs><path class="a" d="M25.724,17.652c-.124.084-2.69,2.733-2.69,4.592a3.027,3.027,0,0,0,2.69,3.28c1.219.058,2.69-1.169,2.69-3.28C28.414,20.276,25.848,17.736,25.724,17.652ZM11.716,25.524a2.737,2.737,0,0,0,3.8,0l9.416-9.184-.951-.928L13.618,5.3,10.534,2.293l-1.9,1.855,3.084,3.008L4.2,14.485a2.577,2.577,0,0,0,0,3.71Zm1.9-16.513,7.514,7.329H6.1Z" transform="translate(-3.414 -2.293)"/></svg>