<svg xmlns="http://www.w3.org/2000/svg" width="121.615" height="103.244" viewBox="0 0 121.615 103.244"><defs><style>.a{fill:#ffd482;}</style></defs><path class="a" d="M64.352,433.816a19.968,19.968,0,0,1,2.239-.76,1.553,1.553,0,0,0,1.217-.937c.053-.119.125-.23.2-.366,1.185-.325,2.423-.1,3.73-.339-.338-.333-.7-.23-1-.3-.438-.1-.886-.163-1.319-.279a4.39,4.39,0,0,1-.721-.369c.234-.142.355-.277.485-.284,1.932-.1,3.864-.208,5.8-.273.716-.024,1.437.085,2.155.077.581-.006,1.161-.106,1.743-.146a11.3,11.3,0,0,1,1.338-.042,24.776,24.776,0,0,0,5.506-.221,1.478,1.478,0,0,1,.4-.049c2.353.249,4.674-.216,7.011-.313.81-.034,1.618-.108,2.427-.164a31.968,31.968,0,0,0,4.167-.337,25.472,25.472,0,0,1,3.455-.255c1.011-.07,2.018-.206,3.167-.327a4.134,4.134,0,0,0-1.97-.38c-2.162-.017-4.325-.03-6.487-.018-1.3.007-2.61.065-3.914.093-.08,0-.162-.067-.259-.111a5.587,5.587,0,0,0,.335-1.217,1.108,1.108,0,0,0-1.223-1.284,12.792,12.792,0,0,0-1.756.073c-3.008.324-6.03.318-9.048.372-3.515.063-7.031.056-10.546.077a3.339,3.339,0,0,1-1.82-.305c.044-.316.3-.327.507-.334,1.169-.046,2.339-.058,3.508-.106.809-.033,1.617-.107,2.426-.162.4-.027.8-.064,1.206-.076,1.885-.052,3.771-.051,5.653-.156s3.766-.331,5.652-.468c2.465-.179,4.935-.3,7.4-.49.8-.061,1.6-.24,2.406-.367a4.191,4.191,0,0,0-3.172-.049,1.79,1.79,0,0,1-.522.018c-.489.017-.981.011-1.467.06a6.831,6.831,0,0,1-2.542.129,1.173,1.173,0,0,0-.536,0,47.1,47.1,0,0,1-5.344.377,11.469,11.469,0,0,1-2.958.148c-.784.432-1.565.075-2.357.025a6.28,6.28,0,0,0-3.056.252.731.731,0,0,1-.518.013,6.1,6.1,0,0,0-3.2-.033,15.605,15.605,0,0,1-2,.076.761.761,0,0,1-.432-.244,1.5,1.5,0,0,0-1.248-.379c-.668.064-1.337.116-2,.173-.049-.07-.141-.142-.134-.2.1-1,.1-1-.788-1.362-.166-.068-.325-.151-.491-.22-.118-.049-.242-.086-.537-.189l1.609-.444c0-.364.011-.674,0-.984a.913.913,0,0,1,.343-.839,1.674,1.674,0,0,0,.564-1.424,2.018,2.018,0,0,1,1.331-.252,13,13,0,0,0,2.14-.251,16.058,16.058,0,0,1,2.414-.2c.853-.038,1.709-.017,2.563-.047,2.565-.09,5.132-.155,7.693-.3,1.39-.081,2.777-.215,4.17-.288,2.338-.121,4.672-.322,7.007-.491a1.12,1.12,0,0,0,.672-.227,1.723,1.723,0,0,0-.514-.142c-1.665.082-3.333.133-4.992.289-3.276.308-6.558.468-9.843.545-2.882.067-5.764.076-8.647.109a5.69,5.69,0,0,1-2.454-.452c-.255-.572.482-.628.455-1.049-.542-.243-.542-.243-.934.224a.9.9,0,0,1-.327-.126,1.979,1.979,0,0,0-1.595-.567,4.191,4.191,0,0,1-1.617-.173c.68-.02,1.359-.032,2.039-.063a6.915,6.915,0,0,0,1.208-.11c.62-.14.835-.54.719-1.2-.068-.395-.141-.788-.223-1.254-.3-.046-.6-.115-.9-.132-1.89-.1-3.783-.159-5.67-.307a6.284,6.284,0,0,1-2.9-.752c.337-.787.163-1.679.457-2.5.059-.165.032-.361.089-.527a5.676,5.676,0,0,1,.294-.605.79.79,0,0,0-.021-.774c-.1-.19-.191-.39-.328-.674.3-.049.5-.088.712-.116.175-.025.351-.037.6-.063a4.083,4.083,0,0,1-.364-.617.77.77,0,0,1,.7-1.15c.67-.057,1.349-.02,2.024-.024.22,0,.44,0,.854,0-.732-.563-1.49-.392-2.1-.652l-1.059-1.744.428-1.732c.213-.293,1.016-.126,1.1-.937l-.9-1.05a13.143,13.143,0,0,1,1.85-.379,18.351,18.351,0,0,1,2.015.107c.674.03,1.35.04,2.025.055,1.215.027,2.431.057,3.646.072.31,0,.642,0,.814-.428-1.663-.156-3.349.133-4.945-.449-.112-.041-.19-.172-.273-.25.04-.342.3-.325.5-.342.527-.044,1.056-.058,1.564-.082.02-.124.039-.164.027-.188s-.055-.091-.09-.1c-.8-.111-1.6-.216-2.41-.323-.085-.714-.659-.874-1.229-1.092a21.062,21.062,0,0,0,4.665-.093,6.693,6.693,0,0,0-2.329-.482,7.605,7.605,0,0,1-1.468-.223A1.9,1.9,0,0,1,64.8,392.6c.188-.089.4-.285.553-.246.885.219,1.765-.148,2.662.057a17.638,17.638,0,0,0,2.551.265q1.339.1,2.681.16a8.865,8.865,0,0,0,1.032-.088c-.609-.745-1.437-.062-2-.586-.526-.487-1.31-.007-1.985-.313l.576-.322c-1.211-.208-2.348-.413-3.488-.6a3.269,3.269,0,0,1-1.936-.954l.653-.327c-.04-.879-.946-.857-1.539-1.437l2.059.1c0-.315-.018-.569,0-.819s.088-.526.147-.866c.287,0,.59,0,.893,0,1.4-.016,2.792-.018,4.186-.062a1.753,1.753,0,0,0,.876-.273,2.972,2.972,0,0,1,2.679-.493.9.9,0,0,0,.388-.035c.04-.007.073-.051.113-.081-.054-.312-.277-.3-.5-.236a2.084,2.084,0,0,1-1.735-.139c.131-.136.2-.276.294-.3a12.522,12.522,0,0,1,3.988-.2,13.623,13.623,0,0,0,1.612-.065c1.3-.02,2.611-.047,3.916-.03,2.562.035,5.124.079,7.685.157,2.52.076,5.038.184,7.556.309.9.044,1.789.181,2.683.276.134.014.268.034.4.043,2.109.143,4.219.291,6.329.427,2.019.129,4.031.328,6.041.564,1.34.158,2.689.237,4.035.349.725.06.725.057,1.331.733a2.32,2.32,0,0,0,.391.05,7.7,7.7,0,0,1,2.4.221,12.892,12.892,0,0,0,2.136.283c1.206.133,2.414.256,3.621.382a2.193,2.193,0,0,1,.536.049,12.083,12.083,0,0,0,2.377.343c1.644.282,3.307.273,4.956.452.4.044.809.079,1.206.159a22.631,22.631,0,0,0,3.045.361,21.216,21.216,0,0,1,5.046.794,16.213,16.213,0,0,0,3.68.813c1.622.113,1.746.173,3.3,1.273a3.591,3.591,0,0,0,1.591.659c.624.092,1.256.148,1.872.274a2.845,2.845,0,0,1,1.6.61c.291.282.829.3,1.244.467a7.671,7.671,0,0,0,2.431.779c.246.014.479.228.722.34a4.782,4.782,0,0,0,.854.361,1.56,1.56,0,0,1,1.045.531,1.215,1.215,0,0,0,.726.3c.621.11,1.248.192,1.876.253a2.039,2.039,0,0,1,1.2.524,5.03,5.03,0,0,1-.963.254c-1.212.053-2.426.075-3.641.1-.45.009-.9-.016-1.352-.008a.79.79,0,0,0-.759.467c-.177.393.2.536.382.772-.262.34-.69.62-.259,1.153.144.178.1.506.155.815l1.1.43a7.694,7.694,0,0,0-.991.232,1.125,1.125,0,0,0-.489,1.858,1.74,1.74,0,0,0,1.364.764c.538.01,1.076.051,1.658.08a2.081,2.081,0,0,1,.314.4,1.423,1.423,0,0,0,1.283.847c.538.048,1.078.076,1.618.107a1.942,1.942,0,0,1,1.369.348,3.5,3.5,0,0,1-.742.273,3.58,3.58,0,0,1-.94-.028,1.84,1.84,0,0,0-1.808.714,1.93,1.93,0,0,0,1.22,1.1l-.365.862,1.257.556-.774.922c-.647,0-1.275-.007-1.9,0a7.792,7.792,0,0,0-1.209.061c-.611.105-.784.561-.458,1.108a1.319,1.319,0,0,0,1.076.714c.405.028.812.035,1.215.076.441.045.879.118,1.324.18.026.342-.2.27-.319.333a2.709,2.709,0,0,0-.563.327c-.125.114-.15.334-.27.458a.763.763,0,0,1-.449.253,1.628,1.628,0,0,0-1.552,1.047c-.4.1-.75.186-1.1.265-.175.04-.4.144-.524.076-1.1-.6-2.212.058-3.324-.052-1.071-.106-1.241.153-1.379,1.359-3.264.241-6.531-.4-9.791-.126-.083.3.106.348.275.392.421.108.9.047,1.3.45a1.425,1.425,0,0,1-.454.064,3.028,3.028,0,0,0-1.853.111,3.288,3.288,0,0,1-1.322.256c-1.855-.138-3.647.529-5.5.4a4.534,4.534,0,0,0-1.115.22c.565.772,1.461-.014,1.983.558a2.175,2.175,0,0,1-1.731.976c-.522,0-1.045.008-1.663.013.115.227.149.406.229.431.295.09.608.121.907.2.028.007,0,.208,0,.352.336.022.688.064,1.038.058.163,0,.42-.057.468-.163.174-.385.462-.354.787-.325a1.408,1.408,0,0,0,.531-.044,1.062,1.062,0,0,1,1.119.238,3.1,3.1,0,0,0,.9.319,2.884,2.884,0,0,1-.562.175c-.9.038-1.8.1-2.7.083a41.49,41.49,0,0,0-5.781.466c-.218.028-.557.06-.62.193-.3.638-.812.405-1.276.385a4.259,4.259,0,0,1-.537-.065,8.139,8.139,0,0,0-1.327-.233c-.806-.006-1.612.075-2.454.122.162.453.519.354.8.384,1.343.145,2.688.269,4.032.405a3.749,3.749,0,0,1,.447.108,3.3,3.3,0,0,1-1.852.367,12,12,0,0,1-1.619-.073,15.137,15.137,0,0,0-1.75-.126,38.429,38.429,0,0,1-4.4-.381,18.533,18.533,0,0,0-4.432.067,26.472,26.472,0,0,1-5.512.289c-1.257-.045-2.521.061-3.781.109a6.285,6.285,0,0,0-.794.174c1.319.069,2.324.158,3.33.165a35.106,35.106,0,0,1,4.57.244.467.467,0,0,0,.135,0c1.675-.292,3.3.24,4.953.306.18.007.359.051.539.051,1.986,0,3.953.247,5.926.434.321.03.321.029,1.025-.283l-.579-.28c.73-.468,1.326-.038,2.184-.041l-.707.307c.041.061.08.172.126.175.672.041,1.345.068,2.1.1l-1.036.174-.005.153c.235.056.474.1.7.171.205.064.4.163.674.277l-.363.29a2.717,2.717,0,0,0,1.873.658c1.706-.023,3.412-.029,5.118-.034,1.658-.005,3.316,0,4.968-.091-.985.142-1.972.28-2.957.428a6.481,6.481,0,0,1-2,.114,10.344,10.344,0,0,0-1.877.116q-2.361.085-4.723.127a4.452,4.452,0,0,0-1.675.337,3.516,3.516,0,0,0,.693.18,14.384,14.384,0,0,0,2.685-.026,2.276,2.276,0,0,1,.808.014,30.581,30.581,0,0,0,4.714.025c1.033,0,2.066.112,3.1.171a10.1,10.1,0,0,0,1.211.047,1.659,1.659,0,0,1,1.245.422,1.568,1.568,0,0,1,.677,1.393,10.767,10.767,0,0,1-4.027.825c-1.257.095-2.52.128-3.781.181a4.244,4.244,0,0,1-.945-.011c-2.2-.412-4.4-.07-6.6-.077a4.5,4.5,0,0,1-2.619.116.418.418,0,0,0-.133.016c-2.815.31-5.653.257-8.469.525-1.025.1-2.039.308-3.064.417-1.7.181-3.405.322-5.109.477a3.777,3.777,0,0,1-.54.014,69.16,69.16,0,0,0-7.249.475c-.135.007-.268.048-.4.05-2.34.04-4.657.383-6.988.537-.761.05-1.519.148-2.278.224a5.051,5.051,0,0,1-.806.079c-2.582-.161-5.092.537-7.655.646a22.3,22.3,0,0,1-3.215.2,17.366,17.366,0,0,0-2.554-.05c-.45.019-.9.078-1.346.118a4.651,4.651,0,0,1-.8.057,57.593,57.593,0,0,0-6.342.067c-1.307.027-2.616.025-3.923.044a2.416,2.416,0,0,1-1.408-.379C65.375,434.328,64.935,434.128,64.352,433.816Zm36.4-10.921a21.117,21.117,0,0,0,6.08-.259c.05-.007.083-.142.143-.253-.906-.356-1.755.178-2.64.157A27.168,27.168,0,0,0,100.749,422.9Zm7.339-.561a2.989,2.989,0,0,0,1.929,0Zm-32.911-29.7a2.932,2.932,0,0,0,1.9,0A3.076,3.076,0,0,0,75.178,392.636ZM133,420.717c.309.181.609.447.858-.029a1.094,1.094,0,0,0-.373-.115A2.242,2.242,0,0,0,133,420.717ZM78.35,392.642a2.019,2.019,0,0,0-.22-.049c-.014,0-.035.047-.052.073a2.131,2.131,0,0,0,.219.049C78.312,392.716,78.332,392.668,78.35,392.642Zm59.737,27.316,0,.084.1-.038Zm-36.334,17.949a10.27,10.27,0,0,0,1.606.126,13.315,13.315,0,0,0,1.66.43c2.295.025,4.591.121,6.882.249,3.954.221,7.906.48,11.858.734,1.572.1,3.142.234,4.714.342.306.022.649.073.768-.4a6.152,6.152,0,0,0-1.54-1.659,6.186,6.186,0,0,1-3.05.2,1.088,1.088,0,0,1-1.053-.8l.7-.219a3.366,3.366,0,0,0-1.288-.29c-.809-.045-1.62-.062-2.43-.1-2.967-.143-5.935-.3-8.9-.429a1.558,1.558,0,0,0-1.48.416c-.153.183-.589.18-.895.175-2.3-.036-4.592-.1-6.888-.142-.63-.012-1.262-.019-1.891.008a.506.506,0,0,0-.537.565A12.635,12.635,0,0,0,101.752,437.907Zm.613-4.087a2.366,2.366,0,0,0,.389.064c2.071.007,4.142,0,6.213.015.763.007,1.528.038,2.287.113a53.789,53.789,0,0,0,5.373.453c.81,0,1.621.052,2.429.109,1.8.126,3.593.248,5.386.415a26.715,26.715,0,0,1,4.033.313,1.566,1.566,0,0,0,1.164-.118c-.112-.075-.179-.154-.256-.166a52.568,52.568,0,0,0-5.735-.756c-1.571-.076-3.137-.271-4.708-.348-2.111-.1-4.224-.163-6.337-.206-2.649-.054-5.3-.08-7.949-.1-.758-.007-1.517.035-2.275.055Zm14.929,1.969a17.077,17.077,0,0,1,2.93.223,3.07,3.07,0,0,0,1.523-.013c-.164-.108-.261-.223-.37-.237a49.417,49.417,0,0,0-6.561-.334A20.979,20.979,0,0,0,117.295,435.789Zm3.974-12.054h-2.332l0,.065,2.332.158Zm3.375.209-1.511.068,0,.092h1.546ZM69.228,391.517l-1.216-.053C68.837,391.858,68.837,391.858,69.228,391.517Zm23.408,36.191-1.308.068,0,.106h1.331Zm34.215-3.447c-.208,0-.417.011-.624,0s-.408-.05-.612-.077l0,.149h1.239Zm-5.6-37.083h-1.014l-.007.12,1.007.1Zm2.353,48.7-.811-.044C123.281,436.213,123.281,436.213,123.608,435.88Zm8.881-47.576H132l.01.094.492-.028Zm7.966,31.8-.279.2c.05.062.105.177.151.174a.95.95,0,0,0,.288-.126Zm.177-31.007a.589.589,0,0,0-.134,0c.04.031.075.076.12.088s.083-.019.125-.031A.468.468,0,0,0,140.632,389.095Zm-16.714-1.6a1.893,1.893,0,0,0-.228-.055c-.035,0-.073.025-.11.038l.175.1ZM143.5,421.308c-.017,0-.031.107-.046.165a1.3,1.3,0,0,0,.223-.017c.022-.005.03-.068.044-.105A.878.878,0,0,0,143.5,421.308ZM64.22,394.036c.038.017.094.059.112.047.035-.025.05-.079.073-.121l-.132-.007Zm65.347-6.064-.429-.02,0,.127h.429Zm7.393.937a.308.308,0,0,0,.116.02l-.028-.145-.11.033C136.945,388.849,136.942,388.9,136.961,388.909Z" transform="translate(-249.074 -243.138) rotate(-31)"/></svg>