<svg xmlns="http://www.w3.org/2000/svg" width="80" height="84" viewBox="0 0 80 84"><defs><style>.a{isolation:isolate;}.b{fill:#ffc728;}.c{fill:#ffdb09;}.d{fill:#ffb500;}</style></defs><g transform="translate(-196.545 -43.797)"><g transform="translate(196.64 43.797)"><g transform="translate(0)"><g transform="translate(29.707)"><g class="a"><g transform="translate(0.096)"><path class="b" d="M249.648,43.8l2.963,5.056,6.684.85-4.669,4.282,1.474,6.547-6.452-3.168L243.2,60.533l1.473-6.547L240.007,49.7l6.683-.85Z" transform="translate(-240.007 -43.797)"/></g><g transform="translate(0 39.749)"><path class="c" d="M243.179,92.53l1.01,1.723,2.278.289L244.876,96l.5,2.231-2.2-1.08-2.2,1.08.5-2.231-1.589-1.46,2.278-.289Z" transform="translate(-239.893 -92.53)"/></g></g></g><g transform="translate(0 10.229)"><g transform="translate(59.64)"><g class="a" transform="translate(0)"><path class="b" d="M284.588,57.454l3.119,5.052,6.348,1.062L289.829,67.4l1.588,5.949-6.089-3-5.862,2.693.942-5.962-4.867-4.245,6.467-.558Z" transform="translate(-275.541 -57.454)"/></g></g><g transform="translate(0 0.002)"><g class="a"><path class="b" d="M213.79,57.456l-3.119,5.052-6.348,1.06,4.226,3.832-1.588,5.95,6.089-3,5.862,2.695-.942-5.963,4.865-4.245-6.467-.558Z" transform="translate(-204.323 -57.456)"/></g></g></g></g><g transform="translate(19.501 3.676)"><path class="b" d="M230.445,48.166l-.919,1.8-1.873.379,1.248,1.366-.47,2.12,1.8-1.071,1.729.959-.277-2.125,1.436-1.512-1.91-.2Z" transform="translate(-227.652 -48.166)"/></g><g transform="translate(9.673 41.221)"><path class="c" d="M217.937,93.847l-.684,1.108-1.392.232.928.84-.349,1.3,1.336-.658,1.285.59-.206-1.307,1.066-.931L218.5,94.9Z" transform="translate(-215.861 -93.847)"/></g><g transform="translate(53.599)"><path class="b" d="M271.064,43.8l.921,1.8,1.874.379-1.248,1.365.468,2.12-1.8-1.071-1.729.96.276-2.125-1.437-1.512,1.909-.2Z" transform="translate(-268.394 -43.797)"/></g><g transform="translate(48.216 39.517)"><path class="c" d="M263.941,91.777l.683,1.108,1.394.232-.928.841.348,1.3L264.1,94.6l-1.285.591.206-1.307-1.068-.931,1.419-.122Z" transform="translate(-261.956 -91.777)"/></g></g><path class="d" d="M284.21,105.279c0,15.982-17.909,28.938-40,28.938s-40-12.955-40-28.938,17.908-28.939,40-28.939S284.21,89.3,284.21,105.279Z" transform="translate(-7.665 -6.419)"/><g transform="translate(197.859 71.604)"><path class="b" d="M244.006,77.45c-21.332,0-38.685,12.321-38.685,27.465s17.353,27.464,38.685,27.464,38.687-12.32,38.687-27.464S265.337,77.45,244.006,77.45Z" transform="translate(-205.321 -77.45)"/></g></g></svg>