<svg xmlns="http://www.w3.org/2000/svg" width="80" height="68" viewBox="0 0 80 68"><defs><style>.a{fill:#ae48f6;}</style></defs><g transform="translate(-42.732 -68.726)"><path class="a" d="M145.081,108.944c-3.009-.691-5.1-2.22-7.471-4.082-1.414-1.108-5.276-2.234-6.085-3.923a2.479,2.479,0,0,1,1.693-2.021,6.333,6.333,0,0,1,3.475-.008,7.251,7.251,0,0,0,3.514.71,1.287,1.287,0,0,0,1.135-1.431c-.224-1.549-1.031-2.214-2.529-1.883-1.457.321-2.519,1.314-4.1.271a2.528,2.528,0,0,0-1.964-.288q-.665-.934-1.328-1.87a5.966,5.966,0,0,1,1.635-1.768,18.5,18.5,0,0,1,1.589-1.017,4.74,4.74,0,0,0,2.08-2.511c.485-1.311,1.333-1.492,2.182-2.44a2.883,2.883,0,0,0,.757-1.742c-.123-1.351-1.584-.842-2.4-.418a4.32,4.32,0,0,0-1.481,1.4c-.377.552-.728,1.107-1.15,1.628-.954,1.179-2.556,1.167-3.875,1.269a6.624,6.624,0,0,0-2.774.882c-2.725,1.478-3.348-.355-3.969-2.319-1.167-3.689,1.351-7.16,2.887-10.362.461-.961,1.822-4.36-.668-3.348-1.474.6-1.826,1.817-1.9,3.3-.129,2.739-1.977,9.03-5.688,8.626a5.325,5.325,0,0,0-2.4-.014c-.164.049-.483.25-.314.46.444.553,1.691,1.655-.9.877a5.126,5.126,0,0,1-2.565-1.973c-1.156-1.646-.459-3.939-1.46-5.7-.173-.305-.858-.042-.811.3a14.032,14.032,0,0,1,.435,3.731c-2.287-1.927-2.078-5.263-3.554-7.736-.43-.72-2.292-2.86-3.1-1.208-.524,1.071-.041,1.786.719,2.626a18.19,18.19,0,0,1,3.327,4.162,11.248,11.248,0,0,1,.869,5.581c-.056.693-.5,1.3-.6,1.97-.156,1.067-.148,2.129-.3,3.185a.955.955,0,0,0-.526.174c-2.14-1.009-3.712-4.612-6.233-3.486-.131.058-.348.265-.2.42.709.761,6.823,3.661,5.347,4.66l-.031-.018c-.139-.083-.84.044-.822.255,0,.011,0,.022,0,.032-.179.033-.518.166-.44.405a4.157,4.157,0,0,1,.24,1.64c-.012.029-.026.057-.039.087a2.714,2.714,0,0,0-.884-.093,1.676,1.676,0,0,0-2.085.814c-.046.078.1.085.138.087a9.062,9.062,0,0,1-1.292.767.6.6,0,0,0-.579.062c-.077,0-.153.009-.23.009-.5.013-.995-.011-1.491-.032-.944-.037-1.885-.135-2.826-.228a23.454,23.454,0,0,0-4-.191,4.906,4.906,0,0,0-2.418.566c-1.116.789.847,1.836,1.419,2.168a5.7,5.7,0,0,0,3.991.778,1.088,1.088,0,0,0,.635-.418c.242-.4.753-1.769,1.6-1.039.313.271.441.534.89.62,2.113.406,4.208-.532,6.343.232,1.266.453,1.623,1.782,1.823,2.962.357,2.1-.736,3.142-2.676,3.525-1.724.339-2.826,1.481-4.079,2.667-1.9,1.795-5.223,1.916-6.647,4.209-1.378,2.217,2.507,2.99,3.841,1.913a7.189,7.189,0,0,0,1.594-2.113,6.259,6.259,0,0,1,1.993-2.051c.681-.516,1.3-1.286,2.264-1.064a2.4,2.4,0,0,0,.67.091,3.183,3.183,0,0,0,1.348-.45c1.055-.629,3.211-4.649,3.967-1.648.457,1.812-.97,3.838-2.08,5.111-.709.815-2.983,3.822-.311,3.564,2.056-.2,1.9-2.458,2.641-3.971a6.494,6.494,0,0,1-.068,1.509c-.767.921-.873,2.693-1.343,3.693-.054.115.732.05.834-.155a14,14,0,0,0,1.324-3.537,3.88,3.88,0,0,1,1.968-1.018c-.281,1.062-1.058,1.488-1.946,2.571-.574.7-.078,1.117.7,1.118,1,0,1.543-.876,1.993-1.64.064-.109.776-1.517,1.141-.625a2.972,2.972,0,0,1-.192,1.585,8.413,8.413,0,0,1-1.46,2.978c-.884,1.126-2.2,1.9-2.655,3.167a.2.2,0,0,0-.1.119,3.158,3.158,0,0,0-.046.6,3.111,3.111,0,0,0,.013.611,1.072,1.072,0,0,0,.531.8,1.837,1.837,0,0,0,2.9-.636,1.951,1.951,0,0,0,.476-1.807,19.666,19.666,0,0,1,1.987-5.277A14.71,14.71,0,0,0,116.169,114a.238.238,0,0,1,.233-.163,1.082,1.082,0,0,0,1.582.432c.032-.019.062-.04.093-.059,1.555-.174,2.6-1.563,4.009-1.191.465.247.862.536,1.275.794a24.641,24.641,0,0,1,2.023,2.932,5.442,5.442,0,0,1,.941,2.359c.407,2.188.643,3.6,2.59,4.867a2.264,2.264,0,0,0,2.491.255c3.333-1.986-2.858-7.3-3.93-8.781-.972-1.34-2.019-3.728-1.118-5.31a3.1,3.1,0,0,1,.7-.866,5.883,5.883,0,0,1,1.668-.324,4.607,4.607,0,0,1,1.773,1.2,7.394,7.394,0,0,0,.876.808,3.126,3.126,0,0,0,2.016.422c.82-.114,1.666-.243,1.835-1.171.095-.522-.891-.788-1.2-.92-.508-.217-.416-.859-.314-1.276.193-.791,1.663-.427,2.2-.317,4.506.918,7.94,4.372,12.806,3.9.078-.008.726-.15.586-.3A7.413,7.413,0,0,0,145.081,108.944Z" transform="translate(-34.418 -3.467)"/><path class="a" d="M318.674,215.129c-.7-.051-1.409.166-2.113.052a3.914,3.914,0,0,1-1.433-.809,10.837,10.837,0,0,0-1.556-.772.817.817,0,0,0-.66.156c-.264.068-.508.241-.361.365.667.561,1.36,1.081,2.08,1.574.7.476,1.759.794,2.279,1.453a1.488,1.488,0,0,0,2.269.1C319.868,216.622,319.681,215.2,318.674,215.129Z" transform="translate(-196.857 -105.214)"/><path class="a" d="M202.737,108.44a6.264,6.264,0,0,0,.54-.422,2.393,2.393,0,0,0,.316-.446.2.2,0,0,0-.013-.221.814.814,0,0,0-.854-.232,1.052,1.052,0,0,0-.338.2.387.387,0,0,0-.176.164.326.326,0,0,0-.178.233.185.185,0,0,0,.079.182,1.775,1.775,0,0,0-.079.4C202.019,108.654,202.556,108.575,202.737,108.44Z" transform="translate(-116.219 -27.907)"/><path class="a" d="M269.171,227.7a1.217,1.217,0,0,0-.819.023,4.584,4.584,0,0,0-.489.3c-.135.073-.3.232-.224.392a.813.813,0,0,0-.164.476c-.007.2.211.309.393.28a2.373,2.373,0,0,0,.988-.222c.27-.179.359-.642.476-.916A.243.243,0,0,0,269.171,227.7Z" transform="translate(-163.966 -115.44)"/><path class="a" d="M148.6,242.225a1.375,1.375,0,0,0-.493.157.658.658,0,0,0-.176.191.447.447,0,0,0-.265.177c-.042.087.079.1.189.1a.047.047,0,0,1-.009,0,1.35,1.35,0,0,0-.478,1.836c.094.171.55.008.668-.055.914-.489,1.519-1.37.909-2.362C148.885,242.168,148.7,242.212,148.6,242.225Z" transform="translate(-76.203 -126.015)"/><path class="a" d="M160.9,269.712a.154.154,0,0,0-.123-.156c-.008-.014-.014-.031-.023-.046-.156-.27-.966.021-.846.227.047.082.088.168.129.254-.3,1.953-3.982,12.924-1.245,12.44,1.915-.338,2.036-3.535,2.236-5.013.291-2.151.83-5.585-.135-7.632C160.889,269.761,160.893,269.736,160.9,269.712Z" transform="translate(-83.941 -145.72)"/><path class="a" d="M92.288,234.158a.538.538,0,0,0-.231.2l-.039.069c-.054,0-.107,0-.161.012a1.109,1.109,0,0,0-.849.61c-.029.055.033.1.076.11a2.054,2.054,0,0,0,1.363.1c.411-.156.535-.561.715-.925a.068.068,0,0,0-.022-.084A.638.638,0,0,0,92.288,234.158Z" transform="translate(-35.125 -120.089)"/><path class="a" d="M53.524,232.565a2.881,2.881,0,0,0-.469.238c-.211.133-.012.159.223.139a.4.4,0,0,1,0,.051,1.252,1.252,0,0,0-.435.058c-2.988,1.317-5.369,3.622-8.293,5.038-1.837-1.3-3,2.9.134,3.038,1.241.054,2-1.207,2.655-2.047,1.9-2.449,4.773-3.871,6.866-6.134a.1.1,0,0,0,.039-.088l-.146-.3C54.02,232.4,53.635,232.519,53.524,232.565Z" transform="translate(0 -118.928)"/><path class="a" d="M69.669,156.744a.046.046,0,0,0-.018-.067,2.23,2.23,0,0,0-.569-.143,6.27,6.27,0,0,0-4.065-.389c-.064.023-.353.126-.255.234C66.029,157.761,68.384,158.554,69.669,156.744Z" transform="translate(-16.016 -63.351)"/><path class="a" d="M111.475,155.05c1.411.185,2.778.708,4.211.424.057-.011.618-.16.483-.283a4.788,4.788,0,0,0-3.191-.9c-.145,0-.776.247-.651.31a4.521,4.521,0,0,0-.743.247C111.531,154.872,111.282,155.024,111.475,155.05Z" transform="translate(-50.105 -62.157)"/><path class="a" d="M120.213,72.521a2.825,2.825,0,0,0,.6.45c.2.106.638.047.73-.2.1-.274.19-.551-.07-.757a.766.766,0,0,0-.273-.107c-.017,0-.123-.047-.048-.012-.063-.029-.021,0-.056-.061a.286.286,0,0,0-.259-.114.876.876,0,0,0-.793.322C119.913,72.261,120.061,72.379,120.213,72.521Z" transform="translate(-56.368 -2.174)"/><path class="a" d="M87.652,70.7a4.164,4.164,0,0,0-.445-.536.16.16,0,0,0,.007-.194,3.773,3.773,0,0,0-1.372-1.209c-.168-.087-.864.023-.759.322a3.552,3.552,0,0,0,1.84,1.994C87.126,71.175,87.838,71.016,87.652,70.7Z" transform="translate(-30.811)"/><path class="a" d="M123.246,110.857a2.807,2.807,0,0,1,.6.592c.06.077.115.165.17.253v.541a.324.324,0,0,0,.4.292,1.661,1.661,0,0,0,.81-.408c.194-.159.315-.392.19-.543l.006,0a.594.594,0,0,0-.59-.313.37.37,0,0,0-.05.009.536.536,0,0,1-.035-.044c-.08-.113-.165-.223-.252-.331a3.009,3.009,0,0,0-.6-.55C123.575,110.132,122.841,110.573,123.246,110.857Z" transform="translate(-58.655 -30.196)"/><path class="a" d="M147.836,125.682c-.187-.338-.546-.539-.731-.876,0-.017-.019-.028-.049-.036a.673.673,0,0,0-.445.036.591.591,0,0,0-.326.168c-.022.022-.035.044-.026.059v.73l.024.028a1.87,1.87,0,0,0,.853.17C147.21,125.961,147.92,125.836,147.836,125.682Z" transform="translate(-75.527 -40.693)"/></g></svg>