<svg xmlns="http://www.w3.org/2000/svg" width="90" height="51" viewBox="0 0 90 51"><defs><style>.a{fill:#009b83;}</style></defs><g transform="translate(-136.53 -45.277)"><path class="a" d="M207.244,58.482c.109-.114.283-.184.24-.4-.009-.048.049-.114.085-.165.059-.082.126-.158.19-.237l-.144-.108a1.139,1.139,0,0,1,.5-.436.481.481,0,0,1,.258.013c.061.013.113.061.174.078a.25.25,0,0,0,.251-.052c.047-.043.112-.074.143-.126.188-.315.526-.436.807-.628a.721.721,0,0,1,.424-.16.259.259,0,0,0,.145-.044.692.692,0,0,1,.475-.1.482.482,0,0,0,.287-.082,3.382,3.382,0,0,1,.768-.322,3.766,3.766,0,0,0,.834-.375,8.622,8.622,0,0,0,1.014-.535.652.652,0,0,1,.207-.093,2.22,2.22,0,0,0,.648-.32,2.282,2.282,0,0,1,.649-.32.6.6,0,0,0,.408-.26.061.061,0,0,1,.026-.028,10.54,10.54,0,0,1,1.059-.516,6.83,6.83,0,0,0,.718-.248c.055-.021.093-.084.144-.122.15-.113.277-.267.493-.257a.109.109,0,0,0,.085-.062c.022-.157.2-.194.255-.347l-.13-.162a.967.967,0,0,1,.114-.1c.063-.04.131-.1.211-.05.111.065.012.16.024.242l.252.209v-.011a.576.576,0,0,1-.234.661c-.137.091-.266.194-.4.291-.042.03-.079.062-.051.122l-.021-.012h.013l.185.029-.053.129.009-.011a2.91,2.91,0,0,0-.561.094,2.629,2.629,0,0,0-.451.286c-.344.218-.69.432-1.034.652a2.565,2.565,0,0,1-.405.21,4.138,4.138,0,0,0-.492.294c-.285.169-.574.332-.859.5-.209.123-.421.241-.621.376a1.053,1.053,0,0,1-.492.19.729.729,0,0,0-.219.056,6.426,6.426,0,0,0-1.256.633.353.353,0,0,0-.051.074l.282.083-.009-.01c.02.077-.028.118-.082.154l-.358.235a2.355,2.355,0,0,1-.056.259c-.049.155-.072.287.086.408.082.063.048.186-.043.263a1.947,1.947,0,0,1-.272.212.54.54,0,0,0-.258.4,1.1,1.1,0,0,1-.126.393c-.021.035,0,.093,0,.123.081.06.106,0,.148-.017a.575.575,0,0,1,.471-.058,1.045,1.045,0,0,0,.524.033,2.737,2.737,0,0,1,.47-.006l-.034.273c.178.021.328-.077.515-.072.008.067.022.136.025.207a.462.462,0,0,0,.288.454.476.476,0,0,1,.088.06,2.319,2.319,0,0,1-.044,1.181,1.129,1.129,0,0,1,.191.643c-.1.121-.221.283-.36.43a2.611,2.611,0,0,0-.4.6c-.07.134-.132.272-.211.435.032.122.289.125.215.374a.468.468,0,0,1-.478.13.637.637,0,0,0-.41,0c-.146.047-.3.074-.445.109a.4.4,0,0,0-.072.1.743.743,0,0,1-.739.495.6.6,0,0,0-.512.284,1.63,1.63,0,0,1-.316.329c-.145.125-.272.269-.406.406a4.429,4.429,0,0,1-.657.582c-.264.18-.507.387-.758.585-.016.012-.014.045-.021.072.043.086.124.068.2.061a.6.6,0,0,0,.362-.109,5.8,5.8,0,0,1,.986-.6.843.843,0,0,0-.073.221.461.461,0,0,0,.058.18c.031.069.071.135.106.2a2.183,2.183,0,0,0-.067.262,2.4,2.4,0,0,0,0,.286.7.7,0,0,0-.231.482.958.958,0,0,1-.093.288c-.125.337-.031.526.321.638.071.023.145.039.234.062l-.2.3a1.415,1.415,0,0,0-.216,0,.5.5,0,0,0-.177.063.2.2,0,0,0-.1.257.179.179,0,0,0,.284.085,2.07,2.07,0,0,1,.426-.157.42.42,0,0,1,.223-.042.365.365,0,0,0,.332-.151,1.722,1.722,0,0,1,.453-.341,2.463,2.463,0,0,0,.435-.365,1.75,1.75,0,0,1,.142-.123.254.254,0,0,1,.32,0c.061.045.126.086.185.126.087.253-.083.415-.2.617.078.046.151.087.221.131.108.067.243-.019.36.085.087.078.236.084.354.131s.229.108.345.159a.562.562,0,0,0,.11.025c.171-.164.171-.164.345-.167.076.072.007.144,0,.213-.021.125-.058.248-.078.373a.346.346,0,0,0,.011.185c.065.15.144.293.219.442.225-.053.3-.381.581-.295a.137.137,0,0,1,0,.176c-.106.184-.157.406-.389.5a.258.258,0,0,0-.126.14c-.092.255-.334.373-.5.562a.725.725,0,0,1-.259.155.86.86,0,0,0-.475.473.667.667,0,0,1-.127.186,1.4,1.4,0,0,0-.218.261c-.037.068-.142.1-.235.155a1.1,1.1,0,0,1-.4.723c-.246.176-.248.174-.5.154a.546.546,0,0,0-.05-.131c-.025-.038-.067-.083-.106-.087s-.09.033-.13.06a.128.128,0,0,0-.037.066c-.042.126-.083.253-.136.418a3.023,3.023,0,0,0,.822-.224,1.054,1.054,0,0,1,.7-.14c.129.019.251.045.273.215.007.052.075.1.116.142s.1.105.166.174c-.056.03-.087.062-.115.059a.6.6,0,0,0-.4.1,3.8,3.8,0,0,0-.779.476.366.366,0,0,0-.315.239c-.007.019-.038.034-.061.042a6.485,6.485,0,0,0-.865.5.371.371,0,0,1-.292-.119.308.308,0,0,0-.314-.091,1.373,1.373,0,0,0-1.11.715c-.092.167-.069.222.14.291.024.008.048.018.072.027l-.01-.01c.027.122.152.1.228.157l-.006-.009a.174.174,0,0,1-.183.1,1.171,1.171,0,0,0-.786.229c-.4.258-.735.586-1.121.856a5.4,5.4,0,0,0-.724.731.127.127,0,0,0-.036.067.642.642,0,0,1-.405.554.29.29,0,0,0-.132.135,1.107,1.107,0,0,1-.434.461.914.914,0,0,0-.377.507c-.069.238-.287.38-.452.553-.07.073-.157.13-.233.2a.425.425,0,0,1-.238.113,1.983,1.983,0,0,0-.393.136,2.1,2.1,0,0,0-.4.21.782.782,0,0,1-.278.119,1.6,1.6,0,0,0-.57.209,2.909,2.909,0,0,1-.426.17,1.153,1.153,0,0,0-.247.1.891.891,0,0,1-.337.151.9.9,0,0,0-.333.177.486.486,0,0,1-.354.111c-.165-.017-.332-.022-.5-.048a.736.736,0,0,0-.444.047,2.594,2.594,0,0,1-.59.156.518.518,0,0,0-.344.142.262.262,0,0,1-.092.067q-.474.2-.95.4a1.434,1.434,0,0,0-.181.058c-.286.17-.608.258-.906.4a2.489,2.489,0,0,1-.817.316.188.188,0,0,0-.1.043,3.106,3.106,0,0,1-1.037.468c-.458.192-.944.318-1.407.5-.521.2-1.029.437-1.544.652-.163.068-.333.119-.5.178-.216.077-.439.14-.646.237a4.468,4.468,0,0,0-.638.244.183.183,0,0,1-.07.03c-.47.067-.883.313-1.342.421a4.833,4.833,0,0,0-.67.27c-.106.043-.216.077-.324.116-.32.119-.638.243-.961.355-.192.067-.393.108-.588.17a2.94,2.94,0,0,0-.315.132c-.116.052-.227.12-.347.16-.435.145-.873.279-1.309.421a1.269,1.269,0,0,0-.169.085,1.963,1.963,0,0,1-.941.286,1.892,1.892,0,0,0-.554.141,3.523,3.523,0,0,1-.772.212c-.013,0-.032-.006-.038,0-.167.179-.43.15-.613.274a2.709,2.709,0,0,1-.734.318,3.033,3.033,0,0,1-.781.188.237.237,0,0,0-.112.021A5.44,5.44,0,0,1,178,90.64a.268.268,0,0,1-.111.024.552.552,0,0,0-.438.049c-.1.077-.258.064-.386.124a3.371,3.371,0,0,1-.551.156,1.893,1.893,0,0,0-.535.177.58.58,0,0,1-.587.114,1.3,1.3,0,0,1-.8.284.38.38,0,0,0-.136.048,6.153,6.153,0,0,1-.974.318c-.471.1-.936.238-1.406.351-.061.015-.117.05-.177.071a1.75,1.75,0,0,1-.8.219c-.083-.011-.177.078-.269.115a12.362,12.362,0,0,1-1.274.372.8.8,0,0,0-.11.028,2.579,2.579,0,0,1-.879.22,2.987,2.987,0,0,0-.477.131c-.47.117-.944.221-1.411.348-.136.037-.27.007-.409.052-.289.093-.592.142-.89.207a.9.9,0,0,1-.264.043,3.71,3.71,0,0,0-.707.142.331.331,0,0,0-.287.272c-.023.116.073.232.249.3a.633.633,0,0,0,.224.042,5.1,5.1,0,0,0,.537-.026c.226-.026.451-.076.677-.1a.409.409,0,0,1,.218.048,2.309,2.309,0,0,1,.259.181c-.04.037-.069.086-.11.1a2.176,2.176,0,0,1-.7.179,1.269,1.269,0,0,0-.26.049c-.314.059-.626.129-.941.173a2.365,2.365,0,0,1-.441-.017.715.715,0,0,1-.223-.322,5.879,5.879,0,0,1-.245-.678.231.231,0,0,0-.121-.138.8.8,0,0,0-.554-.1c-.161.04-.326.067-.49.091a.512.512,0,0,1-.516-.257c-.244-.348-.284-.362-.693-.237a1,1,0,0,1-.3.062,1.72,1.72,0,0,0-.6.128,4.406,4.406,0,0,1-1.058.282,3.592,3.592,0,0,0-.588.169.733.733,0,0,1-.817-.349.4.4,0,0,1-.026-.147c-.006-.075,0-.152-.007-.227-.021-.241-.133-.362-.371-.318-.334.062-.653-.078-.983-.031-.134.019-.214-.082-.254-.195a.271.271,0,0,0-.253-.2l-.05-.213c.013-.028.017-.058.033-.071.13-.1.268-.2.393-.3a.675.675,0,0,0,.106-.179c-.162-.078-.336.006-.468-.126l.077-.139c-.351-.111-.351-.111-.63.014v.324c-.172.06-.312.083-.422-.079-.018-.026-.067-.031-.1-.045a.307.307,0,0,0-.192-.217.593.593,0,0,1-.182.043.7.7,0,0,0-.567.124.3.3,0,0,1-.181.03c-.151,0-.3-.021-.453-.021-.1,0-.165.058-.167.192a1.884,1.884,0,0,0,.364.057,6.037,6.037,0,0,0,.873-.068c.166-.03.367.028.5-.134l.009.222a.534.534,0,0,1-.405.178c-.19.02-.381.029-.571.039a.4.4,0,0,0-.328.131c.032.043.068.131.1.13.138,0,.268.078.413.02a.982.982,0,0,1,.525,0c.019,0,.033.035.064.07-.044.039-.083.1-.134.113a2.954,2.954,0,0,1-.926.151c-.159-.011-.333.037-.466-.1.085-.062.1-.2.245-.2.011,0,.036-.064.031-.094a.128.128,0,0,0-.062-.088.594.594,0,0,0-.615.07.7.7,0,0,1-.3.136,1.584,1.584,0,0,0-.636.317.475.475,0,0,1-.529.09v-.6c.554-.161.475-.183.514-.525l-.011.013c.057-.03.053-.06,0-.09l.011.007a.4.4,0,0,0,.006-.114c-.011-.045-.027-.108-.06-.123s-.095.01-.142.021a.046.046,0,0,0-.03.022c-.095.263-.343.294-.558.323a6.57,6.57,0,0,0-1.187.262,3.286,3.286,0,0,1-.48.085c-.009.189.154.109.22.172.105.131.075.285.065.46l-.445.355-.242-.229c-.057.027-.155.04-.18.09-.15.29-.44.293-.7.366-.23-.075-.451.039-.678.032-.037,0-.073,0-.1,0-.087-.072-.122-.145-.065-.24l.215-.36a.324.324,0,0,1,.327,0,.34.34,0,0,0,.258.017c0,.028-.012.077.046.037l-.053-.03c.058-.088.12-.174.174-.264a.712.712,0,0,0,.048-.13l.575.091.209-.162.012.017-.019-.009.077-.157.018-.014-.009.023a.52.52,0,0,1-.151-.008.324.324,0,0,0-.41.087c-.018.022-.106-.015-.178-.027l-.115.171a.772.772,0,0,0-.18-.141.627.627,0,0,0-.359-.052,3.839,3.839,0,0,1-.552.056.474.474,0,0,0-.443.243c-.092.238-.312.274-.48.4l-.214-.207,0,0a.632.632,0,0,0-.015-.147A.119.119,0,0,0,145.65,93c-.06.017-.111.073-.17.082-.124.017-.053.125-.113.191a4.112,4.112,0,0,0-.5.083c-.159.045-.318.077-.478.113a.415.415,0,0,1-.53-.252.415.415,0,0,0-.153-.164,3.176,3.176,0,0,0-.4-.217c-.184-.082-.374-.151-.565-.217a.432.432,0,0,0-.15,0l.008-.007-.02-.129h-.046l-.02.129.007,0c-.092-.028-.191-.016-.259-.126a1.114,1.114,0,0,0-.264-.222c0-.116.058-.249-.066-.347-.1-.076-.027-.164-.011-.265a.787.787,0,0,0,.4-.312,1.33,1.33,0,0,1,.277-.255c.092-.085.236-.083.309-.211a1.329,1.329,0,0,1,.205-.235c.354-.037.391.068.744.352.067-.028.135-.06.206-.085a.314.314,0,0,1,.216,0,6.556,6.556,0,0,0,.667.143l-.022.1-.056.013.045-.017a.384.384,0,0,0,.348-.191.811.811,0,0,1,.352-.27.981.981,0,0,1,.7-.02,1.673,1.673,0,0,0,.4.042,10.255,10.255,0,0,1,1.059-.032.239.239,0,0,0,.109-.029c.068-.026.111-.1.2-.083a2.854,2.854,0,0,1,.363.06.305.305,0,0,0,.323-.023.293.293,0,0,1,.287-.028.535.535,0,0,0,.472-.066l-.009.011a1.755,1.755,0,0,1,.552-.012c.063,0,.127.023.191.021.448-.018.909-.012,1.161-.544l-.057-.154c-.035-.012-.058-.027-.079-.025-.189.019-.377.046-.567.058a.141.141,0,0,1-.11-.08.149.149,0,0,1,.052-.131,2.268,2.268,0,0,1,.313-.139.391.391,0,0,0,.2-.218.215.215,0,0,0-.029-.248.117.117,0,0,1-.007-.1c.029-.075.068-.146.119-.253a1.759,1.759,0,0,1,.15.245.544.544,0,0,0,.6.376,4.391,4.391,0,0,1,.55.037l.24-.2c.07-.148.015-.33.193-.429a2.4,2.4,0,0,1,.542.6.716.716,0,0,0,.728-.075.936.936,0,0,1-.024-.164.7.7,0,0,1,.393-.642.735.735,0,0,0,.279-.181c0-.018.011-.032.006-.042-.038-.09-.079-.18-.125-.284a6.112,6.112,0,0,0-1.51.179c.012.15.078.153.164.142a.1.1,0,0,1,.088.047.109.109,0,0,1-.022.1.387.387,0,0,1-.568.03.842.842,0,0,1-.141-.127.261.261,0,0,0-.3-.119.4.4,0,0,1-.254-.044.231.231,0,0,0-.354.168c-.045.175-.137.211-.3.228a1.408,1.408,0,0,1-.743-.147,1.037,1.037,0,0,0-.591-.094l.016.014.224-.135a3.442,3.442,0,0,0,.028-.351,1.026,1.026,0,0,1,.063-.482c.05-.109-.01-.267-.021-.412a1.591,1.591,0,0,0-.951.019.218.218,0,0,0-.117.084.869.869,0,0,1-.628.32c-.221.048-.452.023-.675.089a.646.646,0,0,1-.53-.15c-.21.09-.407.177-.608.258a.542.542,0,0,0-.218.206.278.278,0,0,1-.333.124.2.2,0,0,0-.211.039.307.307,0,0,1-.325.033c-.083-.034-.166-.065-.248-.1s-.172-.118-.285-.088a.507.507,0,0,0-.347.209.1.1,0,0,1-.039.033c-.143.022-.266.031-.386.06s-.238.085-.359.118a.4.4,0,0,1-.522-.25c-.04-.085-.139-.157-.084-.277.005-.011-.066-.057-.1-.086a1.374,1.374,0,0,1,.53-.169,2.714,2.714,0,0,0,.554-.143.136.136,0,0,0,.093-.182.268.268,0,0,1,.017-.277,1.649,1.649,0,0,0,.268-.079.68.68,0,0,1,.69.059.576.576,0,0,0,.547.055,1.7,1.7,0,0,1,.6-.08,3.94,3.94,0,0,0,.418-.04c.088-.01.177-.028.266-.034.344-.022.69-.026,1.033-.063a1.849,1.849,0,0,0,.756-.247.215.215,0,0,1,.249-.007.228.228,0,0,0,.137.041,1.559,1.559,0,0,0,.84-.239,1.928,1.928,0,0,0,0-.259c-.022-.165-.091-.225-.274-.259-.013,0-.026,0-.038,0-.419-.083-.492-.243-.3-.652.088,0,.088.067.1.126.005.025.006.061.022.071a.384.384,0,0,0,.162.073c.027,0,.082-.068.084-.106a.889.889,0,0,1,.26-.59l.527.067c.1-.1.154-.2.317-.2.32-.014.332-.026.22.274-.057.152.011.253.177.238a.808.808,0,0,1,.376.039.626.626,0,0,0,.226.014,1.345,1.345,0,0,1,.768.176,1.3,1.3,0,0,0,.256.092l.186.338a3.9,3.9,0,0,0,1.518-.06.513.513,0,0,0,.31-.2c.149-.266.428-.35.644-.521.069-.055.154-.092.219-.152a.131.131,0,0,0,.016-.126.163.163,0,0,0-.138-.026c-.043.014-.072.069-.112.1a1.312,1.312,0,0,1-.143.081,1.705,1.705,0,0,0-.516-.384c-.126-.055-.152-.223-.185-.353a1,1,0,0,1,.006-.673c.015-.034.011-.078.028-.11.1-.2-.071-.324-.13-.479-.013-.033-.084-.055-.131-.062s-.129.013-.191,0a.284.284,0,0,1-.166-.069.592.592,0,0,0-.453-.239.676.676,0,0,1-.485-.273.615.615,0,0,1,.19-.656,1.824,1.824,0,0,1,.455-.394,1.485,1.485,0,0,0,.36-.281.37.37,0,0,0,.1-.451,1.086,1.086,0,0,1-.05-.241.729.729,0,0,0-.26.028c-.123.067-.307-.009-.381.164-.029-.019-.08-.034-.085-.059a1.312,1.312,0,0,1-.045-.56.5.5,0,0,0-.3-.586c-.179-.093-.378-.162-.467-.367a3.269,3.269,0,0,1,.177-.455c.086-.151.289-.075.414-.167.058-.043.125-.075.2-.119a.655.655,0,0,0-.378-.118c-.17-.014-.353.019-.5-.133-.05-.052-.165-.042-.255-.061l.019-.257-.287-.122c0-.075.005-.149.012-.222.014-.147-.011-.187-.141-.208-.051-.008-.1-.008-.153-.013-.033,0-.067-.008-.141-.017.056-.058.081-.1.118-.12a1.239,1.239,0,0,0,.372-.378.255.255,0,0,0,.062-.135.727.727,0,0,1,.13-.394.217.217,0,0,0-.014-.283.516.516,0,0,1-.12-.309c-.039-.2-.137-.276-.355-.266-.166.007-.33.037-.5.054a1.479,1.479,0,0,1-.149,0,.347.347,0,0,1,.061-.461,1.407,1.407,0,0,0,.37-.778,2.392,2.392,0,0,1,.152-.406c.142-.049.3-.1.453-.157a.672.672,0,0,0,.194-.105.82.82,0,0,1,.6-.22.857.857,0,0,0,.823-.456l-.009,0a1.945,1.945,0,0,0,1.425-.438,1.98,1.98,0,0,0,.292-.245.171.171,0,0,0,.029-.132c0-.022-.06-.053-.09-.051-.2.016-.407.031-.608.063a.864.864,0,0,1-.708-.13.728.728,0,0,1,.409-.551.314.314,0,0,1,.256-.009.831.831,0,0,0,.413.049,9.008,9.008,0,0,0,1.062-.127c.327-.058.658-.1.989-.134a.577.577,0,0,1,.293.048c.07.033.115.12.175.187.171-.028.348-.047.521-.087.324-.074.388-.163.422-.523a.483.483,0,0,1,.043-.139c.055-.127.112-.253.176-.4a2.44,2.44,0,0,1-.208-.217.417.417,0,0,0-.55-.121,2.734,2.734,0,0,1-.779.186.558.558,0,0,1-.551-.23,1.922,1.922,0,0,1,.767-.5c.071-.029.147-.044.22-.068a.346.346,0,0,0,.223-.2c.088-.2.178-.4.265-.594a1.331,1.331,0,0,0,.018-.525.206.206,0,0,0-.17-.185,1.121,1.121,0,0,0-.679.027,8.111,8.111,0,0,1-1.3.323.8.8,0,0,1-.483-.017c-.031-.081.041-.109.082-.15.154-.151.312-.3.462-.454a.239.239,0,0,0,.081-.161c-.03-.187.076-.274.211-.365a2.6,2.6,0,0,0,.281-.25l-.031-.421c.077-.039.162-.089.254-.125a4.3,4.3,0,0,1,.469-.164c.233-.06.476-.088.7-.16.375-.119.767-.17,1.133-.325a6.11,6.11,0,0,1,.693-.2c.429-.124.857-.252,1.287-.369.381-.1.751-.255,1.13-.345.546-.13,1.074-.315,1.618-.451.431-.108.85-.264,1.277-.388.636-.185,1.276-.358,1.914-.539.1-.028.191-.071.288-.1a4.907,4.907,0,0,1,.759-.252c.358-.062.675-.235,1.025-.311.3-.064.571-.2.877-.25a4.527,4.527,0,0,0,.719-.23c.254-.085.506-.174.76-.256.741-.239,1.484-.471,2.223-.716.264-.087.512-.22.778-.3.473-.141.93-.334,1.408-.448.346-.083.657-.247.993-.343a2.293,2.293,0,0,1,.719-.217l.023-.009v.024l-.029-.02c.041-.129.185,0,.256-.111.05-.078.175-.068.277-.074a.61.61,0,0,0,.241-.1,3.791,3.791,0,0,1,.91-.334,2.367,2.367,0,0,0,.481-.209.351.351,0,0,1,.285-.046c.071.02.048-.15.157-.1l.037,0h.028l-.076,0a1.051,1.051,0,0,1,.6-.2.193.193,0,0,0,.153-.091c.065-.07.211.1.24-.079a1.416,1.416,0,0,0,.275-.116,4.542,4.542,0,0,1,.83-.381l.016.016-.023-.012.17-.08.021.015-.027-.008a2.455,2.455,0,0,1,.308-.139,2.4,2.4,0,0,0,.559-.215.754.754,0,0,1,.436-.107l.006.021-.013-.024.2-.1c.155-.071.353-.044.468-.208a.112.112,0,0,1,.071-.028c.354-.048.642-.3,1-.333.08-.008.154-.084.23-.128a3.806,3.806,0,0,1,.654-.308,5.661,5.661,0,0,0,1.228-.51,2.562,2.562,0,0,1,.557-.251,2.626,2.626,0,0,0,.657-.307,5.468,5.468,0,0,1,.975-.42,3.266,3.266,0,0,0,.9-.422.617.617,0,0,1,.21-.09,4.2,4.2,0,0,0,1.043-.465.3.3,0,0,1,.123-.023c.081.047.044.1.054.149.032.147.092.207.22.219q.267.023.534.037a.307.307,0,0,0,.113-.019c.132-.043.261-.1.4-.134s.252-.039.369-.083a4.177,4.177,0,0,1,1.072-.284,1.674,1.674,0,0,0,.515-.145,4.035,4.035,0,0,0,1.16-.656,2.578,2.578,0,0,1,.309-.216c.334.165.334.165.629-.032l.323.108a5.334,5.334,0,0,1,.748-.592,2.31,2.31,0,0,0,.371-.35c.224.077.445.217.7.029l.152.232c.092-.014.154-.021.215-.032a.534.534,0,0,1,.486.149c.137.126.279.268.488.221.009.093.014.142.021.206l.413.151a.919.919,0,0,0,.482-.246,5.018,5.018,0,0,1,.67-.437,1.254,1.254,0,0,0,.592-.633l-.069-.162a2.069,2.069,0,0,1,.848-.4c.069-.014.127-.08.192-.118.143-.083.285-.168.432-.245.166-.087.366-.116.442-.333.018-.049.127-.066.193-.1.049-.026.058-.07.036-.195a.286.286,0,0,1,.3.195c.036.109.085.213.114.323a.282.282,0,0,1-.166.38c-.132.077-.273.141-.408.212a.24.24,0,0,0-.12.378c.012.023.021.047.033.069a.122.122,0,0,0,.03.025.541.541,0,0,0,.475-.069.482.482,0,0,1,.288-.085.9.9,0,0,0,.51-.125,1.822,1.822,0,0,1,.787-.159l.324.269a1.233,1.233,0,0,0-.009.292.69.69,0,0,0,.121.237c.051.074.12.141.085.24a.4.4,0,0,1-.213.256.416.416,0,0,1-.068.034.59.59,0,0,0-.392.34.315.315,0,0,0,.4.194,1.035,1.035,0,0,1,.265-.03.272.272,0,0,1,.283.208.56.56,0,0,1-.045.442,3.542,3.542,0,0,1-.523.749c-.287.288-.535.615-.821.9a6.15,6.15,0,0,1-.62.507c-.221.171-.459.324-.671.506a7.932,7.932,0,0,1-.761.58,1.85,1.85,0,0,0-.245.24.54.54,0,0,0-.13.462.122.122,0,0,0,.174.094.732.732,0,0,0,.206-.159.511.511,0,0,1,.406-.189.3.3,0,0,1,0,.377,1.03,1.03,0,0,0-.22.567c.045.171.233.115.361.2a.391.391,0,0,1-.075.119c-.092.069-.191.128-.289.188a1.29,1.29,0,0,0-.417.616c-.031.064.013.165.024.268l.463-.165.188.3a10.719,10.719,0,0,0,1.209-.507l-.062.2.232.021c-.014.034-.016.059-.03.071a.725.725,0,0,1-.156.109,1.372,1.372,0,0,0-.669.526.6.6,0,0,0,.531-.033c.34-.221.7-.4,1.043-.625a.436.436,0,0,0,.165-.155.875.875,0,0,1,.506-.435,9.166,9.166,0,0,0,1.049-.62,6.268,6.268,0,0,0,.586-.352,4.063,4.063,0,0,0,.47-.448,1.923,1.923,0,0,0,.148-.222c.05-.069.152-.1.159-.2-.019-.019-.039-.053-.052-.05a.737.737,0,0,0-.253.075c-.459.322-.983.537-1.437.864-.4.292-.857.5-1.262.785a1.076,1.076,0,0,1-.6.226ZM152.138,92.306c-.043.017-.108-.024-.149.078l.144-.087c.021.012.042.032.063.032a.3.3,0,0,0,.085-.023c-.018-.025-.031-.066-.055-.073C152.172,92.217,152.137,92.245,152.138,92.306Zm56.091-32.75-.008-.011c-.078.208-.278.283-.439.4-.031.022-.063.04-.1.061l.071.3c.144.094.248.1.358-.023a3.914,3.914,0,0,1,.329-.3c.008-.183.014-.319.019-.441a.781.781,0,0,1,.443-.217,1,1,0,0,0,.26-.06,3.655,3.655,0,0,0,1.1-.4,2.042,2.042,0,0,0,.728-.7c.1-.193.043-.363-.167-.384a.656.656,0,0,0-.3.019,5.3,5.3,0,0,0-.863.4,6.563,6.563,0,0,1-.91.48,12.811,12.811,0,0,0-1.279.745.31.31,0,0,0-.15.264.763.763,0,0,0,.688-.05A1.3,1.3,0,0,1,208.229,59.556Zm-53.017,26.8a1.508,1.508,0,0,0,.009-.157c-.011-.152-.036-.179-.172-.2-.078-.011-.16-.022-.213.048a.38.38,0,0,1-.27.124c-.2.036-.4.077-.6.115a.446.446,0,0,1-.295-.039,1.07,1.07,0,0,0-.775-.012.737.737,0,0,1,.115.2.29.29,0,0,1-.05.176,1.027,1.027,0,0,1-.128.151.706.706,0,0,0,.519.04.277.277,0,0,1,.246.054c.112.113.261.1.388.144a.5.5,0,0,0,.4-.069c.1-.053.207-.088.234-.228a.253.253,0,0,1,.189-.171A4.071,4.071,0,0,0,155.212,86.36Zm56.129-11.581a2.122,2.122,0,0,0-.255.022,2.366,2.366,0,0,1-.289.08.589.589,0,0,0-.384.147.345.345,0,0,1-.247.083c-.09,0-.179.006-.269,0a.28.28,0,0,0-.235.105c-.078.1-.171.194-.108.358a1.021,1.021,0,0,0,.293.013c.308-.077.612-.172.917-.261.211-.062.286-.317.512-.363.027-.006.049-.057.065-.09A.328.328,0,0,0,211.341,74.779Zm2.534-19.322c-.111-.113-.023-.223-.031-.338a1.849,1.849,0,0,0-.208.032,1.127,1.127,0,0,0-.215.082q-.391.2-.779.411a.378.378,0,0,0-.118.095.132.132,0,0,0-.006.1.072.072,0,0,0,.064.028,3.273,3.273,0,0,0,.315-.13c.092-.045.176-.108.287-.06-.006.044-.032.1-.013.131.042.07.106.044.164.006ZM153.214,85.481c-.223.037-.4.063-.574.1s-.191.045-.182.286a3.022,3.022,0,0,0,.756-.084Zm54.37-33.988c-.094.091-.177.167-.253.249a1.551,1.551,0,0,0-.165.211.108.108,0,0,0,.006.1.116.116,0,0,0,.1.032,1.534,1.534,0,0,0,.288-.1c.071-.035.128-.112.073-.187a.133.133,0,0,1,.006-.192C207.647,51.593,207.612,51.547,207.584,51.493Zm-55.767,35.68c-.026-.049-.068-.136-.117-.218-.009-.016-.045-.02-.068-.022-.1,0-.177.094-.187.236-.008.122.048.222.132.238A.233.233,0,0,0,151.817,87.173Zm-7.425,5.891.282.039c.1-.2.091-.195,0-.272a.373.373,0,0,0-.394-.048C144.335,92.864,144.464,92.912,144.393,93.063Zm68.455-33.181c-.1,0-.179-.025-.23,0a.606.606,0,0,0-.29.28.04.04,0,0,0,.006.035c.018.015.05.04.06.034A1.124,1.124,0,0,0,212.847,59.882Zm-2.4,13.188a1.182,1.182,0,0,0-.219.033c-.115.049-.178.177-.116.222.079.057.142-.009.2-.047S210.379,73.184,210.452,73.07Zm-48.268,20.7c.094,0,.167-.04.172-.1,0-.08-.061-.1-.116-.121a.2.2,0,0,0-.071-.017.1.1,0,0,0-.116.108C162.047,93.724,162.089,93.768,162.184,93.77Zm-6.043-1.785c.118.046.219.08.315-.016a.112.112,0,0,0,.027-.1.117.117,0,0,0-.093-.051A.282.282,0,0,0,156.141,91.986Zm55.844-35.778c-.176-.093-.176-.093-.246.064Zm-1.6,18.075-.056.028c.006.011.016.03.019.029a.586.586,0,0,0,.06-.029Zm1.651-18.348.023-.019c-.007-.007-.013-.021-.02-.021s-.015.011-.023.018Z" transform="translate(7.649 -4.174)"/><path class="a" d="M264.652,80.972c.32-.143.2-.367.139-.585a.718.718,0,0,1,.486-.2,2.463,2.463,0,0,0,1.1-.3.2.2,0,0,1,.155.2.467.467,0,0,1-.052.336c-.048.061-.091.126-.142.184a2.136,2.136,0,0,0-.423.663.752.752,0,0,1-.448.444.834.834,0,0,0-.413.33.5.5,0,0,1-.574.21,1.324,1.324,0,0,0-.377-.025c-.152.01-.222-.09-.2-.247a.5.5,0,0,1,.207-.358c.117-.08.238-.153.357-.23a1.853,1.853,0,0,0,.222-.154C264.774,81.163,264.743,81.079,264.652,80.972Zm.813-.626a.842.842,0,0,0-.178-.015c-.02,0-.052.059-.046.085a.1.1,0,0,0,.08.057A.135.135,0,0,0,265.465,80.346Zm.194-.037.033-.015c-.008-.007-.016-.019-.024-.021s-.02.008-.03.012Z" transform="translate(-56.555 -14.967)"/><path class="a" d="M146.574,130.369c-.147.141-.3.278-.442.423a.14.14,0,0,0,.063.22c.024.01.052.031.071.025.236-.076.441.07.662.073.029.261.028.257-.158.325a3.372,3.372,0,0,1-.786.129c-.2.024-.4.013-.641.019-.037.035-.133.085-.16.16a.592.592,0,0,1-.552.4c-.1.01-.106.1-.184.147l-.209-.108a1.121,1.121,0,0,1-.04-.51c.011-.237-.009-.254-.261-.329a.112.112,0,0,1-.069-.072.123.123,0,0,1,.034-.1.208.208,0,0,1,.137-.06,1.544,1.544,0,0,0,.458-.03.579.579,0,0,1,.186.026.363.363,0,0,0,.295-.034.67.67,0,0,1,.223-.048c.273-.05.33-.109.384-.4.01-.05.018-.1.029-.165l.147-.1.173-.121a1.988,1.988,0,0,0,.653.142Z" transform="translate(-3.223 -37.402)"/><path class="a" d="M147.861,119.963a.716.716,0,0,1,.566-.2c.084.008.173-.048.261-.057a.347.347,0,0,1,.331.154c.034.084-.059.219-.2.295a1.025,1.025,0,0,1-.586.138,2,2,0,0,0-1,.238.682.682,0,0,1-.328.083,2,2,0,0,0-.341.046,4.252,4.252,0,0,1-.46.045.682.682,0,0,1-.215-.081c.035-.136.066-.253.1-.392a1.49,1.49,0,0,0,.586-.063.425.425,0,0,0,.235-.117.759.759,0,0,1,.855-.137A1.542,1.542,0,0,0,147.861,119.963Z" transform="translate(-4.112 -32.775)"/><path class="a" d="M154.734,119.12c.046.061.09.124.14.183s.1.113.153.169a.3.3,0,0,1-.341.128,1.3,1.3,0,0,1-.368-.1,1.538,1.538,0,0,0-1.049-.124,4.336,4.336,0,0,1-.461.047c-.051.006-.117,0-.15.03-.251.22-.507.079-.75.052-.07-.168-.007-.263.112-.31a.754.754,0,0,1,.336-.064.837.837,0,0,0,.679-.192,1.4,1.4,0,0,0,.762-.017.657.657,0,0,0,.357-.21.667.667,0,0,1,.173-.115c.062.095.113.183.173.264.075.1.109.238.251.278Z" transform="translate(-6.742 -32.286)"/><path class="a" d="M148.294,122.755v-.167a.283.283,0,0,1,.063-.04c.171-.053.341-.114.516-.153a.711.711,0,0,1,.339-.013.879.879,0,0,0,.456,0,.9.9,0,0,1,.269-.021,5.179,5.179,0,0,0,1.376-.121,4.066,4.066,0,0,1,.731-.022c.049,0,.1.065.155.108-.1.109-.185.19-.31.156a.624.624,0,0,0-.376.04.368.368,0,0,1-.149.038,3.475,3.475,0,0,0-.8.09c-.215.025-.428,0-.642.022s-.436.03-.654.047c-.127.01-.272-.016-.37.082-.116.116-.244.02-.364.044C148.461,122.855,148.373,122.786,148.294,122.755Zm1.131-.217-.017-.012,0,.019Z" transform="translate(-5.167 -33.873)"/><path class="a" d="M240.257,52.59a6.211,6.211,0,0,1,.762-.439.517.517,0,0,0,.341-.341.721.721,0,0,1,.425-.463,1.119,1.119,0,0,0,.257-.17.929.929,0,0,1,.625-.267.171.171,0,0,1,.012.263,1.432,1.432,0,0,1-.556.468.206.206,0,0,0-.145.242.225.225,0,0,1-.224.261,1.256,1.256,0,0,0-.5.192,1.517,1.517,0,0,1-.468.161,3.107,3.107,0,0,0-.505.161Z" transform="translate(-46.015 -2.036)"/><path class="a" d="M142.617,118.382l-.713.446c-.095.154-.051.388-.247.477a.439.439,0,0,1-.233-.277,1.388,1.388,0,0,0-.214-.359c-.1-.113-.073-.23.066-.274a5.667,5.667,0,0,1,.63-.142,2.2,2.2,0,0,0,.415-.039C142.446,118.166,142.539,118.251,142.617,118.382Z" transform="translate(-2.03 -32.017)"/><path class="a" d="M269.62,92.446c.006.1.008.165.013.228a.228.228,0,0,1-.178.264.334.334,0,0,0-.319.325.539.539,0,0,1-.073.144H268.8c-.308-.542-.308-.542-.3-.919a.6.6,0,0,1,.515-.028A1.422,1.422,0,0,0,269.62,92.446Z" transform="translate(-58.575 -20.538)"/><path class="a" d="M254.334,47.034c-.013-.058.012-.131-.07-.161-.047-.017-.107-.031-.132-.066s-.026-.118,0-.136a1.485,1.485,0,0,1,.811-.391c.012,0,.029-.005.038,0a.614.614,0,0,1,.179.128.175.175,0,0,1-.033.214c-.042.047-.089.113-.143.123a1.848,1.848,0,0,0-.5.263.462.462,0,0,1-.15.02Z" transform="translate(-52.257 0)"/><path class="a" d="M136.53,135.511a1.226,1.226,0,0,1,.254.021.244.244,0,0,0,.216-.02.517.517,0,0,1,.4.01.148.148,0,0,1,.074.246c-.064.078-.127.158-.25.151a.867.867,0,0,0-.225.036c-.209.048-.278.024-.384-.144a.423.423,0,0,1-.054-.1A1.8,1.8,0,0,1,136.53,135.511Z" transform="translate(0 -39.701)"/><path class="a" d="M154.576,131.783c.061-.041.1-.083.119-.077.152.035.287-.044.431-.057a4.055,4.055,0,0,0,.412-.082.675.675,0,0,1,.622.108c-.059.143-.208.124-.32.154a1.522,1.522,0,0,1-.382.026,4.058,4.058,0,0,0-.67.024C154.732,131.888,154.664,131.825,154.576,131.783Z" transform="translate(-7.927 -37.972)"/><path class="a" d="M156.786,109.578c.017-.067.016-.1.031-.114.077-.094.159-.186.258-.3.03.067.05.108.067.151a.386.386,0,0,0,.3.268.256.256,0,0,1,.223.161c.02.033.042.064.078.118a.593.593,0,0,1-.168.064.8.8,0,0,1-.506-.142C156.973,109.722,156.884,109.651,156.786,109.578Z" transform="translate(-8.897 -27.992)"/><path class="a" d="M153.351,93.816c-.048.067-.059.1-.079.108a1.47,1.47,0,0,1-.968.095.119.119,0,0,1-.066-.181.331.331,0,0,1,.362-.158c.15.03.3.04.456.065C153.141,93.759,153.224,93.785,153.351,93.816Z" transform="translate(-6.891 -21.094)"/><path class="a" d="M154.314,101.508a1.049,1.049,0,0,1,.691.294l-.109.22.137.326a1.015,1.015,0,0,1-.158.046c-.179.019-.258-.048-.207-.213a.267.267,0,0,0-.149-.373A.383.383,0,0,1,154.314,101.508Z" transform="translate(-7.812 -24.585)"/><path class="a" d="M152.08,132.135a4.746,4.746,0,0,1,.5-.183,4.076,4.076,0,0,1,.507-.065.536.536,0,0,1,0,.173c-.015.04-.073.1-.105.095a.554.554,0,0,0-.411.164.258.258,0,0,1-.25.029C152.194,132.31,152.1,132.274,152.08,132.135Z" transform="translate(-6.83 -38.125)"/><path class="a" d="M189.027,130.287c-.437.322-.437.319-.785.36a1.393,1.393,0,0,0-.679.267l-.224-.117c0-.024,0-.045.008-.047a1.452,1.452,0,0,1,.419-.144,1.906,1.906,0,0,0,.736-.2A2.532,2.532,0,0,1,189.027,130.287Z" transform="translate(-22.538 -37.422)"/><path class="a" d="M266.514,77.176a.309.309,0,0,1-.072.351,1.884,1.884,0,0,1-.693.5c-.02.006-.047-.008-.091-.017.159-.222.373-.382.532-.588a.719.719,0,0,1,.332-.238Z" transform="translate(-57.328 -13.754)"/><path class="a" d="M248.089,51.685c-.324.344-.441.407-.774.41a.893.893,0,0,1,.493-.537C247.87,51.53,247.885,51.538,248.089,51.685Z" transform="translate(-49.136 -2.314)"/><path class="a" d="M141.974,135.06c.091-.227.306-.208.474-.285l.232.192c0,.021,0,.05-.01.068a.482.482,0,0,1-.393.184A.279.279,0,0,1,141.974,135.06Z" transform="translate(-2.391 -39.394)"/><path class="a" d="M141.593,127.241a2.321,2.321,0,0,1-.232.1.228.228,0,0,1-.308-.131.334.334,0,0,1-.045-.1.426.426,0,0,1,.011-.181c.022-.056.178-.066.248-.025A1.678,1.678,0,0,1,141.593,127.241Z" transform="translate(-1.965 -35.921)"/><path class="a" d="M267.192,76.859c.113-.06.133-.183.2-.278.123-.182.288-.2.5-.047a.777.777,0,0,1-.456.371c-.073.021-.168-.035-.252-.056Z" transform="translate(-57.998 -13.421)"/><path class="a" d="M197.625,128.141a.928.928,0,0,1-.463.2c-.315.02-.6.216-.993.132a2.426,2.426,0,0,1,.565-.164C197.016,128.307,197.256,128.116,197.625,128.141Z" transform="translate(-26.453 -36.479)"/><path class="a" d="M156.56,122.072a.587.587,0,0,1-.373.2.157.157,0,0,1-.124-.051.167.167,0,0,1,0-.144.314.314,0,0,1,.484-.064C156.557,122.014,156.554,122.031,156.56,122.072Z" transform="translate(-8.573 -33.749)"/><path class="a" d="M165.028,130.5l.624-.044c.062.085.038.145-.033.164a1.044,1.044,0,0,1-.439.071C165.077,130.679,165.014,130.633,165.028,130.5Z" transform="translate(-12.639 -37.498)"/><path class="a" d="M148.707,130.249c-.033-.112.083-.1.124-.158s.069-.1.105-.154l.115.062a.211.211,0,0,1,.033.019c.01.008.025.026.024.029-.08.1.081.182.025.284a.2.2,0,0,1-.246.017c-.066-.034-.13-.074-.194-.111Z" transform="translate(-5.343 -37.269)"/><path class="a" d="M265.527,97.61c.1.093.215.156.225.321a.321.321,0,0,1-.311-.081C265.43,97.768,265.364,97.673,265.527,97.61Z" transform="translate(-57.222 -22.847)"/><path class="a" d="M142.393,115.516c-.025-.116-.074-.205-.047-.249a.229.229,0,0,1,.328-.088C142.622,115.351,142.622,115.351,142.393,115.516Z" transform="translate(-2.551 -30.651)"/><path class="a" d="M154.27,97.825c.2.014.2.014.322.186a.44.44,0,0,1-.445-.044l.121-.139Z" transform="translate(-7.738 -22.942)"/><path class="a" d="M169.846,131.6l.036-.115h.382c.041.147.01.2-.113.174-.1-.02-.2-.045-.3-.068Z" transform="translate(-14.776 -37.95)"/><path class="a" d="M250.895,53.225a.862.862,0,0,1,.672-.2A1.465,1.465,0,0,1,250.895,53.225Z" transform="translate(-50.723 -2.962)"/><path class="a" d="M264.57,79.307c-.036.066-.068.135-.11.2a.18.18,0,0,1-.276.047.418.418,0,0,1,.4-.233Z" transform="translate(-56.68 -14.701)"/><path class="a" d="M153.995,97.642a.984.984,0,0,1-.469-.126c.1-.136.221-.153.334-.043a1.958,1.958,0,0,1,.137.166Z" transform="translate(-7.466 -22.753)"/><path class="a" d="M157.74,100.7c-.132.01-.271.091-.38-.064C157.655,100.526,157.681,100.53,157.74,100.7Z" transform="translate(-9.15 -24.16)"/><path class="a" d="M199.469,127.772c-.061.147-.161.123-.246.144s-.162.052-.246.08C199.053,127.876,199.111,127.849,199.469,127.772Z" transform="translate(-27.696 -36.318)"/><path class="a" d="M203.662,126.746l.242-.077c.036.1-.038.121-.083.148C203.755,126.856,203.679,126.878,203.662,126.746Z" transform="translate(-29.773 -35.833)"/><path class="a" d="M163.172,105.623c.09-.047.167-.085.219,0,.018.029-.012.09-.02.132-.04,0-.072.015-.084,0A1.468,1.468,0,0,1,163.172,105.623Z" transform="translate(-11.703 -26.39)"/><path class="a" d="M195.718,128.857a.545.545,0,0,1-.129.092c-.027.008-.067-.019-.1-.033-.005,0-.006-.031,0-.035a.222.222,0,0,1,.09-.052A.505.505,0,0,1,195.718,128.857Z" transform="translate(-26.146 -36.782)"/><path class="a" d="M269.283,84.841l-.236-.239C269.233,84.606,269.233,84.606,269.283,84.841Z" transform="translate(-58.816 -17.057)"/><path class="a" d="M269.451,84.315a1.107,1.107,0,0,1-.133-.054c-.012-.006-.01-.038-.014-.058.022,0,.057-.016.066-.007a1.018,1.018,0,0,1,.075.117Z" transform="translate(-58.929 -16.874)"/><path class="a" d="M157.723,131.636l.16.071a.089.089,0,0,1-.145.033C157.72,131.727,157.728,131.676,157.723,131.636Z" transform="translate(-9.309 -38.015)"/><path class="a" d="M239.58,54.449l-.1.029c0-.022-.014-.052,0-.066a.077.077,0,0,1,.063-.028C239.553,54.386,239.563,54.419,239.58,54.449Z" transform="translate(-45.654 -3.561)"/><path class="a" d="M279.233,56.9h.281c-.132.077-.132.077-.272-.011Z" transform="translate(-63.29 -4.66)"/><path class="a" d="M147.968,123.174c-.023,0-.047.006-.07.007l-.006-.029a.343.343,0,0,1,.062-.01S147.964,123.163,147.968,123.174Z" transform="translate(-4.991 -34.284)"/><path class="a" d="M159.255,126.523c-.034.006-.068.013-.1.016-.009,0-.019-.011-.029-.017.011-.014.017-.035.031-.04a.73.73,0,0,1,.1-.029l-.011-.007v.091Z" transform="translate(-9.924 -35.735)"/><path class="a" d="M188.54,130.118l-.076,0,0-.012.077,0Z" transform="translate(-23.03 -37.343)"/><path class="a" d="M158.875,131.4l-.024.067a.805.805,0,0,1-.014-.081c0-.006.017-.012.027-.019Z" transform="translate(-9.798 -37.897)"/><path class="a" d="M155.207,96.891l.051.026c-.011.006-.022.017-.031.015a.237.237,0,0,1-.051-.025Z" transform="translate(-8.19 -22.525)"/><path class="a" d="M155.983,100.758c-.006-.018-.022-.044-.015-.052a.158.158,0,0,1,.058-.031c.007.02.024.047.017.06S156,100.75,155.983,100.758Z" transform="translate(-8.537 -24.209)"/><path class="a" d="M160.73,119.635l-.09.045c-.006-.023-.021-.05-.013-.067a.078.078,0,0,1,.06-.028C160.7,119.585,160.711,119.612,160.73,119.635Z" transform="translate(-10.584 -32.722)"/><path class="a" d="M268.169,63.068a.651.651,0,0,1,.055-.041c.008-.005.022,0,.033,0-.01.013-.017.036-.03.038a.218.218,0,0,1-.068-.006Z" transform="translate(-58.426 -7.356)"/><path class="a" d="M157.051,102.042a.4.4,0,0,1,.061-.019c.006,0,.015.016.022.024a.355.355,0,0,1-.061.02C157.067,102.068,157.058,102.051,157.051,102.042Z" transform="translate(-9.014 -24.809)"/><path class="a" d="M249.99,49.012a.146.146,0,0,1-.008-.039s.014-.006.022-.008Z" transform="translate(-50.314 -1.18)"/><path class="a" d="M200.986,127.479c-.009.006-.024.017-.026.015a.159.159,0,0,1-.021-.032.076.076,0,0,1,.031,0C200.976,127.46,200.98,127.471,200.986,127.479Z" transform="translate(-28.564 -36.179)"/><path class="a" d="M157.979,127.62a.311.311,0,0,1-.061.024c-.007,0-.017-.015-.026-.022a.336.336,0,0,1,.063-.026C157.96,127.594,157.971,127.611,157.979,127.62Z" transform="translate(-9.383 -36.24)"/><path class="a" d="M158.474,131.522l-.044-.054a.136.136,0,0,1,.024.024.19.19,0,0,1,.014.033Z" transform="translate(-9.62 -37.941)"/><path class="a" d="M144.346,135.194l-.023.007.015-.036Z" transform="translate(-3.423 -39.565)"/><path class="a" d="M257.154,46.8l0-.033-.013.021Z" transform="translate(-53.588 -0.215)"/><path class="a" d="M257.108,46.8l-.047.033.057-.021Z" transform="translate(-53.551 -0.232)"/><path class="a" d="M254.469,47.616l-.033.041c0-.009,0-.024,0-.027a.1.1,0,0,1,.035-.008Z" transform="translate(-52.398 -0.588)"/><path class="a" d="M280.243,54.7l.006-.027-.007.017Z" transform="translate(-63.734 -3.688)"/><path class="a" d="M280.1,56.738l.019-.01-.022.008Z" transform="translate(-63.669 -4.591)"/><path class="a" d="M280.075,56.742l-.024.01.027-.008Z" transform="translate(-63.65 -4.597)"/><path class="a" d="M265.013,79.147,265,79.135Z" transform="translate(-57.039 -14.623)"/><path class="a" d="M264.884,79.243l.072-.1-.011-.012-.072.1Z" transform="translate(-56.983 -14.623)"/><path class="a" d="M269.555,84.408l.021.022-.014-.021Z" transform="translate(-59.039 -16.97)"/><path class="a" d="M164.49,90.751l-.016-.018.007.016Z" transform="translate(-12.274 -19.785)"/><path class="a" d="M268.268,96.515l-.024.006,0-.021Z" transform="translate(-58.464 -22.351)"/><path class="a" d="M261.854,98.8v-.052c0,.005.007.011.006.015a.184.184,0,0,1-.016.026Z" transform="translate(-55.652 -23.35)"/><path class="a" d="M262.248,99.087l0-.02-.011.011Z" transform="translate(-55.827 -23.494)"/><path class="a" d="M259.34,65.727l-.015.019.022-.013Z" transform="translate(-54.546 -8.656)"/><path class="a" d="M155.6,123.509l-.059,0c.007,0,.015-.013.019-.011a.147.147,0,0,1,.031.019Z" transform="translate(-8.351 -34.441)"/><path class="a" d="M143.094,127.269l-.033-.051-.038.048-.007,0h.086Z" transform="translate(-2.849 -36.074)"/><path class="a" d="M165.325,127.622l.02-.007,0,.019Z" transform="translate(-12.77 -36.249)"/><path class="a" d="M148.952,128.382l-.024.027h.026l-.007-.024Z" transform="translate(-5.446 -36.586)"/><path class="a" d="M158.5,131.566l.018.021-.012-.023Z" transform="translate(-9.649 -37.983)"/><path class="a" d="M169.835,131.678l-.02.016.017-.007Z" transform="translate(-14.761 -38.033)"/><path class="a" d="M261.13,67.636a.438.438,0,0,1,.078-.051c.007,0,.027.024.042.037-.008.007-.017.021-.025.02-.035,0-.069-.011-.1-.017Z" transform="translate(-55.335 -9.483)"/><path class="a" d="M270.45,60.334c-.059.044-.117.09-.18.128-.008.005-.044-.037-.091-.079l.282-.039Z" transform="translate(-59.313 -6.175)"/><path class="a" d="M270.674,60.328l.035-.032c0,.007-.007.018-.012.02a.129.129,0,0,1-.033,0Z" transform="translate(-59.526 -6.158)"/></g></svg>