<svg xmlns="http://www.w3.org/2000/svg" width="78.067" height="80" viewBox="0 0 78.067 80"><defs><style>.a{fill:#6237f1;}</style></defs><path class="a" d="M277.34,118.57q18.82-2,28.8-18.988c2.241-6.764,3.222-12.085,2.955-16.005q-1.239-18.569-20.682-28.384c-.14-1.555-1.12-2.675-2.955-3.362a5.76,5.76,0,0,0-4.929.154c1.6,2.521,3.221,3.879,4.887,4.061a4.163,4.163,0,0,0,1.4-.2,4.468,4.468,0,0,1,1.387-.211c.476.028,1.96.882,4.481,2.549a16.569,16.569,0,0,1,3.851,3,5.091,5.091,0,0,0-4.019-.168,6.38,6.38,0,0,0-3.039,1.848c.714,1.344,2.241,1.918,4.593,1.723,2.408-.169,3.724-1.009,3.949-2.549q10.168,10.377,10.657,22.153a29.881,29.881,0,0,1-4.02,16.5,31.281,31.281,0,0,1-9.844,10.629,4.108,4.108,0,0,0,1.4-3.7,6.559,6.559,0,0,0-1.191-3.977c-1.344.49-2.227,1.835-2.632,4.02-.434,2.268.085,3.781,1.554,4.509-4.69,2.52-7.324,3.864-7.869,4.019q-6.364,2.226-10.054,2.142a31.242,31.242,0,0,1-9.592-2.142,42.725,42.725,0,0,1-7.674-4.019c1.331-.841,1.806-2.395,1.387-4.635-.407-2.185-1.289-3.487-2.661-3.893a6.3,6.3,0,0,0-1.148,4.061,4.86,4.86,0,0,0,1.358,3.809,57.45,57.45,0,0,1-5.139-4.467,1.669,1.669,0,0,0,2.058-.407,4.09,4.09,0,0,0,.854-2.38c.281-2.465-.112-4.243-1.19-5.335-1.12.434-1.891,1.5-2.338,3.206a5.86,5.86,0,0,0,.42,4.467,29.354,29.354,0,0,1-8.542-21.747q.21-13.127,10.88-22.811c.154,1.569,1.344,2.408,3.571,2.549a6.15,6.15,0,0,0,4.746-1.275,3.876,3.876,0,0,0-2.7-2.255,8.25,8.25,0,0,0-4.3-.083,45.844,45.844,0,0,1,4.663-3.445c-.462,1.667.434,2.857,2.674,3.57,2.157.686,3.893.49,5.21-.574a5.986,5.986,0,0,0-3.123-2.787,6.641,6.641,0,0,0-4.552-.42,5.3,5.3,0,0,0,1.723-.9,3.883,3.883,0,0,1,1.933-.784,4.22,4.22,0,0,1,1.358.211,3.07,3.07,0,0,0,1.386.2c1.667-.239,3.249-1.667,4.72-4.257a6.655,6.655,0,0,0-5.168.2,5.009,5.009,0,0,0-2.954,3.417Q242.227,67.037,243.41,86.782q.778,13.339,9.845,21.859,8.381,7.877,21.957,10.139c-4.3,2.24-6.511,5.517-6.651,9.8a61.579,61.579,0,0,1,2.87-5.868,8.294,8.294,0,0,1,5.042-3.724,8.992,8.992,0,0,1,4.677,3.809,39.315,39.315,0,0,1,2.8,5.783c.183-3.822-2.016-7.169-6.609-10.011Zm3.613-.239a5.343,5.343,0,0,1,4.873.616,5.69,5.69,0,0,1,2.591,3.892c-4.845.2-7.324-1.316-7.463-4.509Zm-9.4,0a3.9,3.9,0,0,1-2.3,3.809,8.1,8.1,0,0,1-5.167.448,6.4,6.4,0,0,1,2.661-3.683,5.3,5.3,0,0,1,4.8-.575Zm16.65-1.484c1.05-1.3,2.576-1.624,4.592-.939a6.348,6.348,0,0,1,3.739,2.871,5.257,5.257,0,0,1-4.845.868c-2.017-.447-3.179-1.373-3.487-2.8Zm-32.193,2.142a5.407,5.407,0,0,1,3.515-3c1.946-.714,3.528-.49,4.761.658-.211,1.527-1.3,2.506-3.277,2.955a6.68,6.68,0,0,1-5-.616Zm45.608-7.058q1.932.862,1.932,1.513c.028.489-.406.923-1.315,1.273a9.635,9.635,0,0,1-2.955.575,7.263,7.263,0,0,1-2.955-.449c-.9-.364-1.331-.9-1.3-1.61.322-.952,1.218-1.554,2.661-1.792a6.827,6.827,0,0,1,3.935.489ZM257.693,113c-.448,1.471-1.765,2.24-3.99,2.3-2.129.055-3.641-.49-4.552-1.639.658-1.288,2.031-2.031,4.1-2.212,2.114-.169,3.585.349,4.439,1.554Zm22.6,4.061a4.466,4.466,0,0,1,.742-4.635,8.6,8.6,0,0,1,3.767-2.634,5.877,5.877,0,0,1-.447,4.929,4.464,4.464,0,0,1-4.061,2.339Zm-12.8-7.269a8.085,8.085,0,0,1,3.976,2.549,4.481,4.481,0,0,1,.743,4.719,4.554,4.554,0,0,1-3.949-2.3,7.589,7.589,0,0,1-.77-4.972Zm19.645,5.587a5.2,5.2,0,0,1-.083-4.886,6.849,6.849,0,0,1,3.08-3.235,5.385,5.385,0,0,1,.449,5c-.686,1.974-1.835,3.011-3.445,3.123Zm-24.981-8.122a6.052,6.052,0,0,1,3.277,3.151,5.136,5.136,0,0,1-.085,4.971,3.92,3.92,0,0,1-3.36-3.038,6.793,6.793,0,0,1,.168-5.083Zm38.4,1.064c.363-1.456,1.554-2.324,3.613-2.632a6.639,6.639,0,0,1,4.928.911c-.476,1.373-1.735,2.3-3.781,2.787-2.1.518-3.7.168-4.76-1.065Zm-48.619-.21c-.868,1.4-2.408,1.835-4.635,1.316-2.157-.49-3.458-1.441-3.893-2.829a6.9,6.9,0,0,1,4.846-.952c2.016.281,3.249,1.107,3.683,2.465Zm46.49-9.185c1.232.574,1.988,1.933,2.3,4.06.321,2.185-.154,3.683-1.442,4.467-1.442-.349-2.213-1.639-2.3-3.851-.112-2.129.378-3.7,1.442-4.677Zm6.847,3.4a3.67,3.67,0,0,1,2.661-3.487,7.658,7.658,0,0,1,5.014-.126,5.216,5.216,0,0,1-2.871,3.571,4.893,4.893,0,0,1-4.8.042Zm-57.8,0a5.191,5.191,0,0,1-4.957-.042,5.3,5.3,0,0,1-2.955-3.571,7.327,7.327,0,0,1,5.083.168,4.258,4.258,0,0,1,2.829,3.445Zm56.081-.616c-1.554-.21-2.59-1.246-3.08-3.08a8.027,8.027,0,0,1,.336-5.042,5.28,5.28,0,0,1,3.277,3.362c.8,1.918.616,3.5-.533,4.76Zm-51.811-8.122a7.98,7.98,0,0,1,.281,5.125c-.518,1.919-1.61,2.913-3.277,3a4.915,4.915,0,0,1-.252-4.831,5.544,5.544,0,0,1,3.249-3.291Zm56.53,1.933q-.084-5.293,6.807-5.335a7.092,7.092,0,0,1-2.172,4.145,5.364,5.364,0,0,1-4.635,1.19Zm-63.8-.21a4.645,4.645,0,0,1-4.719-.9,7.18,7.18,0,0,1-2.338-4.228,7.2,7.2,0,0,1,5.055,1.273,4.918,4.918,0,0,1,2,3.852Zm57.608-7.465a6.5,6.5,0,0,1,3.935,2.549,5.148,5.148,0,0,1,.532,4.916,4.316,4.316,0,0,1-3.865-2.619,7.834,7.834,0,0,1-.6-4.846Zm-51.657.211a7.563,7.563,0,0,1-.7,4.873,4.477,4.477,0,0,1-3.766,2.381,4.8,4.8,0,0,1,.658-4.957,4.915,4.915,0,0,1,3.809-2.3Zm57.595.2a4.923,4.923,0,0,1-4.593-1.848,7.289,7.289,0,0,1-1.344-4.552,10.37,10.37,0,0,1,4.341,1.848,5.172,5.172,0,0,1,1.6,4.552Zm-63.546,0a5.179,5.179,0,0,1,1.568-4.509,11.008,11.008,0,0,1,4.173-1.891,5.446,5.446,0,0,1-1.064,4.482,4.673,4.673,0,0,1-4.677,1.918Zm65.268-.2a4.349,4.349,0,0,1,.952-4.593,6.522,6.522,0,0,1,4.593-2.016q-.651,6.364-5.546,6.609ZM243.2,87.846a4.352,4.352,0,0,1-4.341-1.6,8.89,8.89,0,0,1-1.639-4.8c4.019.434,6.008,2.576,5.979,6.4Zm57.357-11.524a7.952,7.952,0,0,1,4.971.77,4.4,4.4,0,0,1,2.3,3.907,4.788,4.788,0,0,1-4.76-.658,6.98,6.98,0,0,1-2.506-4.019Zm-48.619,0a6.426,6.426,0,0,1-2.451,4.019,4.73,4.73,0,0,1-4.8.658,4.675,4.675,0,0,1,2.338-3.864,7.3,7.3,0,0,1,4.916-.812Zm57.16,4.061a5.215,5.215,0,0,1,.575-5.055,4.824,4.824,0,0,1,3.683-2.409,8.085,8.085,0,0,1-.532,5.042,4.233,4.233,0,0,1-3.726,2.423Zm-65.688,0a4.107,4.107,0,0,1-3.738-2.507,9.077,9.077,0,0,1-.533-5.167,6.22,6.22,0,0,1,3.781,2.7,5.319,5.319,0,0,1,.49,4.972Zm54.612-9.4a8.1,8.1,0,0,1,5.083-.085,3.554,3.554,0,0,1,2.787,3.276,4.643,4.643,0,0,1-4.761.211,5.1,5.1,0,0,1-3.109-3.4Zm-43.325,0a6,6,0,0,1-3.249,3.36,4.589,4.589,0,0,1-4.831-.169,3.575,3.575,0,0,1,2.87-3.276,8.5,8.5,0,0,1,5.21.085Zm39.461-4.678a7.286,7.286,0,0,1,4.76-1.022c2,.154,3.179.924,3.572,2.3-.714,1.442-2.185,1.946-4.44,1.512-2.212-.434-3.515-1.373-3.892-2.787Zm-35.61.211a5.478,5.478,0,0,1-3.977,2.534c-2.129.461-3.655.042-4.55-1.275.294-1.5,1.526-2.338,3.683-2.493a6.881,6.881,0,0,1,4.845,1.233ZM309.1,64.8c1.218,1.037,1.61,2.632,1.148,4.789-.5,2.2-1.512,3.374-3.038,3.528a4.309,4.309,0,0,1-.743-4.635A6.7,6.7,0,0,1,309.1,64.8Zm-63.756,8.318c-1.54-.266-2.521-1.373-2.954-3.319a7.059,7.059,0,0,1,.574-5c1.414.406,2.45,1.569,3.08,3.487.645,1.989.42,3.6-.7,4.831Zm58.421-6.595c-1.373-.561-1.988-1.9-1.848-4.061a6.772,6.772,0,0,1,1.637-4.481c1.4.462,2.115,1.862,2.172,4.186.028,2.353-.631,3.794-1.961,4.355Zm-54.808,0c-1.456-.5-2.156-1.863-2.1-4.1a6.259,6.259,0,0,1,1.68-4.636c1.176.673,1.877,2.115,2.1,4.3.183,2.24-.378,3.724-1.68,4.439Zm43.311-8.542c-.21,1.511-1.275,2.548-3.193,3.122a6.728,6.728,0,0,1-5.125-.378,5.785,5.785,0,0,1,3.36-3.108,4.893,4.893,0,0,1,4.957.364Zm6.4,2.744c-1.442-.266-2.338-1.386-2.661-3.36a7.759,7.759,0,0,1,.743-4.916c1.414.266,2.422,1.457,3,3.571.545,2.156.181,3.724-1.078,4.7Zm-43.311-8.276a2.569,2.569,0,0,1,1.471,2.534,7.963,7.963,0,0,1-.812,3.571,3.856,3.856,0,0,1-1.848,2.142c-.743.238-1.275-.308-1.61-1.652a5.969,5.969,0,0,1,.615-3.893,6.053,6.053,0,0,1,2.185-2.7Zm37.332,4.019a4.089,4.089,0,0,1-3.487-2.632,8.952,8.952,0,0,1-.379-5.251,5.93,5.93,0,0,1,3.7,2.955,5.143,5.143,0,0,1,.168,4.929Zm-29.014-7.884a8.843,8.843,0,0,1-.322,5.168,4.16,4.16,0,0,1-3.319,2.716,4.456,4.456,0,0,1-.042-4.845A5.5,5.5,0,0,1,263.673,48.581Z" transform="translate(-237.221 -48.581)"/></svg>