<svg xmlns="http://www.w3.org/2000/svg" width="80" height="62" viewBox="0 0 80 62"><defs><style>.a{fill:#0069ed;}.b{fill:#ffc728;}</style></defs><g transform="translate(-103.884 -25.984)"><path class="a" d="M156.593,86.4c-4.328,3.252-10.639,2-15.219-.886s-8.16-7.135-12.6-10.225c-3.822-2.659-8.211-4.411-12.026-7.08A30.7,30.7,0,0,1,103.9,43.96c-.051-3.242.49-6.657,2.495-9.2,3.266-4.139,9.379-4.721,14.522-3.622s9.984,3.51,15.205,4.142c4.787.579,9.624-.372,14.3-1.555s9.328-2.613,14.133-3.015,9.887.323,13.834,3.107,6.448,7.934,5.173,12.606c-1.144,4.2-4.876,7.1-8.548,9.408s-7.667,4.48-9.991,8.15c-2.178,3.439-2.556,7.674-3.241,11.69S159.842,83.959,156.593,86.4Z" transform="translate(-0.009 -0.343)"/><path class="b" d="M154.7,27.892a27.3,27.3,0,0,1,8.316,1.534c4.905,2.018,8.376,6.876,9.7,12.138s.721,10.871-.756,16.089a31.419,31.419,0,0,1-6.619,12.753c-3.238,3.545-7.755,6.015-12.483,6.048-3.209.022-6.39-1.05-9.582-.714-5.151.543-9.287,4.589-14.218,6.215a16.06,16.06,0,0,1-15.22-3.041c-4.52-3.869-6.672-10.094-6.821-16.142s1.487-11.989,3.445-17.691c2.333-6.8,5.644-13.975,11.975-17.06,4.583-2.234,9.906-1.885,14.963-1.487Z" transform="translate(-0.07 -0.257)"/></g></svg>