<svg xmlns="http://www.w3.org/2000/svg" xmlns:xlink="http://www.w3.org/1999/xlink" width="80" height="79" viewBox="0 0 80 79"><defs><style>.a{fill:#ff5dc9;}.b{fill:url(#a);}</style><linearGradient id="a" x1="0.184" y1="0.175" x2="0.763" y2="0.777" gradientUnits="objectBoundingBox"><stop offset="0" stop-color="#0032ff"/><stop offset="1" stop-color="#2137ff"/></linearGradient></defs><g transform="translate(-387 -341)"><path class="a" d="M58.991,171.336a41.276,41.276,0,0,0,9.34,4.347,18.552,18.552,0,0,0,16.424-3.333c4.17-3.382,6.548-8.346,7.823-13.579a28.97,28.97,0,0,0,.033-14.811,23.991,23.991,0,0,0-9.557-13.309c-3.275-2.177-7.107-3.445-10.2-5.866-4.987-3.906-7.062-9.974-11.246-14.612a23.749,23.749,0,0,0-17.217-7.767,19.494,19.494,0,0,0-15.612,8.525C25.4,115.743,23.9,121.67,22.857,127.62c-1.241,7.09-1.685,15.148,3.153,21.913,3.5,4.9,9.142,8.193,14.534,11.272Z" transform="translate(368.577 238.596)"/><path class="b" d="M35.489,126.612c2.351-3.236,3.34-7.213,4.892-10.888s4.02-7.363,7.86-8.578,8.033.374,11.34,2.642,6.114,5.22,9.57,7.26c3.813,2.251,8.218,3.28,12.537,4.31s8.716,2.131,12.456,4.5,6.776,6.258,6.928,10.644c.174,5.025-3.364,9.451-7.321,12.614S85.2,154.727,81.842,158.5c-3.435,3.856-5.314,8.782-7.789,13.3s-5.955,8.947-10.939,10.407a16.287,16.287,0,0,1-9.7-.523,45.33,45.33,0,0,1-8.773-4.434,82.564,82.564,0,0,1-13.773-9.788c-4.125-3.837-7.558-8.566-9.04-13.968s-.817-11.522,2.528-16.039C27.437,133.287,32.443,130.806,35.489,126.612Z" transform="translate(365.922 237.273)"/></g></svg>