<svg xmlns="http://www.w3.org/2000/svg" width="80" height="84" viewBox="0 0 80 84"><defs><style>.a{fill:#0089ff;}</style></defs><path class="a" d="M404.324,335.116a38.6,38.6,0,0,0-1.683-8.634c.5-1.928,1.641-3.843,1.214-5.85-.325-1.934-3.316-4.456-4.619-1.882-10.527-19-36.312-25.594-54.7-13.7-8.444,5.426-15.46,13.341-18.361,23.111-5.595,17.275,2.813,37.586,19.132,45.809a38.672,38.672,0,0,0,11.914,3.953c.293.229.556.4.849.6,1.36.92,2.363,2.18,3.806,2.975,1.558.773,3.334,1.753,5.142,1.568,2.631-.428,3.638-3.3,1.417-5.016a36.713,36.713,0,0,0,8.579-2.132c3.051-.919,5.709-3.239,8.862-3.726.394-.074.786-.163,1.176-.251a27.53,27.53,0,0,0,5.061-1.99c2.687-1.085,7.944-4.537,3.747-7.207A39.222,39.222,0,0,0,404.324,335.116Zm-4.087-15.284c-.052.165-.078.348-.115.517l-.048-.093C400.126,320.113,400.181,319.969,400.237,319.832Zm-.622,4.329c.031.061.006.132.007.2-.007-.079-.012-.158-.018-.238ZM391.928,312.3a37.513,37.513,0,0,1,6.426,9.1,7.318,7.318,0,0,0-.117,1.14,40.041,40.041,0,0,0-6.19-9.072c-.036-.416-.121-.822-.174-1.227ZM368.953,301.13a37.2,37.2,0,0,1,18.841,7.476,1.875,1.875,0,0,0-.024.805,38.75,38.75,0,0,0-19.057-8.311ZM355.99,376.381c-21.588-4.069-35.3-26.989-28.6-47.952-5.72,20.486,7.858,43.086,28.689,47.774a.635.635,0,0,0,.043.206Zm8.506,3.109c-.222.019-.413-.185-.612-.271a2.923,2.923,0,0,1,.648.276Zm-.348-8.1a33.852,33.852,0,0,1-3.427,1.986c1.665-1.4,3.367-2.847,5.672-2.823A9.118,9.118,0,0,0,364.147,371.393Zm.968.241c-.182.048-.367.1-.55.149a11.871,11.871,0,0,1,3.567-.88c.027.037.057.071.086.11A13.019,13.019,0,0,0,365.116,371.634Zm3.34,8.632.066.072a.657.657,0,0,1-.026.268,1.068,1.068,0,0,0-.136-.339.4.4,0,0,0,.042-.075C368.4,380.205,368.448,380.256,368.456,380.266Zm15.18-20.451c-.124.615-.239,1.231-.319,1.855.174-1.56.016-3.38,1.083-4.675A20.2,20.2,0,0,0,383.636,359.815Zm.73,1.206c-.1.577-.212,1.145-.3,1.723a27.883,27.883,0,0,1,.728-4.109C384.673,359.443,384.491,360.264,384.366,361.022Zm.924,2.89a9.959,9.959,0,0,1-.813,3.368c.266-1.145.557-2.379.824-3.524Zm.639-5.523a.289.289,0,0,0-.2.044,8.114,8.114,0,0,0-.15-2.018l.01.02h0A3.907,3.907,0,0,1,385.928,358.389Zm5.626,5.823c-.339.373-.959.4-1.368.638a4.482,4.482,0,0,1,1.4-.652Zm4.582,1.241a2.866,2.866,0,0,0,.209-1.2c.861,1.074-.4,2.055-1.2,2.762A5.773,5.773,0,0,0,396.137,365.453Zm4.425-20.97a37.579,37.579,0,0,1-7.159,17.53,13.722,13.722,0,0,0-6.746,3.036c.332-2.793,1.14-5.659.264-8.421-.251-1.329-2.076-1.663-3.047-.948a4.566,4.566,0,0,0-1.415,2.681,39.873,39.873,0,0,0-.453,6.837c.022,2.033-.249,3.994-.082,6.055a36.306,36.306,0,0,1-16.507,4.076c1.678-.745,3.741-1.666,4.019-3.71.927-1.112-.344-2.377-1.5-2.529a8.871,8.871,0,0,0-5.948,1.784c-1.768,1.1-3.26,2.416-5,3.562-23.731-5.092-36.224-32.413-24.748-53.747,10.83-21.086,38.68-24.7,55.99-9.334-.919-.431-2.073-1.163-3.035-.722-.766.56-.2,1.707.484,2.092a20.635,20.635,0,0,0,3.752,1.441c.7.172,1.421.683,2.144.528a36.259,36.259,0,0,1,7.078,12.063,21.78,21.78,0,0,0-2.467-2.461c-4.725-4.408-9.641-.069-3.539,3.807a12.761,12.761,0,0,0,3.819,1.237,8.677,8.677,0,0,0,2.673.853.913.913,0,0,0,.741.618A38.317,38.317,0,0,1,400.561,344.483Zm-13.754-32.921-.152-.07c.271.106.6.22.872.354C387.309,311.769,387.055,311.675,386.807,311.562Zm.239.786a3.918,3.918,0,0,1-.94-.4A8.855,8.855,0,0,0,387.046,312.348Zm11.114,15.909-.289-.16a.237.237,0,0,0,.063-.115A2.088,2.088,0,0,0,398.16,328.256Zm-3.93-1.915a8.189,8.189,0,0,1-2.427-1.832c1.325.419,2.3,1.514,3.395,2.247C394.89,326.637,394.51,326.484,394.23,326.342Zm.376.992a5.909,5.909,0,0,1-2.93-1.844A9.012,9.012,0,0,0,394.605,327.333Zm-2.646-3.608c.05.008.107,0,.158,0a.056.056,0,0,0-.023.034A1.205,1.205,0,0,0,391.959,323.726Zm10.233,17.6c-.018.224-.042.466-.07.721a39,39,0,0,0-1.134-12.126,6.628,6.628,0,0,1,.288-.683A37.487,37.487,0,0,1,402.192,341.329Zm.168-20.214a.491.491,0,0,1,0-.08,1.779,1.779,0,0,1,.023.313C402.377,321.27,402.369,321.193,402.36,321.116Z" transform="translate(-324.445 -299.09)"/></svg>