<svg xmlns="http://www.w3.org/2000/svg" width="200" height="160" viewBox="0 0 200 160"><defs><style>.a,.e{fill:none;}.b{fill:#dde6ed;}.c{fill:#fff;}.d{fill:#38435d;}.e{stroke:#38435d;stroke-linecap:round;stroke-linejoin:round;stroke-width:2.2px;}</style></defs><g transform="translate(-365 -326)"><rect class="a" width="200" height="160" transform="translate(365 326)"/><g transform="translate(-370.79 -219)"><path class="b" d="M909.91,667.01l2.21,13.97s.91,3.64-.96,5.39a3.791,3.791,0,0,1-2.73.93,6.768,6.768,0,0,1-3.48-1.04c-2.46-1.49-7.83-5.1-15.54-8.98l.02-.05-16.69-30.3.13-.58a124.253,124.253,0,0,1,27.98,9.68,87.846,87.846,0,0,1,8.64,4.86,47,47,0,0,1,5.63,4.09l-5,2Z"/><path class="c" d="M915.12,664.98a47,47,0,0,0-5.63-4.09,87.846,87.846,0,0,0-8.64-4.86s.1-13.38-.04-27.53l12.14,19.59C914.73,662.23,915.12,664.98,915.12,664.98Z"/><path class="b" d="M912.95,648.09,900.81,628.5c-.1-9.4-.29-19.14-.69-25.52-.98-15.67-27.85-33.25-28.96-33.98,16.86,5.06,34.04,16.12,36.96,39.98C910.36,627.25,911.9,639.68,912.95,648.09Z"/><path class="c" d="M911.33,686.54c.09,1.87-.34,4.76-3.9,4.76a6.768,6.768,0,0,1-3.48-1.04c-6.38-3.86-31.68-22.17-67.83-22.32h-.33c-36.15.15-61.45,18.46-67.83,22.32a6.74,6.74,0,0,1-3.48,1.04c-3.56,0-3.99-2.89-3.9-4.76l.17-.17a3.791,3.791,0,0,0,2.73.93,6.74,6.74,0,0,0,3.48-1.04c6.44-3.9,32.78-22.28,68.83-22.28h.33c22.27,0,40.84,7.01,53.29,13.3,7.71,3.88,13.08,7.49,15.54,8.98a6.768,6.768,0,0,0,3.48,1.04,3.791,3.791,0,0,0,2.73-.93Z"/><path class="c" d="M836,564.98s2.26-.17,5.99-.13c1.2,0,2.54.03,4.01.1V565l39,38,15.81,25.5c.14,14.15.04,27.53.04,27.53a124.253,124.253,0,0,0-27.98-9.68,166.684,166.684,0,0,0-36.75-3.88h-.33c-30.71,0-52.05,7.28-64.73,13.56,0,0-.27-37.05.73-53.05.98-15.67,27.85-33.25,28.96-33.98a107.539,107.539,0,0,1,29.26-4.15c3.67-.04,5.9.13,5.9.13ZM805,583.5a2.5,2.5,0,1,0-2.5,2.5A2.5,2.5,0,0,0,805,583.5Z"/><path class="b" d="M900.81,628.5,885,603l-39-38v-.05A105.231,105.231,0,0,1,871.16,569c1.11.73,27.98,18.31,28.96,33.98C900.52,609.36,900.71,619.1,900.81,628.5ZM873,583.5a2.5,2.5,0,1,0-2.5,2.5A2.5,2.5,0,0,0,873,583.5Z"/><path class="c" d="M762,667.01l-.21-.03-5-2a47.007,47.007,0,0,1,5.63-4.09,89.962,89.962,0,0,1,8.64-4.86c12.68-6.28,34.02-13.56,64.73-13.56h.33a166.684,166.684,0,0,1,36.75,3.88l-.13.58,16.69,30.3-.02.05c-12.45-6.29-31.02-13.3-53.29-13.3h-.33c-36.05,0-62.39,18.38-68.83,22.28a6.74,6.74,0,0,1-3.48,1.04,3.791,3.791,0,0,1-2.73-.93c-1.87-1.75-.96-5.39-.96-5.39Z"/><circle class="d" cx="3.5" cy="3.5" r="3.5" transform="translate(867 580)"/><path class="c" d="M842,564l-.01.85c-3.73-.04-5.99.13-5.99.13h-.09s-2.23-.17-5.9-.13L830,564a6,6,0,0,1,12,0Z"/><circle class="d" cx="3.5" cy="3.5" r="3.5" transform="translate(799 580)"/><path class="c" d="M800.75,569c-1.11.73-27.98,18.31-28.96,33.98-1,16-.73,53.05-.73,53.05a89.962,89.962,0,0,0-8.64,4.86,47.007,47.007,0,0,0-5.63,4.09s1-7,7-56C766.71,585.12,783.89,574.06,800.75,569Z"/><path class="e" d="M835.91,564.98s-2.23-.17-5.9-.13A107.539,107.539,0,0,0,800.75,569c-16.86,5.06-34.04,16.12-36.96,39.98-6,49-7,56-7,56a47.007,47.007,0,0,1,5.63-4.09,89.962,89.962,0,0,1,8.64-4.86c12.68-6.28,34.02-13.56,64.73-13.56"/><line class="e" x1="5" y1="2" transform="translate(756.79 664.98)"/><path class="e" d="M762.79,661.98l-.79,5.03-2.21,13.97s-.91,3.64.96,5.39a3.791,3.791,0,0,0,2.73.93,6.74,6.74,0,0,0,3.48-1.04c6.44-3.9,32.78-22.28,68.83-22.28"/><path class="e" d="M760.58,686.54c-.09,1.87.34,4.76,3.9,4.76a6.74,6.74,0,0,0,3.48-1.04c6.38-3.86,31.68-22.17,67.83-22.32"/><path class="e" d="M800.79,568.98a.109.109,0,0,1-.04.02c-1.11.73-27.98,18.31-28.96,33.98-1,16-.73,53.05-.73,53.05"/><path class="e" d="M836.12,642.47a166.684,166.684,0,0,1,36.75,3.88,124.253,124.253,0,0,1,27.98,9.68,87.846,87.846,0,0,1,8.64,4.86,47,47,0,0,1,5.63,4.09s-.39-2.75-2.17-16.89c-1.05-8.41-2.59-20.84-4.83-39.11-2.92-23.86-20.1-34.92-36.96-39.98A105.231,105.231,0,0,0,846,564.95c-1.47-.07-2.81-.1-4.01-.1-3.73-.04-5.99.13-5.99.13V575"/><line class="e" y1="2" x2="5" transform="translate(910.12 664.98)"/><path class="e" d="M909.12,661.98l.79,5.03,2.21,13.97s.91,3.64-.96,5.39a3.791,3.791,0,0,1-2.73.93,6.768,6.768,0,0,1-3.48-1.04c-2.46-1.49-7.83-5.1-15.54-8.98-12.45-6.29-31.02-13.3-53.29-13.3"/><path class="e" d="M911.33,686.54c.09,1.87-.34,4.76-3.9,4.76a6.768,6.768,0,0,1-3.48-1.04c-6.38-3.86-31.68-22.17-67.83-22.32h-.33"/><path class="e" d="M871.12,568.98a.11.11,0,0,0,.04.02c1.11.73,27.98,18.31,28.96,33.98.4,6.38.59,16.12.69,25.52.14,14.15.04,27.53.04,27.53"/><path class="e" d="M830,564a6,6,0,0,1,12,0"/></g></g></svg>