<svg xmlns="http://www.w3.org/2000/svg" width="200" height="160" viewBox="0 0 200 160"><defs><style>.a,.d{fill:none;}.b{fill:#fff;}.c{fill:#dde6ed;}.d{stroke:#38435d;stroke-linecap:round;stroke-linejoin:round;stroke-width:2.2px;}</style></defs><g transform="translate(-365 -326)"><rect class="a" width="200" height="160" transform="translate(365 326)"/><g transform="translate(-593.685 -37)"><path class="b" d="M1131.97,466.03a4.16,4.16,0,0,1-5.07,4.57c-7.23-1.68-20.44-4.56-34.92-6.74a234.168,234.168,0,0,0-32.98-2.91h-.31c-24.06.06-55.19,6.69-67.9,9.65a4.153,4.153,0,0,1-5.07-4.57c2.07-16.23,8.53-60.65,18.28-72.03,9.02-10.53,35.58-13.89,48.19-14.91a2.22,2.22,0,0,0-.19.91c0,2.21,3.13,4,7,4,3.84,0,6.95-1.76,7-3.95l.54.05,39,38.05L1130,457l.72-.11C1131.24,460.45,1131.65,463.56,1131.97,466.03Z"/><path class="c" d="M1130.72,456.89l-.72.11-24.46-38.85-39-38.05-.54-.05V380a2.235,2.235,0,0,0-.18-.88c12.73,1.05,38.92,4.44,47.87,14.88C1121.96,403.65,1127.85,437.06,1130.72,456.89Z"/><path class="c" d="M1126.9,470.6s6.08,24.62-.99,32.99a7.85,7.85,0,0,1-7.04,2.72,35.527,35.527,0,0,1-9.01-1.93l.14-.38-18.13-39.36.11-.78C1106.46,466.04,1119.67,468.92,1126.9,470.6Z"/><path class="b" d="M1058.85,494.94c-33.19.56-41.21,14.09-58.03,15.37-4.96.38-7.72-2.44-9.15-6.63l.11-.09a7.85,7.85,0,0,0,7.04,2.72c17.13-1.31,25.13-15.31,59.87-15.39h.31c28.15.07,38.74,9.27,50.86,13.46a35.527,35.527,0,0,0,9.01,1.93,7.85,7.85,0,0,0,7.04-2.72l.11.09c-1.43,4.19-4.19,7.01-9.15,6.63C1100.05,509.03,1092.03,495.5,1058.85,494.94Z"/><path class="b" d="M1091.87,464.64,1110,504l-.14.38c-12.12-4.19-22.71-13.39-50.86-13.46h-.31c-34.74.08-42.74,14.08-59.87,15.39a7.85,7.85,0,0,1-7.04-2.72c-7.07-8.37-.99-32.99-.99-32.99,12.71-2.96,43.84-9.59,67.9-9.65h.31a234.168,234.168,0,0,1,32.98,2.91Z"/><path class="b" d="M1066,380v.05c-.05,2.19-3.16,3.95-7,3.95-3.87,0-7-1.79-7-4a2.22,2.22,0,0,1,.19-.91c3.59-.29,6.05-.39,6.66-.41.65.02,3.23.13,6.97.44A2.235,2.235,0,0,1,1066,380Z"/><path class="b" d="M1058.85,378.68c-.61.02-3.07.12-6.66.41.72-1.77,3.49-3.09,6.81-3.09,3.34,0,6.12,1.33,6.82,3.12C1062.08,378.81,1059.5,378.7,1058.85,378.68Z"/><path class="d" d="M1052.19,379.09c-12.61,1.02-39.17,4.38-48.19,14.91-9.75,11.38-16.21,55.8-18.28,72.03a4.153,4.153,0,0,0,5.07,4.57c12.71-2.96,43.84-9.59,67.9-9.65"/><path class="d" d="M990.79,470.6s-6.08,24.62.99,32.99a7.85,7.85,0,0,0,7.04,2.72c17.13-1.31,25.13-15.31,59.87-15.39"/><path class="d" d="M991.67,503.68c1.43,4.19,4.19,7.01,9.15,6.63,16.82-1.28,24.84-14.81,58.03-15.37.71-.01,1.42-.02,2.15-.02"/><path class="d" d="M1058.69,460.95h.31a234.168,234.168,0,0,1,32.98,2.91c14.48,2.18,27.69,5.06,34.92,6.74a4.16,4.16,0,0,0,5.07-4.57c-.32-2.47-.73-5.58-1.25-9.14-2.87-19.83-8.76-53.24-17.03-62.89-8.95-10.44-35.14-13.83-47.87-14.88"/><path class="d" d="M1126.9,470.6s6.08,24.62-.99,32.99a7.85,7.85,0,0,1-7.04,2.72,35.527,35.527,0,0,1-9.01-1.93c-12.12-4.19-22.71-13.39-50.86-13.46h-.31"/><path class="d" d="M1126.02,503.68c-1.43,4.19-4.19,7.01-9.15,6.63-16.82-1.28-24.84-14.81-58.02-15.37-.71-.01-1.43-.02-2.16-.02"/><path class="d" d="M1065.82,379.12a2.235,2.235,0,0,1,.18.88v.05c-.05,2.19-3.16,3.95-7,3.95-3.87,0-7-1.79-7-4a2.22,2.22,0,0,1,.19-.91c.72-1.77,3.49-3.09,6.81-3.09C1062.34,376,1065.12,377.33,1065.82,379.12Z"/></g></g></svg>