<svg xmlns="http://www.w3.org/2000/svg" width="200" height="160" viewBox="0 0 200 160"><defs><style>.a,.d{fill:none;}.b{fill:#fff;}.c{fill:#dde6ed;}.d{stroke:#38435d;stroke-linecap:round;stroke-linejoin:round;stroke-width:2.2px;}.e{fill:#38435d;}</style></defs><g transform="translate(-365 -326)"><rect class="a" width="200" height="160" transform="translate(365 326)"/><g transform="translate(-474 -36)"><path class="b" d="M973.1,451.53v.12l-1.07,8.29a1.393,1.393,0,0,1-1.46,1.06H967a1.341,1.341,0,0,1-1.46-1.18V442.41h1.26l5.7,1.09h.6Z"/><path class="b" d="M973.1,433.5v10h-.6l-5.7-1.09h-1.26V433.5a1.341,1.341,0,0,1,1.46-1.18h4.64A1.341,1.341,0,0,1,973.1,433.5Z"/><path class="b" d="M953.84,386.66A130.658,130.658,0,0,0,967.99,385a12.939,12.939,0,0,0,.18,2.16l3.01,17.74a38.1,38.1,0,0,1,.51,7.84L970.5,431.5v.82H967a1.341,1.341,0,0,0-1.46,1.18v26.32A1.341,1.341,0,0,0,967,461h2.32v21.6a35.3,35.3,0,0,1-.34,4.93L966.6,504.8l-.34,1.34a3.8,3.8,0,0,1-3.67,2.86H959.5v-1.5l-11-56-9-23h-.45V410.05h.25a6.054,6.054,0,0,0,6.06-6.05V388.61l-1.51-1.47C947.54,387.05,950.9,386.88,953.84,386.66Z"/><path class="b" d="M967.99,380.67V385a130.658,130.658,0,0,1-14.15,1.66l-.64-6.24c10.64-.54,13.22-2.17,13.22-2.17l.37-.35A3.8,3.8,0,0,1,967.99,380.67Z"/><path class="b" d="M966.79,377.9l-.37.35s-2.58,1.63-13.22,2.17c-3.67.19-8.3.25-14.12.07h-.03c-5.83.18-10.46.12-14.14-.07-10.65-.54-13.22-2.17-13.22-2.17l-.62-.11a3.782,3.782,0,0,1,2.4-1.23c3.66-.41,11.89-.91,25.32-.91h.52c13.43,0,21.66.5,25.32.91A3.767,3.767,0,0,1,966.79,377.9Z"/><path class="c" d="M959.5,507.5V509h-7.41a3.787,3.787,0,0,1-3.67-2.86l-1.33-5.04a19.821,19.821,0,0,1-.63-3.9l-1.1-18.36-1.12-11.07a73.223,73.223,0,0,0-.7-7.69l-4.49-31.11v-.47h.45l9,23Z"/><path class="b" d="M953.2,380.42l.64,6.24c-2.94.22-6.3.39-9.99.48-1.54.03-3.14.05-4.8.05v-5.64l.03-1.06C944.9,380.67,949.53,380.61,953.2,380.42Z"/><path class="b" d="M945.36,388.61V404a6.054,6.054,0,0,1-6.06,6.05h-.25V387.19c1.66,0,3.26-.02,4.8-.05Z"/><path class="b" d="M939.08,380.49l-.03,1.06v5.64c-5.63,0-10.61-.22-14.78-.53l.64-6.24c3.68.19,8.31.25,14.14.07Z"/><path class="b" d="M924.27,386.66c4.17.31,9.15.53,14.78.53v41.78l-4.49,31.11a70.635,70.635,0,0,0-.69,7.69l-1.12,11.07-1.11,18.36a20.584,20.584,0,0,1-.62,3.9l-1.34,5.04a3.775,3.775,0,0,1-3.66,2.86H915.51a3.775,3.775,0,0,1-3.66-2.86l-2.69-18.49a35.8,35.8,0,0,1-.38-5.18V461h2.32a1.352,1.352,0,0,0,1.47-1.18V433.5a1.352,1.352,0,0,0-1.47-1.18h-3.6v-.82l-1.08-18.76a37.41,37.41,0,0,1,.5-7.84l3.01-17.74a12.939,12.939,0,0,0,.18-2.16A131.129,131.129,0,0,0,924.27,386.66Z"/><path class="b" d="M924.91,380.42l-.64,6.24A131.129,131.129,0,0,1,910.11,385v-4.33a3.8,3.8,0,0,1,.96-2.53l.62.11S914.26,379.88,924.91,380.42Z"/><path class="b" d="M912.57,442.41v17.41A1.352,1.352,0,0,1,911.1,461h-3.57a1.382,1.382,0,0,1-1.45-1.06l-1.07-8.29a.486.486,0,0,1-.01-.12V443.5h.5l5.81-1.09Z"/><path class="b" d="M912.57,433.5v8.91h-1.26l-5.81,1.09H905v-10a1.341,1.341,0,0,1,1.46-1.18h4.64A1.352,1.352,0,0,1,912.57,433.5Z"/><path class="d" d="M908.78,461.44v21.03a35.8,35.8,0,0,0,.38,5.18l2.69,18.49a3.775,3.775,0,0,0,3.66,2.86h10.51a3.775,3.775,0,0,0,3.66-2.86l1.34-5.04a20.584,20.584,0,0,0,.62-3.9l1.11-18.36,1.12-11.07a70.635,70.635,0,0,1,.69-7.69l4.49-31.11"/><path class="d" d="M907.5,431.5l-1.08-18.76a37.41,37.41,0,0,1,.5-7.84l3.01-17.74a12.939,12.939,0,0,0,.18-2.16v-4.33a3.762,3.762,0,0,1,3.36-3.76c3.66-.41,11.89-.91,25.32-.91"/><path class="d" d="M905,443.5v-10a1.341,1.341,0,0,1,1.46-1.18h4.64a1.352,1.352,0,0,1,1.47,1.18v26.32A1.352,1.352,0,0,1,911.1,461h-3.57a1.382,1.382,0,0,1-1.45-1.06l-1.07-8.29a.486.486,0,0,1-.01-.12Z"/><line class="d" x1="5.81" y2="1.09" transform="translate(905.5 442.41)"/><path class="d" d="M911.69,378.25s2.57,1.63,13.22,2.17c3.68.19,8.31.25,14.14.07"/><path class="d" d="M910.11,385a131.129,131.129,0,0,0,14.16,1.66c4.17.31,9.15.53,14.78.53"/><path class="d" d="M924.91,380.42l-.64,6.24-.35,3.45"/><path class="d" d="M969.32,462.44V482.6a35.3,35.3,0,0,1-.34,4.93L966.6,504.8l-.34,1.34a3.8,3.8,0,0,1-3.67,2.86h-10.5a3.787,3.787,0,0,1-3.67-2.86l-1.33-5.04a19.821,19.821,0,0,1-.63-3.9l-1.1-18.36-1.12-11.07a73.223,73.223,0,0,0-.7-7.69l-4.49-31.11V381.55"/><path class="d" d="M970.5,431.5l1.19-18.76a38.1,38.1,0,0,0-.51-7.84l-3.01-17.74a12.939,12.939,0,0,1-.18-2.16v-4.33a3.771,3.771,0,0,0-3.36-3.76c-3.66-.41-11.89-.91-25.32-.91"/><path class="d" d="M973.1,443.5v-10a1.341,1.341,0,0,0-1.46-1.18H967a1.341,1.341,0,0,0-1.46,1.18v26.32A1.341,1.341,0,0,0,967,461h3.57a1.393,1.393,0,0,0,1.46-1.06l1.07-8.29V443.5Z"/><line class="d" x2="5.7" y2="1.09" transform="translate(966.8 442.41)"/><path class="d" d="M966.42,378.25s-2.58,1.63-13.22,2.17c-3.67.19-8.3.25-14.12.07h-.03"/><path class="d" d="M967.99,385a130.658,130.658,0,0,1-14.15,1.66c-2.94.22-6.3.39-9.99.48-1.54.03-3.14.05-4.8.05"/><path class="d" d="M953.2,380.42l.64,6.24.35,3.45"/><path class="d" d="M945.36,388.61V404a6.054,6.054,0,0,1-6.06,6.05h-.25"/><line class="d" x1="11.35" y2="1.06" transform="translate(952.2 395.71)"/><circle class="e" cx="1.5" cy="1.5" r="1.5" transform="translate(941.354 382.265)"/></g></g></svg>