<svg xmlns="http://www.w3.org/2000/svg" width="200" height="160" viewBox="0 0 200 160"><defs><style>.a,.d{fill:none;}.b{fill:#dde6ed;}.c{fill:#fff;}.d{stroke:#38435d;stroke-linecap:round;stroke-linejoin:round;stroke-width:2.2px;}</style></defs><g transform="translate(-365 -326)"><rect class="a" width="200" height="160" transform="translate(365 326)"/><g transform="translate(-779 -36)"><path class="b" d="M1284,425v70l-21-74h17A4,4,0,0,1,1284,425Z"/><path class="c" d="M1263,421h-1.16v-1c0-23.75-7.76-43-17.34-43l.02-1c13.52.02,24.48,19.93,24.48,44.5v.5Z"/><path class="c" d="M1220,420.5c0-24.58,10.97-44.5,24.5-44.5h.02l-.02,1c-9.58,0-17.34,19.25-17.34,43v1H1220Z"/><path class="c" d="M1284,495v5.3a8.706,8.706,0,0,1-8.7,8.7h-61.6a8.706,8.706,0,0,1-8.7-8.7V425a4,4,0,0,1,4-4h54Z"/><path class="d" d="M1284,495v5.3a8.706,8.706,0,0,1-8.7,8.7h-61.6a8.706,8.706,0,0,1-8.7-8.7V425a4,4,0,0,1,4-4h71a4,4,0,0,1,4,4Z"/><path class="d" d="M1220,420.5c0-24.58,10.97-44.5,24.5-44.5h.02c13.52.02,24.48,19.93,24.48,44.5"/><path class="d" d="M1227.16,420c0-23.75,7.76-43,17.34-43s17.34,19.25,17.34,43"/></g></g></svg>