<svg xmlns="http://www.w3.org/2000/svg" width="200" height="160" viewBox="0 0 200 160"><defs><style>.a{fill:none;}.b{fill:#dde6ed;}.c{fill:#fff;}.d{fill:#38435d;}</style></defs><g transform="translate(-365 -326)"><rect class="a" width="200" height="160" transform="translate(365 326)"/><g transform="translate(-300.879 -36.876)"><g transform="translate(708.879 375.876)"><g transform="translate(1.073 1.089)"><g transform="translate(72.684 62.184)"><path class="b" d="M801.04,490.24a4.974,4.974,0,0,1-.8,3.23L799.22,495v4.64a3.928,3.928,0,0,1-3.42,3.9c-2.55.32-6.88.72-12.78.93L783,504l16-64h.22l-1,23Z" transform="translate(-783 -440)"/></g><g transform="translate(93.638 18.825)"><path class="b" d="M821.7,441.49l-.2.01-17.44-31c1.75-8.2,3.3-14.51,3.35-14.71a12.179,12.179,0,0,1,2.97,3.34C813.69,404.61,819.81,417.66,821.7,441.49Z" transform="translate(-804.06 -395.79)"/></g><g transform="translate(70.788 0.045)"><path class="b" d="M792,385c0,3,3,0,3,4,0,1.89-3.34,2.89-7.19,3.41l-6.73-7.33c.81-.37,1.54-.73,2.14-1.08,5.07-2.91,4.8-6.76,4.78-6.99a4.862,4.862,0,0,1,1.89.45c1.54.77.11,2.32.11,3.54C790,383,792,382,792,385Z" transform="translate(-781.08 -377.01)"/></g><g transform="translate(77.388 12.035)"><path class="b" d="M805.61,394.6a11.446,11.446,0,0,1,1.8,1.19c-.05.2-1.6,6.51-3.35,14.71l-.56-1-15.69-17.09c3.85-.52,7.19-1.52,7.19-3.41h.22Z" transform="translate(-787.81 -389)"/></g><g transform="translate(88.798 32.684)"><path class="c" d="M822.26,501.02a2.658,2.658,0,0,1-3.38,2.56l-9.18-2.6a5.246,5.246,0,0,1-2.36-1.43,5.084,5.084,0,0,1-1.38-3.15l-2.62-35.72a24.575,24.575,0,0,0-.47-3.32L799.22,440c.53-7.99,2.82-20,4.84-29.5l17.44,31,.2-.01c.46,5.84.67,12.33.52,19.51Z" transform="translate(-799.22 -410.5)"/></g><g transform="translate(96.798 121.734)"><path class="c" d="M820.22,504v3.51a2.135,2.135,0,0,1-2.46,2.11l-8.26-1.27a2.689,2.689,0,0,1-2.28-2.66v-6.03l.12-.11a5.246,5.246,0,0,0,2.36,1.43l9.18,2.6a2.673,2.673,0,0,0,.73.1Z" transform="translate(-807.22 -499.55)"/></g><g transform="translate(14.858 12.005)"><path class="c" d="M803.5,409.349l.56.993c-2.02,9.43-4.31,21.352-4.84,29.283H799l-16,63.529.02.467c-4.49.169-9.88.228-16.07.069h-.68a223.87,223.87,0,0,1-29.86-.993,3.909,3.909,0,0,1-3.41-3.871V494.22l-1.02-1.519a4.852,4.852,0,0,1-.8-3.206L734,462.455l-1-22.831c-.99-14.77-8.08-43.438-8.19-43.885a11.452,11.452,0,0,1,1.8-1.181L737,389l.76-.03c.08,1.142,1.3,2.422,4.24,3.008,5,.993,12,0,19,.993s13,0,16,0a86.116,86.116,0,0,0,10.81-.586Z" transform="translate(-724.81 -388.97)"/></g><g transform="translate(33.703 0.025)"><path class="c" d="M781.08,385.08c-3.54,1.62-8.76,3.4-13.06,4.97L768,390c-8,0-17-5-21-8s-3-4-3-4l.18-.96a95.084,95.084,0,0,0,13.37,1.58,157.47,157.47,0,0,0,27.7-1.47c.24-.03.5-.06.76-.08a11.937,11.937,0,0,1,1.99-.06c.02.23.29,4.08-4.78,6.99C782.62,384.35,781.89,384.71,781.08,385.08Z" transform="translate(-743.889 -376.99)"/></g><g transform="translate(50.767 8.115)"><path class="c" d="M781.08,385.08l6.73,7.33A85.489,85.489,0,0,1,777,393c-3,0-9,1-16,0a43.785,43.785,0,0,1,7.02-2.95C772.32,388.48,777.54,386.7,781.08,385.08Z" transform="translate(-761 -385.08)"/></g><g transform="translate(27.642)"><path class="c" d="M768,390l.02.05A43.785,43.785,0,0,0,761,393c-7-1-14,0-19-1-2.94-.59-4.16-1.88-4.24-3.03A2.047,2.047,0,0,1,739,387c2-1,1-3,2-4s0-2,.47-4.22A2.116,2.116,0,0,1,744,377a1.162,1.162,0,0,1,.18.04L744,378s-1,1,3,4S760,390,768,390Z" transform="translate(-737.753 -376.965)"/></g><g transform="translate(0 18.825)"><path class="c" d="M733,439.651l-3.66,17.243a23.678,23.678,0,0,0-.46,3.244l-2.62,35.468a5.026,5.026,0,0,1-1.38,3.125,5.254,5.254,0,0,1-2.36,1.419l-9.18,2.579a2.682,2.682,0,0,1-1.25.05,2.624,2.624,0,0,1-2.13-2.589l.04-39.7c-.76-36.192,7.72-54.616,11.84-61.382a12.114,12.114,0,0,1,2.97-3.314C724.92,396.236,732.01,424.889,733,439.651Z" transform="translate(-709.952 -395.79)"/></g><g transform="translate(2.048 121.734)"><path class="c" d="M725,499.66v6.03a2.689,2.689,0,0,1-2.28,2.66l-8.26,1.27a2.135,2.135,0,0,1-2.46-2.11V504l.09-.37a2.662,2.662,0,0,0,1.25-.05l9.18-2.6a5.247,5.247,0,0,0,2.36-1.43Z" transform="translate(-712 -499.55)"/></g></g><g transform="translate(27.555)"><path class="d" d="M767.588,394.527a47.49,47.49,0,0,1-6.741-.457,70.826,70.826,0,0,0-10.1-.489,48.142,48.142,0,0,1-8.962-.52c-4.543-.913-5.058-3.3-5.106-4.016a3.1,3.1,0,0,1,1.835-3.012c.651-.325.73-.726.848-1.6a3.552,3.552,0,0,1,.87-2.2c.159-.158.186-.212.1-.99a7.924,7.924,0,0,1,.077-2.689,3.172,3.172,0,0,1,3.815-2.613,1.708,1.708,0,0,1,.211.046,93.4,93.4,0,0,0,13.167,1.552,157.685,157.685,0,0,0,27.511-1.464c.257-.032.533-.064.811-.085a13.036,13.036,0,0,1,2.145-.061,5.848,5.848,0,0,1,2.3.562c1.889.945,1.256,2.738.952,3.6a3.57,3.57,0,0,0-.244.907c0,.347.015.358.4.639a3.559,3.559,0,0,1,1.6,3.361,1.217,1.217,0,0,0,.064.5,1.284,1.284,0,0,1,.359.034c1.274.2,2.577.764,2.577,3.469,0,3.032-4.638,4.01-8.127,4.481a86.2,86.2,0,0,1-10.954.6c-.785,0-1.826.075-3.032.161C772.167,394.372,770.008,394.527,767.588,394.527Zm-24.037-16.488c-.43,0-.859.2-1.025.969a5.8,5.8,0,0,0-.042,2,3,3,0,0,1-.719,2.757,2.019,2.019,0,0,0-.257.954,3.71,3.71,0,0,1-2.025,3.248,1,1,0,0,0-.646.911c.05.708,1.111,1.608,3.376,2.062a46.669,46.669,0,0,0,8.537.479,73.541,73.541,0,0,1,10.4.511,57.6,57.6,0,0,0,12.66.156c1.248-.09,2.325-.167,3.187-.167a84.215,84.215,0,0,0,10.663-.58c4.939-.667,6.256-1.784,6.256-2.339,0-1.217-.144-1.239-.745-1.332A2.352,2.352,0,0,1,790.919,385c0-1.1-.265-1.292-.7-1.61a2.645,2.645,0,0,1-1.3-2.39,4.929,4.929,0,0,1,.367-1.626,3.429,3.429,0,0,0,.237-.883c-.009,0-.045-.029-.117-.064a3.815,3.815,0,0,0-1.469-.338h-.017a11.2,11.2,0,0,0-1.81.058c-.259.021-.5.049-.727.077a159.5,159.5,0,0,1-27.889,1.477,95.472,95.472,0,0,1-13.521-1.6,1.078,1.078,0,0,1-.138-.036A1.687,1.687,0,0,0,743.551,378.039Z" transform="translate(-736.671 -375.876)"/></g><g transform="translate(33.748 1.043)"><path class="d" d="M768,391.081c-8.459,0-17.859-5.374-21.648-8.216-2.3-1.721-3.454-3.144-3.539-4.349a1.635,1.635,0,0,1,.422-1.281,1.082,1.082,0,0,1,1.755,1.2c.085.242.517,1.093,2.658,2.7,3.59,2.693,12.463,7.784,20.352,7.784a1.081,1.081,0,0,1,0,2.162Zm-23.233-12.319,0,0Zm0,0v0Z" transform="translate(-742.808 -376.918)"/></g><g transform="translate(50.759 0.043)"><path class="d" d="M761,394.081a1.081,1.081,0,0,1-.6-1.981,42.837,42.837,0,0,1,7.249-3.067c.911-.332,1.865-.675,2.834-1.022,3.636-1.306,7.4-2.656,10.145-3.914.866-.4,1.535-.733,2.045-1.031,4.481-2.572,4.26-5.828,4.248-5.965,0-.03,0-.071,0-.1a1.081,1.081,0,1,1,2.162,0v.01c.037.393.237,4.736-5.323,7.928-.573.334-1.283.694-2.229,1.125-2.831,1.3-6.634,2.662-10.313,3.982-.967.348-1.917.688-2.826,1.02A45.749,45.749,0,0,0,761.6,393.9,1.079,1.079,0,0,1,761,394.081Z" transform="translate(-759.919 -375.919)"/></g><g transform="translate(0 12.043)"><path class="d" d="M759.129,504.86a204.325,204.325,0,0,1-22.855-1.091,4.989,4.989,0,0,1-4.355-4.936v-4.282l-.838-1.249a5.935,5.935,0,0,1-.977-3.914l2.813-26.963-.625-14.257-1.9,8.931a23.115,23.115,0,0,0-.439,3.1l-2.62,35.492a6.118,6.118,0,0,1-1.671,3.784,6.364,6.364,0,0,1-2.843,1.715l-9.189,2.583a3.734,3.734,0,0,1-4.756-3.582l.04-39.724c-.258-12.267.4-42.913,11.995-61.977a13.114,13.114,0,0,1,3.235-3.61,12.44,12.44,0,0,1,1.954-1.28l10.384-5.557a1.082,1.082,0,0,1,1.464.435,1.068,1.068,0,0,1-.438,1.453l-10.39,5.56a10.589,10.589,0,0,0-1.637,1.074,11.03,11.03,0,0,0-2.721,3.034c-3.767,6.191-12.447,24.513-11.684,60.846l-.04,39.754a1.547,1.547,0,0,0,1.263,1.538,1.609,1.609,0,0,0,.745-.031l9.176-2.58a4.177,4.177,0,0,0,1.867-1.122,3.987,3.987,0,0,0,1.089-2.463l2.621-35.5a25.094,25.094,0,0,1,.48-3.391l3.66-17.252a1.082,1.082,0,0,1,2.138.175l1,22.834a1.033,1.033,0,0,1-.005.157l-2.82,27.044a3.791,3.791,0,0,0,.626,2.5l1.018,1.517a1.066,1.066,0,0,1,.182.6v4.606a2.835,2.835,0,0,0,2.467,2.808,223.388,223.388,0,0,0,29.694.984,1.091,1.091,0,0,1,1.109,1.046,1.079,1.079,0,0,1-1.054,1.1C763.8,504.833,761.407,504.86,759.129,504.86Z" transform="translate(-708.879 -387.918)"/></g><g transform="translate(14.85 18.828)"><path class="d" d="M733,441.081a1.081,1.081,0,0,1-1.078-1.009c-.969-14.569-7.867-42.823-8.16-44.019a1.107,1.107,0,0,1-.032-.263,1.081,1.081,0,0,1,2.146-.2c.463,1.893,7.234,29.773,8.2,44.333a1.082,1.082,0,0,1-1.007,1.151Z" transform="translate(-723.729 -394.704)"/></g><g transform="translate(2.04 121.852)"><path class="d" d="M714.132,510.727a3.219,3.219,0,0,1-3.213-3.217V504a1.081,1.081,0,1,1,2.162,0v3.51a1.043,1.043,0,0,0,.368.8,1.031,1.031,0,0,0,.845.241l8.262-1.271a1.617,1.617,0,0,0,1.363-1.591v-6.03a1.081,1.081,0,0,1,2.162,0v6.03a3.747,3.747,0,0,1-3.2,3.728l-8.258,1.27A3.137,3.137,0,0,1,714.132,510.727Z" transform="translate(-710.919 -498.579)"/></g><g transform="translate(56.52 12.043)"><path class="d" d="M774.06,504.864q-3.5,0-7.138-.093a1.074,1.074,0,1,1,.057-2.146c5.577.144,10.96.119,16-.069,6.491-.23,10.734-.672,12.686-.915a2.837,2.837,0,0,0,2.474-2.808v-4.606a1.071,1.071,0,0,1,.181-.6l1.021-1.519a3.854,3.854,0,0,0,.623-2.507l-2.819-27.037a1.017,1.017,0,0,1-.005-.157l1-22.834a1.082,1.082,0,0,1,2.137-.175l3.651,17.236a25.258,25.258,0,0,1,.49,3.44l2.62,35.46a3.993,3.993,0,0,0,1.089,2.471,4.2,4.2,0,0,0,1.878,1.125l9.17,2.578a1.632,1.632,0,0,0,1.554-.408,1.519,1.519,0,0,0,.45-1.1l-.04-39.736c.141-6.708-.033-13.188-.517-19.286-1.859-23.267-7.795-36.041-11.168-41.584a10.984,10.984,0,0,0-2.7-3.02A10.5,10.5,0,0,0,805.1,395.5l-10.4-5.562a1.067,1.067,0,0,1-.438-1.453,1.081,1.081,0,0,1,1.463-.435l10.391,5.558a12.63,12.63,0,0,1,1.964,1.291,13.118,13.118,0,0,1,3.218,3.6c3.471,5.705,9.578,18.817,11.473,42.524.49,6.169.665,12.721.523,19.476l.04,39.708a3.636,3.636,0,0,1-1.077,2.614,3.837,3.837,0,0,1-3.677.962l-9.182-2.581a6.368,6.368,0,0,1-2.852-1.718,6.116,6.116,0,0,1-1.672-3.79l-2.619-35.455a23.282,23.282,0,0,0-.45-3.153l-1.885-8.9-.624,14.246,2.812,26.965a6,6,0,0,1-.973,3.91l-.841,1.251v4.282a4.991,4.991,0,0,1-4.364,4.936c-1.991.248-6.306.7-12.879.931C780.162,504.809,777.152,504.864,774.06,504.864Z" transform="translate(-765.869 -387.918)"/></g><g transform="translate(88.79 18.828)"><path class="d" d="M799.221,441.081l-.073,0a1.082,1.082,0,0,1-1.007-1.15c.434-6.547,2.07-16.525,4.861-29.654,1.729-8.1,3.242-14.27,3.352-14.72a1.081,1.081,0,0,1,2.137.225v.01a1.091,1.091,0,0,1-.032.261c-.015.059-1.562,6.332-3.342,14.675-2.769,13.028-4.39,22.9-4.818,29.345A1.082,1.082,0,0,1,799.221,441.081Z" transform="translate(-798.139 -394.704)"/></g><g transform="translate(96.79 121.852)"><path class="d" d="M818.087,510.727a3.159,3.159,0,0,1-.493-.039l-8.258-1.27a3.793,3.793,0,0,1-3.2-3.728v-6.03a1.081,1.081,0,0,1,2.162,0v6.03a1.617,1.617,0,0,0,1.361,1.591l8.262,1.271a1.031,1.031,0,0,0,.847-.241,1.043,1.043,0,0,0,.368-.8V504a1.081,1.081,0,0,1,2.162,0v3.51a3.219,3.219,0,0,1-3.214,3.217Z" transform="translate(-806.139 -498.579)"/></g></g></g></g></svg>