<svg xmlns="http://www.w3.org/2000/svg" width="200" height="160" viewBox="0 0 200 160"><defs><style>.a,.e{fill:none;}.b{fill:#dde6ed;}.c{fill:#fff;}.d{fill:#38435d;}.e{stroke:#38435d;stroke-linecap:round;stroke-linejoin:round;stroke-width:2.2px;}</style></defs><g transform="translate(-365 -326)"><rect class="a" width="200" height="160" transform="translate(365 326)"/><g transform="translate(-289.407 -36)"><path class="b" d="M808.59,403.51a3.058,3.058,0,0,1,.07,2.92l-3.28,6.29L804,412l-17.11-17.95c.19-3.69.52-6.05.52-6.05l.07-.99C788.48,387.11,800.04,388.63,808.59,403.51Z"/><path class="c" d="M805.38,412.72l-7.13,13.67a3,3,0,0,1-2.66,1.61h-1.96c-6.78-10.4-7.15-25.6-6.74-33.95L804,412Z"/><path class="b" d="M796.12,501.89a3.96,3.96,0,0,1-2.31,4.18c-2.65,1.16-7.97,2.51-18.71,3.29l-.01-.13,18.34-63.02h.13l-.14,34.04a25.207,25.207,0,0,0,.22,3.48Z"/><path class="c" d="M793.63,428l-.07,18.21h-.13l-18.34,63.02.01.13c-5.41.39-12.19.64-20.69.64H754c-25.38,0-35.43-2.19-39.4-3.93a3.96,3.96,0,0,1-2.31-4.18l2.47-18.16a23.752,23.752,0,0,0,.23-3.48L714.78,428c9.78-15,6.22-40,6.22-40l-2.56-.47A14.984,14.984,0,0,1,721,387l7.77-2.5.23.5,2,16,11.81-6.36.19.36s8,5.2,11,10.1h.41c3-4.9,11-10.1,11-10.1l.19-.36L777.41,401l1.27-10.18,8.1,3.11.11.12C786.48,402.4,786.85,417.6,793.63,428ZM756.5,411.5a2,2,0,1,0-2,2A2.006,2.006,0,0,0,756.5,411.5Zm0,8a2,2,0,1,0-2,2A2.006,2.006,0,0,0,756.5,419.5Z"/><path class="b" d="M787.41,387a.418.418,0,0,1,.07.01l-.07.99s-.33,2.36-.52,6.05l-.11-.12-8.1-3.11.73-5.82.23-.5Z"/><path class="b" d="M770.91,375.51l8.73,8.99-.23.5-.73,5.82L771,383l-1.27-.27a32.436,32.436,0,0,0,.68-6.73Z"/><path class="c" d="M778.68,390.82,777.41,401l-11.81-6.36-1.19-.64s3.33-3.33,5.03-9.99c.1-.41.2-.84.29-1.28L771,383Z"/><path class="c" d="M770.91,375.51l-.5.49a32.436,32.436,0,0,1-.68,6.73c-.09.44-.19.87-.29,1.28l-.03-.01a69.1,69.1,0,0,1-15,1.76H754A69.1,69.1,0,0,1,739,384l-.03.01A32.4,32.4,0,0,1,738,376l-.5-.49.5-.51a40,40,0,0,0,16,2.13h.41a40,40,0,0,0,16-2.13Z"/><path class="c" d="M769.41,384l.03.01c-1.7,6.66-5.03,9.99-5.03,9.99l1.19.64-.19.36s-8,5.2-11,10.1H754c-3-4.9-11-10.1-11-10.1l-.19-.36L744,394s-3.33-3.33-5.03-9.99L739,384a69.1,69.1,0,0,0,15,1.76h.41A69.1,69.1,0,0,0,769.41,384Z"/><circle class="d" cx="2" cy="2" r="2" transform="translate(752.5 409.5)"/><circle class="d" cx="2" cy="2" r="2" transform="translate(752.5 417.5)"/><path class="c" d="M744,394l-1.19.64L731,401l-2-16-.23-.5,8.73-8.99.5.49a32.4,32.4,0,0,0,.97,8.01C740.67,390.67,744,394,744,394Z"/><path class="c" d="M721,388s3.56,25-6.22,40h-1.96a3,3,0,0,1-2.66-1.61l-10.42-19.96a3.058,3.058,0,0,1,.08-2.92c6.43-11.19,14.56-14.82,18.62-15.98Z"/><path class="e" d="M754,377.13A40,40,0,0,1,738,375l-.5.51-8.73,8.99L721,387a14.984,14.984,0,0,0-2.56.53c-4.06,1.16-12.19,4.79-18.62,15.98a3.058,3.058,0,0,0-.08,2.92l10.42,19.96a3,3,0,0,0,2.66,1.61h1.96l.21,52.25a23.752,23.752,0,0,1-.23,3.48l-2.47,18.16a3.96,3.96,0,0,0,2.31,4.18c3.97,1.74,14.02,3.93,39.4,3.93"/><path class="e" d="M721,388s3.56,25-6.22,40"/><path class="e" d="M729,385l2,16,11.81-6.36L744,394s-3.33-3.33-5.03-9.99A32.4,32.4,0,0,1,738,376"/><path class="e" d="M743,395s8,5.2,11,10.1"/><path class="e" d="M739,384a69.1,69.1,0,0,0,15,1.76"/><path class="e" d="M754.41,377.13a40,40,0,0,0,16-2.13l.5.51,8.73,8.99,7.77,2.5a.418.418,0,0,1,.07.01c1,.1,12.56,1.62,21.11,16.5a3.058,3.058,0,0,1,.07,2.92l-3.28,6.29-7.13,13.67a3,3,0,0,1-2.66,1.61h-1.96l-.07,18.21-.14,34.04a25.207,25.207,0,0,0,.22,3.48l2.48,18.16a3.96,3.96,0,0,1-2.31,4.18c-2.65,1.16-7.97,2.51-18.71,3.29-5.41.39-12.19.64-20.69.64"/><path class="e" d="M787.41,388s-.33,2.36-.52,6.05c-.41,8.35-.04,23.55,6.74,33.95"/><path class="e" d="M779.41,385l-.73,5.82L777.41,401l-11.81-6.36-1.19-.64s3.33-3.33,5.03-9.99c.1-.41.2-.84.29-1.28a32.436,32.436,0,0,0,.68-6.73"/><path class="e" d="M765.41,395s-8,5.2-11,10.1"/><path class="e" d="M754.41,385.76a69.1,69.1,0,0,0,15-1.76"/></g></g></svg>