<svg xmlns="http://www.w3.org/2000/svg" width="200" height="160" viewBox="0 0 200 160"><defs><style>.a,.e{fill:none;}.b{fill:#dde6ed;}.c{fill:#fff;}.d{fill:#38435d;}.e{stroke:#38435d;stroke-linecap:round;stroke-linejoin:round;stroke-width:2.162px;}</style></defs><g transform="translate(-365 -326)"><rect class="a" width="200" height="160" transform="translate(365 326)"/><g transform="translate(-130.691 -36.899)"><path class="a" d="M592,392"/><path class="b" d="M658,415.53a2.015,2.015,0,0,1-.28,2.8l-6.14,5.26-.08-.09-17.9-25.7-.52-.28c1.17-4.68,2.32-7.81,2.32-7.81a9.829,9.829,0,0,1,4.48,3.14Z"/><path class="c" d="M651.5,423.5l.08.09-9.9,8.47a2.509,2.509,0,0,1-3.03.16l-5.8-3.99c-4.06-9.11-1.87-22.37.23-30.71l.52.28Z"/><path class="b" d="M617.21,383l18.19,6.71s-1.15,3.13-2.32,7.81l-17.64-9.51A25.668,25.668,0,0,0,617,383Z"/><path class="b" d="M633.86,506.07a2.95,2.95,0,0,1-3,2.93H616.11v-.47l16.43-73.03.4-.01Z"/><path class="c" d="M615.44,388.01l17.64,9.51c-2.1,8.34-4.29,21.6-.23,30.71l.09,7.26-.4.01-16.43,73.03V509H560.35a2.95,2.95,0,0,1-3-2.93l1.02-77.84c6.32-14.22-2.56-38.52-2.56-38.52L574,383s2,10,9,17c0,0,3.84-5.23,8.92-7.61l-2.31,1.88A83.957,83.957,0,0,1,592,407l.2.02c-.08.64-.15,1.3-.2,1.98v6h7s0-16,2-21l.25-.33c1.92,1.54,4.55,3.93,5.75,6.33A36.191,36.191,0,0,0,615.44,388.01Z"/><path class="b" d="M609.84,376l7.16,7a25.668,25.668,0,0,1-1.56,5.01L608,384l-.9-.5A26.824,26.824,0,0,0,609.84,376Z"/><path class="c" d="M608,384l7.44,4.01A36.191,36.191,0,0,1,607,400c-1.2-2.4-3.83-4.79-5.75-6.33C599.97,392.64,599,392,599,392a20.965,20.965,0,0,0,8.1-8.5Z"/><path class="c" d="M609.84,376a26.824,26.824,0,0,1-2.74,7.5A20.965,20.965,0,0,1,599,392a10.513,10.513,0,0,0-2.23,2.31L596,394l-.67-1.61h-3.41S582,386,582,378l1.37-1.02A35.19,35.19,0,0,0,609.84,376Z"/><path class="c" d="M601.25,393.67,601,394c-2,5-2,21-2,21h-7v-6c.05-.68.12-1.34.2-1.98.81-6.53,2.91-10.5,4.57-12.71A10.513,10.513,0,0,1,599,392S599.97,392.64,601.25,393.67ZM597,407.5a1.5,1.5,0,1,0-1.5,1.5A1.5,1.5,0,0,0,597,407.5Z"/><path class="c" d="M596,394l.77.31c-1.66,2.21-3.76,6.18-4.57,12.71L592,407a83.957,83.957,0,0,0-2.39-12.73l2.31-1.88h3.41Z"/><circle class="d" cx="1.5" cy="1.5" r="1.5" transform="translate(594 406)"/><path class="c" d="M582,378c0,8,9.92,14.39,9.92,14.39C586.84,394.77,583,400,583,400c-7-7-9-17-9-17a39.877,39.877,0,0,0,7-7,21.967,21.967,0,0,0,2.37.98Z"/><path class="c" d="M555.81,389.71s8.88,24.3,2.56,38.52l-5.81,3.99a2.493,2.493,0,0,1-3.02-.16l-16.05-13.73a2.015,2.015,0,0,1-.28-2.8l18.12-22.68A9.828,9.828,0,0,1,555.81,389.71Z"/><path class="d" d="M599,416.1h-7a1.1,1.1,0,0,1-1.1-1.1v-6c.054-.779.126-1.458.209-2.117.843-6.8,3.065-10.949,4.782-13.235a11.381,11.381,0,0,1,2.5-2.563,19.8,19.8,0,0,0,7.743-8.11,27.207,27.207,0,0,0,2.11-5.1,36.18,36.18,0,0,1-25.143.18c.045,7.292,9.322,13.352,9.416,13.413a1.1,1.1,0,0,1-.129,1.921c-4.757,2.228-8.464,7.216-8.5,7.265a1.1,1.1,0,0,1-1.664.126c-7.153-7.152-9.216-17.14-9.3-17.561a1.1,1.1,0,0,1,.419-1.1,39.1,39.1,0,0,0,6.78-6.78,1.106,1.106,0,0,1,1.38-.32,21.443,21.443,0,0,0,2.241.924A33.831,33.831,0,0,0,609.379,375a1.1,1.1,0,0,1,1.546,1.18,27.786,27.786,0,0,1-2.858,7.843,21.859,21.859,0,0,1-8.528,8.935h0a10.678,10.678,0,0,0-1.89,2.012c-1.555,2.07-3.574,5.865-4.357,12.184-.078.623-.146,1.265-.2,1.925l0,4.82h4.807c.04-3.755.306-15.895,2.072-20.308a1.1,1.1,0,1,1,2.042.816c-1.9,4.749-1.921,20.434-1.921,20.592A1.1,1.1,0,0,1,599,416.1Zm-23.768-32.661a36.916,36.916,0,0,0,7.694,14.889,29.13,29.13,0,0,1,6.915-6.074c-2.886-2.211-8.941-7.638-8.941-14.254a1.167,1.167,0,0,1,.008-.132A40.706,40.706,0,0,1,575.232,383.439Z"/><path class="d" d="M607,401.1a1.1,1.1,0,0,1-.984-.608c-1.1-2.192-3.571-4.454-5.454-5.964-1.22-.982-2.159-1.6-2.168-1.61a1.1,1.1,0,0,1,1.211-1.836c.042.027,1.029.68,2.335,1.731a26.959,26.959,0,0,1,5.3,5.428,35.479,35.479,0,0,0,7.189-10.655,25.02,25.02,0,0,0,1.373-4.222l-6.727-6.577a1.1,1.1,0,1,1,1.538-1.574l7.16,7a1.1,1.1,0,0,1,.31,1,26.813,26.813,0,0,1-1.626,5.225,36.973,36.973,0,0,1-8.728,12.389A1.1,1.1,0,0,1,607,401.1Z"/><path class="d" d="M592,408.1a1.1,1.1,0,0,1-1.093-.984,83.363,83.363,0,0,0-2.349-12.527,1.1,1.1,0,0,1,.359-1.173l2.31-1.88a1.1,1.1,0,0,1,.694-.246h3.41a1.1,1.1,0,0,1,1.016.677l.67,1.61a1.1,1.1,0,0,1-2.032.846l-.388-.934h-2.285l-1.44,1.173a87.437,87.437,0,0,1,2.223,12.222,1.1,1.1,0,0,1-.978,1.21A1.147,1.147,0,0,1,592,408.1Z"/><path class="d" d="M595.44,510.081H560.35a4.1,4.1,0,0,1-2.94-1.22,3.9,3.9,0,0,1-1.141-2.8l.993-75.754-4.09,2.808a3.555,3.555,0,0,1-4.341-.236l-16.043-13.724a3.1,3.1,0,0,1-.426-4.292l18.123-22.684a10.882,10.882,0,0,1,4.973-3.487l18.168-6.7a1.081,1.081,0,0,1,.748,2.028l-18.19,6.711a8.736,8.736,0,0,0-4.009,2.8L534.055,416.2a.933.933,0,0,0,.138,1.3l16.05,13.729a1.413,1.413,0,0,0,1.706.09l5.809-3.989a1.081,1.081,0,0,1,1.693.906l-1.02,77.84a1.751,1.751,0,0,0,.517,1.257,1.951,1.951,0,0,0,1.4.577h35.09a1.081,1.081,0,0,1,0,2.162Z"/><path class="d" d="M558.37,429.312a1.081,1.081,0,0,1-.988-1.521c6.068-13.652-2.5-37.471-2.588-37.71a1.082,1.082,0,0,1,2.032-.742c.368,1.009,8.956,24.877,2.532,39.331A1.082,1.082,0,0,1,558.37,429.312Z"/><path class="d" d="M630.86,510.081H595.77a1.081,1.081,0,1,1,0-2.162h35.09a1.953,1.953,0,0,0,1.4-.577,1.752,1.752,0,0,0,.517-1.258l-1.01-77.84a1.081,1.081,0,0,1,1.694-.9l5.8,3.989a1.43,1.43,0,0,0,1.713-.09l16.041-13.73a.934.934,0,0,0,.135-1.308l-18.117-22.677a8.718,8.718,0,0,0-3.988-2.792l-18.211-6.718a1.081,1.081,0,0,1,.748-2.028l18.19,6.709a10.867,10.867,0,0,1,4.951,3.48l18.12,22.68a3.1,3.1,0,0,1-.421,4.3l-16.041,13.73a3.574,3.574,0,0,1-4.344.23l-4.082-2.807.984,75.753a3.9,3.9,0,0,1-1.141,2.8A4.1,4.1,0,0,1,630.86,510.081Z"/><path class="d" d="M632.851,429.312a1.081,1.081,0,0,1-.988-.641c-4.089-9.174-2.165-22.148.169-31.415,1.17-4.681,2.3-7.789,2.353-7.919a1.081,1.081,0,0,1,2.03.746c-.012.03-1.146,3.138-2.286,7.7-1.843,7.32-4.33,20.947-.292,30.009a1.082,1.082,0,0,1-.986,1.522Z"/><path class="e" d="M651.5,423.5"/></g></g></svg>