<svg xmlns="http://www.w3.org/2000/svg" width="200" height="160" viewBox="0 0 200 160"><defs><style>.a,.e{fill:none;}.b{fill:#dde6ed;}.c{fill:#fff;}.d{fill:#38435d;}.e{stroke:#38435d;stroke-linecap:round;stroke-linejoin:round;stroke-width:2.2px;}</style></defs><g transform="translate(-365 -326)"><rect class="a" width="200" height="160" transform="translate(365 326)"/><g transform="translate(73.93 -37.541)"><path class="b" d="M456.68,414.27a3,3,0,0,1,.65,4.06l-4.55,6.66-.72-.49-25.37-23.02a84.447,84.447,0,0,1,1.22-9.43,4.325,4.325,0,0,1,.5.33Z"/><path class="c" d="M452.78,424.99l-7.62,11.18a2.989,2.989,0,0,1-3.36,1.18L430.92,434c-4.82-10.85-4.92-23.88-4.23-32.52l25.37,23.02Z"/><path class="b" d="M430.92,447.27v57.38a3.006,3.006,0,0,1-2.4,2.94,133.313,133.313,0,0,1-15.48,1.72l-.03-.5Z"/><path class="c" d="M383.77,410v22.89h8.99V411L394,401l-.25-.57a11.374,11.374,0,0,1,1.1-.43H395l15.98,2.71a1,1,0,0,0,1.25-.64l2.33-7,11.81,6.12.32.29c-.69,8.64-.59,21.67,4.23,32.52v13.27l-17.91,61.54.03.5c-5.96.4-13.36.69-22.04.69h-.08c-20.02,0-33.3-1.54-37.52-2.41a3.006,3.006,0,0,1-2.4-2.94V434c7.82-17.6,3.22-40.93,3.01-41.96a5.957,5.957,0,0,1,.58-.25l9.54-3.47a2.882,2.882,0,0,0,.79-.43l.08.11,4.69,14.07a1,1,0,0,0,1.25.64L386,398h4.31v4l.25.41A30.959,30.959,0,0,0,384,410Z"/><path class="b" d="M427.33,391.79a3.793,3.793,0,0,1,.58.26,84.447,84.447,0,0,0-1.22,9.43l-.32-.29-11.81-6.12,2.36-7.07.08-.11a2.976,2.976,0,0,0,.78.43Z"/><path class="b" d="M417,387.89l-.08.11-2.36,7.07-.82-.43-7.48-10.63V384a59.277,59.277,0,0,0,1.66-6l.55-1.13a2.929,2.929,0,0,1,1.07.91l6.84,9.47A2.9,2.9,0,0,0,417,387.89Z"/><path class="c" d="M414.56,395.07l-2.33,7a1,1,0,0,1-1.25.64L395,400c5.68-1.89,9.33-10.15,11.26-15.99l7.48,10.63Z"/><path class="c" d="M408.47,376.87l-.55,1.13a59.277,59.277,0,0,1-1.66,6v.01c-1.93,5.84-5.58,14.1-11.26,15.99h-.15a11.374,11.374,0,0,0-1.1.43,15.552,15.552,0,0,0-3.19,1.98l-.25-.41v-4H386c-9-3-12-20-12-20l-1.62-.22a3.008,3.008,0,0,1,2.43-1.24H407.1A3.074,3.074,0,0,1,408.47,376.87Z"/><path class="c" d="M393.75,400.43l.25.57-1.24,10v21.89h-8.99V410H384a30.959,30.959,0,0,1,6.56-7.59A15.552,15.552,0,0,1,393.75,400.43ZM390,412.5a1.5,1.5,0,1,0-1.5,1.5A1.5,1.5,0,0,0,390,412.5Zm0,12a1.5,1.5,0,1,0-1.5,1.5A1.5,1.5,0,0,0,390,424.5Z"/><circle class="d" cx="1.5" cy="1.5" r="1.5" transform="translate(387 411)"/><circle class="d" cx="1.5" cy="1.5" r="1.5" transform="translate(387 423)"/><path class="c" d="M386,398l-15.06,4.71a1,1,0,0,1-1.25-.64L365,388l-.08-.11a2.9,2.9,0,0,0,.62-.64l6.84-9.47L374,378S377,395,386,398Z"/><path class="c" d="M354.01,392.04c.21,1.03,4.81,24.36-3.01,41.96l-10.89,3.35a2.994,2.994,0,0,1-3.36-1.18l-12.16-17.84a3.005,3.005,0,0,1,.64-4.06l28.28-21.89C353.67,392.26,353.84,392.15,354.01,392.04Z"/><path class="e" d="M390.92,376.54H374.81a3.008,3.008,0,0,0-2.43,1.24l-6.84,9.47a2.968,2.968,0,0,1-1.41,1.07l-9.54,3.47a5.957,5.957,0,0,0-.58.25c-.17.11-.34.22-.5.34l-28.28,21.89a3.005,3.005,0,0,0-.64,4.06l12.16,17.84a2.994,2.994,0,0,0,3.36,1.18L351,434v70.65a3.006,3.006,0,0,0,2.4,2.94c4.22.87,17.5,2.41,37.52,2.41"/><path class="e" d="M354,392a.158.158,0,0,0,.01.04c.21,1.03,4.81,24.36-3.01,41.96"/><path class="e" d="M374,378s3,17,12,20l-15.06,4.71a1,1,0,0,1-1.25-.64L365,388"/><path class="e" d="M386,398h4.31v4"/><path class="e" d="M383.77,400v32.89h8.99V411L394,401"/><path class="e" d="M384,410a30.959,30.959,0,0,1,6.56-7.59,15.552,15.552,0,0,1,3.19-1.98,11.374,11.374,0,0,1,1.1-.43"/><path class="e" d="M390.92,376.54H407.1a3.074,3.074,0,0,1,1.37.33,2.929,2.929,0,0,1,1.07.91l6.84,9.47a2.9,2.9,0,0,0,.62.64,2.976,2.976,0,0,0,.78.43l9.55,3.47a3.793,3.793,0,0,1,.58.26,4.325,4.325,0,0,1,.5.33l28.27,21.89a3,3,0,0,1,.65,4.06l-4.55,6.66-7.62,11.18a2.989,2.989,0,0,1-3.36,1.18L430.92,434v70.65a3.006,3.006,0,0,1-2.4,2.94,133.313,133.313,0,0,1-15.48,1.72c-5.96.4-13.36.69-22.04.69h-.08"/><path class="e" d="M427.92,392a.175.175,0,0,1-.01.05,84.447,84.447,0,0,0-1.22,9.43c-.69,8.64-.59,21.67,4.23,32.52"/><path class="e" d="M406.26,384.01c-1.93,5.84-5.58,14.1-11.26,15.99l15.98,2.71a1,1,0,0,0,1.25-.64l2.33-7,2.36-7.07"/><path class="e" d="M407.92,378a59.277,59.277,0,0,1-1.66,6"/></g></g></svg>