<svg xmlns="http://www.w3.org/2000/svg" width="200" height="160" viewBox="0 0 200 160"><defs><style>.a,.d,.e,.f{fill:none;}.b{fill:#fff;}.c{fill:#dde6ed;}.d,.e,.f{stroke:#38435d;stroke-linecap:round;}.d,.e{stroke-linejoin:round;}.d{stroke-width:2.162px;}.e,.f{stroke-width:2.2px;}.f{stroke-miterlimit:10;}</style></defs><g transform="translate(-365 -326)"><rect class="a" width="200" height="160" transform="translate(365 326)"/><g transform="translate(336.418 -36.939)"><path class="b" d="M144.99,376.05a25.413,25.413,0,0,1-2.92,6.92c-2.35,3.89-6.41,7.98-13.03,8.1C116.34,390.86,113,376,113,376l.02-.04A34.507,34.507,0,0,0,144.99,376.05Z"/><path class="b" d="M113,376s3.34,14.86,16.04,15.07c6.62-.12,10.68-4.21,13.03-8.1l.31.19,3.89,1.52c-2.87,4.74-8.1,10.19-16.96,10.32H129c-15.75-.23-20-17.26-20-17.26l-2.87-.05c3.95-1.08,6.84-1.75,6.84-1.75.02.01.03.02.05.02Z"/><path class="b" d="M90.21,383.68s5.18,9.68,1.13,38.19l-1.86,2.48a1.834,1.834,0,0,1-2.64.3L71.57,411.74a2.816,2.816,0,0,1-.65-3.48c2.8-5.11,10.32-18.51,14.47-22.34a18.3,18.3,0,0,1,4.59-2.74Z"/><path class="b" d="M181,415l.72.85-10.41,8.8a1.834,1.834,0,0,1-2.64-.3l-1.87-2.48c-1.97-13.92-1.75-23.36-1-29.36Z"/><path class="b" d="M166.8,421.87l-4.33,28.42a26.86,26.86,0,0,0-.29,3.1v.02l-7.87,55.33V509H90.1a3.54,3.54,0,0,1-3.47-4.21l8.84-44.98a27.928,27.928,0,0,0,.2-9.52l-4.33-28.42c4.05-28.51-1.13-38.19-1.13-38.19l-.23-.5a117.174,117.174,0,0,1,16.15-5.49l2.87.05s4.25,17.03,20,17.26h.31c8.86-.13,14.09-5.58,16.96-10.32l19.36,7.58.17.25C165.05,398.51,164.83,407.95,166.8,421.87Z"/><path class="c" d="M162.68,459.81l8.83,44.98a3.53,3.53,0,0,1-3.47,4.21H154.31v-.26l7.87-55.33A26.989,26.989,0,0,0,162.68,459.81Z"/><path class="c" d="M187.22,408.26a2.8,2.8,0,0,1-.65,3.48l-4.85,4.11L181,415l-15.2-22.49c.78-6.3,2.13-8.83,2.13-8.83l.23-.5a18.3,18.3,0,0,1,4.59,2.74C176.9,389.75,184.42,403.15,187.22,408.26Z"/><path class="c" d="M145.17,375.94s14.65,3.41,22.99,7.24l-.23.5s-1.35,2.53-2.13,8.83l-.17-.25-19.36-7.58-3.89-1.52-.31-.19a25.413,25.413,0,0,0,2.92-6.92v-.01A1.847,1.847,0,0,0,145.17,375.94Z"/><line class="d" x1="0.18" y2="1.26" transform="translate(162.18 452.13)"/><path class="e" d="M112.97,375.94s-2.89.67-6.84,1.75a117.174,117.174,0,0,0-16.15,5.49,18.3,18.3,0,0,0-4.59,2.74c-4.15,3.83-11.67,17.23-14.47,22.34a2.816,2.816,0,0,0,.65,3.48l15.27,12.91a1.834,1.834,0,0,0,2.64-.3l1.86-2.48,4.33,28.42a27.928,27.928,0,0,1-.2,9.52l-8.84,44.98A3.54,3.54,0,0,0,90.1,509h38.84"/><path class="d" d="M90.21,383.68s5.18,9.68,1.13,38.19"/><path class="e" d="M144.99,376.05a34.507,34.507,0,0,1-31.97-.09c-.02,0-.03-.01-.05-.02"/><path class="e" d="M129.2,509h38.84a3.53,3.53,0,0,0,3.47-4.21l-8.83-44.98a26.989,26.989,0,0,1-.5-6.4v-.02a26.86,26.86,0,0,1,.29-3.1l4.33-28.42,1.87,2.48a1.834,1.834,0,0,0,2.64.3l10.41-8.8,4.85-4.11a2.8,2.8,0,0,0,.65-3.48c-2.8-5.11-10.32-18.51-14.47-22.34a18.3,18.3,0,0,0-4.59-2.74c-8.34-3.83-22.99-7.24-22.99-7.24a1.847,1.847,0,0,1-.18.1"/><path class="e" d="M167.93,383.68s-1.35,2.53-2.13,8.83c-.75,6-.97,15.44,1,29.36"/><path class="f" d="M113,376s3.34,14.86,16.04,15.07h.27"/><path class="f" d="M149.31,377.74a27.928,27.928,0,0,1-3.04,6.94c-2.87,4.74-8.1,10.19-16.96,10.32"/><path class="f" d="M109,377.74s4.25,17.03,20,17.26h.31"/><path class="f" d="M145,376a.158.158,0,0,1-.01.04v.01a25.413,25.413,0,0,1-2.92,6.92c-2.35,3.89-6.41,7.98-13.03,8.1h-.28"/></g></g></svg>