<svg xmlns="http://www.w3.org/2000/svg" width="200" height="160" viewBox="0 0 200 160"><defs><style>.a,.d{fill:none;}.b{fill:#dde6ed;}.c{fill:#fff;}.d{stroke:#38435d;stroke-linecap:round;stroke-linejoin:round;stroke-width:2.2px;}</style></defs><g transform="translate(-365 -326)"><rect class="a" width="200" height="160" transform="translate(365 326)"/><g transform="translate(245.168 -36)"><path class="b" d="M286.57,400.61a3,3,0,0,1,1.16,3.8l-3.67,8-23.14-17.77,1.91-7.64.45-.72Z"/><path class="c" d="M284.06,412.41l-5.18,11.3a3,3,0,0,1-3.49,1.65L258.83,421v-9.38a69.871,69.871,0,0,1,2.09-16.98Z"/><path class="b" d="M263.28,386.27v.01l-.45.72-1.91,7.64-19.6-8.55a25.956,25.956,0,0,0,2.51-8.09l.27-.59L262.83,386Z"/><path class="c" d="M241.32,386.09l19.6,8.55a69.871,69.871,0,0,0-2.09,16.98V421l.57,23.99-.4.01-17.04,62.33.05,1.48A194.331,194.331,0,0,1,220,510h-.17c-20.19-.01-32.54-2.63-37.83-4.07a3.994,3.994,0,0,1-2.93-3.95L181,421v-9.38a69.872,69.872,0,0,0-2.09-16.98L177,387l-.45-.72v-.01L177,386l18.73-8.59.27.59s1.99,20.54,23.83,20.65H220C232.48,398.59,238.48,391.85,241.32,386.09Z"/><path class="b" d="M260.76,501.98a3.994,3.994,0,0,1-2.93,3.95,108.361,108.361,0,0,1-15.82,2.88l-.05-1.48L259,445l.4-.01Z"/><path class="b" d="M244.1,377.41l-.27.59a25.956,25.956,0,0,1-2.51,8.09L236.53,384h-.01a22.481,22.481,0,0,0,2.31-8l.38-.83Z"/><path class="c" d="M236.53,384l4.79,2.09c-2.84,5.76-8.84,12.5-21.32,12.56h-.17C197.99,398.54,196,378,196,378l-.27-.59,4.89-2.24.38.83s.99,17.55,18.83,17.66H220c9.45-.06,14.17-5.01,16.52-9.66Z"/><path class="c" d="M239.21,375.17l-.38.83a22.481,22.481,0,0,1-2.31,8c-2.35,4.65-7.07,9.6-16.52,9.66h-.17C201.99,393.55,201,376,201,376l-.38-.83L201,375s18.67,8,37.83,0Z"/><path class="c" d="M181,411.62V421l-16.56,4.36a3.007,3.007,0,0,1-3.49-1.65l-8.84-19.3a2.985,2.985,0,0,1,1.15-3.8l23.29-14.33.45.72,1.91,7.64A69.872,69.872,0,0,1,181,411.62Z"/><path class="d" d="M219.83,510c-20.19-.01-32.54-2.63-37.83-4.07a3.994,3.994,0,0,1-2.93-3.95L181,421l-16.56,4.36a3.007,3.007,0,0,1-3.49-1.65l-8.84-19.3a2.985,2.985,0,0,1,1.15-3.8l23.29-14.33v-.01L177,386l18.73-8.59,4.89-2.24L201,375s18.67,8,37.83,0"/><path class="d" d="M201,376s.99,17.55,18.83,17.66"/><path class="d" d="M177,387l1.91,7.64A69.872,69.872,0,0,1,181,411.62V421"/><path class="d" d="M196,378s1.99,20.54,23.83,20.65"/><path class="d" d="M238.83,375l.38.17,4.89,2.24L262.83,386l.45.27v.01l23.29,14.33a3,3,0,0,1,1.16,3.8l-3.67,8-5.18,11.3a3,3,0,0,1-3.49,1.65L258.83,421l.57,23.99,1.36,56.99a3.994,3.994,0,0,1-2.93,3.95,108.361,108.361,0,0,1-15.82,2.88A194.331,194.331,0,0,1,220,510h-.17"/><path class="d" d="M238.83,376a22.481,22.481,0,0,1-2.31,8c-2.35,4.65-7.07,9.6-16.52,9.66h-.17"/><path class="d" d="M262.83,387l-1.91,7.64a69.871,69.871,0,0,0-2.09,16.98V421"/><path class="d" d="M243.83,378a25.956,25.956,0,0,1-2.51,8.09c-2.84,5.76-8.84,12.5-21.32,12.56h-.17"/></g></g></svg>