<svg xmlns="http://www.w3.org/2000/svg" width="200" height="160" viewBox="0 0 200 160"><defs><style>.a,.e{fill:none;}.b{fill:#fff;}.c{fill:#dde6ed;}.d{fill:#38435d;}.e{stroke:#38435d;stroke-linecap:round;stroke-linejoin:round;stroke-width:2.2px;}</style></defs><g transform="translate(-365 -326)"><rect class="a" width="200" height="160" transform="translate(365 326)"/><g transform="translate(-639.1 -37.304)"><path class="b" d="M1167.97,497.15a3.375,3.375,0,0,1-1.37,3.17c-3.14,2.23-11.36,6.72-28.45,8.44v-.01L1103,443l1.2-50.89c24-.88,48-4.11,48-4.11l4.7,7.83a10.7,10.7,0,0,1,1.5,4.69l3.8,49.48Z"/><path class="b" d="M1149.71,377.45c.49,1.57,1.32,4.68,2.49,10.55,0,0-24,3.23-48,4.11h-.2c-24-.88-48-4.11-48-4.11,1.17-5.87,2-8.98,2.49-10.55a1.614,1.614,0,0,1,1.94-1.1c19.74,4.64,43.57,4.5,43.57,4.5h.2s23.83.14,43.58-4.5A1.608,1.608,0,0,1,1149.71,377.45ZM1107,386.5a2.5,2.5,0,1,0-2.5,2.5A2.5,2.5,0,0,0,1107,386.5Z"/><path class="c" d="M1138.15,508.75v.01a165.534,165.534,0,0,1-24.91.42A3.428,3.428,0,0,1,1110,506l-2.68-40.22a25.9,25.9,0,0,0-.48-3.52l-2.52-12.63L1103,443Z"/><circle class="d" cx="2.5" cy="2.5" r="2.5" transform="translate(1102 384)"/><path class="b" d="M1103,443l1.32,6.63-.32.06-2.63,12.57a24.431,24.431,0,0,0-.49,3.52L1098.2,506a3.42,3.42,0,0,1-3.24,3.18c-34.64,1.79-48.97-5.73-53.36-8.86a3.375,3.375,0,0,1-1.37-3.17L1046,450l3.81-49.48a10.689,10.689,0,0,1,1.49-4.69L1056,388s24,3.23,48,4.11h.2Z"/><path class="e" d="M1104,380.85s-23.83.14-43.57-4.5a1.614,1.614,0,0,0-1.94,1.1c-.49,1.57-1.32,4.68-2.49,10.55,0,0,24,3.23,48,4.11"/><path class="e" d="M1056,388l-4.7,7.83a10.689,10.689,0,0,0-1.49,4.69L1046,450l-5.77,47.15a3.375,3.375,0,0,0,1.37,3.17c4.39,3.13,18.72,10.65,53.36,8.86a3.42,3.42,0,0,0,3.24-3.18l2.68-40.22a24.431,24.431,0,0,1,.49-3.52l2.63-12.57"/><path class="e" d="M1104.2,380.85s23.83.14,43.58-4.5a1.608,1.608,0,0,1,1.93,1.1c.49,1.57,1.32,4.68,2.49,10.55,0,0-24,3.23-48,4.11L1103,443l1.32,6.63,2.52,12.63a25.9,25.9,0,0,1,.48,3.52L1110,506a3.428,3.428,0,0,0,3.24,3.18,165.534,165.534,0,0,0,24.91-.42c17.09-1.72,25.31-6.21,28.45-8.44a3.375,3.375,0,0,0,1.37-3.17L1162.2,450l-3.8-49.48a10.7,10.7,0,0,0-1.5-4.69l-4.7-7.83"/></g></g></svg>