<svg xmlns="http://www.w3.org/2000/svg" width="200" height="160" viewBox="0 0 200 160"><defs><style>.a,.e{fill:none;}.b{fill:#fff;}.c{fill:#dde6ed;}.d{fill:#38435d;}.e{stroke:#38435d;stroke-linecap:round;stroke-linejoin:round;stroke-width:2.2px;}</style></defs><g transform="translate(-365 -326)"><rect class="a" width="200" height="160" transform="translate(365 326)"/><g transform="translate(-468.143 -36.949)"><path class="b" d="M1007.99,499.11a1.99,1.99,0,0,1-1.73,2.14l-38.06,5.06-.08-.61-5.11-10.74c27.91-3.08,42.13-6.96,42.13-6.96h.15a2,2,0,0,1,1.99,1.85Z"/><path class="b" d="M1000.74,432.57l4.4,55.43s-14.22,3.88-42.13,6.96l-28.78-60.49-.5-.06a20.334,20.334,0,0,0,.18-2.71c0-.16-.01-.32-.01-.48L933.14,395l31.29-2.84q1.71-.165,3.39-.48l11.99-2.27v2.7H983V393Z"/><path class="b" d="M1000.74,432.57,983,393v-.89h1.9v-3.66l7.63-1.44.03.15,6.09,30.4A128.389,128.389,0,0,1,1000.74,432.57Z"/><path class="b" d="M992.51,386.86c.01.05.01.1.02.15l-7.63,1.44v-12.5h3.12a3,3,0,0,1,2.88,2.14A45.886,45.886,0,0,1,992.51,386.86Z"/><path class="b" d="M984.9,388.45v3.66h-5.09v-2.7Z"/><path class="b" d="M984.9,376.86v11.59l-5.09.96V376.86Z"/><path class="b" d="M984.9,375.95v.91h-5.09v12.55l-11.99,2.27q-1.68.315-3.39.48L933.14,395H933l-9.02-.82L924,394l-5.71-5.72,6-5.28h20.55a31.3,31.3,0,0,0,8.44-1.16L974.14,376v-.05ZM932,389a3,3,0,1,0-3,3A3,3,0,0,0,932,389Z"/><path class="b" d="M974.14,375.95V376l-20.86,5.84a31.3,31.3,0,0,1-8.44,1.16H921.3a31.3,31.3,0,0,1-8.44-1.16L892,376v-.05h82.14Z"/><path class="c" d="M968.12,505.7l.08.61-25.92,3.44a2,2,0,0,1-2.23-1.61l-1.63-8.66a2,2,0,0,1,1.07-2.16l.65-.32c8.43-.59,16.06-1.29,22.87-2.04Z"/><path class="c" d="M934.23,434.47l28.78,60.49c-6.81.75-14.44,1.45-22.87,2.04l-7-33.69-1.74-18.52a8.967,8.967,0,0,1,.7-4.4,21.489,21.489,0,0,0,1.63-5.98Z"/><path class="b" d="M933.9,431.22c0,.16.01.32.01.48a20.334,20.334,0,0,1-.18,2.71,21.489,21.489,0,0,1-1.63,5.98,8.967,8.967,0,0,0-.7,4.4l1.74,18.52H933L926,497c-43-3-65-9-65-9l4.4-55.43,18.38-40.46h2.55v-2.7l11.99,2.27q1.68.315,3.39.48l22.27,2.02L933,395h.14Z"/><circle class="d" cx="3" cy="3" r="3" transform="translate(926 386)"/><path class="b" d="M926.65,497.32a2,2,0,0,1,1.07,2.16l-1.63,8.66a2.007,2.007,0,0,1-2.23,1.61l-63.98-8.5a1.99,1.99,0,0,1-1.73-2.14l.71-9.26a2,2,0,0,1,1.99-1.85H861s22,6,65,9Z"/><path class="b" d="M924.29,383l-6,5.28L924,394l-.02.18-22.27-2.02q-1.71-.165-3.39-.48l-11.99-2.27V375.95H892V376l20.86,5.84A31.3,31.3,0,0,0,921.3,383Z"/><path class="b" d="M886.33,389.41v2.7h-5.09v-3.66Z"/><path class="b" d="M886.33,376.86v12.55l-5.09-.96V376.86Z"/><path class="b" d="M886.33,375.95v.91h-5.09v11.59l-7.63-1.44c.01-.05.01-.1.02-.15a45.1,45.1,0,0,1,1.61-8.77,3,3,0,0,1,2.88-2.14Z"/><path class="b" d="M883.78,392.11,865.4,432.57a128.389,128.389,0,0,1,2.09-15.01l6.09-30.4.03-.15,7.63,1.44v3.66Z"/><path class="e" d="M933,375.95H878.12a3,3,0,0,0-2.88,2.14,45.1,45.1,0,0,0-1.61,8.77c-.01.05-.01.1-.02.15l-.03.15-6.09,30.4a128.389,128.389,0,0,0-2.09,15.01L861,488h-.15a2,2,0,0,0-1.99,1.85l-.71,9.26a1.99,1.99,0,0,0,1.73,2.14l63.98,8.5a2.007,2.007,0,0,0,2.23-1.61l1.63-8.66a2,2,0,0,0-1.07-2.16L926,497l7-33.69"/><path class="e" d="M861,488s22,6,65,9"/><path class="e" d="M886.33,389.41l11.99,2.27q1.68.315,3.39.48l22.27,2.02L933,395"/><line class="e" x2="7.63" y2="1.44" transform="translate(873.61 387.01)"/><path class="e" d="M892,376l20.86,5.84A31.3,31.3,0,0,0,921.3,383H933"/><path class="e" d="M924.29,383l-6,5.28L924,394"/><path class="e" d="M881.24,376.86v15.25h5.09V376.86"/><line class="e" y1="1.44" x2="7.63" transform="translate(984.9 387.01)"/><path class="e" d="M933.14,375.95h54.88a3,3,0,0,1,2.88,2.14,45.886,45.886,0,0,1,1.61,8.77c.01.05.01.1.02.15l.03.15,6.09,30.4a128.389,128.389,0,0,1,2.09,15.01l4.4,55.43h.15a2,2,0,0,1,1.99,1.85l.71,9.26a1.99,1.99,0,0,1-1.73,2.14l-38.06,5.06-25.92,3.44a2,2,0,0,1-2.23-1.61l-1.63-8.66a2,2,0,0,1,1.07-2.16l.65-.32-7-33.69-1.74-18.52a8.967,8.967,0,0,1,.7-4.4,21.489,21.489,0,0,0,1.63-5.98,20.334,20.334,0,0,0,.18-2.71c0-.16-.01-.32-.01-.48L933.14,395l31.29-2.84q1.71-.165,3.39-.48l11.99-2.27"/><path class="e" d="M1005.14,488s-14.22,3.88-42.13,6.96c-6.81.75-14.44,1.45-22.87,2.04"/><path class="e" d="M974.14,376l-20.86,5.84a31.3,31.3,0,0,1-8.44,1.16h-11.7"/><path class="e" d="M984.9,376.86v15.25h-5.09V376.86"/><line class="e" x1="18.38" y2="40.46" transform="translate(865.4 392.11)"/><line class="e" x2="17.74" y2="39.57" transform="translate(983 393)"/></g></g></svg>