<svg xmlns="http://www.w3.org/2000/svg" width="64" height="64" viewBox="0 0 64 64"><defs><style>.a{fill:#fff;stroke:#000;stroke-width:4px;}</style></defs><path class="a" d="M365.252,53.488c0,3.766-5.023,6.505-6.382,9.781-1.407,3.4.155,8.873-2.4,11.432s-8.038,1-11.432,2.405c-3.275,1.357-6.015,6.382-9.781,6.382s-6.507-5.025-9.782-6.382c-3.395-1.408-8.873.154-11.432-2.405s-.995-8.036-2.4-11.432c-1.357-3.276-6.383-6.016-6.383-9.781s5.026-6.506,6.383-9.782c1.409-3.4-.154-8.873,2.407-11.432s8.035-.995,11.43-2.4c3.275-1.358,6.015-6.383,9.782-6.383s6.506,5.025,9.781,6.383c3.395,1.408,8.873-.155,11.432,2.4s1,8.036,2.4,11.432C360.229,46.982,365.252,49.721,365.252,53.488Z" transform="translate(-303.252 -21.488)"/></svg>