<svg xmlns="http://www.w3.org/2000/svg" width="63.959" height="60.012" viewBox="0 0 63.959 60.012"><defs><style>.a{fill:#fff;stroke:#000;stroke-miterlimit:10;stroke-width:4px;}</style></defs><path class="a" d="M268.993,871.543c0,4.288-.1,8.578.036,12.862.094,2.843-1.238,4.012-4.618,3.957-17.677-.284-14.2,2.01-14.542-11.675-.133-5.4.107-10.8-.1-16.2-.25-6.584-4.5-10.639-10.763-10.627s-10.5,4.089-10.649,10.687c-.173,7.779-.148,15.564-.006,23.344.059,3.228-1.281,4.565-5.224,4.485-16.754-.34-13.724,1.995-13.973-11.682-.11-6.031-.235-12.086.231-18.1,1.01-13,11.934-24.009,25.252-25.9a30.042,30.042,0,0,1,29.883,13.743C269.637,854.394,269.081,862.975,268.993,871.543Z" transform="translate(-207.079 -830.371)"/></svg>