<svg xmlns="http://www.w3.org/2000/svg" width="64.002" height="64.002" viewBox="0 0 64.002 64.002"><defs><style>.a{fill:#fff;stroke:#000;stroke-width:4px;}</style></defs><path class="a" d="M367.237,269.264l-1.041-.978.977-1.038a8.752,8.752,0,0,0-.388-12.371l-14.265-13.395a8.75,8.75,0,0,0-12.37.389l-.976,1.038-1.04-.977a8.755,8.755,0,0,0-12.371.389l-13.4,14.265a8.753,8.753,0,0,0,.389,12.369l1.04.977-.976,1.038a8.751,8.751,0,0,0,.387,12.371l14.265,13.4a8.751,8.751,0,0,0,12.371-.389l.975-1.04,1.041.977a8.752,8.752,0,0,0,12.369-.388l13.394-14.263A8.75,8.75,0,0,0,367.237,269.264Z" transform="translate(-307.996 -237.109)"/></svg>