<svg xmlns="http://www.w3.org/2000/svg" width="65" height="65" viewBox="0 0 65 65"><defs><style>.a{fill:#f2f2f2;opacity:0;}.b,.c{fill:none;stroke-linecap:round;stroke-miterlimit:10;stroke-width:3px;}.b{stroke:#313a5f;}.c{stroke:#ffbea3;}</style></defs><g transform="translate(-138 -471)"><rect class="a" width="65" height="65" transform="translate(138 471)"/><g transform="translate(0 0)"><path class="b" d="M680.856,508.033a2.029,2.029,0,0,0,1.319-.608l.631-.648L700.314,488.8a2.95,2.95,0,0,0-.055-4.172l-3.143-3.062a2.95,2.95,0,0,0-4.172.054l-16.421,16.858-1.636,1.679a2.335,2.335,0,0,0-.66,1.536l-.193,4.9a1.706,1.706,0,0,0,1.817,1.77Z" transform="translate(-508.388 13.523)"/><line class="b" x2="6.961" y2="6.781" transform="translate(181.238 499.347)"/><path class="c" d="M669.108,508.542c-7.156.6-12.061-5.887-10.393-12.666,1.185-4.814,4.861-7.144,9.056-9.231,4.405-2.191,9.687-5.727,7.929-11.488a6.715,6.715,0,0,0-7.9-4.52" transform="translate(-510.388 13.523)"/></g></g></svg>