<svg xmlns="http://www.w3.org/2000/svg" width="65" height="65" viewBox="0 0 65 65"><defs><style>.a{fill:#f2f2f2;opacity:0;}.b,.d{fill:none;}.c{fill:#ffbea3;stroke:#ffbea3;stroke-miterlimit:10;stroke-width:1.2px;}.d{stroke:#313a5f;stroke-linecap:round;stroke-linejoin:round;stroke-width:3px;}</style></defs><g transform="translate(-379 -688)"><g transform="translate(246 447)"><rect class="a" width="65" height="65" transform="translate(133 241)"/></g><g transform="translate(-765 232)"><path class="b" d="M1167.671,480h19.356v19.357h-19.356Z"/><path class="c" d="M1180.978,482.42a4.558,4.558,0,0,1,4.436,4.839c0,5.645-6.049,8.872-8.065,10.081-2.016-1.209-8.065-4.436-8.065-10.081a4.577,4.577,0,0,1,4.3-4.834l.131,0a4.889,4.889,0,0,0,7.258,0ZM1178.1,495a21.671,21.671,0,0,0,1.952-1.371c2.4-1.909,3.747-4,3.747-6.371a2.956,2.956,0,0,0-2.823-3.226,3.716,3.716,0,0,0-2.489,1.14l-1.14,1.14-1.141-1.14a3.712,3.712,0,0,0-2.488-1.14,2.974,2.974,0,0,0-2.823,3.226c0,2.374,1.343,4.462,3.746,6.371A21.35,21.35,0,0,0,1176.6,495c.242.153.484.3.753.462.273-.162.512-.309.753-.461Z"/><path class="d" d="M1181,507.578A19,19,0,1,1,1196,489,23.071,23.071,0,0,1,1181,507.578Z"/><path class="d" d="M1181.111,506.35C1178,498,1184,488,1194.65,489.111"/></g></g></svg>