<svg xmlns="http://www.w3.org/2000/svg" width="100" height="12" viewBox="0 0 100 12"><path d="M786.674,322.754c-2.45.747-4.991,1.552-7.45,2.519q-1.02.144-2.047.239a74.325,74.325,0,0,1-9.337.251,162.877,162.877,0,0,1-20.514-2.435c-13.317-2.151-26.513-3.746-39.808-.583a65.889,65.889,0,0,0-13.441,4.91c-.377.185-2.726,1.168-2.533,1.676s3.03-.357,3.034-.358c6.829-1.625,14.4-1.08,21.31-.355,7.918.83,15.72,2.446,23.613,3.454a87.821,87.821,0,0,0,22.228.329,72.282,72.282,0,0,0,13.432-3.18,80.482,80.482,0,0,0,15.408-6.439C794.008,320.784,787.181,322.6,786.674,322.754Z" transform="translate(-691.533 -320.964)"/></svg>