<svg xmlns="http://www.w3.org/2000/svg" width="65" height="65" viewBox="0 0 65 65"><defs><style>.a{fill:#f2f2f2;opacity:0;}.b,.c{fill:none;stroke-linecap:round;stroke-linejoin:round;stroke-width:3px;}.b{stroke:#ffbea3;}.c{stroke:#313a5f;}</style></defs><g transform="translate(-385 -463)"><g transform="translate(252 222)"><rect class="a" width="65" height="65" transform="translate(133 241)"/></g><g transform="translate(0 -1.662)"><path class="b" d="M1079.178,488h6.81a2.012,2.012,0,0,1,2.012,2.012v16.976a2.012,2.012,0,0,1-2.012,2.012h-21.976a2.012,2.012,0,0,1-2.012-2.012V501.3" transform="translate(-653 10)"/><path class="c" d="M1072.482,480h4.506a2.012,2.012,0,0,1,2.012,2.012v16.976a2.012,2.012,0,0,1-2.012,2.012h-21.976a2.012,2.012,0,0,1-2.012-2.012V482.012a2.012,2.012,0,0,1,2.012-2.012h4.913" transform="translate(-653 10)"/><g transform="translate(388.006 451.998)"><line class="c" y2="19.665" transform="translate(25.042 22.663)"/><path class="c" d="M24.48,19.74,16.74,12,9,19.74" transform="translate(8.302 10.663)"/></g></g></g></svg>