<svg xmlns="http://www.w3.org/2000/svg" xmlns:xlink="http://www.w3.org/1999/xlink" width="42" height="43" viewBox="0 0 42 43"><defs><style>.a{fill:#fff;stroke:#e1e3e8;stroke-miterlimit:10;}.b{fill:none;}.c{fill:#ff6740;}.d{stroke:none;}.e{filter:url(#a);}</style><filter id="a" x="0" y="0" width="42" height="43" filterUnits="userSpaceOnUse"><feOffset dy="1" input="SourceAlpha"/><feGaussianBlur result="b"/><feFlood flood-color="#e1e3e8"/><feComposite operator="in" in2="b"/><feComposite in="SourceGraphic"/></filter></defs><g transform="translate(1 1)"><g class="e" transform="matrix(1, 0, 0, 1, -1, -1)"><g class="a" transform="translate(1 1)"><rect class="d" width="40" height="40" rx="8"/><rect class="b" x="-0.5" y="-0.5" width="41" height="41" rx="8.5"/></g></g><g transform="translate(9 9)"><path class="b" d="M0,0H22V22H0Z"/><path class="c" d="M3.69,5.976.757,3.039l1.28-1.282L4.968,4.695H18.752a.906.906,0,0,1,.866,1.166l-2.17,7.247a.9.9,0,0,1-.866.646H5.5v1.812h9.947v1.812H4.594a.905.905,0,0,1-.9-.906ZM5.5,6.506v5.435h10.41l1.628-5.435ZM5.046,21A1.359,1.359,0,1,1,6.4,19.641,1.358,1.358,0,0,1,5.046,21ZM15.9,21a1.359,1.359,0,1,1,1.356-1.359A1.358,1.358,0,0,1,15.9,21Z" transform="translate(0 0)"/></g></g></svg>