<svg xmlns="http://www.w3.org/2000/svg" xmlns:xlink="http://www.w3.org/1999/xlink" width="38.883" height="35.178" viewBox="0 0 38.883 35.178"><defs><style>.a{fill:url(#a);}</style><linearGradient id="a" x1="0.087" x2="0.911" y2="1.131" gradientUnits="objectBoundingBox"><stop offset="0" stop-color="#ffc45e"/><stop offset="1" stop-color="#ff6740"/></linearGradient></defs><path class="a" d="M15.609,3A5.832,5.832,0,1,0,27.274,3H38.939a1.949,1.949,0,0,1,1.944,1.954v13.68a1.949,1.949,0,0,1-1.944,1.954h-3.89l0,15.635a1.949,1.949,0,0,1-1.944,1.954H9.777a1.949,1.949,0,0,1-1.944-1.954l0-15.637-3.886,0A1.949,1.949,0,0,1,2,18.635V4.954A1.949,1.949,0,0,1,3.944,3ZM36.995,6.907H30.351l-.033.08a9.725,9.725,0,0,1-8.457,5.775l-.42.01a9.721,9.721,0,0,1-8.877-5.786l-.035-.077H5.888V16.68l5.83,0V34.27H31.162l0-17.589,5.834,0V6.907Z" transform="translate(-2 -3)"/></svg>