<svg xmlns="http://www.w3.org/2000/svg" xmlns:xlink="http://www.w3.org/1999/xlink" width="42" height="35" viewBox="0 0 42 35"><defs><style>.a{fill:#fff;stroke:#e1e3e8;stroke-miterlimit:10;}.b{fill:none;}.c{fill:#4f617d;}.d{stroke:none;}.e{filter:url(#a);}</style><filter id="a" x="0" y="0" width="42" height="35" filterUnits="userSpaceOnUse"><feOffset dy="1" input="SourceAlpha"/><feGaussianBlur result="b"/><feFlood flood-color="#e1e3e8"/><feComposite operator="in" in2="b"/><feComposite in="SourceGraphic"/></filter></defs><g transform="translate(-312.525 -843.62)"><g class="e" transform="matrix(1, 0, 0, 1, 312.53, 843.62)"><g class="a" transform="translate(1 1)"><rect class="d" width="40" height="32" rx="8"/><rect class="b" x="-0.5" y="-0.5" width="41" height="33" rx="8.5"/></g></g><g transform="translate(326.525 853.62)"><path class="b" d="M0,0H15V15H0Z"/><path class="c" d="M11.374,4.5H14.5v1.25h-1.25v8.124a.625.625,0,0,1-.625.625H3.875a.625.625,0,0,1-.625-.625V5.749H2V4.5H5.125V2.625A.625.625,0,0,1,5.749,2h5a.625.625,0,0,1,.625.625ZM12,5.749H4.5v7.5H12ZM6.374,7.624h1.25v3.749H6.374Zm2.5,0h1.25v3.749H8.874ZM6.374,3.25V4.5h3.749V3.25Z" transform="translate(-0.749 -0.749)"/></g></g></svg>