<svg xmlns="http://www.w3.org/2000/svg" width="200" height="140" viewBox="0 0 200 140"><defs><style>.a{fill:none;}.b{fill:#fff;}.c{fill:#000d41;}.d{fill:#ffbea3;}.e{fill:#e2e5ec;isolation:isolate;}.f{fill:#ff6740;}.g{fill:#e7e7e7;}</style></defs><g transform="translate(-860 -1180)"><rect class="a" width="200" height="140" transform="translate(860 1180)"/><g transform="translate(435.628 783.845)"><rect class="b" width="37.617" height="61.996" rx="6.361" transform="translate(567.426 416.07) rotate(16.789)"/><path class="c" d="M581.29,485.526a7.166,7.166,0,0,1-2.078-.308l-23.835-7.191a7.159,7.159,0,0,1-4.787-8.923l14.232-47.175a7.163,7.163,0,0,1,8.924-4.787l23.835,7.191a7.161,7.161,0,0,1,4.788,8.924l-14.233,47.175a7.17,7.17,0,0,1-6.846,5.094Zm-9.619-67.092a5.568,5.568,0,0,0-5.317,3.958l-14.232,47.174a5.56,5.56,0,0,0,3.717,6.93l23.835,7.191a5.562,5.562,0,0,0,6.93-3.718l14.232-47.175a5.566,5.566,0,0,0-3.717-6.93l-23.835-7.191A5.588,5.588,0,0,0,571.671,418.434Z"/><path class="d" d="M578.656,444.978l-4.253.939a.753.753,0,0,1-.827-1.088l2.047-3.845a.754.754,0,0,0-.015-.735l-2.208-3.755a.752.752,0,0,1,.779-1.122l4.29.758a.754.754,0,0,0,.694-.242l2.889-3.26a.752.752,0,0,1,1.308.4l.605,4.314a.75.75,0,0,0,.444.585l3.994,1.741a.752.752,0,0,1,.028,1.366l-3.916,1.907a.754.754,0,0,0-.419.6l-.422,4.335a.752.752,0,0,1-1.29.45l-3.024-3.135A.755.755,0,0,0,578.656,444.978Z" transform="translate(-0.144 -0.883)"/><path class="b" d="M594.669,460.686l-2.793-12.618a1.3,1.3,0,0,1,1.934-1.387l11.217,6.779a1.3,1.3,0,0,1-.39,2.372l-4.428.98a1.3,1.3,0,0,0-.812.568l-2.373,3.722A1.294,1.294,0,0,1,594.669,460.686Z"/><path class="c" d="M595.936,462.5a2.187,2.187,0,0,1-.368-.032,2.09,2.09,0,0,1-1.68-1.611l-2.793-12.617A2.095,2.095,0,0,1,594.224,446l11.217,6.78a2.094,2.094,0,0,1-.632,3.837l-4.427.981a.486.486,0,0,0-.311.217l-2.372,3.72A2.086,2.086,0,0,1,595.936,462.5Zm-2.795-15.211a.51.51,0,0,0-.289.1.477.477,0,0,0-.194.509l2.792,12.617h0a.495.495,0,0,0,.9.159l2.372-3.722a2.086,2.086,0,0,1,1.314-.919l4.428-.98a.494.494,0,0,0,.149-.9L593.4,447.365A.488.488,0,0,0,593.141,447.29Z"/><path class="a" d="M565.3,451.8l19.066,5.752-5.752,19.066-19.066-5.752Z"/><path class="e" d="M577.689,458.133a4.689,4.689,0,0,1,2.931,6.084c-1.678,5.561-8.595,6.941-10.94,7.534-1.627-1.791-6.626-6.766-4.948-12.327a4.709,4.709,0,0,1,5.677-3.482l.13.034a5.49,5.49,0,0,1,3.1,2.667A5.491,5.491,0,0,1,577.689,458.133Z" transform="translate(-0.144 -0.883)"/><rect class="b" width="78.706" height="93.556" rx="8.124" transform="translate(478.548 403.955)"/><path class="c" d="M549.129,498.311H486.672a8.934,8.934,0,0,1-8.924-8.924V412.079a8.934,8.934,0,0,1,8.924-8.924h62.457a8.934,8.934,0,0,1,8.924,8.924v77.308A8.934,8.934,0,0,1,549.129,498.311Zm-62.457-93.556a7.332,7.332,0,0,0-7.324,7.324v77.308a7.332,7.332,0,0,0,7.324,7.324h62.457a7.334,7.334,0,0,0,7.325-7.324V412.079a7.334,7.334,0,0,0-7.325-7.324Z"/><path class="f" d="M544.592,443.716l-5.573-15.852a2.681,2.681,0,0,0-1.206-1.449l-11.349-6.429a2.608,2.608,0,0,0-1.323-.351H508.619a2.673,2.673,0,0,0-1.333.351l-11.339,6.429a2.681,2.681,0,0,0-1.206,1.449l-5.573,15.852a2.681,2.681,0,0,0,.2,2.217,2.63,2.63,0,0,0,1.8,1.3l7.78,1.556v25.043a2.648,2.648,0,0,0,2.645,2.645h30.566a2.648,2.648,0,0,0,2.645-2.645V448.792l7.771-1.556a2.628,2.628,0,0,0,1.809-1.3A2.678,2.678,0,0,0,544.592,443.716Zm-35.973-22.524h16.523a1.346,1.346,0,0,1,.438.088,8.761,8.761,0,0,1-17.5.049A1.151,1.151,0,0,1,508.619,421.192Z" transform="translate(1.926 1.965)"/><path class="b" d="M516.716,455.012l-3.616,2.025a.716.716,0,0,1-1.052-.764l.808-4.065a.715.715,0,0,0-.216-.665l-3.043-2.814a.715.715,0,0,1,.4-1.236l4.116-.488a.717.717,0,0,0,.565-.411l1.736-3.764a.715.715,0,0,1,1.3,0l1.736,3.764a.718.718,0,0,0,.566.411l4.115.488a.715.715,0,0,1,.4,1.236l-3.043,2.814a.715.715,0,0,0-.216.665l.807,4.065a.716.716,0,0,1-1.051.764l-3.617-2.025A.714.714,0,0,0,516.716,455.012Z" transform="translate(1.741 -1.216)"/><path class="b" d="M3.023,0H15.99a3.033,3.033,0,0,1,3.033,3.033V41.828A8.126,8.126,0,0,1,10.9,49.954H8.126A8.126,8.126,0,0,1,0,41.828V3.023A3.023,3.023,0,0,1,3.023,0Z" transform="translate(496.228 478.401) rotate(90)"/><path class="c" d="M493.194,498.224H454.4a8.936,8.936,0,0,1-8.926-8.926v-2.771A8.935,8.935,0,0,1,454.4,477.6h38.8a3.827,3.827,0,0,1,3.823,3.822v12.967A3.837,3.837,0,0,1,493.194,498.224ZM454.4,479.2a7.334,7.334,0,0,0-7.326,7.326V489.3a7.334,7.334,0,0,0,7.326,7.326h38.794a2.236,2.236,0,0,0,2.234-2.233V481.424A2.226,2.226,0,0,0,493.2,479.2Z"/><path class="b" d="M3.02,0H15.993a3.03,3.03,0,0,1,3.03,3.03v38.8A8.123,8.123,0,0,1,10.9,49.954H8.123A8.123,8.123,0,0,1,0,41.831V3.02A3.02,3.02,0,0,1,3.02,0Z" transform="translate(476.878 452.392) rotate(45.298)"/><path class="c" d="M454.815,498.487h-.048a8.862,8.862,0,0,1-6.3-2.647l-1.953-1.974a8.922,8.922,0,0,1,.065-12.618l27.585-27.3a3.614,3.614,0,0,1,2.707-1.105,3.791,3.791,0,0,1,2.7,1.134L488.7,463.2a3.835,3.835,0,0,1-.028,5.417l-27.579,27.293A8.862,8.862,0,0,1,454.815,498.487Zm22.04-44.045a2.208,2.208,0,0,0-1.561.643l-27.586,27.3a7.325,7.325,0,0,0-.054,10.356l1.954,1.974a7.276,7.276,0,0,0,5.167,2.172h.039a7.275,7.275,0,0,0,5.15-2.117l27.578-27.293a2.234,2.234,0,0,0,.017-3.156l-9.125-9.219a2.206,2.206,0,0,0-1.567-.66Z"/><rect class="d" width="9.635" height="9.261" rx="0.99" transform="matrix(0.703, 0.711, -0.711, 0.703, 476.683, 459.189)"/><path class="b" d="M3.094,0H15.919a3.1,3.1,0,0,1,3.1,3.1V38a8.2,8.2,0,0,1-8.2,8.2H8.2A8.2,8.2,0,0,1,0,38V3.094A3.094,3.094,0,0,1,3.094,0Z" transform="translate(444.152 451.239)"/><path class="c" d="M454.979,498.237h-2.63a9.006,9.006,0,0,1-9-9V454.333a3.9,3.9,0,0,1,3.893-3.9h12.825a3.908,3.908,0,0,1,3.9,3.9v34.9A9.007,9.007,0,0,1,454.979,498.237Zm-7.733-46.2a2.3,2.3,0,0,0-2.294,2.3V489.24a7.407,7.407,0,0,0,7.4,7.4h2.63a7.406,7.406,0,0,0,7.4-7.4v-34.9a2.307,2.307,0,0,0-2.3-2.3Z"/><circle class="f" cx="3.397" cy="3.397" r="3.397" transform="translate(450.267 484.529)"/><ellipse class="g" cx="75.5" cy="5.5" rx="75.5" ry="5.5" transform="translate(449.402 518.331)"/></g></g></svg>