<svg xmlns="http://www.w3.org/2000/svg" width="14.4" height="14.2" viewBox="0 0 14.4 14.2"><defs><style>.a,.b{fill:#4f617d;}.a{stroke:#fff;stroke-width:0.4px;}</style></defs><g transform="translate(341.225 867.62) rotate(180)"><path class="a" d="M0,0H14V2H0Z" transform="translate(341.025 855.62) rotate(180)"/><path class="b" d="M9.445,2.892,6.344.065a.259.259,0,0,0-.283-.04.234.234,0,0,0-.154.234V2.068H.258A.249.249,0,0,0,0,2.327V3.877a.249.249,0,0,0,.258.258H5.907V5.945a.244.244,0,0,0,.154.234.252.252,0,0,0,.283-.048l3.1-2.859a.264.264,0,0,0,.081-.194A.255.255,0,0,0,9.445,2.892Z" transform="translate(330.855 867.62) rotate(-90)"/></g></svg>