<svg xmlns="http://www.w3.org/2000/svg" width="200" height="140" viewBox="0 0 200 140"><defs><style>.a,.h{fill:none;}.b{fill:#e7e7e7;}.c{fill:#fff;stroke:#000d41;}.c,.g{stroke-miterlimit:10;stroke-width:1.6px;}.d{fill:#17bcb5;}.e{fill:#d3d6dd;}.f{fill:#ff6740;}.g{fill:#ffbea3;}.g,.h{stroke:#fff;}.h{stroke-linecap:round;stroke-linejoin:round;stroke-width:1.252px;}.i{stroke:none;}</style></defs><g transform="translate(-420 -1180)"><rect class="a" width="200" height="140" transform="translate(420 1180)"/><g transform="translate(-198.97 1008.15)"><ellipse class="b" cx="78.501" cy="5.719" rx="78.501" ry="5.719" transform="translate(640.45 292.894)"/><rect class="c" width="53.776" height="63.922" rx="6.863" transform="translate(692.917 251.067) rotate(163.211)"/><path class="d" d="M673.261,220.93a1.906,1.906,0,0,0-.32-1.57l-5.88-8.05a1.889,1.889,0,0,0-1.13-.74l-7.55-1.72a1.919,1.919,0,0,0-.98.04l-4.66,1.4c-.01.01-.02.02-.03.02h-.04l-4.66,1.41a1.986,1.986,0,0,0-.84.52l-5.34,5.6a1.915,1.915,0,0,0-.53,1.24l-.45,9.96a1.983,1.983,0,0,0,.6,1.49,1.946,1.946,0,0,0,1.33.53c.06,0,.12-.01.19-.01l4.4-.42,4.22,13.95a1.852,1.852,0,0,0,.92,1.13,1.912,1.912,0,0,0,.9.23,2.09,2.09,0,0,0,.55-.08l8.65-2.61c.01,0,.02-.01.03-.01a.037.037,0,0,1,.03-.01l8.65-2.61a1.907,1.907,0,0,0,1.28-2.37l-4.21-13.96,3.9-2.09A1.9,1.9,0,0,0,673.261,220.93Zm-20.13-9.08c.02-.01.02-.02.03-.02h.04l4.61-1.39a4.839,4.839,0,0,1-9.22,2.78Z"/><rect class="c" width="53.776" height="63.922" rx="6.614" transform="translate(763.388 189.87) rotate(16.789)"/><rect class="c" width="78.825" height="93.698" rx="8.229" transform="translate(678.882 179.25)"/><path class="e" d="M796.181,219.89a1.85,1.85,0,0,0-.56-1.2l-5.37-5.33a2.037,2.037,0,0,0-.83-.48l-4.62-1.4h-.04c-.01-.01-.02-.02-.03-.02l-4.63-1.4a2.078,2.078,0,0,0-.96-.05l-7.42,1.47a1.839,1.839,0,0,0-1.12.69l-5.67,7.41a1.778,1.778,0,0,0-.32,1.48,1.906,1.906,0,0,0,1,1.27l3.94,2.04-4.48,14.87a1.891,1.891,0,0,0,1.26,2.37l8.59,2.59,8.59,2.59a1.745,1.745,0,0,0,.55.08,1.911,1.911,0,0,0,1.82-1.35l4.49-14.88,4.34.47a1.8,1.8,0,0,0,.22.02,1.885,1.885,0,0,0,1.32-.53,1.75,1.75,0,0,0,.55-1.41Zm-16.12-8.17,4.21,1.27h.03c.01.01.02.02.03.02l4.15,1.25a3.188,3.188,0,0,1-1.68,1.47,5.388,5.388,0,0,1-6.16-1.86A3.179,3.179,0,0,1,780.061,211.72Z"/><path class="f" d="M747.166,220.655l-5.706-16.231a2.751,2.751,0,0,0-1.235-1.484l-11.62-6.582a2.673,2.673,0,0,0-1.354-.358H710.333a2.737,2.737,0,0,0-1.364.358l-11.611,6.582a2.755,2.755,0,0,0-1.235,1.484l-5.7,16.231a2.746,2.746,0,0,0,.209,2.27,2.692,2.692,0,0,0,1.842,1.334l7.966,1.594v25.64a2.712,2.712,0,0,0,2.708,2.709h31.3a2.711,2.711,0,0,0,2.708-2.709v-25.64l7.957-1.594a2.693,2.693,0,0,0,1.852-1.334A2.746,2.746,0,0,0,747.166,220.655Zm-36.833-23.062h16.918a1.38,1.38,0,0,1,.448.09,8.971,8.971,0,0,1-17.924.05A1.187,1.187,0,0,1,710.333,197.593Z"/><g class="g" transform="translate(709.181 263)"><circle class="i" cx="9" cy="9" r="9"/><circle class="a" cx="9" cy="9" r="9.8"/></g><path class="h" d="M713.876,272.391l2.348,2.348,6.261-5.478"/></g></g></svg>