<svg xmlns="http://www.w3.org/2000/svg" width="159" height="48" viewBox="0 0 159 48"><defs><style>.a{fill:#fff;stroke:#cfd3de;}.b,.c{fill:#000d41;}.b{font-size:16px;font-family:Montserrat-Bold, Montserrat;font-weight:700;letter-spacing:0.002em;}.d{stroke:none;}.e{fill:none;}</style></defs><g class="a"><rect class="d" width="159" height="48" rx="24"/><rect class="e" x="0.5" y="0.5" width="158" height="47" rx="23.5"/></g><g transform="translate(5)"><text class="b" transform="translate(90 30)"><tspan x="-34.104" y="0">Wishlist</tspan></text><path class="c" d="M12,4.529a6,6,0,0,1,8.478,8.464L12,21.485,3.521,12.993A6,6,0,0,1,12,4.529ZM18.827,6.17a4,4,0,0,0-5.49-.153L12,7.215l-1.336-1.2A4,4,0,0,0,4.98,11.623L12,18.654l7.02-7.03a4,4,0,0,0-.193-5.454Z" transform="translate(22 12.515)"/></g></svg>