<svg xmlns="http://www.w3.org/2000/svg" width="80" height="115" viewBox="0 0 80 115"><defs><style>.a{fill:#fff;}.b{fill:none;}.b,.c,.d,.e,.f{stroke:#192935;stroke-linecap:round;stroke-linejoin:round;stroke-width:2.236px;}.c{fill:#58bebc;}.d{fill:#fcc255;}.e{fill:#32b0e2;}.f{fill:#ec6476;}.g{fill:#ecceae;}.g,.h{mix-blend-mode:multiply;isolation:isolate;}.h{fill:#c1d9e4;}</style></defs><g transform="translate(-1413.271 -736.3)"><path class="a" d="M1477.5,818.487a7.337,7.337,0,0,0,.116-3.449,7.71,7.71,0,0,0-3.177-4.42q-.444-.323-.917-.638a4.734,4.734,0,0,0,.2-.879,12.741,12.741,0,0,0,7.254-4.816,4.726,4.726,0,0,0,.527-4.65,11.187,11.187,0,0,0,3.855-2.015,13.544,13.544,0,0,0,3.208-4.118,4.745,4.745,0,0,0-.269-5.073,5.5,5.5,0,0,0-1.8-1.615,11.687,11.687,0,0,0,6.648-7.772,4.832,4.832,0,0,0-1.449-4.623,6.2,6.2,0,0,0-5.032-1.577,2.039,2.039,0,0,1-.6-.012c-.189-.032-.5-.112-.818-.191l-.2-.052a12.554,12.554,0,0,0,.815-2.781,13.758,13.758,0,0,0-.719-7.057,12.41,12.41,0,0,0-1.929-3.457c-.066-.083-.15-.184-.248-.3a4.853,4.853,0,0,0-.4-.908,5.688,5.688,0,0,0-3.354-2.565,6.355,6.355,0,0,0-4.405.3,5.353,5.353,0,0,0-2.884,3.009h0a10.98,10.98,0,0,1-1.35,2.175c-.246.343-.5.7-.762,1.082a5.581,5.581,0,0,0-2.593-2.181,41.948,41.948,0,0,0-4.852-1.779,16.774,16.774,0,0,0,3.21-1.866,11.753,11.753,0,0,0,4.319-6,21.926,21.926,0,0,0,.8-4.032,11.694,11.694,0,0,1,.593-2.877,5.039,5.039,0,0,0-3.3-6.706,6.35,6.35,0,0,0-5.456.618c-.219.044-.409.085-.551.12a16.31,16.31,0,0,0-4.207,1.687,17.449,17.449,0,0,0-5.97,5.429,13.9,13.9,0,0,0-1.651,3.428c-.32-.135-.619-.25-.894-.358-.339-.132-.689-.268-.906-.375a2.663,2.663,0,0,1-.688-.479,6.173,6.173,0,0,0-5.039-1.651,5.811,5.811,0,0,0-4.374,2.751,11.013,11.013,0,0,0-.247,10.662q.225.431.487.843a6.438,6.438,0,0,0-3.832-.052,5.466,5.466,0,0,0-3.8,3.775,12.889,12.889,0,0,0-.474,5.362,9.783,9.783,0,0,0,2.049,4.5q-.258.1-.509.217a5.22,5.22,0,0,0-3.018,3.958,11.239,11.239,0,0,0,2.61,8.675,5.006,5.006,0,0,0-.983,1.792,4.79,4.79,0,0,0,1.04,4.539c.032.036.063.073.1.112a10.807,10.807,0,0,0-3.466-.408c-2.718.153-6.435,1.515-8.7,7.112l-.182.441c-.954,2.291-2.7,6.482-.26,9.872l-.108.311c-.29.816-.568,1.632-.846,2.466l-.12.366q-.261.778-.5,1.55c-.152.469-.3.937-.45,1.434-1.169,3.81-2.2,7.666-3.061,11.459-.008.031-.013.052-.014.055-.119.525-.243,1.087-.347,1.681-.077.405-.146.844-.206,1.305,0,.022-.005.045-.008.067a12.873,12.873,0,0,0,.505,5.771c.1.294.218.588.355.9,1.568,3.517,4.805,5.712,7.45,7.23a63.585,63.585,0,0,0,7.51,3.658,80.513,80.513,0,0,0,8.578,2.934c1.829.516,7.4,2.085,12.715-.776a14.346,14.346,0,0,0,1.731-1.114c.837-.632,1.651-1.3,2.429-1.994.522-.467,1.054-.968,1.6-1.511.462-.463.922-.942,1.371-1.427,1.1-1.191,2.2-2.505,3.358-4.01,1.283-1.661,2.538-3.383,3.736-5.128.287-.421.575-.843.855-1.263.314-.47.625-.946.906-1.384l.177-.271c.474-.736.956-1.509,1.455-2.337q.127-.206.254-.417a7.673,7.673,0,0,0,1.111-.191,8.135,8.135,0,0,0,4.266-2.784A18.161,18.161,0,0,0,1477.5,818.487Z" transform="translate(0)"/><g transform="translate(1418.819 741.847)"><path class="b" d="M1521.207,909.686c-.278-5.933,3.026-11.462,6.936-15.934s8.551-8.333,11.882-13.251c4.639-6.849,6.391-15.226,7.423-23.433" transform="translate(-1490.175 -828.818)"/><path class="c" d="M1595.383,824.211c.917-2.133,2.667-3.95,3.438-6.3-.181.553.756,1.577,1.037,1.974a8.228,8.228,0,0,1,1.107,2.233,10.739,10.739,0,0,1,.471,4.973,8.647,8.647,0,0,1-3.978,6.123,12.441,12.441,0,0,1-2.54-5.1A6.43,6.43,0,0,1,1595.383,824.211Z" transform="translate(-1539.577 -799.307)"/><path class="c" d="M1568.489,880.926c-1.63-1.923-2.355-4.433-3.022-6.864,2.611.656,5.359,1.434,7.2,3.4a7.248,7.248,0,0,1,1.616,2.81c.249.806.676,2.444.2,3.232-.547.91-2.211.064-2.922-.261A8.871,8.871,0,0,1,1568.489,880.926Z" transform="translate(-1520.334 -838.993)"/><path class="c" d="M1534.207,934.639c-.99-2.319-.942-4.93-.861-7.45,2.3,1.4,4.7,2.951,5.875,5.373a7.247,7.247,0,0,1,.715,3.161c0,.843-.075,2.535-.76,3.148-.791.709-2.131-.591-2.715-1.111A8.87,8.87,0,0,1,1534.207,934.639Z" transform="translate(-1499.035 -876.714)"/><path class="c" d="M1594.517,915.538c1.622.575,3.1,1.741,4.823,1.717a9.286,9.286,0,0,1-1.859,2.8,5.7,5.7,0,0,1-5.152,1.126,9.742,9.742,0,0,1-4.594-2.872c-1.27-1.329-.174-1.837.939-2.375A8.073,8.073,0,0,1,1594.517,915.538Z" transform="translate(-1534.361 -867.968)"/><path class="c" d="M1553.9,911.842c-.7-1.779-1.006-3.705-1.844-5.422a6.513,6.513,0,0,1,4.372.91,9.9,9.9,0,0,1,3.181,3.211,6.031,6.031,0,0,1,.661,5.061.456.456,0,0,1-.146.2.487.487,0,0,1-.272.054c-1.465,0-2.837.035-3.984-.98A7.844,7.844,0,0,1,1553.9,911.842Z" transform="translate(-1511.443 -861.845)"/><path class="c" d="M1546.85,974.9c1.826-.563,3.525-1.521,5.391-1.935a6.514,6.514,0,0,0-3.436-2.853,9.906,9.906,0,0,0-4.493-.488,6.03,6.03,0,0,0-4.371,2.636.456.456,0,0,0-.067.24.485.485,0,0,0,.127.246c.913,1.145,1.74,2.24,3.248,2.506A7.851,7.851,0,0,0,1546.85,974.9Z" transform="translate(-1503.199 -906.43)"/><path class="c" d="M1571.51,946.918c.9.465,1.657,1.172,2.524,1.7a7.328,7.328,0,0,0,2.227.9,6.6,6.6,0,0,1-10.435.908c-.76-.829-1.367-1.758-2.2-2.513A7.47,7.47,0,0,1,1571.51,946.918Z" transform="translate(-1518.951 -889.948)"/><path class="c" d="M1605.909,874.666c1.009.117,1.964.513,2.961.7a7.319,7.319,0,0,0,2.4.053,6.6,6.6,0,0,1-9.446,4.527c-1-.508-1.9-1.164-2.947-1.576A7.471,7.471,0,0,1,1605.909,874.666Z" transform="translate(-1542.364 -839.285)"/><path class="b" d="M1501.829,853.884c4.434-4.918,5.494-12.02,5.284-18.638s-1.481-13.228-.877-19.822c.842-9.183,5.254-17.643,10.165-25.447" transform="translate(-1477.885 -778.525)"/><path class="c" d="M1549.183,761.679c.718-2.487.493-5.29,1.491-7.863-.234.6-1.766.825-2.289.968a9.169,9.169,0,0,0-2.533,1.142,11.975,11.975,0,0,0-3.921,3.954,9.64,9.64,0,0,0-.9,8.09,13.867,13.867,0,0,0,5.793-2.6A7.169,7.169,0,0,0,1549.183,761.679Z" transform="translate(-1503.711 -753.816)"/><path class="c" d="M1530.485,830.9c2.765-.506,5.164-2.157,7.457-3.781-2.715-1.281-5.633-2.552-8.609-2.158a8.08,8.08,0,0,0-3.38,1.279c-.784.519-2.31,1.629-2.459,2.643-.172,1.172,1.86,1.618,2.7,1.841A9.885,9.885,0,0,0,1530.485,830.9Z" transform="translate(-1492.246 -804.1)"/><path class="c" d="M1524.5,905.353c2.492-1.3,4.3-3.585,6.009-5.814-2.972-.422-6.135-.776-8.862.478a8.078,8.078,0,0,0-2.851,2.22c-.6.727-1.727,2.239-1.57,3.251.182,1.17,2.255,1,3.126.961A9.893,9.893,0,0,0,1524.5,905.353Z" transform="translate(-1488.127 -856.675)"/><path class="c" d="M1488.012,832.477c-1.8-.65-3.9-.693-5.371-1.93a10.352,10.352,0,0,0-.375,3.726,6.357,6.357,0,0,0,3.646,4.612,10.86,10.86,0,0,0,5.99.771c2.034-.248,1.448-1.461.869-2.711A9,9,0,0,0,1488.012,832.477Z" transform="translate(-1464.945 -808.157)"/><path class="c" d="M1522.938,867.64c1.859-1.041,3.486-2.483,5.422-3.37a7.258,7.258,0,0,0-4.413-2.306,11.042,11.042,0,0,0-5.012.519c-1.651.536-3.685,2.165-4.147,3.9a.5.5,0,0,0-.017.277.542.542,0,0,0,.2.239c1.263,1.035,2.42,2.035,4.127,1.971A8.749,8.749,0,0,0,1522.938,867.64Z" transform="translate(-1486.489 -830.28)"/><path class="c" d="M1485.709,918.512c-1.176-1.777-1.963-3.8-3.279-5.479a7.259,7.259,0,0,1,4.979-.031,11.046,11.046,0,0,1,4.219,2.756c1.222,1.232,2.286,3.612,1.9,5.361a.505.505,0,0,1-.112.254.538.538,0,0,1-.284.122c-1.6.343-3.083.7-4.572-.136A8.747,8.747,0,0,1,1485.709,918.512Z" transform="translate(-1465.09 -866.254)"/><path class="c" d="M1483.8,877.316c-1.107-.238-2.257-.161-3.378-.318a8.159,8.159,0,0,1-2.552-.8,7.363,7.363,0,0,0,8.354,8.16c1.242-.178,2.422-.55,3.676-.61C1489.541,880.8,1486.624,877.922,1483.8,877.316Z" transform="translate(-1462.011 -840.456)"/><path class="c" d="M1507.832,786.44c-.953-.612-2.056-.946-3.05-1.487a8.171,8.171,0,0,1-2.106-1.65,7.362,7.362,0,0,0,4.943,10.579c1.225.271,2.46.339,3.655.725C1511.98,791.725,1510.264,788,1507.832,786.44Z" transform="translate(-1478.036 -773.965)"/><path class="d" d="M1475.356,992.661q-1.131,2.326-2.382,4.6-.652,1.206-1.337,2.4l-.154.264c-.274.477-.555.956-.838,1.429-.262.438-.528.873-.794,1.309q-1.633,2.656-3.41,5.224c-.929,1.348-1.9,2.661-2.932,3.911q-.579.7-1.178,1.368c-.428.473-.87.94-1.322,1.391q-.951.945-1.985,1.818a8.036,8.036,0,0,1-.963.691c-2.314,1.389-4.92,1.139-7.649.281a58.754,58.754,0,0,1-14.1-6.434c-2.039-1.307-4.088-2.874-4.987-5.125q-.108-.275-.2-.558a10.1,10.1,0,0,1-.262-3.961c.044-.376.1-.759.161-1.131.083-.536.19-1.073.3-1.6,0-.016.008-.03.01-.046q1.222-6,2.85-11.909c.137-.495.274-.99.418-1.487.148-.529.3-1.056.458-1.586l.122-.412c.253-.844.509-1.685.777-2.527q.615-1.985,1.281-3.946l19.868,6.241Z" transform="translate(-1430.789 -914.137)"/><g transform="translate(4.272 68.011)"><path class="e" d="M1482.193,1005.774q-.652,1.207-1.337,2.4l-.154.264c-12.016-5.748-24.2-11.234-36.422-16.413l.122-.412c.252-.844.509-1.685.777-2.527q11.7,4.962,23.327,10.282Q1475.378,1002.511,1482.193,1005.774Z" transform="translate(-1444.279 -989.084)"/></g><g transform="translate(3.396 70.956)"><path class="f" d="M1477.974,1019.628c-.262.438-.528.873-.794,1.309q-8.828-4.173-17.839-8.251-9.112-4.119-17.827-7.827c.137-.495.274-.99.418-1.487q8.783,3.743,17.963,7.9c1.576.71,3.13,1.421,4.7,2.14Q1471.338,1016.492,1477.974,1019.628Z" transform="translate(-1441.513 -1003.372)"/></g><path class="g" d="M1471.127,1019.966c-2.035,4.253-3.954,8.605-6.89,12.328a20.014,20.014,0,0,1-8.4,6.43,20.852,20.852,0,0,1-9.259,1.257,27.27,27.27,0,0,1-15.678-6.893,8.022,8.022,0,0,0,.306,1.752q.088.283.2.558c.9,2.251,2.947,3.818,4.986,5.125a58.758,58.758,0,0,0,14.1,6.434c2.729.859,5.336,1.109,7.649-.28a8.036,8.036,0,0,0,.963-.691q1.035-.873,1.986-1.818c.452-.451.894-.918,1.322-1.391q.6-.671,1.178-1.368c1.035-1.25,2-2.563,2.932-3.911q2.768-4,5.2-8.226c1.314-2.286,2.56-4.621,3.719-7Z" transform="translate(-1430.863 -943.755)"/><path class="e" d="M1486.639,958.1a24.824,24.824,0,0,1,3.119,2.116,2.745,2.745,0,0,1,1.108,1.524,3.49,3.49,0,0,1-.092,1.4,14.786,14.786,0,0,1-2.61,5.677,2.453,2.453,0,0,1-1.153.975,1.827,1.827,0,0,1-1.042-.1,31.443,31.443,0,0,1-4.116-1.729c-5.829-2.781-11.517-5.913-17.461-8.4-6.087-2.546-12.384-4.588-18.4-7.3a2.693,2.693,0,0,1-1.121-.761c-1.047-1.4.3-4.582.893-6.213.61-1.678,1.661-3.883,3.49-4,1.472-.091,3.257,1.106,4.589,1.585a198.69,198.69,0,0,1,18.631,7.713q4.674,2.238,9.2,4.78C1483.286,956.291,1485,957.142,1486.639,958.1Z" transform="translate(-1440.146 -887.67)"/><path class="h" d="M1490.777,979.121a3.487,3.487,0,0,0,.092-1.4,2.746,2.746,0,0,0-1.108-1.524c-.376-.306-.769-.593-1.169-.872a13.266,13.266,0,0,1-7.288,2.978,23.858,23.858,0,0,1-7.787-.869,67.5,67.5,0,0,1-9.682-3.2c-6.593-2.772-12.717-6.5-19.176-9.554a3.58,3.58,0,0,0,.214,2.811,2.689,2.689,0,0,0,1.12.761c6.018,2.708,12.315,4.75,18.4,7.3,5.944,2.487,11.632,5.619,17.461,8.4a31.463,31.463,0,0,0,4.116,1.729,1.827,1.827,0,0,0,1.042.1,2.453,2.453,0,0,0,1.153-.975A14.781,14.781,0,0,0,1490.777,979.121Z" transform="translate(-1440.149 -903.836)"/></g></g></svg>