<svg xmlns="http://www.w3.org/2000/svg" width="80" height="98" viewBox="0 0 80 98"><defs><style>.a{fill:#fff;}.b{fill:#fff652;}.c{fill:#724268;}.d{fill:#ffc82e;}</style></defs><g transform="translate(-338.063 -22.194)"><path class="a" d="M417.9,69.236h0a6.854,6.854,0,0,0-8.636-4.865,4.127,4.127,0,0,0-.419.163c.116-.145.229-.29.342-.434,2.391-3.09,2.491-6.824.254-9.513-1.724-2.072-4.177-2.755-5.966-3.254l-.174-.048c-.222-.062-.447-.118-.67-.177.3-.311.577-.613.826-.887l.079-.086c.379.265.744.5,1.107.71a8.081,8.081,0,0,0,4.043,1.366h.05a5.361,5.361,0,0,0,4.353-2.05c2.033-2.622,1.305-6.582.718-9.083l.084-.07a9.9,9.9,0,0,0,2.636-2.928,6.008,6.008,0,0,0-1.709-8.088,13.944,13.944,0,0,0-5.719-1.79c-.582-.086-1.141-.152-1.687-.2a9.352,9.352,0,0,0-4.244-5.128,5.8,5.8,0,0,0-5.408-.02c-2.08,1.119-3.489,3.432-4.357,7.2q-.837.19-1.706.459l-.2.06c-1.559.478-4.165,1.279-5.525,3.654-1.3,2.28-.977,5.125.893,7.808a21.513,21.513,0,0,0,2.825,3.143q.244.234.487.473l.16.155.062.06c0,.06-.005.119-.008.17-.008.159-.014.316-.017.467a12.116,12.116,0,0,0,.2,2.749h-.008c-.342-.016-.685-.025-1.03-.034a11.111,11.111,0,0,1-2.579-.248,9.787,9.787,0,0,1-.4-1.045,53.459,53.459,0,0,0-5.324-11.357c-.081-.13-.163-.265-.247-.4-1.067-1.735-2.676-4.355-5.88-4.894-1.549-.261-4.429-.168-7.041,3.075a7.03,7.03,0,0,0-2.274-4.417,5.686,5.686,0,0,0-4.53-1.479l-.094.012a4.016,4.016,0,0,0-2.368.827,9.3,9.3,0,0,0-2.8,3.238,4.473,4.473,0,0,0-2.478-1.177,4.363,4.363,0,0,0-4.906,3.338l-.062.255c-.272,1.125-.78,3.219-1.412,3.408a4.434,4.434,0,0,0-3.191,4.246,4.657,4.657,0,0,0,2.555,4.269,4.392,4.392,0,0,0,.5.248c1.334.555,2.12,2.04,2.939,4.254a31.361,31.361,0,0,0-4.033.969,10.731,10.731,0,0,0-5.343,3.436,7.792,7.792,0,0,0-.747,8.53,13.208,13.208,0,0,0,3.747,4.094c.246.2.489.391.722.588,1.464,1.236,2.908,2.536,4.291,3.866.629.6,1.257,1.226,1.866,1.847l.364.373c-.066.184-.13.367-.2.552-.382,1.1-.747,2.213-1.081,3.315-.62,2.037-1.17,4.116-1.634,6.182l-.124.544a33.9,33.9,0,0,0-.935,5.564,9.763,9.763,0,0,0,1.322,5.859,14.4,14.4,0,0,0-9.465,9.807c-1.123,3.642-.767,7.134.977,9.58a9.08,9.08,0,0,0,7.427,3.719,9.549,9.549,0,0,0,1.093-.062,12.322,12.322,0,0,0,4.809-1.645,17.454,17.454,0,0,0,2.136-1.422,8.512,8.512,0,0,0,5.136,1.629c.169,0,.34,0,.513-.013a11.407,11.407,0,0,0,6.268-2.337,13.135,13.135,0,0,0,1.207-1.071,7.481,7.481,0,0,0,2.028,1.811,10.037,10.037,0,0,0,5.212,1.313c.485,0,.942-.026,1.355-.066a12.833,12.833,0,0,0,5.6-1.8,11.027,11.027,0,0,0,1.943-1.53,5.409,5.409,0,0,0,3.146,1.019h.014a8.1,8.1,0,0,0,3.145-.773c.147-.061.292-.121.434-.174l2.479-.931c.21-.079.427-.154.644-.23s.454-.16.691-.247c.021.04.038.082.06.122a5.342,5.342,0,0,0,2,2.014,4.459,4.459,0,0,0,1.5.653,5,5,0,0,0,2.97-.216c.01.012.018.027.028.041a5.158,5.158,0,0,0,3.957,2.05l.16,0a5.507,5.507,0,0,0,3.568-1.362,6,6,0,0,0,2.065-5.889v0a5.446,5.446,0,0,0-1.552-2.7,7.053,7.053,0,0,0,1.385-3.353l.023-.121q.236-1.215.46-2.433c.28-1.521.556-3.113.822-4.732a4.813,4.813,0,0,0-7.358-5.051,4.765,4.765,0,0,0-.983.861,4.668,4.668,0,0,0-1.58-.788h0a4.716,4.716,0,0,0-2.189-.07,10.858,10.858,0,0,0-.166-3.585c-.178-.858-.4-1.694-.628-2.514a4.294,4.294,0,0,0,3.534,1.815c.043,0,.086,0,.13,0a4.2,4.2,0,0,0,4.045-3.464,11.817,11.817,0,0,1,3.005-6.2,4.171,4.171,0,0,0,.863-1.3c.115.006.229.015.344.015a6.349,6.349,0,0,0,1.53-.187,6.81,6.81,0,0,0,4.945-8.024" transform="translate(0)"/><g transform="translate(342.229 34.416)"><path class="b" d="M406.482,63.88a15.393,15.393,0,0,1-1.653,1.95q-1.768,1.961-3.673,3.783t-3.941,3.5c-1.316,1.091-2.716,2.058-4.056,3.118a3.434,3.434,0,0,0-1.362,2.012,6.747,6.747,0,0,0,.505,3.141c.543,1.911,1.094,3.814,1.645,5.725s1.1,3.822,1.645,5.733c.26.89,1.14,3.126-.031,3.768-.467.255-1.27-.263-1.7-.472-.872-.41-1.737-.836-2.6-1.261-1.691-.843-3.359-1.7-5.027-2.584-3.367-1.787-6.665-3.691-9.948-5.648-1.653-.983-3.443-1.478-5.112-.224a54.086,54.086,0,0,0-4.331,3.969c-2.479,2.313-4.9,5.021-7.92,6.623a6.834,6.834,0,0,1-1.99.758,1.2,1.2,0,0,1-1.309-.364s-.13-.279-.161-.371a3.042,3.042,0,0,1-.138-.665,8.16,8.16,0,0,1,.061-1.857,71.278,71.278,0,0,1,2.7-10.917c.26-.836.543-1.663.842-2.491a16.977,16.977,0,0,0,.765-2.228,3.152,3.152,0,0,0,.077-.658,3.671,3.671,0,0,0-1.194-2.515c-.673-.727-1.377-1.431-2.081-2.135-1.278-1.269-2.594-2.507-3.948-3.7-1.331-1.184-2.778-2.244-4.071-3.458-.826-.781-1.408-1.648-.872-2.437a3.218,3.218,0,0,1,1.056-.836,7.55,7.55,0,0,1,1.783-.689,72.3,72.3,0,0,1,10.981-1.9q2.8-.313,5.617-.472a1.442,1.442,0,0,0,1.117-.565,1.394,1.394,0,0,0,.773-.952,92.93,92.93,0,0,1,3.635-10.724,26.369,26.369,0,0,1,2.234-4.782,3.562,3.562,0,0,1,1.186-1.137.219.219,0,0,1,.237.015,2.239,2.239,0,0,1,.536.511,30.434,30.434,0,0,1,2.755,4.487,42.95,42.95,0,0,1,2.173,4.619,34.769,34.769,0,0,0,1.951,5.037,6.128,6.128,0,0,0,3.757,2.747,8.76,8.76,0,0,0,.872.186,25.124,25.124,0,0,0,3.65.279,51.461,51.461,0,0,1,5.441.48,52.912,52.912,0,0,1,5.479,1.122c.826.217,1.66.433,2.472.72a2.929,2.929,0,0,1,1.347.774C406.864,63.176,406.726,63.493,406.482,63.88Z" transform="translate(-344.342 -38.875)"/><path class="c" d="M403.565,57.787a54.063,54.063,0,0,0-11.979-1.9,17.247,17.247,0,0,1-4.561-.465c-1.484-.477-1.936-1.715-2.4-3.095a49.346,49.346,0,0,0-4.975-10.538c-.948-1.5-1.972-3.434-3.88-3.752-1.866-.312-3.352.976-4.357,2.419a26.458,26.458,0,0,0-2.371,5q-1.181,2.833-2.182,5.735-.85,2.481-1.555,5.011a103.409,103.409,0,0,0-11.617,1.4,42.2,42.2,0,0,0-5.52,1.194,7.72,7.72,0,0,0-3.767,2.316,4.339,4.339,0,0,0-.411,4.813c.812,1.54,2.364,2.558,3.658,3.641q2.284,1.913,4.442,3.971.98.935,1.933,1.9.571.578,1.132,1.167l.373.393a2.553,2.553,0,0,0,.219.228c.04.073.07.125.09.159a4.021,4.021,0,0,1-.405,1.127q-.241.648-.47,1.3-.55,1.567-1.037,3.155-.893,2.91-1.566,5.882a34.735,34.735,0,0,0-.98,5.51,6.014,6.014,0,0,0,1.141,4.271c2.661,3.149,7.295.244,9.746-1.689,3.067-2.419,5.833-5.281,8.689-7.944.406-.379,1.046-1.253,1.678-1.174a7.431,7.431,0,0,1,2.417,1.3q2.608,1.552,5.262,3.026,5.3,2.948,10.774,5.578c1.855.892,3.882,1.785,5.675.244,1.519-1.305,1.684-3.389,1.3-5.237-.426-2.04-1.131-4.05-1.708-6.052q-.886-3.074-1.771-6.149-.2-.7-.4-1.4a3.446,3.446,0,0,1-.3-1.122c.028-.118.141-.183.252-.271.425-.336.879-.638,1.314-.962,1.544-1.154,3.052-2.363,4.507-3.631a58.556,58.556,0,0,0,7.777-7.924c1.223-1.568,1.708-3.573.327-5.221C406.951,58.685,405.143,58.224,403.565,57.787Zm2.052,5.206a15.278,15.278,0,0,1-1.655,1.954q-1.771,1.959-3.68,3.783t-3.942,3.5c-1.319,1.089-2.718,2.061-4.061,3.116a3.44,3.44,0,0,0-1.362,2.012,6.718,6.718,0,0,0,.5,3.142l1.65,5.73q.826,2.865,1.651,5.73c.257.894,1.137,3.124-.034,3.767-.467.258-1.274-.262-1.7-.467q-1.306-.626-2.6-1.268-2.532-1.256-5.029-2.581c-3.373-1.789-6.677-3.694-9.96-5.645-1.657-.984-3.447-1.481-5.118-.228a55.661,55.661,0,0,0-4.336,3.97c-2.479,2.313-4.9,5.021-7.922,6.623a6.935,6.935,0,0,1-2,.761,1.208,1.208,0,0,1-1.311-.367c.011.015-.126-.279-.156-.37a3.117,3.117,0,0,1-.143-.665,8.1,8.1,0,0,1,.067-1.859,71.237,71.237,0,0,1,2.7-10.919q.4-1.251.844-2.489a9.419,9.419,0,0,0,.846-2.884,3.662,3.662,0,0,0-1.2-2.513c-.673-.731-1.375-1.436-2.08-2.136q-1.922-1.909-3.953-3.7c-1.334-1.178-2.781-2.24-4.078-3.456-.83-.779-1.412-1.647-.876-2.436a3.357,3.357,0,0,1,1.058-.839,7.872,7.872,0,0,1,1.784-.682,73.158,73.158,0,0,1,10.994-1.91q2.807-.312,5.626-.466a1.459,1.459,0,0,0,1.114-.569,1.4,1.4,0,0,0,.777-.952,92.929,92.929,0,0,1,3.638-10.722,26.431,26.431,0,0,1,2.233-4.781,3.567,3.567,0,0,1,1.187-1.137.209.209,0,0,1,.237.015,2.129,2.129,0,0,1,.536.506,30.7,30.7,0,0,1,2.759,4.488,43.951,43.951,0,0,1,2.179,4.624,34.955,34.955,0,0,0,1.949,5.034,6.161,6.161,0,0,0,3.763,2.747,19.784,19.784,0,0,0,4.526.467,48.95,48.95,0,0,1,5.443.48,52.349,52.349,0,0,1,5.486,1.12c.83.216,1.667.433,2.477.716a3.01,3.01,0,0,1,1.347.774C406,62.293,405.862,62.607,405.617,62.993Z" transform="translate(-343.448 -37.991)"/><path class="d" d="M409.474,69.036a15.438,15.438,0,0,1-1.671,1.95q-1.787,1.961-3.714,3.783t-3.985,3.5c-1.331,1.091-2.747,2.058-4.1,3.118a3.433,3.433,0,0,0-1.377,2.012,6.68,6.68,0,0,0,.511,3.141c.549,1.911,1.106,3.814,1.663,5.725s1.114,3.822,1.663,5.733c.263.89,1.153,3.126-.031,3.768-.472.255-1.284-.263-1.718-.472-.882-.41-1.756-.836-2.631-1.261-1.71-.843-3.4-1.7-5.083-2.584-3.4-1.787-6.739-3.691-10.058-5.648-1.671-.983-3.482-1.478-5.168-.224a54.481,54.481,0,0,0-4.379,3.969c-2.507,2.313-4.952,5.021-8.008,6.623a6.957,6.957,0,0,1-2.012.758,1.223,1.223,0,0,1-1.323-.364s-.132-.279-.162-.371a3.015,3.015,0,0,1-.139-.665,8.073,8.073,0,0,1,.062-1.857,70.634,70.634,0,0,1,2.731-10.917c.263-.836.549-1.663.851-2.491a16.852,16.852,0,0,0,.774-2.228,50.093,50.093,0,0,0,18.314-7.42A33.185,33.185,0,0,0,391.06,64.68a25.68,25.68,0,0,0,3.691.279,52.6,52.6,0,0,1,5.5.48,54.022,54.022,0,0,1,5.54,1.122c.836.217,1.679.433,2.5.72a2.97,2.97,0,0,1,1.362.774C409.861,68.332,409.721,68.649,409.474,69.036Z" transform="translate(-347.337 -44.031)"/><path class="a" d="M364.885,66.956c.118.012.073-.007-.145-.057a1.057,1.057,0,0,0-.534-.041c-.19.009-.381.03-.57.049-.668.063-1.332.148-2,.238-1.409.192-2.805.395-4.2.7a20.119,20.119,0,0,0-2.9.774,27,27,0,0,1-2.827.771.254.254,0,0,0,.08.5,15.939,15.939,0,0,1,2.628-.3c1.037.015,2.067-.008,3.1-.029,2.238-.044,4.47-.036,6.706.088a1.412,1.412,0,0,0,1.561-1.41A1.355,1.355,0,0,0,364.885,66.956Z" transform="translate(-345.273 -44.52)"/><path class="a" d="M374.9,67.647a1.373,1.373,0,0,0-.366-.622,1.125,1.125,0,0,0-1.21-.477l-.083.008-.173.017-.338.034a1.494,1.494,0,0,0-1.451,1.451l.047.368a1.447,1.447,0,0,0,.378.658l.309.236a1.446,1.446,0,0,0,.716.189l.8-.032a1.469,1.469,0,0,0,1.239-.805l.131-.33A1.358,1.358,0,0,0,374.9,67.647Z" transform="translate(-349.972 -44.449)"/></g><g transform="translate(347.327 25.513)"><path class="b" d="M368.321,36.81a2.458,2.458,0,0,0-1.209,2.2,1.168,1.168,0,0,0,1.59.775,1.49,1.49,0,0,0,.959-1.718A2.068,2.068,0,0,0,368.321,36.81Z" transform="translate(-354.028 -28.82)"/><path class="b" d="M427.893,37.1a7.522,7.522,0,0,1-1.81,1.339,5.3,5.3,0,0,0-1.981,2.089c-.6,1.3-.17,2.545.24,3.822a8.669,8.669,0,0,1,.395,1.818,9.019,9.019,0,0,1,.046.913,5.353,5.353,0,0,1-.077.542c-.186-.139-.511-.263-.65-.356a19.336,19.336,0,0,1-1.6-1.137c-1.13-.905-2.236-1.981-3.783-1.323a8.312,8.312,0,0,0-2.723,2.368,20.529,20.529,0,0,1-2.344,2.437c-.209.17-.936.843-1.23.75-.271-.085-.271-.789-.271-1a17.792,17.792,0,0,0,.139-3.629,2.944,2.944,0,0,0-.1-.395c-.751-2.476-3.845-3.544-5.006-5.818-.24-.472-.317-.627.147-.843a13.441,13.441,0,0,1,1.973-.665,32.714,32.714,0,0,1,4.65-.913.954.954,0,0,0,.743-.487,1.2,1.2,0,0,0,.526-.8,23.607,23.607,0,0,1,.921-4c.077-.24.3-1.354.588-1.47.139-.062.193,0,.371.132,1,.727,1.455,2.182,1.942,3.257a2.838,2.838,0,0,0,2.87,1.64,1.885,1.885,0,0,0,.209.008,18.474,18.474,0,0,1,4.07.5,6.4,6.4,0,0,1,1.787.5C428.241,36.571,428.1,36.827,427.893,37.1Z" transform="translate(-363.574 -27.352)"/><path class="b" d="M421.9,88.667a6.678,6.678,0,0,1-1.974,2.2,12.63,12.63,0,0,1,1.585,2.693c.184.405.354.816.514,1.231a15.039,15.039,0,0,1,2.416-3.947A5.843,5.843,0,0,1,421.9,88.667Z" transform="translate(-366.511 -40.555)"/><path class="b" d="M432.916,82.763a1.009,1.009,0,0,1-.152.067,1.292,1.292,0,0,0,.89,2.426,1.171,1.171,0,0,0,.717-1.736A2.38,2.38,0,0,0,432.916,82.763Z" transform="translate(-369.225 -39.219)"/><path class="b" d="M356.948,44.39a7.88,7.88,0,0,1-2.494,3.36,9.836,9.836,0,0,1,2.983,3.885,15.2,15.2,0,0,1,.679-1.975,16.1,16.1,0,0,1,1.78-3.092A6.119,6.119,0,0,1,356.948,44.39Z" transform="translate(-351.036 -30.536)"/><path class="c" d="M417.147,47.909a8.691,8.691,0,0,1,1.4-1.2,2.305,2.305,0,0,1,.244-.162.371.371,0,0,0,.059.026c.308.121.6.505.858.71a16.823,16.823,0,0,0,2,1.38,5.335,5.335,0,0,0,2.45.913c3.748.028,2.194-5.763,1.7-7.783-.272-1.113.207-1.557,1.033-2.246a8.609,8.609,0,0,0,2.245-2.262,2.605,2.605,0,0,0-.629-3.612,11.472,11.472,0,0,0-4.438-1.272,22.547,22.547,0,0,0-2.71-.241c-.157,0-.624.043-.744-.047-.229-.176-.346-.748-.447-1-.645-1.57-1.4-3.5-3.032-4.284-3.916-1.874-5.164,4.276-5.586,7.024a17.988,17.988,0,0,0-3.579.725c-1.324.4-3.114.886-3.862,2.172-.785,1.349-.08,2.99.738,4.141a22.8,22.8,0,0,0,2.935,3.113,4.027,4.027,0,0,1,1.1,1.353,5.334,5.334,0,0,1,.118,1.952c-.03,1.411.091,3.074,1.307,4.008C412.778,53.222,415.617,49.427,417.147,47.909Zm-4.261.833c-.209.172-.942.839-1.232.747-.272-.086-.269-.785-.268-.993a18.2,18.2,0,0,0,.135-3.629c-.529-2.767-3.882-3.826-5.1-6.217-.241-.47-.32-.628.145-.843a14.56,14.56,0,0,1,1.971-.668,33.375,33.375,0,0,1,4.649-.908.971.971,0,0,0,.747-.49,1.2,1.2,0,0,0,.522-.8,23.592,23.592,0,0,1,.921-4c.08-.244.3-1.356.589-1.474.136-.056.2,0,.374.134,1,.724,1.454,2.182,1.939,3.256.608,1.348,1.708,1.636,3.081,1.652a18.789,18.789,0,0,1,4.067.49,6.55,6.55,0,0,1,1.788.505c.313.193.17.453-.041.722a7.492,7.492,0,0,1-1.807,1.34,5.3,5.3,0,0,0-1.983,2.085c-.593,1.3-.167,2.545.241,3.827a8.617,8.617,0,0,1,.4,1.818c.026.3.043.605.039.908a4.777,4.777,0,0,1-.072.544c-.186-.139-.511-.266-.655-.359a18.825,18.825,0,0,1-1.6-1.133c-1.13-.911-2.234-1.979-3.785-1.326a8.384,8.384,0,0,0-2.719,2.369A21.088,21.088,0,0,1,412.886,48.741Z" transform="translate(-362.854 -26.484)"/><path class="c" d="M360.874,43.523a4.364,4.364,0,0,1-3.941-4.228,1.172,1.172,0,0,0-2.291-.31c-.56,2.255-1.213,5.258-3.77,6.013a1.216,1.216,0,0,0-.056,2.289,1.271,1.271,0,0,0,.236.129c2.679,1.095,3.9,3.66,4.857,6.231a.921.921,0,0,0,1.8-.244,15.171,15.171,0,0,1,3.595-8.257C361.752,44.666,361.64,43.642,360.874,43.523Zm-3.758,4.726a15.2,15.2,0,0,0-.679,1.975,9.836,9.836,0,0,0-2.983-3.885,7.88,7.88,0,0,0,2.494-3.36,6.119,6.119,0,0,0,2.948,2.178A16.1,16.1,0,0,0,357.116,48.249Z" transform="translate(-350.037 -29.125)"/><path class="c" d="M367.91,34.462a.862.862,0,0,0-.245.069.723.723,0,0,0-.666.138c-1.382,1.019-2.584,2.563-2.089,4.388a3.032,3.032,0,0,0,3.595,2.057,3.447,3.447,0,0,0,2.583-3.433C371.074,36.071,369.664,34.248,367.91,34.462Zm.274,4.788a1.168,1.168,0,0,1-1.59-.775,2.458,2.458,0,0,1,1.209-2.2,2.068,2.068,0,0,1,1.341,1.258A1.49,1.49,0,0,1,368.184,39.25Z" transform="translate(-353.499 -28.285)"/><path class="c" d="M425.6,88.242a4.421,4.421,0,0,1-3.65-3.549,1.067,1.067,0,0,0-1.93-.252c-.828,1.574-1.509,3.547-3.5,3.853a1.168,1.168,0,0,0-.81,1.426,1.1,1.1,0,0,0,.289.5c.41.58.929,1.067,1.376,1.619a13.164,13.164,0,0,1,1.212,1.8,15.769,15.769,0,0,1,1.535,4.067,1.021,1.021,0,0,0,1.954,0,14.9,14.9,0,0,1,3.944-7.878A.954.954,0,0,0,425.6,88.242Zm-4.545,5.48c-.159-.415-.33-.826-.514-1.231a12.63,12.63,0,0,0-1.585-2.693,6.678,6.678,0,0,0,1.974-2.2,5.843,5.843,0,0,0,2.541,2.18A15.039,15.039,0,0,0,421.059,93.723Z" transform="translate(-365.55 -39.484)"/><path class="c" d="M431.515,80.234a.893.893,0,0,0-.493.371,3.262,3.262,0,0,0-1.52,3.759,3.383,3.383,0,0,0,3.94,2.249,3.441,3.441,0,0,0,2.539-3.947A3.612,3.612,0,0,0,431.515,80.234Zm1.559,4.416a1.292,1.292,0,0,1-.89-2.426,1.01,1.01,0,0,0,.152-.067,2.38,2.38,0,0,1,1.455.757A1.171,1.171,0,0,1,433.074,84.651Z" transform="translate(-368.646 -38.613)"/><path class="d" d="M429.4,38.575a7.523,7.523,0,0,1-1.81,1.339A5.3,5.3,0,0,0,425.61,42c-.6,1.3-.17,2.545.24,3.822a8.667,8.667,0,0,1,.395,1.818,9.019,9.019,0,0,1,.046.913,5.361,5.361,0,0,1-.077.542c-.186-.139-.511-.263-.65-.356a19.336,19.336,0,0,1-1.6-1.137c-1.13-.905-2.236-1.981-3.783-1.323a8.312,8.312,0,0,0-2.723,2.368,20.527,20.527,0,0,1-2.344,2.437c-.209.17-.936.843-1.23.75-.271-.085-.271-.789-.271-1a17.79,17.79,0,0,0,.139-3.629,2.935,2.935,0,0,0-.1-.395A18.244,18.244,0,0,0,418.8,43.9a13.7,13.7,0,0,0,4.573-7.048,1.885,1.885,0,0,0,.209.008,18.474,18.474,0,0,1,4.07.5,6.4,6.4,0,0,1,1.787.5C429.75,38.049,429.61,38.3,429.4,38.575Z" transform="translate(-365.082 -28.83)"/></g><g transform="translate(341.381 95.476)"><path class="c" d="M354.149,132.722c-1.142.265-2.128,1.243-3.123,1.826a5.688,5.688,0,0,1-2.742.9,3.179,3.179,0,0,1-2.062-.6,2.829,2.829,0,0,1-.8-2.409,8.114,8.114,0,0,1,6.648-7.593,1.538,1.538,0,0,0,1.067-1.879,1.569,1.569,0,0,0-1.88-1.067c-4.05.568-7.216,3.97-8.4,7.749-.65,2.074-.839,4.693.505,6.543a5.979,5.979,0,0,0,5.537,2.274,9.269,9.269,0,0,0,3.57-1.214,7.679,7.679,0,0,0,3.11-2.673,1.278,1.278,0,0,0-1.424-1.854" transform="translate(-342.352 -117.106)"/><path class="c" d="M374.207,126.557a6.24,6.24,0,0,0-2.307-3.922,6.138,6.138,0,0,0-3.4-1.422,1.419,1.419,0,0,0-1-.045,10.347,10.347,0,0,0-6.3,5.338c-1.253,2.573-1.788,6.345.276,8.671,2.25,2.537,6.367,1.876,8.8.02,2.533-1.934,4.413-5.4,3.933-8.64m-5.141,5.66c-1.191,1.191-3.672,2.354-5.2,1.045-1.267-1.089-.693-3.725-.122-5.024a7.373,7.373,0,0,1,4.314-4.04,3.732,3.732,0,0,1,3.021,2.332c.652,1.963-.657,4.331-2.015,5.688" transform="translate(-346.532 -116.931)"/><path class="c" d="M394.073,127.5a8.191,8.191,0,0,0-2.529-4.312,7.626,7.626,0,0,0-4.174-2.229,1.427,1.427,0,0,0-.59-.037c-.118,0-.233.007-.348.019a1.532,1.532,0,0,0-.8.327,9.847,9.847,0,0,0-5.623,5.4c-1.14,2.74-1.347,7.262,1.58,9.011a7.859,7.859,0,0,0,4.608.781,9.867,9.867,0,0,0,4.228-1.312,7.624,7.624,0,0,0,3.651-7.645m-4.5,4.5a6.685,6.685,0,0,1-5.619,1.323c-1.061-.227-1.421-.846-1.589-1.892a6.735,6.735,0,0,1,4.611-7.4,5.243,5.243,0,0,1,1.9.843,6.974,6.974,0,0,1,1.995,2.442,4.3,4.3,0,0,1-1.3,4.685" transform="translate(-351.048 -116.887)"/><path class="c" d="M408.45,128.716a25.239,25.239,0,0,0-3.564,1.264l-1.71.63c-.1.036-.2.081-.313.129.026-.176.054-.353.079-.528q.179-1.26.361-2.521.351-2.45.71-4.9a1.58,1.58,0,0,0-1.068-1.88,1.538,1.538,0,0,0-1.879,1.067q-.39,2.659-.771,5.319-.2,1.4-.4,2.8a5.911,5.911,0,0,0-.089,2.484,2.2,2.2,0,0,0,2.109,1.564,7.64,7.64,0,0,0,2.467-.734l2.5-.921a19.2,19.2,0,0,0,2.709-1.068c1.525-.85.45-3.026-1.141-2.706" transform="translate(-355.835 -116.878)"/><path class="c" d="M420.041,116.663a1.541,1.541,0,0,0-1.88,1.067q-.41,2.285-.673,4.593-.127,1.121-.215,2.248a3.393,3.393,0,0,0,.267,2.362,1.35,1.35,0,0,0,2.094.27,3.476,3.476,0,0,0,.674-2.351q.078-1.056.191-2.108c.151-1.409.36-2.809.61-4.2a1.57,1.57,0,0,0-1.067-1.879" transform="translate(-359.947 -115.916)"/><path class="c" d="M419.7,134.85a2.022,2.022,0,0,0-2.583-1.306,2.089,2.089,0,0,0-1.277,1.149,1.96,1.96,0,0,0,.093,1.745,2.035,2.035,0,0,0,.883.819,1.28,1.28,0,0,0,.5.245,1.863,1.863,0,0,0,1.158-.108,2.136,2.136,0,0,0,1.222-2.545" transform="translate(-359.604 -119.723)"/><path class="c" d="M428.342,115.76a1.541,1.541,0,0,0-1.88,1.067q-.4,2.387-.839,4.764-.208,1.12-.429,2.237a4.188,4.188,0,0,0,.036,2.72,1.282,1.282,0,0,0,2,.258,3.679,3.679,0,0,0,.908-2.167q.236-1.187.457-2.376.432-2.307.817-4.624a1.572,1.572,0,0,0-1.067-1.879" transform="translate(-361.71 -115.712)"/><path class="c" d="M427.994,136.542a2.08,2.08,0,0,0-.947-1.28,1.715,1.715,0,0,0-2.036.255,1.189,1.189,0,0,0-.318.488,1.356,1.356,0,0,0-.2.1,1.924,1.924,0,0,0,1,3.533,2.321,2.321,0,0,0,1.551-.6,2.592,2.592,0,0,0,.953-2.5" transform="translate(-361.397 -120.085)"/></g></g></svg>