<svg xmlns="http://www.w3.org/2000/svg" width="79.996" height="72" viewBox="0 0 79.996 72"><defs><style>.a{fill:#fff;}.b{fill:#1c3043;}.c{fill:#00a387;}.d{fill:#ff95b5;}.e{fill:#f2b604;}.f{fill:#c1dff2;}</style></defs><g transform="translate(-502.751 -276.403)"><g transform="translate(502.751 276.403)"><path class="a" d="M582.225,310.848c-1.793-4.259-6.852-5.26-10.927-5.621-1.227-8.09,4.9-24.129-4.572-27.7-5.106-1.925-11.7-.926-16.94-.306-9.705,1.148-20.76,5.936-30.513,5.207-1.725-.129-3.513-.418-5.142.172-5.336,1.933-1.344,13.5-.718,17.215a5.734,5.734,0,0,1-.036,3.023c-.292.75-.888,1.34-1.222,2.071-.5,1.089-.37,2.363-.675,3.536-1.453,5.477-10.966,5.266-8.24,13.621a7.139,7.139,0,0,0,6.053,4.813c3.083.245-1.181,9.823-1.313,11.5-1.108,14.17,23.968,9.6,31.383,8.211,6.671-1.251,14.14-2.332,20.546-5.324,8.35-3.9,10.522-9.964,15.135-17.339,2.428-3.881,8.263-5.729,7.659-11.216A6.65,6.65,0,0,0,582.225,310.848Z" transform="translate(-502.751 -276.403)"/><g transform="translate(5.833 6.165)"><g transform="translate(0 20.463)"><path class="b" d="M582.245,363.351l-.119-.08-.036-.024Z" transform="translate(-547.906 -345.98)"/><path class="b" d="M582.476,339.6a1.045,1.045,0,0,0-.145-.211c-.027-.034-.053-.068-.082-.1a1.019,1.019,0,0,0-.13-.109c-.068-.053-.139-.105-.209-.156-.1-.073-.2-.141-.3-.211a6.289,6.289,0,0,0-.95-.543c-.134-.061-.269-.118-.406-.173l-.084-.032h0l-.065-.025c-.075-.037-.156-.062-.233-.091l.123.049a10.474,10.474,0,0,0-1.125-.381c-.356-.095-.712-.2-1.071-.277-.178-.04-.356-.085-.536-.113a6.251,6.251,0,0,0-.668-.073c-.095-.005-.189-.007-.283-.007-.268,0-.535.019-.8.043a10.785,10.785,0,0,0-1.2.195c-.325.068-.644.173-.963.267a8.245,8.245,0,0,0-.893.333,6.889,6.889,0,0,1-.8.295l-.154.043a1.564,1.564,0,0,0-.277.114c-.086-.047-.172-.093-.26-.137-.27-.134-.54-.267-.814-.393-.3-.14-.614-.254-.926-.363a12.624,12.624,0,0,0-1.7-.494c-.289-.059-.579-.116-.87-.161s-.593-.088-.89-.125c-.343-.044-.688-.064-1.033-.082-.135-.007-.271-.014-.406-.019.069-.041.137-.082.2-.125a8.567,8.567,0,0,0,.951-.73,16.129,16.129,0,0,0,1.593-1.6,7.591,7.591,0,0,0,1.282-2.021,4.266,4.266,0,0,0,.224-.659,1.382,1.382,0,0,0,.014-.713.905.905,0,0,0-.2-.334.922.922,0,0,0-.151-.119,1.039,1.039,0,0,0-.213-.09.983.983,0,0,0-.268-.035h-.048c-.019,0-.038,0-.057,0-.089,0-.179.01-.268.02q-.282.031-.56.079a9.77,9.77,0,0,0-1.164.293c-.353.106-.709.209-1.055.339-.4.15-.782.328-1.163.515a8.19,8.19,0,0,0-1.009.552c-.317.215-.632.433-.932.675s-.587.514-.876.776a8.628,8.628,0,0,0-.788.786,10.615,10.615,0,0,0-.742.986q-.205.307-.384.63c-.122.22-.234.447-.352.67-.109.206-.222.408-.328.616l-.085.169a2.125,2.125,0,0,0-.114.314c-.525.174-1.046.358-1.561.561a30.573,30.573,0,0,0-3.164,1.475c-.479.249-.961.494-1.448.724-.32.151-.637.309-.954.468.148-.2.289-.408.425-.615.216-.328.413-.665.605-1.008.178-.318.359-.635.532-.956a19.031,19.031,0,0,0,1.029-2.071c.085-.217.157-.439.231-.66.06-.181.118-.363.168-.548a9.413,9.413,0,0,0,.236-1.106c.037-.241.062-.481.079-.724a1.79,1.79,0,0,0-.057-.633.873.873,0,0,0-.125-.263.973.973,0,0,0-.273-.259.726.726,0,0,0-.417-.123.891.891,0,0,0-.378.085,2.688,2.688,0,0,0-.5.31c-.082.064-.162.129-.242.2-.32.265-.618.561-.913.856-.254.252-.49.522-.729.79s-.5.562-.738.858a9.553,9.553,0,0,0-.742,1.031,10.255,10.255,0,0,0-.935,2.26,9.137,9.137,0,0,0-.262,1.111,7.536,7.536,0,0,0-.1,1.251c0,.153.015.307.024.46.011.176.027.351.042.527.012.156.013.311.01.467,0,.079,0,.157.007.236,0,.031.006.063.01.1-.293.159-.586.322-.873.491-.5.3-1.008.6-1.506.9l-.011.007c-.213-.149-.426-.3-.642-.44-.487-.324-.985-.63-1.488-.926l-.311-.181c0-.017.005-.034.007-.05.067-.175.131-.35.192-.529a3.436,3.436,0,0,0,.127-.445,6.113,6.113,0,0,0,.082-.664,8.7,8.7,0,0,0,.01-1.048,9.422,9.422,0,0,0-.122-1.229,10.755,10.755,0,0,0-.251-1.119,10.473,10.473,0,0,0-.42-1.167c-.148-.35-.306-.7-.486-1.029s-.378-.653-.583-.97c-.124-.192-.252-.383-.381-.572-.109-.16-.217-.319-.337-.469a5.477,5.477,0,0,0-.377-.415c-.062-.062-.127-.119-.193-.177s-.121-.106-.183-.157a1.215,1.215,0,0,0-.285-.174.609.609,0,0,0-.244-.06h-.017a.671.671,0,0,0-.659.492,2.563,2.563,0,0,0-.119.535c-.029.172-.064.343-.083.516s-.038.373-.048.561c-.013.233,0,.466,0,.7.006.263.013.525.031.787,0-.047-.007-.095-.01-.142l.011.167h0l0,.024c0,.032.005.065.007.1,0-.026,0-.051-.005-.077.015.207.035.414.055.62s.059.386.092.577.079.367.126.549.1.376.157.562c.12.393.271.779.422,1.16a9.133,9.133,0,0,0,.458,1.008c.118.218.245.428.379.635l-.055-.031-.824-.464c-.252-.14-.512-.265-.77-.392a15.159,15.159,0,0,0-1.614-.7q-.41-.145-.818-.3c-.312-.116-.626-.221-.944-.321-.579-.183-1.158-.368-1.744-.525-.215-.057-.43-.111-.646-.163-.015-.041-.031-.082-.046-.122-.048-.14-.088-.282-.139-.42a3.68,3.68,0,0,0-.27-.547,4.3,4.3,0,0,0-.306-.449,7.612,7.612,0,0,0-1.683-1.487c-.145-.1-.286-.212-.43-.317-.177-.13-.362-.249-.546-.369a6.662,6.662,0,0,0-.95-.517c-.331-.146-.659-.3-.991-.446a5.049,5.049,0,0,0-1.133-.358,8.37,8.37,0,0,0-1.026-.111q-.232-.012-.463-.012l-.16,0a3.772,3.772,0,0,0-.53.06c-.166.027-.331.062-.5.095a4.343,4.343,0,0,0-.592.145,1.582,1.582,0,0,0-.257.128.311.311,0,0,0-.039.025.734.734,0,0,0-.215.264.691.691,0,0,0-.054.339.562.562,0,0,0,.055.208,2.132,2.132,0,0,0,.147.275,6.013,6.013,0,0,0,.686.886,7.1,7.1,0,0,0,.81.732c.142.112.284.225.432.329.18.129.367.247.554.366a8.851,8.851,0,0,0,.935.5q.53.254,1.074.469c.3.117.6.2.9.286l-.01,0a11.289,11.289,0,0,0-1.707.448,13.318,13.318,0,0,0-1.624.692,10.1,10.1,0,0,0-1.572.964c-.207.159-.412.322-.612.491a.488.488,0,0,0-.141-.05c-.073-.014-.146-.029-.221-.038-.123-.015-.247-.015-.371-.019-.173,0-.346,0-.519-.006h-.025a4.107,4.107,0,0,0-.984.142c-.208.052-.42.091-.625.154-.167.051-.337.1-.5.161a4.754,4.754,0,0,0-.5.216c-.165.084-.329.17-.492.257a10.079,10.079,0,0,0-1.012.625q-.45.311-.869.666a7.9,7.9,0,0,0-.865.871,6.37,6.37,0,0,0-.668.981,4.208,4.208,0,0,0-.247.474c-.074.176-.142.354-.208.533s-.124.35-.18.528a6.372,6.372,0,0,0-.182.623,2.346,2.346,0,0,0-.035.5.722.722,0,0,0,.155.434.684.684,0,0,0,.239.2.761.761,0,0,0,.187.066,1.243,1.243,0,0,0,.272.019,4.245,4.245,0,0,0,.488-.035,3.656,3.656,0,0,0,.644-.134,6.044,6.044,0,0,0,1.25-.59c.238-.131.472-.269.707-.406.2-.116.41-.232.606-.363q.262-.176.507-.376c.189-.155.367-.322.542-.495-.043.169-.084.34-.115.511a6.369,6.369,0,0,0-.125,1.017,5.292,5.292,0,0,0,.05.853,5,5,0,0,0,.221.929,6.216,6.216,0,0,0,.439.933l.016.027c0,.022,0,.045,0,.068l0,.031a13.3,13.3,0,0,0,.064,1.523c.017.168.032.335.053.5a3.592,3.592,0,0,0,.092.448c.1.372.205.742.329,1.1.06.175.125.348.192.52s.143.317.218.472c.1.213.222.416.341.62.087.147.176.295.27.438a5.8,5.8,0,0,0,.8.921,6.015,6.015,0,0,0,.829.682,8,8,0,0,0,2.04.974c.164.054.326.113.492.162.2.057.393.111.592.153a5.333,5.333,0,0,0,1.182.107,1.97,1.97,0,0,0,.4-.038.666.666,0,0,0,.314-.143.618.618,0,0,0,.206-.383.848.848,0,0,0-.06-.394,1.905,1.905,0,0,0-.138-.286c-.065-.121-.133-.24-.2-.359a10.852,10.852,0,0,0-.654-1.032c-.224-.307-.467-.6-.707-.9a16.011,16.011,0,0,0-1.606-1.694c-.174-.158-.35-.315-.525-.472a14.942,14.942,0,0,0,1.593.169c.337.022.674.036,1.012.033.266,0,.531-.013.8-.026a15.155,15.155,0,0,0,1.736-.208c.124-.02.248-.043.371-.066a.263.263,0,0,0,.084,0l.112-.023a.789.789,0,0,0,.068.136c.042.069.084.137.124.208.062.128.124.256.2.379a3.392,3.392,0,0,0,.246.364c.107.142.219.28.327.422s.195.27.3.4a7.458,7.458,0,0,0,.837.878c.259.236.523.461.8.672a7.48,7.48,0,0,0,2.031,1.116,7.883,7.883,0,0,0,1.141.324c.188.036.376.071.565.1a5.422,5.422,0,0,0,.546.044c.118.005.241.012.359.006a3.058,3.058,0,0,0,.308-.035c.212-.033.421-.091.629-.142.174-.043.346-.094.518-.147a2.36,2.36,0,0,0,.569-.269,1.408,1.408,0,0,0,.321-.27.752.752,0,0,0,.171-.359.742.742,0,0,0,0-.191.8.8,0,0,0-.114-.321,1.9,1.9,0,0,0-.291-.385c-.151-.167-.3-.341-.469-.492-.128-.116-.261-.227-.4-.333s-.3-.226-.45-.341-.309-.239-.469-.352a9.483,9.483,0,0,0-1.01-.644c-.331-.175-.67-.336-1.011-.49s-.688-.282-1.034-.418a12.1,12.1,0,0,0-2.052-.635l.124-.042c.475-.164.944-.348,1.412-.532.211-.084.425-.162.636-.246.229-.092.457-.187.686-.28.446-.181.885-.376,1.322-.582l.318-.152a.371.371,0,0,0,.179-.084l.006-.005q.213-.1.424-.21a.822.822,0,0,0,.068.073,4.125,4.125,0,0,0,.922.62,6.614,6.614,0,0,0,.863.391,5.626,5.626,0,0,0,1.1.278,6,6,0,0,0,1.179.039,3.253,3.253,0,0,0,.5-.071,5.524,5.524,0,0,0,.658-.176c.166-.057.326-.127.489-.19s.324-.13.483-.2c.208-.1.41-.2.609-.316a3.613,3.613,0,0,0,.439-.31c.145-.116.284-.237.42-.365a2.229,2.229,0,0,0,.414-.488,2.654,2.654,0,0,0,.3-.708.655.655,0,0,0-.2-.68.975.975,0,0,0-.4-.162,2.621,2.621,0,0,0-.46-.052c-.168-.008-.336-.013-.5-.018-.294-.009-.589-.017-.883-.017q-.157,0-.313,0a10.019,10.019,0,0,0-1.132.09c-.232.03-.463.068-.694.107.152-.1.3-.2.457-.294.241-.155.49-.3.737-.445.517-.305,1.024-.631,1.541-.938.184-.11.367-.223.549-.336l.054.038c.284.2.571.4.856.594l-.147-.1c.223.156.448.311.672.466q.723.519,1.452,1.029c.488.342.983.673,1.475,1.008.471.321.943.643,1.418.957s.948.586,1.427.868c.372.219.744.436,1.119.647l-.282-.045c-.358-.054-.715-.112-1.076-.144q-.368-.031-.737-.031a8.789,8.789,0,0,0-1.485.127,4.208,4.208,0,0,0-.5.116c-.166.05-.335.1-.5.163a3.774,3.774,0,0,0-1.124.611,1.49,1.49,0,0,0-.164.166,1.59,1.59,0,0,0-.186.249,1.016,1.016,0,0,0-.088.2.7.7,0,0,0,.049.5,1.032,1.032,0,0,0,.234.291c.283.274.578.54.88.79a5.429,5.429,0,0,0,.89.611,11.557,11.557,0,0,0,1.109.512,10.813,10.813,0,0,0,1.072.363,6.743,6.743,0,0,0,1.156.25,5.65,5.65,0,0,0,1.1.006,5.163,5.163,0,0,0,.638-.091,3.378,3.378,0,0,0,.607-.194c.153-.064.3-.136.45-.211a2.964,2.964,0,0,0,.539-.361,4.851,4.851,0,0,0,.667-.734c.145-.179.293-.355.436-.536.079-.1.162-.189.241-.286.066-.082.133-.165.191-.252l.117.05c.256.106.516.2.774.3s.509.206.766.3c.3.116.612.223.92.328.246.085.492.172.743.238s.5.125.745.178c.509.109,1.025.2,1.541.275s1.023.135,1.538.167c.568.034,1.136.046,1.7.06.4.009.8-.01,1.2-.04a9.527,9.527,0,0,0,1.318-.2l-.094.021.1-.022.017,0q.171-.038.341-.08l-.178.039c.226-.05.449-.109.675-.161h0c.089-.021.178-.043.267-.066-.052.083-.1.166-.154.249-.209.346-.415.692-.6,1.051a10.8,10.8,0,0,0-.49,1.036,8.467,8.467,0,0,0-.357,1.161c-.044.18-.091.36-.121.543-.012.073-.021.146-.027.219a1.636,1.636,0,0,0-.012.339.738.738,0,0,0,.436.584,1.154,1.154,0,0,0,.565.069,1.585,1.585,0,0,0,.378-.1,1.817,1.817,0,0,0,.233-.1c.365-.19.711-.42,1.057-.646.153-.1.3-.2.45-.31a3.854,3.854,0,0,0,.407-.353,6.819,6.819,0,0,0,.8-.935c.108-.151.218-.3.32-.458.126-.193.244-.393.356-.6a10.439,10.439,0,0,0,.488-.98,6.474,6.474,0,0,0,.386-1.093,4.391,4.391,0,0,0,.076-.484c.019-.174.042-.348.063-.522s.046-.349.062-.525c.022-.229.029-.458.035-.688,0-.1,0-.2.005-.305.007-.139.017-.278.029-.417.054-.085.108-.171.159-.257.08-.135.156-.274.222-.417.058-.124.108-.251.158-.378l.028-.055a13.012,13.012,0,0,0,.639-1.752c.073-.232.128-.47.187-.707s.118-.489.161-.738a6.168,6.168,0,0,0,.089-.937s0-.008,0-.011c.005-.063.012-.127.016-.19a4.18,4.18,0,0,0,.01-.619,2.091,2.091,0,0,0-.122-.533,7.587,7.587,0,0,0-.295-1.283,5.943,5.943,0,0,0-.8-1.515q-.186-.27-.389-.525a8.221,8.221,0,0,0,.826.228,20.374,20.374,0,0,0,2.29.328,8.9,8.9,0,0,0,1.089.026,9.055,9.055,0,0,0,1.09-.093,4.646,4.646,0,0,0,1.173-.281c.2-.085.4-.169.589-.273a3.335,3.335,0,0,0,.448-.3,1.609,1.609,0,0,0,.3-.27,1.157,1.157,0,0,0,.12-.184.754.754,0,0,0,.072-.317A1.136,1.136,0,0,0,582.476,339.6Zm-47.264,14.008a13.965,13.965,0,0,1,1.652.819c.145.095.335.22.52.354.139.1.277.208.413.313l.166.128.024.019c.178.136.381.291.572.456a5.354,5.354,0,0,1,.434.426l.023.026.009.013,0,0h0a4.555,4.555,0,0,1-.538.163c-.14.032-.3.07-.466.1a2.689,2.689,0,0,1-.454.036h-.032l-.017,0c-.107-.006-.228-.014-.346-.032-.179-.028-.315-.052-.441-.078-.248-.05-.5-.112-.766-.189a7.567,7.567,0,0,1-.877-.338,7.8,7.8,0,0,1-.8-.437,9.1,9.1,0,0,1-.89-.691c-.268-.237-.527-.47-.765-.721-.134-.155-.255-.309-.37-.47-.065-.092-.134-.182-.2-.272l-.014-.018c-.063-.084-.129-.171-.191-.258-.075-.1-.172-.245-.265-.4v0c.263.029.523.075.768.12a11.586,11.586,0,0,1,1.152.269C534.068,353.128,534.589,353.344,535.212,353.608Zm4.816-15.7c-.057-.177-.108-.355-.154-.528l-.023-.087c-.042-.157-.085-.32-.114-.482-.037-.2-.07-.406-.1-.634-.023-.159-.037-.323-.05-.481v-.009l-.009-.106c-.012-.2-.019-.378-.022-.557,0-.066,0-.132,0-.2v-.011c0-.167-.008-.341-.005-.51a6.44,6.44,0,0,1,.08-.853h0a5.491,5.491,0,0,1,.477.6l-.031-.047.033.049.04.059c.385.583.662,1.042.9,1.488a11.968,11.968,0,0,1,.692,1.608,9.811,9.811,0,0,1,.4,2.036c.009.146.014.28.017.408s0,.241-.005.357v.009l0,.1a6.871,6.871,0,0,1-.067.825,3.566,3.566,0,0,1-.148.461l-.02.052h0v0c-.185-.247-.368-.515-.528-.751l-.057-.083-.113-.166c-.1-.154-.211-.322-.3-.493-.15-.275-.265-.5-.362-.714-.19-.418-.347-.861-.5-1.293Zm-7.874,5.438a3.064,3.064,0,0,1,.239-.287,3.721,3.721,0,0,1,.414-.332,6.3,6.3,0,0,1,.546-.324l.019-.009.02-.011-.019.01.019-.009-.013.007a8.933,8.933,0,0,1,1.789-.668,8.76,8.76,0,0,1,1.066-.182c.315-.032.681-.066,1.043-.066h.07c.21.011.378.025.529.047l.081.011h0c-.035.044-.07.089-.106.132l-.04.047c-.144.171-.307.366-.479.538a6.118,6.118,0,0,1-1.022.756,5.136,5.136,0,0,1-.988.377c-.181.043-.42.1-.664.134a3.614,3.614,0,0,1-.547.036l-.145,0c-.321-.012-.656-.035-1-.067-.18-.017-.369-.038-.556-.074-.072-.014-.144-.031-.222-.054l-.038-.01h0Zm-7.7.592a3.348,3.348,0,0,1,.094-.488,4.832,4.832,0,0,1,.37-.872,5.191,5.191,0,0,1,.3-.438c.132-.172.274-.345.4-.5l.014-.018c.289-.35.567-.661.848-.951a7.664,7.664,0,0,1,.72-.617c.24-.178.5-.348.783-.52l.017-.009h0v0c-.023.1-.048.209-.076.311-.041.135-.083.269-.126.4-.057.182-.109.346-.159.513a4.723,4.723,0,0,1-.192.547,4.536,4.536,0,0,1-.23.453,5.449,5.449,0,0,1-.328.5,4.813,4.813,0,0,1-.345.407,6.013,6.013,0,0,1-.718.575l-.054.038c-.214.148-.435.3-.66.437-.079.042-.154.079-.232.114a1.465,1.465,0,0,1-.207.072c-.08.017-.147.028-.212.037h-.009Zm2.139-7.9-.007,0c-.2-.095-.427-.2-.644-.318-.177-.094-.354-.21-.5-.3-.231-.155-.466-.332-.718-.54l-.054-.044c-.1-.084-.216-.178-.322-.276-.091-.085-.184-.18-.3-.31-.059-.069-.114-.139-.165-.209l-.019-.025h0v0c.169-.036.324-.065.475-.089a4.465,4.465,0,0,1,.681-.049h.064c.231.01.473.031.787.065a4.455,4.455,0,0,1,.763.155c.267.094.53.213.789.331.14.064.284.13.428.191.229.1.434.191.626.29a6,6,0,0,1,.531.318l.016.01c.118.079.235.164.349.246l.01.007.171.123.2.144c.124.088.254.178.378.271.223.167.4.307.563.442a5.014,5.014,0,0,1,.459.439,3.971,3.971,0,0,1,.274.358c.038.056.07.109.1.161l.016.027h0v0c-.136-.028-.277-.046-.412-.063h-.01c-.131-.016-.279-.034-.421-.063s-.3-.07-.442-.107l-.008,0c-.125-.032-.237-.062-.352-.088l-.115-.026c-.251-.056-.509-.113-.764-.189-.212-.069-.439-.141-.663-.2l-.059-.016-.011,0c-.15-.041-.3-.082-.451-.126A12.255,12.255,0,0,1,526.595,336.043Zm-5.326,12.14c.242-.035.481-.073.709-.112.253-.044.511-.075.768-.094.224-.016.454-.021.672-.026a6.924,6.924,0,0,1,.885.055c.149.019.3.04.456.069.121.023.247.052.4.09.287.085.594.193.938.327.2.077.358.144.5.209l.076.033h0c-.035.026-.071.05-.108.074l-.011.007c-.12.073-.244.147-.372.215a3.228,3.228,0,0,1-.458.188,7.009,7.009,0,0,1-1.689.207c-.136,0-.255-.008-.362-.019a3.12,3.12,0,0,1-.4-.075c-.187-.06-.38-.132-.59-.219a5.6,5.6,0,0,1-.589-.294,4.16,4.16,0,0,1-.659-.482c-.045-.041-.089-.083-.132-.125l-.029-.027h0Zm-1.9-4.319-.094.095-.039.039-.033.032-.012.012-.007.007-.009.009-.013.013-.006,0h0l.005,0c-.113.113-.224.227-.335.341l-.112.115c-.144.141-.257.244-.366.337-.14.118-.3.238-.476.368-.253.181-.534.343-.782.486l-.243.141q-.162.092-.322.186a5.778,5.778,0,0,1-1.071.491,2.777,2.777,0,0,1-.348.058h-.04c.1-.331.2-.631.3-.918.055-.15.116-.3.189-.466a3.829,3.829,0,0,1,.217-.4l.017-.026.014-.024-.013.022.005-.007a5.056,5.056,0,0,1,.361-.528c.14-.174.3-.353.488-.548a9.027,9.027,0,0,1,.86-.725,10.979,10.979,0,0,1,.939-.636c.122-.068.245-.134.369-.2l.079-.043c.115-.062.233-.125.354-.178a6.2,6.2,0,0,1,.873-.308c.118-.029.237-.059.355-.089a5.592,5.592,0,0,1,.739-.129c.057-.005.118-.007.2-.007h.094l.021,0h.007l-.012.019-.013.019c-.03.044-.059.09-.087.135l-.049.076h0l-.006.009-.007.008h0c-.136.158-.256.307-.367.455h0l-.009.011-.081.086c-.136.142-.271.3-.391.435-.091.105-.187.213-.282.319-.232.253-.425.463-.632.67l-.011.012-.145.145Zm6,11.057c.184.214.377.448.573.694.217.274.392.5.551.716a8.254,8.254,0,0,1,.474.727l.015.026c.029.054.06.108.088.163l.016.028h0v0c-.089-.008-.18-.017-.277-.029a4.543,4.543,0,0,1-.576-.124c-.323-.094-.662-.211-1-.348l-.072-.029c-.151-.06-.321-.127-.483-.2-.185-.082-.363-.179-.529-.271-.215-.135-.433-.288-.648-.454a5.828,5.828,0,0,1-.54-.5l-.03-.03a4.319,4.319,0,0,1-.429-.52c-.119-.173-.229-.36-.321-.521a7.08,7.08,0,0,1-.487-1.055c-.112-.31-.213-.632-.31-.984a5.157,5.157,0,0,1-.129-.678c-.013-.106-.024-.213-.032-.321h0c.046.033.092.066.138.1.067.051.132.1.2.155l.207.162c.293.224.594.46.92.719.238.19.465.4.685.607l.126.117.362.337c.155.145.31.291.467.435s.309.291.5.477S525.192,354.714,525.37,354.922Zm6.2-4.222c.023-.165.051-.315.085-.46.059-.253.138-.5.227-.769a5.676,5.676,0,0,1,.535-1.106,8.188,8.188,0,0,1,.577-.766l.021-.024c.1-.116.207-.235.319-.343s.225-.212.339-.316a5.215,5.215,0,0,1,.47-.369h0c0,.051.005.1,0,.155a3.844,3.844,0,0,1-.147.667,8.6,8.6,0,0,1-.819,1.573,7.156,7.156,0,0,1-.722.906c-.12.124-.248.246-.372.363l-.013.012-.034.032c-.061.057-.121.115-.184.176s-.149.143-.225.213c-.017.015-.035.03-.054.045l-.009.008h0Zm11.725-2.314c.193-.014.4-.021.651-.021l.268,0,.111,0c.236.009.472.017.708.028l.083,0h.018l.117.008h.024c-.036.044-.075.088-.116.131a6.151,6.151,0,0,1-.774.6,6.233,6.233,0,0,1-.766.344l-.115.043c-.23.087-.468.177-.711.246a5.674,5.674,0,0,1-.577.091,3.614,3.614,0,0,1-.392.018h-.05a5.43,5.43,0,0,1-1.211-.2,5.8,5.8,0,0,1-.714-.305c-.141-.069-.27-.137-.392-.207l-.053-.03h0c.29-.093.583-.174.856-.246.594-.148,1.24-.273,1.975-.383C542.625,348.451,542.972,348.411,543.3,348.387Zm.548-3.633c-.254.15-.505.305-.756.462s-.508.308-.762.461-.527.314-.786.48-.488.322-.74.47c-.444.262-.895.51-1.345.761-.429.24-.86.476-1.294.706l-.33.174c-.524.268-1.056.521-1.591.766-.51.234-1.034.439-1.555.647-.274.11-.552.212-.827.321l-.235.093a10.075,10.075,0,0,0,.821-1.2,6.854,6.854,0,0,0,.482-.966,3.891,3.891,0,0,0,.283-1.108,2.067,2.067,0,0,0,.008-.366,2.16,2.16,0,0,0-.064-.357,1.7,1.7,0,0,0-.174-.444.78.78,0,0,0-.47-.363.842.842,0,0,0-.193-.023.768.768,0,0,0-.227.034,1.99,1.99,0,0,0-.32.145,3.064,3.064,0,0,0-.456.31c-.176.135-.341.286-.505.435q-.216.2-.42.4a7.1,7.1,0,0,0-.7.86,6.064,6.064,0,0,0-.62,1.036,9.943,9.943,0,0,0-.437,1.2,5.655,5.655,0,0,0-.2.976c-.017.146-.028.294-.038.441l-.011,0c-.678.141-1.362.251-2.05.324-.35.037-.7.048-1.054.058q-.167,0-.334,0c-.216,0-.431-.006-.647-.017a11.4,11.4,0,0,1-2.7-.44,4.625,4.625,0,0,1-.493-.225c-.177-.094-.349-.2-.518-.306a6.307,6.307,0,0,1-.716-.615l.044.025a5.758,5.758,0,0,0,1.015.422,3.406,3.406,0,0,0,.658.138,5.247,5.247,0,0,0,.654.015,8.78,8.78,0,0,0,1.074-.08,4.744,4.744,0,0,0,.506-.1,3.675,3.675,0,0,0,.638-.211,4.6,4.6,0,0,0,.479-.26,4.864,4.864,0,0,0,.507-.334,2.26,2.26,0,0,0,.255-.254,1.359,1.359,0,0,0,.177-.279.941.941,0,0,0,.081-.272.617.617,0,0,0,0-.244.743.743,0,0,0-.139-.323,1.3,1.3,0,0,0-.123-.122,1.155,1.155,0,0,0-.234-.142l-.132-.066c-.085-.041-.171-.078-.257-.116-.158-.069-.315-.139-.475-.2-.349-.137-.7-.27-1.057-.377-.206-.061-.413-.118-.623-.159-.18-.036-.363-.062-.544-.088a8.039,8.039,0,0,0-1.192-.054,8.893,8.893,0,0,0-.995.048c-.344.041-.685.1-1.029.145l-.494.062-.056.007c0-.06,0-.119,0-.179a7.9,7.9,0,0,1,.136-.882c.07-.322.151-.641.24-.958.1-.288.2-.571.326-.849a7.337,7.337,0,0,1,.455-.855,9.958,9.958,0,0,1,1.392-1.63,10.631,10.631,0,0,1,1.952-1.391q.223-.114.45-.221c-.2.208-.4.425-.593.646-.236.272-.471.546-.687.836a5.032,5.032,0,0,0-.6,1.053,5.747,5.747,0,0,0-.21.62,3.105,3.105,0,0,0-.1.466c-.02.158-.032.316-.054.474a.87.87,0,0,0,.023.453.615.615,0,0,0,.2.273.813.813,0,0,0,.305.137,1.6,1.6,0,0,0,.531.024,3.152,3.152,0,0,0,.5-.08,2.956,2.956,0,0,0,.37-.107c.08-.031.158-.069.234-.107a5.7,5.7,0,0,0,.515-.3c.265-.171.537-.338.789-.529a5.459,5.459,0,0,0,.83-.781,5.9,5.9,0,0,0,.667-.982c.088-.158.168-.317.243-.483a4.431,4.431,0,0,0,.174-.508c.1-.325.211-.646.312-.97.06-.193.114-.39.156-.588.028-.133.05-.268.081-.4l0-.008.008-.01c.082-.073.169-.142.256-.209.282-.02.564-.035.847-.04.243,0,.485.008.727.022.157.015.315.024.472.047.2.029.4.06.6.1.366.072.728.168,1.088.266.7.189,1.393.414,2.084.64l.736.273.275.1c-.233.019-.465.043-.695.078a9.741,9.741,0,0,0-1.137.254,9.536,9.536,0,0,0-1.046.358,9.17,9.17,0,0,0-1.035.521,4.181,4.181,0,0,0-.935.727,4.063,4.063,0,0,0-.535.727.945.945,0,0,0-.144.332.723.723,0,0,0,.031.356.7.7,0,0,0,.191.287.508.508,0,0,0,.065.058,1.951,1.951,0,0,0,.289.182,1.541,1.541,0,0,0,.218.086l-.031-.009.042.013.1.032-.007,0,.032.01.016,0,.009,0h0c.154.048.31.095.467.127.179.037.361.057.543.076.353.037.709.063,1.064.077.208.008.416.017.624.007a3.9,3.9,0,0,0,.5-.062,7.523,7.523,0,0,0,1.123-.269c.144-.05.287-.1.427-.163a5.048,5.048,0,0,0,.562-.295,5.354,5.354,0,0,0,.8-.575,6.721,6.721,0,0,0,.694-.7c.1-.113.193-.227.283-.346a2.676,2.676,0,0,1,.19-.227c.057-.053.112-.107.167-.161a.809.809,0,0,0,.075-.088c.24.135.479.272.717.412q.757.446,1.525.87c.471.26.934.538,1.4.816q.549.331,1.084.689Zm25.529-5.384c.035-.106.078-.22.133-.349h0l.074.032.013.005h0l0,0h0a2.118,2.118,0,0,0,.2.236c.068.069.136.137.2.206a7.5,7.5,0,0,1,.843,1.242c.128.256.228.474.312.687a6.19,6.19,0,0,1,.231.715,5.608,5.608,0,0,1,.125.794c.019.3.03.6.031.892a7.422,7.422,0,0,1-.269,1.532c-.036.116-.074.23-.111.345l0,.012-.05.15a2.679,2.679,0,0,1-.2.455,1.525,1.525,0,0,1-.1.13l0,0h0v0c-.022-.03-.044-.062-.065-.093a2.832,2.832,0,0,1-.146-.247,10.335,10.335,0,0,1-.616-1.6c-.055-.182-.1-.37-.149-.551l0-.016c-.022-.087-.044-.173-.067-.259-.073-.273-.138-.531-.2-.764-.041-.189-.081-.395-.126-.647l-.021-.111c-.036-.192-.073-.391-.094-.591a11.759,11.759,0,0,1-.076-1.383A4.169,4.169,0,0,1,569.373,339.37Zm-5.558,1.836-.124.088a6.992,6.992,0,0,1-.71.439,5.173,5.173,0,0,1-.569.255,5.11,5.11,0,0,1-.571.173c-.165.033-.336.059-.509.076a3.093,3.093,0,0,1-.317.015c-.06,0-.119,0-.178,0a7.229,7.229,0,0,1-.873-.128,7.939,7.939,0,0,1-.862-.245c-.247-.084-.539-.187-.837-.318a5.037,5.037,0,0,1-.744-.411c-.139-.1-.272-.216-.4-.329l-.091-.078c-.1-.085-.2-.168-.3-.251l-.035-.028-.157-.129a5.005,5.005,0,0,1-.379-.354l-.027-.027h0c.087-.024.173-.046.261-.068a8.845,8.845,0,0,1,1.248-.163c.132-.007.269-.011.417-.011.255,0,.513.011.735.021.295.022.6.056.86.087s.544.09.809.147l.063.014c.239.052.479.118.71.183l.12.033c.246.067.488.14.719.215.507.191.921.367,1.3.553.135.066.27.139.412.223l.037.021h0Zm-4.482-4.4.071-.13c.07-.129.15-.276.235-.415.094-.155.194-.31.3-.473a9.215,9.215,0,0,1,.962-1.15c.136-.135.282-.264.424-.389l.009-.008.105-.094.112-.1c.124-.111.249-.222.374-.331a11.656,11.656,0,0,1,.949-.7c.175-.118.363-.231.574-.346.126-.07.255-.131.4-.2l.04-.018c.285-.132.526-.238.756-.335s.5-.184.736-.256l.024-.008c.437-.136.953-.292,1.477-.407.162-.025.307-.045.444-.062l.148-.015v0c-.011.037-.022.074-.034.111a6.187,6.187,0,0,1-.328.7c-.117.212-.25.43-.4.664a11.972,11.972,0,0,1-.909,1.063c-.289.307-.6.612-.954.931a8.151,8.151,0,0,1-1.355.954c-.192.088-.39.172-.581.252l-.013.005-.033.014-.232.1c-.147.063-.313.134-.483.192-.106.037-.214.07-.333.106l-.155.047-.068.021-.064.02c-.278.087-.556.174-.834.258-.158.048-.319.092-.456.128l-.012,0c-.131.036-.28.076-.425.106l-.058.009-.028.005.022,0-.213.031-.023,0c-.1.015-.212.031-.319.049l-.046.008h0C559.2,337.033,559.268,336.919,559.332,336.8ZM548.81,340a8,8,0,0,1,.186-1.068c.074-.308.17-.634.294-1,.1-.258.21-.55.337-.822a6.22,6.22,0,0,1,.377-.682,16.638,16.638,0,0,1,1.173-1.437c.209-.233.434-.481.663-.721.21-.219.429-.425.674-.652.091-.08.164-.142.231-.2l.14-.112v0h0v.006a9.28,9.28,0,0,1-.194,1.167c-.1.439-.239.862-.347,1.181a19.539,19.539,0,0,1-.94,1.99l-.01.019c-.113.219-.236.445-.335.627-.073.134-.146.269-.218.4-.144.271-.337.625-.551.962-.054.086-.11.171-.166.255-.2.3-.378.53-.551.74-.2.247-.415.493-.628.731l-.046.049-.026.028h0l-.01-.088c-.008-.067-.015-.135-.021-.2l-.01-.09c-.016-.17-.034-.346-.038-.519S548.8,340.2,548.81,340Zm11.105,12.179-.166-.113c-.271-.184-.551-.392-.856-.634a10.5,10.5,0,0,1-.931-.913,11.959,11.959,0,0,1-.784-1l-.038-.058a11.048,11.048,0,0,1-.614-1c-.2-.39-.371-.748-.513-1.1-.065-.186-.117-.38-.16-.546h0a3.926,3.926,0,0,1,.457.176,4.978,4.978,0,0,1,.533.327c.138.094.277.2.425.32.2.18.408.381.608.6l.019.021.007.007a7.414,7.414,0,0,1,.537.629c.18.265.351.541.516.81l.01.017.02.033a5.813,5.813,0,0,1,.466.916q.1.275.2.551a5.607,5.607,0,0,1,.2.623c.021.089.04.182.058.286l.008.042h0Zm-3.388.427-.008.009c-.083.1-.168.2-.25.309s-.162.2-.244.3l-.02.024c-.062.074-.123.148-.183.223a3.822,3.822,0,0,1-.492.51,3.947,3.947,0,0,1-.665.356,3.647,3.647,0,0,1-.78.181c-.179.016-.357.025-.529.025a5.361,5.361,0,0,1-.617-.036,10.79,10.79,0,0,1-2.449-.789,5.631,5.631,0,0,1-.574-.316,6.327,6.327,0,0,1-.571-.414l-.207-.182-.165-.145c-.033-.028-.065-.057-.1-.087l-.009-.007h0a4.158,4.158,0,0,1,.6-.313,5.644,5.644,0,0,1,.7-.225,7.15,7.15,0,0,1,.776-.134c.253-.024.513-.036.773-.036.222,0,.452.009.685.026.527.039,1.064.125,1.542.2l.162.029c.147.026.3.053.451.076l.089.014.025,0,.535.082c.323.054.665.105,1.044.157l.33.047,0,0h0l.063.03.086.042.012.005h0Zm10.423.887c-.095,0-.19.005-.285.005-.244,0-.488-.009-.732-.015-.317-.007-.634-.019-.95-.033a22.6,22.6,0,0,1-2.272-.3c-.243-.042-.487-.088-.729-.14a.23.23,0,0,0-.054-.018,5.818,5.818,0,0,1-.681-.175c-.009-.138-.036-.275-.058-.411-.03-.184-.07-.367-.1-.55a4.594,4.594,0,0,0-.111-.5c-.05-.165-.11-.327-.172-.488l.011.029c-.025-.064-.048-.128-.072-.192l.057.152-.078-.207q-.057-.156-.117-.312c-.06-.159-.121-.318-.189-.474a4.617,4.617,0,0,0-.24-.464c-.088-.152-.185-.3-.279-.448s-.191-.3-.29-.444c-.12-.175-.236-.354-.368-.52-.111-.14-.229-.273-.351-.4a10.62,10.62,0,0,0-.806-.782l0,0,0,0a7.479,7.479,0,0,0-.727-.545,4.781,4.781,0,0,0-.894-.456,2.936,2.936,0,0,0-.915-.2l-.081,0a1.886,1.886,0,0,0-.351.034.6.6,0,0,0-.447.43.868.868,0,0,0,0,.361c.007.052.014.1.025.155.018.083.042.165.065.246.047.159.091.319.139.477a7.793,7.793,0,0,0,.443,1.108c.08.166.166.329.254.492s.178.338.283.5c.235.356.471.712.732,1.047.113.146.226.292.342.435s.25.285.379.424l.031.032c-1-.456-1.968-.993-2.938-1.518-.521-.282-1.032-.587-1.544-.886-.468-.273-.935-.549-1.387-.851-.938-.628-1.877-1.255-2.809-1.892l-.222-.152q-.255-.181-.51-.359c-.337-.236-.672-.474-1.013-.7l-.4-.274q.4-.242.8-.482c.857-.513,1.739-.984,2.621-1.449.317-.163.637-.318.953-.482.332-.172.666-.34,1-.5s.647-.307.966-.469c.371-.188.742-.384,1.109-.582.28-.146.562-.286.846-.423.033.05.064.1.1.148a1.946,1.946,0,0,0,.18.2c.038.036.077.069.113.106.107.108.21.22.319.325s.223.2.337.288c.26.21.515.427.778.632a5.314,5.314,0,0,0,.545.359,4.5,4.5,0,0,0,.456.245,11.257,11.257,0,0,0,1.159.432,8.566,8.566,0,0,0,1.039.284,6.554,6.554,0,0,0,1.2.117,4.8,4.8,0,0,0,1.187-.174,4.64,4.64,0,0,0,1-.38,7.566,7.566,0,0,0,1.027-.611c.146-.106.287-.216.429-.327.064-.05.126-.1.188-.154a.9.9,0,0,0,.4-.532.675.675,0,0,0-.021-.306.593.593,0,0,0-.161-.256.742.742,0,0,0-.174-.121l-.187-.116c-.142-.088-.284-.175-.429-.257a9.663,9.663,0,0,0-.977-.469c-.161-.068-.325-.131-.489-.191-.2-.074-.4-.151-.61-.212-.351-.1-.705-.193-1.058-.287-.17-.046-.345-.079-.518-.113s-.352-.075-.529-.1c-.367-.052-.737-.088-1.106-.109-.061,0-.122-.006-.183-.008.152-.039.3-.073.457-.109.264-.062.528-.121.792-.181.8-.167,1.606-.295,2.415-.393.2-.023.392-.043.589-.056s.424-.037.634-.039c.408,0,.815.01,1.222.03a19.814,19.814,0,0,1,2.02.276c.317.059.633.127.944.215q.264.075.525.159a3.766,3.766,0,0,0-.257.9,7.4,7.4,0,0,0-.048,1.174,9.8,9.8,0,0,0,.089,1.174c.025.179.06.358.092.537s.066.366.1.547c.088.407.194.81.3,1.212.095.362.19.723.3,1.08a9.338,9.338,0,0,0,.412,1.045,4.49,4.49,0,0,0,.578.987,1.325,1.325,0,0,0,.259.261c.058.039.117.077.176.113a.844.844,0,0,0,.228.077.836.836,0,0,0,.436-.039.81.81,0,0,0,.346-.248,2.958,2.958,0,0,0,.273-.333,2.716,2.716,0,0,0,.307-.562c.067-.165.117-.336.173-.5.075-.225.14-.454.2-.685.047-.18.087-.364.12-.547a5.108,5.108,0,0,0,.079-.545,8.206,8.206,0,0,0,0-1.227,6.7,6.7,0,0,0-.2-1.25c-.049-.181-.1-.359-.167-.536s-.146-.368-.228-.549q-.082-.18-.174-.355c.271.207.535.424.8.646a8.867,8.867,0,0,1,.929.942c.177.216.342.443.5.676a7.232,7.232,0,0,1,.439.714,5.625,5.625,0,0,1,.245.659,4.542,4.542,0,0,1,.054.733c-.016.22-.051.437-.072.656s-.045.44-.079.66-.09.44-.137.66c-.054.252-.114.5-.186.748s-.157.469-.244.7q-.068.184-.128.369a2.514,2.514,0,0,0-.388-.161c-.208-.067-.417-.122-.63-.17-.161-.036-.323-.077-.486-.1a10.513,10.513,0,0,0-1.209-.095c-.248-.006-.5-.012-.745-.012q-.191,0-.382.005a9.092,9.092,0,0,0-1.1.082c-.179.027-.358.054-.536.093-.23.049-.458.106-.686.165a9.938,9.938,0,0,0-1.073.333c-.161.061-.32.132-.478.2s-.322.141-.477.222a4.129,4.129,0,0,0-.547.328,1.167,1.167,0,0,0-.308.324.931.931,0,0,0-.142.333.7.7,0,0,0,.044.4,1.54,1.54,0,0,0,.116.222,1.642,1.642,0,0,0,.194.234,2.362,2.362,0,0,0,.381.316,5.263,5.263,0,0,0,.572.334,5.087,5.087,0,0,0,1.039.39,4.292,4.292,0,0,0,1,.169,9.352,9.352,0,0,0,1.211-.01c.362-.032.725-.061,1.083-.127a9.459,9.459,0,0,0,1.152-.3c.217-.068.434-.135.652-.2-.1.1-.2.207-.3.306a12.864,12.864,0,0,1-1.188.931l-.121.064a2.829,2.829,0,0,1-.508.175c-.2.053-.4.108-.6.156l.039-.008c-.177.04-.351.086-.527.127l.148-.032-.384.089A11.052,11.052,0,0,1,566.95,353.493Zm1.495-2.516h-.111a4.042,4.042,0,0,1-.649-.067c-.2-.041-.4-.092-.6-.152a4.185,4.185,0,0,1-.464-.188c-.152-.074-.305-.156-.453-.245-.039-.028-.084-.061-.129-.1l-.016-.013h0c.029-.019.058-.037.088-.055.14-.077.286-.144.428-.208l.073-.033c.154-.071.337-.153.527-.227a11.084,11.084,0,0,1,1.16-.365c.211-.051.437-.1.67-.141.3-.048.571-.079.84-.1s.576-.028.938-.028c.208,0,.415,0,.622.006a7.41,7.41,0,0,1,.963.084,8.1,8.1,0,0,1,.929.208c.042.015.077.029.109.044l.014.005h0c-.135.13-.249.231-.358.318a4.369,4.369,0,0,1-.467.321,3.482,3.482,0,0,1-.426.194c-.115.043-.236.081-.359.12l-.151.048-.2.067-.071.024c-.243.081-.494.165-.745.235a9.681,9.681,0,0,1-1.091.18A9.43,9.43,0,0,1,568.445,350.977Zm4.8,2.056c-.012.088-.021.178-.032.274a5.092,5.092,0,0,1-.108.7c-.1.319-.232.627-.357.915-.145.337-.327.663-.487.95a8.447,8.447,0,0,1-1.072,1.425c-.11.1-.218.2-.329.286s-.251.183-.382.271l-.038.026c-.227.153-.5.333-.769.5-.023.012-.045.024-.069.034l-.015.007h0c.036-.178.086-.413.149-.647a7.62,7.62,0,0,1,.445-1.146c.189-.388.392-.769.6-1.132l.211-.36a10.791,10.791,0,0,1,1.207-1.547l0,0h0c.137-.091.272-.191.408-.293l.01-.007a5.6,5.6,0,0,0,.658-.6h0C573.278,352.8,573.264,352.914,573.249,353.033Zm8.013-12.878a2.559,2.559,0,0,1-.319.175c-.167.073-.308.129-.444.175a3.625,3.625,0,0,1-.5.119l-.008,0a9.83,9.83,0,0,1-1.344.125h-.073l-.268,0c-.14,0-.257,0-.368-.009-.195-.01-.4-.027-.659-.051-.446-.053-.91-.12-1.506-.218a6.378,6.378,0,0,1-.73-.177l-.021-.006-.006,0c-.217-.063-.44-.129-.656-.208a11.249,11.249,0,0,1-1.109-.528c-.171-.094-.356-.191-.565-.3l-.064-.035-.038-.019h0l.178-.077.064-.027c.126-.055.257-.112.386-.164a9.237,9.237,0,0,1,.884-.3c.151-.044.327-.095.506-.139.157-.04.323-.07.469-.1l.039-.007.193-.034c.263-.034.524-.059.776-.073.073,0,.151-.006.23-.006.145,0,.3.007.5.02a11.093,11.093,0,0,1,1.308.283l.155.04c.268.069.529.143.774.22.172.054.353.117.587.207a.539.539,0,0,0,.09.038.493.493,0,0,0,.056.019c.138.055.247.1.343.144.164.074.322.158.455.232a7.724,7.724,0,0,1,.832.535l.02.019,0,0h0C581.374,340.082,581.32,340.119,581.262,340.155Zm.274,0v0Z" transform="translate(-513.905 -330.23)"/><path class="b" d="M602.015,361.918h0l0,0Z" transform="translate(-557.838 -345.346)"/><path class="b" d="M527.347,387.013c.259.091.518.182.777.271l.07.025c.19.068.377.142.565.213.232.087.463.176.7.252.134.043.271.077.406.117a.613.613,0,0,0,.209.086.592.592,0,0,0,.613-.9c-.219-.355-.686-.393-1.05-.5-.249-.073-.494-.162-.74-.245l-.272-.093a.575.575,0,0,0-.176-.059l-.457-.152a6.314,6.314,0,0,0-.649-.211.513.513,0,0,0-.118-.014.563.563,0,0,0-.336.117l-.023.005-.129.062a.56.56,0,0,0-.2.218c-.2.3-.374.612-.557.922s-.367.63-.535.952c-.177.338-.362.674-.545,1.009s-.345.668-.525,1c-.209.383-.409.77-.6,1.165-.1.213-.206.425-.316.633-.059.111-.123.219-.183.33-.026.048-.051.1-.074.146-.009.021-.018.042-.027.064a1.006,1.006,0,0,0-.083.416.592.592,0,0,0,1.164.115c.028-.053.06-.1.089-.155.045-.078.093-.157.136-.236.087-.158.166-.319.244-.481.14-.29.273-.583.412-.873.154-.323.328-.635.488-.955.1-.192.192-.386.288-.579.15.057.3.115.451.165.175.058.352.11.527.167.274.1.545.207.827.28a1.989,1.989,0,0,0,.252.046,1.116,1.116,0,0,1,.195.032.609.609,0,0,0,.394-1.141.943.943,0,0,0-.293-.1c-.068-.006-.135-.009-.2-.013A2.955,2.955,0,0,1,527.6,389c-.207-.06-.409-.132-.617-.19-.178-.049-.358-.093-.536-.146l-.006,0c.128-.246.257-.491.392-.733C527,387.624,527.167,387.314,527.347,387.013Zm2.5.867Zm-1.782-.617.038.013h0l-.052-.018Z" transform="translate(-518.292 -356.74)"/><path class="b" d="M549.8,391.537l0,.008.007.016Z" transform="translate(-531.804 -359.476)"/><path class="b" d="M542.985,390.346a1.555,1.555,0,0,0-.081-.2,1.266,1.266,0,0,0-.134-.228c-.036-.047-.072-.094-.111-.137-.038-.059-.075-.118-.116-.175a2.322,2.322,0,0,0-.184-.221,2.047,2.047,0,0,0-.361-.293,2.4,2.4,0,0,0-.294-.185,2.847,2.847,0,0,0-.265-.116,2.582,2.582,0,0,0-.6-.16,5.282,5.282,0,0,0-.649-.031h-.022a3.168,3.168,0,0,0-.672.1,3.586,3.586,0,0,0-1.107.469,6.128,6.128,0,0,0-.954.743,5.556,5.556,0,0,0-.738.851,12.065,12.065,0,0,0-.7,1.08,3.8,3.8,0,0,0-.213.507c-.077.21-.154.421-.214.636a5.836,5.836,0,0,0-.212,1.078,4.576,4.576,0,0,0-.022.661,2.232,2.232,0,0,0,.038.257,1.73,1.73,0,0,0,.106.395c.037.085.074.171.117.254a4.843,4.843,0,0,0,.625.918,3.92,3.92,0,0,0,.468.487c.108.091.234.168.35.248a1.011,1.011,0,0,0,.23.113,3.417,3.417,0,0,0,.328.107,2.152,2.152,0,0,0,.525.039,1.856,1.856,0,0,0,.285-.023,2.962,2.962,0,0,0,.648-.154,3.9,3.9,0,0,0,.6-.307,4.122,4.122,0,0,0,.523-.42,6.186,6.186,0,0,0,.772-.814c.246-.315.477-.64.7-.974.189-.289.374-.578.537-.883a8.345,8.345,0,0,0,.408-.9,7.345,7.345,0,0,0,.329-1.043,4.29,4.29,0,0,0,.143-.925,4.2,4.2,0,0,0-.023-.451A1.6,1.6,0,0,0,542.985,390.346Zm-1.191,1.408a6.582,6.582,0,0,1-.2.691,8.505,8.505,0,0,1-.47,1.048,11.5,11.5,0,0,1-.633,1.022c-.166.237-.341.469-.527.691a6.589,6.589,0,0,1-.669.676c-.075.062-.152.122-.232.177a2.68,2.68,0,0,1-.265.154,2.207,2.207,0,0,1-.385.127c-.071.012-.141.021-.212.029a1.734,1.734,0,0,1-.233,0,.711.711,0,0,1-.357-.119,2.6,2.6,0,0,1-.241-.194c-.075-.07-.144-.144-.212-.22a5.115,5.115,0,0,1-.55-.8,1.989,1.989,0,0,1-.086-.247c-.012-.078-.021-.156-.026-.236a2.26,2.26,0,0,1,0-.253,5.245,5.245,0,0,1,.112-.726c.061-.265.137-.522.222-.78.041-.113.084-.224.131-.335a2.894,2.894,0,0,1,.19-.357c.138-.229.284-.453.434-.675a5.394,5.394,0,0,1,.444-.548c.153-.162.314-.313.481-.46a4.573,4.573,0,0,1,.787-.523,4.008,4.008,0,0,1,.628-.208c.1-.016.193-.027.291-.034.119-.008.24,0,.36,0a2.744,2.744,0,0,1,.481.091,2.79,2.79,0,0,1,.275.121,2.251,2.251,0,0,1,.231.139l.038.029a.562.562,0,0,0,.18.465l.014.013c.019.028.038.057.055.087s.025.074.035.112c.007.062.008.124.012.186,0,.089.01.179.009.268A5.591,5.591,0,0,1,541.793,391.755Z" transform="translate(-524.645 -358.073)"/><path class="b" d="M558.446,386.852a1.8,1.8,0,0,0-.922-.758,3.933,3.933,0,0,0-1.242-.278c-.181-.014-.364-.024-.546-.024-.128,0-.255,0-.382.015-.318.025-.632.086-.948.132-.154.023-.308.04-.463.052a4.471,4.471,0,0,0-.628.093.522.522,0,0,0-.314.262.549.549,0,0,0-.06.19.537.537,0,0,0-.175.3c-.036.235-.081.469-.1.7s-.043.48-.063.719c-.086.8-.144,1.608-.2,2.412-.028.373-.059.747-.084,1.121-.014.189-.019.379-.028.568s-.025.374-.035.561c-.019.331-.033.663-.044.994-.006.174-.013.347-.022.521a1.712,1.712,0,0,0,.038.711.677.677,0,0,0,.312.374.648.648,0,0,0,.875-.267l.059-.157a.647.647,0,0,0,.008-.254c0-.174.016-.35.022-.524.006-.195.009-.389.012-.583,0-.177.012-.354.013-.531,0-.2,0-.389.012-.584.015-.382.017-.764.038-1.145.006-.12.013-.24.019-.36l.084-.006c.174-.014.347-.032.52-.056.371-.052.739-.115,1.1-.195.118-.026.235-.053.352-.082.013.075.027.15.044.224.038.158.078.315.116.473.069.286.149.569.21.857.065.307.139.612.208.918s.116.618.188.924c.059.251.118.5.176.753.035.15.071.3.108.45a1.1,1.1,0,0,0,.056.181.819.819,0,0,0,.2.323.689.689,0,0,0,.484.18.625.625,0,0,0,.529-.914c-.007-.036-.014-.073-.022-.107l-.067-.272c-.04-.16-.078-.32-.116-.48-.069-.293-.147-.585-.208-.881s-.122-.577-.193-.863c-.076-.308-.141-.619-.222-.926-.05-.19-.11-.378-.159-.569-.041-.164-.091-.327-.127-.494-.007-.049-.013-.1-.019-.147.064-.026.127-.053.19-.082a3.861,3.861,0,0,0,.359-.177,3.681,3.681,0,0,0,.56-.4,4.19,4.19,0,0,0,.39-.409,1.993,1.993,0,0,0,.421-.806,1.756,1.756,0,0,0,.042-.354,1.911,1.911,0,0,0,0-.238A2.732,2.732,0,0,0,558.446,386.852Zm-.821,1.313a1.255,1.255,0,0,1-.033.146c-.027.057-.056.112-.088.166a3.551,3.551,0,0,1-.33.357,3.473,3.473,0,0,1-.512.319,7.85,7.85,0,0,1-1.061.347c-.327.088-.662.153-.995.213-.233.038-.468.066-.7.089l-.244.025c.025-.434.053-.868.092-1.3,0,.053-.009.105-.015.158.031-.322.052-.644.079-.966.025-.207.061-.411.092-.617l0-.02c.14-.012.281-.019.421-.035.216-.024.432-.058.647-.087a5.258,5.258,0,0,1,.641-.052c.2,0,.4.009.6.022a3.847,3.847,0,0,1,.762.173,2.374,2.374,0,0,1,.332.172c.027.023.052.047.077.073a1.337,1.337,0,0,1,.086.142,2.74,2.74,0,0,1,.139.429A1.6,1.6,0,0,1,557.625,388.165Z" transform="translate(-533.065 -356.735)"/><path class="b" d="M571.258,392.471l-.163-.05a.662.662,0,0,0-.3.02c-.039.006-.079.011-.118.019-.148.028-.295.066-.441.1l-.379.09c-.293.068-.587.128-.884.177-.143.024-.287.041-.43.063-.01-.114-.02-.226-.032-.339-.018-.162-.048-.323-.067-.485s-.035-.331-.047-.5c-.028-.369-.076-.736-.08-1.107,0-.067,0-.135,0-.2l.235-.037c.253-.042.507-.073.761-.108s.483-.07.726-.1a2.884,2.884,0,0,0,.754-.15.635.635,0,0,0-.229-1.227.624.624,0,0,0-.069,0,2.819,2.819,0,0,0-.4.092c-.172.038-.346.068-.517.107-.193.043-.387.08-.581.117-.225.043-.452.08-.677.125l-.016,0c0-.193,0-.386,0-.58.011-.273.026-.547.035-.821l0,.063c0-.12.011-.24.017-.36l0-.044a6.3,6.3,0,0,1,.727-.22c.23-.062.459-.121.687-.191s.432-.134.652-.191a2.939,2.939,0,0,1,.5-.081.551.551,0,0,0-.072-1.1l-.043,0a5.027,5.027,0,0,0-1,.191c-.34.09-.676.194-1.017.281-.288.074-.579.14-.861.237a1,1,0,0,0-.68.513,1.554,1.554,0,0,0-.083.3c-.015.088-.017.178-.025.267-.016.174-.021.347-.034.52-.014.189-.032.379-.041.569-.01.223-.014.447-.017.671q-.008.534-.015,1.069c0,.174,0,.348,0,.521s.013.358.026.537c.026.355.039.711.076,1.064.017.161.041.32.052.481s.021.329.037.493a2.149,2.149,0,0,0,.091.464.784.784,0,0,0,.457.468,1.429,1.429,0,0,0,.234.065,1.516,1.516,0,0,0,.253.008,1.273,1.273,0,0,0,.134-.013c.186-.02.37-.058.555-.084s.383-.062.573-.1c.3-.058.591-.132.887-.2l.385-.087a1.987,1.987,0,0,0,.439-.133.7.7,0,0,0,.358-.341.655.655,0,0,0-.328-.868Z" transform="translate(-540.472 -356.628)"/><path class="b" d="M581.841,383.762a.68.68,0,0,0-.423-.145.571.571,0,0,0-.37.127.773.773,0,0,0-.235.288,1.177,1.177,0,0,0-.062.2.944.944,0,0,0-.029.146c-.018.144-.034.288-.051.431-.038.326-.095.648-.142.973s-.1.634-.146.952c-.051.342-.12.679-.193,1.016-.147.674-.283,1.35-.449,2.019-.123-.3-.234-.6-.35-.9-.13-.334-.236-.677-.369-1.01s-.263-.666-.394-1-.239-.679-.348-1.022c-.1-.31-.208-.619-.294-.932-.005-.026-.01-.052-.015-.078a.6.6,0,0,0-.209-.385.574.574,0,0,0-.806.085.558.558,0,0,0-.125.42c.047.267.129.527.194.789l-.037-.152c.095.392.2.783.309,1.17.1.333.212.66.329.987.123.344.251.685.367,1.031s.234.692.365,1.033c.125.325.264.644.394.966.059.145.119.288.191.426a2.152,2.152,0,0,0,.2.335,1,1,0,0,0,.231.227c.06.038.119.078.183.111a.717.717,0,0,0,.383.065.748.748,0,0,0,.6-.474c.062-.137.107-.284.155-.426.133-.387.232-.785.33-1.182.174-.71.329-1.423.491-2.135.144-.637.236-1.284.351-1.927.049-.275.092-.549.13-.825.027-.2.064-.4.076-.608v.026a.055.055,0,0,1,0-.016A.642.642,0,0,0,581.841,383.762Z" transform="translate(-545.386 -355.698)"/><path class="b" d="M593.008,389.435a.624.624,0,0,0-.3.042c-.046,0-.091.007-.137.013-.114.014-.227.036-.34.055-.232.041-.461.1-.693.139a10.1,10.1,0,0,1-1.425.149h-.06c-.006-.311,0-.623,0-.935,0-.338.012-.677.021-1.015,0-.155.013-.309.022-.463l.134-.009.534-.016c.166-.006.331-.017.5-.024l.2-.008-.052,0c.22-.007.439-.016.658-.029a3.356,3.356,0,0,0,.433-.052.644.644,0,0,0,.526-.564.638.638,0,0,0-.141-.466.62.62,0,0,0-.429-.23h-.06a3.818,3.818,0,0,0-.614.077c-.242.039-.486.064-.729.095-.132.017-.263.042-.395.058s-.246.024-.368.043l-.1.017c.017-.146.036-.293.061-.438.084-.478.135-.962.234-1.438.077-.026.153-.056.228-.087.177-.072.351-.149.532-.212.224-.059.454-.1.681-.145a5.092,5.092,0,0,1,.656-.111.535.535,0,0,0,.355-.22.552.552,0,0,0-.122-.772.539.539,0,0,0-.335-.1c-.027,0-.055,0-.083,0a10.2,10.2,0,0,0-1.1.186,4.145,4.145,0,0,0-.69.188c-.16.06-.316.128-.477.184a1.041,1.041,0,0,0-.473.2.865.865,0,0,0-.233.336,1.506,1.506,0,0,0-.057.209c-.051.212-.1.424-.139.639-.032.179-.062.357-.093.536-.06.345-.13.688-.171,1.035s-.078.684-.107,1.027-.043.659-.063.989c-.021.348-.017.7-.029,1.043,0,.137-.013.274-.011.411a3.262,3.262,0,0,0,.026.545.952.952,0,0,0,.22.488,1.182,1.182,0,0,0,.152.139,1.4,1.4,0,0,0,.213.111,1.666,1.666,0,0,0,.285.073.591.591,0,0,0,.09.01c.094.007.186.008.28.008.183,0,.366-.015.548-.027.136-.009.272-.015.407-.028.275-.025.547-.059.819-.109.236-.044.469-.1.706-.136.114-.019.227-.036.341-.053a1,1,0,0,0,.111-.023,1.5,1.5,0,0,0,.2-.064.848.848,0,0,0,.309-.257.639.639,0,0,0-.453-1.012Z" transform="translate(-551.345 -355.301)"/><path class="b" d="M592.689,391.591l-.09,0h-.013Z" transform="translate(-553.139 -359.502)"/><path class="b" d="M608.106,389.044c-.043-.053-.088-.105-.132-.158-.113-.134-.226-.269-.334-.408s-.184-.257-.28-.383c-.144-.191-.291-.38-.437-.569-.165-.221-.325-.443-.5-.654-.148-.175-.288-.357-.428-.539-.037-.05-.073-.1-.106-.153.068-.04.135-.082.2-.127a3.177,3.177,0,0,0,.493-.408,4.516,4.516,0,0,0,.424-.519,2.138,2.138,0,0,0,.269-.532,2.175,2.175,0,0,0,.1-.627,3.015,3.015,0,0,0-.042-.614,2.284,2.284,0,0,0-.216-.609,2.641,2.641,0,0,0-.883-.949,4.049,4.049,0,0,0-1.05-.469,4.312,4.312,0,0,0-1.162-.148h-.05a8.711,8.711,0,0,0-1.063.069c-.229.028-.46.055-.689.091-.154.023-.311.038-.463.072l-.124.031a.542.542,0,0,0-.214.108.479.479,0,0,0-.236.2.527.527,0,0,0-.054.136.425.425,0,0,0-.076.167,15.162,15.162,0,0,0-.081,2.317c-.017.715.036,1.428.063,2.141.01.29.015.579.027.869.014.326.034.653.054.978.009.156.018.312.029.468s.031.317.044.476.024.311.039.465c.006.064.009.129.013.194a1.166,1.166,0,0,0,.038.29.694.694,0,0,0,.3.4l.159.069a.669.669,0,0,0,.355,0,.642.642,0,0,0,.3-.169.8.8,0,0,0,.185-.321.662.662,0,0,0,0-.35c0-.01-.006-.02-.009-.03-.008-.081-.017-.161-.025-.24-.022-.218-.048-.436-.075-.653-.036-.355-.061-.712-.079-1.068-.008-.171-.028-.342-.038-.514l0-.033.163-.028c.155-.029.308-.069.46-.1.343-.081.684-.166,1.022-.265.247-.073.493-.155.735-.245a1.335,1.335,0,0,0,.082.149c.109.167.231.327.352.485.14.189.283.374.426.561s.27.381.409.569.291.4.431.6c.16.23.335.45.508.669.057.072.113.143.175.21a1.253,1.253,0,0,0,.125.117.652.652,0,0,0,.281.164.653.653,0,0,0,.81-.8A1.019,1.019,0,0,0,608.106,389.044Zm-4.674-3.382c-.247.064-.494.129-.744.182-.141.03-.281.065-.422.095,0-.028,0-.057,0-.085-.019-.355-.057-.708-.07-1.063-.014-.418-.022-.837-.04-1.256-.008-.206-.021-.412-.02-.619,0-.13,0-.262,0-.393.068-.012.136-.021.205-.031l-.03,0,.254-.033c.309-.037.62-.065.931-.075a6.734,6.734,0,0,1,.93.021,3.991,3.991,0,0,1,.743.217,3.026,3.026,0,0,1,.454.266,2.511,2.511,0,0,1,.267.27,2,2,0,0,1,.146.255,1.77,1.77,0,0,1,.06.221,2.851,2.851,0,0,1-.006.406,1.6,1.6,0,0,1-.044.165,2.1,2.1,0,0,1-.172.266,3,3,0,0,1-.393.375,4.1,4.1,0,0,1-.689.374A12.159,12.159,0,0,1,603.432,385.662Zm2.194,2.28,0,0-.1-.132.136.179Z" transform="translate(-557.529 -354.534)"/></g><path class="c" d="M522.839,351.564c-.082,0-.145,0-.2.007a6.05,6.05,0,0,0-.771.129c-.123.031-.247.06-.37.089a6.646,6.646,0,0,0-.91.308c-.126.053-.25.117-.369.178l-.082.042q-.194.1-.385.2a11.51,11.51,0,0,0-.98.636,9.339,9.339,0,0,0-.9.725c-.2.2-.363.374-.509.548a4.985,4.985,0,0,0-.376.528l-.024.033a3.752,3.752,0,0,0-.226.4c-.076.164-.141.316-.2.466-.109.287-.213.587-.318.918l.041,0a2.991,2.991,0,0,0,.363-.057,6.18,6.18,0,0,0,1.117-.492l.336-.186.254-.141c.258-.143.551-.3.815-.486.188-.129.35-.249.5-.368.114-.093.231-.2.381-.337l.116-.115c.117-.115.232-.229.35-.341l-.01.006.013-.007.013-.013.009-.009.007-.007.013-.012.034-.032.041-.039.1-.095.076-.073.152-.145.012-.012c.216-.208.417-.418.659-.671.1-.1.2-.213.294-.318.125-.137.266-.293.408-.435l.084-.086c.121-.154.252-.31.4-.476l.057-.086c.029-.046.059-.091.09-.135l.013-.018.013-.019-.029,0Z" transform="translate(-515.009 -319.32)"/><path class="c" d="M528.492,370.366h0c.009.108.021.215.034.321a4.948,4.948,0,0,0,.134.678c.1.352.207.674.324.984a7.04,7.04,0,0,0,.508,1.055c.1.161.211.348.335.521a4.319,4.319,0,0,0,.447.52l.031.03a5.968,5.968,0,0,0,.563.5c.224.166.452.319.676.454.174.093.359.19.552.271.169.072.347.139.5.2l.075.028c.358.137.711.254,1.048.348a4.814,4.814,0,0,0,.6.123c.1.012.2.021.289.029-.035-.066-.072-.129-.108-.192l-.016-.026a8.2,8.2,0,0,0-.495-.727c-.166-.215-.348-.443-.575-.716-.2-.246-.4-.48-.6-.694s-.383-.4-.575-.592-.358-.337-.518-.477-.325-.289-.487-.435l-.378-.337-.131-.117c-.23-.2-.466-.416-.715-.607-.34-.259-.654-.495-.959-.719-.073-.053-.144-.108-.215-.162s-.137-.1-.207-.155c-.047-.035-.1-.069-.143-.1Z" transform="translate(-520.863 -328.573)"/><path class="c" d="M549.181,372.929v0c.1.153.2.292.277.4.065.087.133.174.2.258l.014.018c.071.089.143.18.211.272.12.161.246.315.386.47.248.251.519.484.8.721a9.467,9.467,0,0,0,.928.691,7.588,7.588,0,0,0,1.752.775c.279.077.54.139.8.189.131.026.273.05.46.078.123.018.25.026.361.032h.05a2.865,2.865,0,0,0,.474-.036c.171-.028.34-.065.486-.1a4.866,4.866,0,0,0,.561-.164l-.011-.016-.024-.026a5.49,5.49,0,0,0-.453-.426c-.2-.164-.41-.319-.6-.455l-.025-.019-.173-.128c-.142-.105-.286-.212-.431-.313-.193-.133-.391-.259-.542-.354a14.959,14.959,0,0,0-1.724-.819c-.65-.264-1.193-.48-1.773-.659-.366-.1-.759-.19-1.2-.269-.255-.045-.527-.091-.8-.12Z" transform="translate(-531.586 -329.787)"/><path class="c" d="M551.824,361.433h0a5.437,5.437,0,0,0-.491.369q-.178.157-.354.316c-.117.107-.227.227-.333.343l-.022.024a8.154,8.154,0,0,0-.6.765,5.551,5.551,0,0,0-.559,1.106c-.093.271-.175.517-.237.77-.036.144-.064.294-.088.459a.783.783,0,0,0,.068-.053c.078-.07.156-.142.234-.213s.128-.119.192-.176l.036-.032.013-.012c.129-.117.263-.238.388-.363a7.222,7.222,0,0,0,.753-.906,8.484,8.484,0,0,0,.854-1.573,3.644,3.644,0,0,0,.153-.667,1.388,1.388,0,0,0,0-.155h0Z" transform="translate(-531.503 -324.148)"/><path class="c" d="M530.834,364.116h0c-.227,0-.467.009-.7.026-.268.019-.537.05-.8.094-.238.039-.487.077-.74.112.055.053.111.1.167.154a4.333,4.333,0,0,0,.688.482,5.847,5.847,0,0,0,.614.294c.219.087.42.16.616.219a3.271,3.271,0,0,0,.422.074c.112.012.236.018.378.019a7.576,7.576,0,0,0,1.762-.206,3.457,3.457,0,0,0,.478-.188c.133-.067.263-.142.388-.215l.011-.007c.038-.024.076-.049.112-.074-.172-.076-.364-.153-.605-.243-.359-.135-.679-.242-.978-.327-.155-.039-.287-.067-.413-.09-.16-.029-.32-.05-.475-.07a7.752,7.752,0,0,0-.923-.055Z" transform="translate(-520.911 -325.418)"/><path class="c" d="M534.977,337.2a4.853,4.853,0,0,0-.71.049c-.157.023-.32.053-.5.089.059.078.124.157.193.235.123.129.221.224.316.31s.23.193.335.276l.056.044a9.189,9.189,0,0,0,.748.54c.149.093.334.209.519.3.227.116.463.223.672.317l.007,0a13.067,13.067,0,0,0,1.3.523c.156.044.314.085.471.126l.012,0,.061.016c.234.062.471.134.692.2.265.076.535.133.8.189l.12.026c.12.026.237.055.367.088l.008,0c.151.038.306.076.461.107s.3.047.438.063h.012c.142.017.288.035.43.063-.034-.061-.074-.122-.12-.189a3.982,3.982,0,0,0-.286-.357,5.1,5.1,0,0,0-.479-.439c-.168-.135-.355-.276-.588-.442-.129-.093-.264-.183-.394-.271l-.213-.144-.178-.123-.011-.007c-.118-.082-.241-.166-.363-.246l-.016-.01c-.169-.1-.36-.223-.554-.318s-.414-.193-.653-.29c-.15-.061-.3-.127-.447-.191-.269-.118-.544-.237-.823-.332a4.865,4.865,0,0,0-.795-.155c-.327-.034-.58-.054-.82-.065h-.067Z" transform="translate(-523.426 -312.245)"/><path class="c" d="M538.646,348.016h0l-.018.009c-.3.172-.566.342-.816.52a7.819,7.819,0,0,0-.751.617c-.294.29-.584.6-.885.952l-.015.017c-.131.152-.279.325-.417.5a5.292,5.292,0,0,0-.312.438,4.772,4.772,0,0,0-.385.872,3.166,3.166,0,0,0-.1.488c.07-.008.143-.02.23-.038a1.572,1.572,0,0,0,.215-.072c.081-.035.161-.072.242-.113.235-.136.465-.289.688-.437l.056-.037a6.269,6.269,0,0,0,.749-.576,4.877,4.877,0,0,0,.359-.406,5.348,5.348,0,0,0,.343-.5,4.532,4.532,0,0,0,.24-.453,4.592,4.592,0,0,0,.2-.548c.052-.167.106-.331.166-.513.044-.134.089-.269.131-.4.029-.1.055-.206.079-.311v0Z" transform="translate(-524.423 -317.565)"/><path class="c" d="M555.646,351.739c-.378,0-.759.035-1.088.067a8.547,8.547,0,0,0-2.978.85l.013-.007-.041.019c-.18.095-.384.2-.57.324a3.918,3.918,0,0,0-.432.332,3.02,3.02,0,0,0-.249.288c.1.028.186.049.273.065.2.037.394.056.581.074.354.032.7.055,1.038.067l.151,0a3.92,3.92,0,0,0,.57-.036c.255-.037.5-.091.692-.134a5.535,5.535,0,0,0,1.031-.377,6.362,6.362,0,0,0,1.065-.756c.18-.173.35-.367.5-.538l.042-.047c.038-.043.074-.087.111-.132a6.241,6.241,0,0,0-.638-.059Z" transform="translate(-532.126 -319.358)"/><path class="c" d="M565.126,336.4h0a6.179,6.179,0,0,0-.083.853c0,.17,0,.343,0,.511v.01c0,.065,0,.131,0,.2,0,.179.01.361.023.557l.009.106v.009c.014.158.028.322.052.481.034.228.069.435.107.634.03.162.075.325.119.482l.024.087c.047.173.1.351.159.528l.017.046c.159.432.323.875.521,1.293.1.213.221.44.378.714.1.171.21.338.317.493l.118.165.059.083c.168.235.358.5.551.75a3.571,3.571,0,0,0,.177-.514,6.49,6.49,0,0,0,.07-.825l0-.1v-.009c0-.117.007-.238.005-.357s-.008-.261-.017-.408a9.456,9.456,0,0,0-.415-2.036,11.717,11.717,0,0,0-.722-1.608c-.248-.446-.538-.9-.939-1.488a5.6,5.6,0,0,0-.541-.658Z" transform="translate(-539.446 -311.906)"/><path class="c" d="M587.758,336.122h0l-.146.112c-.07.055-.146.118-.241.2-.255.227-.484.433-.7.653-.239.239-.474.487-.692.72a16.694,16.694,0,0,0-1.223,1.438,6.1,6.1,0,0,0-.393.681c-.133.272-.249.564-.351.822-.129.364-.229.69-.306,1a7.687,7.687,0,0,0-.194,1.068c-.014.2-.019.388-.015.573s.022.349.04.519l.009.09c.007.067.015.135.022.2l.01.089.075-.077c.222-.238.442-.484.655-.731.18-.21.363-.445.575-.74.058-.084.116-.169.173-.254.223-.337.424-.691.575-.963q.113-.2.228-.4c.1-.182.231-.408.349-.627l.01-.019a19.193,19.193,0,0,0,.98-1.99c.112-.319.255-.742.362-1.181a9.047,9.047,0,0,0,.2-1.167v-.008Z" transform="translate(-548.698 -311.772)"/><path class="c" d="M569.5,364.909c-.262,0-.478.007-.679.021-.337.024-.7.064-1.107.122-.767.109-1.441.235-2.06.382-.285.073-.59.154-.893.247.143.081.295.158.464.237a6.1,6.1,0,0,0,.745.305,5.882,5.882,0,0,0,1.263.205h.053a3.929,3.929,0,0,0,.408-.018c.218-.023.415-.053.6-.092.253-.069.5-.158.742-.245l.12-.044a6.743,6.743,0,0,0,.8-.344,6.4,6.4,0,0,0,.807-.6c.043-.043.084-.087.121-.131-.05-.005-.1-.007-.146-.009h-.019l-.086,0c-.246-.011-.493-.019-.739-.028l-.116,0-.279,0Z" transform="translate(-539.365 -325.808)"/><path class="c" d="M612.818,332.412h0l-.154.015c-.143.016-.294.037-.464.062-.546.116-1.085.271-1.54.407l-.025.007c-.242.073-.515.154-.768.257s-.491.2-.789.335l-.042.018c-.15.067-.284.129-.416.2-.22.116-.416.229-.6.346-.385.247-.7.469-.989.7-.131.109-.26.22-.39.331l-.117.1-.11.094-.01.008c-.147.125-.3.254-.441.389a9.211,9.211,0,0,0-1,1.151c-.116.163-.22.317-.318.472-.089.14-.172.286-.245.415l-.074.13c-.066.115-.134.229-.2.343.127-.021.256-.039.381-.056l.025,0c.1-.013.192-.026.288-.041.151-.03.306-.07.443-.106l.013,0c.142-.037.31-.081.475-.129.29-.084.58-.171.87-.258l.067-.02.071-.021.161-.047c.124-.037.237-.07.347-.106.177-.058.351-.129.5-.192l.242-.1.035-.014.013-.006c.2-.081.406-.164.607-.252a8.489,8.489,0,0,0,1.414-.954c.368-.32.693-.624.995-.931a12.231,12.231,0,0,0,.948-1.063c.161-.234.3-.452.422-.664a6.091,6.091,0,0,0,.342-.7c.012-.037.024-.074.035-.111l0,0Z" transform="translate(-559.158 -309.919)"/><path class="c" d="M600.122,348.352c-.155,0-.3,0-.435.012a9.521,9.521,0,0,0-1.3.163c-.091.021-.182.044-.273.067a5.431,5.431,0,0,0,.424.382l.164.129.036.028c.106.083.213.166.316.251l.095.078c.138.113.276.228.421.329a5.357,5.357,0,0,0,.776.412c.31.13.615.234.873.317a8.394,8.394,0,0,0,.9.245,7.73,7.73,0,0,0,.911.128c.062,0,.123,0,.186,0,.121,0,.229,0,.331-.015.18-.018.359-.043.531-.076a5.136,5.136,0,0,0,1.189-.427,7.522,7.522,0,0,0,.741-.439l.129-.088c-.163-.094-.316-.174-.469-.246-.394-.185-.825-.361-1.355-.553-.24-.075-.492-.147-.749-.215l-.125-.033c-.242-.064-.492-.131-.741-.182l-.065-.014c-.276-.057-.56-.116-.844-.147s-.59-.064-.9-.086c-.232-.01-.5-.021-.766-.021Z" transform="translate(-556.122 -317.703)"/><path class="c" d="M597.571,361.959h0c.044.167.1.36.166.546.148.348.324.706.535,1.1a10.9,10.9,0,0,0,.64,1l.04.058a12.085,12.085,0,0,0,.818,1,10.826,10.826,0,0,0,.971.913c.318.243.61.45.893.634l.174.113c-.021-.12-.044-.228-.068-.329a5.434,5.434,0,0,0-.206-.623q-.1-.275-.208-.551a5.807,5.807,0,0,0-.486-.916l-.021-.033-.01-.017c-.172-.268-.351-.545-.538-.81a7.487,7.487,0,0,0-.561-.629l-.007-.007-.02-.02c-.21-.217-.423-.418-.635-.6-.154-.121-.3-.226-.443-.32a5.323,5.323,0,0,0-.556-.327,4.167,4.167,0,0,0-.477-.176Z" transform="translate(-555.736 -324.428)"/><path class="c" d="M586.224,371.579c-.271,0-.543.012-.806.036a7.724,7.724,0,0,0-.809.134,6.15,6.15,0,0,0-.735.224,4.523,4.523,0,0,0-.63.313c.036.034.073.065.11.1l.172.145.216.182a6.584,6.584,0,0,0,.6.414,5.849,5.849,0,0,0,.6.316,11.6,11.6,0,0,0,2.554.789,5.829,5.829,0,0,0,.643.036c.179,0,.365-.008.552-.024a3.948,3.948,0,0,0,.813-.18,4.219,4.219,0,0,0,.695-.357,3.909,3.909,0,0,0,.513-.51c.063-.074.127-.149.191-.222l.02-.024c.085-.1.171-.2.254-.3s.174-.209.26-.31l.008-.008.031-.036-.1-.049-.071-.032-.344-.047c-.4-.052-.752-.1-1.089-.156-.186-.029-.373-.056-.559-.083l-.026,0-.092-.014c-.158-.023-.317-.05-.47-.076l-.169-.029c-.5-.076-1.06-.162-1.608-.2-.243-.017-.484-.026-.715-.026Z" transform="translate(-548.673 -329.1)"/><path class="c" d="M624.565,347.04h0c-.057.129-.1.243-.139.349a4.007,4.007,0,0,0-.121.832,11.173,11.173,0,0,0,.079,1.383c.022.2.061.4.1.591l.021.112c.048.252.089.457.132.646.059.234.128.491.2.765.024.086.047.173.07.259l0,.016c.049.181.1.369.156.551a10.074,10.074,0,0,0,.642,1.6,2.849,2.849,0,0,0,.152.247c.022.031.044.062.068.093a1.538,1.538,0,0,0,.1-.134,2.615,2.615,0,0,0,.207-.455l.052-.15,0-.012c.04-.115.079-.229.117-.345a7.077,7.077,0,0,0,.28-1.532c0-.293-.011-.593-.031-.892a5.388,5.388,0,0,0-.13-.794,6.119,6.119,0,0,0-.241-.715c-.088-.212-.192-.43-.326-.687a7.473,7.473,0,0,0-.88-1.242c-.07-.07-.141-.138-.212-.206a2.162,2.162,0,0,1-.212-.239l-.016-.007-.077-.032Z" transform="translate(-569.482 -317.132)"/><path class="c" d="M634.824,345.626c-.083,0-.164,0-.24.006-.263.015-.535.039-.809.073l-.2.034-.041.007c-.153.026-.325.055-.489.1-.186.044-.37.1-.528.139-.378.105-.662.2-.922.3-.135.052-.271.109-.4.164l-.066.027-.186.077.107.055c.218.108.411.207.589.3a11.776,11.776,0,0,0,1.156.528c.226.079.459.144.684.208l.007,0,.022.006a6.772,6.772,0,0,0,.76.176c.621.1,1.106.166,1.571.219.266.024.485.04.688.051.116.006.237.008.384.008l.28,0h.076a10.68,10.68,0,0,0,1.4-.124l.008,0a3.907,3.907,0,0,0,.523-.118c.141-.047.288-.1.463-.175a2.731,2.731,0,0,0,.334-.175c.06-.037.116-.074.173-.114l-.026-.023a8.1,8.1,0,0,0-.868-.536c-.139-.073-.3-.157-.475-.232-.1-.043-.213-.089-.358-.144a.549.549,0,0,1-.058-.019.581.581,0,0,1-.094-.038c-.244-.089-.433-.153-.612-.207-.255-.077-.527-.151-.807-.22l-.162-.04a11.89,11.89,0,0,0-1.364-.282c-.2-.014-.367-.021-.517-.021Z" transform="translate(-572.692 -316.365)"/><path class="c" d="M622.774,366.236c-.378,0-.689.008-.979.027s-.567.05-.876.1c-.243.037-.479.09-.7.141a12.076,12.076,0,0,0-1.21.365c-.2.074-.389.156-.55.227l-.076.033c-.148.065-.3.131-.447.209-.031.017-.062.036-.091.055.053.042.106.079.152.11.155.089.314.171.473.245a4.38,4.38,0,0,0,.484.188c.212.06.423.111.629.152a4.343,4.343,0,0,0,.677.066h.116a10.256,10.256,0,0,0,1.111-.062,10.515,10.515,0,0,0,1.138-.18c.261-.071.523-.154.777-.235l.074-.024.211-.066.158-.049c.129-.039.254-.077.374-.12a3.719,3.719,0,0,0,.445-.194,4.51,4.51,0,0,0,.486-.321c.115-.087.233-.189.374-.318a1.3,1.3,0,0,0-.129-.051,8.626,8.626,0,0,0-.969-.207,7.87,7.87,0,0,0-1-.084c-.216,0-.432-.006-.649-.006Z" transform="translate(-566.447 -326.465)"/><path class="c" d="M628.832,373.151h0a5.72,5.72,0,0,1-.687.6l-.01.007c-.143.1-.286.2-.431.3a10.885,10.885,0,0,0-1.259,1.547l-.22.36c-.221.363-.433.744-.63,1.132a7.479,7.479,0,0,0-.463,1.146c-.066.234-.118.469-.155.647.031-.012.06-.026.088-.04.284-.166.565-.345.8-.5l.04-.026c.137-.088.272-.176.4-.271s.228-.182.343-.286a8.461,8.461,0,0,0,1.119-1.425,10.5,10.5,0,0,0,.508-.95,9.459,9.459,0,0,0,.372-.915,4.942,4.942,0,0,0,.112-.7c.01-.1.021-.185.032-.274.016-.119.031-.237.044-.356Z" transform="translate(-569.847 -329.934)"/><path class="d" d="M533.449,295.3a1.9,1.9,0,0,0-.393.056l-.077.017c-.182.038-.377.086-.612.151-.148.041-.3.09-.441.138l-.017.005-.206.067a.6.6,0,0,0-.286.171.577.577,0,0,0-.416.517,4.382,4.382,0,0,0-.007.622c.015.215.038.436.071.675.049.349.106.755.168,1.157.026.169.053.337.081.506l0,.016c.032.2.064.395.094.592.032.214.063.429.094.644l0,.012,0,.014.01.07q.035.249.072.5l.054.361,0,.025,0,.02q.055.367.108.735c.021.144.04.288.059.431l.006.047.007.06.007.05c.025.189.049.371.075.553.132.9.253,1.63.381,2.3q.06.311.117.622l0,.023,0,.024c.027.146.054.292.082.437q.029.156.06.312l.017.09,0,.01c.049.249.1.507.142.761s.1.528.149.784l0,.012.007.033.01.049c.017.085.035.17.051.255.06.3.14.7.224,1.1.061.29.119.586.175.873l.012.061.005.03.01.049c.065.336.133.682.206,1.019a1.915,1.915,0,0,0,.155.495.862.862,0,0,0,.759.468h.04a3.989,3.989,0,0,0,.669-.079c.176-.038.357-.079.554-.127.313-.074.648-.126.917-.168l.141-.022c.36-.057.725-.118,1.086-.179.16-.027.323-.051.464-.072l.014,0,.01,0c.2-.029.4-.06.6-.1.354-.068.723-.132,1.1-.189.529-.081,1.083-.175,1.644-.278l.139-.025.053-.009.012,0c.172-.03.366-.064.556-.11.093-.022.194-.049.319-.084a1.929,1.929,0,0,0,.255-.091.86.86,0,0,0,.227-.167l.017-.015a.675.675,0,0,0,.213-.46.476.476,0,0,0,.028-.04.681.681,0,0,0,.089-.5,1.023,1.023,0,0,0-.03-.123c-.007-.021-.012-.039-.016-.056-.021-.078-.036-.159-.05-.237l-.006-.037c-.018-.1-.031-.2-.044-.295l0-.02c-.012-.088-.023-.172-.038-.255l-.027-.153c-.021-.128-.046-.272-.074-.411a2.324,2.324,0,0,0-.06-.252c-.025-.079-.054-.163-.091-.256a.679.679,0,0,0-.095-.154l-.036-.049.02.036a.7.7,0,0,0-.178-.179.621.621,0,0,0-.226-.112,1.9,1.9,0,0,0-.3-.052l-.045-.006a3,3,0,0,0-.379-.02l-.2,0c-.259.006-.522.022-.782.047-.094.009-.186.02-.279.032l-.022,0-.235.028-.214.015-.068,0c-.225.015-.48.032-.727.061-.233.028-.469.063-.7.1l-.025,0-.016,0-.174.026-.124.018-.018,0-.066.009c-.228.032-.464.065-.7.112-.147.029-.294.065-.436.1l-.015,0-.013,0-.071.018-.044.011-.055.014,0-.029-.006-.031q-.021-.1-.042-.193l-.007-.03c-.014-.063-.028-.126-.041-.189-.071-.342-.13-.659-.181-.971-.046-.276-.1-.576-.179-.973-.047-.237-.09-.483-.124-.681l-.042-.243c-.019-.106-.036-.211-.054-.317l-.009-.059,0-.017,0-.018c-.028-.172-.058-.351-.092-.525-.067-.345-.139-.679-.212-1.02q-.047-.217-.1-.434l0-.009c-.041-.18-.088-.384-.129-.585-.01-.046-.018-.091-.027-.136l-.005-.026-.007-.036,0-.01c-.019-.1-.038-.2-.06-.292s-.049-.208-.074-.311l-.037-.154c-.042-.175-.077-.362-.107-.525l-.005-.028c-.022-.118-.047-.251-.075-.377l-.007-.031c-.071-.324-.144-.658-.233-.99-.013-.05-.027-.1-.04-.15l-.018-.066-.017-.061c-.063-.231-.128-.47-.178-.707-.068-.319-.148-.653-.239-.99-.124-.464-.25-.87-.387-1.243l0-.007-.006-.017v.015a3.1,3.1,0,0,0-.123-.315.942.942,0,0,0-.05-.1.921.921,0,0,0-.244-.279.553.553,0,0,0-.358-.112Z" transform="translate(-522.053 -291.584)"/><path class="e" d="M561.481,292.528a2.8,2.8,0,0,0-.744.108,2.517,2.517,0,0,0-.632.251l-.013.007-.013.008-.35.132a3.147,3.147,0,0,0-.48.216,4.111,4.111,0,0,0-.575.4,4.277,4.277,0,0,0-.4.389,7.977,7.977,0,0,0-.774.98,5.639,5.639,0,0,0-.375.69,11.482,11.482,0,0,0-.5,1.176,10.611,10.611,0,0,0-.337,1.1c-.1.417-.167.841-.236,1.252l-.008.053c-.075.449-.126.82-.158,1.166a16.46,16.46,0,0,0-.035,2.288c.018.425.064.857.109,1.274v.007a10.424,10.424,0,0,0,.2,1.152,7.753,7.753,0,0,0,.391,1.236,7.984,7.984,0,0,0,.494.967,6.358,6.358,0,0,0,.754,1.036,3.932,3.932,0,0,0,.392.376,4.85,4.85,0,0,0,.565.437,4.276,4.276,0,0,0,1.172.528,5.614,5.614,0,0,0,.7.13,4.985,4.985,0,0,0,.551.05h.072c.215,0,.421-.017.65-.038a2.849,2.849,0,0,0,.55-.121,4.384,4.384,0,0,0,.652-.26,3.576,3.576,0,0,0,.6-.394,3.672,3.672,0,0,0,.43-.381c.138-.144.265-.3.388-.454l.006-.007.079-.1a5.053,5.053,0,0,0,.642-1.114,9.92,9.92,0,0,0,.373-1l.013-.038a9.612,9.612,0,0,0,.273-1.072c.014-.069.029-.138.044-.206l0-.008c.025-.113.049-.226.071-.339.049-.254.094-.53.126-.733l0-.029c.047-.288.091-.577.135-.865l.013-.086.023-.152a15.312,15.312,0,0,0,.18-2.306V300.2c0-.164,0-.334-.008-.5-.005-.1-.012-.2-.019-.3,0-.063-.01-.127-.017-.191l-.009-.1-.006-.064-.01-.111c-.017-.166-.041-.334-.065-.5l-.007-.054c-.015-.1-.031-.2-.048-.3-.013-.08-.025-.158-.037-.237-.007-.043-.013-.087-.019-.131V297.7l0-.016c-.017-.121-.037-.257-.064-.388-.073-.349-.166-.712-.278-1.078a5.606,5.606,0,0,0-.488-1.115,5.872,5.872,0,0,0-.673-.966,4.409,4.409,0,0,0-.9-.781,5.8,5.8,0,0,0-1.039-.529,4.636,4.636,0,0,0-.965-.261,2.112,2.112,0,0,0-.37-.032Zm-.552,13.509c-.044,0-.082,0-.116-.005a1.853,1.853,0,0,1-.257-.077,2.71,2.71,0,0,1-.331-.23,2.658,2.658,0,0,1-.272-.312,5.828,5.828,0,0,1-.577-1.18,5.625,5.625,0,0,1-.28-1.257c-.018-.3-.031-.618-.037-.932a9.061,9.061,0,0,1,.043-.95c.06-.752.133-1.368.23-1.939a5.3,5.3,0,0,1,.138-.552c.057-.181.12-.373.193-.585l.022-.064c.056-.161.113-.327.177-.485s.13-.308.226-.515c.072-.149.132-.262.195-.367a2.95,2.95,0,0,1,.237-.329l.022-.022c.108-.032.223-.062.316-.086l.008,0,.065-.017a2.847,2.847,0,0,1,.316-.061h.017c.035,0,.069,0,.1,0a2.73,2.73,0,0,1,.407.156,1.706,1.706,0,0,1,.257.169,2.8,2.8,0,0,1,.358.365,3.267,3.267,0,0,1,.192.333c.058.117.106.235.148.346a5.32,5.32,0,0,1,.2.715,6.437,6.437,0,0,1,.09.656,15.466,15.466,0,0,1-.281,3.5c-.071.372-.161.766-.291,1.278a7.478,7.478,0,0,1-.439,1.222c-.074.147-.157.293-.235.43a3.265,3.265,0,0,1-.3.417,2.663,2.663,0,0,1-.31.3c-.037.022-.07.041-.1.057s-.062.013-.094.018Z" transform="translate(-534.968 -290.26)"/><path class="f" d="M590.723,288.192c-.066,0-.133,0-.2,0l-.054,0c-.19.006-.382.026-.551.043l-.037,0c-.1.01-.216.021-.328.029a2.9,2.9,0,0,0-.5.075.865.865,0,0,0-.419.237.89.89,0,0,0-.2.384,1.925,1.925,0,0,0-.051.375c0,.025,0,.047,0,.068v.02c-.009.122-.02.239-.032.357-.013.088-.025.176-.038.265l0,.025c-.041.281-.082.566-.112.848l-.017.155q-.051.467-.1.933c-.019.174-.036.348-.053.523l-.008.085c-.017.182-.036.365-.054.548-.024.231-.042.466-.06.694-.011.149-.023.295-.035.441-.016.19-.041.389-.059.534q-.035.259-.07.517l0,.009c-.079.585-.161,1.189-.214,1.792l-.012.131c-.013.144-.026.289-.038.433l0,.017c-.043.49-.091,1.046-.146,1.585l-.015.14c-.064.635-.119,1.164-.181,1.7v.008l-.007.052-.009.075q-.039.286-.074.573c-.019.143-.04.285-.062.427-.068-.116-.133-.234-.182-.324-.107-.2-.188-.361-.255-.507-.146-.318-.3-.635-.471-.97-.132-.258-.258-.528-.369-.765l-.006-.013-.128-.273q-.16-.34-.324-.677l-.016-.033-.017-.035-.018-.039c-.225-.466-.458-.948-.673-1.435-.147-.344-.32-.743-.491-1.129l-.059-.135a.594.594,0,0,0-.05-.114l-.054-.128c-.074-.173-.152-.348-.227-.518l-.019-.042-.012-.026-.029-.067c-.03-.066-.06-.132-.089-.2l-.1-.238c-.078-.185-.156-.37-.236-.554-.134-.319-.258-.641-.4-1.024-.133-.355-.28-.716-.448-1.105l-.068-.161-.029-.068-.031-.075c-.066-.158-.132-.316-.2-.474-.177-.407-.371-.821-.594-1.267-.069-.138-.141-.275-.212-.412l-.065-.125a.93.93,0,0,0-.546-.529.608.608,0,0,0-.152-.02.5.5,0,0,0-.058,0,.529.529,0,0,0-.288-.084.564.564,0,0,0-.131.016,3.307,3.307,0,0,0-.375.125l-.06.022a3.744,3.744,0,0,0-.559.255c-.158.091-.312.192-.46.29l-.007.005-.019.012c-.123.082-.264.174-.394.273a1.692,1.692,0,0,0-.433.457.912.912,0,0,0-.131.539,2.554,2.554,0,0,0,.13.61c.049.163.107.323.179.514.112.3.241.6.395.929.047.1.1.2.144.3.061.124.144.3.216.458.078.18.157.36.237.539l.018.041.033.075.033.074c.2.476.418.985.648,1.511.046.11.09.219.135.329s.093.229.141.343.1.239.152.358l.016.037.016.038.025.057.082.191c.052.122.1.245.152.368s.089.22.135.33c.093.219.191.443.285.655l.045.1q.118.28.233.561l.034.082.123.3c.064.154.123.314.175.454l0,.011.032.086c.032.088.067.176.1.263l.015.039.08.2c.356.921.651,1.618.958,2.261.1.2.19.406.277.6q.082.2.162.4l.015.037c.086.213.177.439.27.653.157.362.3.68.447.973l.118.241c.132.27.242.494.357.719a4.24,4.24,0,0,0,.235.416c.024.037.05.073.075.109l.008.01.006.008c.043.061.085.12.121.18a2.088,2.088,0,0,0,.244.339.948.948,0,0,0,.667.265h.017a1.335,1.335,0,0,0,.152-.012l.041-.005c.05-.006.1-.01.151-.015l.032,0,.094-.009a6.234,6.234,0,0,0,.693-.122c.163-.039.329-.074.491-.108l.01,0c.2-.042.4-.086.6-.134.174-.042.36-.088.542-.146l.088-.028.013,0,.017-.005c.13-.042.264-.084.4-.12.118-.032.24-.056.358-.079l.011,0a3.554,3.554,0,0,0,.572-.147l.01,0,.072-.026a1.433,1.433,0,0,0,.3-.132,1,1,0,0,0,.356-.389,2.239,2.239,0,0,0,.167-.531c.038-.17.071-.337.1-.477.064-.322.116-.645.178-1.034s.128-.743.193-1.089c.027-.144.06-.293.094-.445l0-.01c.044-.2.09-.413.123-.618l.057-.362q.055-.36.112-.718c.044-.273.076-.553.106-.824v-.011l0-.011.006-.059.007-.06q.013-.118.027-.235c.072-.6.106-1.209.14-1.8l.005-.1c.006-.1.011-.2.018-.3v-.01c.021-.347.044-.74.054-1.124.007-.264.011-.527.016-.791l.006-.315q0-.259.011-.519v-.01c.013-.563.026-1.146.008-1.723-.006-.194-.005-.387,0-.6v-.028c0-.147,0-.3,0-.451-.006-.334-.013-.694-.028-1.064s-.032-.715-.071-1.075c-.008-.069-.014-.138-.02-.206l0-.029c-.007-.079-.015-.158-.024-.236-.02-.171-.046-.358-.082-.589a.658.658,0,0,0-.089-.265.77.77,0,0,0-.493-.351,1.734,1.734,0,0,0-.367-.034Z" transform="translate(-545.951 -288.192)"/><path class="c" d="M619.039,290.463a.523.523,0,0,0-.172.029c-.108-.01-.227-.017-.354-.021h-.036a2.78,2.78,0,0,0-.331.026l-.012,0-.125.014c-.329.035-.686.068-1.09.1-.215.019-.438.049-.635.076l-.018,0c-.131.018-.261.036-.392.051l-.335.038-.034,0c-.243.027-.462.052-.682.083l-.168.024c-.121.018-.261.038-.4.053l-.239.026-.01,0-.308.035-.173.02-.044,0c-.106.011-.212.023-.318.037l-.254.033-.3.04c-.365.047-.718.105-1.044.161-.148.026-.3.048-.445.071l-.026,0c-.158.024-.322.049-.481.077s-.335.066-.494.107a.82.82,0,0,0-.526.443,2.217,2.217,0,0,0-.118.335l-.01.033-.019.064c-.047.153-.1.316-.129.479-.047.229-.083.463-.114.67-.02.132-.041.263-.063.394l-.033.185,0,.009c-.023.127-.044.247-.062.369-.021.151-.04.3-.058.454l-.008.067-.048.4c-.057.482-.129,1.081-.211,1.65l-.089.614c-.077.528-.155,1.055-.229,1.583q-.076.531-.153,1.061c-.044.3-.068.61-.092.905v.009c-.006.077-.011.148-.018.219-.055.664-.132,1.337-.206,1.988l0,.033-.019.173-.015.128-.015.129c-.035.3-.066.563-.089.831l-.025.3c-.02.24-.04.48-.062.719q-.018.2-.036.4l-.007.084c-.018.2-.037.407-.057.611s-.029.415-.039.617l0,.063a3.088,3.088,0,0,0,.009.5,1.11,1.11,0,0,0,.093.376,1.077,1.077,0,0,0,.241.347.79.79,0,0,0,.18.127l.026.015a.7.7,0,0,0,.116.05,2.846,2.846,0,0,0,.326.1,2.736,2.736,0,0,0,.284.042l.1.012.158.02.016,0c.216.027.439.055.662.075.338.03.679.049,1,.064l-.029-.006h-.015c.641.037,1.365.057,2.28.064l.509.007c.2,0,.391.007.585.008.169,0,.339.005.542.012h.03c.155,0,.348.01.529.011.224,0,.461.008.651.015s.45.015.687.015l.289,0h.059l.231,0h.1a1.877,1.877,0,0,0,.237-.01,1.087,1.087,0,0,0,.246-.054,1.408,1.408,0,0,0,.237-.128l.027-.017a.662.662,0,0,0,.279-.677.628.628,0,0,0,.051-.156.661.661,0,0,0,.01-.152q0-.027.008-.055v-.011c.01-.083.021-.178.038-.269.006-.036.014-.073.021-.109l0-.022,0-.023,0-.019c.015-.074.029-.14.039-.208.025-.163.038-.323.047-.443.006-.081.013-.162.02-.243l0-.03c.016-.171.032-.342.037-.508a.774.774,0,0,0-.122-.394.53.53,0,0,0-.139-.158.808.808,0,0,0-.339-.167l-.018-.005a1.285,1.285,0,0,0-.255-.043l-.015,0c-.584-.059-1.179-.07-1.755-.082l-.1,0-.26-.005c-.128,0-.255,0-.382,0H615.1c-.225,0-.456,0-.682-.014-.2-.01-.394-.012-.57-.014h-.027c-.184,0-.35,0-.518-.011l-.12-.005h-.008l-.152-.008c-.132-.009-.264-.021-.386-.033l-.06-.005-.039,0,.02-.244,0-.056,0-.044c.007-.1.015-.19.021-.285s.019-.206.03-.3v-.009l.01-.087c.007-.061.013-.123.019-.184l0-.017c.008-.082.017-.167.028-.25l.022-.164,0-.009c.031-.236.067-.5.123-.754.141-.021.285-.039.453-.055.3-.031.577-.058.849-.082.179-.016.359-.035.539-.054l.045,0c.379-.041.769-.083,1.166-.1l.3-.01.049,0h.049c.188-.006.383-.012.574-.025a1.733,1.733,0,0,0,.365-.059.712.712,0,0,0,.323-.221.924.924,0,0,0,.18-.382,5.859,5.859,0,0,0,.218-1.487c0-.065,0-.13.008-.2v-.014c.006-.123.011-.246.008-.367a.882.882,0,0,0-.008-.09,1.012,1.012,0,0,0-.134-.4.686.686,0,0,0-.269-.25l-.022-.014a.706.706,0,0,0-.247-.079l-.014,0a3.857,3.857,0,0,0-.724-.054h-.089c-.2,0-.407.012-.6.021l-.031,0c-.115.006-.23.011-.345.016-.156.006-.311.014-.466.022l-.246.013c-.278.014-.546.02-.725.024-.217,0-.472.012-.73.027-.086.005-.173.007-.261.008h-.018c.016-.152.031-.307.047-.461v-.009c.018-.18.039-.384.054-.58s.032-.4.049-.594v-.013c.028-.324.06-.692.08-1.045.029-.417.075-.851.112-1.2l.007-.064,0-.036a5.547,5.547,0,0,1,.094-.657l.01,0,.048-.012c.242-.048.5-.091.816-.134.155-.021.31-.045.465-.069h.007l.044-.007c.147-.022.295-.045.443-.066.122-.017.245-.032.368-.048l.02,0c.2-.026.413-.053.616-.087l.313-.052c.245-.042.5-.084.743-.12.132-.019.266-.042.395-.065l.109-.019.042-.008.014,0,.161-.028.13-.024.13-.028.042-.009.123-.026a1.826,1.826,0,0,0,.27-.082.9.9,0,0,0,.325-.21.531.531,0,0,0,.157-.318c0-.041.008-.083.013-.123l0-.009.008-.061,0-.008c.01-.087.027-.18.038-.242s.018-.1.027-.154c.014-.091.025-.182.037-.282l0-.013c.005-.048.01-.088.016-.129l.015-.119a5.019,5.019,0,0,1,.148-.821.507.507,0,0,0-.083-.4.533.533,0,0,0-.339-.222.555.555,0,0,0-.1-.009Z" transform="translate(-561.49 -289.275)"/></g></g></g></svg>