<svg xmlns="http://www.w3.org/2000/svg" width="80" height="112" viewBox="0 0 80 112"><defs><style>.a{fill:#fff;}.b{fill:#f9c4c3;}.c{fill:#192935;}.d{fill:#fbe3a4;}.d,.g{stroke:#192935;}.d,.g,.h{stroke-linecap:round;stroke-linejoin:round;stroke-width:3.014px;}.e{opacity:0.5;mix-blend-mode:screen;}.e,.k,.l{isolation:isolate;}.f{fill:#aeb0b3;}.g,.h{fill:none;}.h{stroke:#f399a2;}.i{fill:#f399a2;}.j{fill:#ec6476;}.k{fill:#e5bfc7;}.k,.l{mix-blend-mode:multiply;}.l{fill:#e6c8cc;}</style></defs><g transform="translate(-156.726 -117.817)"><path class="a" d="M235.273,146.511a4.464,4.464,0,0,0,.175-.972,4.611,4.611,0,0,0-.344-2.088,5.01,5.01,0,0,0,.971-1.181,4.816,4.816,0,0,0,.614-3.025,5.6,5.6,0,0,0-.426-1.593c-.015-.035-.035-.069-.051-.1.027-.121.052-.247.074-.386.005-.034.01-.068.015-.1a4.787,4.787,0,0,0-.066-1.679,4.411,4.411,0,0,0-1.068-2.05l-.008-.009c.008-.089.015-.178.018-.268a4.823,4.823,0,0,0-.263-1.782,4.6,4.6,0,0,0-.989-1.637,4.929,4.929,0,0,0-.442-1.727,4.486,4.486,0,0,0-1.362-1.695,4.117,4.117,0,0,0-.594-.367,4.891,4.891,0,0,0-.086-.484,4.572,4.572,0,0,0-.959-1.912l-.031-.037q-.067-.079-.138-.154a4.509,4.509,0,0,0-1.686-1.13,5,5,0,0,0-.645-1.811,4.925,4.925,0,0,0-2.265-1.971,5.906,5.906,0,0,0-1.521-.445,7.335,7.335,0,0,0-1.3-.081,7.733,7.733,0,0,0-1.192.125,7.26,7.26,0,0,0-1.148.309,7.97,7.97,0,0,0-1.767.9,9.085,9.085,0,0,0-1.3,1.066,11.548,11.548,0,0,0-.909,1.014c-.24.3-.458.6-.649.895-.108.159-.223.336-.348.538-.114.185-.225.367-.331.544s-.2.331-.27.455c-.107.181-.17.292-.2.341s-.065.115-.1.174a4.967,4.967,0,0,0-.364.768,10.462,10.462,0,0,0-3.234,1.313c-4,2.487-5.513,6.985-6.326,9.4a125.442,125.442,0,0,0-4.417,17.017c-1.5-.3-3.047-.534-4.588-.686a125.618,125.618,0,0,0,.027-17.5c-.175-2.545-.5-7.283-3.739-10.714a11.016,11.016,0,0,0-13.5-1.83c-3.845,2.337-6.042,6.837-6.355,13.013-.068,1.337-.071,2.661-.02,3.976a6.333,6.333,0,0,0-1.89-.554,6.25,6.25,0,0,0-2.439.165,6.575,6.575,0,0,0-3.81,2.789,6.757,6.757,0,0,0-5.711,2.288,7.6,7.6,0,0,0-1.262,7.015,15.726,15.726,0,0,0,5.355,7.651l.232.2a18.122,18.122,0,0,0,5.955,3.788,32.066,32.066,0,0,0-4.08,10.185c-1.578,6.593-2.654,14.327,1.331,21.706a25.546,25.546,0,0,0,5.777,7.2,4.823,4.823,0,0,0-1.852,1.933,5.749,5.749,0,0,0-.634,1.962c-.154,1.1-.317,2.224-.484,3.334l-.516,3.428c0,.028-.006.038-.009.066-.008.057-.028.186-.058.386q-.062.4-.147.994c-.054.373-.117.79-.188,1.249-.078.5-.15,1.013-.216,1.52l-.152,1.179q-.079.613-.131,1.094c-.039.358-.066.657-.082.9a4.862,4.862,0,0,0,.176,1.813,4.95,4.95,0,0,0,1.04,1.815,6.146,6.146,0,0,0,1.168,1.028,5.76,5.76,0,0,0,1.557.746,4.7,4.7,0,0,0,1.919.179A5.645,5.645,0,0,0,176.458,227c.1.021.208.038.311.051a4.469,4.469,0,0,0,4.21-1.828c.016-.022.03-.044.046-.066a4.315,4.315,0,0,0,1.168,1.18,6.448,6.448,0,0,0,1.924.867,5.029,5.029,0,0,0,.675.136,4.824,4.824,0,0,0,.987.025,5.211,5.211,0,0,0,1.193.881,6.039,6.039,0,0,0,1.519.568q.265.06.531.1a5.522,5.522,0,0,0,1.316.014,4.6,4.6,0,0,0,2.035-.734,5.191,5.191,0,0,0,1.237.922,6.043,6.043,0,0,0,1.52.569q.265.06.531.1a5.521,5.521,0,0,0,1.316.014,4.542,4.542,0,0,0,2.876-1.451,3.787,3.787,0,0,0,.6-.872,5.439,5.439,0,0,0,2.181,1.347,5.183,5.183,0,0,0,1.023.248,4.485,4.485,0,0,0,4.6-2.374,6.941,6.941,0,0,0,.684-2.105c.007-.045.014-.09.02-.135l.014-.112c.046-.358.083-.761.113-1.237q.036-.586.072-1.232c.021-.4.047-.8.077-1.222.026-.365.061-.72.1-1.056.04-.309.088-.586.144-.828a10.876,10.876,0,0,0,.574-1.085c.1-.218.223-.476.367-.769.267-.539.55-1.087.841-1.63.337-.628.641-1.224.905-1.773.025-.052.049-.105.072-.158.042-.1.08-.188.11-.262a4.761,4.761,0,0,0,.324-1.217,5.061,5.061,0,0,0-.174-2.135,7.409,7.409,0,0,0-.359-.935c-.03-.066-.063-.13-.1-.194a4.736,4.736,0,0,0-2.732-2.329,24.445,24.445,0,0,0,3.034-1.889,26.624,26.624,0,0,0,9-12.321,45.8,45.8,0,0,0,2.778-14.094,21.847,21.847,0,0,0-2.289-11.178,21.443,21.443,0,0,0-3.034-4.428,96.1,96.1,0,0,0,5.6-10.741,5.567,5.567,0,0,0,1.416.259,7.458,7.458,0,0,0,1-.018,4.067,4.067,0,0,0,1.165,1.455,3.988,3.988,0,0,0,1.948.815,4.318,4.318,0,0,0,2.459-.42,5.216,5.216,0,0,0,1.964-1.751l.028-.04a7.234,7.234,0,0,0,.62-1.09,6.137,6.137,0,0,0,.528-1.926,5.733,5.733,0,0,0-.139-1.978C235.36,146.784,235.318,146.647,235.273,146.511Z" transform="translate(0 0)"/><g transform="translate(175.878 124.486)"><g transform="translate(0 0)"><path class="b" d="M275.053,192.63a.267.267,0,0,1-.237-.191c-2.331-7.947-4.741-16.164-4.309-24.639.173-3.371,1.09-7.819,4.487-9.869a6.779,6.779,0,0,1,3.509-.946,7.023,7.023,0,0,1,5.093,2.1c2.1,2.209,2.487,5.447,2.685,8.308a123.155,123.155,0,0,1-.924,25.733.266.266,0,0,1-.264.229Z" transform="translate(-270.191 -156.719)"/><path class="c" d="M277.266,156.012a6.793,6.793,0,0,1,4.9,2.02c2.006,2.11,2.411,5.239,2.612,8.143a122.76,122.76,0,0,1-.922,25.677l-10.023-.729c-2.35-8.012-4.723-16.211-4.3-24.55.187-3.675,1.208-7.753,4.358-9.654a6.523,6.523,0,0,1,3.371-.907m0-.534a7.046,7.046,0,0,0-3.647.984c-3.5,2.111-4.44,6.649-4.615,10.084-.434,8.52,1.982,16.759,4.319,24.727a.534.534,0,0,0,.473.382l10.023.729h.039a.534.534,0,0,0,.528-.459,123.456,123.456,0,0,0,.926-25.788c-.2-2.908-.6-6.2-2.758-8.474a7.291,7.291,0,0,0-5.287-2.186Z" transform="translate(-268.952 -155.478)"/></g></g><path class="d" d="M305.768,219.092c0-1.366-.039-2.732-.144-4.1-.149-1.937-.287-5.139-1.837-6.544-2.706-2.452-4.264,1.13-4.741,3.445-.8,3.872.086,7.961.8,11.775.157.84,1.958,9.938,1.465,10.021l4.691-.8c-.267.045-.326-9.58-.3-10.4C305.742,221.364,305.768,220.228,305.768,219.092Z" transform="translate(-117.656 -73.908)"/><g transform="translate(202.438 128.84)"><g transform="translate(0 0)"><path class="b" d="M437.04,217.162l-9.878-1.849a.267.267,0,0,1-.216-.293,123.144,123.144,0,0,1,5.662-25.119c.92-2.716,2.119-5.749,4.713-7.35a6.788,6.788,0,0,1,3.573-.981,7.027,7.027,0,0,1,5.041,2.053c2.763,2.849,2.518,7.384,1.825,10.687-1.741,8.305-6.165,15.638-10.443,22.729a.267.267,0,0,1-.228.128A.289.289,0,0,1,437.04,217.162Z" transform="translate(-426.678 -181.304)"/><path class="c" d="M439.655,180.6a6.785,6.785,0,0,1,4.849,1.972c2.562,2.642,2.51,6.845,1.755,10.446-1.713,8.172-6.1,15.5-10.41,22.645l-9.878-1.849a122.763,122.763,0,0,1,5.65-25.064c.934-2.757,2.123-5.68,4.6-7.209a6.536,6.536,0,0,1,3.433-.941m0-.533h0a7.055,7.055,0,0,0-3.713,1.02c-2.669,1.648-3.89,4.732-4.825,7.492a123.418,123.418,0,0,0-5.675,25.173.534.534,0,0,0,.432.587l9.878,1.849a.545.545,0,0,0,.1.009.534.534,0,0,0,.457-.258c4.29-7.11,8.725-14.462,10.476-22.811.706-3.366.949-7.995-1.895-10.927a7.294,7.294,0,0,0-5.232-2.134Z" transform="translate(-425.438 -180.065)"/></g></g><g transform="translate(176.447 125.022)"><g class="e" transform="translate(0 0)"><path class="f" d="M274.529,182.384c-.352-1.93-.619-3.876-.784-5.832a37.425,37.425,0,0,1-.167-5.057,17.184,17.184,0,0,1,1.771-6.849,9.485,9.485,0,0,1,4.539-4.625,7,7,0,0,1,3.569-.465,6.907,6.907,0,0,0-7.081-.148c-3.15,1.9-4.171,5.979-4.358,9.654-.425,8.339,1.948,16.538,4.3,24.55l1.248.091A74.3,74.3,0,0,1,274.529,182.384Z" transform="translate(-271.969 -158.503)"/></g></g><g transform="translate(202.988 129.373)"><g class="e" transform="translate(0 0)"><path class="f" d="M430.473,206.141a65.95,65.95,0,0,1,2.866-10.043c.568-1.518,1.2-3.015,1.9-4.475a10.938,10.938,0,0,1,2.423-3.391,7.649,7.649,0,0,1,6.683-1.964,7.993,7.993,0,0,1,4.693,3.18,7.937,7.937,0,0,0-2.053-4.4,6.871,6.871,0,0,0-8.282-1.031c-2.477,1.529-3.667,4.452-4.6,7.209a122.774,122.774,0,0,0-5.65,25.064l.978.183A47.663,47.663,0,0,1,430.473,206.141Z" transform="translate(-428.452 -183.078)"/></g></g><path class="d" d="M447.772,241.394c.348-1.321.734-2.632,1.183-3.923.637-1.835,1.586-4.9,3.444-5.86,3.242-1.681,3.835,2.179,3.707,4.54-.215,3.947-2.112,7.677-3.774,11.183-.366.772-4.425,9.111-3.97,9.318l-4.334-1.964c.246.112,2.755-9.18,2.938-9.982C447.219,243.6,447.483,242.492,447.772,241.394Z" transform="translate(-238.151 -93.874)"/><g transform="translate(217.362 121.819)"><path class="c" d="M513.005,145.617a.447.447,0,0,1-.342-.12.3.3,0,0,1-.052-.249.921.921,0,0,1,.117-.3c.06-.1.111-.191.152-.265.016-.029.063-.109.139-.239s.166-.278.267-.446.205-.338.312-.51.2-.315.279-.429q.2-.31.478-.656a7.761,7.761,0,0,1,.617-.682,5.333,5.333,0,0,1,.766-.625,4.194,4.194,0,0,1,.932-.47,3.492,3.492,0,0,1,.552-.146,3.985,3.985,0,0,1,.616-.064,3.5,3.5,0,0,1,.622.039,2.1,2.1,0,0,1,.552.159,1.011,1.011,0,0,1,.676.985,1.89,1.89,0,0,1-.13.654,4.415,4.415,0,0,1-.32.676,6.242,6.242,0,0,1-.521.774q-.324.419-.669.859-.231.294-.491.609t-.508.648q-.247.331-.482.66t-.426.631a.436.436,0,0,1-.1.152.628.628,0,0,1-.2.05.655.655,0,0,1-.455-.086,1.708,1.708,0,0,1-.368-.265.318.318,0,0,1-.048-.3,2.389,2.389,0,0,1,.164-.481,5.176,5.176,0,0,1,.3-.572q.183-.3.372-.58t.351-.513c.108-.155.192-.274.251-.357q-.447-.169-.911-.321t-.89-.291c-.05.065-.115.16-.2.288s-.169.267-.266.421-.2.309-.294.468-.189.3-.272.432q-.086.128-.144.218a.914.914,0,0,1-.115.149.317.317,0,0,1-.133.083A.5.5,0,0,1,513.005,145.617Zm3.755-1.916a4.112,4.112,0,0,0,.37-.423q.244-.306.489-.678.157-.24.3-.494a3.129,3.129,0,0,0,.221-.474.877.877,0,0,0,.059-.387.271.271,0,0,0-.171-.232.733.733,0,0,0-.428,0,2.415,2.415,0,0,0-.554.218,4.792,4.792,0,0,0-.6.383,6.551,6.551,0,0,0-.586.488q-.277.26-.517.521a3.831,3.831,0,0,0-.385.483l.273.089.556.183q.307.1.588.2C516.561,143.64,516.69,143.683,516.761,143.7Z" transform="translate(-512.605 -140.419)"/><path class="c" d="M540.052,168.653a1.021,1.021,0,0,1,.133.445c0,.131-.032.214-.1.251a.251.251,0,0,1-.234-.031,1.15,1.15,0,0,1-.329-.313q-.127-.163-.276-.361t-.3-.382a4.786,4.786,0,0,0-.38-.408,2.258,2.258,0,0,0-.187-.157,1.664,1.664,0,0,1-.224-.207l-.028-.031a.933.933,0,0,1-.171-.279.862.862,0,0,1-.051-.386.461.461,0,0,1,.14-.314,1.8,1.8,0,0,1,.293-.237q.613-.4,1.244-.777l.05-.056c.058-.035.137-.087.239-.156s.223-.147.365-.233.3-.179.461-.276.336-.194.51-.29q.239-.131.474-.249t.464-.223q.233-.1.468-.2a.59.59,0,0,1,.41-.05.681.681,0,0,1,.26.173l.032.038a.635.635,0,0,1,.135.274.817.817,0,0,1,.006.331.846.846,0,0,1-.144.334.9.9,0,0,1-.322.274c-.8.407-1.442.761-1.93,1.043s-.865.511-1.138.679-.462.295-.57.375a1.28,1.28,0,0,0-.2.168.656.656,0,0,0,.066.114,1.741,1.741,0,0,0,.107.138q.048.069.1.134l.116.139q.128.155.254.312c.044.063.09.127.137.192A1.23,1.23,0,0,1,540.052,168.653Z" transform="translate(-533.42 -159.59)"/><path class="c" d="M555.908,184.106a.4.4,0,0,1,.1-.033.3.3,0,0,1,.249.05.571.571,0,0,1,.173.222,1.049,1.049,0,0,1,.093.421.678.678,0,0,1-.085.38.787.787,0,0,1-.292.274,3.47,3.47,0,0,0-.357.228,1.226,1.226,0,0,1-.189.127l-.345.2q-.2.118-.443.257l-.488.279q-.237.139-.5.29t-.486.272q-.222.121-.368.209a.763.763,0,0,0-.163.113c.038.005.1.009.193.014l.322.012.411.013.459.015.554.021c.183.007.35.015.5.023l.38.022a1.263,1.263,0,0,0,.2,0l.155-.057c.079-.027.2-.073.368-.138s.406-.156.716-.272a.622.622,0,0,1,.07-.026.376.376,0,0,1,.065-.014.441.441,0,0,1,.347.091.673.673,0,0,1,.211.307.915.915,0,0,1,.048.341.712.712,0,0,1-.09.33.9.9,0,0,1-.186.216,2.1,2.1,0,0,1-.239.175,2.07,2.07,0,0,1-.256.137l-.228.1c-.011,0-.018,0-.019.007s-.008.006-.019.007q-.754.333-1.483.613t-1.51.545a.1.1,0,0,1-.043.027c-.006,0,.051.006.169.015s.275.024.471.046l.677.076q.383.044.8.107t.821.132q.408.069.743.141c.223.047.414.092.572.131s.258.067.3.081a1.18,1.18,0,0,0,.184.058.957.957,0,0,1,.216.081.708.708,0,0,1,.192.145.5.5,0,0,1,.118.238.868.868,0,0,1,.008.305,1.644,1.644,0,0,1-.054.247c-.016.045-.041.067-.075.066a.326.326,0,0,1-.136-.047,2.417,2.417,0,0,0-.224-.1q-.417-.168-.834-.323a7.07,7.07,0,0,0-.9-.265q-.486-.11-1-.191t-1.02-.128q-.508-.048-.973-.085c-.345-.027-.658-.049-.941-.068a5.479,5.479,0,0,1-.7-.084.5.5,0,0,1-.408-.332l-.021-.064a.743.743,0,0,1,0-.29,1.248,1.248,0,0,1,.106-.317.955.955,0,0,1,.32-.277q.243-.15.553-.307.244-.123.5-.242c.17-.08.327-.154.471-.224s.267-.134.369-.191a.584.584,0,0,0,.192-.148c-.049-.005-.185-.015-.406-.025s-.475-.019-.76-.024-.577-.008-.876-.007-.553,0-.762-.006a.758.758,0,0,1-.375-.086.586.586,0,0,1-.18-.189l-.024-.055a.4.4,0,0,1-.018-.262.671.671,0,0,1,.218-.315,9.737,9.737,0,0,1,.954-.713q.585-.392,1.248-.788.383-.233.771-.458l.736-.427q.349-.2.651-.368T555.908,184.106Z" transform="translate(-544.035 -176.336)"/><path class="c" d="M557.58,230.233a.288.288,0,0,1,.136-.474,1.053,1.053,0,0,1,.309-.067c.115-.009.215-.017.3-.025.033,0,.122-.011.268-.021l.506-.034q.286-.018.582-.032c.2-.01.363-.014.5-.014.24-.006.5,0,.786.017a7.71,7.71,0,0,1,.876.108,5.077,5.077,0,0,1,.9.251,3.744,3.744,0,0,1,.85.455,2.956,2.956,0,0,1,.392.338,3.316,3.316,0,0,1,.354.429,2.817,2.817,0,0,1,.27.485,1.683,1.683,0,0,1,.134.494.929.929,0,0,1-.1.6,1.119,1.119,0,0,1-.412.4,2.116,2.116,0,0,1-.626.228,4.931,4.931,0,0,1-.739.1,6.973,6.973,0,0,1-.922,0q-.519-.032-1.066-.069c-.243-.016-.5-.036-.763-.059s-.533-.04-.8-.05-.536-.019-.8-.024-.513,0-.747,0a.482.482,0,0,1-.176.007.518.518,0,0,1-.138-.12.49.49,0,0,1-.142-.373,1.386,1.386,0,0,1,.055-.4q.035-.112.235-.186a2.715,2.715,0,0,1,.491-.123,5.616,5.616,0,0,1,.636-.067q.345-.018.676-.02t.609,0l.427.005q-.069-.414-.159-.832c-.06-.279-.117-.546-.169-.8q-.118-.006-.339,0l-.486.019q-.266.01-.539.023l-.5.023c-.1,0-.184,0-.254.007a.947.947,0,0,1-.181-.008.281.281,0,0,1-.132-.054A.367.367,0,0,1,557.58,230.233Zm3.413,1.775a4.328,4.328,0,0,0,.543.061q.381.027.82.023.282,0,.57-.025a3.528,3.528,0,0,0,.516-.073.986.986,0,0,0,.362-.15.252.252,0,0,0,.116-.244.59.59,0,0,0-.208-.32,2.129,2.129,0,0,0-.456-.3,4.4,4.4,0,0,0-.62-.255,6.222,6.222,0,0,0-.7-.188q-.356-.074-.694-.118a3.991,3.991,0,0,0-.6-.038c0,.014.02.1.052.246s.067.317.107.5.076.362.11.533S560.974,231.947,560.993,232.009Z" transform="translate(-549.39 -213.777)"/><path class="c" d="M557.885,257.543c.165.087.357.191.575.314s.439.258.662.407.441.3.655.462a5.7,5.7,0,0,1,.558.466.753.753,0,0,1,.206.56.426.426,0,0,1-.2.35,1.079,1.079,0,0,1-.189.082.36.36,0,0,1-.207,0,.327.327,0,0,1-.092-.042l-.1-.065c-.219-.162-.458-.344-.718-.542s-.521-.383-.782-.555c-.155-.1-.288-.185-.4-.251a3.721,3.721,0,0,1-.362-.246,1.277,1.277,0,0,0-.43-.208,4.069,4.069,0,0,0-.572-.121q-.27-.039-.561-.057t-.565-.027l-.524-.016q-.249-.008-.429-.025l-.049,0a1.308,1.308,0,0,1-.411-.118.317.317,0,0,1-.174-.313.866.866,0,0,1,.016-.135.785.785,0,0,1,.134-.348.57.57,0,0,1,.232-.181.986.986,0,0,1,.241-.019c.133,0,.294,0,.483,0s.392.012.611.027.43.031.633.048l.543.047c.159.014.272.026.338.034l.166-.126a.651.651,0,0,1,.2-.1c.071-.019.168-.043.29-.072l.405-.1.458-.112.458-.112.405-.1.3-.07a.858.858,0,0,0,.2-.063.24.24,0,0,1,.144-.028.344.344,0,0,1,.2.164.786.786,0,0,1,.058.253.446.446,0,0,1-.06.25.538.538,0,0,1-.162.17.948.948,0,0,1-.213.1c-.077.026-.148.049-.214.066q-.148.039-.309.076t-.305.061l-.259.043q-.116.018-.165.032-.115.024-.239.041l-.23.033a1.732,1.732,0,0,0-.173.031C557.915,257.518,557.89,257.53,557.885,257.543Z" transform="translate(-546.486 -235.682)"/><path class="c" d="M548.844,276.476a.48.48,0,0,1,.033-.1.364.364,0,0,1,.149-.183.205.205,0,0,1,.2,0l.015.007a.178.178,0,0,1,.082.1.417.417,0,0,1,.014.144,1.564,1.564,0,0,1-.024.189,1.688,1.688,0,0,0-.025.218.559.559,0,0,0,.02.154,1.051,1.051,0,0,0,.062.177.766.766,0,0,0,.1.164.562.562,0,0,0,.127.121c.036.026.071.05.106.072s.071.043.109.064a1.644,1.644,0,0,0,.57.2q.277.035.516.043h.072a2.5,2.5,0,0,0,.565-.049q.272-.057.549-.141t.568-.177q.292-.092.633-.173a2.433,2.433,0,0,1,.534-.067,2.9,2.9,0,0,1,.568.047,3.734,3.734,0,0,1,.573.149,2.892,2.892,0,0,1,.537.248l.158.094a.84.84,0,0,1,.15.115,1.993,1.993,0,0,1,.4.44,1.768,1.768,0,0,1,.243.549,1.829,1.829,0,0,1,.041.639,2.248,2.248,0,0,1-.2.708,3.352,3.352,0,0,1-.291.5,1.553,1.553,0,0,1-.514.509c-.152.074-.261.084-.327.032-.089-.069-.088-.19,0-.365a1.249,1.249,0,0,1,.271-.346,1.134,1.134,0,0,0,.166-.184,1.215,1.215,0,0,0,.11-.186.791.791,0,0,0,.011-.695,1.772,1.772,0,0,0-.472-.6.385.385,0,0,0-.073-.06l-.085-.055a1.846,1.846,0,0,0-.4-.194,3.2,3.2,0,0,0-.422-.112,2.41,2.41,0,0,0-.4-.045,1.613,1.613,0,0,0-.337.023q-.377.062-.742.16t-.721.187a6.634,6.634,0,0,1-.7.137,3.687,3.687,0,0,1-.689.031,2.03,2.03,0,0,1-.942-.31,2.431,2.431,0,0,1-.536-.436,1.936,1.936,0,0,1-.336-.507,1.349,1.349,0,0,1-.119-.594,2.327,2.327,0,0,1,.008-.326,1.828,1.828,0,0,1,.064-.343Z" transform="translate(-542.326 -252.131)"/></g><g transform="translate(170.649 204.141)"><path class="c" d="M247.208,636.8a2.489,2.489,0,0,1-.265,1.385.621.621,0,0,1-.677.269,1.875,1.875,0,0,1-1.25-.7,1.807,1.807,0,0,1-.3-1.352q.079-.607.179-1.309t.211-1.4q.11-.7.214-1.353t.192-1.182l.256-1.975a1.426,1.426,0,0,0-.45-.106,5.84,5.84,0,0,0-.605-.021l-.726.012a7.726,7.726,0,0,1-.788-.025q-.046.207-.12.7t-.163,1.108q-.089.616-.178,1.3l-.167,1.291q-.079.608-.128,1.065t-.072.628a1.964,1.964,0,0,1-.263.835.89.89,0,0,1-.434.369.826.826,0,0,1-.521,0,1.948,1.948,0,0,1-.527-.252,2.308,2.308,0,0,1-.442-.386,1.1,1.1,0,0,1-.248-.4,1.278,1.278,0,0,1-.008-.387q.02-.306.07-.763t.125-1.036l.156-1.206q.093-.721.207-1.45t.2-1.316q.086-.587.147-.985t.071-.473q.266-1.761.531-3.5t.507-3.468a1.859,1.859,0,0,1,.209-.649.934.934,0,0,1,.4-.421.527.527,0,0,1,.515.047,1.758,1.758,0,0,1,.568.759,3.94,3.94,0,0,1,.263.729,2.96,2.96,0,0,1,.1.631,16.32,16.32,0,0,1-.22,2.665q-.219,1.314-.312,2.634-.008.211.336.3a4.05,4.05,0,0,0,.792.122q.448.029.872.026a2.683,2.683,0,0,1,.572.035l1.081-6.115a.579.579,0,0,1,.413-.371,1.1,1.1,0,0,1,.631.033,1.811,1.811,0,0,1,.633.381,1.445,1.445,0,0,1,.423.673q.009.079-.063.783t-.211,1.778q-.139,1.073-.318,2.382t-.363,2.579q-.25,1.783-.526,3.542T247.208,636.8Z" transform="translate(-239.914 -619.59)"/><path class="c" d="M290.008,644.321a.611.611,0,0,1-.623-.11.929.929,0,0,1-.218-.549,2.981,2.981,0,0,1,.028-.74q.061-.4.1-.682.015-.114.089-.616t.169-1.156l.191-1.327q.1-.673.175-1.126.125-.814.324-1.754t.477-1.9a14.506,14.506,0,0,1,.687-1.871,8.41,8.41,0,0,1,.967-1.651,5.176,5.176,0,0,1,.641-.7,4.9,4.9,0,0,1,.77-.576,3.6,3.6,0,0,1,.84-.374,2,2,0,0,1,.83-.076,1.485,1.485,0,0,1,.988.495,3.273,3.273,0,0,1,.637,1.115,7.093,7.093,0,0,1,.341,1.541,15.17,15.17,0,0,1,.1,1.751,18.323,18.323,0,0,1-.113,2.138q-.125,1.191-.288,2.444-.108.836-.255,1.743t-.277,1.837q-.13.929-.257,1.839t-.214,1.729a1.273,1.273,0,0,1-.043.409,1.027,1.027,0,0,1-.294.261.89.89,0,0,1-.819.135,2.677,2.677,0,0,1-.8-.344.905.905,0,0,1-.283-.645,7.716,7.716,0,0,1-.058-1.195q.013-.693.1-1.493t.183-1.559l.181-1.4q.082-.636.127-.978-.784-.062-1.579-.108t-1.519-.12q-.054.264-.119.767t-.153,1.109q-.088.607-.179,1.232t-.176,1.135q-.063.339-.1.576a2.377,2.377,0,0,1-.1.4.6.6,0,0,1-.169.258A.62.62,0,0,1,290.008,644.321Zm4.587-6.646a10.585,10.585,0,0,0,.235-1.215q.13-.861.2-1.875.045-.65.056-1.325a10.8,10.8,0,0,0-.044-1.222,3.27,3.27,0,0,0-.2-.9q-.147-.357-.394-.389a.766.766,0,0,0-.571.312,4.209,4.209,0,0,0-.6.879,11.513,11.513,0,0,0-.57,1.268q-.276.717-.5,1.48t-.407,1.5a12,12,0,0,0-.259,1.327q.038.005.458.04t.938.064q.517.028,1,.052A5.618,5.618,0,0,0,294.595,637.675Z" transform="translate(-280.436 -627.418)"/><path class="c" d="M340.515,651.231a1.366,1.366,0,0,1-.127-.586,10.243,10.243,0,0,1,0-1.091q.026-.653.084-1.466t.116-1.713q.054-.862.124-1.779t.135-1.788q.065-.87.131-1.682t.115-1.482q.02-.306.052-.852t.068-1.2q.036-.652.1-1.339t.162-1.253a7.267,7.267,0,0,1,.23-.955q.127-.389.33-.459a1.836,1.836,0,0,1,.761-.066,4.464,4.464,0,0,1,.846.177,4.792,4.792,0,0,1,2.773,1.768,4.138,4.138,0,0,1,.638,2.747,4.609,4.609,0,0,1-.535,1.746,6.835,6.835,0,0,1-2.181,2.382q-.612.4-1.048.637l-.034.266q-.017.133-.024.479-.012.1-.054.717t-.116,1.491q-.074.869-.163,1.852t-.178,1.821q-.089.838-.153,1.409a4.112,4.112,0,0,1-.088.606.672.672,0,0,1-.441.2,1.766,1.766,0,0,1-.584-.037,2.226,2.226,0,0,1-.562-.208,1.206,1.206,0,0,1-.394-.312ZM343.963,641a4.287,4.287,0,0,0,.958-1.363,6.157,6.157,0,0,0,.489-1.616,3.759,3.759,0,0,0,.039-.97,2.711,2.711,0,0,0-.24-.9,2.184,2.184,0,0,0-.57-.74,2.8,2.8,0,0,0-.948-.509q-.01.076-.025.489t-.035,1.019q-.021.605-.048,1.335t-.058,1.421q-.032.691-.059,1.276t-.05.91q.1-.063.282-.166A1.406,1.406,0,0,0,343.963,641Z" transform="translate(-322.583 -631.045)"/><path class="c" d="M379.117,656.231a1.368,1.368,0,0,1-.127-.586,10.242,10.242,0,0,1,0-1.091q.027-.653.084-1.466t.116-1.713q.053-.862.124-1.78t.135-1.788q.064-.87.131-1.682t.115-1.482q.02-.306.052-.852t.068-1.2q.036-.651.1-1.339T380.07,640a7.241,7.241,0,0,1,.23-.955q.127-.389.33-.459a1.834,1.834,0,0,1,.761-.066,4.454,4.454,0,0,1,.846.177,4.792,4.792,0,0,1,2.773,1.768,4.139,4.139,0,0,1,.639,2.747,4.607,4.607,0,0,1-.535,1.745,6.838,6.838,0,0,1-2.181,2.382q-.613.4-1.048.636l-.035.266c-.012.089-.02.248-.023.479q-.012.1-.054.717t-.116,1.491q-.074.869-.163,1.852t-.178,1.821q-.09.838-.153,1.409a4.174,4.174,0,0,1-.088.606.673.673,0,0,1-.442.2,1.771,1.771,0,0,1-.584-.037,2.235,2.235,0,0,1-.562-.208,1.208,1.208,0,0,1-.394-.312ZM382.566,646a4.284,4.284,0,0,0,.958-1.363,6.152,6.152,0,0,0,.489-1.616,3.761,3.761,0,0,0,.039-.97,2.709,2.709,0,0,0-.241-.9,2.181,2.181,0,0,0-.57-.74,2.8,2.8,0,0,0-.948-.509c-.006.051-.015.214-.025.489s-.022.615-.035,1.019-.03.849-.047,1.336-.038.961-.059,1.421-.041.886-.059,1.276-.035.694-.05.911q.1-.063.282-.166A1.4,1.4,0,0,0,382.566,646Z" transform="translate(-354.35 -635.159)"/><path class="c" d="M422.985,655.85l.574-1.277q.328-.73.707-1.472t.763-1.465a14.326,14.326,0,0,1,.743-1.255,1,1,0,0,1,.926-.44.834.834,0,0,1,.632.487,3.5,3.5,0,0,1,.174.447,1.148,1.148,0,0,1,.033.487.825.825,0,0,1-.057.215c-.028.067-.06.144-.1.229q-.37.763-.852,1.656t-.926,1.782q-.261.526-.436.909a7.223,7.223,0,0,1-.443.812,3.167,3.167,0,0,0-.387.973,12.236,12.236,0,0,0-.239,1.32q-.081.627-.131,1.306t-.084,1.321q-.035.643-.072,1.226t-.091,1l-.015.114a3.078,3.078,0,0,1-.3.937.612.612,0,0,1-.684.326,1.616,1.616,0,0,1-.282-.075,1.638,1.638,0,0,1-.705-.419,1.447,1.447,0,0,1-.331-.6,2.669,2.669,0,0,1,.006-.569q.031-.469.088-1.128t.145-1.42l.171-1.464q.081-.7.143-1.256t.091-.78q-.109-.207-.225-.425a1.9,1.9,0,0,1-.177-.5q-.044-.256-.112-.7t-.154-.976q-.086-.532-.176-1.1t-.176-1.1q-.086-.532-.153-.975t-.11-.719a2.838,2.838,0,0,0-.1-.486.789.789,0,0,1-.042-.343.648.648,0,0,1,.284-.407.954.954,0,0,1,.432-.06.727.727,0,0,1,.427.21,1.429,1.429,0,0,1,.293.424,3.027,3.027,0,0,1,.183.526q.07.28.117.517.07.357.135.742t.108.728q.042.343.075.618t.056.394q.042.276.072.569t.056.548q.025.255.054.412T422.985,655.85Z" transform="translate(-388.625 -644.56)"/></g><g transform="translate(167.28 155.005)"><g transform="translate(0 0)"><path class="b" d="M246.856,388.453a37.991,37.991,0,0,1-6.352-.551c-6.715-1.142-15.694-4.294-20.337-12.832-3.4-6.256-2.477-12.9-.97-19.155a27.613,27.613,0,0,1,4.018-9.664,16.985,16.985,0,0,1,5.916-5.269,27.885,27.885,0,0,1,13.386-2.955c.807,0,1.613.023,2.411.065,10.5.546,28.052,5.845,27.237,22.235-.313,6.292-2.077,17.746-10.377,23.768a25.209,25.209,0,0,1-14.932,4.359Z" transform="translate(-217.574 -337.76)"/><path class="c" d="M241.272,337.054c.8,0,1.6.023,2.4.064,11.541.6,27.754,6.478,26.984,21.955-.425,8.546-2.988,18.283-10.267,23.565a24.9,24.9,0,0,1-14.774,4.308,37.812,37.812,0,0,1-6.308-.547c-8.217-1.4-16.025-5.117-20.147-12.7-3.309-6.085-2.514-12.456-.946-18.966a27.715,27.715,0,0,1,3.977-9.572,16.811,16.811,0,0,1,5.825-5.188,27.686,27.686,0,0,1,13.258-2.923m0-.534a28.144,28.144,0,0,0-13.512,2.988,17.251,17.251,0,0,0-6.007,5.35,27.863,27.863,0,0,0-4.059,9.755c-1.519,6.3-2.45,13.01,1,19.345,4.694,8.633,13.753,11.816,20.526,12.967a38.337,38.337,0,0,0,6.4.555,25.467,25.467,0,0,0,15.088-4.41c8.389-6.087,10.171-17.631,10.486-23.97.826-16.6-16.891-21.963-27.489-22.515-.824-.043-1.64-.065-2.425-.065Z" transform="translate(-216.329 -336.52)"/></g></g><g transform="translate(175.821 177.143)"><path class="c" d="M273.525,463.736a1.528,1.528,0,1,1-1.319-1.712A1.528,1.528,0,0,1,273.525,463.736Z" transform="translate(-270.481 -462.012)"/><path class="c" d="M463.112,488.29a1.528,1.528,0,1,1-1.319-1.712A1.528,1.528,0,0,1,463.112,488.29Z" transform="translate(-426.498 -482.218)"/><path class="g" d="M364.782,501.753q-.952,6.117-1.567,12.281" transform="translate(-346.794 -494.716)"/><path class="c" d="M359.3,487.319a.258.258,0,0,1,.14-.294.385.385,0,0,1,.167-.007l4.268.46a1.1,1.1,0,0,1,.469.123c.794.492-2.157,2.084-2.614,2.24-.913.312-2.217-1.776-2.423-2.493C359.3,487.339,359.3,487.329,359.3,487.319Z" transform="translate(-343.566 -482.586)"/><path class="g" d="M348.553,559.548c.5,2.616,4.566,3.185,5.435.7" transform="translate(-334.728 -542.277)"/></g><path class="h" d="M373.207,450.091q-.027-.924-.054-1.848" transform="translate(-179.212 -273.228)"/><path class="h" d="M380.074,467.21a5.128,5.128,0,0,0,.189-1.149" transform="translate(-184.945 -287.953)"/><path class="h" d="M393.668,455.589a3.049,3.049,0,0,0,.413-1.473" transform="translate(-196.204 -278.08)"/><path class="h" d="M386.955,436.37a9.2,9.2,0,0,0,.228-1.5" transform="translate(-190.643 -262.169)"/><path class="h" d="M361.932,460.588q.009.559.018,1.118" transform="translate(-169.92 -283.427)"/><path class="h" d="M358.579,429.7l.146,1.133" transform="translate(-167.145 -257.887)"/><path class="h" d="M376.932,422.213a5.377,5.377,0,0,0-.105,1.218" transform="translate(-182.252 -251.697)"/><path class="h" d="M402.771,426.017a4.023,4.023,0,0,0-.315,1.073" transform="translate(-203.48 -254.841)"/><path class="h" d="M365.738,405.8q.049.505.1,1.01" transform="translate(-173.072 -238.122)"/><path class="h" d="M393.168,405.454a6.869,6.869,0,0,1-.39,1.649" transform="translate(-195.467 -237.844)"/><path class="h" d="M414.282,407.746l-.475,1.813" transform="translate(-212.882 -239.741)"/><path class="h" d="M352.558,396.817a3.033,3.033,0,0,0,.2,1.2" transform="translate(-162.158 -230.698)"/><path class="h" d="M367.969,383.284a2.358,2.358,0,0,0,.041,1.06" transform="translate(-174.885 -219.506)"/><path class="h" d="M411.282,389.316a5.522,5.522,0,0,0-.19,1.324" transform="translate(-210.629 -224.496)"/><path class="h" d="M390.606,385.918a4.935,4.935,0,0,0-.1,1.16" transform="translate(-193.582 -221.685)"/><path class="h" d="M351.824,374.7a1.817,1.817,0,0,1,.216,1.285" transform="translate(-161.553 -212.411)"/><path class="h" d="M379.568,373.748a8.536,8.536,0,0,1-.054,1.233" transform="translate(-184.479 -211.623)"/><path class="h" d="M403.992,378.392l-.215.966" transform="translate(-204.572 -215.46)"/><path class="h" d="M425.844,384.777l-.68,1.316" transform="translate(-222.29 -220.743)"/><path class="h" d="M422.23,368.189a4.42,4.42,0,0,1-.319,1.118" transform="translate(-219.59 -207.025)"/><path class="h" d="M438.963,366.717a3.844,3.844,0,0,0-.481,1.1" transform="translate(-233.315 -205.808)"/><path class="h" d="M409.072,354.355l-.4,1.193" transform="translate(-208.631 -195.587)"/><path class="h" d="M389.951,351.168q.012.709.025,1.418" transform="translate(-193.121 -192.953)"/><path class="h" d="M364.842,352.158l-.052,1.487" transform="translate(-172.287 -193.773)"/><path class="h" d="M342.866,349.284a7.027,7.027,0,0,1,.22,1.439" transform="translate(-154.135 -191.396)"/><path class="h" d="M369.807,475.4q-.017.453-.034.907" transform="translate(-176.413 -295.676)"/><path class="i" d="M464.1,514.406a12.4,12.4,0,0,0-3.216-.15c-.67.056-1.512.361-1.5,1.033.007.477.467.811.9,1.015a6.751,6.751,0,0,0,4.863.337,1.16,1.16,0,0,0,.626-.373.864.864,0,0,0-.147-1.043,2.526,2.526,0,0,0-.978-.565" transform="translate(-250.742 -327.791)"/><path class="i" d="M251.75,486.9a12.394,12.394,0,0,0-3.216-.15c-.669.056-1.512.361-1.5,1.033.006.477.466.811.9,1.015a6.751,6.751,0,0,0,4.863.338,1.159,1.159,0,0,0,.626-.374.864.864,0,0,0-.147-1.043,2.525,2.525,0,0,0-.978-.565" transform="translate(-74.817 -305.049)"/><g transform="translate(160.723 142.151)"><g transform="translate(0 0)"><path class="j" d="M190.868,276.812a.258.258,0,0,1-.081-.013,14.09,14.09,0,0,1-5.365-3.294l-.24-.206c-1.589-1.36-3.5-3.238-4.171-5.7a3.652,3.652,0,0,1,.427-3.278,2.635,2.635,0,0,1,2.055-.865,3.628,3.628,0,0,1,1.569.359,6.033,6.033,0,0,1,2.022,1.669,5.989,5.989,0,0,1,.454-3.764,2.5,2.5,0,0,1,1.558-1.238,2.273,2.273,0,0,1,.586-.078c2.02,0,3.517,2.841,3.6,5.39a25.008,25.008,0,0,1-2.166,10.862A.266.266,0,0,1,190.868,276.812Z" transform="translate(-180.544 -260.134)"/><path class="c" d="M188.435,259.425c1.877,0,3.256,2.766,3.331,5.132a24.852,24.852,0,0,1-2.143,10.745,14.366,14.366,0,0,1-5.513-3.448,11.855,11.855,0,0,1-4.088-5.571,3.339,3.339,0,0,1,.372-3.035,2.387,2.387,0,0,1,1.853-.772,3.388,3.388,0,0,1,1.453.333,8.1,8.1,0,0,1,2.624,2.4c-.683-2.434-.345-5.2,1.594-5.719a1.993,1.993,0,0,1,.517-.069m0-.534a2.549,2.549,0,0,0-.654.087,2.791,2.791,0,0,0-1.72,1.363,5.637,5.637,0,0,0-.581,3.114,5.429,5.429,0,0,0-1.547-1.127,3.9,3.9,0,0,0-1.684-.385,2.9,2.9,0,0,0-2.259.959,3.78,3.78,0,0,0-.481,3.521c.691,2.537,2.638,4.452,4.256,5.837l.241.206a14.3,14.3,0,0,0,5.456,3.345.533.533,0,0,0,.651-.292A25.284,25.284,0,0,0,192.3,264.54c-.086-2.728-1.66-5.649-3.865-5.649Z" transform="translate(-179.3 -258.891)"/></g><path class="k" d="M218.838,267.038c-.082-2.578-1.712-5.632-3.848-5.063l-.023.008a12.017,12.017,0,0,1,1.519,3.185,8.75,8.75,0,0,1-.89,7.436,6.266,6.266,0,0,1-2.408,2.291,3.673,3.673,0,0,1-.991.3,12.271,12.271,0,0,0,4.5,2.584A24.847,24.847,0,0,0,218.838,267.038Z" transform="translate(-206.372 -261.372)"/></g><path class="l" d="M288,411.182a17.282,17.282,0,0,0-3.225-11.34,36.869,36.869,0,0,1,.278,11.844,32.089,32.089,0,0,1-5.757,14.581,24.711,24.711,0,0,1-12.939,9.333,28.15,28.15,0,0,1-16.463-.855,34.34,34.34,0,0,1-12.486-7.424c4.3,6.569,11.591,9.887,19.242,11.187,7.127,1.211,15.067.6,21.083-3.761C285.011,429.466,287.574,419.728,288,411.182Z" transform="translate(-67.465 -233.761)"/></g></svg>