<svg xmlns="http://www.w3.org/2000/svg" width="80" height="103" viewBox="0 0 80 103"><defs><style>.a{fill:#fff;}.b{fill:#1c3043;}.c{fill:#c1dff2;}.d{fill:#ff95b5;}.e{fill:#f2b604;}</style></defs><g transform="translate(-306.632 -237.866)"><g transform="translate(306.632 237.866)"><path class="a" d="M386.481,306.326a7.9,7.9,0,0,0-3.256-5.42c-1.065-.759-2.3-1.259-3.318-2.086-3.78-3.059-3.382-14.31-4.9-18.91a60.48,60.48,0,0,0-8.712-16.993c-1.58-2.17-3.388-4.646-4.009-7.331-.792-3.423,1.043-5.9.788-9.016-.365-4.448-2.867-6.82-6.913-8.012-6.932-2.044-17.086.737-23.106,4.481-10.006,6.221-27.076,14.155-20.466,28.025,4.29,9,1.2,24.945-3.124,33.576-1.1,2.189-2.5,4.315-2.782,6.757a7.821,7.821,0,0,0,3.472,7.343c.671.423,1.457.79,1.783,1.522a3.3,3.3,0,0,1,.147,1.574c-.475,6.891-1.429,15.988,6.619,18.246,6.5,1.822,12.709.056,19.076-1.115,6.881-1.266,13.771-3.195,20.8-3.333,5.685-.112,11.562,3.68,16.806.005,5.314-3.723,8.332-14.068,10.02-20.071C386.216,312.682,386.96,309.307,386.481,306.326Z" transform="translate(-306.632 -237.866)"/><g transform="translate(5.458 5.957)"><path class="b" d="M323.15,287.035c.028.075.062.147.095.219.067.149.141.3.212.443.161.332.31.67.457,1.009s.3.684.461,1.023.285.659.422.99c.143.347.292.692.44,1.037s.308.658.467.984.328.663.5.989.354.637.528.956c.141.257.285.512.426.769.063.115.126.229.191.342.093.162.181.329.287.483a.564.564,0,0,0,.963-.151.54.54,0,0,0-.009-.432q-.519-.912-1.043-1.821c-.365-.631-.707-1.274-1.03-1.926q-.177-.356-.342-.717a.734.734,0,0,0,.153-.217l.082-.163a4.455,4.455,0,0,1,.362-.516c.146-.183.283-.372.424-.559s.289-.371.446-.546c.123-.137.24-.28.36-.419a.552.552,0,0,0,.06-.058c.161.085.323.169.487.248.276.132.554.254.833.381s.554.258.836.375a4.266,4.266,0,0,0,.961.3.561.561,0,0,0,.578-.782.544.544,0,0,0-.309-.3c-.151-.045-.3-.109-.446-.163-.166-.062-.332-.129-.495-.2-.327-.137-.65-.284-.976-.424s-.652-.291-.97-.452-.609-.311-.916-.46-.615-.261-.927-.379-.595-.244-.895-.358-.628-.2-.944-.285c-.16-.044-.319-.091-.48-.133-.2-.052-.407-.1-.613-.137a.342.342,0,0,0-.071-.007.568.568,0,0,0-.337.126.55.55,0,0,0-.2.352.382.382,0,0,0-.06.107.516.516,0,0,0-.029.248A.8.8,0,0,0,323.15,287.035Zm1.754.371c.163.044.322.093.48.151s.3.123.451.187c.33.14.667.261,1,.4.049.02.1.042.144.064l-.036.044c-.079.1-.16.2-.243.3-.167.195-.32.4-.472.606s-.321.432-.487.645c-.044.057-.085.115-.125.175l-.015-.034c-.147-.334-.307-.661-.465-.99s-.315-.675-.475-1.012c-.11-.233-.219-.465-.339-.692C324.515,287.3,324.709,287.354,324.9,287.406Z" transform="translate(-319.645 -265.975)"/><path class="b" d="M332.652,278.492q.366.39.711.8c.234.278.461.562.686.847.107.134.209.271.313.407s.219.264.328.4c.205.248.409.5.626.732l.089.1a.81.81,0,0,0,.316.239.7.7,0,0,0,.542-.005,1.383,1.383,0,0,0,.538-.561c.193-.285.392-.566.581-.853s.358-.589.553-.873c.136-.2.282-.386.421-.58.071-.1.142-.2.211-.3a1.118,1.118,0,0,0,.241-.609.658.658,0,0,0-.4-.694.662.662,0,0,0-.5,0,.638.638,0,0,0-.361.361l0,.007c-.156.229-.311.458-.468.685-.091.131-.188.259-.273.395s-.179.291-.266.439c-.157.267-.323.532-.5.787l-.144.208c-.166-.175-.329-.354-.483-.539-.221-.266-.435-.537-.659-.8-.241-.281-.482-.56-.73-.834s-.525-.557-.8-.827a5.042,5.042,0,0,1-.392-.453.589.589,0,0,0-.818-.108.589.589,0,0,0-.108.817A10.384,10.384,0,0,0,332.652,278.492Z" transform="translate(-323.641 -261.711)"/><path class="b" d="M342.742,265.28c.1.146.217.281.329.419.23.286.465.567.717.833a9.125,9.125,0,0,0,.859.81,3.73,3.73,0,0,0,.449.332c.12.07.24.138.364.2a1.448,1.448,0,0,0,.852.1,2.3,2.3,0,0,0,.654-.2,1.939,1.939,0,0,0,.47-.3,3.056,3.056,0,0,0,.506-.571,2.525,2.525,0,0,0,.379-1.21c.141.094.294.174.442.253a1.9,1.9,0,0,0,1.588.036,1.928,1.928,0,0,0,1.032-1.214,2.791,2.791,0,0,0,.148-.775c0-.1.007-.191.007-.287a6.477,6.477,0,0,0-.028-.724c-.033-.31-.087-.622-.142-.929a10.1,10.1,0,0,0-.262-1.064c-.085-.288-.182-.574-.283-.857-.049-.134-.1-.269-.156-.4a1.616,1.616,0,0,0-.3-.484.657.657,0,0,0-.487-.216.653.653,0,0,0-.524.26l-.084.148a.662.662,0,0,0-.044.33,1.405,1.405,0,0,0,.195.533c.071.165.134.334.195.5q.183.5.333,1.021c.03.12.06.24.083.36.037.19.069.38.1.57.03.171.054.343.075.515a3.693,3.693,0,0,1,.021.417,3.2,3.2,0,0,1-.06.6,2.087,2.087,0,0,1-.115.293,1.412,1.412,0,0,1-.1.138,1.007,1.007,0,0,1-.081.063,1.322,1.322,0,0,1-.128.051,1.444,1.444,0,0,1-.186.024,1.474,1.474,0,0,1-.147-.019,2.439,2.439,0,0,1-.241-.111c-.119-.074-.233-.153-.345-.239a3.417,3.417,0,0,1-.312-.282,3.73,3.73,0,0,1-.262-.293c-.048-.062-.1-.124-.143-.187a1.037,1.037,0,0,0-.256-.288l-.141-.08a.624.624,0,0,0-.734.2.617.617,0,0,0-.126.3.81.81,0,0,0,.048.362l.017.062c.047.193.084.387.119.584a3.774,3.774,0,0,1,.046.594,3.016,3.016,0,0,1-.051.44,2.039,2.039,0,0,1-.109.281,2.446,2.446,0,0,1-.215.275c-.04.036-.079.07-.12.1a.955.955,0,0,1-.1.074,1.976,1.976,0,0,1-.281.113,1.518,1.518,0,0,1-.183.026l-.035,0a1.938,1.938,0,0,1-.221-.1,7.549,7.549,0,0,1-1.079-.89c-.2-.208-.395-.425-.583-.648a7.583,7.583,0,0,1-.547-.7l-.068-.133a.6.6,0,0,0-.314-.315.572.572,0,0,0-.746.313.554.554,0,0,0,0,.431A4.455,4.455,0,0,0,342.742,265.28Z" transform="translate(-328.927 -253.542)"/><path class="b" d="M362.88,260.421a.571.571,0,0,0,.434.034.554.554,0,0,0,.33-.283,9.612,9.612,0,0,0,.344-1.177c.1-.365.186-.73.292-1.092.077-.265.151-.531.225-.8a4.222,4.222,0,0,0,.564-.131c.28-.083.563-.151.846-.222s.572-.154.859-.226c.1-.024.2-.044.3-.065.017.043.035.085.051.128.136.354.267.711.408,1.063.067.165.129.333.2.5a3.881,3.881,0,0,0,.32.615.956.956,0,0,0,.369.336.645.645,0,0,0,.759-1.018c-.044-.067-.083-.139-.123-.206s-.064-.112-.093-.17c-.3-.676-.562-1.367-.855-2.046-.148-.342-.309-.679-.467-1.016-.175-.375-.36-.748-.557-1.112a9.673,9.673,0,0,0-.58-.96,3.832,3.832,0,0,0-.507-.616.771.771,0,0,0-.508-.21h-.028a.669.669,0,0,0-.362.129.863.863,0,0,0-.16.153,1.689,1.689,0,0,0-.13.2,4.038,4.038,0,0,0-.186.464c-.086.226-.164.453-.241.682-.117.35-.221.7-.325,1.059s-.212.7-.31,1.052-.2.715-.292,1.072-.2.735-.3,1.1-.191.729-.284,1.094c-.071.282-.131.569-.218.847-.007.019-.015.038-.022.056a.605.605,0,0,0-.033.434A.571.571,0,0,0,362.88,260.421Zm2.338-5.781c.114-.373.231-.745.358-1.114l.034-.092c.063.1.124.2.185.3.174.289.326.592.476.894q.164.347.321.7l-.073.022c-.254.079-.506.166-.761.246s-.5.145-.746.213c-.054.015-.108.031-.161.047l.034-.121C364.991,255.367,365.107,255,365.218,254.64Z" transform="translate(-338.501 -250.195)"/><path class="b" d="M376.247,251.437a7.926,7.926,0,0,0,.243,1.041,3.719,3.719,0,0,0,.261.6,1.4,1.4,0,0,0,.131.193,2.933,2.933,0,0,0,.26.3,3.447,3.447,0,0,0,.513.391,1.434,1.434,0,0,0,.373.164,1.992,1.992,0,0,0,.84.06,2.705,2.705,0,0,0,.741-.2,3.118,3.118,0,0,0,.608-.355,4.7,4.7,0,0,0,.827-.8c-.025.14-.049.28-.071.421-.056.364-.114.729-.178,1.091-.07.4-.13.8-.2,1.2-.03.184-.058.369-.09.553s-.064.345-.085.519a.67.67,0,0,0,.862.777.652.652,0,0,0,.388-.334,1.651,1.651,0,0,0,.107-.36c.013-.078.024-.156.037-.233.026-.165.05-.331.074-.5.05-.353.1-.706.156-1.058q.088-.56.17-1.12c.05-.352.11-.7.164-1.054q.085-.56.167-1.121c.051-.355.108-.71.147-1.067.023-.214.043-.429.047-.644a2.079,2.079,0,0,0-.015-.348.8.8,0,0,0-.114-.358.725.725,0,0,0-.128-.148.644.644,0,0,0-.432-.16.6.6,0,0,0-.473.213.989.989,0,0,0-.164.307c-.032.087-.064.173-.1.259-.062.158-.13.314-.2.468a13.969,13.969,0,0,1-.956,1.8,5.665,5.665,0,0,1-.5.558c-.073.061-.147.12-.222.177a2.282,2.282,0,0,1-.284.179,2.44,2.44,0,0,1-.412.136,1.774,1.774,0,0,1-.257.015,1.335,1.335,0,0,1-.16-.031,1.705,1.705,0,0,1-.19-.1,2.523,2.523,0,0,1-.285-.246,1.965,1.965,0,0,1-.188-.286,4.123,4.123,0,0,1-.189-.527c-.055-.194-.093-.393-.137-.589-.082-.361-.167-.722-.238-1.085a.525.525,0,0,0-.274-.32.551.551,0,0,0-.741.243l-.047.133a.542.542,0,0,0,.015.288C376.116,250.788,376.182,251.113,376.247,251.437Z" transform="translate(-344.892 -248.879)"/><path class="b" d="M391.183,259.22a1.3,1.3,0,0,0,.118.22,3.963,3.963,0,0,0,.249.349,2.86,2.86,0,0,0,.607.546,3.43,3.43,0,0,0,2.521.529,2.456,2.456,0,0,0,.733-.3,2.339,2.339,0,0,0,.719-.6,2.713,2.713,0,0,0,.309-.52c.046-.1.085-.2.122-.307a3.729,3.729,0,0,0,.137-.524,3.953,3.953,0,0,0,.068-.464,3.229,3.229,0,0,0-.021-.578,5.315,5.315,0,0,0-.089-.555,4.238,4.238,0,0,0-.2-.643c-.066-.174-.142-.341-.224-.507a6.909,6.909,0,0,0-.8-1.238c-.282-.351-.567-.7-.83-1.064a2.791,2.791,0,0,1-.22-.391c0-.012-.007-.025-.01-.038q0-.046.006-.092c.007-.025.015-.05.023-.075a1.9,1.9,0,0,1,.118-.175,1.474,1.474,0,0,1,.156-.139,3.544,3.544,0,0,1,.592-.28,3,3,0,0,1,.487-.118,1.576,1.576,0,0,1,.262.012,2.521,2.521,0,0,1,.38.132,2.9,2.9,0,0,1,.41.262,2.239,2.239,0,0,1,.261.3l.015.022a.506.506,0,0,0,.277.237.476.476,0,0,0,.6-.305.462.462,0,0,0-.028-.363,3.486,3.486,0,0,0-.438-.575,2.883,2.883,0,0,0-.592-.442,2.593,2.593,0,0,0-.307-.149c-.055-.023-.11-.047-.166-.068a2.44,2.44,0,0,0-.417-.1,1.3,1.3,0,0,0-.235-.02,2.644,2.644,0,0,0-.436.043,2.452,2.452,0,0,0-.287.069,5.476,5.476,0,0,0-.633.228c-.077.032-.152.068-.227.106a2.089,2.089,0,0,0-.214.139,1.819,1.819,0,0,0-.37.345c-.045.054-.087.11-.128.168a1.872,1.872,0,0,0-.163.3,1.569,1.569,0,0,0-.092.4,1.133,1.133,0,0,0,.02.4,1.8,1.8,0,0,0,.15.4c.024.051.054.1.081.149.043.076.09.15.14.223.195.287.4.566.608.841.175.228.353.453.523.685a5.247,5.247,0,0,1,.329.568c.1.212.195.424.277.643a5.417,5.417,0,0,1,.151.706c0,.074.008.147.01.221a2.274,2.274,0,0,1-.032.42,3.738,3.738,0,0,1-.209.645,2.05,2.05,0,0,1-.169.255,1.927,1.927,0,0,1-.191.16,3.212,3.212,0,0,1-.349.185,2.127,2.127,0,0,1-.267.054,3.376,3.376,0,0,1-.507-.026,3.61,3.61,0,0,1-.6-.2,3.176,3.176,0,0,1-.382-.254,2.834,2.834,0,0,1-.264-.3,1.943,1.943,0,0,1-.1-.182,1.686,1.686,0,0,1-.037-.173,4.251,4.251,0,0,1,.037-.488.683.683,0,0,0-.471-.681.673.673,0,0,0-.357-.018l-.164.059a.681.681,0,0,0-.26.232c-.039.08-.082.16-.115.242a1.341,1.341,0,0,0-.053.263,1.375,1.375,0,0,0-.021.245,3.762,3.762,0,0,0,.029.412A1.978,1.978,0,0,0,391.183,259.22Z" transform="translate(-352.009 -249.945)"/><path class="b" d="M339.037,388.253V388.2c0-.175,0-.352-.005-.525-.006-.248-.026-.5-.044-.721v-.013l-.014-.174c-.015-.283-.025-.6-.031-.972l0-.159v-.009a8.285,8.285,0,0,0-.052-.975,1.031,1.031,0,0,0-.212-.572,1.018,1.018,0,0,0-.421-.275c-.058-.02-.118-.035-.172-.048l-.071-.018-.035-.009-.019,0c-.139-.036-.283-.073-.424-.1-.208-.044-.422-.079-.654-.105a4.819,4.819,0,0,0-.536-.029c-.227,0-.479.014-.791.043a.62.62,0,0,0-.492.566c0,.012,0,.021,0,.029a.559.559,0,0,0-.114.3q-.011.171-.025.341l-.006.078c0,.054-.009.109-.012.163-.006.088-.01.176-.014.264s-.009.181-.015.27v.011c-.025.347-.054.742-.064,1.133-.005.2-.01.407-.015.61v.017c-.011.526-.023,1.07-.056,1.605-.023.372-.038.737-.054,1.11,0,.1-.009.2-.014.3l-.243.014-.777.047c-.462.028-.857.049-1.208.065-.37.018-.75.047-1.131.087l0-.109c0-.073,0-.147,0-.22.012-.653.011-1.344-.006-2.174-.008-.371-.027-.755-.041-1.035,0-.085-.008-.166-.012-.247l0-.06,0-.076c-.01-.234-.022-.5-.041-.759-.011-.143-.026-.28-.047-.417l0-.031a2.578,2.578,0,0,0-.076-.378l-.014-.047a1.163,1.163,0,0,0-.13-.32.92.92,0,0,0-.636-.471,4.8,4.8,0,0,0-1.082-.112h-.386c-.164,0-.411,0-.664.015-.095,0-.19.011-.284.019-.07,0-.161.011-.252.021h-.023l-.08.01a.666.666,0,0,0-.431.274.562.562,0,0,0-.1.353.534.534,0,0,0-.087.265c-.019.412-.056.832-.085,1.169l-.024.285-.024.279c-.016.187-.032.372-.048.556-.021.241-.038.483-.057.73v.011c-.009.117-.017.23-.026.344-.017.23-.042.463-.065.688l0,.024c-.012.115-.025.229-.036.344-.034.337-.066.71-.1,1.14-.021.274-.038.551-.057.833v.012l-.018.279c-.006.1-.013.192-.02.288l0,.054,0,.067c-.017.228-.033.452-.045.672-.019.39-.036.77-.051,1.157-.03.71-.043,1.409-.056,2.184,0,.328-.008.657-.01.984v.091c0,.382-.007.728-.013,1.073s-.008.7,0,1.1c0,.107,0,.215,0,.322v.01c0,.221,0,.448.01.672a4.573,4.573,0,0,0,.069.586c.015.08.032.151.049.213a1.663,1.663,0,0,0,.071.209.887.887,0,0,0,.1.16l.026.038a.965.965,0,0,0,.307.275,2.627,2.627,0,0,0,.616.252c.062.018.123.033.192.049l.041.01.025.006a2.321,2.321,0,0,0,.391.07c.08,0,.163.008.253.008.267,0,.546-.024.791-.045l.176-.015.088-.007c.135-.011.267-.022.4-.04a.8.8,0,0,0,.572-.364,1.3,1.3,0,0,0,.15-.4c.047-.207.086-.422.12-.613l0-.009.007-.037.01-.057c.029-.157.057-.314.078-.471.04-.293.068-.6.092-.87l.019-.214q.025-.266.052-.533l.009-.088v-.015c.054-.533.108-1.083.138-1.627.019-.362.031-.715.043-1.132.011-.389.04-.781.066-1.112l.022-.277q.027-.334.051-.669c.043,0,.089,0,.135,0,.235,0,.473,0,.7-.005h.037l.206,0c.353,0,.708-.023,1.05-.041l.088,0c.347-.018.71-.043,1.078-.074-.024.345-.039.629-.048.894-.012.36-.028.711-.049,1.127l-.012.256,0,.064c-.012.263-.024.5-.039.735-.016.264-.024.531-.031.788,0,.1-.006.21-.01.315l0,.122v.041c-.01.285-.02.579-.021.872v.466q0,.292,0,.584c0,.2,0,.359,0,.527,0,.064,0,.129.008.194l0,.034,0,.047a1.587,1.587,0,0,0,.041.34.977.977,0,0,0,.254.478,1.158,1.158,0,0,0,.219.168c.082.046.171.087.247.12a2.385,2.385,0,0,0,.622.148l.026,0a5.263,5.263,0,0,0,.757.054c.1,0,.2,0,.282-.007a4.632,4.632,0,0,0,.617-.067l.028,0c.065-.011.129-.023.191-.039s.115-.036.165-.054l.055-.02a.716.716,0,0,0,.318-.26,1.438,1.438,0,0,0,.2-.5l0-.015c.055-.219.1-.441.135-.657l0-.01c.073-.405.121-.742.15-1.06.027-.294.045-.6.061-.863v-.018c0-.087.01-.172.015-.259l.01-.156,0-.038,0-.042c.017-.278.035-.565.048-.848l.011-.251.01-.226v-.02c.023-.518.048-1.1.089-1.665.052-.739.1-1.5.132-2.259.006-.127.013-.253.02-.379l0-.054c.015-.252.026-.46.033-.674.011-.4.019-.762.025-1.111.01-.62,0-1.247,0-1.8C339.038,388.48,339.037,388.367,339.037,388.253Z" transform="translate(-321.05 -310.918)"/><path class="b" d="M363.093,397.675c-.032-.163-.069-.348-.111-.526-.025-.107-.05-.214-.076-.32-.054-.227-.11-.461-.16-.692q-.114-.527-.23-1.055l-.073-.325c-.055-.24-.111-.488-.16-.734l-.03-.155c-.058-.3-.119-.6-.184-.9-.052-.238-.113-.478-.17-.71-.029-.118-.059-.236-.088-.355-.109-.453-.209-.915-.306-1.363q-.08-.372-.162-.744c-.066-.3-.142-.6-.214-.887-.1-.38-.195-.772-.274-1.163-.075-.369-.139-.706-.2-1.03l-.017-.1c-.022-.13-.044-.265-.078-.393-.037-.144-.083-.313-.135-.48s-.1-.321-.156-.474l-.036-.107c-.052-.153-.106-.312-.171-.461a5.316,5.316,0,0,0-.321-.618,1.873,1.873,0,0,0-.556-.63,1.188,1.188,0,0,0-.417-.162l-.04-.008a2.611,2.611,0,0,0-.528-.072h-.026a5.54,5.54,0,0,0-.583.037c-.108.014-.218.032-.323.049l-.149.024c-.168.026-.312.054-.44.086-.074.018-.153.042-.241.07l-.055.012-.025.005c-.156.036-.322.081-.538.146a3.585,3.585,0,0,0-.531.191,1.172,1.172,0,0,0-.5.473,4.143,4.143,0,0,0-.255.547l-.018.045c-.094.23-.177.468-.258.7-.036.1-.071.205-.108.307-.1.287-.2.581-.292.866l-.071.22c-.115.351-.223.709-.327,1.056l-.006.022c-.055.182-.115.367-.173.545-.052.161-.1.322-.154.484-.094.307-.183.62-.269.923-.111.393-.227.8-.354,1.2-.218.676-.412,1.385-.577,2.107-.114.5-.207.937-.286,1.348-.115.535-.211,1.083-.3,1.614q-.054.3-.108.6l-.006.031c-.069.335-.141.682-.2,1.025l-.035.191c-.048.261-.1.53-.128.8a2.526,2.526,0,0,0,0,.6.918.918,0,0,0,.111.334.928.928,0,0,0,.354.358,2.52,2.52,0,0,0,.552.234,5.444,5.444,0,0,0,.673.135,1.578,1.578,0,0,0,.215.013c.066,0,.132,0,.2-.005l.123,0c.151,0,.314-.012.508-.025l.073,0c.07,0,.142-.007.213-.017a.7.7,0,0,0,.388-.2l.011-.011a.868.868,0,0,0,.118-.142c.037-.065.069-.135.1-.194a1.316,1.316,0,0,0,.06-.18l.016-.058c.074-.246.135-.5.195-.746.023-.094.045-.188.069-.281.2-.788.353-1.43.492-2.023.028-.119.052-.236.074-.346.123-.029.233-.056.333-.084.291-.081.526-.149.738-.217.236-.075.476-.139.713-.191.1-.023.208-.042.31-.061l.058-.011.018,0,.023,0,.015.048c.009.029.018.057.027.086l0,.01c.049.149.1.3.14.455.083.307.154.635.218,1a7.4,7.4,0,0,0,.224.98,2.363,2.363,0,0,0,.242.574,1.14,1.14,0,0,0,.362.387,1.372,1.372,0,0,0,.221.107,1.342,1.342,0,0,0,.269.061l.062.01a2.411,2.411,0,0,0,.4.022h.107c.146,0,.3,0,.483-.016.161-.01.323-.018.484-.026.2-.01.407-.02.611-.034h0c.317-.021.653-.049.993-.1a1.073,1.073,0,0,0,.295-.081.752.752,0,0,0,.381-.436,1.6,1.6,0,0,0,.045-.676A3.933,3.933,0,0,0,363.093,397.675Zm-5.417-6.521-.072.007c-.211.023-.4.041-.585.055-.123.007-.263.015-.4.015-.08,0-.15,0-.214-.008,0-.075.012-.155.025-.243.025-.168.052-.332.08-.487.012-.066.025-.132.038-.2.02-.1.041-.208.057-.312.028-.183.053-.362.076-.53.013-.1.023-.2.034-.3.007-.07.015-.139.023-.209.011-.1.024-.19.037-.286.011-.079.022-.158.031-.237.04-.324.094-.662.16-1,.005-.026.01-.052.015-.078l.007-.031c.07.246.12.5.169.747l.006.03c.061.311.133.672.209,1.029.022.1.045.2.069.3.018.074.036.148.052.222s.026.12.038.179c.024.115.05.234.079.349.017.068.036.137.054.205a5.948,5.948,0,0,1,.169.761Z" transform="translate(-332.982 -310.786)"/><path class="b" d="M386.012,384.631a3.979,3.979,0,0,0-.336-.554c-.1-.14-.21-.272-.319-.4l-.034-.041c-.124-.147-.23-.268-.345-.382a4.38,4.38,0,0,0-.523-.439,3.421,3.421,0,0,0-.432-.251l-.024-.012a5.537,5.537,0,0,0-1.093-.438,8.924,8.924,0,0,0-2.252-.3h-.076c-.378,0-.762.027-1.133.054h-.021c-.341.024-.69.059-1.035.1-.281.036-.563.094-.835.151l-.136.028c-.141.029-.286.054-.425.078-.161.028-.327.057-.489.091a5.431,5.431,0,0,0-.91.254.827.827,0,0,0-.4.335.9.9,0,0,0-.108.276.475.475,0,0,0-.112.193,9.512,9.512,0,0,0-.242,1.241c-.043.319-.057.646-.071.963l-.006.14c-.017.371-.039.737-.063,1.112-.017.269-.027.543-.037.808l-.011.278q-.01.237-.021.474-.015.331-.029.662c-.012.32-.014.646-.016.961v.1c0,.262-.014.529-.026.786,0,.1-.01.207-.014.311q-.011.262-.023.524-.014.3-.026.592c-.015.383-.024.774-.034,1.151-.008.334-.017.679-.029,1.019l-.008.212c-.01.285-.021.578-.026.868,0,.143-.006.287-.01.43,0,.183-.009.367-.011.551a2.136,2.136,0,0,0,.171,1.019.807.807,0,0,0,.168.24l.036.032a1.008,1.008,0,0,0,.128.1,1.468,1.468,0,0,0,.189.1l.027.012a2.131,2.131,0,0,0,.425.142,3.553,3.553,0,0,0,.65.092h.069c.075,0,.151,0,.226-.008l.141-.006c.107,0,.222,0,.363,0h.145a5.024,5.024,0,0,0,.637-.045c.13-.017.256-.038.375-.063a.715.715,0,0,0,.567-.482,2.5,2.5,0,0,0,.064-.308l.015-.087c.026-.151.052-.3.077-.454.051-.3.1-.615.136-.935.008-.084.017-.169.027-.254s.015-.141.022-.212c.009-.088.021-.174.032-.261s.021-.156.03-.235c.021-.19.042-.379.064-.569q.028-.247.056-.494c.012-.114.022-.227.032-.341l.013-.151h.077l.181,0c.287-.007.6-.023.992-.052h-.024c.163-.01.338-.025.516-.052.154-.024.31-.057.481-.1a5.7,5.7,0,0,0,1.078-.369,5.982,5.982,0,0,0,1.006-.613,5.9,5.9,0,0,0,.785-.7A9.607,9.607,0,0,0,385,390.6a7.452,7.452,0,0,0,.611-1.035,7.575,7.575,0,0,0,.683-2.082c.036-.188.071-.372.1-.556s.029-.34.035-.5a3.457,3.457,0,0,0-.164-1.164A4.76,4.76,0,0,0,386.012,384.631Zm-3.543,2.182a2.084,2.084,0,0,1-.5,1.038c-.1.108-.222.219-.362.34-.114.1-.248.214-.39.316a4.922,4.922,0,0,1-.9.454c-.154.048-.322.089-.529.131-.191.039-.378.075-.567.1l-.107,0a3.666,3.666,0,0,1-.412-.024c0-.023,0-.047-.007-.071l-.007-.138c-.008-.153-.015-.31-.031-.465-.006-.057-.012-.115-.019-.172-.011-.1-.022-.2-.031-.3l-.009-.146c-.012-.2-.024-.408-.042-.611-.01-.124-.023-.247-.036-.37s-.026-.253-.037-.38l-.008-.146c-.008-.135-.016-.269-.024-.4h0c-.009-.163-.015-.331-.017-.5,0-.023,0-.046,0-.069,0-.052,0-.106,0-.159l.137-.022.165-.027.193-.032c.125-.021.25-.042.375-.065l.075-.014c.156-.03.317-.06.478-.077l.144,0a4.683,4.683,0,0,1,.851.083c.18.039.324.076.454.117a4.018,4.018,0,0,1,.481.187,2.642,2.642,0,0,1,.367.242,2.056,2.056,0,0,1,.182.2,1.58,1.58,0,0,1,.1.195,2.209,2.209,0,0,1,.074.355A2.9,2.9,0,0,1,382.469,386.813Z" transform="translate(-344.142 -310.148)"/><path class="b" d="M408.477,384.919a3.636,3.636,0,0,0-.138-.506l0-.01a3.666,3.666,0,0,0-.259-.624,5.623,5.623,0,0,0-.653-.948c-.1-.117-.213-.227-.322-.333l-.055-.054a4.415,4.415,0,0,0-.5-.424,6.2,6.2,0,0,0-2.017-.88c-.385-.1-.785-.17-1.173-.234l-.029,0c-.35-.058-.694-.114-1.043-.145-.2-.018-.415-.027-.662-.027q-.163,0-.327,0l-.2,0h-.242l-.247,0c-.111,0-.2,0-.289,0s-.172.009-.257.016l-.192.01-.235.012-.311.026h-.01l-.062,0-.032,0h0a2.363,2.363,0,0,0-.242.026l-.021,0a.628.628,0,0,0-.406.22.536.536,0,0,0-.307.319,4.536,4.536,0,0,0-.19,1.139c-.006.073-.011.145-.018.217-.028.3-.063.612-.1.91l-.024.214-.023.2c-.032.283-.066.576-.088.865-.018.24-.039.483-.061.718-.011.123-.022.246-.033.368-.014.161-.03.322-.047.482-.021.2-.042.406-.057.61-.025.335-.032.676-.038,1.006l0,.105c-.008.4-.012.8-.015,1.1,0,.133,0,.265-.006.4,0,.233-.009.474-.006.711,0,.379.015.764.025,1.136.01.347.021.7.025,1.058.009.755.042,1.524.073,2.186.016.344.038.748.085,1.148l.008.067c.016.14.032.284.055.425.012.078.027.153.043.223.007.028.015.055.024.082l.007.022a1.184,1.184,0,0,0,.063.169.837.837,0,0,0,.078.121l.031.042a.627.627,0,0,0,.144.133l.032.024a.947.947,0,0,0,.226.116l.046.02a1.437,1.437,0,0,0,.26.078,1.9,1.9,0,0,0,.374.047h.028a3.227,3.227,0,0,0,.339-.024l.032,0,.343-.037c.246-.027.5-.054.75-.077l.171-.015a6.11,6.11,0,0,0,.771-.1,1.279,1.279,0,0,0,.276-.094.781.781,0,0,0,.38-.471,3.861,3.861,0,0,0,.13-.546l.015-.079c.033-.174.068-.36.1-.547.024-.151.039-.307.054-.458l.008-.077c.032-.332.06-.654.091-1.04.036-.447.1-.924.191-1.458l.2-.054a6.228,6.228,0,0,0,.789-.279c.089-.039.179-.076.269-.113.121-.05.247-.1.368-.156a4.432,4.432,0,0,0,.666-.4l.038-.027.135-.09c.251-.167.511-.339.752-.527a7.38,7.38,0,0,0,.743-.693c.174-.179.312-.332.434-.481l.017-.021a4.049,4.049,0,0,0,.286-.38,5.862,5.862,0,0,0,.848-2.007,7.457,7.457,0,0,0,.2-1.182,3.991,3.991,0,0,0-.009-.507A6.569,6.569,0,0,0,408.477,384.919Zm-3.686,1.075a3.858,3.858,0,0,1-.221.708,2.679,2.679,0,0,1-.252.373,3.172,3.172,0,0,1-.408.366,3.382,3.382,0,0,1-.583.287c-.193.06-.393.1-.586.146l-.18.04a7.426,7.426,0,0,1-.768.138c0-.055,0-.109,0-.164s0-.108,0-.162c0-.1,0-.2,0-.305,0-.3.009-.631.03-1.029.015-.274.022-.553.028-.823,0-.093,0-.186.008-.279,0-.137,0-.276,0-.411,0-.05,0-.1,0-.149v-.079c0-.11,0-.225.008-.336l.028-.005.121-.025c.125-.024.27-.051.414-.068h.007a2.42,2.42,0,0,1,.459.056c.1.021.194.044.289.071a2.415,2.415,0,0,1,.269.1l.042.017c.189.077.376.16.554.245a1.894,1.894,0,0,1,.269.174,2.959,2.959,0,0,1,.331.374,1.562,1.562,0,0,1,.1.192,2.243,2.243,0,0,1,.073.34A1.526,1.526,0,0,1,404.791,385.994Z" transform="translate(-355.203 -309.651)"/><path class="b" d="M431.714,380.886c-.027-.03-.057-.058-.086-.086l-.024-.023-.016-.015c-.076-.072-.154-.147-.237-.213s-.162-.125-.245-.187l-.131-.1c-.1-.074-.191-.153-.283-.229l-.074-.061-.1-.083c-.2-.164-.4-.334-.616-.485-.123-.086-.233-.158-.338-.221s-.195-.112-.281-.154c-.024-.012-.049-.022-.074-.031a.487.487,0,0,0-.295-.139l-.047,0a.507.507,0,0,0-.307.11c-.113.085-.222.173-.33.263s-.242.19-.36.29-.207.19-.307.288l-.351.339c-.1.1-.2.2-.3.3l-.33.318c-.215.206-.423.419-.627.636q-.172.179-.342.36l.092-.1c-.265.28-.532.558-.792.844-.216.238-.436.473-.65.713s-.425.47-.632.709c-.069-.164-.138-.336-.211-.52-.163-.414-.354-.824-.539-1.22-.094-.2-.19-.408-.282-.613-.165-.368-.319-.747-.467-1.114l-.086-.213c-.1-.236-.2-.48-.3-.723a4.012,4.012,0,0,0-.256-.487l.022.037-.025-.043-.054-.087,0,.009c-.042-.067-.085-.133-.129-.2a1.354,1.354,0,0,0-.133-.179.873.873,0,0,0-.537-.29.5.5,0,0,0-.069,0,1.152,1.152,0,0,0-.439.122l-.028.011a6.927,6.927,0,0,0-.805.415,1.792,1.792,0,0,0-.335.12,3.094,3.094,0,0,0-.355.224l-.1.067c-.037.02-.076.039-.114.057s-.09.044-.135.069l-.019.011a.839.839,0,0,0-.141.093.7.7,0,0,0-.178.239l-.017.032a.51.51,0,0,0-.041.12l0,.008a1.111,1.111,0,0,0-.048.3,2.77,2.77,0,0,0,.027.354c.023.163.053.331.088.5.051.243.124.486.194.722.032.107.064.213.094.32s.061.218.091.327c.065.233.132.475.2.711l.039.131c.1.333.2.678.314,1.012.107.313.24.621.368.92l.038.09c.068.156.131.317.194.472.068.171.139.349.214.521q.1.224.2.447c.077.174.154.348.23.523.04.092.079.185.117.277s.068.163.1.244c.018.042.037.084.055.125.041.092.083.188.119.283a2.64,2.64,0,0,1,.065.44c0,.262-.017.53-.035.788l0,.038c-.021.285-.024.574-.028.855l0,.141c0,.3-.011.606-.018.909-.008.354-.016.719-.02,1.079,0,.421.017.848.038,1.261l0,.037c0,.108.005.215.008.322,0,.2.009.4.018.607v.051c0,.052,0,.1.005.157s0,.1.005.141,0,.1.005.144v.019a3.9,3.9,0,0,0,.035.488,1.3,1.3,0,0,0,.084.291.855.855,0,0,0,.489.451,3.3,3.3,0,0,0,.443.13l.023.006.02,0c.194.048.394.1.6.126a3.564,3.564,0,0,0,.408.027l.123,0c.157.006.343.012.531.016h.131a4.18,4.18,0,0,0,.451-.021,2.555,2.555,0,0,0,.528-.117.81.81,0,0,0,.45-.536c.044-.14.082-.284.12-.433.079-.308.144-.626.207-.933l.043-.21.039-.189c.022-.107.044-.213.065-.319.032-.16.055-.325.076-.484l0-.031c.031-.236.057-.476.082-.709.012-.115.024-.231.037-.346.049-.431.1-.9.17-1.425.016-.128.034-.256.051-.384.012-.091.025-.182.036-.273l.015-.113c.012-.1.025-.2.042-.3.006-.015.012-.03.019-.044.137-.239.3-.474.448-.694.095-.138.194-.276.29-.41s.205-.286.3-.431c.211-.309.441-.594.638-.832.235-.283.46-.57.67-.838s.415-.5.624-.742l.062-.071c.2-.234.413-.489.643-.778.307-.388.638-.77.958-1.138.134-.155.268-.309.4-.465l.148-.171c.169-.2.345-.4.5-.61a3.422,3.422,0,0,0,.327-.513,1.148,1.148,0,0,0,.075-.187,1.134,1.134,0,0,0,.047-.479A1,1,0,0,0,431.714,380.886Z" transform="translate(-365.033 -308.526)"/><path class="b" d="M364.711,277.035l.025-.011h0Z" transform="translate(-339.446 -261.799)"/><path class="b" d="M361.487,345.75h0Z" transform="translate(-337.919 -293.488)"/><path class="b" d="M361.478,345.833h0Z" transform="translate(-337.915 -293.526)"/><path class="b" d="M361.479,345.813h0v.009h0v0l0-.016v0Z" transform="translate(-337.915 -293.515)"/><path class="b" d="M361.487,345.744v0h0v0Z" transform="translate(-337.919 -293.484)"/><path class="b" d="M386.03,324.724a5.273,5.273,0,0,0-.089-.7,3.866,3.866,0,0,0-.187-.631,4.473,4.473,0,0,0-.22-.49,5,5,0,0,0-.375-.582,4.007,4.007,0,0,0-.852-.857,3.71,3.71,0,0,0-.444-.289c-.2-.108-.408-.2-.616-.288-.173-.074-.344-.152-.52-.219a3.491,3.491,0,0,0-.524-.158,8.141,8.141,0,0,0-1.214-.17,6.576,6.576,0,0,0-.99.023c-.191.018-.382.038-.571.065-.13.019-.26.05-.387.08-.255.058-.5.143-.755.211-.12.031-.241.065-.36.1a7.578,7.578,0,0,0,.263-.941c.039-.207.079-.414.105-.622a4.569,4.569,0,0,0,.031-.494,4.418,4.418,0,0,0-.041-.6,2.952,2.952,0,0,0-.088-.459c-.018-.063-.04-.125-.064-.186.013-.113.013-.228.015-.34,0-.157.009-.314.014-.471,0-.031,0-.062,0-.093a.468.468,0,0,0,0-.077c0-.029,0-.057-.007-.085,0-.088-.01-.175-.013-.262-.007-.208-.025-.417-.05-.623a.291.291,0,0,0-.028-.089c-.018-.2-.028-.4-.043-.6-.036-.526-.112-1.047-.194-1.568-.1-.6-.207-1.192-.319-1.785-.1-.549-.207-1.1-.339-1.643-.072-.294-.138-.59-.213-.884-.071-.277-.142-.556-.208-.835s-.125-.566-.184-.85-.114-.557-.163-.837c-.1-.569-.2-1.139-.3-1.707s-.2-1.165-.315-1.745c-.225-1.183-.488-2.358-.8-3.518-.158-.58-.306-1.162-.49-1.734s-.415-1.119-.634-1.673c-.177-.45-.352-.9-.533-1.349s-.384-.9-.585-1.344q-.156-.356-.313-.712v0l0-.008-.007-.015,0,0-.013-.03-.031-.068c-.218-.493-.435-.987-.654-1.48l.023.05-.206-.466c-.007-.016-.014-.033-.022-.05h0l-.065-.146q-.068-.153-.138-.3c-.252-.55-.534-1.087-.806-1.627q-.2-.389-.39-.779c-.128-.256-.273-.5-.416-.751-.29-.5-.6-.977-.917-1.456-.435-.664-.854-1.341-1.314-1.988-.226-.318-.447-.64-.68-.954-.253-.341-.513-.675-.778-1.006l.033.041c-.363-.458-.728-.916-1.124-1.345s-.779-.83-1.2-1.21-.871-.768-1.323-1.133c-.479-.387-.983-.744-1.489-1.094-.223-.154-.458-.287-.687-.431-.25-.157-.5-.325-.755-.47-.494-.277-1-.538-1.517-.766a13.391,13.391,0,0,0-3.157-1c-.273-.054-.548-.094-.821-.141-.291-.05-.582-.091-.874-.128-.61-.076-1.224-.136-1.837-.172-.144-.009-.288-.011-.433-.011l-.366,0c-.287,0-.575.006-.863.017-.577.022-1.152.079-1.728.133-.464.043-.923.116-1.383.194a.56.56,0,0,0-.131.023l-.059.01c-.246.042-.489.095-.733.148s-.516.108-.769.182c-.473.14-.939.306-1.4.475-.234.086-.466.175-.7.274s-.456.2-.683.31c-.549.257-1.092.526-1.626.816l-.8.439c-.254.14-.5.295-.739.454a15.976,15.976,0,0,0-1.406,1.012c-.247.206-.5.408-.744.617s-.46.4-.685.605c-.433.4-.843.822-1.251,1.246s-.807.855-1.2,1.293-.738.877-1.083,1.336q-.588.781-1.147,1.584c-.683.984-1.327,2-1.957,3.018-.652,1.057-1.264,2.138-1.853,3.234-.13.241-.249.491-.366.738-.126.266-.254.532-.379.8-.266.57-.514,1.147-.756,1.729s-.471,1.165-.692,1.754c-.205.546-.4,1.1-.588,1.65-.1.279-.2.558-.292.837-.107.311-.207.622-.3.936-.091.294-.168.593-.254.889s-.164.6-.242.895c-.149.572-.245,1.157-.357,1.738s-.224,1.141-.337,1.712-.221,1.137-.313,1.708c-.046.286-.095.572-.139.859-.048.311-.085.623-.117.936-.065.618-.114,1.238-.16,1.858l-.063.859c-.02.279-.043.557-.049.836-.005.239-.008.478-.019.717-.012.266-.022.53-.023.8,0,.494-.03.986-.03,1.48s.025.986.022,1.479c0,.273,0,.546,0,.82a5.906,5.906,0,0,0,.011.728c-.006.03-.011.061-.014.1s-.007.078-.011.117c-.006.071-.01.142-.014.213s-.013.151-.016.227c0,.023,0,.044,0,.067a5.073,5.073,0,0,0-.754.511,4.433,4.433,0,0,0-.38.338,5.054,5.054,0,0,0-.415.489,7.638,7.638,0,0,0-.563.838,4.118,4.118,0,0,0-.427,1.039,5.244,5.244,0,0,0-.185,1.2,3.505,3.505,0,0,0,.155,1.25c.052.148.106.295.167.439-.11.045-.218.094-.323.148a5.973,5.973,0,0,0-.99.656,3.959,3.959,0,0,0-.812.88,4.865,4.865,0,0,0-.5,1.061c-.057.157-.1.318-.148.479a2.913,2.913,0,0,0-.114.641,3.289,3.289,0,0,0,.074.837,3.088,3.088,0,0,0,.226.625,2.542,2.542,0,0,0,.294.44c.053.07.109.138.166.2a3.9,3.9,0,0,0,.469.438,2.669,2.669,0,0,0,1,.528,4.137,4.137,0,0,0,1.2.138,6.861,6.861,0,0,0,1.158-.146c.693-.143,1.381-.32,2.061-.522s1.39-.388,2.063-.646q.5-.193,1.009-.37c.345-.121.695-.225,1.042-.334a15.258,15.258,0,0,1,2.7-.619q.484-.038.97-.049c.172,0,.345-.01.517-.007s.358.018.537.029c.72.048,1.435.133,2.15.234.2.028.393.056.59.087.682.133,1.355.309,2.04.429.4.069.8.136,1.2.175.346.033.7.032,1.044.038a13.964,13.964,0,0,0,2.243-.149c.354-.051.705-.13,1.054-.21s.685-.161,1.02-.267c.163-.051.323-.11.483-.173l.016-.006.115-.045.018-.007,0,0c.164-.065.328-.132.488-.207s.319-.162.475-.249a4.542,4.542,0,0,0,.536-.362,3.811,3.811,0,0,0,.368-.314,3.028,3.028,0,0,0,.673-1.126,3.212,3.212,0,0,0,.144-.63,2.158,2.158,0,0,0-.023-.65,2.082,2.082,0,0,0-.214-.608,2.679,2.679,0,0,0-.215-.322,1.512,1.512,0,0,0-.166-.2,3.2,3.2,0,0,0-1.069-.683,5.169,5.169,0,0,0-1.112-.266c-.324-.055-.648-.1-.974-.124-.3-.023-.6-.01-.9-.021l-.326-.014a3.676,3.676,0,0,0,.632-.793,3.258,3.258,0,0,0,.415-1.2,3.944,3.944,0,0,0,.035-.529,3.559,3.559,0,0,0-.065-.611,2.779,2.779,0,0,0-.21-.616,2.479,2.479,0,0,0-.242-.432,4.143,4.143,0,0,0-.387-.494,3.465,3.465,0,0,0-.272-.246,1.8,1.8,0,0,0-.21-.155,3.585,3.585,0,0,0-1.016-.4,2.767,2.767,0,0,0-.613-.084c-.062,0-.124,0-.186.008.029-.366.053-.734.081-1.1.036-.477.075-.953.121-1.429.018-.174.038-.348.062-.521.029-.215.062-.431.085-.647.051-.477.119-.951.169-1.427l0-.015v0h0v0l0,.016,0-.017h0v-.012h0v0h0v0h0v-.006h0v-.035h0v-.015l0-.023V312.7h0v0h0v0h0v.011h0v0h0v-.025h0v0h0v0l0-.018,0,.013,0-.043v-.008h0v-.006l.007-.07c.045-.423.113-.842.164-1.263q.041-.344.086-.687c.032-.241.054-.483.078-.725.039-.347.085-.692.145-1.036s.138-.7.215-1.053c.086-.385.177-.769.27-1.153.081-.335.164-.672.268-1,.134-.428.26-.859.418-1.278.226-.6.472-1.186.728-1.768a9.747,9.747,0,0,1,.463-.885c.16-.282.323-.568.507-.834l.115-.162a11.625,11.625,0,0,1,.878-1.036c.307-.316.626-.617.955-.908.113-.092.226-.182.342-.269.135-.1.281-.191.42-.285a7.212,7.212,0,0,1,.869-.488c.25-.115.5-.228.759-.325.306-.114.612-.223.923-.323.279-.089.556-.185.84-.261s.546-.128.822-.177a7.435,7.435,0,0,1,1.039-.1,9.742,9.742,0,0,1,1.012.05,12.664,12.664,0,0,1,2.677.679,5.011,5.011,0,0,1,.873.518,7.083,7.083,0,0,1,.6.517c.192.187.371.388.545.593a12.427,12.427,0,0,1,.9,1.312c.135.227.263.46.383.7s.237.5.351.748c.137.319.267.64.389.965.131.35.257.707.353,1.069s.2.746.278,1.124c.078.354.14.712.2,1.069.05.273.1.545.151.818a31.8,31.8,0,0,1,.324,4.291c.006.364,0,.728.005,1.093,0,.38.011.759.012,1.14,0,.735,0,1.471-.029,2.206-.012.278-.025.556-.033.834s-.012.556-.031.834q-.053.767-.126,1.532c-.024.215-.052.429-.077.644-.034.29-.039.585-.053.877a.372.372,0,0,0,.014.115l-.015.04c-.04.1-.084.209-.132.312-.095.206-.184.414-.28.619l-.019.041.009-.019-.011.022,0,0,0,0c-.086-.032-.173-.063-.261-.091a4.377,4.377,0,0,0-.5-.116,5.07,5.07,0,0,0-.631-.1,3.265,3.265,0,0,0-.611.032c-.169.02-.338.041-.506.072a5.283,5.283,0,0,0-1.136.388,5.423,5.423,0,0,0-.921.5c-.185.13-.365.266-.539.411-.13.109-.252.23-.375.347s-.242.256-.357.389q-.219.253-.427.515a4.545,4.545,0,0,0-.291.413,3.894,3.894,0,0,0-.294.6,5.575,5.575,0,0,0-.3,1.045c-.043.227-.078.455-.1.686a3.089,3.089,0,0,0,0,.518,3.15,3.15,0,0,0,.105.672c.024.083.048.166.077.247a3.1,3.1,0,0,0,.154.392,3.293,3.293,0,0,0,.737.929,4.025,4.025,0,0,0,.547.424,3.226,3.226,0,0,0,.572.282,5.7,5.7,0,0,0,1.031.262,6.612,6.612,0,0,0,.682.094c.161.011.322.019.483.016a9.389,9.389,0,0,0,1.283-.134c.351-.055.7-.128,1.046-.2s.7-.139,1.048-.212.718-.161,1.073-.261c.322-.09.643-.182.967-.261.234-.057.467-.115.7-.162s.446-.08.669-.121c.459-.084.917-.172,1.38-.229.351-.026.7-.023,1.055-.032.367-.01.733-.046,1.1-.058a15.6,15.6,0,0,1,2.121.2c.425.044.85.1,1.272.157.425.083.846.19,1.267.29.215.051.429.107.647.147.242.045.485.085.728.125.734.136,1.47.263,2.211.348.378.043.754.084,1.133.121.178.017.357.031.536.047.163.014.328.029.492.03.37,0,.737-.005,1.106-.03.186-.012.372-.032.558-.05.226-.022.453-.042.678-.075.179-.027.36-.051.537-.09s.351-.083.526-.125a11.014,11.014,0,0,0,1.069-.314,8.214,8.214,0,0,0,2.165-1.175,3.577,3.577,0,0,0,.383-.325,2.451,2.451,0,0,0,.176-.2c.092-.114.182-.228.266-.349.107-.155.209-.314.31-.474.047-.076.086-.158.126-.238.073-.143.139-.293.2-.442a2.228,2.228,0,0,0,.09-.328c.032-.14.055-.282.078-.425A2.93,2.93,0,0,0,386.03,324.724Zm-62.883-10.672,0-.043c0-.1.007-.2.009-.294s0-.177,0-.265v-.041c0-.156,0-.317.009-.475.01-.214.017-.437.023-.633v-.008c.01-.347.022-.706.048-1.059l.02-.272c.058-.781.118-1.588.2-2.389.028-.266.062-.551.105-.835.026-.163.053-.327.079-.49l.011-.065c.017-.1.034-.207.051-.311.082-.507.182-1.049.313-1.7l.036-.176c.1-.52.207-1.029.3-1.53.03-.154.058-.308.087-.462.08-.428.162-.871.274-1.3.121-.464.256-.944.375-1.367l.026-.094c.128-.455.273-.916.444-1.409l.033-.1.012-.032c.294-.85.6-1.728.918-2.585.231-.586.451-1.127.673-1.653s.451-1.034.719-1.6c.125-.263.261-.543.428-.881.119-.242.249-.484.364-.7l.052-.1c.285-.531.6-1.069.871-1.545l.031-.052c.45-.781.94-1.552,1.373-2.232s.911-1.4,1.4-2.111c.331-.464.675-.929,1.023-1.383.33-.431.7-.873,1.167-1.392.133-.148.273-.3.409-.439l.02-.022.133-.14.106-.113.005-.006c.154-.163.313-.333.473-.5l.062-.063c.386-.395.786-.8,1.208-1.172q.26-.227.522-.451l.24-.2c.255-.21.519-.427.8-.62.431-.3.822-.566,1.2-.8.169-.108.349-.2.523-.3l.008,0,.05-.026.382-.207.248-.135c.379-.2.789-.412,1.254-.634l.066-.03c.27-.126.575-.269.874-.387.394-.157.75-.288,1.09-.4l.088-.03c.33-.109.67-.222,1.011-.306.115-.029.234-.054.355-.08l.036-.007.182-.039c.2-.044.4-.084.628-.124l.037-.006.039-.007.226-.039c.485-.076.966-.123,1.33-.157.478-.043.946-.084,1.411-.1.373-.015.707-.022,1.021-.022q.2,0,.406,0c.415.009.838.051,1.245.091h.008l.16.016c.346.038.714.08,1.083.143l.314.052.014,0c.27.045.549.091.82.146a13.752,13.752,0,0,1,2.142.613c.385.158.731.3,1.071.478l.207.105.017.009c.313.159.636.323.939.511q.241.149.48.3l.023.014.092.058c.069.044.14.086.211.129l.015.009c.1.063.21.127.313.195.314.207.624.432.923.65l.01.008.131.095c.347.269.687.543,1.01.817.365.309.688.6.988.887a20.586,20.586,0,0,1,1.767,1.955q.175.221.353.44l.018.024.006.009c.151.194.306.394.451.6l.148.208.058.083c.1.136.194.273.293.409.288.4.58.826.946,1.39.128.2.258.394.387.591.507.769,1.031,1.563,1.47,2.4.079.15.155.3.239.473l.027.053.108.216.071.139.022.043q.148.29.293.581l.1.19c.087.174.187.37.279.563.067.141.132.282.2.424a.619.619,0,0,0,.04.087l.036.081.035.077c.185.42.369.83.524,1.175l.1.222.025.056q.111.256.224.511.289.652.581,1.3c.2.48.4.973.585,1.449l.009.023.052.132.125.315,0,.007c.175.442.356.9.523,1.351.1.268.182.553.254.8.063.218.123.441.181.657l.009.034.047.175.07.259c.132.489.268.994.384,1.5.284,1.231.515,2.471.7,3.523l.029.165c.1.558.19,1.061.284,1.562.112.6.222,1.154.336,1.688.06.281.134.564.206.836l0,.009,0,.018c.049.186.1.378.145.568l.035.147c.1.412.2.838.291,1.26s.175.877.255,1.305l.021.11.038.2c.066.348.14.743.2,1.133.072.475.12.911.147,1.331.016.239.039.481.063.715l0,.022c.009.093.018.186.026.279l0,.058h0v0c-.084-.068-.171-.133-.259-.194a6.036,6.036,0,0,0-.942-.513,4.228,4.228,0,0,0-1.138-.28,2.865,2.865,0,0,0-.426-.031,4.132,4.132,0,0,0-.743.074c-.1.018-.209.039-.319.061l-.014,0h0c-.009-.083-.021-.166-.033-.254l-.021-.15c-.02-.155-.037-.3-.053-.457l0-.054c-.013-.157-.026-.32-.048-.482l-.017-.133-.009-.068c0-.022,0-.043-.008-.064l0-.022v0a.812.812,0,0,0-.05-.209v0l0-.007c-.013-.054-.025-.109-.035-.164-.031-.261-.056-.528-.082-.791l0-.055c-.015-.152-.029-.3-.045-.455-.019-.183-.046-.37-.072-.55l0-.014-.02-.141c-.037-.266-.078-.526-.123-.775-.088-.5-.184-.993-.267-1.41-.064-.326-.143-.664-.211-.962l-.015-.065c-.032-.137-.063-.274-.094-.411q-.151-.679-.3-1.358c-.088-.389-.2-.791-.291-1.145l-.067-.249c-.051-.193-.1-.386-.153-.579l-.006-.022c-.184-.7-.374-1.414-.581-2.115-.185-.624-.383-1.255-.575-1.866l-.014-.044q-.129-.408-.256-.817c-.125-.4-.265-.846-.44-1.395-.039-.122-.081-.243-.122-.362q-.046-.131-.09-.263-.083-.25-.167-.5l-.063-.188c-.159-.475-.31-.91-.459-1.33-.111-.307-.234-.615-.353-.913l-.012-.03c-.058-.145-.116-.29-.173-.435-.316-.807-.7-1.657-1.178-2.6a17.017,17.017,0,0,0-1.441-2.416l-.431-.59c-.164-.224-.34-.441-.509-.651l-.014-.017a13.336,13.336,0,0,0-.927-1.022,19.032,19.032,0,0,0-2.221-1.918c-.357-.263-.743-.542-1.144-.8l-.011-.007-.009-.006c-.2-.131-.41-.267-.619-.394s-.423-.245-.622-.354c-.422-.231-.809-.428-1.182-.6-.434-.2-.9-.4-1.475-.623-.45-.175-.855-.33-1.274-.453s-.893-.236-1.461-.348c-.357-.07-.83-.159-1.322-.215l-.2-.023c-.442-.052-.9-.1-1.353-.125l-.048,0c-.151-.006-.307-.013-.461-.013-.058,0-.116,0-.174,0l-.194.008-.195.008c-.083,0-.168.012-.25.02l-.111.011c-.456.04-.942.106-1.486.2a12.514,12.514,0,0,0-2.6.676c-.4.166-.831.364-1.348.622-.462.23-.879.457-1.274.69l-.2.119-.008.005c-.309.182-.627.369-.929.574-.4.269-.783.533-1.158.81a28.363,28.363,0,0,0-2.317,1.878c-.344.315-.683.646-1.035,1.015a9.212,9.212,0,0,0-.867,1.032,21.169,21.169,0,0,0-1.539,2.545c-.23.444-.431.86-.612,1.27-.113.256-.225.53-.362.886a.671.671,0,0,0-.054.141q-.09.239-.179.478c-.157.421-.294.825-.469,1.349l-.073.215c-.118.353-.253.754-.375,1.152l-.081.264,0,.016c-.1.335-.21.681-.309,1.023q-.043.149-.087.3l-.01.036,0,.009c-.1.354-.211.721-.3,1.085-.12.475-.234.954-.341,1.4-.054.227-.119.495-.191.764-.046.173-.1.347-.147.515l0,.015-.031.1c-.039.131-.078.263-.12.4l0,.012c-.1.319-.2.649-.282.976-.108.411-.234.9-.354,1.4s-.229,1.005-.322,1.48c-.071.359-.133.737-.189,1.07l-.042.257c-.042.247-.082.493-.122.741l0,.023-.107.658c-.078.47-.152.93-.2,1.4-.107,1-.179,2-.25,2.961-.02.274-.041.548-.061.821v.011l-.02.275-.012.155c-.022.292-.045.594-.052.893-.008.317-.018.686-.037,1.054,0,.079-.008.158-.013.236-.016.259-.032.525-.023.789a.665.665,0,0,0,.032.181h0v0c0,.044-.009.088-.013.131-.008.079-.014.159-.019.239l0,.052h0a4.117,4.117,0,0,0-.5.678,9.414,9.414,0,0,0-.5,1.029l-.01.021h0l-.073-.05-.023-.016c-.207-.142-.4-.275-.58-.408l-.121-.088a4.575,4.575,0,0,0-.429-.292c-.186-.107-.37-.206-.556-.3l-.115-.056,0,0-.089-.042-.034-.017-.009,0a5.082,5.082,0,0,0-.888-.339,4.241,4.241,0,0,0-1.043-.147l-.084,0c-.079,0-.163.008-.256.017h-.009l0-.1v-.012c0-.09.007-.183.007-.275a.46.46,0,0,0-.016-.127v0l0-.005c0-.038,0-.076,0-.115v-.029l0-.065c0-.149,0-.3,0-.428q0-.289,0-.578l0-.293c0-.16,0-.321-.009-.484,0-.111-.005-.222-.007-.334l0-.232v-.055c0-.182-.006-.371-.006-.557C323.134,314.4,323.141,314.225,323.147,314.052Zm43.334,5.527q.025-.635.052-1.271c0-.069.007-.137.011-.219.006-.11.013-.224.015-.336,0-.074,0-.147,0-.221,0-.1,0-.206.007-.308.021-.664.014-1.381-.019-2.193-.021-.5-.063-1.007-.1-1.494l-.007-.09-.008-.1c-.014-.165-.027-.33-.04-.5l-.023-.306c-.045-.6-.1-1.29-.166-1.955-.031-.3-.058-.6-.087-.905l0-.047c-.029-.322-.069-.764-.117-1.182q-.081-.738-.166-1.476l-.027-.237-.028-.242-.027-.241c-.081-.712-.2-1.469-.355-2.314-.15-.808-.3-1.524-.456-2.189-.148-.627-.332-1.368-.571-2.106l0-.015c-.215-.661-.459-1.411-.762-2.112a22.214,22.214,0,0,0-1.033-2.154,13.909,13.909,0,0,0-1.283-1.921c-.222-.273-.458-.539-.687-.8l-.016-.018-.008-.009-.04-.045c-.095-.107-.221-.247-.361-.381s-.286-.266-.422-.386-.3-.252-.433-.356l-.007-.005-.01-.009-.008-.006c-.158-.124-.322-.253-.488-.371-.366-.261-.653-.45-.93-.614-.315-.186-.654-.383-1-.565-.294-.155-.619-.3-1.021-.471-.373-.154-.76-.289-1.158-.426a6.772,6.772,0,0,0-.983-.259c-.361-.065-.733-.118-1.138-.162l-.152-.017c-.149-.017-.334-.038-.512-.048-.2-.011-.374-.017-.541-.017h-.023a11.912,11.912,0,0,0-2.284.214c-.336.065-.68.144-1.05.241l-.105.027-.048.012-.011,0c-.126.032-.257.064-.382.1-.163.054-.34.114-.554.191-.361.13-.683.254-.982.378-.334.138-.683.3-1.13.528a19.741,19.741,0,0,0-1.9,1.108l-.144.1-.012.008c-.255.168-.52.342-.767.535-.343.267-.67.542-1,.823-.258.218-.511.473-.714.678l-.087.087c-.159.158-.281.283-.385.393-.125.131-.239.27-.35.4l-.006.008-.014.017a18.415,18.415,0,0,0-1.341,1.87,16.583,16.583,0,0,0-1.115,1.984c-.346.759-.642,1.549-.86,2.151l-.053.144-.013.037-.039.106,0,.009,0,.01-.014.037c-.084.232-.172.472-.253.709-.1.3-.188.6-.272.9l0,.008-.041.146c-.2.715-.363,1.463-.509,2.168-.129.627-.248,1.284-.353,1.862l0,.016-.045.25c-.109.6-.242,1.227-.348,1.731l0,.012-.083.4c-.055.268-.1.548-.133.773-.017.11-.034.22-.052.329-.052.315-.094.638-.13.922l0,.01-.017.136c-.016.124-.034.248-.051.372l0,.022c-.031.226-.064.459-.088.691-.04.376-.076.773-.114,1.248l-.018.229-.019.239c-.021.178-.042.355-.063.533-.034.283-.073.6-.1.922-.023.227-.044.462-.066.722l-.013.141c-.017.188-.035.382-.041.58v0h0v0l-.1-.016a2.121,2.121,0,0,0-.309-.022c-.069,0-.132,0-.185.008a7.183,7.183,0,0,0-.944.168l-.009,0-.089.021-.126.027-.026.005-.044.009c-.081.016-.163.034-.244.053-.143.034-.285.076-.419.115-.249.075-.576.175-.9.29l-.04.012h0l-.015.006h0c.006-.105.013-.21.021-.316l0-.071c0-.044.007-.088.009-.132.012-.188.023-.4.034-.673.006-.149.011-.3.015-.447v-.038c.009-.317.018-.6.037-.884.066-.9.136-1.867.212-2.843.027-.352.06-.725.1-1.111.1-.877.243-1.749.384-2.592l0-.012.02-.122.027-.16,0-.016c.143-.855.291-1.738.494-2.6.118-.5.225-.948.345-1.408s.249-.9.366-1.295l.005-.017.021-.071.046-.158,0-.011c.119-.4.242-.824.341-1.243.028-.116.055-.232.082-.348l.008-.038.011-.043.011-.049c.069-.294.147-.628.229-.947.226-.9.5-1.81.764-2.687l.005-.018,0-.013,0-.014.025-.082c.124-.412.263-.847.453-1.411l.094-.282c.11-.328.233-.7.364-1.058.056-.154.113-.309.17-.463l.009-.025.006-.016c.013-.031.024-.062.037-.095l0-.014.006-.018a.44.44,0,0,1,.018-.044l0-.01,0,0v0l0,0,0-.008c.005-.015.01-.03.017-.045l.006-.016,0-.009.006-.014a22.183,22.183,0,0,1,1.056-2.249c.178-.327.382-.686.643-1.13.2-.338.418-.662.608-.934s.392-.494.591-.716c.17-.189.35-.373.524-.551l.016-.017.007-.008.087-.089c.422-.431.887-.83,1.365-1.235.714-.583,1.474-1.148,2.259-1.68.2-.137.4-.27.607-.395l.282-.168.306-.182c.436-.264.825-.481,1.189-.662q.294-.146.59-.288c.2-.095.513-.236.835-.369a6.449,6.449,0,0,1,.867-.281c.361-.1.661-.166.941-.223.257-.051.525-.1.76-.141l.017,0,.033-.006.031-.005c.27-.038.555-.074.848-.105.266-.027.549-.047.865-.061.093,0,.181,0,.261,0,.459,0,.919.045,1.368.09h.012c.406.048.789.1,1.171.162.406.066.812.154,1.193.237.425.094.826.219,1.2.34.291.095.579.207.857.317l.188.074c.346.141.748.308,1.142.5.44.215.841.421,1.227.631a19.611,19.611,0,0,1,2.181,1.425c.3.228.566.441.817.652.1.089.209.182.31.273l.008.007.008.008.011.01.075.067.067.06c.111.1.226.2.336.307l.078.075.007.007.012.011c.237.229.482.466.709.718s.464.53.68.794c.3.395.565.76.817,1.115s.491.737.746,1.185c.073.127.142.258.211.388l.016.03,0,.006.068.129.015.028,0,.006c.1.191.216.407.32.624l.111.229c.129.266.306.629.464.979.165.374.333.776.5,1.193.039.1.08.2.121.295s.1.234.145.357c.1.258.192.515.252.685.168.471.33.946.469,1.353l.109.319c.119.347.235.688.347,1.035l.049.151.01.03c.217.671.515,1.59.789,2.464.148.473.3.96.444,1.445.092.3.176.614.251.889l.01.037.005.02q.05.186.1.371.071.259.143.517l0,.018c.2.732.413,1.489.593,2.257.041.175.082.349.122.524q.1.414.193.827l.029.124c.1.431.208.877.293,1.322.022.121.046.243.071.366l.011.052.015.075c.056.282.12.6.173.915.076.5.132.918.174,1.312.008.076.016.152.023.228l0,.028,0,.026c.014.134.028.277.046.417.02.164.042.31.066.448.014.082.035.167.054.241l0,.01.011.042h0l0,.018,0,.02h0l.005.055v.04c0,.025,0,.05,0,.08,0,.094.013.189.024.279l.007.068c.01.1.022.2.033.309l.007.066c.017.156.035.312.051.468v.042a1.16,1.16,0,0,0,.018.22l.01.038,0,.021h0v0a8.707,8.707,0,0,0-.851.375,10.2,10.2,0,0,0-.947.538,7.616,7.616,0,0,0-.964.753,6.821,6.821,0,0,0-.772.788,11.049,11.049,0,0,0-.71.951c-.2.312-.4.623-.574.924-.055.094-.107.192-.152.277l-.014.022,0,0h0v0h0v0c-.089-.08-.166-.144-.242-.2-.115-.089-.239-.178-.368-.263-.074-.048-.155-.1-.248-.145h0Zm-26.317-.452a3.9,3.9,0,0,1,.706.214,1.933,1.933,0,0,1,.27.174,2.289,2.289,0,0,1,.631.92,2.693,2.693,0,0,1,.09.425,3.456,3.456,0,0,1-.021.611,3.224,3.224,0,0,1-.164.54,3.453,3.453,0,0,1-.28.468,5.025,5.025,0,0,1-.71.673c-.1.067-.2.14-.326.222a.59.59,0,0,0-.211.223.653.653,0,0,0-.069.968.582.582,0,0,0,.424.191h.245c.038,0,.076,0,.114,0h.084c.088,0,.186,0,.3.012l.167.014c.09.009.178.016.265.02l.134.005c.1,0,.2.007.29.014.162.012.326.013.492.016.121,0,.246,0,.369.008a7.649,7.649,0,0,1,.892.108c.147.026.319.059.49.1a3.212,3.212,0,0,1,.506.169,2.633,2.633,0,0,1,.391.245,2.02,2.02,0,0,1,.2.216,1.766,1.766,0,0,1,.1.188,1.9,1.9,0,0,1,.043.188,1.784,1.784,0,0,1-.01.243,2.828,2.828,0,0,1-.134.43,2.622,2.622,0,0,1-.213.366,3.272,3.272,0,0,1-.405.362,5.9,5.9,0,0,1-1.1.575.636.636,0,0,0-.13.05,6.345,6.345,0,0,1-.632.2c-.308.081-.565.144-.809.2a14.362,14.362,0,0,1-1.476.261c-.442.034-.9.052-1.366.052-.142,0-.287,0-.432,0-.359-.008-.636-.024-.9-.052s-.518-.071-.782-.116c-.315-.058-.629-.127-.933-.193-.417-.091-.848-.186-1.279-.253-.765-.12-1.467-.206-2.147-.265-.186-.017-.373-.028-.548-.038l-.15-.01c-.119-.009-.243-.017-.365-.018h-.159c-.276,0-.56.008-.867.026a11.752,11.752,0,0,0-1.23.126c-.343.055-.683.126-1.013.209-.721.183-1.426.409-2.086.625-.3.1-.618.211-1,.354-.288.109-.6.219-1.008.358-.218.075-.443.138-.659.2-.118.034-.236.067-.353.1-.365.109-.73.211-1.039.3-.286.08-.662.181-1.036.261-.272.058-.589.123-.9.162-.12.01-.24.015-.358.015a4.322,4.322,0,0,1-.544-.034,2.912,2.912,0,0,1-.46-.136c-.08-.042-.149-.082-.212-.122a2.163,2.163,0,0,1-.2-.144,3.761,3.761,0,0,1-.48-.526,2.111,2.111,0,0,1-.142-.276c-.024-.076-.044-.147-.059-.216s-.029-.158-.036-.218a2.312,2.312,0,0,1,.012-.367,6.594,6.594,0,0,1,.341-1.052,3.336,3.336,0,0,1,.315-.527,5.091,5.091,0,0,1,.626-.593c.158-.111.315-.213.481-.309a3.619,3.619,0,0,1,.453-.217,3.172,3.172,0,0,1,.327-.1.668.668,0,0,0,.365-.19.621.621,0,0,0,.163-.269.7.7,0,0,0,.011-.333.793.793,0,0,0-.078-.209l0-.01-.075-.15-.015-.03c-.026-.052-.052-.1-.077-.156-.046-.093-.089-.194-.137-.315a3,3,0,0,1-.137-.539,4.6,4.6,0,0,1,.031-.9,4.81,4.81,0,0,1,.267-.953,6.5,6.5,0,0,1,.71-1.1,3.953,3.953,0,0,1,.609-.574,4.127,4.127,0,0,1,.375-.248,3.9,3.9,0,0,1,.432-.213,2.286,2.286,0,0,1,.414-.1c.051,0,.1,0,.156,0a3.113,3.113,0,0,1,.451.034,4.727,4.727,0,0,1,.55.143,4.872,4.872,0,0,1,.5.2l.008,0,.025.012a6.27,6.27,0,0,1,.812.461c.108.075.216.154.327.235l.007.005c.127.093.258.189.391.279l.112.076.025.017c.075.051.15.1.225.152l.048.031.108.07c.025.016.049.032.076.051a.981.981,0,0,0,.133.083l.039.02a.628.628,0,0,0,.136.057.761.761,0,0,0,.175.027,1.031,1.031,0,0,0,.153-.016.659.659,0,0,0,.313-.164.87.87,0,0,0,.187-.248c.028-.05.053-.106.072-.15l.027-.059c.037-.081.072-.162.107-.243l.008-.018.042-.1c.022-.05.043-.1.064-.152l.037-.088a5.575,5.575,0,0,1,.544-.952,3.572,3.572,0,0,1,.447-.437,2.32,2.32,0,0,1,.36-.2c.138-.051.281-.1.418-.142l.021-.007.023-.008.19-.063c.23-.077.421-.133.6-.176.125-.03.252-.057.375-.083l.034-.007.276-.059.008,0c.194-.043.395-.088.6-.116.041,0,.082,0,.123,0a2.277,2.277,0,0,1,.282.018,2.382,2.382,0,0,1,.4.111,3.031,3.031,0,0,1,.425.294,4.275,4.275,0,0,1,.58.639,2.811,2.811,0,0,1,.178.292c.045.087.091.187.138.3a6.032,6.032,0,0,1,.212.779,3.254,3.254,0,0,0,.155.587.67.67,0,0,0,.221.261l.018.016a.611.611,0,0,0,.3.1,1.169,1.169,0,0,0,.189-.02.332.332,0,0,0,.071-.024l.021-.008.044-.017.008,0a1.933,1.933,0,0,0,.192-.081,6.058,6.058,0,0,0,.937-.62c.165-.125.326-.259.483-.387.111-.092.223-.184.335-.273.052-.042.1-.083.158-.123a4.087,4.087,0,0,1,.677-.392,5.61,5.61,0,0,1,1.109-.273c.033,0,.066,0,.1,0A2.023,2.023,0,0,1,340.164,319.127Zm.116-6.332v0Zm0-.011v0h0v0Zm.009-.095Zm1.644-8.3,0,0h0Zm18.679-1.566c-.118-.376-.263-.75-.389-1.071-.138-.353-.3-.712-.444-1.03l-.046-.1c-.147-.326-.315-.638-.522-1.007a9.193,9.193,0,0,0-.559-.881,11.2,11.2,0,0,0-.793-1,6.019,6.019,0,0,0-.77-.729,7.3,7.3,0,0,0-1.015-.687,3.992,3.992,0,0,0-.575-.245c-.147-.051-.331-.115-.515-.171-.321-.1-.7-.209-1.081-.29s-.73-.144-1.058-.188a9.985,9.985,0,0,0-1.187-.075H351.6a6.888,6.888,0,0,0-.97.083,9.7,9.7,0,0,0-1.154.226c-.275.073-.547.162-.81.247l-.028.009-.2.065c-.3.095-.609.209-1.016.37-.158.063-.316.136-.47.206l-.008,0-.013.006-.017.008c-.193.089-.392.181-.583.28a9.855,9.855,0,0,0-.955.6,8.527,8.527,0,0,0-.957.8c-.25.23-.515.479-.754.742a11.059,11.059,0,0,0-1.4,1.871c-.216.37-.394.679-.559,1.006-.055.109-.1.225-.152.338l-.067.156c-.064.145-.126.294-.186.441l-.016.038-.023.055c-.126.305-.27.651-.4.991-.148.387-.273.777-.394,1.156-.2.617-.352,1.257-.5,1.875l0,.012-.061.254c-.067.277-.126.563-.184.844l-.05.24c-.071.338-.13.688-.18,1.071-.025.186-.046.381-.063.538l0,.025c-.021.185-.042.376-.066.563-.018.134-.036.266-.053.4-.03.233-.062.474-.1.713-.049.334-.085.683-.116.991l-.013.125c-.02.194-.046.39-.072.58l0,.018,0,.033c-.021.157-.043.32-.06.48-.021.185-.046.369-.072.557-.023.17-.046.335-.065.5-.046.392-.086.8-.122,1.244-.057.674-.115,1.392-.163,2.107h0v0h0a3.6,3.6,0,0,0-.485.2c-.095.046-.19.1-.274.155l-.078.046a6.043,6.043,0,0,0-.749.549c-.23.188-.421.343-.624.5-.113.082-.21.149-.3.208l-.016.011h0c-.037-.157-.082-.308-.124-.45a4.611,4.611,0,0,0-.243-.626,3.536,3.536,0,0,0-.291-.485l0-.007-.017-.023-.037-.053-.007-.009a3.621,3.621,0,0,0-.328-.408c-.1-.109-.214-.223-.33-.326a4.688,4.688,0,0,0-.379-.308l-.022-.015h0a.657.657,0,0,0,.143-.416c0-.1.014-.208.023-.307,0-.052.009-.1.013-.156.008-.1.016-.208.024-.316l.012-.157c.018-.229.043-.532.072-.835.017-.15.035-.3.053-.448l0-.012c.033-.272.067-.553.088-.831.036-.457.067-.841.1-1.229.035-.322.079-.657.132-1.022.017-.121.033-.244.046-.359.007-.064.015-.129.023-.193.018-.149.043-.3.066-.446l.013-.08c.015-.092.029-.184.043-.276.039-.255.084-.544.137-.82.049-.252.1-.507.153-.754l0-.008c.022-.1.043-.205.064-.308l.023-.111.006-.032c.061-.292.123-.6.177-.893.031-.17.061-.341.091-.512l.014-.076c.028-.159.055-.317.084-.474.138-.742.287-1.474.447-2.177l.028-.124,0-.011c.059-.265.122-.539.2-.805l.022-.077.021-.073q.106-.379.215-.757c.08-.277.177-.548.286-.848l.054-.149q.13-.358.262-.715c.127-.335.25-.645.374-.949l.026-.063,0-.007c.125-.306.255-.621.409-.917.19-.364.35-.667.536-.972.212-.347.413-.67.615-.986.106-.168.225-.338.331-.487l.028-.041a12.416,12.416,0,0,1,1.086-1.336c.236-.243.468-.475.684-.69.187-.186.391-.36.592-.53l.012-.011c.287-.239.56-.452.837-.652s.584-.4.877-.589l.047-.03a19.392,19.392,0,0,1,1.945-1.093l.063-.031c.217-.1.505-.228.8-.34l.245-.094.014-.006c.224-.087.456-.176.688-.251a16.162,16.162,0,0,1,1.931-.486c.207-.032.394-.059.591-.078.254-.023.5-.044.753-.056.152-.007.3-.011.452-.011.3,0,.617.016.927.045.279.032.494.057.722.09.274.041.556.095.862.166a7.027,7.027,0,0,1,.731.219c.242.084.486.171.726.26.285.118.5.214.7.309.3.143.6.306.828.432.259.144.491.28.711.417s.464.3.748.5c.2.151.37.279.54.422.237.2.455.4.667.6.147.141.285.3.421.456l.025.028.093.106c.193.22.351.4.494.576a14.724,14.724,0,0,1,1.071,1.63c.345.6.639,1.232.881,1.769.163.374.3.71.415,1.028.111.3.226.632.352,1.017.108.329.233.718.343,1.111.081.286.154.579.225.863l.057.228c.061.239.114.479.173.744l.019.084.041.184c.048.214.1.456.149.692.088.457.2,1.059.307,1.669.082.545.151,1.114.211,1.615l0,.034.06.492c.083.672.17,1.389.241,2.106.035.359.073.72.116,1.105.037.336.068.688.095,1l.014.158.041.487v.012c.047.553.1,1.124.15,1.686.066.69.093,1.376.113,2.193.016.661.01,1.365-.018,2.153-.01.265-.019.53-.031.8l0,.074h0l-.21-.054-.034-.009-.008,0a6.718,6.718,0,0,0-1.125-.19c-.065,0-.132-.008-.2-.008a4.836,4.836,0,0,0-.89.1l-.131.024c-.088.016-.2.036-.3.061a2.931,2.931,0,0,0-.585.213c-.1.049-.208.105-.293.15l-.093.049c-.067.035-.153.081-.242.131l-.04.025v0h0c0-.067.007-.134.012-.2s.018-.138.028-.207l0-.034c.011-.071.021-.142.03-.214.028-.221.05-.439.072-.661.033-.321.064-.668.1-1.063.016-.192.031-.381.042-.574.007-.117.009-.237.012-.353v-.008l0-.05c0-.05,0-.1,0-.149.006-.176.015-.353.024-.53l0-.031c.009-.182.018-.37.024-.555.024-.779.034-1.489.033-2.171,0-.13,0-.262,0-.392v-.044c0-.243,0-.494,0-.742,0-.375,0-.747,0-1.107s-.021-.742-.034-1.061l-.005-.125v-.012c-.013-.326-.027-.663-.056-.993-.064-.735-.139-1.518-.284-2.29q-.055-.3-.108-.6c-.092-.524-.188-1.066-.32-1.591C360.83,303.587,360.731,303.2,360.612,302.829Zm24.047,22.4c-.015.074-.031.147-.048.22a2.009,2.009,0,0,1-.1.312,5.835,5.835,0,0,1-.6.952,3.1,3.1,0,0,1-.389.356,8.732,8.732,0,0,1-1.58.889c-.15.057-.31.116-.468.162-.222.065-.447.127-.69.187l-.033.008c-.178.045-.38.1-.58.134-.174.032-.362.061-.61.093-.552.055-1.049.1-1.545.1-.16,0-.317,0-.465-.014-.719-.048-1.447-.127-2.152-.2h-.008l-.058-.007c-.37-.041-.741-.1-1.1-.163l-.064-.011c-.372-.067-.717-.126-1.054-.181s-.682-.146-1.013-.225l-.015,0c-.346-.083-.7-.168-1.061-.235-.471-.087-.956-.14-1.428-.192-.285-.031-.58-.063-.869-.1s-.674-.088-1.069-.1q-.088,0-.177,0c-.253,0-.509.018-.756.036l-.132.01c-.293.02-.592.026-.881.032h-.013l-.216,0a8.079,8.079,0,0,0-1.214.142l-.554.1-.039.007-.482.088c-.315.056-.637.125-.982.21-.268.067-.537.14-.8.211-.405.111-.824.226-1.243.314l-.119.025c-.826.173-1.68.351-2.528.475-.216.018-.41.028-.591.028l-.137,0a5.688,5.688,0,0,1-.721-.073,4.93,4.93,0,0,1-.99-.279,3.468,3.468,0,0,1-.45-.293,3.536,3.536,0,0,1-.44-.465,2.273,2.273,0,0,1-.166-.314,3.2,3.2,0,0,1-.14-.549,2.553,2.553,0,0,1-.008-.331c.008-.149.023-.3.044-.454a5.567,5.567,0,0,1,.138-.612,6.059,6.059,0,0,1,.21-.6,4.485,4.485,0,0,1,.475-.723,7.274,7.274,0,0,1,.538-.6,7.028,7.028,0,0,1,.579-.508,6.333,6.333,0,0,1,1.229-.649,4.15,4.15,0,0,1,.572-.16c.169-.033.341-.055.487-.072.039,0,.077,0,.116,0a2.991,2.991,0,0,1,.461.041,3.982,3.982,0,0,1,.6.149c.189.065.36.133.524.207l.033.016c.056.029.112.057.17.083a.567.567,0,0,0,.235.049.669.669,0,0,0,.61-.391l.032-.067.03-.063c.086-.189.18-.375.262-.533l.018-.037.019-.038c.037-.074.075-.15.12-.221s.083-.127.141-.2a2.5,2.5,0,0,1,.316-.3,4.426,4.426,0,0,1,.406-.239l.021-.011c.129-.07.263-.143.4-.205a3.253,3.253,0,0,1,.506-.125l.175-.032c.121-.022.23-.042.338-.058.072,0,.146-.007.22-.007a3.815,3.815,0,0,1,.567.044,6.489,6.489,0,0,1,1.4.4,3.618,3.618,0,0,1,.353.221c.083.057.207.144.329.242l.252.222.032.029c.067.059.127.112.19.163a.667.667,0,0,0,.393.154l.032,0,.031,0a.586.586,0,0,0,.286-.074.954.954,0,0,0,.148-.107.424.424,0,0,0,.054-.057,2.249,2.249,0,0,0,.2-.282c.064-.1.122-.214.182-.326l.055-.1c.157-.293.339-.58.515-.86l.032-.049c.171-.269.365-.548.612-.877l.039-.051a8.05,8.05,0,0,1,1.251-1.194,9.687,9.687,0,0,1,1.733-.95,6.605,6.605,0,0,1,.763-.215c.234-.055.507-.117.787-.155.05,0,.1,0,.149,0a3.888,3.888,0,0,1,.6.052,3.53,3.53,0,0,1,.714.21,4.956,4.956,0,0,1,.9.538,3.173,3.173,0,0,1,.42.444,2.51,2.51,0,0,1,.211.382,2.824,2.824,0,0,1,.107.534,4.383,4.383,0,0,1,0,.6c-.012.2-.042.4-.068.577-.04.221-.1.438-.146.624a4.775,4.775,0,0,1-.185.578c-.066.141-.138.279-.2.4a.72.72,0,0,0-.056.138.683.683,0,0,0-.061.467.662.662,0,0,0,.281.4.6.6,0,0,0,.336.1.8.8,0,0,0,.153-.015l.026,0,.065-.011a.586.586,0,0,0,.163-.055l.024-.011c.088-.031.18-.058.271-.086l.053-.016.052-.016c.2-.062.4-.117.586-.166.087-.023.173-.047.258-.071l.031-.009c.125-.036.237-.068.352-.1a5.454,5.454,0,0,1,.628-.12c.262-.023.493-.035.7-.035l.143,0a7.669,7.669,0,0,1,.979.1c.1.018.2.038.3.066a3.182,3.182,0,0,1,.414.143c.245.1.489.211.726.319a4.727,4.727,0,0,1,.531.347c.105.094.2.182.276.267a3.24,3.24,0,0,1,.246.3,4.3,4.3,0,0,1,.37.705,4.215,4.215,0,0,1,.155.694A3.342,3.342,0,0,1,384.66,325.23Z" transform="translate(-316.721 -260.299)"/><path class="b" d="M370.98,332.351a1.167,1.167,0,0,0-.442-.3,1.1,1.1,0,0,0-.3-.076.8.8,0,0,0-.089,0c-.081,0-.161.01-.241.018a1.164,1.164,0,0,0-.328.1.615.615,0,0,0-.1.058c-.034.022-.067.045-.1.069s-.092.039-.136.061a1.647,1.647,0,0,0-.192.128.511.511,0,0,0-.087.084,1.2,1.2,0,0,0-.112.138.989.989,0,0,0-.084.163,1.56,1.56,0,0,0-.157.611,1.147,1.147,0,0,0,.044.344,1.235,1.235,0,0,0,.129.309c.042.063.086.125.132.187a1.184,1.184,0,0,0,.175.167,1.385,1.385,0,0,0,.4.223,1.652,1.652,0,0,0,.327.077,1.432,1.432,0,0,0,.391-.006,1.731,1.731,0,0,0,.576-.173.849.849,0,0,0,.251-.189.989.989,0,0,0,.158-.214c.036-.074.072-.147.1-.224a1.55,1.55,0,0,0,.077-.339,1.566,1.566,0,0,0-.012-.373,1.484,1.484,0,0,0-.182-.557A1.712,1.712,0,0,0,370.98,332.351Z" transform="translate(-341.321 -287.147)"/><path class="b" d="M387.788,332.166c-.035-.1-.071-.209-.111-.312a1.18,1.18,0,0,0-.175-.274,1.334,1.334,0,0,0-.256-.228,1.138,1.138,0,0,0-.235-.118,1.037,1.037,0,0,0-.255-.068.721.721,0,0,0-.108-.008,1.875,1.875,0,0,0-.213.017,1.217,1.217,0,0,0-.267.083,1.294,1.294,0,0,0-.293.17,1.539,1.539,0,0,0-.377.392,1.6,1.6,0,0,0-.231.659,1.066,1.066,0,0,0,.019.343.893.893,0,0,0,.023.1,1.265,1.265,0,0,0,.245.474,1.379,1.379,0,0,0,.165.162,1.285,1.285,0,0,0,.281.208,2.686,2.686,0,0,0,.326.144,1.655,1.655,0,0,0,.319.068,1.063,1.063,0,0,0,.535-.088,1.145,1.145,0,0,0,.6-.828,1.437,1.437,0,0,0,.014-.731A.357.357,0,0,0,387.788,332.166Zm-.968.442h0v0h0Z" transform="translate(-349.212 -286.773)"/><path class="b" d="M374.545,340.853c.073.142.156.279.243.413a3.009,3.009,0,0,0,.386.5,2.181,2.181,0,0,0,.455.356,2.681,2.681,0,0,0,.584.242,2.628,2.628,0,0,0,.647.113,1.9,1.9,0,0,0,.766-.182,2.78,2.78,0,0,0,.537-.336,4.522,4.522,0,0,0,.4-.322,3.664,3.664,0,0,0,.417-.471,3.415,3.415,0,0,0,.276-.409,7.424,7.424,0,0,0,.466-1.015c.079-.208.15-.418.226-.626.041-.11.077-.222.115-.334a1.782,1.782,0,0,0,.053-.2v0l0-.008h0l0-.013a.576.576,0,0,0-.233-.662.565.565,0,0,0-.31-.092.6.6,0,0,0-.392.148,1.228,1.228,0,0,0-.284.6c-.054.173-.111.345-.17.517q-.166.487-.379.954a3.6,3.6,0,0,1-.392.6,3.24,3.24,0,0,1-.281.277c-.093.081-.189.156-.288.228-.05.034-.1.066-.152.1a.986.986,0,0,1-.154.074,1.438,1.438,0,0,1-.183.043,1.31,1.31,0,0,1-.16-.012,2.908,2.908,0,0,1-.5-.158,1.793,1.793,0,0,1-.232-.154,2.414,2.414,0,0,1-.277-.318,4.815,4.815,0,0,1-.256-.419,5.505,5.505,0,0,1-.234-.5,2.873,2.873,0,0,1-.128-.588,2.617,2.617,0,0,1,.011-.362.5.5,0,0,0-1-.048c-.006.082-.015.164-.018.246s0,.167.008.249a4.021,4.021,0,0,0,.064.569,3.792,3.792,0,0,0,.18.576A3.731,3.731,0,0,0,374.545,340.853Z" transform="translate(-343.97 -289.838)"/><path class="c" d="M356.212,275.89c-.312,0-.643.007-1.013.022-.462.018-.926.059-1.4.1-.362.033-.839.081-1.321.156l-.224.039-.039.007-.037.006c-.222.039-.426.08-.623.124l-.18.039-.036.008c-.121.025-.239.05-.353.079-.339.084-.677.2-1,.306l-.088.029c-.337.113-.691.243-1.081.4-.3.118-.6.261-.867.387l-.065.031c-.462.223-.869.431-1.244.635l-.247.135-.378.207-.049.027-.008,0c-.173.094-.352.19-.519.3-.372.237-.76.5-1.187.8-.274.194-.535.411-.789.62-.079.066-.158.131-.238.2q-.26.225-.518.452c-.419.37-.815.777-1.2,1.172l-.061.063c-.159.163-.317.333-.47.5l-.005.006-.1.113-.132.14-.02.022c-.134.143-.273.29-.405.439-.463.519-.831.962-1.158,1.392-.345.454-.686.92-1.015,1.383-.488.709-.957,1.42-1.393,2.111s-.915,1.451-1.361,2.232l-.03.053c-.273.475-.581,1.015-.865,1.545l-.051.1c-.114.214-.243.456-.362.7-.165.338-.3.618-.424.881-.266.565-.5,1.088-.713,1.6s-.439,1.067-.668,1.653c-.317.857-.619,1.735-.911,2.585l-.012.032-.033.1c-.169.493-.313.954-.44,1.409l-.026.094c-.119.423-.252.9-.372,1.367-.111.431-.193.874-.272,1.3q-.042.231-.087.463c-.1.5-.2,1.009-.3,1.529l-.036.177c-.131.654-.229,1.195-.311,1.7q-.025.155-.051.311l-.01.065c-.027.163-.053.326-.079.489-.044.285-.076.57-.1.835-.077.8-.137,1.609-.194,2.389l-.02.272c-.026.353-.037.712-.048,1.059v.008c-.006.2-.013.419-.022.633-.007.159-.008.319-.009.475v.041c0,.088,0,.176,0,.265s-.006.2-.009.294l0,.043c-.006.173-.013.345-.014.515,0,.186,0,.374.006.557v.055l0,.232c0,.111,0,.223.007.334,0,.163.008.324.009.484l0,.293q0,.289,0,.578c0,.129,0,.279,0,.428l0,.065v.029c0,.038,0,.076,0,.115a.462.462,0,0,1,.018.134c0,.092,0,.185-.007.275v.012l0,.1c.1-.01.182-.016.263-.018l.084,0a4.186,4.186,0,0,1,1.035.147,5.029,5.029,0,0,1,.88.339l.009,0,.033.017.088.042-.011-.008c.228.115.448.233.673.363a4.65,4.65,0,0,1,.425.292l.12.088c.182.133.37.267.576.408l.022.016.073.05.01-.022a9.449,9.449,0,0,1,.5-1.029,4.135,4.135,0,0,1,.5-.68l0-.052c.005-.08.012-.16.019-.239,0-.044.009-.088.014-.131a.672.672,0,0,1-.033-.186c-.009-.263.007-.531.022-.789,0-.079.009-.158.014-.236.019-.368.029-.737.037-1.054.007-.3.03-.6.052-.893l.012-.155.02-.275v-.011q.031-.411.061-.822c.07-.964.142-1.961.248-2.961.05-.469.123-.929.2-1.4q.054-.329.107-.658l0-.023q.06-.37.12-.74l.042-.257c.055-.333.117-.711.187-1.07.092-.475.2-.974.319-1.48s.244-.989.351-1.4c.086-.328.184-.658.28-.976l0-.012c.04-.135.08-.266.119-.4l.03-.1,0-.015c.049-.168.1-.342.146-.515.071-.269.136-.538.189-.764.106-.449.219-.927.338-1.4.091-.364.2-.73.3-1.085l0-.009.01-.035c.029-.1.058-.2.087-.3.1-.342.2-.688.307-1.023l0-.016.08-.264c.121-.4.255-.8.373-1.152l.072-.215c.174-.524.309-.927.465-1.349.059-.16.118-.319.178-.478a.617.617,0,0,1,.053-.141c.136-.356.247-.63.359-.886.18-.41.379-.826.607-1.27a21.2,21.2,0,0,1,1.527-2.545,9.188,9.188,0,0,1,.86-1.032c.349-.368.685-.7,1.027-1.015a28.167,28.167,0,0,1,2.3-1.878c.372-.277.755-.542,1.149-.81.3-.2.615-.392.921-.574l.008-.005.2-.118c.392-.235.805-.46,1.264-.691.513-.257.938-.455,1.337-.621a12.344,12.344,0,0,1,2.577-.677c.54-.1,1.022-.161,1.475-.2l.11-.011c.081-.009.166-.017.248-.02l.193-.008.193-.008c.057,0,.115,0,.172,0,.152,0,.308.007.458.013l.048,0c.45.02.9.073,1.342.125l.2.023c.488.057.958.145,1.312.215.564.112,1.024.223,1.45.348s.818.277,1.264.453c.567.222,1.032.42,1.464.623.37.174.754.372,1.173.6.2.109.409.227.617.354s.414.262.614.394l.009.006.01.007c.4.261.78.54,1.134.8a18.886,18.886,0,0,1,2.2,1.918,13.407,13.407,0,0,1,.92,1.022l.014.017c.168.21.342.427.505.651l.428.59a17.154,17.154,0,0,1,1.43,2.416c.473.945.855,1.8,1.169,2.6q.085.218.172.435l.012.03c.119.3.241.605.35.913.149.419.3.854.456,1.33l.062.188q.083.25.166.5c.029.088.059.175.089.263.041.118.083.241.121.362.173.549.312.992.436,1.395q.126.409.254.817l.014.044c.19.61.387,1.241.57,1.866.206.7.394,1.419.577,2.115l.006.022q.075.29.152.579l.066.249c.1.354.2.756.289,1.145q.152.679.3,1.358c.03.137.062.274.093.411l.015.065c.068.3.146.636.21.962.082.417.177.91.264,1.41.043.248.085.509.122.775l.02.141,0,.014c.026.18.053.367.072.551.016.151.03.3.045.455l.005.055c.025.263.05.53.08.791.011.055.022.11.035.164a.872.872,0,0,1,.056.241c0,.022.006.043.008.064l.009.068.017.134c.021.161.034.324.048.481l0,.054c.015.152.032.3.052.457l.02.15c.012.088.024.17.032.254.114-.024.226-.045.332-.064a4.071,4.071,0,0,1,.738-.074,2.819,2.819,0,0,1,.422.031,4.187,4.187,0,0,1,1.129.28,5.93,5.93,0,0,1,.935.513c.087.06.173.125.256.193-.008-.114-.019-.226-.03-.339l0-.022c-.023-.234-.047-.477-.062-.715-.027-.42-.075-.856-.146-1.331-.064-.39-.138-.785-.2-1.133l-.038-.2-.021-.11c-.079-.428-.161-.871-.253-1.305s-.19-.848-.288-1.26l-.035-.147c-.045-.19-.1-.382-.144-.568l0-.018,0-.009c-.071-.273-.145-.555-.2-.836-.114-.534-.223-1.086-.334-1.688-.092-.5-.182-1-.281-1.562l-.029-.165c-.187-1.052-.415-2.292-.7-3.523-.114-.5-.25-1.007-.381-1.5l-.069-.259-.046-.175-.009-.035c-.057-.216-.116-.439-.179-.657-.072-.252-.153-.537-.252-.8-.166-.453-.346-.91-.519-1.351l0-.007-.124-.315-.052-.132-.009-.023c-.187-.476-.38-.969-.58-1.449q-.291-.651-.577-1.3-.113-.255-.223-.511l-.025-.056-.1-.222c-.155-.346-.337-.755-.52-1.175l-.034-.077-.036-.081a.568.568,0,0,1-.039-.087c-.064-.142-.128-.283-.195-.424-.091-.193-.19-.389-.276-.563l-.095-.19c-.1-.194-.193-.387-.291-.581l-.021-.043-.07-.139-.107-.216-.027-.054c-.083-.17-.158-.322-.237-.473-.436-.835-.955-1.63-1.458-2.4-.129-.2-.258-.394-.384-.591-.364-.564-.653-.993-.939-1.39-.1-.136-.194-.272-.29-.409l-.058-.083-.147-.208c-.144-.2-.3-.4-.448-.6l-.006-.008-.018-.024q-.175-.22-.35-.44a20.527,20.527,0,0,0-1.754-1.955c-.3-.288-.618-.578-.98-.887-.321-.274-.658-.548-1-.817l-.13-.095-.01-.008c-.3-.218-.6-.444-.916-.65-.1-.068-.208-.132-.31-.195l-.015-.009c-.07-.042-.14-.085-.209-.129l-.091-.058-.022-.014q-.237-.151-.476-.3c-.3-.188-.621-.352-.931-.511l-.017-.009-.205-.105c-.337-.175-.681-.32-1.063-.478a13.517,13.517,0,0,0-2.125-.613c-.271-.055-.547-.1-.814-.146l-.014,0-.312-.052c-.366-.063-.732-.1-1.075-.143l-.158-.016h-.008c-.4-.041-.823-.083-1.235-.092q-.2,0-.4,0Z" transform="translate(-322.312 -261.355)"/><path class="d" d="M367.469,303.154c-.152,0-.308,0-.464.011-.256.012-.512.034-.773.057-.2.018-.394.045-.607.077a16.986,16.986,0,0,0-1.984.486c-.237.076-.476.165-.706.252l-.015.005-.252.095c-.305.112-.6.241-.825.34l-.064.031a19.969,19.969,0,0,0-2,1.093l-.049.03c-.3.189-.61.382-.9.589s-.565.413-.859.652l-.013.011c-.206.17-.416.344-.608.53-.222.214-.46.446-.7.69a12.5,12.5,0,0,0-1.116,1.336l-.029.041c-.108.15-.23.32-.34.487-.207.316-.414.638-.632.986-.191.3-.356.607-.551.971-.158.3-.292.611-.42.917l0,.007-.027.063c-.128.3-.254.615-.385.949q-.136.357-.269.715l-.055.149c-.112.3-.212.571-.294.848q-.113.378-.221.757l-.021.072-.022.077c-.077.266-.141.54-.2.805l0,.012-.029.123c-.163.7-.318,1.435-.458,2.176-.03.159-.059.316-.087.475l-.014.076c-.03.171-.061.342-.093.512-.056.3-.12.6-.182.893l-.006.032-.024.111c-.022.1-.043.205-.065.308l0,.008c-.053.247-.108.5-.158.753-.055.276-.1.565-.141.82-.014.092-.029.183-.044.275l-.013.081c-.024.147-.048.3-.068.446-.008.064-.016.129-.024.194-.014.115-.029.238-.047.359-.055.366-.1.7-.136,1.022-.038.388-.07.772-.107,1.229-.022.278-.057.559-.091.831v.011c-.019.15-.037.3-.054.449-.03.3-.056.606-.074.835l-.012.157c-.008.108-.016.212-.025.316,0,.052-.009.1-.014.156-.009.1-.018.205-.023.307a.646.646,0,0,1-.147.416,4.8,4.8,0,0,1,.412.325c.12.1.233.217.34.326a3.7,3.7,0,0,1,.337.408l.007.009.038.053.017.023,0,.007a3.466,3.466,0,0,1,.3.485,4.5,4.5,0,0,1,.25.626c.044.141.089.293.127.449.1-.062.207-.131.331-.219.208-.153.405-.309.641-.5a6.218,6.218,0,0,1,.769-.549l.08-.046c.086-.051.184-.108.281-.155a3.712,3.712,0,0,1,.5-.2c.049-.715.11-1.434.167-2.109.038-.445.079-.851.126-1.243.02-.166.043-.332.067-.5.026-.189.052-.373.074-.558.018-.16.041-.322.062-.48l0-.033,0-.018c.026-.19.053-.386.074-.58l.013-.125c.033-.308.069-.658.12-.991.036-.239.068-.48.1-.713q.027-.2.054-.4c.026-.187.048-.378.069-.563l0-.025c.018-.157.039-.353.065-.538.051-.383.111-.734.185-1.072l.051-.24c.06-.281.121-.566.189-.844l.063-.254,0-.012c.153-.619.312-1.259.515-1.876.125-.379.253-.768.405-1.155.134-.34.281-.686.411-.991l.023-.055.016-.038c.062-.147.126-.3.191-.441l.069-.156c.049-.113.1-.228.156-.338.169-.327.352-.636.574-1.006a11.094,11.094,0,0,1,1.436-1.871c.246-.263.518-.512.775-.742a8.639,8.639,0,0,1,.983-.8,9.945,9.945,0,0,1,.981-.6c.2-.1.4-.192.6-.281l.017-.008.014-.006.009,0c.157-.07.32-.142.482-.206.418-.161.739-.275,1.043-.37l.208-.065.029-.009c.27-.085.55-.173.831-.247a10.377,10.377,0,0,1,1.186-.226,7.262,7.262,0,0,1,1-.083h.064a10.551,10.551,0,0,1,1.219.075c.337.044.693.105,1.087.188s.781.192,1.111.29c.189.056.378.12.53.171a4.165,4.165,0,0,1,.591.245,7.518,7.518,0,0,1,1.043.687,6.119,6.119,0,0,1,.791.729,11.336,11.336,0,0,1,.815,1,9.247,9.247,0,0,1,.574.881c.213.368.385.68.536,1.007l.047.1c.148.318.315.677.457,1.03.129.321.277.7.4,1.071s.224.758.316,1.115c.136.525.234,1.068.329,1.592.036.2.073.4.111.6a23.067,23.067,0,0,1,.291,2.29c.03.329.044.666.058.993v.012l.005.125c.014.319.029.691.035,1.062s.008.732,0,1.107c0,.247,0,.5,0,.742v.044c0,.13,0,.262,0,.392,0,.682-.01,1.392-.034,2.171-.006.185-.015.373-.024.554l0,.032c-.009.176-.018.353-.024.53,0,.05,0,.1,0,.149v.058c0,.116-.005.235-.012.353-.011.194-.027.382-.043.574-.032.395-.064.742-.1,1.063-.023.222-.045.44-.074.661-.009.071-.02.143-.03.214l0,.034c-.01.069-.02.137-.029.207s-.009.134-.012.2c.107-.061.212-.115.291-.155l.1-.049c.087-.045.2-.1.3-.15a3.112,3.112,0,0,1,.6-.214c.106-.025.219-.044.311-.06l.135-.024a5.087,5.087,0,0,1,.914-.1c.067,0,.135,0,.2.008a7.014,7.014,0,0,1,1.155.19l.009,0,.036.009.215.054c.014-.291.024-.581.035-.871.029-.788.036-1.492.019-2.153-.021-.817-.048-1.5-.116-2.193-.055-.562-.105-1.133-.154-1.686v-.012l-.043-.487-.014-.158c-.028-.311-.058-.662-.1-1-.045-.385-.084-.746-.12-1.105-.072-.717-.161-1.433-.247-2.106-.021-.164-.041-.328-.062-.492l0-.034c-.062-.5-.133-1.07-.217-1.615-.106-.611-.224-1.213-.316-1.669-.048-.236-.1-.478-.153-.692l-.042-.184-.019-.084c-.061-.266-.116-.505-.178-.744l-.058-.228c-.073-.284-.149-.577-.232-.863-.113-.393-.242-.782-.353-1.111-.129-.385-.247-.718-.361-1.018-.12-.318-.26-.654-.427-1.028-.248-.536-.55-1.166-.9-1.769a14.625,14.625,0,0,0-1.1-1.629c-.148-.174-.309-.356-.508-.576l-.1-.106-.025-.028c-.141-.157-.282-.315-.433-.456-.218-.2-.442-.4-.686-.6-.174-.143-.347-.27-.554-.422-.292-.2-.536-.36-.769-.5s-.465-.273-.73-.417c-.232-.126-.538-.289-.85-.432-.206-.1-.429-.19-.722-.309-.246-.089-.5-.176-.745-.26a7.248,7.248,0,0,0-.751-.218c-.314-.071-.6-.124-.886-.165-.234-.034-.455-.059-.742-.09-.319-.03-.639-.045-.952-.045Z" transform="translate(-332.838 -273.911)"/><path class="a" d="M334.173,355.434c-.042,0-.084,0-.126,0-.207.028-.413.072-.613.115l-.009,0-.283.058-.035.007c-.127.026-.257.052-.385.082-.187.043-.384.1-.619.176l-.2.063-.024.008-.022.007c-.141.045-.287.091-.429.142a2.44,2.44,0,0,0-.37.2,3.624,3.624,0,0,0-.459.437,5.5,5.5,0,0,0-.559.952l-.038.088c-.022.051-.044.1-.067.152l-.043.1-.008.018c-.036.081-.072.162-.11.243l-.028.06c-.02.044-.045.1-.074.15a.875.875,0,0,1-.192.248.684.684,0,0,1-.322.164,1.089,1.089,0,0,1-.157.016.8.8,0,0,1-.18-.027.651.651,0,0,1-.14-.057l-.04-.02a1.019,1.019,0,0,1-.137-.083c-.028-.019-.052-.036-.078-.051s-.075-.046-.112-.07l-.05-.031q-.116-.075-.231-.152l-.025-.017-.115-.076c-.136-.09-.271-.186-.4-.279l-.008-.005c-.114-.081-.225-.16-.336-.235a6.454,6.454,0,0,0-.835-.461l-.026-.012-.008,0a5.223,5.223,0,0,0-.512-.2,4.981,4.981,0,0,0-.564-.143,3.382,3.382,0,0,0-.464-.034c-.054,0-.108,0-.161,0a2.357,2.357,0,0,0-.425.1,4.061,4.061,0,0,0-.444.213,4.329,4.329,0,0,0-.386.248,4.035,4.035,0,0,0-.625.574,6.518,6.518,0,0,0-.73,1.1,4.722,4.722,0,0,0-.274.953,4.446,4.446,0,0,0-.032.9,2.935,2.935,0,0,0,.141.539c.049.121.094.222.141.315.026.052.053.1.08.155l.016.03.077.15,0,.01a.777.777,0,0,1,.081.209.692.692,0,0,1-.012.333.62.62,0,0,1-.168.269.689.689,0,0,1-.375.19,3.445,3.445,0,0,0-.336.1,3.763,3.763,0,0,0-.465.217c-.17.1-.332.2-.494.309a5.253,5.253,0,0,0-.643.593,3.363,3.363,0,0,0-.323.527,6.565,6.565,0,0,0-.35,1.052,2.251,2.251,0,0,0-.012.367c.008.06.02.138.037.217s.036.141.061.216a2.118,2.118,0,0,0,.146.277,3.825,3.825,0,0,0,.493.526,2.2,2.2,0,0,0,.2.144c.065.041.136.081.218.122a3.047,3.047,0,0,0,.473.136,4.559,4.559,0,0,0,.558.034c.122,0,.245,0,.368-.015.321-.039.646-.1.926-.162.384-.08.771-.181,1.064-.26.318-.086.692-.188,1.067-.3.121-.035.242-.069.363-.1.223-.062.453-.125.678-.2.42-.139.739-.249,1.035-.358.389-.143.715-.256,1.024-.355.678-.216,1.4-.443,2.144-.625.339-.083.689-.154,1.041-.209a12.379,12.379,0,0,1,1.264-.126c.316-.018.607-.026.891-.026h.164c.125,0,.252.01.375.018l.154.01c.18.01.372.022.563.038.7.059,1.42.146,2.206.266.444.067.887.161,1.315.252.312.067.635.135.959.194.271.045.537.088.8.115s.554.044.922.052c.149,0,.3,0,.444,0,.478,0,.95-.018,1.4-.052a15.121,15.121,0,0,0,1.516-.261c.25-.056.515-.12.831-.2a6.663,6.663,0,0,0,.649-.2.658.658,0,0,1,.133-.05,6.114,6.114,0,0,0,1.126-.575,3.327,3.327,0,0,0,.415-.362,2.549,2.549,0,0,0,.219-.366,2.775,2.775,0,0,0,.137-.43,1.752,1.752,0,0,0,.01-.243,1.853,1.853,0,0,0-.044-.188,1.743,1.743,0,0,0-.1-.188,2.029,2.029,0,0,0-.2-.216,2.714,2.714,0,0,0-.4-.245,3.365,3.365,0,0,0-.52-.169c-.175-.043-.352-.075-.5-.1a8.2,8.2,0,0,0-.916-.108c-.126-.006-.255-.007-.379-.009-.17,0-.34,0-.506-.015-.1-.007-.191-.01-.3-.014l-.138-.005c-.089,0-.18-.011-.273-.02l-.171-.015c-.115-.008-.215-.011-.306-.011h-.086l-.117,0h-.252a.606.606,0,0,1-.435-.192.641.641,0,0,1,.071-.968.594.594,0,0,1,.217-.223c.127-.082.236-.155.334-.222a5.108,5.108,0,0,0,.73-.673,3.442,3.442,0,0,0,.288-.468,3.142,3.142,0,0,0,.168-.54,3.313,3.313,0,0,0,.021-.611,2.643,2.643,0,0,0-.091-.425,3.063,3.063,0,0,0-.267-.5,3.1,3.1,0,0,0-.382-.42,2,2,0,0,0-.277-.174,4.14,4.14,0,0,0-.726-.214,2.139,2.139,0,0,0-.26-.016l-.1,0a5.89,5.89,0,0,0-1.139.273,4.231,4.231,0,0,0-.7.392l-.162.123c-.116.089-.23.181-.345.273-.161.129-.327.262-.5.387a6.249,6.249,0,0,1-.963.62c-.064.031-.131.056-.2.081l-.009,0-.045.017-.022.008a.38.38,0,0,1-.074.024,1.221,1.221,0,0,1-.194.02.64.64,0,0,1-.313-.1l-.019-.016a.673.673,0,0,1-.226-.261,3.184,3.184,0,0,1-.16-.587,5.976,5.976,0,0,0-.217-.779c-.049-.118-.1-.218-.142-.3a3.081,3.081,0,0,0-.183-.292,4.372,4.372,0,0,0-.6-.639,3.173,3.173,0,0,0-.437-.294,2.562,2.562,0,0,0-.407-.111,2.394,2.394,0,0,0-.29-.017Z" transform="translate(-317.779 -297.972)"/><path class="a" d="M408.281,352.551c-.051,0-.1,0-.153,0-.288.038-.568.1-.809.155a6.941,6.941,0,0,0-.784.215,10.039,10.039,0,0,0-1.78.95,8.14,8.14,0,0,0-1.285,1.194c-.014.017-.028.033-.041.05-.254.329-.454.607-.628.877l-.032.049c-.181.28-.367.566-.529.859l-.056.1c-.061.112-.121.222-.187.326a2.312,2.312,0,0,1-.21.282.455.455,0,0,1-.056.057.975.975,0,0,1-.152.107.615.615,0,0,1-.294.074l-.032,0h-.033a.7.7,0,0,1-.4-.154c-.065-.051-.127-.1-.2-.163l-.033-.029-.259-.222c-.125-.1-.253-.185-.338-.242a3.741,3.741,0,0,0-.363-.221,6.776,6.776,0,0,0-1.433-.4,4.036,4.036,0,0,0-.583-.044c-.076,0-.152,0-.226.007-.112.016-.224.036-.348.058l-.18.031a3.417,3.417,0,0,0-.52.125c-.14.062-.277.135-.41.2l-.021.011a4.592,4.592,0,0,0-.417.239,2.538,2.538,0,0,0-.325.3c-.06.077-.106.142-.145.2s-.084.148-.123.221l-.019.038-.019.037c-.084.158-.181.344-.269.533l-.031.063-.033.068a.7.7,0,0,1-.286.3.723.723,0,0,1-.341.087.593.593,0,0,1-.242-.049c-.06-.026-.117-.055-.175-.083l-.034-.016c-.168-.074-.345-.142-.539-.208a4.331,4.331,0,0,0-.617-.149,3.156,3.156,0,0,0-.474-.041c-.039,0-.079,0-.119,0-.15.017-.327.039-.5.072a4.358,4.358,0,0,0-.587.16,6.576,6.576,0,0,0-1.263.649,7.093,7.093,0,0,0-.594.508,7.238,7.238,0,0,0-.553.6,4.505,4.505,0,0,0-.488.723,6.061,6.061,0,0,0-.216.6,5.578,5.578,0,0,0-.142.612c-.022.157-.037.305-.045.453a2.472,2.472,0,0,0,.009.332,3.14,3.14,0,0,0,.143.549,2.255,2.255,0,0,0,.17.314,3.613,3.613,0,0,0,.452.465,3.543,3.543,0,0,0,.463.294,5.209,5.209,0,0,0,1.018.279,5.993,5.993,0,0,0,.741.073l.141,0c.186,0,.385-.009.607-.028.871-.124,1.749-.3,2.6-.475l.122-.025c.431-.088.861-.2,1.278-.314.267-.071.544-.145.819-.211.356-.085.686-.154,1.01-.21l.494-.088.04-.007.57-.1a8.515,8.515,0,0,1,1.247-.142l.222,0h.013c.3-.006.6-.012.906-.032l.135-.009c.254-.018.517-.036.777-.036.061,0,.121,0,.182,0,.406.015.8.063,1.1.1s.6.072.893.1c.485.052.983.1,1.466.192.368.067.736.152,1.091.235l.016,0c.34.079.691.161,1.041.225s.7.115,1.082.181l.066.01c.368.061.75.123,1.129.163l.06.007h.009c.724.077,1.472.156,2.211.2.153.01.313.015.478.015.51,0,1.021-.045,1.588-.1.255-.032.448-.061.627-.093.206-.037.413-.088.6-.133l.035-.009c.249-.061.481-.122.708-.187.163-.047.328-.105.481-.162a9.036,9.036,0,0,0,1.623-.889,3.119,3.119,0,0,0,.4-.356,5.8,5.8,0,0,0,.613-.952,2,2,0,0,0,.1-.312c.017-.073.034-.147.049-.22a3.157,3.157,0,0,0,0-.582,4.066,4.066,0,0,0-.159-.694,4.266,4.266,0,0,0-.38-.705,3.175,3.175,0,0,0-.253-.3c-.083-.085-.176-.173-.285-.267a4.817,4.817,0,0,0-.545-.347c-.243-.108-.494-.215-.746-.319a3.328,3.328,0,0,0-.425-.143c-.1-.028-.212-.048-.312-.066a7.97,7.97,0,0,0-1.006-.1l-.147,0c-.218,0-.455.011-.724.035a5.743,5.743,0,0,0-.645.12c-.117.028-.233.06-.361.1l-.031.009c-.088.024-.176.049-.265.071-.2.049-.4.1-.6.166l-.054.016-.054.016c-.094.027-.188.055-.279.086l-.025.011a.607.607,0,0,1-.167.055l-.067.011-.027.005a.882.882,0,0,1-.157.015.631.631,0,0,1-.345-.1.655.655,0,0,1-.226-.869.707.707,0,0,1,.057-.138c.063-.117.136-.256.2-.4a4.791,4.791,0,0,0,.19-.578c.051-.186.109-.4.15-.624.028-.174.058-.376.07-.577a4.354,4.354,0,0,0,0-.6,2.763,2.763,0,0,0-.11-.534,2.471,2.471,0,0,0-.216-.382,3.214,3.214,0,0,0-.431-.444,5.124,5.124,0,0,0-.922-.538,3.738,3.738,0,0,0-.734-.21,4.03,4.03,0,0,0-.615-.052Z" transform="translate(-351.028 -296.643)"/><path class="e" d="M361.414,288.921c-.079,0-.166,0-.257,0-.311.013-.588.034-.85.061-.288.031-.569.066-.834.1l-.031.005-.033.006-.017,0c-.231.042-.494.089-.747.14-.276.057-.57.128-.925.222a6.387,6.387,0,0,0-.852.281c-.317.134-.62.275-.821.369s-.388.19-.58.288c-.358.181-.74.4-1.168.662l-.3.182-.277.168c-.2.125-.4.258-.6.395-.771.532-1.518,1.1-2.219,1.68-.47.405-.927.8-1.342,1.235l-.086.089-.007.008-.016.017c-.171.178-.348.362-.515.551-.2.222-.386.456-.581.716s-.4.6-.6.934c-.256.444-.457.8-.632,1.129a22.537,22.537,0,0,0-1.038,2.25l-.006.014,0,.008-.006.016c-.006.015-.011.03-.017.045l0,.007.008-.009a.286.286,0,0,0-.026.058l-.006.018-.005.014c-.012.033-.023.064-.036.095l-.006.016-.009.025c-.056.154-.112.309-.167.463-.128.358-.25.73-.358,1.058l-.092.282c-.186.565-.324,1-.446,1.411l-.025.082,0,.013,0,.013-.005.018c-.26.877-.529,1.784-.751,2.687-.08.319-.156.653-.224.947l-.011.049-.01.044-.008.037c-.027.116-.053.233-.081.348-.1.419-.218.838-.335,1.244l0,.011-.046.158-.021.071-.005.018c-.115.4-.245.848-.359,1.294s-.224.91-.339,1.408c-.2.866-.345,1.749-.485,2.6l0,.016-.026.16-.02.122,0,.012c-.139.843-.283,1.715-.378,2.592-.036.386-.068.759-.095,1.111-.075.976-.144,1.94-.209,2.843-.019.282-.028.567-.037.884v.038c0,.15-.009.3-.015.447-.011.277-.021.485-.033.673,0,.044-.005.088-.008.132l-.005.071c-.007.106-.014.211-.02.316l.059-.018c.318-.115.64-.215.884-.29.132-.039.271-.081.411-.115.08-.019.16-.036.241-.053l.043-.009.025-.005.124-.027.088-.021.009,0a6.959,6.959,0,0,1,.928-.168,1.808,1.808,0,0,1,.182-.008,2.05,2.05,0,0,1,.3.022l.1.016c.005-.2.023-.4.04-.588L344.8,323c.021-.26.042-.5.065-.722.03-.319.068-.64.1-.923.021-.177.042-.355.062-.533l.019-.24.018-.229c.037-.475.072-.873.112-1.248.024-.232.055-.465.086-.691l0-.022c.017-.124.034-.248.05-.372l.017-.135,0-.011c.036-.284.077-.606.128-.921q.026-.165.051-.329c.034-.226.076-.506.13-.773l.082-.4,0-.012c.105-.5.235-1.131.342-1.731l.045-.25,0-.016c.1-.579.22-1.235.347-1.862.143-.7.3-1.452.5-2.167l.041-.146,0-.008c.082-.3.168-.6.268-.9.079-.237.165-.477.248-.709l.013-.037,0-.01,0-.009.038-.106.013-.037.051-.144c.215-.6.505-1.391.845-2.151a16.663,16.663,0,0,1,1.1-1.984,18.424,18.424,0,0,1,1.318-1.87l.014-.017.006-.008c.109-.135.221-.274.344-.4.1-.11.222-.235.378-.393l.085-.087c.2-.205.449-.46.7-.678.327-.281.648-.556.985-.823.243-.193.5-.367.753-.535l.013-.008.141-.1a19.338,19.338,0,0,1,1.864-1.108c.44-.227.782-.39,1.11-.528.294-.124.61-.247.966-.378.211-.077.384-.137.544-.191.123-.041.251-.074.376-.1l.011,0,.048-.012.1-.027c.365-.1.7-.175,1.033-.241a11.517,11.517,0,0,1,2.245-.214h.023c.164,0,.333.005.531.017.175.01.357.031.5.048l.15.017c.4.044.764.1,1.118.163a6.487,6.487,0,0,1,.967.259c.391.137.772.273,1.138.427.4.166.714.316,1,.471.338.181.672.379.982.565.272.164.554.353.914.614.162.118.324.247.48.371l.008.006.01.009.007.005c.132.1.285.228.426.356s.276.25.414.386.262.274.355.381l.039.045.008.009.016.018c.225.257.457.524.675.8a13.855,13.855,0,0,1,1.26,1.922,22.192,22.192,0,0,1,1.016,2.153c.3.7.538,1.451.749,2.113l0,.015c.235.738.416,1.478.561,2.106.155.665.3,1.381.449,2.189.155.845.269,1.6.349,2.314l.027.241.027.242.026.237q.082.738.164,1.476c.046.418.086.86.115,1.182l0,.047c.028.307.056.608.086.9.069.665.119,1.351.164,1.955l.022.306c.013.166.026.331.04.5l.007.1.007.09c.041.487.083.99.1,1.494.033.811.039,1.529.019,2.192q0,.154-.006.308c0,.074,0,.147,0,.221,0,.112-.008.226-.014.336,0,.082-.008.15-.011.219q-.026.635-.051,1.271c.093.05.173.1.247.147.127.085.248.174.362.263.075.059.151.123.238.2l.019-.028c.043-.085.095-.184.149-.277.175-.3.365-.612.564-.924a11.046,11.046,0,0,1,.7-.951,6.776,6.776,0,0,1,.759-.788,7.456,7.456,0,0,1,.947-.753,9.7,9.7,0,0,1,.93-.538,8.347,8.347,0,0,1,.836-.375l-.005-.023-.01-.038a1.172,1.172,0,0,1-.018-.22V322.2c-.016-.156-.033-.312-.05-.468l-.007-.066c-.011-.1-.023-.206-.033-.308l-.008-.068c-.01-.09-.02-.186-.023-.279,0-.03,0-.055,0-.08v-.04l-.007-.075-.016-.06,0-.01c-.019-.074-.04-.159-.053-.241-.024-.137-.045-.284-.065-.448-.017-.14-.032-.283-.045-.418l0-.026,0-.028c-.008-.076-.015-.152-.023-.228-.041-.394-.1-.811-.172-1.312-.051-.313-.114-.632-.169-.915l-.014-.075-.01-.052c-.024-.123-.048-.244-.07-.366-.083-.445-.187-.89-.288-1.322l-.029-.124q-.1-.413-.189-.827c-.04-.175-.08-.349-.12-.524-.176-.769-.383-1.525-.582-2.258l-.005-.018q-.071-.258-.141-.516-.05-.185-.1-.371l-.005-.02-.01-.037c-.073-.275-.156-.586-.246-.889-.143-.486-.29-.971-.436-1.445-.269-.875-.562-1.794-.776-2.464l-.009-.03-.048-.151c-.11-.347-.225-.687-.341-1.035l-.107-.319c-.136-.407-.295-.882-.461-1.353-.06-.17-.15-.427-.248-.685-.047-.123-.1-.248-.143-.357s-.08-.2-.119-.295c-.162-.417-.327-.818-.489-1.193-.156-.349-.33-.713-.456-.979l-.109-.229c-.1-.217-.215-.433-.315-.624l0-.006-.015-.028-.067-.129,0-.006-.016-.03c-.068-.13-.136-.261-.207-.388-.251-.448-.491-.835-.734-1.185s-.51-.721-.8-1.115c-.212-.264-.437-.531-.668-.794s-.464-.488-.7-.718l-.011-.011-.007-.006-.077-.075c-.108-.105-.221-.208-.33-.307l-.067-.06-.073-.067-.01-.01-.008-.008-.007-.006c-.1-.09-.2-.184-.3-.273-.246-.21-.509-.424-.8-.652a19.269,19.269,0,0,0-2.143-1.425c-.379-.21-.774-.416-1.206-.631-.388-.193-.783-.36-1.123-.5l-.185-.074c-.274-.109-.557-.222-.842-.316-.364-.121-.758-.246-1.176-.34-.374-.084-.773-.171-1.172-.237-.376-.061-.752-.114-1.151-.162h-.012a13.344,13.344,0,0,0-1.344-.09Z" transform="translate(-328.026 -267.359)"/></g></g></g></svg>