<svg xmlns="http://www.w3.org/2000/svg" width="65.377" height="49.999" viewBox="0 0 65.377 49.999"><defs><style>.a{fill:#fff;stroke:#000;stroke-miterlimit:10;stroke-width:4px;}</style></defs><path class="a" d="M838.581,849.728c5.059,0,9.622-.071,14.18.053a11.365,11.365,0,0,1,3.2,1.1,11.583,11.583,0,0,1-1.3,3.226c-5.933,7.1-11.914,14.158-18.012,21.1A5.7,5.7,0,0,1,832.987,877c-4.937.2-9.891-.02-14.831.122-2.6.075-3.349-1.06-3.279-3.591.13-4.742.037-9.491.037-14.824-5.207,0-10.1.079-14.98-.052a17.046,17.046,0,0,1-3.972-1.084c.612-1.365.968-2.958,1.879-4.056,5.6-6.739,11.232-13.449,17.072-19.958a7.756,7.756,0,0,1,4.9-2.277c5.049-.3,10.129-.02,15.191-.152,2.639-.069,3.7.936,3.617,3.725C838.482,839.709,838.581,844.572,838.581,849.728Z" transform="translate(-793.193 -829.124)"/></svg>