<svg xmlns="http://www.w3.org/2000/svg" width="64.112" height="61.076" viewBox="0 0 64.112 61.076"><defs><style>.a{fill:#fff;stroke:#000;stroke-width:4px;}</style></defs><path class="a" d="M1109.959,500.529l5.582,11.209a4.762,4.762,0,0,0,3.583,2.58l12.487,1.8a4.7,4.7,0,0,1,2.636,8.042l-9.035,8.726a4.69,4.69,0,0,0-1.368,4.174l2.133,12.321a4.751,4.751,0,0,1-6.906,4.971l-11.166-5.818a4.81,4.81,0,0,0-4.431,0l-11.167,5.818a4.751,4.751,0,0,1-6.906-4.971l2.133-12.321a4.69,4.69,0,0,0-1.368-4.174l-9.035-8.726a4.7,4.7,0,0,1,2.636-8.042l12.487-1.8a4.762,4.762,0,0,0,3.583-2.58l5.582-11.209A4.78,4.78,0,0,1,1109.959,500.529Z" transform="translate(-1073.635 -495.901)"/></svg>