<svg xmlns="http://www.w3.org/2000/svg" width="64" height="63.999" viewBox="0 0 64 63.999"><defs><style>.a,.b{fill:#fff;}.a,.c{stroke:#000;stroke-miterlimit:10;stroke-width:4px;}.c{fill:none;}</style></defs><g transform="translate(-89.197 -958.848)"><path class="a" d="M116.99,1016.786c-8.195,0-16.391-.111-24.582.051-3.714.074-5.224-1.243-5.2-5.064.122-16.559.15-33.119-.014-49.677-.04-4.162,1.623-5.282,5.526-5.247q24.581.226,49.164.008c3.715-.029,5.312,1.223,5.293,5.011q-.121,24.839.016,49.678c.026,4.068-1.7,5.392-5.626,5.3C133.381,1016.648,125.184,1016.785,116.99,1016.786Z" transform="translate(4 4)"/><path class="b" d="M114.651,994.026c10.844-.114,9.772,1.332,9.747-9.407-.026-11.172,1.493-10.081-10.123-10.078-10.266,0-9.6-1.284-9.6,9.687C104.672,995.672,104.08,993.882,114.651,994.026Z" transform="translate(7.514 7.515)"/><path class="c" d="M114.651,994.026c-10.571-.144-9.979,1.646-9.975-9.8,0-10.971-.667-9.684,9.6-9.687,11.616,0,10.1-1.094,10.123,10.078C124.423,995.358,125.5,993.912,114.651,994.026Z" transform="translate(7.514 7.515)"/></g></svg>