<svg xmlns="http://www.w3.org/2000/svg" width="65.463" height="39.976" viewBox="0 0 65.463 39.976"><defs><style>.a{fill:#fff;stroke:#000;stroke-miterlimit:10;stroke-width:4px;}</style></defs><path class="a" d="M833.4,721.672c7.586,0,14.7.134,21.794-.059,3.318-.091,4.346,1.005,4.229,3.837-.182,4.4-.2,8.818,0,13.217.134,2.943-1.18,3.841-4.338,3.774-7.091-.15-14.188-.047-21.695-.047,0,1.971.034,3.561-.008,5.15-.067,2.523-1.423,3.068-3.778,1.856-9.877-5.087-19.766-10.155-29.6-15.3-2.765-1.448-2.706-2.739.153-4.235q14.422-7.544,28.922-14.968c3.131-1.605,4.184-1.058,4.311,2.093C833.443,718.367,833.4,719.75,833.4,721.672Z" transform="translate(-795.968 -712.043)"/></svg>