<svg xmlns="http://www.w3.org/2000/svg" width="64.988" height="43.925" viewBox="0 0 64.988 43.925"><defs><style>.a{fill:#fff;stroke:#000;stroke-miterlimit:10;stroke-width:4px;}</style></defs><path class="a" d="M615.1,858.833c0,5.214.051,10.428-.015,15.641-.059,4.621-1.062,5.249-4.706,2.984-7.622-4.739-15.29-9.4-22.781-14.376-2.3-1.529-3.9-1.336-6.09.094-7.525,4.918-15.164,9.631-22.792,14.362-3.5,2.171-4.521,1.563-4.546-2.78q-.087-15.857-.007-31.717c.019-4.637,1.032-5.288,4.7-3.013,7.627,4.731,15.277,9.425,22.773,14.395,2.291,1.52,3.924,1.317,6.1-.1,7.412-4.841,14.931-9.489,22.435-14.162,3.9-2.43,4.9-1.805,4.939,3.034.038,5.214.008,10.427.008,15.641Z" transform="translate(-552.138 -836.798)"/></svg>