<svg xmlns="http://www.w3.org/2000/svg" width="73.944" height="65.994" viewBox="0 0 73.944 65.994"><defs><style>.a{fill:#fff;stroke:#000;stroke-miterlimit:10;stroke-width:4px;}</style></defs><path class="a" d="M356.994,869.347c-3.889,6.743-7.618,12.727-10.833,18.981-1.692,3.293-3.81,4.43-7.344,4.175-3.9-.283-7.839-.04-11.761-.069-5.527-.044-6.259-1.229-3.519-6.047q12.2-21.441,24.5-42.821c1.96-3.426,3.836-6.9,5.876-10.278,2.157-3.57,3.972-3.693,5.985-.2q15.658,27.135,31.146,54.368c1.866,3.264,1.007,4.989-2.823,4.981-.327,0-.654,0-.981,0-16.872.342-16.869.341-25.342-14.581C360.435,875.289,358.947,872.736,356.994,869.347Z" transform="translate(-320.044 -828.537)"/></svg>