<svg xmlns="http://www.w3.org/2000/svg" width="64" height="48.571" viewBox="0 0 64 48.571"><defs><style>.a{fill:#fff;stroke:#000;stroke-width:4px;}</style></defs><path class="a" d="M125.844,35.747a12.3,12.3,0,0,0-1.324.074A18.394,18.394,0,0,0,95.047,36a12.057,12.057,0,0,0-2.416-.249c-7.4,0-13.393,6.743-13.393,15.06s6,15.061,13.393,15.061a12.057,12.057,0,0,0,2.416-.249,18.392,18.392,0,0,0,29.472.175,12.025,12.025,0,0,0,1.324.074c7.4,0,13.394-6.742,13.394-15.061S133.241,35.747,125.844,35.747Z" transform="translate(-77.238 -26.523)"/></svg>