<svg xmlns="http://www.w3.org/2000/svg" width="200" height="160" viewBox="0 0 200 160"><defs><style>.a,.e{fill:none;}.b{fill:#dde6ed;}.c{fill:#fff;}.d{fill:#313131;}.e{stroke:#414143;stroke-linecap:round;stroke-linejoin:round;stroke-width:2.2px;}</style></defs><g transform="translate(-365 -326)"><rect class="a" width="200" height="160" transform="translate(365 326)"/><g transform="translate(-381.609 250.47)"><path class="b" d="M863.49,89.63l25.47,8.4s-1.21,3.44-2.43,8.51l-.03-.04-21.58-9.13-4.31-1.82a24.624,24.624,0,0,0,2.59-5.06Z"/><path class="b" d="M911.56,124.76a2.14,2.14,0,0,1-.28,2.9l-5.64,5-.14-.16-18.97-25.96c1.22-5.07,2.43-8.51,2.43-8.51a9.83,9.83,0,0,1,4.48,3.25Z"/><path class="c" d="M824.7,91.08l4.7-1.55.36.15-.36.81S834,104,846,104h.61c7.01,0,11.5-4.62,14-8.45l4.31,1.82c-3.07,4.98-8.93,11.63-18.31,11.63H846c-15,0-21-17-21-17Z"/><path class="c" d="M846.31,93a47.115,47.115,0,0,0,16.89-3.47l.29.09v.01l-.29.86a24.624,24.624,0,0,1-2.59,5.06c-2.5,3.83-6.99,8.45-14,8.45H846c-12,0-16.6-13.51-16.6-13.51l.36-.81A47.6,47.6,0,0,0,846.31,93Z"/><path class="c" d="M905.5,132.5l.14.16-10.4,9.22a2.438,2.438,0,0,1-3.03.16l-5.8-4.14c-3.99-9.28-1.94-22.7.12-31.36Z"/><path class="b" d="M887.42,218.5a3,3,0,0,1-3,3.03H870.11L886.5,148.5h.04Z"/><path class="c" d="M803.65,98.03s8.88,25.15,2.55,39.87l-5.8,4.14a2.438,2.438,0,0,1-3.03-.16l-16.05-14.22a2.149,2.149,0,0,1-.27-2.9l18.12-23.48A9.778,9.778,0,0,1,803.65,98.03Z"/><path class="c" d="M886.41,137.9l.13,10.6h-.04l-16.39,73.03H808.19a3,3,0,0,1-3.01-3.03l1.02-80.6c6.33-14.72-2.55-39.87-2.55-39.87l21.05-6.95.3.92s6,17,21,17h.61c9.38,0,15.24-6.65,18.31-11.63l21.58,9.13.03.04C884.47,115.2,882.42,128.62,886.41,137.9Z"/><path class="d" d="M863.49,89.63l25.47,8.4s-1.21,3.44-2.43,8.51l-.03-.04-21.58-9.13-4.31-1.82a24.624,24.624,0,0,0,2.59-5.06Z"/><path class="d" d="M911.56,124.76a2.14,2.14,0,0,1-.28,2.9l-5.64,5-.14-.16-18.97-25.96c1.22-5.07,2.43-8.51,2.43-8.51a9.83,9.83,0,0,1,4.48,3.25Z"/><path d="M824.7,91.08l4.7-1.55.36.15-.36.81S834,104,846,104h.61c7.01,0,11.5-4.62,14-8.45l4.31,1.82c-3.07,4.98-8.93,11.63-18.31,11.63H846c-15,0-21-17-21-17Z"/><path d="M846.31,93a47.115,47.115,0,0,0,16.89-3.47l.29.09v.01l-.29.86a24.624,24.624,0,0,1-2.59,5.06c-2.5,3.83-6.99,8.45-14,8.45H846c-12,0-16.6-13.51-16.6-13.51l.36-.81A47.6,47.6,0,0,0,846.31,93Z"/><path d="M905.5,132.5l.14.16-10.4,9.22a2.438,2.438,0,0,1-3.03.16l-5.8-4.14c-3.99-9.28-1.94-22.7.12-31.36Z"/><path class="d" d="M887.42,218.5a3,3,0,0,1-3,3.03H870.11L886.5,148.5h.04Z"/><path d="M803.65,98.03s8.88,25.15,2.55,39.87l-5.8,4.14a2.438,2.438,0,0,1-3.03-.16l-16.05-14.22a2.149,2.149,0,0,1-.27-2.9l18.12-23.48A9.778,9.778,0,0,1,803.65,98.03Z"/><path d="M886.41,137.9l.13,10.6h-.04l-16.39,73.03H808.19a3,3,0,0,1-3.01-3.03l1.02-80.6c6.33-14.72-2.55-39.87-2.55-39.87l21.05-6.95.3.92s6,17,21,17h.61c9.38,0,15.24-6.65,18.31-11.63l21.58,9.13.03.04C884.47,115.2,882.42,128.62,886.41,137.9Z"/><path class="e" d="M846.28,221.53H808.19a3,3,0,0,1-3.01-3.03l1.02-80.6-5.8,4.14a2.438,2.438,0,0,1-3.03-.16l-16.05-14.22a2.149,2.149,0,0,1-.27-2.9l18.12-23.48a9.778,9.778,0,0,1,4.48-3.25l21.05-6.95,4.7-1.55"/><path class="e" d="M803.65,98.03s8.88,25.15,2.55,39.87"/><path class="e" d="M829.4,89.53l.36.15A47.6,47.6,0,0,0,846.31,93H847"/><path class="e" d="M829.4,90.49S834,104,846,104"/><path class="e" d="M825,92s6,17,21,17"/><path class="e" d="M846.33,221.53h38.09a3,3,0,0,0,3-3.03l-.88-70-.13-10.6,5.8,4.14a2.438,2.438,0,0,0,3.03-.16l10.4-9.22,5.64-5a2.14,2.14,0,0,0,.28-2.9l-18.12-23.48a9.83,9.83,0,0,0-4.48-3.25l-25.47-8.4v-.01l-.29-.09"/><path class="e" d="M888.96,98.03s-1.21,3.44-2.43,8.51c-2.06,8.66-4.11,22.08-.12,31.36"/><path class="e" d="M863.2,89.53A47.115,47.115,0,0,1,846.31,93h-.7"/><path class="e" d="M863.2,90.49a24.624,24.624,0,0,1-2.59,5.06c-2.5,3.83-6.99,8.45-14,8.45"/><path class="e" d="M867.61,92a30.57,30.57,0,0,1-2.69,5.37c-3.07,4.98-8.93,11.63-18.31,11.63"/></g></g></svg>