<svg xmlns="http://www.w3.org/2000/svg" width="80" height="54" viewBox="0 0 80 54"><defs><style>.a{fill:#fff;}.b{fill:#1c3043;}.c{fill:#c1dff2;}.d{fill:#47a1d8;}</style></defs><g transform="translate(-302.282 -85.214)"><path class="a" d="M382.242,106.254c-.4-5.725-3.844-10.567-11.124-11.244,1.788-5.679-3.361-8.187-8.157-8.766-5.333-.643-10.715-.753-16.086-.862-9.627-.2-25.875-1.868-26.072,11.592a21.811,21.811,0,0,0-7.369-.055,13.587,13.587,0,0,0-8.594,5.988c-5.025,8.02-1.8,20.462,2.444,28.132,1.679,3.032,3.9,5.936,7.029,7.455,5.986,2.906,9.174-4,13.581-2.787a2.853,2.853,0,0,1,1.147.9c4.123,4.165,17.129,1.263,22.442.785,3.885-.35,5.124-1.7,7.943-3.82,2.836-2.135,3.736-2.324,7.279-3.4.2-.062.4-.134.642-.224,5.638-2.141,10.344-8.657,12.866-13.882A19.793,19.793,0,0,0,382.242,106.254Z"/><g transform="translate(307.26 89.567)"><g transform="translate(0 0)"><path class="b" d="M351.786,105.582l.013.125c.026.258.062.512.107.815.036.236.079.487.142.813.047.248.106.541.178.829.031.125.065.25.1.375l.01.039.03.115c.021.083.043.169.069.253.079.261.174.532.306.879a5.3,5.3,0,0,0,.351.756c.061.106.127.212.2.316l.028.041c.087.126.177.256.273.378a4.722,4.722,0,0,0,1.25,1.181,3.142,3.142,0,0,0,.536.276,2.589,2.589,0,0,0,.481.111,2.519,2.519,0,0,0,.395.021,3.638,3.638,0,0,0,.478-.035,4.6,4.6,0,0,0,.75-.165,1.819,1.819,0,0,0,.436-.194c.146-.09.287-.191.419-.288a3.6,3.6,0,0,0,.58-.543,4.821,4.821,0,0,0,.541-.718,6.982,6.982,0,0,0,.4-.789,3.313,3.313,0,0,0,.221-.721c.051-.28.089-.569.117-.882.006-.074.011-.148.016-.222l.011-.157c.012-.146.016-.277.016-.4a3.96,3.96,0,0,0-.034-.47,1.242,1.242,0,0,0-.127-.415.906.906,0,0,0-.1-.143.711.711,0,0,0-.132-.12l-.01-.008a.954.954,0,0,0-.249-.124,2.073,2.073,0,0,0-.336-.089,5.335,5.335,0,0,0-.88-.1c-.062,0-.124,0-.185,0-.079,0-.148,0-.211.008l-.026,0a1.222,1.222,0,0,0-.25.038.534.534,0,0,0-.341.265l0,0a1.71,1.71,0,0,0-.076.177,1.189,1.189,0,0,0-.033.12l-.01.042c-.03.117-.057.234-.083.346-.047.2-.1.42-.184.7-.021.072-.042.144-.063.217a10.463,10.463,0,0,1-.353,1.084,1.577,1.577,0,0,1-.162.062,1.173,1.173,0,0,1-.121.014,1.253,1.253,0,0,1-.132-.025c-.028-.011-.056-.023-.084-.036a1.452,1.452,0,0,1-.123-.1,1.979,1.979,0,0,1-.2-.263,2.849,2.849,0,0,1-.21-.539,6.393,6.393,0,0,1-.115-.7c-.029-.267-.055-.533-.067-.8-.006-.134-.013-.269-.014-.4s0-.268,0-.4c0-.264-.023-.529-.023-.793,0-.235,0-.47,0-.705q.01-.279.016-.557t.015-.529a12.992,12.992,0,0,1,.169-1.579c.09-.541.145-1.088.239-1.627.037-.211.077-.423.123-.632.024-.108.048-.216.074-.324,0-.008,0-.017.007-.025l.036-.078a2.475,2.475,0,0,1,.2-.356c.059-.083.122-.161.182-.233l.015-.017a1.779,1.779,0,0,1,.146-.152c.059-.053.117-.1.178-.147a1.379,1.379,0,0,1,.127-.076h.018l.077.007a2.139,2.139,0,0,1,.056.3c.012.153.017.309.023.46l.005.127v.03c0,.047,0,.093.007.139s.009.115.019.174a.779.779,0,0,0,.053.169l.006.015a.506.506,0,0,0,.2.231.57.57,0,0,0,.284.08,1.686,1.686,0,0,0,.34-.038c.111-.023.224-.039.333-.054l.327-.041.113-.012c.075-.008.152-.016.227-.03a1.267,1.267,0,0,0,.214-.069l.023-.008a.959.959,0,0,0,.115-.052.6.6,0,0,0,.234-.212l0-.005a.594.594,0,0,0,.074-.245l.007-.041c.039-.263.062-.481.073-.687,0-.054.007-.107.011-.161.005-.072.011-.147.013-.221,0-.129,0-.257,0-.381a5.309,5.309,0,0,0-.07-.807,3.191,3.191,0,0,0-.264-.762l-.049-.109c-.03-.068-.062-.138-.1-.206a3.37,3.37,0,0,0-.787-1,1.645,1.645,0,0,0-.386-.223,1.8,1.8,0,0,0-.348-.113,2.891,2.891,0,0,0-.468-.063h-.079a2.847,2.847,0,0,0-.408.032c-.113.016-.226.038-.331.059a2.812,2.812,0,0,0-.462.138,6.563,6.563,0,0,0-.662.312c-.111.058-.226.123-.362.2-.153.091-.295.19-.413.274a4.935,4.935,0,0,0-.622.524,5.7,5.7,0,0,0-.561.656c-.069.093-.139.2-.221.33-.02.033-.041.066-.063.1-.047.074-.1.151-.139.23-.072.131-.154.284-.225.441-.047.1-.092.213-.135.318l-.016.038a6.934,6.934,0,0,0-.264.758c-.083.292-.148.537-.2.788-.1.514-.181,1.074-.254,1.762-.051.477-.087.986-.118,1.649a15.505,15.505,0,0,0,.014,1.674C351.73,105.032,351.758,105.312,351.786,105.582Z" transform="translate(-333.477 -94.471)"/><path class="b" d="M370.64,103.528c.007.238.014.484.036.726a7.01,7.01,0,0,0,.312,1.719c.1.289.23.568.355.838s.245.51.377.751a4.185,4.185,0,0,0,.5.765,2.58,2.58,0,0,0,.687.584,4.766,4.766,0,0,0,.781.35,2.912,2.912,0,0,0,.375.094l.1.019a2.3,2.3,0,0,0,.4.057h.091a3.217,3.217,0,0,0,.411-.025,2,2,0,0,0,.411-.1,3.77,3.77,0,0,0,.8-.373,3.974,3.974,0,0,0,.693-.558,8.389,8.389,0,0,0,.607-.694,4.114,4.114,0,0,0,.417-.686c.139-.276.266-.562.378-.851.093-.24.179-.5.258-.768l.061-.207c.058-.2.118-.4.168-.6a15.716,15.716,0,0,0,.34-1.741,13.5,13.5,0,0,0,.123-1.662c0-.257,0-.533-.011-.808a8.374,8.374,0,0,0-.1-.9c-.046-.284-.095-.533-.147-.758-.063-.268-.131-.515-.206-.757a8.815,8.815,0,0,0-.669-1.533,4.3,4.3,0,0,0-.5-.741,4.687,4.687,0,0,0-.6-.571,2.793,2.793,0,0,0-.31-.229,1.926,1.926,0,0,0-.2-.1l-.028-.013a1.277,1.277,0,0,0-.159-.065,5.257,5.257,0,0,0-.834-.185,1.943,1.943,0,0,0-.288-.022,1.858,1.858,0,0,0-.2.011,1.461,1.461,0,0,0-.312.071l-.1.015-.043.007a1.982,1.982,0,0,0-.379.107l-.021.008a2.5,2.5,0,0,0-.419.186,3.865,3.865,0,0,0-.414.276c-.122.1-.231.19-.336.288a4.731,4.731,0,0,0-.594.687,4.61,4.61,0,0,0-.4.683c-.149.3-.272.58-.379.843a11.994,11.994,0,0,0-.5,1.561c-.143.565-.235,1.134-.323,1.715q-.064.415-.126.83l-.006.037a6.574,6.574,0,0,0-.071.809c-.007.266-.007.541,0,.819Zm3-.8c.016-.287.028-.552.038-.807l0-.06c.009-.252.019-.513.05-.766.033-.279.079-.556.123-.816a6.012,6.012,0,0,1,.516-1.608c.079-.152.158-.29.242-.424a4.082,4.082,0,0,1,.254-.352,3.191,3.191,0,0,1,.379-.359c.026-.017.049-.031.071-.043a1.343,1.343,0,0,1,.166-.023l.039,0a.273.273,0,0,0,.116-.045c.029.032.058.066.089.106a1.536,1.536,0,0,1,.1.165c.035.071.065.145.09.21l0,.007a3.237,3.237,0,0,1,.161.717c.02.264.029.506.028.739,0,.194-.01.392-.019.583,0,.073-.007.147-.01.22-.01.247-.023.513-.047.782-.021.225-.055.453-.087.673l-.02.134c-.044.3-.082.545-.125.8-.03.158-.064.317-.1.471-.014.066-.028.132-.041.2-.049.235-.1.466-.165.687s-.13.469-.211.7c-.071.2-.15.4-.236.59a3.134,3.134,0,0,1-.351.576,1.693,1.693,0,0,1-.189.189l-.058.032h-.009a1.11,1.11,0,0,1-.125-.04c-.022-.013-.042-.027-.063-.042a1.5,1.5,0,0,1-.137-.148,2.472,2.472,0,0,1-.2-.395c-.026-.073-.046-.134-.062-.19-.025-.091-.047-.185-.067-.276l-.007-.029a4.808,4.808,0,0,1-.082-.568c-.025-.276-.046-.505-.062-.743A6.871,6.871,0,0,1,373.637,102.733Z" transform="translate(-343.538 -94.477)"/><path class="b" d="M390.476,108.055a1.143,1.143,0,0,0,.106.249c.027.044.058.09.1.141a.778.778,0,0,0,.141.135l0,0a1.148,1.148,0,0,0,.253.141l.016.007a1.144,1.144,0,0,0,.169.055l.022.006c.049.014.1.024.148.034l.031.007.035.008c.038.008.076.017.115.022l.024,0,.024,0c.034.007.069.013.1.018.117.016.242.028.4.04.107.008.222.015.338.016h.006c.08,0,.161-.007.239-.014h.008a.728.728,0,0,0,.135-.024l.008,0a.547.547,0,0,0,.335-.233.763.763,0,0,0,.1-.253c.031-.136.056-.276.08-.411l0-.018c.042-.233.081-.47.12-.7s.075-.445.115-.667c.039-.194.077-.388.114-.584.088-.421.16-.775.229-1.133.062-.3.116-.584.165-.861.039-.222.067-.449.095-.669l.019-.148c.034-.266.077-.533.122-.806.023-.142.043-.288.063-.429.016-.119.033-.242.053-.363.016-.1.029-.2.041-.3.01-.081.021-.162.033-.243s.025-.156.038-.234c.009-.055.018-.11.026-.164.009.036.018.072.027.108.018.073.035.147.052.22.012.054.024.107.038.16a3.782,3.782,0,0,0,.131.428,1.634,1.634,0,0,0,.2.377.873.873,0,0,0,.454.286,4.866,4.866,0,0,0,.8.191l.051.009.684.121a.685.685,0,0,0,.115.01.482.482,0,0,0,.357-.142c.072-.074.139-.158.2-.238l.049-.061c.161-.2.308-.415.433-.6.135-.2.278-.427.436-.686.2-.319.382-.641.573-.971,0,.172-.009.324-.016.464-.029.571-.09,1.137-.151,1.662-.059.5-.12,1.042-.165,1.583-.011.135-.021.271-.03.407s-.019.284-.031.426c-.023.271-.046.536-.063.8-.016.251-.038.505-.058.751-.024.286-.049.582-.066.874l-.009.149c-.013.214-.026.436-.033.655,0,.129,0,.242,0,.346v.023a1.577,1.577,0,0,0,.043.383.755.755,0,0,0,.138.282.654.654,0,0,0,.347.219,2.2,2.2,0,0,0,.475.069l.146.007c.085,0,.17.008.254.014.115.008.237.016.359.016.3,0,.557-.01.791-.03a.73.73,0,0,0,.2-.05l.015-.005a.537.537,0,0,0,.205-.179.56.56,0,0,0,.08-.179c.016-.055.031-.111.047-.166s.031-.111.047-.166c.051-.178.1-.362.142-.538.018-.072.036-.145.055-.217.069-.268.135-.54.2-.809.137-.6.256-1.193.353-1.756q.141-.819.278-1.638v-.008l.131-.78c.044-.26.087-.542.13-.862.07-.512.122-1.062.154-1.635.006-.109.014-.218.022-.327.011-.15.022-.306.028-.459,0-.079.006-.157.01-.236.008-.185.016-.376.02-.564,0-.243,0-.489-.005-.751l0-.142c-.006-.184-.011-.374-.023-.56l0-.046a1.8,1.8,0,0,0-.128-.68.821.821,0,0,0-.25-.292.891.891,0,0,0-.385-.145l-.015,0c-.153-.032-.311-.064-.467-.085-.1-.014-.206-.025-.307-.035l-.075-.008-.4-.04-.144-.016c-.072-.008-.146-.016-.22-.022-.4-.028-.811-.038-1.206-.047l-.359-.008h-.095a3.006,3.006,0,0,0-.369.022.478.478,0,0,0-.062.011.68.68,0,0,0-.264.126.689.689,0,0,0-.144.156l-.005.007c-.061.082-.123.164-.185.245-.078.1-.156.205-.231.308-.151.206-.3.42-.44.655-.061.1-.122.2-.184.294-.085.134-.173.274-.256.413-.1.167-.192.319-.281.475-.019-.041-.039-.083-.057-.125-.138-.308-.255-.633-.368-.947l0-.01q-.042-.121-.085-.241c-.023-.07-.048-.14-.072-.209l-.031-.089c-.079-.232-.161-.472-.26-.7L395.9,95.9c-.017-.039-.034-.078-.052-.116a1.479,1.479,0,0,0-.113-.185l-.017-.026a.848.848,0,0,0-.224-.229.756.756,0,0,0-.4-.105h-.028a2.534,2.534,0,0,0-.47.06c-.1.024-.209.051-.311.077l-.073.019-.162.039c-.061.014-.122.028-.183.044-.1.026-.2.056-.3.086l-.174.052-.166.046c-.073.02-.145.039-.218.062l-.144.04c-.05.013-.1.026-.149.041-.032.009-.064.021-.1.032l-.04.013-.055.017a.774.774,0,0,0-.2.08.448.448,0,0,0-.139.11.923.923,0,0,0-.311.154.843.843,0,0,0-.221.434c-.024.087-.045.177-.065.265-.008.036-.016.071-.025.107-.074.316-.136.607-.188.889l-.024.13c-.04.212-.08.431-.111.647-.034.241-.064.487-.093.724-.036.3-.074.612-.121.917-.056.36-.1.728-.134,1.085-.019.176-.038.353-.059.529l0,.04c-.062.521-.126,1.058-.162,1.59l-.012.174c-.014.214-.029.435-.047.653-.005.067-.011.133-.016.2-.016.192-.033.391-.043.587-.012.241-.027.487-.043.724-.018.293-.038.6-.05.894,0,.11-.013.221-.021.329-.011.149-.023.3-.024.456a2.656,2.656,0,0,0,.016.276A.874.874,0,0,0,390.476,108.055Z" transform="translate(-354.051 -94.877)"/><path class="b" d="M416.647,109.088l-.02.068c-.071.239-.144.5-.2.762a1.982,1.982,0,0,0-.037.383.734.734,0,0,0,.323.586,2.892,2.892,0,0,0,.783.334l.05.016c.136.043.272.095.4.145s.239.092.361.132c.3.1.619.182.924.262.19.049.387.1.578.156l.025.008c.292.088.593.179.894.257l.225.057c.192.048.391.1.585.155l.134.041c.082.025.163.051.245.075.05.014.092.024.131.032l.054.008c.02,0,.058,0,.1,0l.057,0a.6.6,0,0,0,.26-.1.728.728,0,0,0,.208-.22c.053-.078.1-.16.15-.24l.01-.016c.065-.109.133-.221.193-.338.11-.214.2-.43.293-.671a1.531,1.531,0,0,0,.153-.669.61.61,0,0,0-.237-.411,1.663,1.663,0,0,0-.216-.139l-.038-.021a2.406,2.406,0,0,0-.324-.149c-.142-.057-.29-.109-.433-.159l-.247-.088c-.11-.04-.224-.078-.333-.115s-.227-.075-.339-.117c-.071-.026-.142-.051-.213-.076l-.091-.032c.012-.056.026-.115.042-.181s.029-.116.043-.174c.029-.121.059-.246.093-.369l0-.016.036-.122q.038-.129.076-.258l.061-.209q.035-.12.07-.24l.033-.115,0-.006c.01-.032.019-.06.025-.088.014-.046.026-.091.039-.136l.039-.135c.037-.13.075-.264.111-.4.04-.15.077-.311.112-.493l.028-.139.317.066c.122.025.244.052.365.079s.277.061.416.089c.253.05.505.107.75.162l.087.02c.078.018.158.037.237.05a.789.789,0,0,0,.095.009h.019l.078,0a.525.525,0,0,0,.194-.035.536.536,0,0,0,.237-.175,1.478,1.478,0,0,0,.1-.158l.035-.059c.028-.045.055-.091.081-.137l0-.008c.055-.094.111-.19.161-.288.1-.2.186-.419.26-.608a4.517,4.517,0,0,0,.215-.68,1.315,1.315,0,0,0,.023-.3.565.565,0,0,0-.226-.407,2.128,2.128,0,0,0-.192-.126l-.01-.006a1.324,1.324,0,0,0-.151-.084c-.039-.017-.08-.032-.119-.047l-.027-.01c-.1-.037-.185-.067-.267-.093-.231-.073-.468-.139-.691-.2s-.436-.112-.6-.15l-.14-.032-.136-.031c.02-.125.046-.249.075-.387s.067-.3.106-.454l.152.04.24.063c.272.073.523.132.77.179.229.044.476.09.728.128.08.012.162.028.24.042a3.92,3.92,0,0,0,.409.063c.057.005.119.007.189.007h.047a.668.668,0,0,0,.347-.126,1.125,1.125,0,0,0,.3-.371l.018-.031a2.773,2.773,0,0,0,.236-.562l.03-.09c.042-.124.082-.248.122-.372q.049-.152.1-.3c.026-.076.05-.153.074-.23.031-.1.064-.2.1-.306s.067-.221.1-.329l.007-.026,0-.007a.477.477,0,0,0-.026-.241.47.47,0,0,0-.092-.15.378.378,0,0,0-.227-.32,2.145,2.145,0,0,0-.458-.13l-.382-.068c-.263-.048-.533-.09-.8-.126-.142-.018-.287-.04-.426-.062s-.253-.039-.379-.056c-.245-.033-.513-.061-.819-.087-.322-.026-.582-.053-.817-.085l-.158-.022a6.464,6.464,0,0,0-.657-.068c-.166-.006-.3-.009-.426-.009h-.075a.793.793,0,0,0-.522.127,1.784,1.784,0,0,0-.3.332c-.1.127-.181.259-.279.417l-.031.049c-.132.213-.269.434-.383.662-.127.253-.244.508-.347.757s-.215.529-.318.787c-.1.241-.195.49-.3.733l-.064.155c-.187.451-.38.917-.556,1.382-.071.189-.138.383-.2.571l-.08.233-.116.332c-.052.147-.1.293-.153.44q-.054.157-.107.316c-.055.16-.109.321-.165.481-.093.263-.188.52-.284.781l-.108.286c-.059.156-.121.316-.178.476-.094.263-.185.527-.277.791C416.786,108.613,416.715,108.854,416.647,109.088Z" transform="translate(-367.84 -96.485)"/><path class="b" d="M371.8,162.443c.053-.3.106-.612.136-.931a10.426,10.426,0,0,0,.018-1.653c-.007-.1-.012-.2-.017-.306-.009-.178-.019-.363-.034-.544-.026-.3-.076-.6-.133-.931a5.09,5.09,0,0,0-.489-1.556c-.022-.039-.043-.079-.064-.118a4.368,4.368,0,0,0-.317-.53l-.03-.041c-.082-.112-.167-.228-.261-.333a2.486,2.486,0,0,0-.285-.268l-.075-.062c-.091-.076-.185-.154-.281-.227a2.317,2.317,0,0,0-.314-.2c-.075-.04-.153-.077-.229-.112l-.085-.04c-.134-.063-.276-.122-.422-.174l-.039-.013-.03-.014-.02-.009a1.673,1.673,0,0,0-.335-.1l-.008,0a1.763,1.763,0,0,0-.4-.046h-.05l-.2.008a6.1,6.1,0,0,0-.886.085,6.6,6.6,0,0,0-.828.216,5.122,5.122,0,0,0-.844.353,4.032,4.032,0,0,0-.736.552,7.892,7.892,0,0,0-.594.6,6.21,6.21,0,0,0-.532.7c-.157.234-.306.474-.456.734a11.143,11.143,0,0,0-.734,1.579c-.09.232-.179.487-.273.778l-.005.015c-.087.272-.178.553-.257.832a16.436,16.436,0,0,0-.347,1.619c-.053.3-.1.609-.145.923a6.875,6.875,0,0,0-.058.814c-.007.294,0,.587.016.86.015.322.041.626.079.905.032.239.074.522.14.806s.15.588.213.807a5.808,5.808,0,0,0,.738,1.572,5.04,5.04,0,0,0,.591.724,3.854,3.854,0,0,0,.681.571l.031.02c.047.031.1.062.146.088a2.66,2.66,0,0,0,.293.13,3.175,3.175,0,0,0,.4.121,4.766,4.766,0,0,0,.922.141l.134,0a2.4,2.4,0,0,0,.256-.013l.051-.006a3.836,3.836,0,0,0,.471-.072,2.987,2.987,0,0,0,.875-.363,6.838,6.838,0,0,0,.739-.537l.046-.037c.093-.077.185-.153.277-.23s.158-.145.231-.22l.065-.066c.17-.169.331-.352.487-.529l.079-.089c.209-.237.4-.489.56-.7a8.654,8.654,0,0,0,.856-1.424,16.007,16.007,0,0,0,.649-1.637c.069-.2.129-.406.187-.6l.059-.2c.084-.281.155-.542.217-.8C371.7,162.994,371.747,162.722,371.8,162.443Zm-3.1-2.815a5.81,5.81,0,0,1-.052.6l-.006.048c-.028.229-.055.433-.081.625-.031.209-.069.453-.113.694-.039.216-.087.434-.132.645l-.033.157c-.054.252-.118.506-.18.752l-.013.049c-.08.318-.153.58-.23.822-.054.17-.115.363-.182.55s-.13.35-.2.524l-.008.018c-.127.282-.26.574-.41.851-.094.173-.184.329-.276.476s-.188.274-.275.389a2.2,2.2,0,0,1-.288.294,1.728,1.728,0,0,1-.211.129,1.622,1.622,0,0,1-.229.054l-.081,0h-.054a1.451,1.451,0,0,1-.2-.063.536.536,0,0,1-.052-.031,2.15,2.15,0,0,1-.248-.26,3.567,3.567,0,0,1-.264-.494,4.75,4.75,0,0,1-.188-.57c-.049-.2-.093-.409-.133-.646a9.5,9.5,0,0,1-.041-1.138,9.345,9.345,0,0,1,.107-1.135,12.446,12.446,0,0,1,.382-1.48l.034-.114c.154-.513.34-1.013.549-1.569.036-.1.076-.191.115-.283l.005-.013c.13-.291.247-.527.367-.743q.114-.205.23-.408a3.537,3.537,0,0,1,.232-.346,6.6,6.6,0,0,1,.7-.737l.006,0,.018-.01a1.436,1.436,0,0,1,.157-.073,1.766,1.766,0,0,1,.284-.09.873.873,0,0,1,.1.006,1.584,1.584,0,0,1,.2.05,1.1,1.1,0,0,1,.1.066,1.72,1.72,0,0,1,.181.193,2.359,2.359,0,0,1,.2.357,3.388,3.388,0,0,1,.171.71A9.213,9.213,0,0,1,368.7,159.629Z" transform="translate(-338.5 -126.569)"/><path class="b" d="M395.2,150.588a5.1,5.1,0,0,0-.021-.568,3.019,3.019,0,0,0-.085-.476,1.285,1.285,0,0,0-.143-.358.924.924,0,0,0-.348-.324,1.17,1.17,0,0,0-.252-.1,2.482,2.482,0,0,0-.28-.048,1,1,0,0,0-.116-.007,1.978,1.978,0,0,0-.234.017,3.569,3.569,0,0,0-.474.078,2.841,2.841,0,0,0-.822.336,1.49,1.49,0,0,0-.433.4,1.4,1.4,0,0,0-.188.446c-.022.084-.039.17-.055.254-.008.045-.017.089-.027.134-.019.09-.034.183-.049.272-.006.036-.012.072-.019.109-.062.355-.122.718-.179,1.068-.031.185-.061.37-.092.555-.079.474-.158.9-.24,1.309-.035.171-.064.347-.093.516l-.022.13c-.021.118-.04.237-.059.355l0,.012a.457.457,0,0,0-.019.132c-.008.05-.016.1-.023.15-.079.5-.141.991-.19,1.412l0,.024c-.041-.11-.085-.219-.129-.329l.005.015c-.09-.231-.163-.425-.227-.608-.038-.11-.074-.221-.111-.331s-.073-.221-.111-.331c-.029-.084-.057-.168-.085-.253-.041-.126-.085-.256-.132-.383-.089-.237-.182-.475-.277-.706l.02.052a2.952,2.952,0,0,0-.168-.358,2,2,0,0,0-.205-.29.574.574,0,0,0-.084-.079l-.006,0a1.692,1.692,0,0,0-.2-.142,1.182,1.182,0,0,0-.4-.15c-.15-.027-.3-.047-.456-.066a1.257,1.257,0,0,0-.168-.009l-.107,0h-.055c-.133,0-.268.011-.4.02l-.23.014c-.127.007-.276.016-.422.036a1.263,1.263,0,0,0-.2.049.914.914,0,0,0-.265.123c-.079.055-.149.106-.22.159a.931.931,0,0,0-.1.085,1.294,1.294,0,0,0-.127.153.723.723,0,0,0-.072.119,2.067,2.067,0,0,0-.211.247,1,1,0,0,0-.108.2l-.026.058c-.033.073-.067.149-.1.225-.054.143-.1.264-.139.387l-.031.1c-.034.1-.069.211-.1.316s-.061.23-.087.344l-.01.044c-.047.2-.09.409-.131.608q-.023.111-.046.221c-.059.283-.12.566-.181.849q-.082.381-.162.762c-.022.1-.045.21-.068.315-.035.158-.07.321-.1.482-.04.2-.076.4-.111.6-.013.072-.026.145-.039.218-.034.185-.066.371-.1.556-.062.35-.125.712-.2,1.066-.247,1.236-.441,2.349-.592,3.4-.036.249-.076.544-.1.836-.012.125-.02.252-.024.388l0,.066c0,.1-.008.2,0,.3a2.486,2.486,0,0,0,.032.292.718.718,0,0,0,.043.156l.013.033c.015.038.03.077.046.113a.959.959,0,0,0,.137.206,1.177,1.177,0,0,0,.512.324,3.368,3.368,0,0,0,.829.189,2.613,2.613,0,0,0,.294.018l.1,0c.155-.008.321-.019.487-.041a1.236,1.236,0,0,0,.442-.134,1.046,1.046,0,0,0,.367-.367,3.517,3.517,0,0,0,.37-.772,4.688,4.688,0,0,0,.143-.606c.01-.053.02-.106.031-.159q.051-.254.1-.508c.071-.352.145-.717.214-1.076q.068-.352.133-.7l.019-.1c.025-.135.048-.274.07-.408s.041-.254.064-.381c.055-.3.118-.594.172-.85.026-.123.05-.246.075-.37.028-.14.056-.284.087-.426.013-.06.026-.12.039-.181l.02-.09.018.148c.026.207.054.422.087.633.019.119.039.238.06.357.025.144.051.294.073.441.084.574.205,1.131.313,1.6.037.16.071.324.1.483.024.117.048.233.073.35.02.089.038.178.056.267.034.164.07.334.11.5a2.329,2.329,0,0,0,.342.839,2.365,2.365,0,0,0,.185.225,1.454,1.454,0,0,0,.187.158.854.854,0,0,0,.141.091,2.434,2.434,0,0,0,.459.177c.176.042.355.069.525.092s.285.036.4.045c.083.007.169.01.256.01a4.431,4.431,0,0,0,.678-.056,1.554,1.554,0,0,0,.342-.092l.041-.016a1.364,1.364,0,0,0,.194-.09,1.128,1.128,0,0,0,.193-.147,1.4,1.4,0,0,0,.175-.218c.04-.058.076-.12.107-.174a3.973,3.973,0,0,0,.208-.432,11.29,11.29,0,0,0,.492-1.537,19.839,19.839,0,0,0,.475-2.9c.02-.173.039-.345.059-.517.119-1.011.248-2.089.4-3.3.016-.133.032-.266.049-.4.084-.563.152-1.12.216-1.641l.024-.2c.056-.461.115-.937.138-1.409.008-.151.011-.3.015-.453,0-.118.006-.236.01-.353l0-.048c.01-.256.021-.52.025-.78.005-.3.006-.566,0-.815C395.2,150.72,395.2,150.654,395.2,150.588Z" transform="translate(-350.181 -123.641)"/><path class="b" d="M412.115,179.972a1.469,1.469,0,0,0-.293-.535.492.492,0,0,0-.093-.088.388.388,0,0,0-.073-.114l-.009-.01a1.063,1.063,0,0,0-.093-.093.706.706,0,0,0-.213-.13c-.032-.014-.067-.027-.105-.04a1.623,1.623,0,0,0-.163-.043l-.019,0a1.14,1.14,0,0,0-.243-.035h-.018a1.824,1.824,0,0,0-.458.079,2.329,2.329,0,0,0-.416.158,2.076,2.076,0,0,0-.683.615,1.651,1.651,0,0,0-.269.742,1.751,1.751,0,0,0-.03.268,1.59,1.59,0,0,0,.027.274,1.523,1.523,0,0,0,.146.423,1.085,1.085,0,0,0,.1.164l.012.016a1.342,1.342,0,0,0,.175.209,1.255,1.255,0,0,0,.2.155,1.606,1.606,0,0,0,.2.1l.028.012a.755.755,0,0,0,.161.047,1.4,1.4,0,0,0,.255.03h.031a2.353,2.353,0,0,0,.473-.073,2.536,2.536,0,0,0,.321-.107l.007,0a1.812,1.812,0,0,0,.232-.106,2.33,2.33,0,0,0,.248-.169,1.689,1.689,0,0,0,.4-.458,1.639,1.639,0,0,0,.211-.737,1.2,1.2,0,0,0,0-.237A1.9,1.9,0,0,0,412.115,179.972Z" transform="translate(-363.867 -139.625)"/><path class="b" d="M414.865,149.816a1.467,1.467,0,0,0-.1-.324.757.757,0,0,0-.292-.312,1.038,1.038,0,0,0-.378-.139,4,4,0,0,0-.484-.06l-.04,0-.019,0a2.279,2.279,0,0,0-.276-.032h-.054a1.787,1.787,0,0,0-.26.021l-.055.005h0c-.233,0-.464.016-.7.031-.113.007-.226.012-.339.024a2.186,2.186,0,0,0-.378.061,1.171,1.171,0,0,0-.322.136.948.948,0,0,0-.154.119,1.145,1.145,0,0,0-.123.155,3.151,3.151,0,0,0-.414,1.449c-.035.274-.07.548-.094.823s-.046.561-.068.841-.044.555-.056.833c0,.1-.007.205-.009.308l-.03.231q-.026.2-.053.4c-.054.406-.109.826-.145,1.24-.015.177-.028.358-.04.532q-.007.112-.016.223-.022.31-.042.619l-.017.25-.007.1c-.033.485-.066.986-.107,1.478-.009.11-.018.219-.027.329-.013.165-.026.33-.04.494,0,.051-.009.1-.015.153-.008.077-.015.153-.021.23,0,.043-.008.087-.011.13-.008.086-.016.173-.02.261a3.339,3.339,0,0,0,.057.869,1.05,1.05,0,0,0,.126.312,1.361,1.361,0,0,0,.119.161.321.321,0,0,0,.051.048l.036.029c.031.025.063.051.1.074a.885.885,0,0,0,.136.079,1.629,1.629,0,0,0,.288.113,2.328,2.328,0,0,0,.637.071l.19,0a2.531,2.531,0,0,0,.293-.027.872.872,0,0,0,.169-.038,1.756,1.756,0,0,0,.21-.087.73.73,0,0,0,.269-.261,1.175,1.175,0,0,0,.088-.18l.023-.053c.024-.056.048-.113.07-.169l.019-.048c.03-.056.059-.113.087-.17.13-.266.245-.538.348-.815.193-.52.365-1.047.508-1.582s.265-1.058.371-1.593c.05-.253.1-.505.157-.757s.122-.519.175-.78c.089-.438.189-.875.27-1.314.047-.259.093-.517.129-.777.03-.214.054-.429.081-.643.079-.509.141-1.02.2-1.532a6.328,6.328,0,0,0,.038-.75c0-.116,0-.232-.005-.348A2.937,2.937,0,0,0,414.865,149.816Z" transform="translate(-364.253 -123.764)"/><path class="b" d="M383.407,123.85c0-.26-.022-.518-.028-.777,0-.129-.008-.256-.014-.385s-.023-.262-.036-.393a7.47,7.47,0,0,0-.12-.809,5.5,5.5,0,0,0-.241-.805,8.367,8.367,0,0,0-.762-1.463,5.016,5.016,0,0,0-.477-.632c-.1-.117-.214-.227-.325-.335a3.559,3.559,0,0,0-.313-.28,4.3,4.3,0,0,0-.4-.255c-.11-.066-.221-.131-.334-.194a6.648,6.648,0,0,0-.709-.344c-.121-.049-.246-.09-.369-.133s-.252-.086-.378-.127a4.158,4.158,0,0,0-.436-.115,2.1,2.1,0,0,0-.411-.034h-.011c-.048,0-.1,0-.144,0s-.092-.024-.138-.033a4.09,4.09,0,0,0-.847-.09h-.054a5.619,5.619,0,0,0-.791.044,5.447,5.447,0,0,0-.881.206,3.8,3.8,0,0,0-.358.133c-.125.057-.249.116-.372.177a5.39,5.39,0,0,0-.765.467c-.22.161-.437.325-.65.494s-.4.348-.6.524c-.222.2-.443.4-.652.613-.389.4-.782.787-1.152,1.2-.177.2-.352.4-.528.6s-.37.419-.545.637a16.386,16.386,0,0,0-1,1.331q-.262.4-.515.813c-.162.261-.32.522-.457.8-.067.134-.13.268-.185.407-.028.07-.056.139-.084.208l-.518-.118c-.485-.111-.973-.21-1.461-.31s-.948-.188-1.425-.268-.953-.147-1.43-.218c-.507-.075-1.013-.155-1.522-.219-.976-.123-1.957-.178-2.935-.28-.242-.026-.484-.049-.727-.07-.225-.019-.45-.03-.675-.043-.516-.031-1.031-.062-1.546-.1-.251-.019-.5-.024-.754-.035s-.479-.022-.718-.03c-.4-.012-.79-.02-1.186-.02h-.24c-.5,0-1,.023-1.507.047-.222.01-.444.021-.666.039l-.759.064c-.478.04-.958.07-1.433.126-.539.064-1.076.139-1.611.224-.458.072-.913.171-1.366.267-.488.1-.973.214-1.461.317s-.982.211-1.469.335-.959.247-1.439.367c-.233.059-.466.113-.7.176-.249.068-.5.14-.744.213-.439.131-.874.272-1.317.39s-.886.223-1.318.37-.883.309-1.318.483c-.412.165-.83.318-1.237.493s-.816.352-1.222.532-.8.341-1.2.511c-.258.11-.518.215-.774.33-.022-.253-.041-.506-.077-.757a9.108,9.108,0,0,0-.206-.982c-.039-.15-.087-.3-.13-.449s-.089-.316-.134-.474c-.1-.36-.206-.72-.325-1.076-.1-.31-.238-.608-.367-.907s-.26-.595-.39-.892q-.1-.23-.213-.455c-.068-.138-.146-.271-.222-.4-.166-.3-.336-.588-.5-.882-.1-.168-.2-.333-.309-.493a4.228,4.228,0,0,0-.3-.413c-.229-.263-.475-.509-.724-.752a9.581,9.581,0,0,0-.806-.733c-.129-.1-.26-.2-.4-.288s-.293-.178-.443-.26a5.328,5.328,0,0,0-1.008-.444,4.926,4.926,0,0,0-.6-.137c-.162-.026-.327-.053-.49-.064s-.328-.024-.493-.026h-.066a5.448,5.448,0,0,0-.55.03,4.059,4.059,0,0,0-.5.078c-.183.042-.362.1-.54.152-.289.033-.574.084-.858.144a7.3,7.3,0,0,0-.987.294c-.307.111-.614.228-.919.345a7,7,0,0,0-.938.463c-.294.167-.574.355-.861.532s-.554.337-.813.529c-.135.1-.266.2-.393.312s-.258.229-.382.347a2.828,2.828,0,0,0-.65.831,3.256,3.256,0,0,0-.173.437c-.053.181-.106.362-.156.544-.088.321-.158.647-.237.971s-.132.635-.2.952c-.067.336-.121.674-.181,1.011s-.1.685-.129,1.03-.055.694-.069,1.042c-.013.331-.018.662-.025.993-.007.379-.017.76-.009,1.14.008.35.021.7.035,1.05s.057.7.095,1.044.075.671.111,1.006.084.672.136,1.006.11.7.177,1.043c.064.329.122.659.189.988.143.71.3,1.418.495,2.117.184.663.367,1.329.6,1.977.112.317.231.631.354.944s.249.637.383.952.269.646.417.964q.211.452.442.894c.17.322.355.637.539.951q.249.426.507.847c.173.28.351.557.526.835.083.131.162.261.247.39s.183.267.275.4.189.268.29.4.22.263.331.393c.206.241.434.464.645.7.245.276.508.534.772.791.112.109.23.211.346.316s.231.209.356.3a7.623,7.623,0,0,0,.863.561,2.324,2.324,0,0,0,.438.2c.183.057.371.1.559.143a3.417,3.417,0,0,0,.388.053,5.13,5.13,0,0,0,.579.025,6.4,6.4,0,0,0,.932-.081,10.516,10.516,0,0,0,1.059-.26,4.145,4.145,0,0,0,.437-.138c.137-.055.274-.112.407-.175l.358-.166c.141-.067.276-.144.412-.221l.158-.09c.055-.031.111-.061.165-.094a.623.623,0,0,0,.1-.072,1.391,1.391,0,0,0,.162-.174,1.306,1.306,0,0,0,.073-.114,3.091,3.091,0,0,0,.465-.277,4.3,4.3,0,0,0,.406-.316,7.716,7.716,0,0,0,.774-.809c.209-.249.4-.516.584-.782s.37-.547.538-.831c.19-.322.368-.651.537-.985.137-.273.248-.557.365-.839.127-.307.241-.616.337-.933.049-.162.086-.327.125-.491.046-.191.089-.383.127-.575a15.539,15.539,0,0,0,.284-1.957q.044-.663.054-1.328,0-.31.005-.62c0-.256-.008-.51-.02-.766-.015-.325-.03-.65-.058-.974-.026-.307-.076-.613-.125-.918-.046-.283-.1-.564-.164-.844-.031-.139-.068-.277-.105-.415s-.059-.253-.095-.377l-.006-.02.122-.049c.209-.087.416-.179.626-.266.189-.075.378-.146.57-.212.274-.095.541-.206.809-.316l.013-.005c.4-.159.807-.313,1.213-.462s.8-.293,1.2-.425c.42-.137.841-.267,1.268-.384s.851-.246,1.278-.363c.215-.059.431-.118.648-.176s.428-.118.642-.174c.423-.112.85-.215,1.274-.326s.869-.186,1.306-.267c.231-.043.464-.071.7-.106l.68-.107c.353-.057.706-.122,1.06-.171l.359-.045c.45-.054.9-.091,1.352-.135.476-.046.952-.091,1.429-.13s.937-.063,1.407-.08c.449-.016.9-.011,1.347-.013s.893,0,1.34,0c.219,0,.438,0,.657,0s.453.007.68.007h.207c.172,0,.344,0,.515.006q.355.015.71.034c.441.024.881.068,1.322.089.924.045,1.847.119,2.771.172.448.026.9.052,1.344.083.466.032.933.078,1.4.119s.9.107,1.358.146c.351.03.7.056,1.056.082-.017.048-.034.1-.049.146-.046.147-.087.3-.128.444-.031.116-.065.231-.091.347-.049.213-.107.423-.163.634-.064.24-.12.48-.166.724s-.09.481-.124.724c-.037.263-.068.526-.09.79-.025.295-.04.592-.044.888,0,.261.01.521.022.781.006.131.008.263.015.4s.019.271.029.406q.033.411.075.82a6.062,6.062,0,0,0,.131.8,4.618,4.618,0,0,0,.267.856,3.76,3.76,0,0,0,.236.451,2.922,2.922,0,0,0,.263.346,4.291,4.291,0,0,0,.655.609c.131.094.266.189.407.273.046.033.1.062.144.09a1.791,1.791,0,0,0,.317.146c.121.042.242.082.362.127l.354.131c.114.042.223.094.334.143a2.374,2.374,0,0,0,.445.144c.12.027.241.048.362.07s.241.042.363.054a4.4,4.4,0,0,0,.507.015c.121,0,.244,0,.365-.018a5.42,5.42,0,0,0,.845-.18c.124-.034.248-.069.372-.107s.23-.079.344-.122.217-.085.321-.136c.129-.064.255-.135.38-.207s.231-.144.346-.217.222-.14.334-.209c.223-.14.446-.281.664-.429a12.868,12.868,0,0,0,1.317-.966c.236-.208.467-.42.692-.64.185-.183.359-.379.535-.571s.372-.41.555-.617.347-.4.526-.595c.369-.406.727-.825,1.059-1.261.161-.21.323-.419.48-.633s.327-.443.488-.667c.215-.3.423-.6.621-.913.1-.15.2-.3.3-.446.113-.169.217-.344.323-.517.149-.238.294-.478.431-.723s.257-.477.387-.716.247-.467.365-.7.236-.5.345-.756c.055-.128.115-.255.171-.383s.109-.254.164-.382q.164-.377.309-.761c.1-.26.191-.52.276-.783.094-.288.2-.575.269-.869.066-.263.122-.528.177-.792s.119-.545.173-.818a6.945,6.945,0,0,0,.094-.788C383.4,124.456,383.412,124.153,383.407,123.85ZM325.254,150.3l-.009,0a5.649,5.649,0,0,1-.693.13c-.238.028-.484.046-.731.052a4.572,4.572,0,0,1-.966-.14,1.75,1.75,0,0,1-.264-.1c-.084-.039-.166-.084-.228-.118a6.311,6.311,0,0,1-.774-.539c-.108-.089-.215-.187-.31-.273l-.064-.058c-.124-.112-.244-.23-.342-.325l-.15-.149c-.112-.114-.22-.234-.329-.356-.073-.083-.149-.163-.233-.251l-.035-.037-.068-.072c-.2-.212-.428-.465-.639-.735-.095-.122-.183-.248-.281-.389l-.075-.107-.009-.012c-.065-.092-.131-.188-.195-.284-.1-.146-.192-.3-.284-.444l-.007-.011c-.078-.124-.156-.248-.236-.371-.277-.426-.54-.871-.8-1.3l-.009-.015-.064-.109a17.6,17.6,0,0,1-.87-1.7c-.282-.648-.54-1.293-.775-1.895-.22-.561-.385-1.034-.519-1.489-.146-.5-.288-.982-.419-1.466-.08-.316-.151-.64-.217-.945-.083-.383-.151-.7-.211-1.029-.022-.122-.045-.243-.069-.365l0-.019c-.041-.211-.083-.429-.119-.644-.061-.359-.115-.714-.16-1.019-.037-.252-.065-.51-.092-.759v-.007l-.007-.064c-.007-.063-.014-.126-.021-.189-.029-.252-.056-.5-.084-.756l-.028-.25c-.036-.32-.049-.648-.061-.966l0-.053c-.016-.409-.022-.723-.02-1.018,0-.125,0-.25,0-.376l0-.179V129.1c.011-.6.023-1.216.074-1.822.015-.172.031-.35.049-.528l0-.023c.015-.142.03-.3.055-.454l.03-.179c.042-.257.091-.548.143-.831l.027-.144c.06-.329.122-.669.2-1,.024-.1.048-.2.073-.307.059-.25.125-.533.2-.8a3.72,3.72,0,0,1,.268-.723,2.854,2.854,0,0,1,.352-.432,6.915,6.915,0,0,1,.519-.466c.2-.156.4-.3.6-.434.111-.073.224-.144.336-.216l.016-.01.282-.179.1-.065c.168-.11.36-.234.549-.344s.342-.184.493-.254.325-.139.468-.194h0c-.138.156-.264.314-.359.434-.218.275-.415.57-.562.8a8.67,8.67,0,0,0-.5.92l-.031.063c-.13.265-.258.554-.415.937-.125.306-.23.626-.319.9-.1.316-.207.656-.3,1-.082.32-.151.648-.218.967l-.023.107c-.076.361-.132.681-.17.978a16.88,16.88,0,0,0-.13,2.035c0,.431,0,.783.021,1.106l.011.2v.017c.015.279.03.567.049.85.017.258.043.52.065.751.008.077.015.155.023.233.033.357.078.71.113.978q.033.255.068.509c.018.132.043.267.066.4l.008.044.016.09c.058.327.122.658.178.937l.037.186.018.091c.049.246.1.492.147.738.067.327.145.646.22.94s.157.616.247.952c.083.305.172.6.273.933.112.365.208.672.314.982q.083.24.167.481l.146.418c.224.682.457,1.345.655,1.9q.085.238.172.475c.05.137.111.274.17.408l.027.06c.047.108.1.215.154.32l0,0,.011.021.055.112c.075.152.154.3.228.44.305.572.664,1.168,1.1,1.824l0,.006.059.089,0,.007.011.016,0,.006.011.016.018.027.029.044.009.013c.093.138.181.264.268.384.206.283.419.555.631.809a9.392,9.392,0,0,0,.686.723c.161.156.332.3.462.4a4.672,4.672,0,0,0,.379.285c.142.094.252.165.37.236.142.085.3.168.488.257a8.473,8.473,0,0,0,.843.343,6.809,6.809,0,0,0,.948.255l.037.007.035.008.026,0h0C325.541,150.226,325.388,150.266,325.254,150.3Zm6.531-10.784c-.007.393-.016.7-.029.986a14.782,14.782,0,0,1-.221,1.96c-.044.241-.08.426-.117.6-.058.26-.111.474-.167.676-.061.222-.143.442-.222.654l-.013.034c-.027.072-.059.147-.084.208l-.043.1-.049.121c-.029.071-.058.142-.088.213-.067.162-.148.335-.254.547-.24.445-.5.876-.767,1.282-.128.193-.262.377-.411.579s-.284.372-.429.539c-.126.136-.26.27-.408.411a3.953,3.953,0,0,1-.458.365,2.281,2.281,0,0,1-.217.121c-.085.04-.178.078-.282.117-.148.042-.3.079-.453.111a4.387,4.387,0,0,1-.487.065l-.051,0-.1,0h-.054a2.472,2.472,0,0,1-.345-.023c-.112-.017-.226-.039-.325-.058a8.13,8.13,0,0,1-1.577-.558c-.185-.1-.374-.215-.6-.362A5.649,5.649,0,0,1,323,147.8a9.3,9.3,0,0,1-.96-1.019c-.171-.215-.318-.405-.448-.583-.07-.1-.143-.2-.221-.312a.62.62,0,0,0-.04-.063.656.656,0,0,0-.039-.054.578.578,0,0,0-.06-.09c-.165-.255-.325-.506-.481-.762-.183-.3-.353-.6-.5-.86-.17-.3-.32-.611-.46-.9a9.342,9.342,0,0,1-.379-.93l-.089-.246c-.153-.421-.326-.9-.48-1.364-.1-.29-.2-.575-.306-.892l-.017-.049c-.072-.206-.144-.412-.214-.619a33.525,33.525,0,0,1-1-3.816q-.04-.208-.083-.417l-.012-.061q-.056-.273-.109-.547l-.031-.162c-.049-.255-.1-.518-.137-.779-.039-.284-.09-.656-.135-1.023-.037-.3-.067-.614-.091-.867l-.016-.168c-.039-.408-.063-.823-.087-1.225l-.015-.247c-.023-.626-.015-1.273.023-1.979a13.278,13.278,0,0,1,.271-1.98q.037-.176.074-.351c.069-.3.14-.576.218-.846.037-.128.077-.255.122-.4l.017-.054.039-.124c.029-.093.062-.2.1-.3.114-.326.225-.612.336-.871s.226-.508.39-.842c.063-.123.131-.253.207-.379.1-.17.212-.34.334-.52a9.107,9.107,0,0,1,.646-.826c.128-.134.257-.261.394-.388a4.211,4.211,0,0,1,.425-.334,3.888,3.888,0,0,1,.462-.24c.139-.06.292-.117.494-.183a5,5,0,0,1,.531-.136,5.519,5.519,0,0,1,.559-.071h.134a6.551,6.551,0,0,1,1.18.113c.142.035.279.076.419.124a4.491,4.491,0,0,1,.438.183c.154.078.355.183.548.3a5.578,5.578,0,0,1,.595.432c.3.272.562.518.8.752.143.143.281.289.41.434a4.451,4.451,0,0,1,.316.419l.006.008c.122.19.238.388.352.581l.116.2.046.078.048.079c.139.233.283.474.411.719.115.221.222.458.318.668l.1.209c.1.216.25.542.4.878.094.212.169.427.237.626q.084.265.167.533c.077.247.164.527.253.8a10.546,10.546,0,0,1,.274,1.071,7.324,7.324,0,0,1,.107.844l0,.05c0,.038.007.076.011.114a.27.27,0,0,0,.023.086h0c-.092.051-.2.109-.309.163l-.051.026c-.177.088-.36.179-.535.277-.21.119-.423.242-.628.361l-.019.011-.092.053-.333.192-.061.035-.005,0c-.3.169-.6.346-.9.53l-.161.1-.031.019-.019.012c-.087.054-.174.107-.26.163s-.174.116-.255.171h0l-.02.014-.008.005-.015.009-.048.03-.024.015-.007,0c-.061.037-.124.076-.184.116a1.742,1.742,0,0,0-.227.2l-.016.016-.013.013a2.175,2.175,0,0,0-.258.286,3.512,3.512,0,0,0-.235.387,5.01,5.01,0,0,0-.254.5,3.42,3.42,0,0,0-.157.511l0,.012-.015.059a3.352,3.352,0,0,0-.071.383c-.013.111-.019.229-.022.383a3.31,3.31,0,0,0,.021.463,2.418,2.418,0,0,0,.091.387l.007.023a3.255,3.255,0,0,0,.121.367,2.1,2.1,0,0,0,.169.3l.041.066.008.013a2.376,2.376,0,0,0,.192.279,1.848,1.848,0,0,0,.238.232,3.218,3.218,0,0,0,.557.357,1.95,1.95,0,0,0,.213.1,1.925,1.925,0,0,0,.292.084,1.329,1.329,0,0,0,.29.03,1.935,1.935,0,0,0,.264-.019c.079-.011.159-.029.234-.046a2.73,2.73,0,0,0,.371-.106c.073-.029.145-.063.211-.1h0a.413.413,0,0,0,.216-.06,1.062,1.062,0,0,1,.113-.064l.008,0,.069-.037c.057-.034.117-.065.174-.1l.02-.011c.161-.086.3-.16.438-.226l.145-.072.016-.008c.228-.113.464-.229.7-.337.3-.139.618-.278.9-.4l.013-.006c.1-.043.194-.087.291-.131l.045-.021.114-.051h0l.006.025.007.025.01.042c.011.047.023.094.035.141l0,.014c.021.084.042.167.061.251.064.28.117.562.156.776.051.28.094.572.129.868s.049.573.064.833c.006.126.011.252.017.378C331.794,138.881,331.79,139.222,331.785,139.517Zm32.33-9.088-.4-.034c-.2-.019-.393-.043-.583-.067l-.111-.014c-.255-.032-.468-.055-.668-.074l-.318-.029-.094-.009-.283-.026c-.378-.036-.763-.063-1.136-.088h-.007l-.235-.016q-.375-.027-.751-.05l-.09-.006-.487-.031c-.216-.014-.432-.031-.648-.047-.234-.018-.475-.036-.714-.051-.165-.011-.33-.02-.495-.028l-.04,0-.148-.007c-.139-.007-.28-.019-.42-.03l-.233-.018-.235-.017c-.364-.027-.739-.055-1.109-.06l-.664-.008h-.113l-.677-.008h-1.942c-.723,0-1.432,0-2.15.049-.8.05-1.61.127-2.393.2h-.008l-.371.035c-.226.021-.457.046-.687.074l-.175.021c-.165.02-.353.042-.534.07l-.336.055c-.107.018-.214.036-.322.052l-.278.043-.359.055-.056.008-.28.042-.044.006-.349.052c-.187.03-.376.065-.559.1l-.011,0-.132.024c-.235.043-.439.085-.624.13-.115.028-.232.059-.344.088l-.018,0-.261.068-.279.068-.039.009-.31.077-.328.089-.306.083c-.373.1-.863.227-1.343.365-.2.056-.4.111-.585.163l-.012,0c-.213.059-.434.119-.649.182-.434.127-.864.27-1.19.381-.879.3-1.729.632-2.371.887l-.052.02c-.124.049-.253.1-.383.143-.151.051-.312.107-.477.17-.194.075-.387.153-.533.212-.082.033-.162.068-.243.1l-.171.073-.168.063-.043.016c-.095.035-.19.07-.283.107-.219.086-.44.181-.637.265l-.266.118-.025.012-.255.113-.526.228c-.338.147-.686.31-1.035.483l-.112.056c-.093.046-.187.092-.28.14h0l-.061.007c-.039.007-.081.016-.117.025l-.012,0-.038.009-.145.032h-.007l-.148.032c-.032.007-.064.013-.1.019l-.016,0-.069.013a1.339,1.339,0,0,1-.158.026,1.316,1.316,0,0,1-.165-.019l-.092-.013c-.038-.005-.075-.01-.112-.017a.649.649,0,0,1-.307-.159,2.071,2.071,0,0,1-.145-.157,1.7,1.7,0,0,1-.116-.169,1.789,1.789,0,0,1-.122-.28l-.035-.094,0-.007c-.03-.079-.061-.161-.086-.242a3.347,3.347,0,0,1-.107-.728,1.984,1.984,0,0,1,.009-.254,2.8,2.8,0,0,1,.056-.312,2.575,2.575,0,0,1,.208-.509,1.826,1.826,0,0,1,.191-.272c.023-.02.047-.04.072-.059l.006,0c.025-.02.049-.039.073-.06l.112-.1.025-.021c.046-.039.092-.078.137-.117s.11-.093.166-.138l.011-.009.129-.107c.082-.07.173-.135.253-.193l.011-.008c.045-.033.091-.065.136-.1h0l.007-.006c.173-.1.348-.2.526-.308l.071-.041.348-.2c.385-.228.733-.431,1.1-.624l.229-.118c.106-.055.24-.123.364-.191.169-.092.369-.2.571-.3.218-.105.445-.2.668-.295l.249-.105.7-.3.217-.092c.247-.105.5-.216.739-.323l.022-.01c.341-.151.693-.307,1.044-.451.335-.128.681-.267.986-.389l.07-.028c.213-.082.429-.159.67-.243.188-.066.411-.143.638-.209.2-.06.413-.116.615-.169l.007,0,.015,0c.222-.059.452-.12.676-.188l.533-.163.015,0c.272-.084.554-.17.832-.251.3-.088.613-.167.913-.244l.019-.005c.159-.04.318-.081.477-.123l.124-.033.031-.008c.43-.113.874-.231,1.313-.338.384-.093.774-.178,1.152-.26l.314-.068.556-.124c.736-.165,1.5-.335,2.256-.447l.774-.112c.252-.03.473-.054.676-.073l.471-.042h.015l.246-.021.305-.026.171-.015.251-.022.156-.014c.162-.015.347-.032.525-.04l.4-.02c.32-.017.684-.036,1.033-.04.245,0,.463,0,.666,0,.3,0,.58,0,.853.008.414.009.835.027,1.241.045h.024l.174.008c.308.013.628.035.912.053q.287.019.574.037l.232.013c.407.023.828.046,1.241.088l.246.026c.152.016.31.033.465.046l.782.062c.3.024.612.051.929.08.335.032.669.072.982.11l.427.06c.747.106,1.6.227,2.4.359.4.066.815.15,1.181.223l.238.047c.44.088.9.186,1.4.3.26.059.521.112.774.165.2.041.4.082.6.125l.072.016h.006c.2.044.409.089.612.141.235.061.461.126.712.2.1.027.19.053.286.079l.026.007c.105.029.213.058.319.089.16.047.32.1.48.144l.045.014.2.06c.212.064.412.142.632.228l.571.226a1.274,1.274,0,0,1,.076.145,3.256,3.256,0,0,1,.094.324,2.445,2.445,0,0,1,.046,1.021c0,.014-.005.028-.008.043-.022.13-.041.26-.061.389a3.524,3.524,0,0,1-.219.745c-.068.144-.139.281-.212.405a2.746,2.746,0,0,1-.211.306,1.992,1.992,0,0,1-.282.277,1.112,1.112,0,0,1-.132.083c-.033.009-.068.018-.107.025h0a4.7,4.7,0,0,0-.534-.141c-.161-.031-.327-.056-.487-.08l-.119-.018-.228-.034h0l-.017,0h0c-.346-.05-.695-.095-1.034-.138l-.03,0-.142-.019c-.42-.053-.849-.1-1.264-.14l-.125-.013c-.438-.045-.88-.084-1.316-.114-.413-.029-.865-.065-1.422-.113Zm1.6,9.735c-.055-.075-.107-.152-.158-.237a3.672,3.672,0,0,1-.183-.413c-.05-.135-.088-.275-.125-.413l0-.005a6.6,6.6,0,0,1-.126-.726c-.032-.282-.058-.54-.079-.79-.046-.548-.072-1.092-.077-1.618,0-.015,0-.031,0-.046.011-.261.025-.5.043-.713.02-.242.053-.486.084-.721l.007-.054c.034-.253.084-.51.127-.728l.016-.081c.018-.095.038-.193.062-.289q.044-.173.091-.346c.046-.17.091-.349.126-.494l0-.01c.057-.232.117-.471.186-.7l0-.007.009-.028q.016-.047.034-.093a1.517,1.517,0,0,0,.077-.246l0-.012c.232.015.495.031.747.052.426.036.866.077,1.344.126.642.066,1.258.144,1.776.211l.116.016.1.014h0l0,0h0c.061.025.125.048.191.071.2.066.412.135.627.187.074.018.16.038.245.052a1.224,1.224,0,0,0,.2.013c.048,0,.1,0,.143,0a1.941,1.941,0,0,0,.423-.072l.044-.011a1.56,1.56,0,0,0,.252-.077,2.14,2.14,0,0,0,.24-.13,2.108,2.108,0,0,0,.383-.322,2.236,2.236,0,0,0,.3-.362l.015-.023a3.371,3.371,0,0,0,.3-.523,5.109,5.109,0,0,0,.246-.781c.034-.142.059-.259.079-.369l.008-.046a2.287,2.287,0,0,0,.041-.289,3.064,3.064,0,0,0,0-.409c0-.07-.013-.142-.02-.205l-.007-.062a1.959,1.959,0,0,0-.176-.686,1.914,1.914,0,0,0-.342-.487,3.78,3.78,0,0,0-.411-.373,3.371,3.371,0,0,0-.457-.282,2.922,2.922,0,0,0-.631-.237l-.107-.026-.077-.02-.044-.013c-.054-.016-.109-.033-.165-.047l-.039-.01-.059-.014-.1-.033-.01,0-.024-.008a.4.4,0,0,0-.133-.025h-.027c-.127-.039-.284-.087-.438-.131l-.1-.028-.13-.036c-.172-.048-.344-.1-.517-.145-.21-.06-.436-.123-.692-.19-.159-.042-.322-.076-.479-.109l-.193-.041-.123-.026-.073-.016-.014,0h0c.05-.12.1-.237.155-.352.1-.2.209-.4.34-.621l.032-.052.129-.2.035-.056h0l0,0,0-.005.163-.254c.094-.147.188-.294.284-.439.148-.226.321-.45.474-.648l.008-.01c.125-.161.262-.327.373-.461l.152-.185c.145-.177.3-.351.439-.5l.108-.121.046-.052.008-.008c.264-.3.538-.6.819-.895.3-.31.6-.609.889-.889.161-.149.314-.287.468-.422l.143-.126c.13-.115.265-.234.4-.344.167-.13.34-.258.507-.381l.006,0,.052-.038a5.321,5.321,0,0,1,.545-.355,5.092,5.092,0,0,1,.508-.243,5.146,5.146,0,0,1,.553-.184,4.243,4.243,0,0,1,.6-.1c.232-.016.462-.02.655-.02a3.678,3.678,0,0,1,.82.132c.156.059.312.126.466.194l.019.009a4.162,4.162,0,0,1,.43.216c.058.037.107.067.155.1s.113.09.175.142l.032.027c.105.089.212.189.339.315a3.038,3.038,0,0,1,.355.476,4.256,4.256,0,0,1,.26.665c.068.227.139.469.2.708a6.338,6.338,0,0,1,.146,1c.02.351.017.706.015,1.02a9.427,9.427,0,0,1-.168,1.52c-.05.248-.108.508-.182.819-.028.116-.053.234-.08.35v.008l0,.01c-.032.146-.066.3-.1.444-.045.183-.1.363-.142.528-.173.555-.335,1.012-.509,1.437-.228.556-.434,1.057-.665,1.56-.174.381-.363.762-.546,1.131l-.008.015-.17.343c-.24.487-.5.972-.77,1.467-.166.3-.34.607-.518.9-.144.225-.29.447-.435.659-.168.245-.347.489-.491.685-.333.453-.674.894-1.013,1.313l-.095.117c-.137.17-.279.346-.425.513-.057.065-.114.131-.17.2l-.007.007c-.116.137-.236.277-.361.41-.111.117-.226.235-.336.35l-.028.029-.23.237c-.205.214-.4.408-.594.593l-.161.153-.079.075q-.16.149-.318.3c-.362.337-.737.657-1.113.953a10.58,10.58,0,0,1-1.256.843c-.222.116-.461.227-.73.337a6.115,6.115,0,0,1-.767.257,3.824,3.824,0,0,1-.74.085,1.324,1.324,0,0,1-.212-.036,1.7,1.7,0,0,1-.174-.066c-.068-.031-.133-.068-.189-.1a4.507,4.507,0,0,1-.7-.556C365.837,140.31,365.773,140.239,365.715,140.163Zm16.823-15.311a7.5,7.5,0,0,1-.13.8c-.039.189-.082.382-.123.564l-.048.218c-.052.234-.115.508-.191.777-.187.572-.364,1.067-.541,1.515-.064.163-.134.324-.212.5-.036.082-.072.163-.107.246-.069.163-.144.328-.215.489l-.119.266c-.157.354-.346.733-.578,1.158l-.093.172-.047.086c-.157.29-.334.618-.518.925l-.067.107c-.065.1-.129.205-.2.312l-.006.009,0,.007-.007.011-.034.054-.043.067-.009.015.009-.015c-.046.071-.094.142-.142.212l-.028.041c-.072.106-.143.216-.212.323l0,.007-.026.041c-.138.215-.291.438-.467.683-.354.492-.654.9-.969,1.307l-.041.052-.01.013c-.152.195-.308.4-.469.588-.147.176-.311.364-.532.61l-.132.145-.02.022-.027.03-.085.093-.128.144-.019.022-.121.138c-.169.19-.362.405-.554.612l-.127.137c-.209.226-.425.459-.651.677-.185.17-.386.351-.6.528-.2.162-.41.31-.615.453l-.062.043c-.447.312-.91.6-1.344.861l-.155.1c-.109.068-.223.138-.337.2s-.185.093-.267.127-.182.071-.271.1l-.014,0-.058.022c-.131.049-.264.088-.4.126-.115.033-.229.065-.342.094a3.485,3.485,0,0,1-.473.076c-.124.01-.252.015-.388.015H369.1c-.083,0-.166-.013-.252-.027l-.056-.009h0l.026-.01c.115-.044.234-.1.33-.137l.037-.016.059-.025.009,0c.106-.046.214-.092.318-.145.159-.082.32-.17.48-.261.2-.117.418-.254.671-.43l.068-.048c.088-.061.178-.124.263-.19.127-.1.241-.192.348-.281l.063-.052c.2-.164.4-.333.6-.511.153-.139.3-.285.451-.425l.008-.007.2-.2c.242-.229.426-.408.6-.578.113-.113.225-.23.334-.344q.11-.116.221-.23l.032-.033c.178-.183.363-.372.534-.573l.175-.2c.119-.137.242-.28.358-.423.183-.225.362-.447.531-.659.367-.461.72-.941,1.017-1.35.344-.473.67-.971.969-1.477.23-.391.448-.8.658-1.189l0-.006.144-.268c.094-.175.184-.355.272-.53l.009-.019.079-.16.116-.23.013-.026c.086-.173.173-.346.259-.519.218-.443.437-.929.693-1.529.246-.579.444-1.093.608-1.571a14.5,14.5,0,0,0,.458-1.624c.034-.159.071-.32.107-.475l0-.009c.086-.373.175-.76.232-1.145.047-.312.076-.572.091-.817.018-.291.025-.6.022-.94,0-.318-.011-.581-.027-.828-.007-.117-.024-.234-.041-.35l-.008-.05c-.018-.124-.042-.254-.073-.388-.061-.265-.136-.539-.241-.889a4.8,4.8,0,0,0-.285-.763,3.013,3.013,0,0,0-.261-.436c-.007-.009-.014-.019-.021-.029l0-.006h0v0h0a3.931,3.931,0,0,1,.35.24,3.239,3.239,0,0,1,.3.282c.1.107.181.2.251.284l.015.019c.08.1.162.2.233.306.155.235.293.476.42.7a6.377,6.377,0,0,1,.524,1.317,5.041,5.041,0,0,1,.1.607c0,.049.01.1.015.148.017.171.038.365.046.554,0,.108.007.216.01.325v.033c0,.1.005.2.01.306.009.2.013.412.013.653S382.563,124.593,382.538,124.852Z" transform="translate(-312.87 -106.221)"/></g><path class="c" d="M326.6,121.557h-.134a5.508,5.508,0,0,0-.561.072,4.986,4.986,0,0,0-.532.137c-.2.067-.355.125-.495.185a3.88,3.88,0,0,0-.463.243,4.181,4.181,0,0,0-.426.339c-.138.128-.267.257-.395.393a9.082,9.082,0,0,0-.647.836c-.123.182-.232.355-.335.527-.076.128-.145.261-.208.384-.164.339-.284.6-.39.853s-.221.552-.337.882c-.035.1-.068.209-.1.3l-.039.126-.018.055c-.045.143-.085.272-.122.4-.078.274-.149.554-.217.857-.025.118-.05.237-.075.355a13.577,13.577,0,0,0-.271,2.005c-.039.714-.046,1.37-.023,2l.015.25c.023.407.047.827.087,1.24l.016.17c.024.256.054.575.091.878.045.371.1.749.135,1.036.037.265.087.531.137.789l.031.164q.053.277.109.554l.012.062c.028.141.056.282.083.422a34.2,34.2,0,0,0,1,3.863c.07.209.142.418.214.627l.017.049c.111.32.211.609.307.9.154.472.328.955.481,1.382l.089.249a9.518,9.518,0,0,0,.379.942c.14.29.291.6.461.908.145.263.314.569.5.87.157.259.318.513.483.772a.525.525,0,0,1,.06.091.508.508,0,0,1,.039.055.557.557,0,0,1,.041.064c.079.115.151.219.221.316.13.18.277.373.449.591a9.372,9.372,0,0,0,.962,1.032,5.667,5.667,0,0,0,.532.416c.222.149.412.265.6.366a8.092,8.092,0,0,0,1.58.565c.1.019.213.041.325.058a2.4,2.4,0,0,0,.347.023h.054l.1,0,.051,0a4.365,4.365,0,0,0,.488-.066c.153-.032.306-.07.454-.112.1-.039.2-.077.283-.118a2.277,2.277,0,0,0,.218-.122,3.97,3.97,0,0,0,.459-.369c.149-.142.283-.278.409-.416.146-.17.286-.348.43-.546s.284-.391.412-.586c.27-.411.529-.847.769-1.3.106-.214.187-.39.255-.554l.088-.216.049-.122c.014-.034.028-.069.043-.1.026-.062.058-.137.085-.21l.013-.035c.079-.215.162-.437.223-.663.056-.2.109-.421.168-.684.037-.177.073-.364.117-.608A15.112,15.112,0,0,0,336,143.4c.013-.292.022-.6.029-1,0-.3.009-.644,0-.977-.006-.127-.012-.255-.017-.383-.015-.263-.031-.558-.064-.843s-.079-.6-.129-.879c-.039-.217-.092-.5-.156-.786-.019-.086-.04-.17-.062-.254l0-.015c-.012-.047-.024-.094-.035-.142l-.01-.042-.007-.025-.006-.025-.117.053-.046.021c-.1.045-.194.089-.292.133l-.013.006c-.28.124-.6.264-.9.405-.236.109-.472.227-.7.341l-.016.008-.145.072c-.134.067-.277.142-.439.229l-.02.011c-.058.031-.117.063-.175.1l-.07.038-.008,0a1.106,1.106,0,0,0-.112.064.412.412,0,0,1-.219.061c-.067.033-.138.068-.212.1a2.725,2.725,0,0,1-.371.108c-.075.017-.156.036-.235.047a1.918,1.918,0,0,1-.264.019,1.347,1.347,0,0,1-.291-.03,1.979,1.979,0,0,1-.293-.085,1.951,1.951,0,0,1-.213-.1,3.22,3.22,0,0,1-.559-.361,1.86,1.86,0,0,1-.238-.235,2.413,2.413,0,0,1-.192-.282l-.008-.014-.041-.066a2.134,2.134,0,0,1-.17-.307,3.32,3.32,0,0,1-.121-.372l-.007-.023a2.525,2.525,0,0,1-.091-.392,3.462,3.462,0,0,1-.021-.468,3.787,3.787,0,0,1,.022-.387,3.3,3.3,0,0,1,.072-.387l.014-.06,0-.012a3.472,3.472,0,0,1,.157-.517,5.094,5.094,0,0,1,.255-.509,3.61,3.61,0,0,1,.236-.392,2.2,2.2,0,0,1,.258-.289l.013-.013.016-.016a1.689,1.689,0,0,1,.228-.2c.06-.041.123-.08.184-.118l.008,0,.024-.015.049-.03.015-.009.008-.005.021-.015c.081-.056.169-.116.256-.174s.173-.11.26-.165l.019-.012.032-.019.162-.1c.295-.187.6-.365.9-.537l.005,0,.061-.035.334-.194.092-.054.018-.011c.206-.12.419-.245.63-.365.175-.1.359-.192.536-.281l.051-.026c.109-.055.217-.114.31-.165a.3.3,0,0,1-.024-.088l-.01-.115,0-.05a7.486,7.486,0,0,0-.107-.854,10.8,10.8,0,0,0-.274-1.085c-.089-.275-.176-.559-.253-.808-.056-.182-.111-.361-.168-.54-.068-.2-.143-.42-.237-.635-.149-.34-.3-.67-.4-.889-.032-.07-.064-.141-.1-.211-.1-.212-.2-.452-.318-.676-.127-.248-.272-.492-.411-.728l-.047-.08-.047-.079-.116-.2c-.114-.2-.23-.4-.353-.589l-.006-.009a4.558,4.558,0,0,0-.316-.424c-.129-.146-.267-.294-.41-.44-.234-.237-.5-.486-.8-.761a5.664,5.664,0,0,0-.6-.438c-.193-.122-.395-.229-.549-.308a4.478,4.478,0,0,0-.439-.185c-.141-.049-.278-.09-.42-.126a6.5,6.5,0,0,0-1.183-.114Z" transform="translate(-317.069 -109.257)"/><path class="c" d="M435.931,118.438h0c-.195,0-.425,0-.657.02a4.353,4.353,0,0,0-.6.1,4.685,4.685,0,0,0-1.063.424,5.529,5.529,0,0,0-.545.353l-.052.038-.006,0c-.168.122-.341.249-.508.379-.139.109-.274.227-.4.342l-.143.125c-.155.134-.308.271-.469.42-.291.278-.591.576-.891.884-.282.289-.556.595-.821.89l-.007.008-.046.051-.109.121c-.138.152-.294.325-.44.5l-.152.184c-.111.132-.248.3-.373.458l-.008.01c-.153.2-.327.42-.475.644-.1.145-.191.291-.285.437l-.164.252,0,.005,0,0,0,0c-.055.084-.11.171-.166.259l-.032.052c-.132.215-.243.417-.34.617-.056.114-.105.231-.155.35l.088.019.123.027.193.041c.158.033.321.067.481.109.255.066.482.128.693.188.173.049.345.1.518.145l.13.036.1.028c.154.042.312.091.439.129h.027a.405.405,0,0,1,.133.025l.024.008.01,0,.1.033.059.014.04.01c.055.014.111.03.165.047l.044.013.077.019.107.027a2.932,2.932,0,0,1,.632.235,3.382,3.382,0,0,1,.458.28,3.817,3.817,0,0,1,.412.371,1.81,1.81,0,0,1,.519,1.166l.007.062c.008.063.016.134.02.2a3.018,3.018,0,0,1,0,.407,2.347,2.347,0,0,1-.04.287l-.008.046c-.02.109-.045.226-.079.367a5.052,5.052,0,0,1-.246.777,3.344,3.344,0,0,1-.3.52l-.016.023a2.2,2.2,0,0,1-.3.36,2.129,2.129,0,0,1-.384.32,2.038,2.038,0,0,1-.24.128,1.574,1.574,0,0,1-.253.077l-.044.011a1.959,1.959,0,0,1-.424.072c-.047,0-.1,0-.143,0a1.238,1.238,0,0,1-.2-.013c-.085-.013-.171-.034-.245-.052-.215-.051-.428-.12-.628-.187-.068-.023-.134-.047-.2-.072l-.109-.015-.117-.016c-.519-.066-1.137-.144-1.78-.21-.479-.049-.919-.09-1.347-.125-.253-.021-.517-.037-.749-.052l0,.012a1.5,1.5,0,0,1-.078.245q-.018.046-.034.093l-.009.028,0,.007c-.07.231-.129.469-.187.7l0,.011c-.036.144-.081.322-.127.491-.031.114-.062.229-.091.344-.024.1-.044.193-.063.288l-.016.08c-.044.217-.093.472-.127.723l-.007.054c-.032.234-.064.476-.085.717-.018.217-.032.449-.043.709v.046c0,.523.031,1.064.077,1.608.022.249.047.506.079.786a6.515,6.515,0,0,0,.126.722v.005c.038.137.076.277.126.41a3.7,3.7,0,0,0,.184.411c.051.084.1.162.158.236a2.715,2.715,0,0,0,.184.211,4.537,4.537,0,0,0,.7.553c.056.031.122.068.19.1a1.613,1.613,0,0,0,.174.066,1.381,1.381,0,0,0,.213.036,3.866,3.866,0,0,0,.742-.084,6.2,6.2,0,0,0,.768-.256c.27-.11.509-.22.732-.335a10.612,10.612,0,0,0,1.258-.838c.377-.294.752-.613,1.115-.947q.158-.15.318-.3l.079-.075.162-.152c.195-.184.389-.377.595-.59l.23-.236.028-.029c.111-.114.226-.231.337-.348s.245-.272.362-.408l.007-.008c.056-.066.113-.132.17-.2.146-.167.288-.341.426-.51l.095-.116c.34-.416.681-.855,1.014-1.306.145-.195.325-.437.493-.68.145-.211.292-.431.436-.655.178-.292.353-.594.519-.9.269-.492.532-.974.772-1.458l.171-.341.007-.015c.184-.367.373-.746.548-1.124.231-.5.438-1,.666-1.551.175-.423.337-.877.51-1.429.047-.165.1-.343.142-.526.037-.146.07-.3.1-.441l0-.01v-.008c.026-.116.052-.232.08-.348.074-.309.132-.567.182-.813a9.3,9.3,0,0,0,.168-1.512c0-.312.006-.665-.015-1.014a6.182,6.182,0,0,0-.146-.99c-.064-.238-.135-.479-.2-.7a4.214,4.214,0,0,0-.261-.661,3,3,0,0,0-.356-.473c-.127-.126-.234-.225-.34-.313L438,119.23c-.062-.052-.117-.1-.175-.141s-.1-.066-.156-.1a4.192,4.192,0,0,0-.431-.216l-.019-.008c-.155-.067-.311-.135-.467-.193a3.741,3.741,0,0,0-.821-.132Z" transform="translate(-371.846 -107.168)"/><path class="d" d="M319.679,123.2h0c-.143.055-.309.121-.469.2s-.313.155-.494.257-.381.237-.551.348l-.1.065-.282.182-.016.01c-.112.072-.225.144-.337.218-.2.134-.4.282-.6.44a6.858,6.858,0,0,0-.521.472,2.883,2.883,0,0,0-.353.438,3.826,3.826,0,0,0-.269.732c-.071.274-.138.561-.2.814-.025.106-.048.208-.073.31-.079.334-.141.679-.2,1.011l-.027.146c-.052.287-.1.581-.143.841l-.03.181c-.025.153-.041.316-.055.459l0,.023c-.018.181-.034.361-.049.535-.051.614-.063,1.24-.074,1.845v.008l0,.181q0,.19,0,.38c0,.3,0,.618.02,1.032l0,.054c.012.322.025.654.061.978l.028.253c.028.255.056.51.085.765.007.064.014.128.021.192l.007.064v.007c.027.253.055.513.092.769.046.309.1.669.16,1.032.037.218.078.439.119.652l0,.019c.023.123.047.246.069.369.06.332.129.655.212,1.042.066.309.137.637.217.957.132.49.274.982.42,1.484.134.461.3.941.52,1.508.237.609.494,1.263.777,1.919a17.9,17.9,0,0,0,.872,1.724l.064.11.009.015c.255.436.52.886.8,1.318.08.124.158.25.236.375l.007.011c.092.148.188.3.284.45.063.1.13.194.2.287l.009.013.075.108c.1.142.186.27.281.394.212.273.442.529.641.744l.068.073.035.037c.084.09.159.171.233.254.11.125.218.246.33.361l.15.15c.1.1.218.216.342.329l.064.058c.1.087.2.187.311.276a6.349,6.349,0,0,0,.775.545c.062.035.144.08.228.119a1.748,1.748,0,0,0,.265.1,4.572,4.572,0,0,0,.968.142c.249-.007.5-.025.734-.053a5.613,5.613,0,0,0,.694-.132l.009,0c.135-.035.288-.076.438-.119l-.062-.014-.036-.007a6.691,6.691,0,0,1-.95-.259,8.327,8.327,0,0,1-.845-.347c-.187-.09-.347-.174-.489-.26-.118-.071-.229-.144-.371-.239a4.618,4.618,0,0,1-.38-.288c-.131-.108-.3-.252-.463-.41a9.476,9.476,0,0,1-.688-.732c-.213-.257-.426-.533-.632-.82-.087-.121-.175-.248-.268-.388l-.009-.013-.029-.044-.018-.028-.011-.017,0-.006-.011-.016,0-.007-.059-.091,0-.005c-.433-.664-.792-1.268-1.1-1.847-.074-.141-.153-.292-.229-.446l-.056-.113-.011-.022,0-.005c-.053-.1-.107-.214-.154-.323l-.027-.061c-.059-.136-.12-.274-.17-.412q-.087-.24-.172-.481c-.2-.566-.433-1.238-.657-1.928q-.073-.212-.146-.424c-.056-.162-.112-.324-.168-.487-.107-.314-.2-.624-.315-.995-.1-.334-.191-.636-.274-.945-.09-.34-.176-.678-.248-.964s-.154-.621-.221-.952c-.05-.249-.1-.5-.148-.747l-.018-.092-.037-.188c-.055-.283-.12-.616-.178-.948l-.016-.091-.008-.045c-.024-.132-.049-.268-.067-.4-.023-.172-.046-.344-.068-.516-.035-.271-.08-.629-.113-.99l-.023-.236c-.023-.235-.048-.5-.065-.761-.019-.287-.034-.578-.049-.861v-.017l-.011-.206c-.017-.327-.024-.683-.021-1.12a17.262,17.262,0,0,1,.131-2.061c.039-.3.094-.624.171-.99l.023-.108c.067-.323.136-.656.219-.979.089-.351.2-.7.3-1.015.089-.28.195-.605.32-.915.157-.388.285-.68.416-.949l.031-.064a8.8,8.8,0,0,1,.5-.932c.147-.229.344-.528.563-.806.095-.122.221-.281.36-.44v0Z" transform="translate(-313.906 -110.127)"/><path class="d" d="M443.59,120.3h0c.008.013.016.024.025.036a3.061,3.061,0,0,1,.261.442,4.9,4.9,0,0,1,.286.773c.106.355.18.632.242.9.031.135.055.268.073.393l.008.05c.017.118.034.237.041.355.016.25.024.517.027.838,0,.346,0,.657-.022.952-.015.248-.044.511-.091.827-.058.39-.147.782-.233,1.16l0,.008c-.036.158-.073.321-.107.481a14.8,14.8,0,0,1-.459,1.644c-.164.484-.363,1-.609,1.59-.256.608-.476,1.1-.694,1.548-.086.176-.173.351-.26.526l-.013.025-.116.233-.079.162-.009.019c-.087.177-.178.36-.272.537l-.144.271,0,.007c-.211.4-.429.808-.66,1.2-.3.513-.627,1.017-.971,1.5-.3.414-.651.9-1.019,1.367-.169.215-.348.44-.532.668-.117.145-.24.289-.359.428l-.175.205c-.171.2-.356.394-.535.58l-.032.033q-.112.116-.222.233c-.109.115-.221.234-.334.348-.171.173-.355.353-.6.585l-.2.2-.008.008c-.147.143-.3.29-.452.431-.2.18-.4.352-.6.518l-.063.053c-.108.09-.221.182-.349.284-.085.068-.175.131-.263.193l-.069.048c-.254.179-.468.317-.672.436-.161.093-.323.182-.482.265-.1.054-.213.1-.318.147l-.009,0-.059.025-.037.016c-.1.042-.216.094-.331.139l-.026.01a2.461,2.461,0,0,0,.309.037h.069c.137,0,.264-.005.389-.016a3.359,3.359,0,0,0,.473-.076c.114-.029.228-.062.344-.095.136-.039.268-.079.4-.128l.058-.022.014,0c.089-.034.182-.069.271-.106s.168-.076.268-.129.228-.136.338-.205l.156-.1c.435-.267.9-.557,1.347-.872l.063-.044c.206-.145.419-.295.616-.458.216-.179.418-.363.6-.534.226-.221.442-.457.652-.686l.127-.138c.192-.209.385-.427.555-.62l.121-.14.019-.023c.042-.049.085-.1.128-.146l.085-.094.027-.03.02-.022.132-.147c.221-.25.386-.44.533-.618.161-.195.318-.4.47-.6l.01-.013.041-.053c.316-.41.617-.825.971-1.323.176-.248.33-.474.468-.692l.026-.042.005-.008c.069-.108.139-.219.212-.327l.028-.041c.063-.094.126-.189.185-.284l.034-.055.007-.01,0-.007.006-.009c.066-.108.131-.212.2-.316l.067-.108c.185-.311.363-.643.52-.936l.047-.087.094-.174c.232-.43.422-.813.579-1.172q.059-.135.119-.269c.072-.162.146-.33.216-.5.036-.084.071-.166.108-.249.079-.181.149-.343.214-.509.177-.453.354-.955.541-1.534.077-.273.14-.551.191-.787l.048-.22c.041-.185.084-.381.123-.571a7.52,7.52,0,0,0,.129-.809c.026-.263.043-.5.052-.739s0-.461-.012-.662c0-.1-.008-.208-.01-.309v-.034c0-.11-.005-.219-.01-.329-.008-.191-.029-.388-.046-.561-.005-.05-.01-.1-.015-.15a5.162,5.162,0,0,0-.1-.615,6.5,6.5,0,0,0-.525-1.334c-.127-.229-.265-.474-.421-.712a3.781,3.781,0,0,0-.233-.31l-.015-.019c-.071-.088-.151-.179-.253-.287a3.2,3.2,0,0,0-.3-.286,3.929,3.929,0,0,0-.349-.243Z" transform="translate(-376.166 -108.396)"/><path class="d" d="M367.586,133.44c-.2,0-.422,0-.668,0-.35,0-.714.023-1.035.04l-.4.02c-.178.008-.363.025-.526.041l-.157.014-.252.023-.171.016-.306.027-.247.022h-.015l-.472.042c-.2.019-.425.044-.678.074l-.775.114c-.761.114-1.524.286-2.261.453l-.557.125-.315.07c-.379.083-.77.169-1.155.263-.44.108-.885.227-1.316.342l-.032.008-.125.033c-.159.043-.318.084-.478.125l-.019.005c-.3.078-.611.158-.915.247-.279.082-.561.169-.834.254l-.015,0-.534.165c-.224.069-.455.13-.678.19l-.016,0-.007,0c-.2.054-.412.11-.616.171-.228.068-.451.145-.64.212-.242.086-.459.163-.672.246l-.071.029c-.306.124-.652.265-.988.394-.352.146-.705.3-1.047.457l-.022.009c-.242.109-.493.221-.741.328l-.218.094-.7.3-.25.107c-.224.095-.451.192-.67.3-.2.1-.4.209-.572.3-.125.069-.258.138-.364.193l-.229.12c-.366.195-.715.4-1.1.632l-.349.206-.071.041c-.179.1-.354.208-.528.312-.047.037-.1.072-.145.107l-.011.008c-.08.058-.172.124-.253.2-.042.037-.086.073-.13.109l-.01.009c-.056.046-.113.092-.166.14l-.137.119-.025.022-.112.1c-.023.021-.048.041-.073.061l-.006,0c-.024.019-.049.039-.072.06a1.867,1.867,0,0,0-.191.275,2.62,2.62,0,0,0-.209.515,2.874,2.874,0,0,0-.056.316,2.046,2.046,0,0,0-.009.257,3.422,3.422,0,0,0,.107.737c.025.082.056.165.086.245l0,.007.035.1a1.861,1.861,0,0,0,.122.284,1.674,1.674,0,0,0,.117.171,2.1,2.1,0,0,0,.145.16.648.648,0,0,0,.307.161c.037.007.075.012.112.017l.092.013a1.32,1.32,0,0,0,.166.019,1.418,1.418,0,0,0,.158-.026l.069-.014.016,0c.035-.006.067-.012.1-.02l.149-.032h.007l.145-.032.039-.009.012,0c.036-.009.077-.019.117-.025l.063-.008c.095-.049.189-.1.283-.143l.112-.056c.349-.175.7-.34,1.037-.489l.527-.231.256-.115.025-.012c.089-.04.177-.08.267-.119.2-.086.419-.181.639-.268.094-.037.189-.073.284-.108l.043-.016.169-.064.172-.074c.081-.035.162-.071.244-.1.146-.06.339-.139.534-.214.165-.064.327-.121.478-.173.131-.045.26-.1.384-.145l.052-.02c.643-.26,1.495-.6,2.376-.9.327-.112.758-.258,1.193-.386.216-.063.437-.125.651-.184l.012,0c.189-.053.391-.109.586-.166.482-.14.973-.271,1.347-.369.1-.027.2-.055.306-.084s.219-.061.33-.089.207-.052.311-.078l.039-.01.28-.069.261-.068.019-.005c.113-.03.23-.061.345-.089.185-.045.389-.087.625-.131l.133-.024.011,0c.184-.034.373-.069.56-.1l.349-.053.044-.006.281-.042.055-.009.36-.056.278-.043c.108-.017.216-.035.323-.054s.225-.038.337-.055c.182-.028.37-.051.535-.071l.175-.022c.23-.029.462-.054.688-.076l.372-.035h.008c.785-.075,1.6-.153,2.4-.2.719-.046,1.429-.049,2.155-.049h1.739l.208,0,.678.008h.113l.665.008c.371.005.747.033,1.111.061l.236.018.233.018c.141.011.283.023.422.031l.148.008.04,0c.165.009.331.017.5.028.24.016.482.034.716.052.216.016.432.033.649.048l.489.032.09.006q.377.024.753.05l.235.016h.008c.373.026.759.052,1.138.089l.284.026.095.009.318.029c.2.019.414.043.67.075l.111.014c.191.024.388.049.584.068.134.013.268.024.4.035l.285.024c.558.049,1.011.085,1.425.115.436.031.88.069,1.319.115l.125.013c.417.043.846.087,1.267.142l.143.019.03,0c.422.055.859.111,1.287.178l.119.018c.16.024.326.05.488.082a4.622,4.622,0,0,1,.537.143,1.072,1.072,0,0,0,.107-.025,1.109,1.109,0,0,0,.133-.084,2.006,2.006,0,0,0,.282-.28,2.808,2.808,0,0,0,.212-.31c.072-.126.144-.265.212-.411a3.593,3.593,0,0,0,.22-.755c.02-.131.04-.262.061-.394l.007-.043a3.079,3.079,0,0,0,.017-.7,3.129,3.129,0,0,0-.063-.338c-.026-.105-.055-.218-.094-.328a1.48,1.48,0,0,0-.077-.147l-.572-.229c-.221-.088-.421-.166-.634-.231l-.2-.061-.045-.014c-.16-.049-.321-.1-.482-.146-.106-.032-.214-.062-.319-.09l-.027-.008c-.1-.026-.191-.052-.287-.08-.252-.073-.479-.139-.713-.2-.2-.053-.411-.1-.613-.143h-.006l-.072-.016c-.2-.044-.4-.086-.6-.127-.253-.053-.515-.108-.776-.167-.5-.114-.963-.213-1.4-.3l-.239-.048c-.367-.074-.783-.159-1.184-.226-.812-.134-1.661-.256-2.41-.363l-.427-.062c-.314-.039-.648-.079-.984-.111-.317-.03-.631-.057-.931-.081l-.784-.063c-.156-.012-.314-.03-.466-.046l-.247-.026c-.414-.042-.837-.066-1.244-.089l-.232-.013-.575-.037c-.284-.019-.606-.041-.914-.055l-.174-.008h-.024c-.408-.018-.829-.037-1.244-.045-.273-.006-.552-.008-.854-.008Z" transform="translate(-327.952 -115.349)"/></g></g></svg>