<svg xmlns="http://www.w3.org/2000/svg" width="80" height="110" viewBox="0 0 80 110"><defs><style>.a{fill:#fff;}.b{fill:#f9c4c3;}.b,.i{stroke:#192935;stroke-linecap:round;stroke-linejoin:round;stroke-width:2.823px;}.c{fill:#e6c8cc;}.c,.f{mix-blend-mode:multiply;}.c,.f,.g{isolation:isolate;}.d{fill:#ec6476;}.e{fill:#192935;}.f{fill:#e5bfc7;}.g{opacity:0.3;mix-blend-mode:screen;}.h{fill:#aeb0b3;}.i{fill:none;}</style></defs><g transform="translate(-737.343 -1035.365)"><path class="a" d="M802.928,1095.516c-.062-.068-.124-.135-.187-.2-2.91-3.063-7.6-4.005-11.726-3.422-.257-.356-.442-.6-.478-.639a12.4,12.4,0,0,0-4.512-3.36,15.408,15.408,0,0,0-5.524-1.185c.814-2.286,1.516-4.26,1.847-5.492.122-.454.256-.924.4-1.421,1.118-3.9,2.511-8.763-.155-12.775-1.038-1.561-3.156-3.587-7.355-4.366a12.5,12.5,0,0,0-3.735-.129,33.95,33.95,0,0,0,4.111-7.4c1.033-2.681,3.06-9.481-.4-14.7a11.771,11.771,0,0,0-8.963-5,12.145,12.145,0,0,0-4.227.3,13.645,13.645,0,0,0-6.92,4.241,14.226,14.226,0,0,0-.987,1.271,11.417,11.417,0,0,0-2.7-.862,11.083,11.083,0,0,0-4.752.151,12.414,12.414,0,0,0-9.1,9.484c-.875,4.923.862,9.509,5.024,13.261a28.705,28.705,0,0,0,5.041,3.551,10.249,10.249,0,0,0-5.52,8.766,18.319,18.319,0,0,0,2.388,9.92,48.421,48.421,0,0,0,5.112,7.318l2.662,3.343a125.21,125.21,0,0,0-3.05,12.414c-.119.616-.245,1.241-.375,1.889-.879,4.357-1.875,9.3-1.038,14.141a20.137,20.137,0,0,0,9.777,14.031c9.6,5.843,21.929,8.091,32.174,5.866q.5-.109.991-.231a28.132,28.132,0,0,0,17.124-11.783,57.984,57.984,0,0,0,6.524-13.48l.273-.813c1.169-3.471,2.493-7.405,2.633-11.542l.012-.33a15.373,15.373,0,0,0-.09-2.919,8.583,8.583,0,0,0-1.479-3.718C813.125,1095.985,807.9,1094.368,802.928,1095.516Z" transform="translate(0 0)"/><g transform="translate(741.655 1039.505)"><path class="b" d="M789.166,1196.592a10.124,10.124,0,0,0-3.449-2.428,5.32,5.32,0,0,0-4.21.054c-1.907.944-2.773,3.163-2.91,5.214a15.242,15.242,0,0,0,1.876,7.878,46.045,46.045,0,0,0,4.594,6.81l5.422,7.088,5.579-13.94C794.149,1203.48,792.184,1199.628,789.166,1196.592Z" transform="translate(-773.629 -1163.243)"/><path class="c" d="M798.688,1196.592a10.124,10.124,0,0,0-3.449-2.428,5.32,5.32,0,0,0-4.21.054c-.062.031-.119.066-.179.1a27.132,27.132,0,0,1,3.206,3.48,18.793,18.793,0,0,1,3.921,9.359,17.054,17.054,0,0,1-1.7,9.164l3.738,4.886,5.579-13.94C803.671,1203.48,801.706,1199.628,798.688,1196.592Z" transform="translate(-783.151 -1163.243)"/><path class="b" d="M862.952,1216.269a4.539,4.539,0,0,0-.775-1.995c-1.877-2.7-5.964-3.361-9.289-1.968-.287.12-1.348.866-1.559.812-.259-.065-.393-.776-.513-.984a10.022,10.022,0,0,0-1.33-1.844c-2.383-2.541-7.467-2.781-10.561-1.146.236-.124-1.663-2.913-1.878-3.168a7.98,7.98,0,0,0-2.878-2.192c-3.034-1.332-6.916-.772-10.095-.124.485-2.232,3.226-9.322,3.864-11.732,1.352-5.106,4.2-12.1-3.571-13.557-6.5-1.224-9.561,6.165-11.057,10.8l-5.657,17.52a123.115,123.115,0,0,0-3.776,14.856c-.909,4.786-2.232,10.027-1.408,14.859a16.378,16.378,0,0,0,7.812,11.355c13.109,8.083,34.471,9.75,43.921-4.795a55.047,55.047,0,0,0,6.076-12.727c1.228-3.717,2.581-7.507,2.711-11.412A14.477,14.477,0,0,0,862.952,1216.269Z" transform="translate(-791.96 -1152.489)"/><g transform="translate(0 0)"><path class="d" d="M776.377,1083.8a.973.973,0,0,1-.213-.04l-1.064-.43c-4.112-1.656-9.744-3.927-13.363-7.323-3.014-2.828-4.232-6.081-3.62-9.669.572-3.358,3.746-6.194,6.93-6.194a5.518,5.518,0,0,1,1.057.1c2.369.463,4.088,2.3,5.594,4.021a12.676,12.676,0,0,1,2.6-6.05,8.178,8.178,0,0,1,6.026-3,6.3,6.3,0,0,1,.69.038,6.951,6.951,0,0,1,5.493,3.136c1.588,2.573,1.568,6.725-.052,11.109a34.746,34.746,0,0,1-4.832,8.4l-.273.383C778.582,1082.2,777.141,1083.8,776.377,1083.8Z" transform="translate(-757.646 -1054.901)"/><path class="e" d="M779.229,1054.441a5.927,5.927,0,0,1,.656.036c7.463.826,7.176,8.417,5.179,13.819a33.969,33.969,0,0,1-4.79,8.324c-.426.575-3.958,5.772-4.994,5.772a.243.243,0,0,1-.094-.017c-4.291-1.745-10.442-4.042-14.329-7.691-2.6-2.443-4.189-5.49-3.524-9.384.53-3.107,3.463-5.931,6.616-5.931a5.211,5.211,0,0,1,1,.1c2.5.488,4.232,2.561,5.862,4.43a12.886,12.886,0,0,1,2.639-6.568,7.821,7.821,0,0,1,5.782-2.887m0-.634a8.387,8.387,0,0,0-6.268,3.114,12.616,12.616,0,0,0-2.548,5.563c-1.44-1.607-3.1-3.2-5.346-3.641a5.842,5.842,0,0,0-1.119-.108c-3.327,0-6.643,2.957-7.24,6.458-.631,3.7.619,7.046,3.715,9.953,3.662,3.438,9.325,5.719,13.46,7.385l1.064.43a.882.882,0,0,0,.333.064c.765,0,1.907-.945,5.231-5.648.128-.181.222-.314.272-.381a35.051,35.051,0,0,0,4.875-8.481c1.654-4.474,1.663-8.73.024-11.384a7.247,7.247,0,0,0-5.728-3.284,6.526,6.526,0,0,0-.725-.04Z" transform="translate(-756.55 -1053.808)"/><path class="f" d="M825.014,1063.945a17.807,17.807,0,0,1,.333,6.77,21.4,21.4,0,0,1-2.435,7.4,17.165,17.165,0,0,1-4.512,5.251,18.862,18.862,0,0,1-8.908,4.012c2.377,1.125,4.764,2.055,6.753,2.863.895.364,4.647-5.161,5.087-5.756a33.946,33.946,0,0,0,4.79-8.323C827.648,1072.034,828.171,1066.637,825.014,1063.945Z" transform="translate(-797.609 -1061.67)"/><g transform="translate(0.632 5.562)"><g class="g"><path class="h" d="M762.014,1091.323a12.215,12.215,0,0,1-.7-5.643,8.469,8.469,0,0,1,2.107-4.872,5.346,5.346,0,0,1,5.293-1.26,6.048,6.048,0,0,1,1.63.794,7.072,7.072,0,0,0-3.21-1.658c-3.508-.686-7.028,2.4-7.614,5.835-.665,3.893.923,6.942,3.524,9.384.093.087.193.17.288.255A15.089,15.089,0,0,1,762.014,1091.323Z" transform="translate(-759.365 -1078.586)"/></g></g><g transform="translate(14.402 0.638)"><g class="g"><path class="h" d="M829.479,1056.668a7.675,7.675,0,0,0-6.274,2.863,12.288,12.288,0,0,0-2.5,5.694A13.454,13.454,0,0,1,829.479,1056.668Z" transform="translate(-820.709 -1056.648)"/></g></g></g><path class="i" d="M952.126,1315.931c-.357,3.618-.951,8.75-2.664,11.124" transform="translate(-905.088 -1258.481)"/><path class="i" d="M1005.812,1333.634c-.183,3.113-.841,7.835-2.686,10.466" transform="translate(-946.407 -1272.294)"/><path class="i" d="M885.383,1292.585c-.769,4.309-2.074,9.919-3.4,15.07" transform="translate(-853.124 -1240.308)"/><path class="c" d="M866.9,1329.553a6.754,6.754,0,0,0-6.123-2.655c.037.449.077.9.1,1.347a36.643,36.643,0,0,1-2.432,16.075,28.272,28.272,0,0,1-10.594,12.672,32.965,32.965,0,0,1-13.383,4.873,36.691,36.691,0,0,1-15.143-.733,23.26,23.26,0,0,1-8.927-4.6,16.664,16.664,0,0,0,6.013,6.507c12.754,8.083,33.535,9.75,42.729-4.795a55.735,55.735,0,0,0,5.911-12.727c1.195-3.717,2.511-7.506,2.638-11.413a14.88,14.88,0,0,0-.036-2.558A4.615,4.615,0,0,0,866.9,1329.553Z" transform="translate(-796.663 -1267.768)"/></g></g></svg>