<svg xmlns="http://www.w3.org/2000/svg" width="80" height="105" viewBox="0 0 80 105"><defs><style>.a{fill:#fff;}.b{fill:#1c3043;}.c{fill:#f2b604;}.d{fill:#ff95b5;}.e{fill:#c1dff2;}.f{fill:#47a1d8;}.g{fill:#e876b3;}.h{fill:#eebe70;}.i{fill:#00a387;}</style></defs><g transform="translate(-120.824 -256.236)"><path class="a" d="M196.624,324.762a47.087,47.087,0,0,0-6.789-2.476,15.156,15.156,0,0,0,1.773-6.678c.111-2.41-.219-4.832.008-7.234.794-8.419,8.443-13.8,3.229-22.846-3.32-5.759-8.936-6.427-14.492-7.767.152-3.554.689-7.137.032-10.693-.7-3.773-2.8-7.484-6.224-9.115a17.881,17.881,0,0,0-6.258-1.3c-9.475-.8-25.251-1.94-25.463,11.92-.029,1.883.36,3.8-.091,5.639-.965,3.887-5.785,3.217-8.111,5.553-3.2,3.219-3.621,9.571-2.9,13.768a27.444,27.444,0,0,0,6.783,13.291,8.124,8.124,0,0,0-6.628,9.1c.42,2.976,2.234,4.943,4,7.2-.9-1.156-10.115,5.091-11.027,6.169-5.756,6.8-4.213,21.592,1.329,28.082,4.652,5.448,9.057,3.914,15.345,2.621a98.94,98.94,0,0,1,22.156-2.025c6.676.152,13.619,2.176,20.275.67,6.325-1.432,9.25-5.369,11.531-11.026C197.741,341.074,205.636,329.446,196.624,324.762Z" transform="translate(0 0)"/><g transform="translate(128.595 262.703)"><g transform="translate(0)"><path class="b" d="M198.379,334.267a.666.666,0,0,0-.362-.318c-.319-.128-.636-.261-.956-.388-.287-.114-.58-.215-.872-.316-.686-.236-1.365-.49-2.05-.728-.628-.217-1.254-.444-1.892-.629-.673-.2-1.354-.36-2.033-.534-1.289-.332-2.575-.682-3.867-1.007-.288-.072-.579-.134-.868-.2-.313-.069-.625-.141-.938-.208-.675-.143-1.353-.267-2.03-.392-.241-.049-.482-.1-.724-.144l.174.033-.1-.019-.062-.012-.246-.048-.1-.018.018,0-.079-.016q-.534-.1-1.07-.2.039-.247.076-.494c.059-.392.1-.783.134-1.177.017-.219.048-.435.066-.653.016-.2.021-.392.034-.587.028-.43.039-.86.063-1.291.006-.118.014-.237.021-.356.023,0,.046,0,.069,0h.089c.043,0,.086,0,.13,0a2.926,2.926,0,0,0,.725-.042c.171-.031.341-.075.511-.113.188-.042.377-.073.564-.116.393-.092.78-.193,1.165-.312s.784-.231,1.174-.355a6.66,6.66,0,0,0,1.268-.527,4.475,4.475,0,0,0,.644-.439,5.518,5.518,0,0,0,.479-.459,5.769,5.769,0,0,0,.85-1.171,5.945,5.945,0,0,0,.343-.718c.075-.195.14-.393.2-.593a9.393,9.393,0,0,0,.273-1.409,11.735,11.735,0,0,0,.124-1.319c.006-.2.013-.391.011-.587,0-.157-.012-.312-.028-.468a.925.925,0,0,0-.606-.824.872.872,0,0,0-.259-.038,1.855,1.855,0,0,0-.773.217c-.172.082-.343.166-.51.259a13.019,13.019,0,0,0-1.179.743c-.362.255-.7.533-1.048.815s-.668.561-1,.847-.628.553-.922.851c-.315.318-.628.64-.924.976-.31.35-.6.714-.9,1.079-.116.143-.234.285-.351.428.006-.5.012-1.009.026-1.513.012-.424.019-.847.032-1.27s.039-.851.054-1.277.023-.876.034-1.314a11.665,11.665,0,0,1,.052-1.247l0-.034c.019-.079.039-.158.059-.236a.987.987,0,0,0,.032-.212l.123-.013a3.08,3.08,0,0,0,.517-.09,2.338,2.338,0,0,0,.66-.271,2.5,2.5,0,0,0,1.2-1.632,3.568,3.568,0,0,0,.072-.466,1.736,1.736,0,0,0,.007-.216c.183-.035.365-.074.546-.12a7.523,7.523,0,0,0,1.35-.471,7.272,7.272,0,0,0,1.236-.779,12.576,12.576,0,0,0,.989-.863c.31-.287.6-.6.88-.915a13.761,13.761,0,0,0,1.7-2.226c.45-.76.9-1.517,1.307-2.3.12-.232.24-.467.344-.707.082-.19.16-.382.242-.572.167-.39.338-.779.493-1.175s.285-.777.413-1.171a11.61,11.61,0,0,0,.341-1.23c.1-.488.184-.981.264-1.473a8.737,8.737,0,0,0,.138-1.276c0-.2,0-.406-.019-.608a4.475,4.475,0,0,0-.108-.781,5.287,5.287,0,0,0-.219-.683c-.012-.1-.027-.209-.046-.312-.05-.279-.134-.55-.2-.824-.036-.149-.08-.3-.117-.443s-.074-.3-.115-.455a9.93,9.93,0,0,0-.346-1.039c.011.031.023.061.034.092-.057-.148-.115-.293-.182-.437a2,2,0,0,0-.275-.418,2.579,2.579,0,0,0-.22-.226,1.934,1.934,0,0,0-.344-.278,2,2,0,0,0-.935-.244,1.908,1.908,0,0,0-.495.047,2.917,2.917,0,0,0-.437.159l.121-.047c-.3.115-.58.247-.862.391-.081.041-.16.083-.237.13a4.168,4.168,0,0,0-.23-.392,6.357,6.357,0,0,0-.433-.577,3.568,3.568,0,0,0-.446-.435,4.032,4.032,0,0,0-.526-.39,1.946,1.946,0,0,0-.771-.26,1.514,1.514,0,0,0-.2-.012,3.3,3.3,0,0,0-.342.022,3.085,3.085,0,0,0-.425.069,2.864,2.864,0,0,0-.393.141,3.144,3.144,0,0,0-.956.637q-.078.075-.153.153-.136-.165-.283-.32a1.855,1.855,0,0,0-.521-.407,2.253,2.253,0,0,0-.4-.16,4.04,4.04,0,0,0-1-.106,3.744,3.744,0,0,0-1.366.354,5.15,5.15,0,0,0-.755.4,9.172,9.172,0,0,0-.837.581,4.355,4.355,0,0,0-.6.617c-.074.087-.149.176-.22.266-.023-.014-.045-.029-.068-.042-.159-.1-.318-.188-.484-.269a2.663,2.663,0,0,0-.619-.235,3.025,3.025,0,0,0-.717-.064,4.325,4.325,0,0,0-.722.086,4.5,4.5,0,0,0-.751.254,3.089,3.089,0,0,0-.552.3,6.844,6.844,0,0,0-.608.462c-.088.074-.172.153-.253.233a1.982,1.982,0,0,0-.313.169c-.052.034-.1.07-.154.107a2.084,2.084,0,0,0-.179.133,1.555,1.555,0,0,0-.164.181,1.283,1.283,0,0,0-.139.189c-.07.121-.125.25-.183.377a3.445,3.445,0,0,0-.139.361c-.021.064-.039.127-.056.192a2.483,2.483,0,0,0-.048.265.8.8,0,0,0,0,.136c-.015.086-.029.172-.039.259-.026.216-.052.433-.082.65a11.581,11.581,0,0,0-.1,1.259c-.012.425-.026.85-.037,1.275s-.011.842-.016,1.264,0,.862.015,1.3.027.856.057,1.283a26.373,26.373,0,0,0,.317,2.71,7.917,7.917,0,0,0,.417,1.435c.076.2.155.4.241.59.094.211.2.418.291.629.182.4.368.8.586,1.177a10.425,10.425,0,0,0,.844,1.2,7.808,7.808,0,0,0,.873.962,8.727,8.727,0,0,0,1.189.893,7.856,7.856,0,0,0,1.3.667l.046.018-.026.055a.663.663,0,0,0-.019.348,2.91,2.91,0,0,0,.055.417,3.984,3.984,0,0,0,.149.471,5.28,5.28,0,0,0,.241.64,2.276,2.276,0,0,0,.218.336,2.5,2.5,0,0,0,.17.21,2.8,2.8,0,0,0,.562.47c.125.079.265.143.4.208a1.4,1.4,0,0,0,.156.064,4.935,4.935,0,0,0-.131.739c-.018.208-.019.417-.025.625q-.016.66-.039,1.319c-.006.175-.015.349-.023.523-.165-.2-.339-.4-.524-.587-.319-.322-.635-.646-.942-.978-.284-.308-.565-.615-.868-.9-.319-.3-.652-.589-.977-.883-.346-.314-.689-.631-1.062-.91a6.155,6.155,0,0,0-1.207-.7,1.713,1.713,0,0,0-.677-.171.837.837,0,0,0-.43.111,1.855,1.855,0,0,0-.639.967,5.737,5.737,0,0,0-.375,1.187,4.019,4.019,0,0,0-.088.718,4.2,4.2,0,0,0,.063.746,3.8,3.8,0,0,0,.14.606c.088.259.181.515.295.764a4.069,4.069,0,0,0,.286.551c.147.223.3.443.46.655a6.551,6.551,0,0,0,.888.927,3.672,3.672,0,0,0,.418.325,5.533,5.533,0,0,0,.613.331,4.245,4.245,0,0,0,.975.312,3.663,3.663,0,0,0,.7.1c.2,0,.4-.016.6-.033l.29-.023a5.519,5.519,0,0,0,.579-.063c.2-.036.388-.084.58-.129a5.908,5.908,0,0,1,.6-.1l.175-.024c-.005.157-.01.315-.012.472-.005.441-.015.883-.025,1.323-.02.846-.061,1.691-.117,2.535-.029.43-.054.86-.07,1.29s-.036.844-.082,1.263c-.044.4-.081.807-.135,1.209-.032.242-.071.483-.111.724q-.822-.139-1.645-.276c-.718-.12-1.436-.242-2.158-.341-.69-.094-1.38-.176-2.074-.242-1.371-.13-2.748-.2-4.123-.258-.693-.029-1.386-.069-2.079-.092-.316-.01-.632-.007-.948-.011l-.828-.01a.654.654,0,0,0-.01-.194c.005-.065.013-.129.017-.194a1.941,1.941,0,0,0,0-.26c0-.05.006-.1,0-.148,0-.139-.015-.277-.027-.415-.048-.795-.063-1.592-.095-2.388-.034-.841-.094-1.682-.105-2.524,0-.053,0-.107,0-.16a.719.719,0,0,0,.062-.751.686.686,0,0,0-.081-.508c0-.4-.006-.791,0-1.186.008-.439.015-.878.025-1.317s.033-.88.038-1.319.006-.88.023-1.32q.026-.694.044-1.388c.012-.437.046-.874.07-1.31.026-.483.049-.966.077-1.449.026-.448.052-.9.082-1.344s.042-.875.063-1.312q.016-.368.026-.738l.077,0c.1.005.193.016.289.022a3.179,3.179,0,0,0,.461-.021,3.82,3.82,0,0,0,1.145-.322c.309-.132.62-.264.919-.418a3.191,3.191,0,0,0,.532-.362,4.557,4.557,0,0,0,.4-.371,5.274,5.274,0,0,0,.479-.575,4.281,4.281,0,0,0,.377-.671,4.174,4.174,0,0,0,.324-1.355,11.533,11.533,0,0,0,.054-1.31c0-.256-.022-.511-.042-.767-.008-.105-.023-.21-.038-.315a2.082,2.082,0,0,0-.116-.425.786.786,0,0,0-.473-.47.639.639,0,0,0-.206-.034.683.683,0,0,0-.135.014.372.372,0,0,0-.172.059,1.059,1.059,0,0,0-.3.215,5.682,5.682,0,0,0-.533.6l.106-.124-.3.352.05-.058c-.559.66-1.082,1.35-1.627,2.022-.263.326-.531.647-.787.978-.126.164-.252.328-.362.5l-.026.045c.009-.2.018-.391.029-.586.025-.469.063-.937.085-1.406.021-.443.052-.885.077-1.327s.041-.894.066-1.34c.03-.557.071-1.113.1-1.67.014-.271.017-.544.041-.814.019-.23.048-.456.081-.684a2.482,2.482,0,0,0,.319-.048,4.359,4.359,0,0,0,.664-.229,2.781,2.781,0,0,0,.546-.271,2.994,2.994,0,0,0,.333-.253,4.066,4.066,0,0,0,.3-.331c.124-.147.249-.3.359-.454a2.2,2.2,0,0,0,.19-.373c.046-.1.083-.208.122-.313a5.226,5.226,0,0,0,.185-.61c.048-.2.083-.4.119-.6.026-.143.051-.286.069-.43a.4.4,0,0,0,0-.062q.321-.118.637-.25a5.117,5.117,0,0,0,.58-.275,10.469,10.469,0,0,0,1.173-.828c.17-.133.339-.268.5-.417s.289-.291.433-.436q.44-.442.851-.91a.745.745,0,0,0,.134-.155h0l.044-.052a12.64,12.64,0,0,0,.768-1.02c.246-.356.489-.714.717-1.083s.448-.76.653-1.151c.215-.408.405-.832.587-1.256.171-.4.319-.809.48-1.213a18.118,18.118,0,0,0,.762-2.437c.224-.915.4-1.84.556-2.771q.105-.65.207-1.3c.066-.419.093-.843.117-1.266s.028-.862.026-1.293a13.943,13.943,0,0,0-.084-1.45,11.039,11.039,0,0,0-.253-1.436c-.056-.227-.11-.454-.174-.68-.018-.065-.038-.128-.058-.193-.079-.3-.174-.587-.281-.874v0l-.01-.027c-.068-.183-.13-.367-.206-.547-.061-.145-.125-.289-.188-.434a8.342,8.342,0,0,0-.419-.87,2.644,2.644,0,0,0-.316-.443,3.653,3.653,0,0,0-.422-.387,2.612,2.612,0,0,0-1.273-.467,3.8,3.8,0,0,0-.761-.058,3.918,3.918,0,0,0-.938.135,4.357,4.357,0,0,0-.872.341,3.689,3.689,0,0,0-.314.194,8.254,8.254,0,0,0-.789-.7,2.665,2.665,0,0,0-.62-.318,3.839,3.839,0,0,0-.7-.158,2.561,2.561,0,0,0-.6-.024,2.982,2.982,0,0,0-.7.12,4.125,4.125,0,0,0-1.276.7l-.21.164c-.081-.053-.159-.111-.236-.17-.161-.121-.324-.238-.491-.35a4.031,4.031,0,0,0-.479-.266c-.212-.1-.426-.2-.646-.281a4.552,4.552,0,0,0-1.3-.234c-.07,0-.14-.006-.21-.006a4.912,4.912,0,0,0-1.166.158,7.1,7.1,0,0,0-1.793.722,6.682,6.682,0,0,0-.849.576c-.038.031-.075.062-.111.094q-.2-.157-.4-.3a4.39,4.39,0,0,0-.49-.3,2.785,2.785,0,0,0-.359-.158,2.528,2.528,0,0,0-.418-.087,3.3,3.3,0,0,0-.617-.047,3.58,3.58,0,0,0-.75.093,3.764,3.764,0,0,0-1.213.548,4.5,4.5,0,0,0-1.02,1,4.028,4.028,0,0,0-.65,1.149,7.141,7.141,0,0,0-.264,1.112c-.035.2-.077.4-.111.594a6.7,6.7,0,0,0-.088.744c-.007.124-.005.249-.012.373-.009.155-.02.308-.037.462a.4.4,0,0,0,.015.153c-.048.3-.092.6-.128.906a19.336,19.336,0,0,0-.127,2.649c.01.453.052.9.092,1.355.034.39.077.779.117,1.169a16.681,16.681,0,0,0,.377,2.177q.258,1.076.619,2.119l-.005-.014c.13.376.255.754.38,1.132a9.173,9.173,0,0,0,.529,1.34c.048.093.095.186.141.28-.114-.037-.229-.069-.346-.095a3.888,3.888,0,0,0-1.185-.107,6.379,6.379,0,0,0-.687.088,4,4,0,0,0-.69.216,4.458,4.458,0,0,0-.958.557,3.379,3.379,0,0,0-.316-.324,4.582,4.582,0,0,0-.559-.451,3.133,3.133,0,0,0-.664-.322,3.055,3.055,0,0,0-.707-.132,3.432,3.432,0,0,0-.359-.02c-.078,0-.156,0-.233.01a1.777,1.777,0,0,0-.47.092,3.8,3.8,0,0,0-.415.178,4.381,4.381,0,0,0-.65.422,4.334,4.334,0,0,0-.718.729,4.087,4.087,0,0,0-.317.431c-.063-.023-.128-.044-.192-.062a5.335,5.335,0,0,0-.591-.124,2.15,2.15,0,0,0-.481-.035,2.787,2.787,0,0,0-.376.044,2.241,2.241,0,0,0-.373.133,2.438,2.438,0,0,0-.465.237,2.575,2.575,0,0,0-.522.446,4.547,4.547,0,0,0-.356.494.6.6,0,0,0-.087.422c-.04.077-.079.155-.112.234a3.963,3.963,0,0,0-.189.625,9.8,9.8,0,0,0-.244,1.433c-.036.42-.05.838-.05,1.259s.015.833.026,1.25c.013.492.048.984.1,1.475.039.42.112.835.186,1.249.078.434.146.871.244,1.3s.213.83.33,1.242a9.031,9.031,0,0,0,.5,1.391,12.017,12.017,0,0,0,.632,1.177c.248.4.528.784.8,1.167a8.217,8.217,0,0,0,.827,1,10.91,10.91,0,0,0,1.036.908c.168.13.337.253.517.365a6.965,6.965,0,0,0,.7.373c.2.095.4.176.6.266l0,0a.4.4,0,0,0-.028.164l.027.375a6.4,6.4,0,0,0,.144,1.173,3.026,3.026,0,0,0,.55,1.2,2.379,2.379,0,0,0,.473.435c.148.1.3.2.453.3a3.032,3.032,0,0,0,.909.4c-.015.274-.026.549-.032.825-.01.425-.041.851-.054,1.276-.026.863-.024,1.727-.044,2.591s-.032,1.726-.052,2.589c-.021.885-.021,1.769-.026,2.653,0,.3,0,.606,0,.91l-.037-.041c-.3-.327-.621-.629-.951-.923-.194-.173-.389-.346-.59-.51-.176-.144-.359-.278-.543-.411a12.928,12.928,0,0,0-1.108-.714,10.824,10.824,0,0,0-1.3-.636,9.057,9.057,0,0,0-1.257-.39,5.523,5.523,0,0,0-1.325-.186h-.033a3.686,3.686,0,0,0-.473.038,1.318,1.318,0,0,0-.2.047,1.662,1.662,0,0,0-.263.1,1.055,1.055,0,0,0-.336.3,1.025,1.025,0,0,0-.2.643,3.237,3.237,0,0,0,.035.439,2.716,2.716,0,0,0,.213.723,3.858,3.858,0,0,0,.29.549,6.5,6.5,0,0,0,.48.653,5.876,5.876,0,0,0,.482.494,8.916,8.916,0,0,0,2.317,1.595,8.25,8.25,0,0,0,1.176.449,12.6,12.6,0,0,0,1.449.31,8.412,8.412,0,0,0,1.169.076c.192.006.382.03.574.041.147.007.293.012.441.02,0,.094,0,.189,0,.284.006.422-.014.843-.009,1.266,0,.354,0,.709.01,1.063s.028.718.043,1.078.025.7.048,1.054c.01.153.021.307.024.46s.018.306.032.458c0,.087.006.172.016.263l0,.033c0,.029,0,.059-.006.089a.792.792,0,0,0,0,.151l-.449.107c-.66.16-1.315.341-1.97.523s-1.285.384-1.923.594c-.7.229-1.4.465-2.074.747-.339.141-.677.286-1.017.423-.3.123-.61.24-.915.363-.629.253-1.256.517-1.874.8-1.246.567-2.468,1.189-3.694,1.8-.3.151-.61.291-.909.449-.283.15-.569.3-.846.456s-.579.339-.862.519-.564.369-.847.551c-.147.094-.293.191-.442.282a.761.761,0,0,0-.352.414.742.742,0,0,0,.041.563.717.717,0,0,0,.963.316c.276-.15.536-.329.8-.5.277-.184.554-.371.84-.543s.566-.343.858-.5.572-.317.866-.459c.62-.3,1.236-.609,1.85-.921.594-.3,1.2-.585,1.8-.872.829-.4,1.678-.759,2.529-1.1.409-.166.823-.32,1.229-.494.431-.185.866-.363,1.3-.529.261-.094.521-.189.784-.276q.514-.17,1.029-.334c.653-.211,1.314-.4,1.977-.576q2.024-.55,4.091-.921c.31-.055.622-.1.933-.143s.6-.094.906-.14c.612-.1,1.225-.181,1.84-.262.646-.086,1.292-.175,1.939-.254.6-.074,1.208-.13,1.814-.184.674-.048,1.348-.074,2.023-.092.636-.018,1.273-.033,1.909-.026.7.008,1.4.005,2.1.026.717.021,1.433.062,2.15.09,1.374.054,2.746.133,4.116.257,1.352.122,2.692.34,4.032.557,1.458.237,2.915.475,4.367.752.61.12,1.221.233,1.832.344s1.205.248,1.806.384c.691.156,1.378.33,2.064.509s1.356.354,2.034.53c.33.086.66.168.992.251s.64.15.955.24c.562.161,1.118.332,1.672.517.529.177,1.055.363,1.58.55.27.1.538.2.808.289.248.086.5.17.742.257.495.173.977.376,1.462.572a.636.636,0,0,0,.8-.405A.657.657,0,0,0,198.379,334.267Zm-17.226-11.208a6.7,6.7,0,0,1,.733-1.053c.334-.406.611-.739.873-1.05.248-.284.513-.561.77-.828l.006-.007.035-.036c.326-.339.632-.633.935-.9.642-.561,1.335-1.153,2.059-1.688l.063-.046.015-.01.016-.011c.321-.219.616-.4.9-.561.153-.084.281-.153.41-.218h0c-.007.225-.022.464-.046.731-.035.384-.09.8-.17,1.257a6.888,6.888,0,0,1-.437,1.4,6.653,6.653,0,0,1-.639.988,4.8,4.8,0,0,1-.7.656,5.312,5.312,0,0,1-.868.432c-.266.09-.539.17-.812.25l-.09.026-.327.1-.017.005c-.23.068-.459.136-.689.2-.333.094-.675.159-1.006.223l-.018,0c-.16.03-.319.062-.477.094l-.059.012c-.091.018-.185.038-.279.051-.05,0-.1,0-.158,0a.251.251,0,0,1-.029,0h0Zm-3.728-2.678-.025,0,.082-.007Zm.1-.008h0l.052,0Zm1.451-1.75c-.123.018-.265.038-.406.064s-.288.06-.432.1c-.119.029-.242.06-.366.084a5.545,5.545,0,0,1-.556.069l-.058,0-.034,0h0l.023,0-.023,0h.023l-.179.015c-.134.008-.244.012-.346.012h-.01a2.043,2.043,0,0,1-.319-.031c-.161-.034-.3-.069-.429-.105a3.44,3.44,0,0,1-.5-.189,3.86,3.86,0,0,1-.647-.437,6.552,6.552,0,0,1-.91-1.048,5.3,5.3,0,0,1-.485-.991,4.292,4.292,0,0,1-.183-.855,3.281,3.281,0,0,1,.039-.621,6.406,6.406,0,0,1,.346-1.068h0c.063.027.126.056.188.086a6.99,6.99,0,0,1,1.287.914q.457.4.915.8c.324.288.617.57.895.862s.6.629.927.955l.161.161a10.209,10.209,0,0,1,.728.775c.1.123.195.247.283.367l.055.073h0Zm-3-27.568c.095-.006.183-.009.269-.009a2.907,2.907,0,0,1,.327.017,2.053,2.053,0,0,1,.322.1c.161.083.3.162.426.24l.142.09.007.005c.1.065.2.132.312.189a1.158,1.158,0,0,0,.488.168h.012a.694.694,0,0,0,.629-.383,2.252,2.252,0,0,1,.252-.389c.1-.123.186-.221.266-.31a2.939,2.939,0,0,1,.372-.341c.2-.139.409-.279.652-.428a5.026,5.026,0,0,1,.738-.367,3.135,3.135,0,0,1,.586-.162c.055,0,.112,0,.168,0a3.485,3.485,0,0,1,.457.032,1.531,1.531,0,0,1,.255.072,1.216,1.216,0,0,1,.13.083,4.883,4.883,0,0,1,.45.508l.013.016c.064.079.127.157.192.233a.986.986,0,0,0,.112.115l.023.021c.045.039.095.083.146.12a.669.669,0,0,0,.377.119.471.471,0,0,0,.156-.024.692.692,0,0,0,.3-.17.821.821,0,0,0,.126-.157l.027-.043.015-.026c.031-.051.066-.1.109-.16a3.606,3.606,0,0,1,.479-.458,2.47,2.47,0,0,1,.4-.213,2.008,2.008,0,0,1,.352-.089c.077-.005.145-.008.208-.008s.129,0,.189.009a1.384,1.384,0,0,1,.148.048,2.745,2.745,0,0,1,.357.244,4.335,4.335,0,0,1,.6.651,4.1,4.1,0,0,1,.26.443c.023.045.044.09.066.135.052.108.106.22.17.325a1.143,1.143,0,0,0,.186.248.88.88,0,0,0,.333.216.582.582,0,0,0,.205.035,1.221,1.221,0,0,0,.19-.018.9.9,0,0,0,.42-.252c.028-.024.056-.048.084-.071a3.966,3.966,0,0,1,.439-.243c.148-.074.3-.145.507-.229a1.856,1.856,0,0,1,.293-.088h.037a2.084,2.084,0,0,1,.229.014,1.147,1.147,0,0,1,.135.041c.019.011.036.023.054.035a2.279,2.279,0,0,1,.235.248,2.392,2.392,0,0,1,.183.392l.014.037.014.038c.108.305.195.612.266.884l.019.069h0v0c-.026,0-.052-.008-.077-.01a1.351,1.351,0,0,0-.137-.007,2.092,2.092,0,0,0-.976.284,2.752,2.752,0,0,0-.377.252,3.044,3.044,0,0,0-.26.216,6.793,6.793,0,0,0-.89,1.075c-.073.1-.15.217-.237.344l-.032.049h0v0c-.024-.1-.048-.208-.073-.312a4.557,4.557,0,0,0-.461-1.251,5.932,5.932,0,0,0-.864-1.13c-.109-.111-.224-.215-.331-.31a2.03,2.03,0,0,0-.254-.194,3.8,3.8,0,0,0-.421-.219,2.7,2.7,0,0,0-.553-.184,3.013,3.013,0,0,0-.609-.077,1.412,1.412,0,0,0-.482.079,3.322,3.322,0,0,0-.488.219,2.508,2.508,0,0,0-.537.429,5.712,5.712,0,0,0-.829,1.164l-.044.075-.019.031-.066.109-.011.018h0a2.214,2.214,0,0,0-.255-.377,3.117,3.117,0,0,0-.464-.444,3.378,3.378,0,0,0-.428-.3,2.912,2.912,0,0,0-.693-.278,2.3,2.3,0,0,0-.424-.073c-.023,0-.046,0-.07,0a1.711,1.711,0,0,0-.617.141,1.817,1.817,0,0,0-.491.316,3.274,3.274,0,0,0-.416.452c-.1.124-.186.238-.261.346a3.631,3.631,0,0,0-.272.511l-.03.064c-.058.124-.115.262-.179.43l-.035.095h0v0c-.044-.085-.089-.169-.134-.253l-.034-.064-.052-.1c-.028-.052-.056-.105-.083-.158l-.006-.012c-.056-.107-.114-.217-.176-.323a4.8,4.8,0,0,0-.445-.638,5.681,5.681,0,0,0-.945-.911c-.074-.056-.158-.116-.248-.178a2.009,2.009,0,0,0-.242-.141l-.1-.051c-.1-.05-.2-.1-.3-.151l-.053-.023h0A3.578,3.578,0,0,1,175.974,291.055Zm.35,17.121A9.852,9.852,0,0,1,175,306.6a11.4,11.4,0,0,1-.695-1.32l-.1-.215c-.173-.37-.352-.752-.5-1.148a7.416,7.416,0,0,1-.227-.8c-.074-.348-.13-.664-.17-.967-.063-.478-.143-1.108-.2-1.737-.023-.344-.042-.707-.062-1.177,0-.06-.006-.12-.009-.18l0-.043V299c-.006-.119-.013-.242-.016-.364s0-.256,0-.384c0-.1,0-.2,0-.293-.008-.658,0-1.322.007-1.947a.588.588,0,0,0,.06-.212l0,.02-.007.033.006-.031-.008.031.022-.113.017-.093a8.327,8.327,0,0,1,.3-1.259l.027-.077c.06-.17.123-.346.195-.515.037-.086.072-.175.106-.263l0-.009c.039-.1.08-.2.123-.3a3.51,3.51,0,0,1,.311-.476,1.38,1.38,0,0,1,.166-.142l.01-.007.024-.016.113-.08a.524.524,0,0,0,.086-.1h0l.041.011a2.652,2.652,0,0,1,.412.166,2.813,2.813,0,0,1,.357.213c.115.082.237.172.355.268s.217.217.322.329l.013.014a4.284,4.284,0,0,1,.34.413c.141.227.268.467.39.7l.1.185a7.6,7.6,0,0,1,.386.813c.037.113.068.227.092.338.02.1.031.2.041.278l0,.018c.006.054.012.107.021.16a.727.727,0,0,0,.073.232c.035.054.072.108.109.16a.678.678,0,0,0,.308.2.711.711,0,0,0,.223.037.687.687,0,0,0,.148-.016.722.722,0,0,0,.328-.168.7.7,0,0,0,.171-.215c.089-.177.183-.367.267-.565.1-.234.177-.483.252-.722l0-.009c.03-.094.06-.189.091-.282a9.231,9.231,0,0,1,.331-.878,3.508,3.508,0,0,1,.382-.562,2.273,2.273,0,0,1,.252-.238c.028-.016.056-.031.084-.044l.074-.017.064.007a2.614,2.614,0,0,1,.373.128,3.088,3.088,0,0,1,.43.3,2.037,2.037,0,0,1,.21.235,1.906,1.906,0,0,1,.132.28,3.6,3.6,0,0,1,.144.655,2.52,2.52,0,0,1-.007.291c-.006.067-.015.133-.026.212l0,.013a.316.316,0,0,0-.006.067.714.714,0,0,0,.314.633.611.611,0,0,0,.381.118.668.668,0,0,0,.152-.016.732.732,0,0,0,.435-.3,1.048,1.048,0,0,0,.137-.307l0-.014c.008-.023.015-.046.023-.067.029-.083.064-.17.111-.272.188-.375.393-.727.588-1.055l.018-.031a10.314,10.314,0,0,1,.713-1.1,2.759,2.759,0,0,1,.261-.247,2.65,2.65,0,0,1,.261-.134c.027-.007.055-.013.083-.018a1.81,1.81,0,0,1,.219.018,2.929,2.929,0,0,1,.462.159,2.275,2.275,0,0,1,.29.187,5.638,5.638,0,0,1,.733.855,2.7,2.7,0,0,1,.165.286c.042.086.085.185.131.3a8.02,8.02,0,0,1,.331,1.559,3.95,3.95,0,0,1-.01.721l-.008.035-.006.024a.82.82,0,0,0-.018.407.759.759,0,0,0,.481.544.733.733,0,0,0,.229.038.684.684,0,0,0,.153-.017.6.6,0,0,0,.294-.139l.044-.031a.756.756,0,0,0,.166-.188l.019-.027c.04-.056.08-.112.119-.169.157-.228.306-.468.452-.7l.1-.155a15.78,15.78,0,0,1,1.091-1.6,3.607,3.607,0,0,1,.46-.426,2.424,2.424,0,0,1,.309-.161c.037-.01.075-.02.114-.027h.019c.025.008.048.017.072.027a.916.916,0,0,1,.35.3,2.429,2.429,0,0,1,.155.327,4.333,4.333,0,0,1,.116.422c0,.021.008.042.012.063v.037c0,.1,0,.2-.011.293v.014c0,.066-.008.132-.01.2l0,.089c0,.048,0,.1,0,.143a1.894,1.894,0,0,1-.027.209c0,.026-.009.052-.013.077a.644.644,0,0,0,.074.32c.006.012.013.023.021.035h0v.005h0c-.008.082-.017.165-.028.247-.024.171-.054.344-.083.515-.012.067-.024.135-.035.2-.037.215-.074.43-.113.644s-.079.379-.119.537-.086.313-.134.472l-.034.113c-.122.413-.267.821-.393,1.17s-.273.7-.453,1.113c-.057.131-.112.262-.168.394l-.008.019c-.087.208-.178.422-.274.629-.377.758-.813,1.5-1.189,2.124q-.106.177-.211.354l-.108.181c-.076.127-.158.248-.25.381l-.045.065-.045.065a11.288,11.288,0,0,1-.7.918,15.335,15.335,0,0,1-2.392,2.3,6.248,6.248,0,0,1-1.1.585,9.307,9.307,0,0,1-1.006.273c-.321.065-.654.114-1.018.151-.231.014-.464.022-.694.022a10.016,10.016,0,0,1-1.572-.121,9.423,9.423,0,0,1-1.174-.353l-.177-.064c-.327-.12-.666-.245-.987-.395A9.6,9.6,0,0,1,176.325,308.176Zm3.109,4.009a1.844,1.844,0,0,1-.122-.263l-.006-.016.011.031.013.041.014.041-.013-.037.012.038c-.041-.115-.082-.229-.123-.343l-.045-.126a1.862,1.862,0,0,1-.059-.24l0-.016h0a7.858,7.858,0,0,0,1.338.3c.188.024.382.043.594.056h.005a.564.564,0,0,0,.34.118.7.7,0,0,0,.372-.094h0l0,0h.091c.144,0,.3,0,.457-.009h.023c0,.047-.01.094-.016.141a2.517,2.517,0,0,1-.113.344,1.682,1.682,0,0,1-.116.183,2.5,2.5,0,0,1-.275.249,1.8,1.8,0,0,1-.237.128,3.6,3.6,0,0,1-.669.128c-.043,0-.086,0-.128,0a2.963,2.963,0,0,1-.4-.027,1.89,1.89,0,0,1-.329-.1,2.447,2.447,0,0,1-.355-.226A2.76,2.76,0,0,1,179.434,312.185Zm-13.371-6.408.012-.022.055-.1a5.38,5.38,0,0,1,.347-.548c.092-.126.192-.253.281-.364l.031-.039.069-.088c.16-.2.328-.4.476-.582.112-.134.224-.269.335-.405l.292-.363.007-.009c.162-.2.324-.4.488-.6l.029-.036c.162-.2.324-.394.488-.589h0l0,0c0,.092,0,.183-.007.275l0,.058c0,.04,0,.081,0,.121a8.44,8.44,0,0,1-.1,1.1,3.157,3.157,0,0,1-.195.6,3.888,3.888,0,0,1-.445.654,4.16,4.16,0,0,1-.551.506,3.944,3.944,0,0,1-.557.282l-.2.088-.045.02-.012.005c-.124.056-.252.113-.381.163a3.284,3.284,0,0,1-.485.123l-.074.012h0C165.969,305.947,166.017,305.861,166.063,305.777Zm-16.179,15.774c-.084-.007-.167-.011-.251-.014l-.173,0h-.047c-.19,0-.386-.007-.579-.026-.273-.027-.544-.074-.773-.117a7.918,7.918,0,0,1-.942-.243,9.038,9.038,0,0,1-.953-.382,8.845,8.845,0,0,1-1.552-1.045c-.159-.145-.311-.292-.453-.437a4.915,4.915,0,0,1-.415-.5,4.1,4.1,0,0,1-.325-.619c-.015-.058-.027-.107-.035-.157l0-.01h0v0h.1a4.433,4.433,0,0,1,.733.066,9.584,9.584,0,0,1,1.967.644,13.272,13.272,0,0,1,1.42.839c.267.181.528.373.773.569.195.155.384.323.551.47a10.907,10.907,0,0,1,.935.942l.01.012,0,.008,0,0h0Zm17.379-27.172a2.767,2.767,0,0,1-.325.445,2.387,2.387,0,0,1-.31.291,3.854,3.854,0,0,1-.638.289,2.16,2.16,0,0,1-.351.079h-.072c-.113,0-.233-.007-.367-.02l-.046-.005c-.132-.014-.268-.028-.4-.049-.161-.036-.29-.069-.406-.1a2.9,2.9,0,0,1-.381-.147,1.881,1.881,0,0,1-.2-.136,1.95,1.95,0,0,1-.183-.211,2.908,2.908,0,0,1-.237-.475c-.07-.219-.126-.441-.184-.689a4.947,4.947,0,0,1-.11-.619h0c.224.048.451.092.664.132l.18.035.01,0a8.721,8.721,0,0,0,1.02.157c.278.02.524.03.755.03.183,0,.353-.006.519-.018.408-.03.822-.079,1.262-.147l.161-.027h0A5.667,5.667,0,0,1,167.263,294.38Zm-10.9-26.345a3.154,3.154,0,0,1,.555-.139c.09-.006.177-.009.258-.009a3.241,3.241,0,0,1,.425.027,2.161,2.161,0,0,1,.324.092,5.092,5.092,0,0,1,.838.577l.01.008c.053.047.106.093.157.141l.063.062a1.157,1.157,0,0,0,.211.18.708.708,0,0,0,.314.1h.015c.054,0,.115-.009.18-.018s.11-.041.164-.064a.612.612,0,0,0,.27-.28,1.137,1.137,0,0,1,.075-.131,2.72,2.72,0,0,1,.318-.277,7.2,7.2,0,0,1,1.34-.728,6.644,6.644,0,0,1,1.239-.307c.077-.005.157-.008.236-.008a5.251,5.251,0,0,1,.744.06,3.789,3.789,0,0,1,1.3.57c.162.112.321.231.479.35l.114.085a1.627,1.627,0,0,0,.253.155l.019.01a1.835,1.835,0,0,0,.241.1.894.894,0,0,0,.268.039,1.1,1.1,0,0,0,.241-.027,1.01,1.01,0,0,0,.369-.186q.131-.1.259-.194l.12-.094.1-.079a3.868,3.868,0,0,1,.619-.342,2.435,2.435,0,0,1,.413-.1c.064,0,.129-.006.194-.006a3,3,0,0,1,.377.024,3.3,3.3,0,0,1,.5.143,1.98,1.98,0,0,1,.265.172c.1.091.2.189.294.275.123.119.251.242.386.354l.034.028a1.838,1.838,0,0,0,.233.176c.047.027.1.052.158.077l.041.018a.758.758,0,0,0,.225.054l.025,0a.384.384,0,0,0,.062,0,.712.712,0,0,0,.385-.121l.139-.1.009-.006a3.625,3.625,0,0,1,.632-.352,3.772,3.772,0,0,1,.721-.174c.092-.006.172-.009.244-.009.049,0,.1,0,.146,0,.134.008.275.022.444.043a2.74,2.74,0,0,1,.491.133,1.685,1.685,0,0,1,.2.135,2.256,2.256,0,0,1,.259.276c.044.067.083.138.12.206l.032.058c.012.02.023.041.033.063l0,.008h0v0c-.03,0-.059,0-.088,0-.048,0-.1,0-.143,0H175.3c-.054,0-.107.005-.161.005a1.93,1.93,0,0,0-.412.039,2.606,2.606,0,0,0-.459.162c-.131.058-.259.127-.384.195l-.114.062a4.746,4.746,0,0,0-.472.293,9.91,9.91,0,0,0-1.249.984l-.166.159-.108.1-.318.3-.042.04-.028.026c-.1-.13-.2-.261-.315-.39-.144-.165-.293-.318-.434-.457a5.6,5.6,0,0,0-.594-.526,4.152,4.152,0,0,0-1.231-.661,3.526,3.526,0,0,0-1.056-.153c-.112,0-.223,0-.332.012a5.122,5.122,0,0,0-.739.1,4.286,4.286,0,0,0-.559.165,3.384,3.384,0,0,0-.646.3,3.946,3.946,0,0,0-.6.45,4.99,4.99,0,0,0-.682.8c-.028.04-.055.081-.081.121h0l-.084-.122a5.107,5.107,0,0,0-.37-.481,5.507,5.507,0,0,0-.57-.551,3.207,3.207,0,0,0-.522-.365,2.684,2.684,0,0,0-.757-.3,2.63,2.63,0,0,0-.485-.065h-.05a3.321,3.321,0,0,0-.455.039,3.086,3.086,0,0,0-.767.219,3.32,3.32,0,0,0-.675.41,3.629,3.629,0,0,0-.5.444c-.1.1-.211.225-.321.357l-.037.045h0a8.134,8.134,0,0,0-.411-.872l-.1-.182-.007-.013c-.059-.107-.117-.213-.178-.319a3.56,3.56,0,0,0-.217-.321l-.052-.072a2.175,2.175,0,0,0-.172-.217,3.186,3.186,0,0,0-.32-.3,1.98,1.98,0,0,0-.257-.188,2.992,2.992,0,0,0-.526-.237l-.1-.033h0C156.251,268.085,156.308,268.059,156.365,268.035Zm-1.485,13.124c-.091-.343-.186-.7-.258-1.056-.175-.879-.279-1.737-.357-2.46-.026-.249-.057-.543-.083-.839a18.957,18.957,0,0,1,.019-2.513c.026-.379.067-.771.131-1.235v0h0a.58.58,0,0,0,.092-.287c.01-.192.022-.384.034-.576l.043-.271.035-.227c.04-.251.077-.472.113-.677.035-.175.072-.346.112-.509l0,0h0a.342.342,0,0,0,.055-.126,3.273,3.273,0,0,1,.17-.6,2.651,2.651,0,0,1,.194-.312l.026-.024.019-.009.019-.009a1.911,1.911,0,0,1,.252-.043.407.407,0,0,0,.151-.052h0a.716.716,0,0,0,.076.031l.061.02.011,0c.086.029.176.059.262.094a2,2,0,0,1,.242.17l.009.008h0l0,0c.034.059.066.119.1.179l.061.111a.63.63,0,0,0,.233.239h0c.126.217.237.443.358.693a9.685,9.685,0,0,1,.377.91c.037.112.085.259.127.408.013.045.025.09.037.136.023.083.048.177.076.267a.844.844,0,0,0,.07.189.708.708,0,0,0,.233.265.506.506,0,0,0,.172.088.558.558,0,0,0,.188.033c.039,0,.08,0,.123-.008h.014l.053,0a.686.686,0,0,0,.313-.162.846.846,0,0,0,.144-.168.675.675,0,0,0,.034-.066l.015-.031c.052-.1.1-.212.15-.318l.061-.132c.074-.147.134-.258.2-.358a3.169,3.169,0,0,1,.238-.33,4.347,4.347,0,0,1,.615-.568,2.648,2.648,0,0,1,.418-.219,2.6,2.6,0,0,1,.444-.092h.055a1.943,1.943,0,0,1,.262.017,2.2,2.2,0,0,1,.319.108,3.325,3.325,0,0,1,.5.341c.133.124.255.251.374.385a4.344,4.344,0,0,1,.3.386,4.017,4.017,0,0,1,.215.366c.071.139.13.286.187.43l.007.019.015.036.029.073a.762.762,0,0,0,.282.344c.058.032.117.062.176.088a.634.634,0,0,0,.205.034.972.972,0,0,0,.173-.017.7.7,0,0,0,.47-.359c.055-.106.1-.217.149-.323l.016-.038c.015-.034.029-.068.044-.1a5.6,5.6,0,0,1,.613-.945,3.393,3.393,0,0,1,.468-.434,3.234,3.234,0,0,1,.494-.263,4.918,4.918,0,0,1,.889-.2c.1,0,.189-.007.27-.007a3.573,3.573,0,0,1,.539.038,3.032,3.032,0,0,1,.5.18,4.459,4.459,0,0,1,.684.461,7.472,7.472,0,0,1,1.028,1.153c.026.043.051.086.076.129l.01.018a2.264,2.264,0,0,0,.2.316.725.725,0,0,0,.517.251.808.808,0,0,0,.405-.092,1.28,1.28,0,0,0,.287-.216c.075-.069.146-.143.215-.215.041-.044.083-.087.124-.13.1-.1.208-.2.311-.3l.015-.015.072-.067c.064-.06.128-.121.192-.182.144-.139.293-.283.451-.416.205-.174.428-.333.642-.487l.007-.005.035-.025a4.823,4.823,0,0,1,.454-.27l.095-.05.011-.006c.124-.065.252-.132.382-.187a1.345,1.345,0,0,1,.167-.038c.075,0,.148-.007.223-.007a1.749,1.749,0,0,1,.176.008l.09.029a1.774,1.774,0,0,1,.147.1,3.654,3.654,0,0,1,.379.412c.017.03.034.062.048.093l.028.077.027.077a.7.7,0,0,0,.035.061h0l0,0v0h0l0,.014.03.109c.059.218.117.454.19.766a11.052,11.052,0,0,1,.232,1.441,18.567,18.567,0,0,1-.012,2.5c-.032.432-.079.841-.146,1.247l-.021.125c-.064.392-.128.784-.194,1.175-.034.2-.072.407-.109.61-.057.284-.122.57-.185.847l0,.017-.083.369c-.085.382-.192.794-.328,1.26-.108.368-.238.755-.4,1.185-.17.451-.326.852-.477,1.227-.126.312-.264.627-.423.964a18.12,18.12,0,0,1-1.009,1.749c-.17.262-.362.541-.586.853-.19.265-.395.546-.617.813-.313.354-.662.718-1.129,1.183a7.21,7.21,0,0,1-.631.538c-.15.117-.328.254-.508.383a5.2,5.2,0,0,1-.708.388c-.2.09-.414.179-.657.272a7.157,7.157,0,0,1-1.126.282c-.441.073-.809.124-1.16.157-.164.01-.331.016-.5.016-.247,0-.492-.012-.726-.035-.393-.039-.787-.115-1.169-.188l-.012,0-.061-.011a12.288,12.288,0,0,1-2.8-.918,6.855,6.855,0,0,1-1.209-.841l-.052-.048a14.827,14.827,0,0,1-1.085-1.058l0-.007h0c-.021-.037-.043-.074-.065-.111a8.265,8.265,0,0,0-.677-.912,4.541,4.541,0,0,0-.326-.34l-.066-.065-.017-.017-.005-.008h0l-.008-.012-.048-.071a7.24,7.24,0,0,1-.417-.7l-.043-.084-.024-.047c-.114-.226-.228-.452-.341-.678q-.2-.4-.393-.792a7.248,7.248,0,0,1-.313-.756c-.036-.106-.072-.213-.107-.32l-.013-.04-.005-.014c-.058-.176-.118-.358-.181-.536l-.105-.293-.157-.439c-.119-.348-.235-.737-.353-1.187Zm-10.06,7.2a3.327,3.327,0,0,1,.624.178,1.321,1.321,0,0,1,.126.075l.019.013a.88.88,0,0,0,.114.069l.025.013a.705.705,0,0,0,.15.064.949.949,0,0,0,.207.03.683.683,0,0,0,.154-.02.7.7,0,0,0,.492-.477c.014-.041.025-.081.038-.126l0-.009c.01-.035.019-.07.032-.1a3.111,3.111,0,0,1,.256-.4,4.193,4.193,0,0,1,.608-.611,3.616,3.616,0,0,1,.582-.327,1.306,1.306,0,0,1,.164-.042l.114,0a3.567,3.567,0,0,1,.515.041,2.334,2.334,0,0,1,.389.122,2.688,2.688,0,0,1,.381.246,4.155,4.155,0,0,1,.377.366c.053.061.1.128.149.193a2.24,2.24,0,0,0,.161.206,1.028,1.028,0,0,0,.406.289.686.686,0,0,0,.235.042.873.873,0,0,0,.557-.225.913.913,0,0,0,.106-.117l.021-.026a1.143,1.143,0,0,1,.14-.141,4.165,4.165,0,0,1,.75-.426,3.636,3.636,0,0,1,.733-.164c.095-.008.2-.016.3-.016h.042a3.646,3.646,0,0,1,.377.03,4.3,4.3,0,0,1,.674.179c.224.082.45.174.671.273.141.069.289.15.454.248l.1.06v0h0l.039.06c.256.4.552.78.863,1.175.223.283.453.576.7.841h0l0,0,.012.042-.065.016a4.987,4.987,0,0,0-.5.17,3.017,3.017,0,0,0-.53.276,9.147,9.147,0,0,0-.875.635c-.059.048-.116.1-.173.146v0l0,0a3.967,3.967,0,0,0-.039-.453,3.144,3.144,0,0,0-.131-.588,3.221,3.221,0,0,0-.789-1.338,1.96,1.96,0,0,0-.365-.28,2.992,2.992,0,0,0-.4-.186,2.287,2.287,0,0,0-.375-.093l-.055-.01a.987.987,0,0,0-.188-.016,2.536,2.536,0,0,0-.393.041,1.434,1.434,0,0,0-.494.2,1.8,1.8,0,0,0-.384.308c-.147.155-.28.322-.413.494-.072.091-.139.194-.2.285l-.019.03-.039.06c-.093.14-.179.282-.273.438l-.032.05-.019.031h0a3.146,3.146,0,0,0-.375-.769l-.022-.032a2.2,2.2,0,0,0-.244-.324,2.177,2.177,0,0,0-.35-.305,3.129,3.129,0,0,0-.351-.185l-.063-.029a1.947,1.947,0,0,0-.326-.125,2.292,2.292,0,0,0-.453-.077h-.059a2.05,2.05,0,0,0-.322.031.828.828,0,0,0-.139.036l-.034.012a2.181,2.181,0,0,0-.34.141,1.746,1.746,0,0,0-.5.446,2.868,2.868,0,0,0-.3.473c-.108.2-.213.426-.313.661l-.054.123-.019.045h0v0c-.107-.149-.228-.294-.342-.43a6.062,6.062,0,0,0-.453-.481c-.055-.053-.111-.105-.167-.158l-.022-.02c-.075-.069-.15-.139-.224-.212a5.115,5.115,0,0,0-.557-.462c-.045-.033-.092-.062-.139-.09l-.008-.005a1.9,1.9,0,0,1-.161-.1.3.3,0,0,0-.027-.02l-.008-.007-.009,0h0A2.159,2.159,0,0,1,144.82,288.359Zm3.217,15.475a5.062,5.062,0,0,1-.688-.432c-.223-.17-.442-.345-.649-.522a7.334,7.334,0,0,1-.838-.9c-.254-.329-.507-.674-.751-1.023-.19-.289-.377-.607-.572-.974a8.051,8.051,0,0,1-.449-1.018c-.12-.376-.237-.767-.348-1.164s-.188-.8-.257-1.166l0-.014c-.023-.12-.046-.241-.068-.362-.052-.268-.106-.553-.155-.831-.069-.4-.111-.809-.143-1.16-.048-.7-.079-1.378-.094-2.028-.007-.352,0-.709.022-1.062a9.455,9.455,0,0,1,.135-1.058,3.6,3.6,0,0,1,.19-.688c.026-.049.052-.1.08-.147h0a.675.675,0,0,0,.146.138.793.793,0,0,0,.216.1.938.938,0,0,0,.1.077c.023.015.046.029.07.043l.057.036a3.438,3.438,0,0,1,.3.217l.106.1c.056.053.112.107.168.158.118.108.254.234.382.365s.258.267.37.407l.049.062.032.039.012.015c.063.078.128.158.188.24a5.067,5.067,0,0,1,.316.628l.014.032c.016.036.032.073.048.11a.777.777,0,0,0,.29.365.754.754,0,0,0,.365.122h.042a.746.746,0,0,0,.485-.2.8.8,0,0,0,.2-.291l.01-.02c.15-.308.283-.631.411-.942l0-.009c.092-.225.2-.479.306-.722a3.276,3.276,0,0,1,.294-.5c.024-.024.048-.047.074-.069s.048-.025.073-.037l.09-.022a1.139,1.139,0,0,1,.119.009,2.327,2.327,0,0,1,.315.121,1.4,1.4,0,0,1,.154.1,2.168,2.168,0,0,1,.153.179,3.163,3.163,0,0,1,.225.438,2.688,2.688,0,0,1,.086.432c.007.162.008.316,0,.467,0,.05,0,.1-.006.157-.005.121-.01.246-.006.367a1.783,1.783,0,0,0,.019.221.748.748,0,0,0,.168.341.722.722,0,0,0,.541.257.549.549,0,0,0,.145-.018.822.822,0,0,0,.412-.24l.008-.01c.06-.068.123-.138.178-.213.083-.112.162-.229.238-.342.032-.048.064-.095.1-.142.252-.368.481-.743.673-1.062a8.34,8.34,0,0,1,.636-.921,1.915,1.915,0,0,1,.157-.154c.032-.019.065-.037.1-.054s.054-.011.08-.015.067,0,.1.007a1.914,1.914,0,0,1,.24.084,1.729,1.729,0,0,1,.149.1,2.09,2.09,0,0,1,.161.183,3.622,3.622,0,0,1,.256.5,3.686,3.686,0,0,1,.126.6,4,4,0,0,1-.042.715c-.025.114-.052.222-.083.322-.01.038-.023.075-.035.113l-.006.016a1.277,1.277,0,0,0-.088.4.8.8,0,0,0,.511.789.848.848,0,0,0,.254.04.859.859,0,0,0,.451-.133,4,4,0,0,0,.478-.348c.133-.112.263-.232.378-.337l.019-.017c.095-.087.19-.174.288-.259.235-.2.478-.4.722-.579.139-.094.248-.162.355-.221a2.964,2.964,0,0,1,.363-.171,2.737,2.737,0,0,1,.292-.073c.052,0,.1,0,.152.009s.1.03.147.048l.07.046a2.19,2.19,0,0,1,.16.195,3.586,3.586,0,0,1,.333.616,3.961,3.961,0,0,1,.153.762,8.079,8.079,0,0,1-.1,1.814c-.046.229-.1.46-.154.684l-.008.035-.01.042c-.033.139-.066.279-.1.419-.1.441-.219.874-.335,1.282s-.263.816-.407,1.208l-.02.055c-.139.38-.3.766-.494,1.18-.041.088-.083.176-.124.263l-.037.079-.086.18c-.131.261-.275.521-.428.772q-.089.147-.176.3c-.08.135-.179.3-.278.459a12.8,12.8,0,0,1-.976,1.342c-.239.259-.459.481-.675.681a8.186,8.186,0,0,1-.657.534,5.855,5.855,0,0,1-1.091.563,4.577,4.577,0,0,1-.912.214c-.072,0-.144.006-.216.006-.052,0-.1,0-.154,0-.129-.009-.263-.025-.423-.05a6.23,6.23,0,0,1-.762-.211,8.719,8.719,0,0,1-.848-.356l-.21-.1c-.2-.1-.4-.2-.606-.29-.119-.055-.239-.107-.363-.16S148.161,303.892,148.036,303.834Zm2.272,4.129-.023-.014a3.718,3.718,0,0,1-.315-.211,2.017,2.017,0,0,1-.19-.214,2.782,2.782,0,0,1-.2-.442,4.336,4.336,0,0,1-.175-.948l0-.053v0h0v0h0c.181.08.37.156.58.232a6.242,6.242,0,0,0,.65.187,4.7,4.7,0,0,0,.78.139c.119.009.243.014.366.014a4.357,4.357,0,0,0,.926-.1l.072-.017h0l-.006.037a5.377,5.377,0,0,1-.307,1.1l-.016.029-.01.019a.942.942,0,0,1-.091.139,1.924,1.924,0,0,1-.194.177,3.423,3.423,0,0,1-.528.267,1.989,1.989,0,0,1-.215.058,2.03,2.03,0,0,1-.284-.023,2.68,2.68,0,0,1-.446-.152C150.559,308.119,150.44,308.045,150.308,307.963Zm12.437,19.709c-.726.019-1.449.056-2.172.119-.662.058-1.324.119-1.983.2q-1.045.136-2.09.276c-.7.1-1.4.2-2.1.31-.347.054-.695.1-1.042.158-.325.05-.648.119-.971.181l-.19.039c0-.043-.006-.084-.011-.127s0-.056,0-.085c-.005-.095-.015-.189-.024-.284s0-.215-.012-.323c-.014-.19-.025-.38-.04-.57.005.066.01.132.015.2-.028-.414-.038-.829-.058-1.243s-.039-.827-.048-1.242,0-.832,0-1.249c0-.369-.005-.738-.015-1.107a.625.625,0,0,0-.009-.316c-.01-.369-.023-.739-.019-1.109q.008-.662.009-1.325c0-.879-.012-1.759,0-2.638l.015-1.084c.036-.124.074-.249.115-.372l.067-.016c.1-.026.2-.06.3-.093.18-.059.362-.113.544-.164.339-.1.676-.19,1.02-.268.394-.09.791-.171,1.18-.284.254-.073.5-.167.749-.262a5.189,5.189,0,0,0,.564-.244c.388-.2.763-.432,1.133-.67a5.758,5.758,0,0,0,1.108-.912,4.913,4.913,0,0,0,.506-.629,4.266,4.266,0,0,0,.359-.693A6.645,6.645,0,0,0,160,310.46c.077-.417.133-.839.181-1.259.026-.229.055-.458.066-.689,0-.106.005-.212.005-.318a1.134,1.134,0,0,0-.092-.517.749.749,0,0,0-.6-.4.557.557,0,0,0-.058,0,1.234,1.234,0,0,0-.464.128c-.091.039-.18.082-.269.125-.175.084-.347.183-.515.281a13.019,13.019,0,0,0-1.21.8c-.179.133-.357.266-.529.408s-.36.31-.539.469c-.319.284-.638.572-.942.873a25.72,25.72,0,0,0-1.878,2.066q-.283.351-.577.693c-.183.212-.367.424-.541.644q.008-.715.014-1.43c0-.509.018-1.018.041-1.527.012-.27.017-.54.025-.81.005-.162.015-.324.025-.486a4.276,4.276,0,0,0,.436-.2,2.908,2.908,0,0,0,.506-.325,1.463,1.463,0,0,0,.177-.172,2.221,2.221,0,0,0,.311-.418,4.123,4.123,0,0,0,.4-1.129,7.07,7.07,0,0,0,.175-1.241c.186-.1.371-.2.546-.321.215-.145.426-.3.628-.462a9.313,9.313,0,0,0,.924-.868,11.9,11.9,0,0,0,.9-1.111c.229-.314.442-.635.644-.967.22-.362.442-.724.633-1.1.219-.437.43-.881.628-1.328.17-.384.315-.779.453-1.176.148-.421.281-.845.4-1.274s.217-.889.326-1.333a9.587,9.587,0,0,0,.334-2.753,5.554,5.554,0,0,0-.157-1.2c.213.1.432.2.651.289.241.1.484.185.729.267a.642.642,0,0,0,.012.084l.008.094c.016.23.032.459.068.687.028.182.071.361.115.54a4.75,4.75,0,0,0,.422,1.245,3,3,0,0,0,.38.541,2.272,2.272,0,0,0,.337.3,2.185,2.185,0,0,0,.355.2,3.587,3.587,0,0,0,.584.226c.126.036.253.065.382.092-.028.188-.057.376-.074.566-.019.212-.033.424-.044.637-.023.458-.054.916-.086,1.374-.063.9-.116,1.809-.179,2.714-.032.456-.051.912-.085,1.367s-.065.9-.088,1.35-.053.927-.073,1.391c-.018.43-.025.86-.041,1.289-.034.9-.1,1.807-.154,2.711q-.084,1.379-.18,2.757c-.032.454-.047.91-.063,1.366-.015.439-.046.877-.054,1.316-.016.878-.061,1.756-.07,2.634,0,.247-.01.494-.014.741-.215-.152-.435-.3-.663-.43a16.338,16.338,0,0,0-2.372-1.112c-.2-.075-.391-.151-.591-.214s-.4-.114-.6-.16c-.1-.022-.2-.043-.3-.064l-.286-.056a.868.868,0,0,0-.17-.016.856.856,0,0,0-.365.081,1.251,1.251,0,0,0-.59,1.052,2.229,2.229,0,0,0,.01.42,2.558,2.558,0,0,0,.035.27,2.632,2.632,0,0,0,.245.7,3.548,3.548,0,0,0,.445.653,4.439,4.439,0,0,0,.443.435,6.365,6.365,0,0,0,1.129.855,5.181,5.181,0,0,0,.651.312,4.316,4.316,0,0,0,.579.162,7.939,7.939,0,0,0,1.364.209,6.846,6.846,0,0,0,1.061-.039q.023.7.06,1.39c.029.551.04,1.1.058,1.654s.046,1.118.089,1.675c0,.06.006.12.005.179s0,.145.009.217c0,.019,0,.039,0,.058a2.519,2.519,0,0,0,.012.316,1.141,1.141,0,0,0,.044.205Zm-9.564-13.414.252-.291.015-.018c.228-.265.464-.539.693-.811.255-.3.545-.635.844-.95.268-.282.562-.578.928-.933.306-.3.629-.579.942-.852l.012-.01c.164-.143.358-.31.556-.47.151-.122.31-.236.469-.35l.057-.041.106-.076c.255-.17.518-.329.807-.49h0l0,0c-.008.062-.016.123-.024.185l-.005.039c-.041.3-.091.661-.152,1.011a6.1,6.1,0,0,1-.363,1.244,3.349,3.349,0,0,1-.186.322c-.068.1-.143.194-.2.265-.141.155-.273.288-.4.406a5.282,5.282,0,0,1-.42.329c-.273.183-.561.359-.881.538a7.063,7.063,0,0,1-.928.426,8.593,8.593,0,0,1-.938.26l-.214.046-.08.017-.019,0c-.216.046-.439.094-.657.149l-.045.012-.13.033-.038.01v0Zm9.964,6.241c-.081.01-.163.018-.245.026-.154.009-.294.014-.43.014-.086,0-.175,0-.265-.007a6.036,6.036,0,0,1-.8-.1c-.162-.033-.335-.069-.5-.12a3.343,3.343,0,0,1-.466-.179,5.545,5.545,0,0,1-1-.7,4.145,4.145,0,0,1-.535-.568,2.5,2.5,0,0,1-.171-.335,1.928,1.928,0,0,1-.05-.227h0c.158.037.308.076.458.119.266.077.534.183.75.27.508.2.955.4,1.365.594l-.031-.016.037.018.087.042a10.209,10.209,0,0,1,1.278.777c.138.1.279.2.418.31l.1.082h0Z" transform="translate(-132.54 -265.986)"/><path class="b" d="M208.243,362.707l.029.005h0Z" transform="translate(-159.416 -299.189)"/><path class="b" d="M208.661,362.787l.052.01.115.022.011,0Z" transform="translate(-159.567 -299.217)"/><path class="b" d="M202.233,320.3l.036.023a2.614,2.614,0,0,1,.234.287c.036.055.072.115.119.2s.089.143.14.216l.01.015a.809.809,0,0,0,.192.175.575.575,0,0,0,.348.109.681.681,0,0,0,.449-.167.661.661,0,0,0,.052-.923.189.189,0,0,1-.014-.017l-.046-.074-.006-.009c-.056-.09-.113-.182-.174-.271a3.367,3.367,0,0,0-.286-.357,1.6,1.6,0,0,0-.633-.43,2.4,2.4,0,0,0-.407-.095l-.046-.007a2.015,2.015,0,0,0-.31-.025h-.032a3.2,3.2,0,0,0-.385.03l-.044.005c-.076.009-.151.019-.225.033a1.511,1.511,0,0,0-.538.206c-.107.069-.212.149-.3.22-.049.037-.1.075-.147.111a1.829,1.829,0,0,0-.387.44.588.588,0,0,0-.094.452.639.639,0,0,0,.27.417.612.612,0,0,0,.338.1.656.656,0,0,0,.53-.278c.027-.038.054-.078.083-.115.044-.041.092-.078.147-.121l.068-.053c.034-.027.069-.054.1-.081s.047-.027.072-.038a2.221,2.221,0,0,1,.344-.056h.076a2.171,2.171,0,0,1,.3.022A1.347,1.347,0,0,1,202.233,320.3Z" transform="translate(-156.473 -284.177)"/><path class="b" d="M213.88,320.362a.694.694,0,0,0,.312.21.6.6,0,0,0,.215.038.761.761,0,0,0,.265-.05.7.7,0,0,0,.446-.32.748.748,0,0,0,.113-.346.789.789,0,0,0-.073-.365l-.005-.015a.357.357,0,0,0-.044-.082.585.585,0,0,0-.1-.155.606.606,0,0,0-.46-.2c-.022,0-.043,0-.065,0l-.048,0a.693.693,0,0,0-.346.087.747.747,0,0,0-.262.236.786.786,0,0,0-.1.188.8.8,0,0,0-.019.449A.773.773,0,0,0,213.88,320.362Z" transform="translate(-161.383 -284.216)"/><path class="b" d="M205.951,324.5a1.912,1.912,0,0,0,.183.576c.107.184.218.361.332.525a1.465,1.465,0,0,0,.476.43,4.149,4.149,0,0,0,.689.321,2.431,2.431,0,0,0,.44.093,1.329,1.329,0,0,0,.192.013c.029,0,.059,0,.088,0a2.281,2.281,0,0,0,.424-.053,2.4,2.4,0,0,0,.439-.161,4.17,4.17,0,0,0,.47-.265,2.226,2.226,0,0,0,.335-.247,3.073,3.073,0,0,0,.273-.306l.021-.027a3.746,3.746,0,0,0,.326-.48,1.549,1.549,0,0,0,.265-.733.711.711,0,0,0-.476-.705.729.729,0,0,0-.224-.036.717.717,0,0,0-.321.076.681.681,0,0,0-.346.4,1.139,1.139,0,0,1-.074.2,3.7,3.7,0,0,1-.356.545,1.439,1.439,0,0,1-.164.143,2.973,2.973,0,0,1-.478.26,1.3,1.3,0,0,1-.154.034H208.3a1.662,1.662,0,0,1-.208-.013,2.762,2.762,0,0,1-.474-.186,1.035,1.035,0,0,1-.095-.058,1.622,1.622,0,0,1-.164-.2l-.048-.069-.048-.07a.887.887,0,0,1-.046-.076c-.013-.05-.023-.1-.033-.151l-.009-.041a.631.631,0,0,0-.614-.492.58.58,0,0,0-.127.014A.628.628,0,0,0,205.951,324.5Z" transform="translate(-158.703 -285.724)"/><path class="b" d="M175.99,289.028a.922.922,0,0,0,.785.472h.035a1.171,1.171,0,0,0,.587-.177,1.445,1.445,0,0,0,.47-.475,1.011,1.011,0,0,0,.149-.494.921.921,0,0,0-.257-.639.908.908,0,0,0-.22-.168,1.177,1.177,0,0,0-.444-.141.772.772,0,0,0-.118-.009h-.088a1.054,1.054,0,0,0-.472.121,1.082,1.082,0,0,0-.551.942,1.437,1.437,0,0,0,.031.312A1.12,1.12,0,0,0,175.99,289.028Z" transform="translate(-147.947 -273.195)"/><path class="b" d="M187.939,288.665a.987.987,0,0,0,.2.169.884.884,0,0,0,.456.14.444.444,0,0,0,.052,0,.944.944,0,0,0,.393-.094,1.05,1.05,0,0,0,.2-.136l.022-.017a1,1,0,0,0,.157-.172l.021-.027.013-.018a.872.872,0,0,0,.049-.951,1.041,1.041,0,0,0-.318-.332.791.791,0,0,0-.427-.135.943.943,0,0,0-.216-.035h-.034a.729.729,0,0,0-.521.228,1,1,0,0,0-.206.33.98.98,0,0,0-.06.247l-.005.035a.9.9,0,0,0,.036.431A.924.924,0,0,0,187.939,288.665Z" transform="translate(-152.154 -273.08)"/><path class="b" d="M178.629,292.064a.7.7,0,0,0-.081.5,3.252,3.252,0,0,0,.108.536c.066.212.135.415.214.62a2.646,2.646,0,0,0,.735,1.055,3.732,3.732,0,0,0,1.277.735,4.394,4.394,0,0,0,.592.144l.038.007a4.162,4.162,0,0,0,.709.089h.028a2.519,2.519,0,0,0,1.248-.331,4.092,4.092,0,0,0,.565-.393,2.4,2.4,0,0,0,.449-.5,3.9,3.9,0,0,0,.3-.578l.015-.034c.082-.179.148-.346.2-.507.04-.121.078-.251.11-.365l.013-.047.028-.1c.022-.074.041-.151.058-.229,0-.017.007-.033.011-.05l.005-.023a.952.952,0,0,0,.036-.305.708.708,0,0,0-.084-.361.721.721,0,0,0-.413-.339.712.712,0,0,0-.208-.031.73.73,0,0,0-.679.5,1.68,1.68,0,0,0-.048.178l0,.013c-.009.038-.017.076-.027.113-.023.088-.05.175-.08.272l-.015.048-.022.072a6.426,6.426,0,0,1-.257.7,2.385,2.385,0,0,1-.212.36,2.286,2.286,0,0,1-.265.24,2.752,2.752,0,0,1-.372.208,2.107,2.107,0,0,1-.261.062h-.082a3.491,3.491,0,0,1-.522-.046,3.734,3.734,0,0,1-.735-.212,3.548,3.548,0,0,1-.517-.32,2.277,2.277,0,0,1-.247-.261,2.722,2.722,0,0,1-.231-.428c-.038-.107-.074-.214-.105-.316a2.93,2.93,0,0,1-.1-.484.629.629,0,0,0-.286-.4.653.653,0,0,0-.348-.1.686.686,0,0,0-.151.017A.666.666,0,0,0,178.629,292.064Z" transform="translate(-148.962 -274.772)"/><path class="b" d="M156.721,313.946a2.067,2.067,0,0,0,.249-.281l.036-.047a1.736,1.736,0,0,0,.159-.247c.071-.127.131-.262.189-.393l.005-.011c.046-.1.1-.229.157-.355.025-.06.046-.124.067-.186l.02-.058a.7.7,0,0,0-.635-1,.662.662,0,0,0-.47.187,1.111,1.111,0,0,0-.271.439l-.022.059-.015.04c-.013.038-.027.076-.042.113-.042.105-.089.218-.14.332a2.4,2.4,0,0,1-.2.335,1.667,1.667,0,0,1-.165.151,2.225,2.225,0,0,1-.262.153l-.06.016h0l-.055,0-.015-.005a1.611,1.611,0,0,1-.138-.089,1.776,1.776,0,0,1-.145-.148,1.748,1.748,0,0,1-.112-.22l-.017-.042a1.961,1.961,0,0,1-.1-.433c-.007-.066-.014-.131-.021-.2a.611.611,0,0,0-.284-.4.646.646,0,0,0-.892.2l-.035.076-.035.077a.663.663,0,0,0-.011.344c0,.014,0,.029,0,.043a3.024,3.024,0,0,0,.094.544,5.252,5.252,0,0,0,.194.531,1.677,1.677,0,0,0,.326.487,2.168,2.168,0,0,0,.462.381,1.538,1.538,0,0,0,.791.222h.009a1.731,1.731,0,0,0,.836-.238A2.956,2.956,0,0,0,156.721,313.946Z" transform="translate(-139.986 -281.576)"/><path class="b" d="M163.727,312.308l0,.016c.02.08.041.161.065.241.033.107.074.215.117.326l.015.038a2.683,2.683,0,0,0,.11.253,1.5,1.5,0,0,0,.54.552,2.494,2.494,0,0,0,.574.275,2.243,2.243,0,0,0,.393.084.856.856,0,0,0,.127.009,1.72,1.72,0,0,0,.3-.031,1.842,1.842,0,0,0,.419-.145,2.17,2.17,0,0,0,.267-.143c.076-.048.153-.1.228-.153l.066-.048a1.746,1.746,0,0,0,.72-.981,2.573,2.573,0,0,0,.08-.339l0-.017a2.318,2.318,0,0,0,.052-.466.72.72,0,0,0-.188-.5.7.7,0,0,0-.487-.22h-.023a.7.7,0,0,0-.477.189.724.724,0,0,0-.221.486l0,.046c0,.042-.008.083-.013.125a2.355,2.355,0,0,1-.1.374c-.016.029-.033.058-.052.087a1.778,1.778,0,0,1-.161.139,2.273,2.273,0,0,1-.342.2c-.027.009-.054.017-.08.023h0l-.034,0a2.1,2.1,0,0,1-.283-.09,1.753,1.753,0,0,1-.17-.1l-.015-.017a2.12,2.12,0,0,1-.136-.281c-.033-.1-.06-.192-.087-.29l-.01-.036c-.014-.05-.028-.1-.043-.151a.652.652,0,0,0-.276-.384.632.632,0,0,0-.335-.1.618.618,0,0,0-.549.328.567.567,0,0,0-.06.446C163.684,312.14,163.707,312.226,163.727,312.308Z" transform="translate(-143.617 -281.469)"/><path class="b" d="M159.357,316.445a.655.655,0,0,0-.462.2.575.575,0,0,0-.172.413,3.65,3.65,0,0,0,.034.456,1.364,1.364,0,0,0,.1.319l.025.062a4.579,4.579,0,0,0,.2.431,1.463,1.463,0,0,0,.521.552,2.964,2.964,0,0,0,.545.28,1.633,1.633,0,0,0,.207.058,1.713,1.713,0,0,0,.367.045h.041a2.213,2.213,0,0,0,.28-.029,1.32,1.32,0,0,0,.262-.086l.023-.009.04-.016a1.689,1.689,0,0,0,.261-.134,2.147,2.147,0,0,0,.657-.616,2.308,2.308,0,0,0,.3-.708,3.891,3.891,0,0,0,.078-.452.7.7,0,0,0-.492-.692.668.668,0,0,0-.2-.03.7.7,0,0,0-.677.491c-.058.211-.11.388-.177.564-.017.029-.035.058-.054.087a1.817,1.817,0,0,1-.15.136,1.4,1.4,0,0,1-.168.091l-.029.007c-.029,0-.056,0-.086,0a1.51,1.51,0,0,1-.185-.06,1.845,1.845,0,0,1-.229-.127c-.035-.058-.068-.118-.1-.178l-.021-.038-.019-.034c-.027-.05-.054-.1-.078-.15,0-.015-.007-.029-.011-.042l0-.011c0-.041,0-.082,0-.122a.646.646,0,0,0-.171-.453.635.635,0,0,0-.44-.2Z" transform="translate(-141.865 -283.318)"/><path class="b" d="M218.281,300.893h0l.038.033Z" transform="translate(-163.28 -277.969)"/><path class="b" d="M153.768,388.986c-.039-.191-.072-.385-.1-.574l0-.011c-.033-.2-.072-.426-.117-.643-.088-.421-.18-.848-.275-1.271-.038-.168-.078-.335-.119-.5l-.01-.044-.01-.039-.008-.032c-.05-.206-.106-.44-.155-.666-.054-.251-.107-.5-.159-.756l-.016-.08q-.054-.26-.108-.52c-.042-.2-.082-.407-.119-.6l0-.009,0-.016c-.041-.213-.083-.434-.129-.649-.08-.371-.157-.772-.248-1.3-.042-.238-.091-.479-.139-.712l-.006-.032c-.037-.179-.074-.358-.108-.538-.045-.237-.1-.477-.152-.708l0-.02-.009-.039c-.04-.173-.08-.352-.116-.531l-.023-.11c-.08-.389-.161-.785-.253-1.174-.1-.436-.214-.869-.33-1.285-.048-.178-.1-.357-.159-.531l-.012-.037c-.066-.208-.134-.423-.19-.635-.03-.113-.06-.228-.09-.342-.078-.3-.157-.6-.243-.893-.035-.117-.066-.233-.1-.351-.023-.084-.046-.168-.07-.251-.058-.2-.127-.4-.2-.6-.05-.137-.1-.274-.156-.411l-.057-.148-.061-.163-.008-.022-.009-.024,0-.009c-.034-.094-.07-.188-.108-.281-.062-.152-.139-.341-.23-.515-.027-.05-.054-.1-.082-.149s-.044-.078-.066-.117a1.776,1.776,0,0,0-.233-.33.843.843,0,0,0-.586-.253h-.039a1.108,1.108,0,0,0-.227.032l-.06.012a4.292,4.292,0,0,0-.848.3l-.134.058-.076.032a.371.371,0,0,0-.1.024q-.169.067-.335.139c-.193.081-.422.178-.651.284-.1.044-.19.09-.286.139l-.011.005-.21.1a1.114,1.114,0,0,0-.287.186.9.9,0,0,0-.247.443,2.308,2.308,0,0,0-.06.419,1.943,1.943,0,0,0,.032.38l.011.079c.023.159.056.319.088.474l.034.165c.034.171.08.4.129.624s.107.463.163.688l0,.013.009.038c.046.186.092.371.135.559.037.162.069.324.1.5l.02.105c.04.206.09.422.156.681.126.5.217.909.287,1.293.014.074.029.149.043.224l-.2.076-.153.058-.247.094c-.266.1-.534.208-.793.312l-.027.011-.417.167c-.459.182-.874.352-1.268.519-.287.122-.574.244-.86.369-.348.145-.689.288-1.035.428l-.22.09-.015.007c-.287.117-.61.249-.926.361-.2.07-.407.146-.625.228q-.031-.189-.06-.378c-.025-.19-.046-.381-.072-.571-.056-.4-.122-.8-.189-1.2-.03-.177-.068-.353-.106-.528-.029-.135-.071-.266-.105-.4s-.054-.259-.086-.387-.065-.255-.095-.383a7.846,7.846,0,0,0-.23-.79c-.034-.1-.074-.2-.112-.3a2.526,2.526,0,0,0-.184-.416,1.365,1.365,0,0,0-.24-.3.975.975,0,0,0-.69-.234h-.011a4.311,4.311,0,0,0-1.512.362,1.146,1.146,0,0,0-.111.031c-.194.062-.391.133-.585.213l-.193.077-.012,0c-.155.061-.314.124-.468.2-.024.011-.047.023-.07.037a1.892,1.892,0,0,0-.305.146,1.827,1.827,0,0,0-.221.166.7.7,0,0,0-.165.222,1.193,1.193,0,0,0-.255.348,2.082,2.082,0,0,0-.1.244,1.071,1.071,0,0,0-.036.238l0,.038a1.485,1.485,0,0,0,.027.364c0,.028.009.056.013.083.019.129.045.261.068.378.016.08.03.152.043.224.025.139.054.279.083.414.016.076.032.15.046.225.031.149.064.3.1.448l.017.073.032.148c.031.144.058.286.083.419.011.056.022.113.032.169l.005.029q.075.381.149.759l.025.124.091.463c.054.275.1.568.143.8l.019.113c.023.134.045.267.069.4.072.4.134.8.2,1.192l.02.133c.035.222.073.446.11.657v.009c.032.185.072.415.106.635.073.47.168.933.251,1.325.052.245.111.5.168.737.048.2.094.4.137.6.1.456.217.9.306,1.245l.046.175c.088.338.188.721.3,1.084.062.2.116.413.164.6l.005.021,0,.01c.048.185.1.394.164.6.042.14.086.281.13.42l.009.03c.076.243.153.49.221.736.019.07.038.141.057.212a5.717,5.717,0,0,0,.338,1.008.832.832,0,0,0,.083.136l.019.024a1.309,1.309,0,0,0,.208.241,1.347,1.347,0,0,0,.546.3,2.563,2.563,0,0,0,.478.074l.09,0a3.3,3.3,0,0,0,.56-.064l.009,0,.056-.009a4.178,4.178,0,0,0,.661-.177c.068-.024.135-.05.2-.076.111-.044.226-.088.344-.122.041-.011.084-.02.126-.029l.01,0a1.229,1.229,0,0,0,.212-.056.894.894,0,0,0,.357-.212.746.746,0,0,0,.194-.324l.012-.033a.256.256,0,0,0,.014-.062v-.012c.015-.106.029-.212.041-.318a3.22,3.22,0,0,0,.006-.595l-.009-.132v-.015c-.011-.176-.023-.358-.042-.536-.026-.227-.059-.465-.088-.675l-.007-.044c-.03-.222-.056-.44-.083-.657l0-.025-.009-.073c-.031-.252-.062-.511-.1-.768-.04-.334-.093-.676-.139-.978l0-.012c-.017-.111-.034-.222-.051-.334-.01-.078-.021-.155-.032-.232,0-.035-.009-.07-.015-.105l0-.019,0-.012c-.059-.417-.132-.855-.216-1.3-.055-.289-.106-.591-.151-.857-.025-.145-.048-.287-.074-.43-.033-.187-.067-.373-.1-.559l-.025-.131c.3-.1.613-.225.953-.369l-.065.023.082-.03h-.015c.235-.1.471-.2.734-.319l.191-.086.431-.178.07-.029.082-.034q.2-.082.4-.166l-.026.007c.263-.105.529-.206.786-.3l.019-.007c.123-.046.245-.092.368-.139.439-.169.836-.32,1.24-.464.174-.062.35-.121.526-.18l.01,0c.226-.075.458-.153.684-.237.208-.076.413-.16.589-.234l.19-.078.005.037.008.034c.045.2.092.4.145.6.113.434.235.9.367,1.352.029.1.055.2.082.3l0,.018,0,.015.01.038c.025.09.05.181.076.272l.04.139c.047.164.094.327.139.491l.057.21q.147.549.3,1.1c.073.263.142.541.2.787l.013.052c.033.133.065.265.1.4.067.264.148.53.22.765q.063.2.122.4c.038.136.088.275.128.387.022.061.043.123.064.184.027.079.053.158.079.237.036.11.072.22.111.33.086.244.186.481.272.681a1.162,1.162,0,0,0,.117.211,1.2,1.2,0,0,0,.457.418,1.307,1.307,0,0,0,.556.148.827.827,0,0,0,.106-.007,3.913,3.913,0,0,0,.475-.083l.3-.072.055-.013.046-.011c.081-.02.162-.039.243-.06l.1-.024c.152-.038.31-.076.462-.129a3.449,3.449,0,0,0,.6-.266,2.907,2.907,0,0,0,.427-.287.867.867,0,0,0,.149-.172l.032-.043a.875.875,0,0,0,.119-.455l0-.036a3.959,3.959,0,0,0-.121-1.1Z" transform="translate(-132.701 -301.962)"/><path class="b" d="M142.19,384.741l0,.035.012.086C142.2,384.822,142.2,384.781,142.19,384.741Z" transform="translate(-135.789 -306.904)"/><path class="b" d="M176.911,380.181l.007-.055c.026-.2.052-.419.069-.635a7.376,7.376,0,0,0-.008-1.285c-.036-.355-.076-.7-.142-1.04a5.33,5.33,0,0,0-.154-1.112,4.885,4.885,0,0,0-.458-1.074,10.009,10.009,0,0,0-.647-1,3.776,3.776,0,0,0-.468-.554,5.309,5.309,0,0,0-.441-.367,6.988,6.988,0,0,0-1.134-.709,5.927,5.927,0,0,0-.675-.288c-.188-.066-.381-.118-.575-.168A6.207,6.207,0,0,0,171,371.74c-.048,0-.1,0-.145,0-.162,0-.326.011-.489.018a6.808,6.808,0,0,0-.732.081,3.388,3.388,0,0,0-1.093.361h0l-.053.016c-.216.07-.43.152-.631.23a5.5,5.5,0,0,0-.7.33,4.151,4.151,0,0,0-.644.48,6.315,6.315,0,0,0-.922,1.035,11.583,11.583,0,0,0-.708,1.087,8.718,8.718,0,0,0-.62,1.4q-.054.145-.108.29c-.118.317-.24.645-.338.976-.118.4-.2.825-.272,1.232l0,.018c-.028.152-.05.307-.071.457-.011.078-.023.156-.035.234-.041.27-.08.554-.113.843a10.173,10.173,0,0,0-.049,1.335,7.76,7.76,0,0,0,.164,1.48,8.308,8.308,0,0,0,.378,1.258c.095.246.21.5.34.759a3.7,3.7,0,0,0,.41.6l.064.081-.038-.052a6.149,6.149,0,0,0,1.679,1.583c.184.115.38.228.6.346.173.094.365.185.6.287a7.411,7.411,0,0,0,.773.291,4.618,4.618,0,0,0,.635.131,5.834,5.834,0,0,0,.837.078h.08a4,4,0,0,0,1.433-.207,5.093,5.093,0,0,0,.768-.353,5.663,5.663,0,0,0,.56-.379c.232-.177.424-.329.606-.5.141-.13.285-.275.463-.472a14.485,14.485,0,0,0,.964-1.193,12.232,12.232,0,0,0,.717-1.118,11.248,11.248,0,0,0,.576-1.121c.208-.471.395-.947.555-1.414a12.57,12.57,0,0,0,.348-1.289A7.721,7.721,0,0,0,176.911,380.181Zm-3.934-1.632c-.044.493-.088.9-.135,1.289a13.4,13.4,0,0,1-.292,1.465,12.467,12.467,0,0,1-.447,1.337,6.641,6.641,0,0,1-.711,1.194,3.465,3.465,0,0,1-.417.434,2.521,2.521,0,0,1-.337.208,3.506,3.506,0,0,1-.5.145c-.06,0-.122.007-.184.007a5.073,5.073,0,0,1-.618-.048c-.109-.015-.231-.033-.352-.06a2.367,2.367,0,0,1-.287-.084,3.271,3.271,0,0,1-.423-.243,2.9,2.9,0,0,1-.277-.273,4.949,4.949,0,0,1-.474-.825,5.292,5.292,0,0,1-.257-.962,4.44,4.44,0,0,1-.012-.809c.019-.225.044-.467.077-.74a9.007,9.007,0,0,1,.33-1.478c.182-.56.339-1.006.5-1.4a9,9,0,0,1,.971-1.722,4.913,4.913,0,0,1,.674-.694l.04-.03a.892.892,0,0,0,.17-.022c.076-.017.152-.033.229-.047h.058c.031,0,.061,0,.093,0l.018,0,.584.081a2.833,2.833,0,0,1,.539.123,2.638,2.638,0,0,1,.425.237,3.96,3.96,0,0,1,.535.5,3.477,3.477,0,0,1,.277.5,3.556,3.556,0,0,1,.2.687A6.054,6.054,0,0,1,172.977,378.549Z" transform="translate(-143.592 -302.526)"/><path class="b" d="M202.586,372.134c.016-.24.034-.512.043-.783.013-.365.021-.757,0-1.146,0-.046-.008-.093-.012-.14l.013-.1a9.254,9.254,0,0,0,.07-.977,1.953,1.953,0,0,0-.01-.292,1.081,1.081,0,0,0-.114-.452.835.835,0,0,0-.175-.224,1.288,1.288,0,0,0-.513-.294c-.129-.038-.263-.065-.394-.094-.352-.076-.712-.119-1.067-.167-.153-.021-.306-.034-.46-.045-.124-.009-.248-.025-.373-.029l-.112,0a5.677,5.677,0,0,0-.581.036l.019,0a2.212,2.212,0,0,0-.474.07,1.072,1.072,0,0,0-.415.233,1.678,1.678,0,0,0-.2.233c-.117.151-.224.309-.34.461l-.011.014-.067.062c-.257.247-.5.513-.728.769l-.123.137a15.634,15.634,0,0,0-.985,1.248l-.007.009-.016.021c-.173.235-.352.478-.535.71q-.2.237-.389.476c-.158.194-.326.4-.486.623-.054.075-.108.153-.162.233-.207-.346-.439-.675-.656-1.013-.1-.163-.207-.328-.314-.488s-.236-.334-.35-.5c-.206-.307-.381-.633-.574-.948s-.371-.618-.574-.915a5.763,5.763,0,0,0-.374-.511,2.6,2.6,0,0,0-.377-.332,1.68,1.68,0,0,0-.418-.233,2.113,2.113,0,0,0-.523-.1,1.671,1.671,0,0,0-.224-.013c-.1,0-.206.006-.307.011-.2.009-.393.015-.588.029-.386.027-.773.066-1.155.121a2.46,2.46,0,0,0-.318.065,1.24,1.24,0,0,0-.141.049h0c-.143.017-.284.041-.424.072a.947.947,0,0,0-.142.043,1.067,1.067,0,0,0-.365.2.906.906,0,0,0-.265.444,3.178,3.178,0,0,0-.105.479c-.031.192-.059.384-.087.576q-.155.872-.29,1.746c-.072.41-.151.819-.216,1.23-.08.5-.186,1-.261,1.5-.128.854-.236,1.711-.347,2.567-.108.833-.161,1.673-.227,2.51-.033.421-.072.842-.107,1.264-.036.442-.094.883-.151,1.323-.027.211-.06.422-.08.633s-.038.415-.06.621-.034.421-.055.632-.046.407-.072.61c-.051.41-.115.82-.154,1.231s-.076.791-.128,1.186c-.025.194-.05.388-.066.584s-.026.4-.043.6-.036.37-.039.558a4.332,4.332,0,0,0,.042.6,1.181,1.181,0,0,0,.306.594,1.593,1.593,0,0,0,.257.218.851.851,0,0,0,.155.085,2.982,2.982,0,0,0,.393.149c.092.027.186.046.28.069.245.06.494.095.744.133a4.038,4.038,0,0,0,.594.043c.2,0,.394.009.59.011a5.49,5.49,0,0,0,.591-.033c.164-.017.327-.027.49-.042a2.619,2.619,0,0,0,.394-.05,1.524,1.524,0,0,0,.309-.115.924.924,0,0,0,.453-.539c.013-.04.021-.082.032-.123.045-.168.086-.338.132-.506.055-.2.109-.4.16-.6.131-.522.231-1.054.338-1.581.117-.575.224-1.152.316-1.732l.013-.084c.007-.044.014-.088.021-.132l.007-.046h0c.007-.046.014-.092.021-.137.011-.076.022-.152.033-.228.073-.445.149-.889.22-1.335.045-.268.088-.536.129-.8q.074-.443.141-.885.1-.587.179-1.177l-.014.092q.106-.687.2-1.378c.061-.449.135-.9.192-1.346.031-.237.064-.473.1-.709l.046.063c.2.273.4.552.625.806a1.092,1.092,0,0,0,.36.285l.052.024a1.009,1.009,0,0,0,.24.087l.139.023.086.019c.086.018.168.035.251.049l.011,0a2.413,2.413,0,0,0,.33.037c.044,0,.088,0,.131.007s.091.009.135.015l.023,0,.04,0,.072.009h.036l.052,0h.033a1.545,1.545,0,0,0,.259-.023.745.745,0,0,0,.149-.05.753.753,0,0,0,.191-.09l.011-.008a1.756,1.756,0,0,0,.222-.178c.072-.071.136-.148.2-.222.02-.025.039-.048.06-.072.115-.135.224-.284.312-.4l.021-.027.017-.023c.036-.048.072-.1.109-.144.123-.161.247-.323.368-.486l.074-.1.03-.039.031-.042c.08-.105.16-.212.238-.319s.137-.2.2-.289l.009-.013.009-.013.021-.032c.032-.049.064-.1.1-.147l.052-.076c-.021.151-.038.3-.056.454v.01c-.023.192-.044.384-.064.576-.029.285-.062.569-.094.854l-.008.07-.008.069,0,.02,0,.029c-.06.529-.123,1.076-.168,1.616-.015.183-.03.365-.044.549l-.022.265c-.046.579-.1,1.235-.159,1.87-.017.188-.037.375-.058.563-.023.215-.052.481-.074.736l-.012.149-.012.149c-.025.315-.052.673-.1,1.027-.107.89-.2,1.8-.29,2.6l-.014.126q-.015.144-.032.289l-.007.068-.008.065,0,.034c-.031.263-.065.562-.088.849-.007.086-.012.178-.017.3a3.033,3.033,0,0,0,.033.491,1.55,1.55,0,0,0,.136.419,1.358,1.358,0,0,0,.225.328,1.492,1.492,0,0,0,.271.225l.015.011a1.483,1.483,0,0,0,.5.216,2.35,2.35,0,0,0,.586.066c.157,0,.316-.01.47-.02l.19-.013h.01q.21-.015.42-.027c.13-.008.257-.01.4-.013h.2a3.569,3.569,0,0,0,.669-.071,1.3,1.3,0,0,0,.254-.1.967.967,0,0,0,.341-.32,1.412,1.412,0,0,0,.153-.3l.021-.049a3.618,3.618,0,0,0,.154-.486l.015-.058.031-.119.013-.046.011-.042c.034-.129.068-.259.1-.388.16-.645.3-1.337.432-2.177l-.006.008c.115-.629.234-1.307.33-2q.062-.451.12-.9c.045-.343.09-.686.138-1.029.1-.63.182-1.2.253-1.738l.074-.576c.043-.334.086-.668.131-1l.019-.118c.064-.391.137-.83.179-1.254q.025-.261.046-.521l0-.06c.021-.251.042-.5.068-.736.092-.874.172-1.756.236-2.623.014-.19.032-.383.05-.562.023-.235.048-.5.063-.758C202.567,372.435,202.577,372.284,202.586,372.134Z" transform="translate(-150.965 -301.064)"/><path class="b" d="M193.312,394.1l0,.017-.005.033Z" transform="translate(-154.112 -310.057)"/><path class="b" d="M223.467,372.945l-.005-.034a.765.765,0,0,0-.131-.355.754.754,0,0,0-.294-.253.768.768,0,0,0-.128-.048c-.021-.007-.043-.013-.066-.019a2.77,2.77,0,0,0-.626-.074l-.58-.019c-.3-.009-.6-.013-.9-.013-.147,0-.292,0-.439,0-.368.006-.742.016-1.1.026l-.22.006c-.4.011-.8.038-1.19.065l-.168.011-.239.017c-.154.011-.308.023-.462.03-.243.012-.428.026-.6.044a4.147,4.147,0,0,0-.762.163,1.313,1.313,0,0,0-.6.378,2.18,2.18,0,0,0-.352.594,5.275,5.275,0,0,0-.253.759c-.109.405-.223.836-.3,1.275l-.042.235c-.024.139-.048.282-.078.422l-.015.072c-.043.2-.088.411-.127.618-.06.322-.1.653-.138.972-.014.117-.028.233-.042.35-.06.47-.133.946-.2,1.406-.061.4-.125.811-.179,1.216q-.025.19-.048.38c-.036.3-.075.6-.126.9-.088.517-.157.945-.216,1.346s-.115.842-.175,1.382c-.028.255-.063.513-.1.762-.023.172-.046.344-.068.516-.011.092-.023.183-.034.274-.038.294-.076.6-.1.9-.01.123-.018.246-.026.369l-.014.213-.005.073a2.915,2.915,0,0,0,0,.6,1.19,1.19,0,0,0,.454.832,1.849,1.849,0,0,0,.283.172,1.907,1.907,0,0,0,.356.117c.085.021.173.036.259.05l.061.011c.336.059.681.091,1.013.123l.259.025c.173.017.346.036.519.055.268.029.545.06.818.083.244.021.492.036.733.052.17.011.342.022.512.034.186.014.374.024.557.033.258.013.525.027.787.052q.212.021.422.045c.28.031.569.062.854.08l.055,0c.117.008.238.016.357.016.045,0,.09,0,.134,0a.923.923,0,0,0,.609-.3,1.089,1.089,0,0,0,.141-.2c.013-.021.025-.041.037-.06a3.778,3.778,0,0,0,.366-.813c.121-.355.228-.72.33-1.075l.052-.179a3.161,3.161,0,0,0,.1-.409c.007-.041.009-.084.013-.125l0-.035a1.134,1.134,0,0,0,0-.223.933.933,0,0,0-.146-.411.814.814,0,0,0-.346-.287,1.934,1.934,0,0,0-.3-.094,2.693,2.693,0,0,0-.291-.046l-.092-.011c-.266-.035-.537-.056-.8-.077H220.4c-.154-.013-.31-.03-.462-.046s-.275-.03-.412-.042c-.279-.024-.564-.036-.84-.048h-.041c-.166-.011-.345-.025-.562-.048l-.188-.018c-.123-.011-.251-.023-.376-.039H217.5l-.092-.013.029-.139c.019-.1.038-.2.06-.3.033-.152.069-.3.1-.454.048-.2.1-.407.139-.611.069-.334.135-.668.2-1,.027-.138.055-.275.085-.413h.479c.349.021.72.047,1.167.082l.336.023.245.016.1.008c.141.01.287.021.429.021h.078a1.5,1.5,0,0,0,.34-.061,1.038,1.038,0,0,0,.427-.294,1.139,1.139,0,0,0,.148-.217l.03-.052c.034-.056.066-.116.1-.183a8.175,8.175,0,0,0,.5-1.308,3.8,3.8,0,0,0,.175-1.15.978.978,0,0,0-.014-.133,1.68,1.68,0,0,0-.075-.324,1.051,1.051,0,0,0-.313-.442,1.48,1.48,0,0,0-.426-.235,5.47,5.47,0,0,0-1.171-.252l-.2-.029-.341-.049c-.308-.044-.626-.089-.937-.146-.2-.036-.4-.081-.59-.132.025-.231.066-.464.105-.69l0-.024.016-.095.035-.008.238-.016c.144-.01.293-.02.44-.025.328-.01.661-.015.983-.02l.277,0h.1c.18,0,.367-.005.551-.013a2.932,2.932,0,0,0,.606-.091,1.112,1.112,0,0,0,.22-.084,1.419,1.419,0,0,0,.472-.335,1.455,1.455,0,0,0,.243-.381,5.822,5.822,0,0,0,.241-.657l.014-.043a10.95,10.95,0,0,0,.281-1.117c.027-.127.044-.257.062-.383.014-.1.028-.209.047-.312a2.383,2.383,0,0,0,.03-.462,1.288,1.288,0,0,0-.023-.235Z" transform="translate(-161.259 -302.658)"/></g><path class="c" d="M149.228,301.565h0q-.042.075-.082.149a3.555,3.555,0,0,0-.195.7,9.449,9.449,0,0,0-.139,1.072c-.022.358-.03.719-.023,1.076.015.659.047,1.35.1,2.054.033.355.076.773.148,1.175.05.282.106.57.159.842.024.122.048.244.07.366l0,.014c.07.368.151.785.264,1.181s.235.8.358,1.179a8.052,8.052,0,0,0,.462,1.031c.2.372.393.694.588.987.251.354.511.7.772,1.036a7.478,7.478,0,0,0,.862.911c.213.179.438.357.667.529a5.223,5.223,0,0,0,.707.438c.128.059.259.115.385.168s.251.107.373.163c.209.1.42.2.623.294l.216.1a9.04,9.04,0,0,0,.872.361,6.445,6.445,0,0,0,.785.214c.164.025.3.041.434.05.052,0,.105,0,.159,0,.074,0,.149,0,.222-.006a4.775,4.775,0,0,0,.938-.217,6.058,6.058,0,0,0,1.122-.57,8.419,8.419,0,0,0,.676-.542c.222-.2.448-.427.693-.689a12.952,12.952,0,0,0,1-1.358c.1-.159.2-.329.286-.466.06-.1.12-.2.181-.3.158-.255.306-.518.44-.782l.088-.182.038-.08.128-.266c.2-.42.365-.811.508-1.2l.021-.056c.147-.4.3-.807.419-1.223s.242-.852.343-1.3c.033-.142.066-.283.1-.424l.01-.043.009-.034c.054-.226.11-.461.159-.692a8.1,8.1,0,0,0,.1-1.837,3.991,3.991,0,0,0-.157-.771,3.67,3.67,0,0,0-.343-.624,2.223,2.223,0,0,0-.164-.2c-.024-.016-.048-.032-.072-.046-.048-.018-.1-.034-.151-.048s-.1-.008-.157-.009a2.583,2.583,0,0,0-.3.074,3.062,3.062,0,0,0-.373.173c-.109.06-.222.129-.365.224-.251.182-.5.379-.742.586-.1.086-.2.174-.3.262l-.019.017c-.119.107-.253.228-.389.342a4.183,4.183,0,0,1-.491.352.866.866,0,0,1-.726.094.811.811,0,0,1-.526-.8,1.259,1.259,0,0,1,.091-.408l.006-.017c.013-.038.025-.076.037-.114.031-.1.059-.21.084-.326a3.979,3.979,0,0,0,.043-.724,2.242,2.242,0,0,0-.393-1.122,2.119,2.119,0,0,0-.165-.185,1.794,1.794,0,0,0-.153-.1,2.19,2.19,0,0,0-.247-.086q-.052,0-.1-.006c-.027,0-.054.009-.082.015s-.068.035-.1.054a2.079,2.079,0,0,0-.162.156,8.44,8.44,0,0,0-.654.933c-.2.323-.433.7-.692,1.076-.033.047-.066.1-.1.144-.078.115-.159.233-.245.347-.056.076-.121.147-.182.216l-.009.01a.848.848,0,0,1-.424.243.571.571,0,0,1-.149.019.763.763,0,0,1-.729-.606,1.782,1.782,0,0,1-.019-.224c-.005-.123,0-.25.006-.372,0-.056,0-.108.007-.159,0-.153,0-.308,0-.473a2.691,2.691,0,0,0-.088-.438,3.353,3.353,0,0,0-.232-.444,2.189,2.189,0,0,0-.158-.18,1.4,1.4,0,0,0-.158-.1,2.551,2.551,0,0,0-.324-.123c-.043,0-.084-.007-.123-.008s-.062.013-.092.021-.05.024-.075.037-.052.046-.076.07a3.277,3.277,0,0,0-.3.507c-.113.245-.221.5-.315.731l0,.009c-.131.316-.267.643-.422.954l-.011.021a.812.812,0,0,1-.206.3.777.777,0,0,1-.5.2h-.043a.767.767,0,0,1-.673-.493l-.048-.111-.015-.033a5.149,5.149,0,0,0-.325-.636c-.062-.083-.129-.164-.194-.243l-.012-.015-.033-.04-.05-.062c-.115-.141-.24-.27-.38-.412s-.272-.26-.393-.369c-.058-.052-.116-.106-.173-.16l-.109-.1c-.1-.078-.2-.152-.305-.221l-.059-.036c-.024-.014-.048-.028-.072-.043a.947.947,0,0,1-.1-.078.826.826,0,0,1-.222-.1.689.689,0,0,1-.151-.14Zm11.429,7.968h0l.081-.023a2.352,2.352,0,0,0,.342-.2,1.671,1.671,0,0,0,.16-.139c.019-.029.036-.058.053-.087a2.513,2.513,0,0,0,.1-.374c0-.042.009-.083.013-.125l0-.046a.724.724,0,0,1,.221-.487.7.7,0,0,1,.477-.189h.023a.7.7,0,0,1,.487.22.722.722,0,0,1,.188.5,2.255,2.255,0,0,1-.052.465l0,.017a2.475,2.475,0,0,1-.081.339,1.928,1.928,0,0,1-.47.783,1.883,1.883,0,0,1-.249.2l-.067.048c-.074.053-.151.1-.228.153a2.125,2.125,0,0,1-.266.143,1.882,1.882,0,0,1-.419.145,1.793,1.793,0,0,1-.3.03.86.86,0,0,1-.127-.009,2.237,2.237,0,0,1-.393-.084,2.519,2.519,0,0,1-.574-.275,1.5,1.5,0,0,1-.539-.552,2.532,2.532,0,0,1-.111-.253l-.015-.038c-.043-.111-.084-.219-.117-.326-.024-.08-.044-.16-.066-.241l0-.016c-.021-.082-.042-.167-.068-.25a.565.565,0,0,1,.059-.446.652.652,0,0,1,.4-.31.632.632,0,0,1,.481.078.653.653,0,0,1,.276.384c.015.05.029.1.043.151l.01.035c.027.1.054.2.086.291a2.168,2.168,0,0,0,.137.282l.015.017a1.747,1.747,0,0,0,.17.1,2.2,2.2,0,0,0,.283.091l.034,0Zm-6.9.358h0l.06-.015a2.282,2.282,0,0,0,.263-.153,1.657,1.657,0,0,0,.165-.151,2.4,2.4,0,0,0,.2-.335c.051-.114.1-.225.14-.332.015-.037.029-.076.042-.113l.015-.041.022-.059a1.113,1.113,0,0,1,.271-.438.662.662,0,0,1,.47-.187.694.694,0,0,1,.7.718.7.7,0,0,1-.07.281l-.02.059c-.02.061-.041.125-.066.185-.053.127-.111.253-.157.355l-.005.011c-.058.131-.118.265-.189.393a1.783,1.783,0,0,1-.159.248l-.036.046a2.149,2.149,0,0,1-.248.281,2.986,2.986,0,0,1-.545.384,1.731,1.731,0,0,1-.836.238h-.009a1.538,1.538,0,0,1-.791-.221,2.153,2.153,0,0,1-.462-.381,1.669,1.669,0,0,1-.326-.487,5.126,5.126,0,0,1-.193-.53,2.928,2.928,0,0,1-.095-.545l0-.043a.664.664,0,0,1,.011-.344l.036-.077.035-.076a.655.655,0,0,1,.4-.285.619.619,0,0,1,.15-.018.655.655,0,0,1,.346.1.613.613,0,0,1,.284.4c.007.065.014.131.021.2a1.96,1.96,0,0,0,.1.433l.016.042a1.748,1.748,0,0,0,.113.22,1.774,1.774,0,0,0,.145.148,1.517,1.517,0,0,0,.138.089l.015.005Zm3.627,4.358a1.711,1.711,0,0,1-.367-.045,1.634,1.634,0,0,1-.207-.058,2.98,2.98,0,0,1-.544-.28,1.452,1.452,0,0,1-.522-.553,4.668,4.668,0,0,1-.2-.43l-.025-.062a1.364,1.364,0,0,1-.1-.319,3.652,3.652,0,0,1-.034-.456.575.575,0,0,1,.172-.413.655.655,0,0,1,.462-.2h.018a.635.635,0,0,1,.441.2.647.647,0,0,1,.17.453c0,.04,0,.082,0,.122l0,.011c0,.014.007.029.011.042.024.051.051.1.078.151l.019.035.021.038c.032.06.065.121.1.179a2.014,2.014,0,0,0,.229.127,1.387,1.387,0,0,0,.186.06c.029,0,.056,0,.085,0l.029-.007a1.443,1.443,0,0,0,.168-.091,1.7,1.7,0,0,0,.15-.136c.019-.028.037-.058.054-.087a5.875,5.875,0,0,0,.177-.564.7.7,0,0,1,.677-.491.67.67,0,0,1,.2.03.7.7,0,0,1,.492.692,3.89,3.89,0,0,1-.078.452,2.314,2.314,0,0,1-.3.708,2.137,2.137,0,0,1-.657.616,1.725,1.725,0,0,1-.261.134l-.04.016-.023.009a1.311,1.311,0,0,1-.263.086,2.074,2.074,0,0,1-.279.029Z" transform="translate(-138.403 -278.248)"/><path class="d" d="M167.59,271.086h0a.42.42,0,0,1-.157.053,2.1,2.1,0,0,0-.259.043l-.019.009-.019.009-.027.025a2.764,2.764,0,0,0-.2.316,3.289,3.289,0,0,0-.174.608.34.34,0,0,1-.059.132c-.04.164-.078.338-.115.516-.037.206-.075.43-.116.685l-.036.23-.044.275c-.013.194-.025.389-.035.584a.58.58,0,0,1-.1.293c-.065.47-.108.868-.134,1.251a18.9,18.9,0,0,0-.019,2.546c.027.3.058.6.086.85.08.732.186,1.6.366,2.491.074.363.171.722.265,1.07l.048.176c.122.456.241.85.363,1.2.053.149.107.3.161.445l.108.3c.065.18.127.364.186.543l0,.014.014.04c.036.108.072.216.11.324a7.492,7.492,0,0,0,.322.765c.134.267.269.535.4.8q.174.344.351.687l.025.048.044.085a7.4,7.4,0,0,0,.429.705l.05.07.015.021.018.017.068.066a4.638,4.638,0,0,1,.336.345,8.319,8.319,0,0,1,.7.925c.025.039.048.078.071.118a15.43,15.43,0,0,0,1.116,1.072l.054.048a7.054,7.054,0,0,0,1.244.852,12.733,12.733,0,0,0,2.875.929l.061.012.013,0c.393.074.8.151,1.2.19.241.024.493.035.747.035.171,0,.344,0,.512-.015.361-.034.74-.085,1.193-.159a7.528,7.528,0,0,0,1.157-.286c.25-.093.471-.184.676-.275a5.373,5.373,0,0,0,.728-.393c.185-.131.368-.27.523-.388a7.288,7.288,0,0,0,.649-.545c.481-.47.839-.84,1.161-1.2.229-.271.439-.556.635-.824.231-.316.428-.6.6-.864a18.289,18.289,0,0,0,1.038-1.772c.163-.341.306-.661.435-.976.156-.38.316-.787.491-1.243.166-.435.3-.827.411-1.2.14-.472.251-.889.338-1.277.029-.125.057-.249.086-.373l0-.017c.064-.281.131-.57.189-.858.039-.206.077-.412.113-.618.068-.4.134-.793.2-1.19l.021-.127c.068-.413.117-.825.15-1.263a18.424,18.424,0,0,0,.011-2.532,10.823,10.823,0,0,0-.239-1.459c-.074-.316-.135-.555-.195-.776l-.031-.111-.005-.019c-.015-.022-.027-.044-.04-.068l-.028-.078-.028-.078c-.015-.033-.032-.064-.05-.095a3.716,3.716,0,0,0-.389-.417c-.046-.035-.1-.07-.151-.1-.031-.011-.062-.021-.094-.029-.053-.005-.112-.008-.181-.008s-.153,0-.23.007a1.288,1.288,0,0,0-.172.038c-.135.056-.266.124-.393.19l-.011.006-.1.051a4.985,4.985,0,0,0-.467.274l-.036.025-.007.005c-.221.156-.45.317-.661.493-.161.135-.315.281-.464.422-.066.062-.131.123-.2.184l-.074.068-.016.015c-.106.1-.216.2-.319.3-.044.043-.086.087-.129.131-.071.073-.144.148-.22.218a1.33,1.33,0,0,1-.3.219.84.84,0,0,1-.417.093.751.751,0,0,1-.531-.254,2.335,2.335,0,0,1-.21-.32l-.011-.018c-.026-.044-.051-.088-.078-.131a7.58,7.58,0,0,0-1.058-1.167,4.549,4.549,0,0,0-.7-.467,3.231,3.231,0,0,0-.518-.182,3.724,3.724,0,0,0-.554-.038c-.084,0-.174,0-.278.007a5.071,5.071,0,0,0-.914.2,3.44,3.44,0,0,0-.509.267,3.587,3.587,0,0,0-.48.44,5.639,5.639,0,0,0-.63.957c-.016.034-.031.068-.046.1l-.017.038c-.047.107-.1.22-.153.327a.726.726,0,0,1-.484.364,1.141,1.141,0,0,1-.177.017.641.641,0,0,1-.211-.035c-.06-.027-.121-.058-.18-.09a.763.763,0,0,1-.29-.349l-.031-.074-.015-.036-.007-.019c-.059-.145-.119-.294-.192-.435a4.148,4.148,0,0,0-.222-.371,4.511,4.511,0,0,0-.3-.391c-.123-.137-.248-.264-.385-.39a3.388,3.388,0,0,0-.519-.346,2.289,2.289,0,0,0-.328-.109,2.039,2.039,0,0,0-.269-.017h-.056a2.62,2.62,0,0,0-.456.093,2.724,2.724,0,0,0-.43.221,4.412,4.412,0,0,0-.632.576,3.192,3.192,0,0,0-.245.333c-.064.1-.125.214-.2.363l-.062.134c-.05.107-.1.216-.154.322l-.015.031a.513.513,0,0,1-.036.067.838.838,0,0,1-.147.17.71.71,0,0,1-.322.164l-.054,0h-.014c-.044,0-.086.008-.127.008a.568.568,0,0,1-.194-.035.5.5,0,0,1-.176-.089.718.718,0,0,1-.239-.269.819.819,0,0,1-.072-.191c-.03-.091-.056-.186-.078-.27-.013-.046-.025-.092-.038-.137-.043-.151-.092-.3-.131-.413a9.727,9.727,0,0,0-.387-.921c-.125-.254-.239-.482-.368-.7a.645.645,0,0,1-.243-.244l-.062-.113c-.034-.061-.067-.122-.1-.182l-.013-.013a2.1,2.1,0,0,0-.248-.172c-.089-.036-.18-.066-.27-.095l-.011,0-.063-.021a.567.567,0,0,1-.078-.032ZM181.3,283.6a.873.873,0,0,1-.456-.141.989.989,0,0,1-.2-.168.924.924,0,0,1-.186-.34.891.891,0,0,1-.036-.43l.005-.035a1.011,1.011,0,0,1,.06-.247.987.987,0,0,1,.206-.33.73.73,0,0,1,.521-.228h.034a1,1,0,0,1,.216.036.79.79,0,0,1,.426.135,1.04,1.04,0,0,1,.318.332.867.867,0,0,1,.117.478.877.877,0,0,1-.166.474l-.013.017-.021.027a1,1,0,0,1-.157.172l-.022.017a1.048,1.048,0,0,1-.2.136.955.955,0,0,1-.393.094l-.051,0Zm-7.688-1.692h.055a.775.775,0,0,1,.118.009,1.19,1.19,0,0,1,.444.141.909.909,0,0,1,.22.168.923.923,0,0,1,.258.639,1.02,1.02,0,0,1-.15.493,1.439,1.439,0,0,1-.47.475,1.178,1.178,0,0,1-.587.178h-.035a.92.92,0,0,1-.785-.472,1.12,1.12,0,0,1-.095-.257,1.434,1.434,0,0,1-.03-.312,1.082,1.082,0,0,1,.551-.942,1.054,1.054,0,0,1,.472-.121Zm4.445,5.527h.082a1.966,1.966,0,0,0,.26-.062,2.763,2.763,0,0,0,.373-.208,2.267,2.267,0,0,0,.264-.24,2.362,2.362,0,0,0,.212-.36,6.266,6.266,0,0,0,.257-.705l.022-.071.015-.048c.03-.1.057-.182.08-.271.01-.037.019-.075.027-.113l0-.013a1.535,1.535,0,0,1,.048-.178.729.729,0,0,1,.679-.5.7.7,0,0,1,.62.37.7.7,0,0,1,.085.361.952.952,0,0,1-.036.305l-.005.023c0,.017-.007.033-.011.05-.017.079-.036.156-.058.23l-.028.1-.013.048c-.033.114-.07.243-.111.365a5.252,5.252,0,0,1-.2.507l-.015.034a3.9,3.9,0,0,1-.3.578,2.406,2.406,0,0,1-.449.5,4.133,4.133,0,0,1-.565.393,2.512,2.512,0,0,1-1.248.331h-.028a4.214,4.214,0,0,1-.708-.09l-.038-.007a4.462,4.462,0,0,1-.593-.144,3.736,3.736,0,0,1-1.276-.735,2.653,2.653,0,0,1-.735-1.055c-.078-.2-.148-.408-.214-.62a3.329,3.329,0,0,1-.109-.536.7.7,0,0,1,.082-.5.659.659,0,0,1,.4-.287.646.646,0,0,1,.151-.018.655.655,0,0,1,.348.1.633.633,0,0,1,.287.4,2.846,2.846,0,0,0,.095.483c.032.1.067.208.105.316a2.718,2.718,0,0,0,.231.428,2.334,2.334,0,0,0,.247.261,3.6,3.6,0,0,0,.517.32,3.734,3.734,0,0,0,.735.212,3.487,3.487,0,0,0,.522.046Z" transform="translate(-144.754 -267.703)"/><path class="e" d="M196.9,306.336h0a.586.586,0,0,1-.088.1l-.117.08-.025.017-.009.007a1.481,1.481,0,0,0-.171.144,3.547,3.547,0,0,0-.32.482c-.044.1-.086.2-.127.3l0,.009c-.036.089-.072.178-.109.266-.074.171-.139.35-.2.522l-.028.078a8.326,8.326,0,0,0-.312,1.275l-.018.094-.022.115.013-.054a.576.576,0,0,1-.062.214c-.008.633-.015,1.305-.006,1.972,0,.1,0,.2,0,.3,0,.13,0,.259,0,.389s.009.248.016.369v.011l0,.043c0,.061.007.122.009.182.021.476.04.844.064,1.193.056.637.138,1.275.2,1.76.042.306.1.626.174.978a7.2,7.2,0,0,0,.233.807c.153.4.336.789.514,1.163l.1.218a11.666,11.666,0,0,0,.715,1.337,7.022,7.022,0,0,0,2.985,2.65c.331.152.679.278,1.015.4l.182.065a9.912,9.912,0,0,0,1.207.358,10.535,10.535,0,0,0,1.616.122c.236,0,.477-.007.714-.022.375-.037.718-.087,1.047-.153a9.669,9.669,0,0,0,1.034-.277,6.462,6.462,0,0,0,1.136-.592,15.694,15.694,0,0,0,2.46-2.333,11.568,11.568,0,0,0,.715-.929l.046-.066.046-.066c.095-.135.179-.257.257-.385l.111-.184q.107-.18.217-.359c.387-.633.834-1.384,1.222-2.15.1-.21.192-.428.283-.637l.008-.019c.057-.133.114-.266.172-.4.184-.416.334-.766.466-1.127s.279-.767.405-1.185l.034-.114c.049-.161.1-.32.137-.478s.08-.332.122-.544.078-.435.116-.653c.011-.068.023-.136.035-.2.031-.174.062-.35.086-.522.011-.084.021-.168.03-.253l-.023-.038a.644.644,0,0,1-.076-.324c0-.025.009-.052.013-.078a1.652,1.652,0,0,0,.027-.212c0-.048,0-.1,0-.145l0-.09c0-.067.007-.134.011-.2v-.015c.007-.1.013-.2.011-.3v-.038c0-.021-.008-.042-.013-.063a4.3,4.3,0,0,0-.119-.428,2.408,2.408,0,0,0-.159-.332,2.017,2.017,0,0,0-.141-.161,2.072,2.072,0,0,0-.218-.147l-.074-.028h-.019c-.04.007-.078.017-.117.027a2.546,2.546,0,0,0-.318.164,3.636,3.636,0,0,0-.473.432,16.19,16.19,0,0,0-1.123,1.616l-.1.157c-.15.237-.3.48-.465.71-.04.058-.082.115-.123.172l-.02.027a.759.759,0,0,1-.171.19l-.044.032a.624.624,0,0,1-.3.141.791.791,0,0,1-.157.017.764.764,0,0,1-.235-.038.773.773,0,0,1-.494-.551.819.819,0,0,1,.019-.413l.006-.025.007-.035a3.885,3.885,0,0,0,.011-.73,7.958,7.958,0,0,0-.34-1.579c-.047-.117-.092-.218-.135-.305a2.667,2.667,0,0,0-.17-.29,5.7,5.7,0,0,0-.754-.866,2.32,2.32,0,0,0-.3-.19,3.03,3.03,0,0,0-.476-.161,2.019,2.019,0,0,0-.224-.019c-.029.005-.058.012-.086.019a2.68,2.68,0,0,0-.269.136,2.962,2.962,0,0,0-.268.25,10.533,10.533,0,0,0-.734,1.114l-.019.031c-.2.333-.411.689-.6,1.069-.048.1-.084.192-.114.276-.008.022-.016.045-.023.068l0,.014a1.067,1.067,0,0,1-.141.312.755.755,0,0,1-.448.305.7.7,0,0,1-.157.017.638.638,0,0,1-.392-.119.734.734,0,0,1-.245-.274.719.719,0,0,1-.078-.367.36.36,0,0,1,.006-.068l0-.013c.011-.08.021-.146.027-.214a2.513,2.513,0,0,0,.007-.294,3.522,3.522,0,0,0-.148-.663,1.9,1.9,0,0,0-.136-.284,2.088,2.088,0,0,0-.216-.238,3.135,3.135,0,0,0-.441-.308,2.719,2.719,0,0,0-.383-.129l-.066-.006c-.025,0-.051.01-.076.017s-.058.029-.087.045a2.321,2.321,0,0,0-.259.241,3.553,3.553,0,0,0-.393.569,9.5,9.5,0,0,0-.341.889c-.032.095-.062.19-.093.287l0,.009c-.078.243-.158.494-.26.732-.086.2-.182.393-.274.572a.711.711,0,0,1-.175.218.754.754,0,0,1-.338.17.715.715,0,0,1-.153.017.749.749,0,0,1-.229-.037.7.7,0,0,1-.316-.206c-.038-.053-.076-.107-.112-.162a.73.73,0,0,1-.075-.235c-.009-.054-.015-.108-.022-.162l0-.018c-.009-.083-.021-.185-.041-.282-.025-.112-.057-.228-.095-.342a7.774,7.774,0,0,0-.4-.824l-.1-.187c-.126-.235-.255-.479-.4-.708a4.536,4.536,0,0,0-.35-.418l-.013-.014c-.108-.114-.217-.228-.331-.334s-.247-.188-.365-.271a3.032,3.032,0,0,0-.366-.216,2.788,2.788,0,0,0-.424-.168l-.042-.011Zm1.951,10.382a.613.613,0,0,1-.338-.1.641.641,0,0,1-.27-.417.588.588,0,0,1,.094-.452,1.825,1.825,0,0,1,.387-.44c.05-.036.1-.074.147-.111.093-.07.2-.151.306-.22a1.5,1.5,0,0,1,.537-.206c.074-.014.149-.023.225-.033l.044-.005a3.207,3.207,0,0,1,.385-.03h.032a2.08,2.08,0,0,1,.31.025l.046.007a2.406,2.406,0,0,1,.407.095,1.6,1.6,0,0,1,.633.43,3.361,3.361,0,0,1,.286.357c.061.089.119.181.174.271l.006.009.046.074.014.016a.661.661,0,0,1-.052.923.681.681,0,0,1-.449.167.577.577,0,0,1-.348-.109.825.825,0,0,1-.192-.176l-.01-.015c-.051-.074-.1-.141-.14-.216s-.083-.147-.119-.2a2.6,2.6,0,0,0-.234-.287l-.036-.023a1.347,1.347,0,0,0-.169-.052,2.176,2.176,0,0,0-.3-.022h-.076a2.274,2.274,0,0,0-.344.055c-.025.013-.048.025-.072.039s-.07.054-.1.081l-.068.053c-.056.044-.1.08-.147.121-.029.037-.056.076-.083.114a.655.655,0,0,1-.53.279Zm9.439-1.931h0c.022,0,.043,0,.065,0a.61.61,0,0,1,.46.2.57.57,0,0,1,.1.155.384.384,0,0,1,.044.082l.005.015a.788.788,0,0,1,.073.365.733.733,0,0,1-.114.346.691.691,0,0,1-.445.319.747.747,0,0,1-.265.051.6.6,0,0,1-.215-.038.694.694,0,0,1-.312-.21.8.8,0,0,1-.148-.777.761.761,0,0,1,.095-.188.747.747,0,0,1,.262-.236.693.693,0,0,1,.346-.087l.048,0Zm-3.577,4.559h.016a1.313,1.313,0,0,0,.154-.034,2.975,2.975,0,0,0,.478-.26,1.554,1.554,0,0,0,.165-.143,3.728,3.728,0,0,0,.356-.545,1.163,1.163,0,0,0,.074-.2.681.681,0,0,1,.346-.4.7.7,0,0,1,1.021.665,1.549,1.549,0,0,1-.265.733,3.747,3.747,0,0,1-.326.48l-.021.027a3,3,0,0,1-.273.306,2.225,2.225,0,0,1-.335.247,4.159,4.159,0,0,1-.47.265,2.4,2.4,0,0,1-.439.161,2.347,2.347,0,0,1-.425.054l-.088,0a1.329,1.329,0,0,1-.192-.013,2.377,2.377,0,0,1-.44-.093,4.049,4.049,0,0,1-.689-.321,1.444,1.444,0,0,1-.476-.43c-.114-.163-.226-.339-.332-.524a1.912,1.912,0,0,1-.183-.576.63.63,0,0,1,.478-.742.64.64,0,0,1,.127-.013.632.632,0,0,1,.615.492l.008.041c.01.05.021.1.033.151.015.027.031.052.047.077l.048.069.048.07a1.667,1.667,0,0,0,.164.2,1.042,1.042,0,0,0,.095.058,2.818,2.818,0,0,0,.474.186,1.661,1.661,0,0,0,.208.013Z" transform="translate(-155.536 -279.9)"/><path class="f" d="M210.179,301.815c-.064,0-.134,0-.214.008a2.155,2.155,0,0,0-.362.09,2.606,2.606,0,0,0-.409.216,3.689,3.689,0,0,0-.493.464c-.044.058-.08.111-.112.163l-.016.025-.028.044a.857.857,0,0,1-.129.159.726.726,0,0,1-.309.172.491.491,0,0,1-.161.025.692.692,0,0,1-.387-.121,1.936,1.936,0,0,1-.151-.122l-.024-.021a1,1,0,0,1-.115-.116c-.067-.077-.132-.157-.2-.236l-.013-.017a4.978,4.978,0,0,0-.462-.515,1.161,1.161,0,0,0-.133-.084,1.661,1.661,0,0,0-.262-.073,3.628,3.628,0,0,0-.47-.032c-.058,0-.115,0-.172,0a3.264,3.264,0,0,0-.6.164,5.338,5.338,0,0,0-.759.371c-.251.151-.47.292-.671.433a2.964,2.964,0,0,0-.383.345c-.083.09-.17.19-.274.315a2.282,2.282,0,0,0-.259.393.715.715,0,0,1-.647.389h-.013a1.206,1.206,0,0,1-.5-.17c-.111-.058-.218-.126-.321-.192l-.007-.005-.146-.092c-.129-.079-.273-.159-.438-.243a2.134,2.134,0,0,0-.332-.106,3.027,3.027,0,0,0-.336-.017c-.088,0-.179,0-.277.009a3.742,3.742,0,0,0-.572.137c.123.058.245.119.363.178l.1.052a2.069,2.069,0,0,1,.249.143c.093.063.179.124.256.18a5.821,5.821,0,0,1,.971.923,4.858,4.858,0,0,1,.458.646c.064.107.124.22.181.328l.007.012q.042.081.086.161l.053.1.035.065c.046.086.093.171.138.257.081-.215.151-.384.222-.533l.031-.065a3.657,3.657,0,0,1,.279-.517c.076-.11.164-.225.267-.352a3.377,3.377,0,0,1,.428-.457,1.871,1.871,0,0,1,.5-.32,1.782,1.782,0,0,1,.635-.143c.024,0,.048,0,.071,0a2.4,2.4,0,0,1,.436.074,3.049,3.049,0,0,1,.713.282,3.476,3.476,0,0,1,.44.3,3.188,3.188,0,0,1,.477.45,2.2,2.2,0,0,1,.262.383c.028-.043.054-.086.08-.129l.019-.032.046-.076a5.765,5.765,0,0,1,.853-1.179,2.574,2.574,0,0,1,.553-.434,3.444,3.444,0,0,1,.5-.221,1.472,1.472,0,0,1,.5-.08,3.145,3.145,0,0,1,.626.078,2.749,2.749,0,0,1,.569.186,3.814,3.814,0,0,1,.432.222,2.078,2.078,0,0,1,.261.2c.11.1.228.2.34.314a6.019,6.019,0,0,1,.888,1.144,4.57,4.57,0,0,1,.474,1.267c.025.105.05.21.074.316.1-.149.194-.28.279-.4a7.005,7.005,0,0,1,.915-1.089,3.349,3.349,0,0,1,.267-.219,2.89,2.89,0,0,1,.388-.255,2.177,2.177,0,0,1,1-.288,1.411,1.411,0,0,1,.141.007c.027,0,.053.005.08.009-.078-.291-.172-.63-.293-.966l-.015-.038-.015-.038a2.453,2.453,0,0,0-.188-.4,2.4,2.4,0,0,0-.242-.251l-.055-.036a1.392,1.392,0,0,0-.139-.041,2.185,2.185,0,0,0-.235-.014h-.038a1.935,1.935,0,0,0-.3.09c-.209.086-.369.157-.521.232a4.235,4.235,0,0,0-.452.246l-.086.072a.926.926,0,0,1-.432.255,1.261,1.261,0,0,1-.2.019.593.593,0,0,1-.211-.036.9.9,0,0,1-.343-.218,1.146,1.146,0,0,1-.192-.252,3.7,3.7,0,0,1-.174-.328c-.023-.046-.045-.092-.068-.137a4.149,4.149,0,0,0-.267-.449,4.447,4.447,0,0,0-.616-.659,2.868,2.868,0,0,0-.367-.247,1.486,1.486,0,0,0-.153-.048c-.062-.006-.125-.009-.194-.009Z" transform="translate(-156.794 -278.3)"/><path class="g" d="M176.583,267.937c-.082,0-.163,0-.243.007a6.863,6.863,0,0,0-1.274.311,7.42,7.42,0,0,0-1.378.737,2.783,2.783,0,0,0-.327.281,1.1,1.1,0,0,0-.078.133.625.625,0,0,1-.277.284c-.056.023-.112.044-.169.065s-.129.015-.186.018h-.015a.733.733,0,0,1-.323-.1,1.211,1.211,0,0,1-.217-.182l-.065-.063c-.052-.049-.107-.1-.162-.143l-.009-.008a5.2,5.2,0,0,0-.862-.584,2.2,2.2,0,0,0-.334-.093,3.4,3.4,0,0,0-.437-.028c-.084,0-.173,0-.265.009a3.281,3.281,0,0,0-.571.141c-.059.025-.117.05-.174.077a3.457,3.457,0,0,1,.641.275,2.037,2.037,0,0,1,.264.19,3.4,3.4,0,0,1,.329.3,2.307,2.307,0,0,1,.177.22l.053.072a3.812,3.812,0,0,1,.223.326c.063.107.123.215.183.323l.007.013.1.184a8.124,8.124,0,0,1,.423.883c.125-.151.256-.291.369-.408a3.624,3.624,0,0,1,.511-.449,3.385,3.385,0,0,1,.694-.415,3.222,3.222,0,0,1,.789-.224,3.577,3.577,0,0,1,.468-.038h.052a2.74,2.74,0,0,1,.5.066,2.784,2.784,0,0,1,.779.3,3.3,3.3,0,0,1,.537.369,5.921,5.921,0,0,1,.586.557,5.155,5.155,0,0,1,.38.487l.086.123a5.191,5.191,0,0,1,.787-.936,4.054,4.054,0,0,1,.615-.456,3.506,3.506,0,0,1,.664-.3,4.575,4.575,0,0,1,.575-.168,5.428,5.428,0,0,1,.759-.1c.112-.008.227-.013.342-.013a3.656,3.656,0,0,1,1.086.155,4.292,4.292,0,0,1,1.266.67,5.807,5.807,0,0,1,.611.533c.145.142.3.3.446.463.115.131.225.263.324.394l.029-.026.043-.041.327-.308.111-.1.171-.161a10.169,10.169,0,0,1,1.284-1,5.013,5.013,0,0,1,.486-.3l.118-.062c.128-.068.26-.139.395-.2a2.654,2.654,0,0,1,.472-.163,1.927,1.927,0,0,1,.423-.04c.055,0,.11,0,.165-.005h.019c.048,0,.1,0,.147,0,.03,0,.06,0,.091,0a.748.748,0,0,0-.038-.073l-.033-.059c-.038-.069-.078-.141-.123-.209a2.341,2.341,0,0,0-.266-.279,1.832,1.832,0,0,0-.21-.138,2.87,2.87,0,0,0-.5-.133c-.174-.022-.32-.036-.457-.044-.05,0-.1,0-.151,0-.075,0-.157,0-.251.009a3.983,3.983,0,0,0-.742.176,3.8,3.8,0,0,0-.65.357l-.009.006-.144.1a.742.742,0,0,1-.4.123.4.4,0,0,1-.064,0l-.026,0a.793.793,0,0,1-.231-.054l-.042-.019a1.751,1.751,0,0,1-.163-.078,1.875,1.875,0,0,1-.24-.178l-.034-.029c-.138-.114-.269-.238-.4-.359-.093-.088-.2-.187-.3-.279a1.981,1.981,0,0,0-.272-.174,3.44,3.44,0,0,0-.51-.145,3.128,3.128,0,0,0-.387-.024c-.066,0-.133,0-.2.006a2.558,2.558,0,0,0-.424.1,3.971,3.971,0,0,0-.636.346l-.1.08-.123.095q-.132.1-.267.2a1.037,1.037,0,0,1-.379.188,1.146,1.146,0,0,1-.248.028.932.932,0,0,1-.275-.04,1.894,1.894,0,0,1-.248-.1l-.02-.01a1.679,1.679,0,0,1-.261-.157l-.117-.086c-.163-.12-.326-.241-.493-.354a3.908,3.908,0,0,0-1.339-.577,5.385,5.385,0,0,0-.765-.061Z" transform="translate(-145.84 -266.643)"/><path class="h" d="M155.251,297.594l-.117,0a1.393,1.393,0,0,0-.168.042,3.783,3.783,0,0,0-.6.331,4.355,4.355,0,0,0-.625.619,3.19,3.19,0,0,0-.263.4c-.013.036-.023.071-.033.107l0,.01c-.013.045-.025.086-.039.127a.721.721,0,0,1-.506.484.713.713,0,0,1-.159.02,1.031,1.031,0,0,1-.213-.03.729.729,0,0,1-.154-.066l-.026-.013a.916.916,0,0,1-.117-.07l-.019-.013a1.465,1.465,0,0,0-.13-.076,3.45,3.45,0,0,0-.641-.18,2.39,2.39,0,0,0-.275-.02l.017.014.029.02a1.861,1.861,0,0,0,.164.106l.008.005c.048.029.1.058.142.091a5.314,5.314,0,0,1,.573.468c.076.073.153.144.231.215l.022.021c.058.052.115.105.172.159a6.061,6.061,0,0,1,.466.488c.117.137.241.285.352.435l.076-.172c.1-.239.211-.464.322-.67a2.86,2.86,0,0,1,.312-.479,1.786,1.786,0,0,1,.516-.452,2.266,2.266,0,0,1,.35-.143l.035-.013a.871.871,0,0,1,.143-.036,2.139,2.139,0,0,1,.331-.031h.061a2.39,2.39,0,0,1,.466.078,1.965,1.965,0,0,1,.335.127l.064.03a3.137,3.137,0,0,1,.361.188,2.125,2.125,0,0,1,.611.637l.023.033a3.152,3.152,0,0,1,.386.778l.054-.083c.1-.159.185-.3.281-.444l.04-.06.02-.031c.061-.092.131-.2.2-.289.138-.174.274-.344.425-.5a1.841,1.841,0,0,1,.395-.312,1.486,1.486,0,0,1,.508-.206,2.643,2.643,0,0,1,.4-.041,1.032,1.032,0,0,1,.193.017l.056.011a2.448,2.448,0,0,1,.386.094,3.2,3.2,0,0,1,.409.189,2,2,0,0,1,.375.283,3.248,3.248,0,0,1,.811,1.355,3.154,3.154,0,0,1,.135.6,3.964,3.964,0,0,1,.04.459,9.693,9.693,0,0,1,1.079-.791,3.117,3.117,0,0,1,.545-.28,5.342,5.342,0,0,1,.513-.172l.066-.017-.012-.042c-.259-.27-.5-.568-.726-.855-.32-.4-.624-.787-.887-1.19l-.041-.064-.1-.06c-.17-.1-.322-.18-.467-.25-.227-.1-.459-.194-.69-.277a4.474,4.474,0,0,0-.693-.182,3.8,3.8,0,0,0-.387-.03h-.044c-.107,0-.212.007-.309.015a3.777,3.777,0,0,0-.753.166,4.3,4.3,0,0,0-.771.431,1.081,1.081,0,0,0-.144.143l-.021.026a.97.97,0,0,1-.109.117.9.9,0,0,1-.572.228.7.7,0,0,1-.241-.042,1.062,1.062,0,0,1-.418-.293,2.466,2.466,0,0,1-.166-.209c-.049-.067-.1-.135-.153-.2a4.241,4.241,0,0,0-.388-.371,2.77,2.77,0,0,0-.392-.249,2.4,2.4,0,0,0-.4-.124,3.708,3.708,0,0,0-.529-.041Z" transform="translate(-139.237 -276.847)"/><path class="i" d="M158.686,327.206h0l0,.06a4.3,4.3,0,0,0,.18.959,2.916,2.916,0,0,0,.2.448,2.046,2.046,0,0,0,.195.217,3.831,3.831,0,0,0,.324.214l.024.015c.136.083.259.157.385.225a2.852,2.852,0,0,0,.458.153,2.119,2.119,0,0,0,.293.023,2.164,2.164,0,0,0,.222-.058,3.606,3.606,0,0,0,.543-.271,1.83,1.83,0,0,0,.2-.179.985.985,0,0,0,.094-.14l.011-.02.015-.03a5.322,5.322,0,0,0,.315-1.113l.007-.037a4.488,4.488,0,0,1-1.027.114c-.127,0-.253,0-.377-.014a4.9,4.9,0,0,1-.8-.141,6.509,6.509,0,0,1-.668-.189c-.216-.078-.411-.155-.6-.235Z" transform="translate(-141.848 -287.012)"/><path class="i" d="M179.844,307.283h0a5.091,5.091,0,0,0,.113.626c.061.251.118.476.19.7a2.873,2.873,0,0,0,.244.482,1.926,1.926,0,0,0,.188.214,1.841,1.841,0,0,0,.207.139,3.081,3.081,0,0,0,.391.15c.12.035.253.068.418.1.137.022.277.036.413.05l.047,0a3.57,3.57,0,0,0,.378.021h.074a2.245,2.245,0,0,0,.361-.08,3.994,3.994,0,0,0,.656-.292,2.449,2.449,0,0,0,.318-.3,2.846,2.846,0,0,0,.335-.45,5.739,5.739,0,0,0,.369-1.2c-.516.084-.995.141-1.465.175-.17.013-.345.019-.533.019-.237,0-.491-.01-.777-.03a9.093,9.093,0,0,1-1.049-.159l-.011,0-.184-.035c-.22-.042-.452-.086-.683-.135Z" transform="translate(-149.398 -280.17)"/><path class="i" d="M195.894,338.73h0a6.4,6.4,0,0,0-.356,1.082,3.273,3.273,0,0,0-.04.629,4.383,4.383,0,0,0,.187.866,5.462,5.462,0,0,0,.5,1,6.7,6.7,0,0,0,.937,1.061,3.971,3.971,0,0,0,.665.442,3.651,3.651,0,0,0,.509.192c.132.036.276.071.441.105a2.05,2.05,0,0,0,.328.032h.011c.105,0,.218,0,.356-.013l.184-.015h-.048l.115-.007a5.565,5.565,0,0,0,.572-.07c.127-.025.253-.055.375-.085.149-.036.3-.072.445-.1s.291-.047.417-.064c-.106-.144-.223-.3-.348-.448a10.41,10.41,0,0,0-.749-.785l-.165-.163c-.335-.33-.656-.661-.953-.968s-.587-.581-.92-.873q-.472-.407-.941-.815a7.219,7.219,0,0,0-1.324-.926c-.064-.031-.129-.06-.194-.088Z" transform="translate(-155.001 -290.988)"/><path class="i" d="M214.92,343.359h0c-.132.066-.264.136-.421.221-.3.161-.6.346-.929.568l-.017.011-.015.011-.065.046c-.744.542-1.457,1.141-2.117,1.709-.312.268-.626.566-.962.909l-.036.036-.007.007c-.264.271-.537.551-.792.838-.269.314-.554.652-.9,1.064a6.774,6.774,0,0,0-.754,1.065l-.006.015a.2.2,0,0,0,.033,0c.06,0,.111,0,.162,0,.1-.013.194-.033.287-.052l.06-.012q.245-.049.491-.095l.018,0c.341-.064.692-.131,1.035-.225.236-.065.472-.134.708-.2l.017-.005.336-.1.092-.027c.281-.081.561-.162.835-.253a5.545,5.545,0,0,0,.893-.438,4.873,4.873,0,0,0,.724-.665,6.724,6.724,0,0,0,.657-1,6.9,6.9,0,0,0,.45-1.418c.082-.468.139-.884.175-1.273.025-.271.04-.513.046-.741h0Z" transform="translate(-159.453 -292.585)"/><path class="i" d="M204.747,335.175h0a1.726,1.726,0,0,0,.064.259l.046.127c.042.116.085.232.127.348l-.026-.082-.021-.058a1.864,1.864,0,0,0,.141.309,2.809,2.809,0,0,0,.275.3,2.685,2.685,0,0,0,.365.229,2.027,2.027,0,0,0,.338.105,3.09,3.09,0,0,0,.407.027l.132,0a3.755,3.755,0,0,0,.688-.129,1.952,1.952,0,0,0,.243-.13,2.564,2.564,0,0,0,.283-.252,1.637,1.637,0,0,0,.119-.186,2.583,2.583,0,0,0,.117-.348c.007-.048.012-.1.017-.143-.172.006-.338.009-.493.009h-.094a.734.734,0,0,1-.387.1.583.583,0,0,1-.352-.121c-.22-.013-.421-.031-.614-.056a8.189,8.189,0,0,1-1.376-.307Z" transform="translate(-158.242 -289.746)"/><path class="i" d="M187.434,321.023h0c-.169.2-.336.4-.5.6l-.03.036c-.169.2-.336.407-.5.612l-.007.009-.3.368c-.113.139-.229.275-.344.411-.153.18-.325.383-.49.59l-.071.09-.032.04c-.092.113-.194.241-.289.369a5.444,5.444,0,0,0-.357.555l-.057.1-.012.022c-.048.084-.1.172-.148.255a3.332,3.332,0,0,0,.576-.135c.132-.052.264-.109.391-.166l.012-.005.046-.021c.068-.03.135-.06.2-.088a4.069,4.069,0,0,0,.572-.286,4.26,4.26,0,0,0,.566-.513,3.939,3.939,0,0,0,.458-.662,3.165,3.165,0,0,0,.2-.6,8.422,8.422,0,0,0,.1-1.112c0-.041,0-.082,0-.122l0-.059c0-.093.006-.186.007-.279l0,0Z" transform="translate(-150.959 -284.896)"/><path class="i" d="M170.385,331.619h0c-.3.163-.567.325-.83.5l-.11.077-.059.041c-.162.115-.326.232-.481.355-.2.162-.4.332-.572.476l-.012.011c-.322.276-.655.562-.969.863-.376.359-.679.66-.954.945-.308.32-.606.661-.868.962-.235.276-.478.554-.712.822l-.015.018-.259.3c.059-.013.117-.027.174-.042l.046-.011c.224-.056.453-.1.675-.151l.019,0,.082-.017.22-.046a8.9,8.9,0,0,0,.966-.263,7.365,7.365,0,0,0,.954-.432c.328-.181.624-.359.905-.545a5.417,5.417,0,0,0,.432-.333,5.6,5.6,0,0,0,.416-.412,3.237,3.237,0,0,0,.2-.267,3.461,3.461,0,0,0,.191-.325,6.084,6.084,0,0,0,.373-1.261c.063-.355.115-.717.157-1.024l.005-.039c.008-.063.017-.125.025-.188Z" transform="translate(-143.957 -288.543)"/><path class="i" d="M149.457,345.411h-.107c.009.054.022.108.038.171a4.2,4.2,0,0,0,.335.627,4.989,4.989,0,0,0,.426.5c.146.147.3.3.466.443a9.107,9.107,0,0,0,1.6,1.059,9.314,9.314,0,0,0,.98.387,8.25,8.25,0,0,0,.968.246c.236.043.515.09.8.118.2.02.4.023.6.027h.048l.178,0c.086,0,.172.007.258.014l-.009-.015-.01-.012a11.124,11.124,0,0,0-.961-.954c-.172-.149-.366-.319-.566-.476-.253-.2-.52-.393-.8-.576a13.764,13.764,0,0,0-1.461-.85,9.967,9.967,0,0,0-2.023-.653,4.624,4.624,0,0,0-.753-.066Z" transform="translate(-138.541 -293.273)"/><path class="i" d="M173.068,345.874h0a1.774,1.774,0,0,0,.051.229,2.534,2.534,0,0,0,.176.341,4.218,4.218,0,0,0,.55.575,5.744,5.744,0,0,0,1.027.714,3.515,3.515,0,0,0,.48.181c.173.051.351.088.519.121a6.273,6.273,0,0,0,.824.1c.093,0,.184.007.273.007.14,0,.285,0,.442-.015.084-.008.168-.016.252-.026-.176-.145-.359-.274-.536-.4a10.583,10.583,0,0,0-1.315-.787c-.446-.214-.937-.426-1.5-.647-.222-.087-.5-.2-.772-.273-.153-.044-.308-.083-.47-.121Z" transform="translate(-146.981 -293.424)"/></g></g></svg>