<svg xmlns="http://www.w3.org/2000/svg" width="80" height="90" viewBox="0 0 80 90"><defs><style>.a{fill:#fff;}.b{fill:#1c3043;}.c{fill:#c1dff2;}.d{fill:#f2c5ab;}</style></defs><g transform="translate(-326.416 -50.493)"><g transform="translate(326.416 50.493)"><path class="a" d="M409.533,117.545a25.5,25.5,0,0,0-1.122-5.711c-1.821-5.883-2.166-10.78-2.256-16.967-.075-5.165-1.405-10.96-5.836-13.638-1.4-.844-3.068-1.356-4.079-2.634-1.132-1.433-1.121-3.415-1.328-5.227-.841-7.363-6.252-13.752-12.99-16.879S367.33,53.212,360.1,54.906c-11.074,2.593-22.1,11.433-21.6,22.764.107,2.423.737,4.861.3,7.247-.612,3.335-3.178,5.952-4.466,9.09-2.653,6.466.461,13.92-.867,20.78-1.6,8.244-8.35,17.075.9,23.522a24.786,24.786,0,0,0,8.367,3.379c18.245,4.491,37.9,1.772,54.555-6.781a28.83,28.83,0,0,0,8.908-6.433A14.568,14.568,0,0,0,409.533,117.545Z" transform="translate(-329.583 -53.83)"/><g transform="translate(5.86 5.74)"><path class="b" d="M352.612,83.059c.08.443.159.884.272,1.32.061.231.141.458.219.683.068.2.14.4.219.591a7.039,7.039,0,0,0,.69,1.337,9.424,9.424,0,0,0,.94,1.187c.163.171.327.339.5.5s.341.3.515.451a13.684,13.684,0,0,0,1.244.9,9.256,9.256,0,0,0,1.158.639,12.178,12.178,0,0,0,1.43.554,11.512,11.512,0,0,0,1.309.341c.5.1,1.019.158,1.531.211q.7.071,1.394.13a6.6,6.6,0,0,0,1.345-.022c.506-.06,1.008-.148,1.511-.229.424-.067.845-.142,1.266-.232s.824-.17,1.233-.267c.217-.052.433-.109.647-.174s.418-.117.627-.179c.169-.05.339-.1.506-.161.191-.065.377-.146.564-.221q.232-.093.465-.183c.139-.054.274-.114.417-.16.119-.038.239-.078.358-.119.063-.022.127-.043.192-.06h0c.035,0,.07,0,.1-.009.026.05.051.1.076.152.073.181.138.366.212.546.086.209.174.415.262.623.18.428.364.852.53,1.286.138.362.273.726.417,1.086a4.272,4.272,0,0,0,.3.637,1.022,1.022,0,0,0,.317.325.843.843,0,0,0,.422.115.872.872,0,0,0,.43-.125,1.182,1.182,0,0,0,.2-.153c.02-.016.038-.034.055-.051A11.886,11.886,0,0,0,377.8,92.7c.2-.287.4-.58.605-.869.169-.239.344-.473.518-.708.212-.273.427-.542.635-.817a6.768,6.768,0,0,1,.593-.741l.008-.005h0c.41-.04.825-.025,1.236-.04.47-.018.938-.05,1.407-.089.957-.078,1.912-.186,2.857-.358.233-.042.47-.078.7-.137.245-.062.487-.127.73-.2.429-.124.853-.274,1.274-.42.445-.154.889-.31,1.331-.473.491-.181.973-.38,1.45-.6a13.662,13.662,0,0,0,2.321-1.4c.223-.161.435-.339.649-.514.17-.14.341-.287.5-.443s.325-.325.475-.5.311-.372.457-.567a10.661,10.661,0,0,0,1.256-2.266,7.555,7.555,0,0,0,.439-1.266,12.81,12.81,0,0,0,.22-1.368l-.022.2c.034-.294.07-.588.094-.882a6.143,6.143,0,0,0,.016-.67,11.231,11.231,0,0,0-.15-1.558c-.037-.222-.074-.444-.126-.663s-.119-.463-.186-.692c-.128-.435-.265-.868-.43-1.29-.1-.267-.223-.531-.354-.786-.107-.208-.212-.416-.335-.615-.246-.4-.491-.8-.769-1.177a15.155,15.155,0,0,0-2.027-2.261,16.34,16.34,0,0,0-2.333-1.772c-.39-.242-.775-.5-1.172-.728s-.8-.448-1.223-.638c-.48-.219-.963-.435-1.457-.623-.445-.17-.894-.329-1.345-.484s-.909-.323-1.37-.464-.944-.282-1.42-.414c-.208-.058-.416-.118-.626-.171-.257-.064-.513-.122-.772-.175-.433-.089-.871-.159-1.309-.213-.553-.068-1.106-.125-1.66-.177-.445-.042-.891-.082-1.339-.1-.351-.016-.7-.027-1.056-.027-.121,0-.24,0-.361,0-.238.005-.475.009-.712.022-.267.016-.534.037-.8.061-.445.041-.888.1-1.33.163-.509.074-1.02.149-1.527.237-.464.08-.928.167-1.387.269s-.911.22-1.364.343c-.475.128-.946.267-1.414.419s-.9.317-1.35.493c-.87.345-1.747.669-2.607,1.04-.47.2-.939.409-1.4.632-.411.2-.808.435-1.2.669a16.006,16.006,0,0,0-2.408,1.785c-.351.31-.68.648-1,.988s-.628.715-.927,1.088a13.615,13.615,0,0,0-.9,1.29c-.237.378-.466.764-.675,1.158-.227.429-.445.861-.663,1.294-.231.459-.447.921-.633,1.4a13.432,13.432,0,0,0-.784,2.619c-.086.514-.152,1.032-.2,1.55-.022.243-.045.486-.055.729s0,.465.009.7A12.521,12.521,0,0,0,352.612,83.059Zm1.3-2.722c.017-.2.037-.4.058-.6.038-.31.077-.587.12-.847.054-.325.14-.658.209-.926a15.864,15.864,0,0,1,.578-1.71c.162-.38.342-.748.482-1.026l.031-.062.009-.017c.175-.35.357-.714.543-1.065a19.353,19.353,0,0,1,1.261-2.073,14.856,14.856,0,0,1,1.239-1.459c.063-.063.126-.126.193-.2.181-.185.368-.376.564-.549.252-.222.482-.419.7-.6.267-.2.509-.385.768-.559s.563-.366.9-.568.661-.374.943-.524c.257-.136.542-.264.75-.356l.058-.026c.386-.169.785-.343,1.183-.5.439-.175.892-.351,1.291-.506l.028-.011c.138-.053.275-.108.411-.163.273-.109.581-.233.883-.335.378-.13.878-.3,1.392-.441l.034-.01.009,0c.506-.142,1.029-.29,1.549-.4.605-.13,1.152-.236,1.673-.323.868-.132,1.719-.257,2.593-.333.515-.044,1.044-.066,1.619-.066.414,0,.841.011,1.3.034.316.016.636.047.946.076h.012l.213.02c.331.031.665.066,1.005.1.519.067.947.132,1.348.2.45.084.894.186,1.32.306l.271.076c.331.092.707.2,1.065.307.412.126.853.271,1.389.456.515.177,1.112.385,1.7.605.445.189.822.354,1.184.52.442.2.867.442,1.188.629.255.148.513.312.739.458l.02.013.368.233c.3.186.609.4.975.663.24.186.439.345.636.515.047.042.095.082.147.127.163.141.333.287.49.439.414.4.816.831,1.2,1.282.135.169.274.344.4.524.147.21.3.445.493.74.128.2.256.411.417.691a6.846,6.846,0,0,1,.308.619c.163.412.312.84.453,1.308.06.2.138.465.2.733.052.211.091.424.126.623a11.85,11.85,0,0,1,.111,1.227,9.534,9.534,0,0,1-.066,1.287c-.036.29-.077.6-.142.91a7.723,7.723,0,0,1-.314,1.04c-.151.36-.326.739-.536,1.155a7.625,7.625,0,0,1-.624,1.023,10.391,10.391,0,0,1-.7.8c-.229.233-.483.449-.723.65a15.445,15.445,0,0,1-1.268.895,13.79,13.79,0,0,1-1.411.76c-.7.3-1.482.6-2.463.937-.441.152-.911.312-1.389.451a11.133,11.133,0,0,1-1.3.28l-.094.016-.094.016c-.443.064-.878.125-1.319.175-.343.038-.694.067-1,.092l-.37.031c-.437.037-.883.05-1.322.063h-.09c-.2.006-.4.012-.6.031-.061.006-.121.012-.182.021l-.037.005a1.192,1.192,0,0,0-.237.051,1.911,1.911,0,0,0-.214.1,1.241,1.241,0,0,0-.345.289c-.2.238-.386.491-.571.742l-.03.041-.076.1-.077.1-.051.067-.053.069-.07.092c-.136.176-.277.358-.409.541l-.231.322-.278.387c-.1.144-.2.291-.3.434-.059.086-.117.173-.176.258-.131.191-.274.391-.448.631-.147.2-.273.358-.408.517l-.059.066-.02.023h0c-.092-.217-.183-.434-.273-.652l-.082-.2c-.115-.282-.244-.6-.379-.908-.142-.323-.306-.7-.461-1.073-.037-.088-.07-.177-.1-.266s-.075-.2-.115-.291c-.1-.243-.222-.472-.315-.646a.531.531,0,0,0-.217-.213c-.011-.021-.022-.041-.034-.061l-.019-.024-.1-.124a.742.742,0,0,0-.314-.18,1.179,1.179,0,0,0-.343-.065c-.024,0-.048,0-.072,0h-.032a2.086,2.086,0,0,0-.478.087l-.009,0a7.383,7.383,0,0,0-.754.236l-.266.106-.109.043-.016.007c-.208.083-.424.169-.636.25-.246.094-.5.165-.75.235-.115.032-.229.065-.343.1-.532.16-1.08.281-1.6.389-.184.04-.369.081-.553.123l-.181.041c-.21.047-.425.08-.632.111h-.006l.017,0,.055-.009-.053.008.053-.006c-.226.035-.451.072-.677.109l-.325.054c-.215.032-.446.065-.685.088-.173.016-.35.024-.542.024-.115,0-.235,0-.368-.009-.262-.013-.533-.037-.771-.059l-.2-.017c-.3-.027-.591-.055-.883-.086-.26-.031-.457-.059-.639-.09-.237-.041-.474-.1-.7-.15l-.107-.025a11.726,11.726,0,0,1-1.476-.468,9.9,9.9,0,0,1-2.149-1.233c-.339-.267-.609-.5-.847-.725s-.486-.489-.724-.763c-.185-.24-.357-.486-.513-.73a6.47,6.47,0,0,1-.4-.741,12.761,12.761,0,0,1-.526-1.57c-.068-.26-.115-.531-.161-.8l-.007-.036q-.031-.176-.063-.353l-.009-.053-.065-.371a9.839,9.839,0,0,1-.082-1.153C353.877,80.749,353.893,80.553,353.912,80.336Z" transform="translate(-343.221 -62.543)"/><path class="b" d="M362.906,87.558c.013.231.025.461.035.692,0,.064,0,.127.007.19V88.5c0,.114.007.232.015.348a5.075,5.075,0,0,0,.127.762.635.635,0,0,0,.314.381.655.655,0,0,0,.887-.267.69.69,0,0,0,.047-.506c-.016-.072-.031-.144-.047-.217a6.592,6.592,0,0,1-.035-.683V88.3c0-.117,0-.237-.009-.358-.017-.387-.034-.787-.042-1.181-.007-.325,0-.659.012-.955l.007-.229c.011-.391.03-.806.059-1.231.016-.246.026-.5.036-.739l0-.04c.005-.125.01-.251.018-.377l0-.076h0v0l.115.113.115.113c.2.192.365.361.516.517.123.128.24.267.356.4l.02.024c.126.157.245.32.335.442.026.036.053.072.078.109l.013.018c.075.105.159.224.249.332l.034.04a2.423,2.423,0,0,0,.239.264,1.149,1.149,0,0,0,.333.233l.052.02a.687.687,0,0,0,.3.067h.03a.705.705,0,0,0,.37-.109.893.893,0,0,0,.31-.353,2.821,2.821,0,0,0,.132-.33c.013-.038.026-.074.04-.112.2-.551.382-1.114.557-1.659q.106-.334.215-.667c.06-.183.121-.366.182-.549l.038-.115c.049-.148.1-.3.15-.445.014-.044.028-.088.042-.131v0c.018.089.038.178.056.267.027.135.055.269.084.4l.008.038c.052.246.1.493.154.741.046.232.088.468.128.692q.041.235.086.471.144.767.288,1.535l.024.13.1.544.018.11,0,.021c.013.074.026.15.039.225.063.364.138.748.229,1.175.035.17.076.339.124.516l.017.065a1.228,1.228,0,0,0,.335.669.737.737,0,0,0,.329.177.746.746,0,0,0,.166.019.729.729,0,0,0,.646-.385.76.76,0,0,0,.053-.565l0-.009c-.017-.086-.036-.165-.059-.245l-.038-.136-.038-.136c-.055-.194-.1-.393-.139-.561-.081-.355-.159-.749-.24-1.206-.1-.569-.217-1.145-.331-1.7l0-.016-.007-.03c-.045-.226-.092-.452-.136-.678-.029-.146-.057-.292-.084-.437-.051-.265-.1-.5-.146-.742-.046-.214-.094-.427-.143-.64q-.06-.265-.118-.53c-.011-.048-.021-.1-.032-.15-.031-.146-.063-.3-.1-.442-.029-.106-.059-.211-.089-.318l-.016-.057-.054-.192-.01-.034c-.049-.176-.106-.376-.17-.574a3.146,3.146,0,0,0-.258-.64.719.719,0,0,0-.621-.349.7.7,0,0,0-.524.225,1.016,1.016,0,0,0-.213.331,5.553,5.553,0,0,0-.237.65c-.043.146-.085.293-.126.44l-.015.055c-.065.232-.125.441-.189.65-.151.49-.272.859-.389,1.194-.077.222-.15.449-.22.669q-.076.239-.155.478c-.1.315-.19.565-.27.789h0c-.119-.159-.247-.329-.386-.491-.122-.142-.267-.31-.417-.474-.108-.118-.225-.232-.343-.347l-.094-.09c-.348-.342-.615-.6-.868-.822l-.042-.038c-.053-.049-.107-.1-.162-.144a1.562,1.562,0,0,0-.157-.116l-.02-.014-.047-.032a.973.973,0,0,0-.1-.059.773.773,0,0,0-.343-.086l-.053,0h-.028a.534.534,0,0,0-.192.042.775.775,0,0,0-.316.2,1.045,1.045,0,0,0-.214.417,1.669,1.669,0,0,0-.038.244v.009l-.013.12c-.022.191-.047.407-.059.617-.011.18-.02.368-.028.574-.005.123-.009.244-.012.366v.054l-.006.211c0,.133-.013.268-.022.4v.023c0,.07-.009.14-.013.21-.017.292-.025.586-.032.872,0,.121-.006.242-.009.363-.013.385-.009.781.011,1.181C362.887,87.206,362.9,87.379,362.906,87.558Z" transform="translate(-346.975 -67.942)"/><path class="b" d="M377.4,79.9c0,.036,0,.073.007.109.024.476.041.869.051,1.237l.006.192c.01.34.02.691.042,1.038.006.1.011.208.014.312v.035q0,.119.01.237c0,.08.009.161.013.241.007.115.014.23.018.345.024.582.063,1.173.1,1.744l0,.026.013.184c.019.3.042.6.07.954l0,.03.032.4a1.505,1.505,0,0,0,.167.7.715.715,0,0,0,.6.331h.024a.72.72,0,0,0,.668-.548,1.55,1.55,0,0,0,0-.511l-.012-.113-.02-.206q-.02-.188-.036-.376c-.031-.335-.063-.71-.1-1.182-.013-.177-.029-.354-.046-.539l-.005-.061c-.016-.179-.032-.359-.045-.539-.03-.4-.059-.818-.085-1.231-.009-.152-.022-.307-.035-.444-.014-.158-.026-.3-.036-.443-.012-.186-.021-.373-.03-.559l0-.078c-.005-.106-.01-.211-.016-.318-.012-.2-.028-.413-.043-.615v-.015l-.01-.134-.01-.134-.007-.092a6.686,6.686,0,0,1-.027-.713c0-.042.01-.082.015-.123l.005-.042c.005-.057.011-.115.016-.172a.635.635,0,0,0-.1-.322.653.653,0,0,0-.4-.283.633.633,0,0,0-.148-.016.649.649,0,0,0-.347.1.627.627,0,0,0-.281.4,6.061,6.061,0,0,0-.061.744c0,.136.009.28.017.4Z" transform="translate(-352.002 -67.887)"/><path class="b" d="M382.22,86.779l.06.062c.032.034.065.067.1.1a2.084,2.084,0,0,0,.561.421,1.822,1.822,0,0,0,.76.163c.035,0,.069,0,.1,0a2.728,2.728,0,0,0,.714-.136,2.009,2.009,0,0,0,.594-.309,2.752,2.752,0,0,0,.483-.445,3.924,3.924,0,0,0,.42-.609,2.761,2.761,0,0,0,.142-.341l.017-.046a1.316,1.316,0,0,0,.059-.35v-.018c0-.024,0-.047.007-.07a2.484,2.484,0,0,0-.018-.534,4.359,4.359,0,0,0-.139-.7,8.4,8.4,0,0,0-.4-1.048l-.043-.094a5.609,5.609,0,0,0-.276-.559c-.1-.169-.209-.331-.3-.468-.2-.3-.426-.587-.643-.866l-.013-.018-.037-.047a6.31,6.31,0,0,1-.65-.993,2.428,2.428,0,0,1-.113-.341,1.845,1.845,0,0,1,0-.263,2.275,2.275,0,0,1,.073-.369,1.691,1.691,0,0,1,.1-.192,1.732,1.732,0,0,1,.122-.132,1.825,1.825,0,0,1,.206-.127,1.385,1.385,0,0,1,.154-.053c.03,0,.061,0,.092,0,.1,0,.2.01.3.02h.009l.069.007h.026a.575.575,0,0,0,.376-.186.578.578,0,0,0-.029-.817l-.086-.061-.035-.026a.585.585,0,0,0-.275-.068h-.02l-.108-.011a2.967,2.967,0,0,0-.307-.021,1.2,1.2,0,0,0-.134.007,2.2,2.2,0,0,0-.781.272,1.165,1.165,0,0,0-.2.137,2.325,2.325,0,0,0-.285.261,2,2,0,0,0-.394.7,3.152,3.152,0,0,0-.126.559,2.291,2.291,0,0,0-.032.384,2.137,2.137,0,0,0,.058.418,3.243,3.243,0,0,0,.252.663l.012.026a5.491,5.491,0,0,0,.289.518c.152.248.329.487.5.72.075.1.15.2.223.3a7.326,7.326,0,0,1,.6.982c.092.208.185.433.291.708a4.785,4.785,0,0,1,.229.733,3.4,3.4,0,0,1,.028.523,1.019,1.019,0,0,1-.022.1,2.067,2.067,0,0,1-.148.26,2.544,2.544,0,0,1-.277.31,1.75,1.75,0,0,1-.2.134,2.2,2.2,0,0,1-.29.092,1.88,1.88,0,0,1-.192.01h-.041l-.059-.014-.05-.026c-.069-.056-.137-.116-.215-.188a2.9,2.9,0,0,0-.223-.187l-.011-.011a.7.7,0,0,0-.317-.17.732.732,0,0,0-.16-.018.7.7,0,0,0-.673.914A1.168,1.168,0,0,0,382.22,86.779Z" transform="translate(-353.585 -67.555)"/><path class="b" d="M389.874,87.6a2.035,2.035,0,0,0,.351.028,2.572,2.572,0,0,0,.365-.026,4.041,4.041,0,0,0,.469-.089,2.467,2.467,0,0,0,.426-.177l.01-.005a4.144,4.144,0,0,0,1.026-.716,3.2,3.2,0,0,0,.763-1.077,2.146,2.146,0,0,0,.127-.382c.016-.084.03-.173.042-.288a3.882,3.882,0,0,0,.015-.729,4.211,4.211,0,0,0-.1-.619c-.034-.149-.074-.294-.121-.432a9.152,9.152,0,0,0-.4-.952l-.016-.033c-.078-.169-.167-.361-.256-.546a4.035,4.035,0,0,0-.3-.515,11.617,11.617,0,0,0-.8-1.016,3.935,3.935,0,0,1-.453-.7,2.792,2.792,0,0,1-.148-.432,1.891,1.891,0,0,1,0-.338,2.614,2.614,0,0,1,.078-.418,1.583,1.583,0,0,1,.1-.19,2.288,2.288,0,0,1,.239-.245,1.876,1.876,0,0,1,.222-.148,1.56,1.56,0,0,1,.167-.052,1.594,1.594,0,0,1,.173-.011h.019l.159.028a.717.717,0,0,0,.132.013.559.559,0,0,0,.3-.086.577.577,0,0,0,.248-.349.594.594,0,0,0-.084-.45.518.518,0,0,0-.337-.233,3.01,3.01,0,0,0-.546-.06c-.037,0-.074,0-.111,0a2.352,2.352,0,0,0-.38.058,1.744,1.744,0,0,0-.381.154,2.546,2.546,0,0,0-.582.426,2.2,2.2,0,0,0-.422.532,2.164,2.164,0,0,0-.221.652,4.018,4.018,0,0,0-.084.693,2.308,2.308,0,0,0,.126.7,5.214,5.214,0,0,0,.277.651,3.4,3.4,0,0,0,.325.511c.067.092.14.183.211.27l.008.01c.051.063.1.126.152.19a6.5,6.5,0,0,1,.673,1.017c.144.313.267.6.379.876a5.383,5.383,0,0,1,.28.926,3.289,3.289,0,0,1,.023.6,2.1,2.1,0,0,1-.059.294,2.736,2.736,0,0,1-.191.345,3.1,3.1,0,0,1-.332.352,3.686,3.686,0,0,1-.592.375,1.941,1.941,0,0,1-.293.093c-.077.009-.157.016-.244.019h-.149a1.127,1.127,0,0,0-.138.006.746.746,0,0,0-.376.116.754.754,0,0,0-.233,1.039A.738.738,0,0,0,389.874,87.6Z" transform="translate(-356.158 -67.26)"/><path class="b" d="M401.75,85.02a5.394,5.394,0,0,0,.459,1.231,2.587,2.587,0,0,0,.435.6,1.239,1.239,0,0,0,.5.272l.013,0a1.167,1.167,0,0,0,.115.038,1.854,1.854,0,0,0,.453.054h.024a1.946,1.946,0,0,0,1.4-.619,4.673,4.673,0,0,0,.687-.941,22.584,22.584,0,0,0,1-2.079c.055-.137.107-.273.163-.424l.01-.026.01-.026c.026-.059.047-.118.07-.186l.021-.06.035-.1c.109-.3.232-.642.341-.979.244-.756.442-1.452.6-2.129.045-.19.081-.379.11-.538.008-.044.016-.088.023-.132l.007-.04c.005-.03.01-.059.016-.089l.011-.063a1.211,1.211,0,0,0,.032-.366.766.766,0,0,0-.766-.739H407.5a.762.762,0,0,0-.382.119.777.777,0,0,0-.265.284,1.492,1.492,0,0,0-.165.559c-.007.047-.015.093-.023.137-.038.2-.075.379-.115.549-.086.356-.182.717-.285,1.071-.114.393-.218.732-.317,1.036s-.207.607-.314.9l-.009.026-.026.07a.849.849,0,0,0-.053.149c-.015.041-.03.082-.046.123l-.01.023-.008.02.007-.02,0,0c-.161.4-.343.812-.556,1.25-.063.129-.133.258-.195.372l-.007.013c-.051.095-.1.19-.152.289a5.755,5.755,0,0,1-.293.529c-.051.064-.1.126-.157.189l-.007.009-.009.01-.028.032c-.042.05-.083.1-.128.146l-.057.035c-.036.013-.072.024-.109.035s-.073.005-.111.006l-.013,0a2.947,2.947,0,0,1-.192-.323,5.057,5.057,0,0,1-.326-1.05,11,11,0,0,1-.131-1.7c0-.239.014-.482.028-.716v-.009l.011-.2c.013-.248.032-.576.06-.907l.018-.162,0-.03.031-.279.011-.1,0-.02,0,.019.01-.092c.009-.075.016-.15.026-.226l0-.032,0,.015c.016-.157.035-.313.054-.464s.039-.31.055-.464c.013-.129.03-.26.047-.393l0-.025a3.3,3.3,0,0,1,.108-.5.576.576,0,0,0-.063-.45.658.658,0,0,0-.4-.306.642.642,0,0,0-.143-.016.631.631,0,0,0-.338.1.643.643,0,0,0-.275.386,4.468,4.468,0,0,0-.126.582l0,.014,0,.015c-.026.168-.051.336-.08.5l-.038.213c-.053.3-.109.618-.155.928l-.005.035,0,.009c-.057.379-.116.772-.155,1.161l-.025.248v.01c-.038.37-.078.754-.1,1.131a9.85,9.85,0,0,0,.016,1.224A7.378,7.378,0,0,0,401.75,85.02Zm1.928.649.005,0-.005,0Z" transform="translate(-360.44 -67.551)"/><path class="b" d="M422.041,115.162l.011-.036c.014-.047.028-.094.043-.142Z" transform="translate(-367.518 -80.88)"/><path class="b" d="M407.472,137.1a.7.7,0,0,0-.377-.334,14.191,14.191,0,0,0-2.331-.662c-.4-.1-.8-.189-1.2-.288-.435-.107-.874-.205-1.313-.295-.579-.118-1.162-.215-1.746-.307.067-.275.134-.549.2-.823.134-.529.27-1.058.4-1.587l.006-.022q.983.053,1.961.161c.49.055.981.1,1.473.136.439.031.885.044,1.321.115.027.008.054.018.08.028a.69.69,0,0,0,.5.1.655.655,0,0,0,.241-1.184,1.652,1.652,0,0,0-.548-.241c-.149-.033-.3-.06-.448-.079-.2-.025-.4-.037-.594-.048-.388-.021-.776-.04-1.163-.07-.42-.033-.839-.077-1.259-.112s-.812-.057-1.219-.078h-.046l.051-.235c.123-.577.219-1.159.322-1.74q.286-1.618.567-3.236c.09-.523.176-1.046.254-1.57.04-.274.075-.549.114-.823.034-.24.078-.479.12-.718.093-.534.187-1.067.266-1.6s.14-1.064.216-1.6c.079-.551.124-1.1.171-1.659.044-.51.076-1.02.087-1.532s.02-1.038.016-1.557,0-1.042-.022-1.562c-.027-.562-.078-1.125-.136-1.684-.052-.5-.086-1.009-.156-1.511-.083-.595-.23-1.176-.365-1.76-.07-.3-.139-.6-.211-.906s-.163-.579-.258-.863l-.008-.023,0,.007-.009-.027c-.014-.039-.027-.077-.04-.116l.028.084c-.089-.258-.183-.515-.278-.771-.087-.234-.168-.471-.264-.7s-.2-.472-.31-.7-.229-.428-.343-.642a6.37,6.37,0,0,0-.439-.722,2.606,2.606,0,0,0-.424-.448.574.574,0,0,0-.471-.435,7.844,7.844,0,0,0-.8-.061h-.12c-.073,0-.146,0-.219.01a3.616,3.616,0,0,0-.391.046,2.732,2.732,0,0,0-.6.182,4.573,4.573,0,0,0-.466.242,4.754,4.754,0,0,0-.7.483c-.134.115-.26.238-.383.364-.1.1-.2.2-.283.307a7.651,7.651,0,0,0-.51.709l-.045.072c-.022.03-.045.059-.067.089a4.932,4.932,0,0,0-.39.614c-.1.193-.2.39-.3.586l-.025.048c-.165.315-.324.632-.469.957s-.269.646-.381.975c-.136.4-.283.793-.389,1.2-.084.323-.139.653-.2.981q-.077.236-.15.473-.22.718-.424,1.441l-.2-.036c-.251-.046-.5-.094-.757-.13-.565-.08-1.131-.15-1.7-.219s-1.135-.1-1.7-.148-1.118-.075-1.677-.117q-.868-.065-1.736-.136c-.6-.049-1.193-.075-1.789-.118s-1.182-.075-1.773-.107-1.154-.061-1.732-.081-1.143-.055-1.715-.084c-.613-.032-1.229-.036-1.843-.039-.6,0-1.189,0-1.784.027-.579.025-1.155.09-1.731.158-.55.065-1.1.111-1.651.178-.576.071-1.152.142-1.725.226-1.145.169-2.276.419-3.4.674q-.44.1-.88.205h0a.746.746,0,0,0-.2.047l-.024.006-.185.045.138-.034c-.572.139-1.144.279-1.71.44-.275.078-.55.157-.822.249l-.859.294q-.79.268-1.572.554-.85.311-1.687.657c-.448.184-.892.372-1.332.576s-.883.406-1.327.6-.864.407-1.3.608c-.277.129-.555.266-.84.382l-.058-.09c-.072-.114-.144-.228-.211-.345-.223-.426-.45-.851-.674-1.276a16.645,16.645,0,0,0-.914-1.525c-.289-.428-.6-.843-.921-1.247a9.9,9.9,0,0,0-.68-.752c-.182-.186-.372-.363-.57-.533-.225-.193-.457-.377-.7-.551a10.7,10.7,0,0,0-.913-.582,4.276,4.276,0,0,0-.786-.352,5.628,5.628,0,0,0-.583-.166,1.89,1.89,0,0,0-.408-.041.738.738,0,0,0-.309.054,1.863,1.863,0,0,0-.216.115l-.176.169c-.006.007-.01.015-.016.022-.055.019-.109.04-.162.063a1.834,1.834,0,0,0-.724.53,3.959,3.959,0,0,0-.264.407c-.058.093-.108.191-.159.288a7.252,7.252,0,0,0-.472,1.237,12.581,12.581,0,0,0-.337,1.365c-.088.45-.18.9-.268,1.35-.18.92-.27,1.855-.38,2.785-.115.976-.223,1.951-.26,2.932-.035.918-.065,1.837-.081,2.757-.017.955-.057,1.909-.063,2.864,0,.448,0,.9.011,1.345.012.479.014.958.033,1.437.018.462.059.924.091,1.386s.059.942.093,1.413.077.915.115,1.373.079.929.137,1.392.118.951.192,1.424c.067.429.125.859.208,1.285.161.821.347,1.639.586,2.441-.241.081-.482.164-.722.25-.3.108-.6.23-.9.344-.317.12-.635.234-.949.364-.355.147-.7.327-1.035.508-.283.152-.568.3-.854.443a.655.655,0,0,0,.04,1.131.683.683,0,0,0,.508.048,3.294,3.294,0,0,0,.577-.239c.138-.066.269-.143.4-.217.266-.148.534-.293.809-.426.348-.151.7-.286,1.054-.43.371-.152.743-.3,1.12-.435l.342-.121c.047.142.092.285.139.427.138.418.277.836.43,1.25.159.429.322.856.5,1.279.024.057.048.115.074.171l-.083.046a22.115,22.115,0,0,0-2.065,1.272c-.26.181-.512.371-.765.558s-.5.392-.754.584-.5.383-.749.584q-.227.187-.449.379c-.054.046-.107.094-.159.143a1.82,1.82,0,0,0-.283.344.667.667,0,0,0-.08.342.674.674,0,0,0,1.167.435,2.857,2.857,0,0,1,.357-.318l.2-.172c.3-.243.611-.472.914-.711.33-.261.662-.518,1-.77a21.975,21.975,0,0,1,2.018-1.343l.33-.19.027.05c.206.385.414.768.655,1.132s.489.758.769,1.108c.118.148.237.3.359.443-.227.2-.454.4-.677.6-.313.283-.613.58-.9.884-.277.288-.544.586-.819.877-.216.228-.431.457-.647.684a4.313,4.313,0,0,0-.719.91.722.722,0,0,0,.854,1.029.766.766,0,0,0,.42-.346l.01-.015c.211-.275.456-.526.688-.783l.795-.878c.279-.308.552-.622.842-.92s.577-.573.881-.843l.215-.193c.219.21.44.416.669.616a17.258,17.258,0,0,0,2.213,1.609,15.463,15.463,0,0,0,2.6,1.386c.452.176.91.336,1.371.486.487.158.989.269,1.488.383.9.2,1.8.384,2.708.534.465.077.929.159,1.4.217.446.055.891.1,1.34.128.523.036,1.045.066,1.569.081.474.014.951,0,1.425,0,.912-.014,1.822-.084,2.733-.092.2,0,.393,0,.59,0,.26,0,.519,0,.778,0,.455-.01.91-.009,1.363-.021.421-.01.84-.025,1.259-.055.357-.026.711-.076,1.068-.113.2-.011.4-.023.607-.038.472-.035.941-.1,1.408-.176.408-.064.818-.116,1.227-.18.45-.07.9-.143,1.346-.228.478-.09.959-.155,1.441-.22.243-.033.481-.083.723-.124s.5-.081.745-.124c.495-.085.978-.207,1.464-.331s.99-.262,1.481-.4.951-.295,1.422-.454c.31-.1.617-.215.925-.325.222-.079.447-.156.667-.244.241-.1.48-.2.72-.3s.474-.19.707-.295c.5-.226,1-.461,1.5-.7.482-.228.954-.48,1.421-.737s.927-.494,1.384-.753c.508-.288,1-.616,1.477-.953.423-.3.827-.622,1.221-.958s.792-.691,1.158-1.067c.213-.219.405-.457.6-.7.166-.21.329-.42.483-.64.288-.411.536-.85.786-1.285.273-.477.523-.967.754-1.466.157-.338.317-.674.472-1.013.146.045.292.091.436.14.307.1.6.241.905.363.318.129.631.27.946.406.615.266,1.254.476,1.857.769l.639.321c.262.141.525.28.78.436a.73.73,0,0,0,.536.109.714.714,0,0,0,.442-.292.706.706,0,0,0-.184-.975c-.358-.232-.732-.438-1.109-.638-.175-.093-.345-.2-.521-.288a7.12,7.12,0,0,0-.69-.32c-.369-.148-.746-.273-1.116-.418s-.748-.3-1.126-.445-.725-.286-1.1-.391l-.17-.047c.055-.152.108-.305.159-.459.158-.48.286-.97.419-1.458.084-.307.172-.612.258-.918.459.084.919.169,1.377.258.38.086.758.177,1.135.278.392.1.786.208,1.18.305s.779.2,1.171.29c.19.044.378.094.568.14s.38.089.566.147c.158.049.312.1.465.167a.667.667,0,0,0,.822-.924Zm-10.149,3.037-.057.122-.037.079c-.048.1-.1.206-.147.308l-.01.022c-.046.1-.092.191-.137.286-.108.234-.193.409-.273.568l-.012.023-.018.035c-.234.45-.512.931-.853,1.471a11.924,11.924,0,0,1-1.033,1.386,15.579,15.579,0,0,1-1.26,1.162c-.213.182-.437.36-.653.532l-.035.028c-.2.163-.423.314-.634.46l-.077.053c-.453.3-.864.545-1.257.759-.291.159-.584.318-.876.476l-.081.044-.44.238c-.469.254-.949.486-1.4.7-.138.066-.277.13-.42.194l-.029.014-.307.141c-.24.113-.476.222-.718.321l-.465.193c-.249.1-.5.207-.746.307-.129.052-.264.1-.387.141l-.163.056-.228.082c-.113.041-.226.082-.339.121-.482.161-.919.3-1.336.428s-.848.241-1.264.352l-.017,0-.187.049c-.533.142-.985.254-1.451.336l-.392.066c-.117.019-.234.038-.352.059-.078.013-.156.027-.234.042l-.044.008c-.147.027-.3.055-.448.077l-.364.052-.027,0c-.343.049-.7.1-1.046.165-.5.094-.942.172-1.358.241-.4.065-.8.126-1.19.184l-.04.007c-.08.012-.161.025-.241.038l-.04.007c-.1.018-.207.036-.312.051-.222.032-.472.063-.786.1-.115.012-.226.023-.33.031l-.216.014c-.209.013-.42.029-.63.046h0l-.042,0-.193.007-.067,0-.28.009c-.388.016-.811.028-1.374.039-.468.009-.926.015-1.362.016h-.909c-.155,0-.31,0-.465,0-.3,0-.624.016-1.041.038-.2.01-.394.017-.591.024l-.059,0-.465.018c-.346.016-.707.023-1.1.023-.317,0-.651,0-1.02-.015-.758-.039-1.655-.1-2.568-.228-.82-.119-1.694-.273-2.75-.484-.861-.172-1.516-.323-2.126-.49a17.8,17.8,0,0,1-1.758-.651,16.122,16.122,0,0,1-1.769-.961,17.632,17.632,0,0,1-1.634-1.123c-.237-.188-.547-.438-.84-.7-.087-.078-.172-.157-.257-.239l0,0h0c.262-.211.51-.4.757-.584.288-.212.611-.436,1.019-.7.172-.113.342-.227.513-.342l.058-.039c.155-.1.311-.208.467-.31l.045-.03c.312-.205.634-.416.93-.653.087-.07.173-.139.26-.2a.68.68,0,0,0,.285-.4.648.648,0,0,0-.484-.781.693.693,0,0,0-.155-.017.576.576,0,0,0-.343.1c-.083.062-.164.126-.245.19s-.168.133-.254.2c-.14.1-.288.2-.436.3l-.074.048-.662.432-.346.225c-.748.488-1.42.933-2.06,1.434l-.133.1-.066.051h0l-.134-.163c-.217-.265-.406-.536-.613-.838s-.4-.6-.575-.89c-.118-.2-.227-.4-.326-.59l0,0h0l.407-.223c.293-.163.6-.324.868-.467l.137-.072c.3-.159.627-.329.966-.489q.252-.112.506-.221c.072-.031.144-.06.217-.088.095-.038.2-.081.3-.126.165-.075.331-.148.5-.221.216-.1.438-.194.658-.294l.02-.008.091-.042-.083.039c.117-.05.236-.1.358-.144l.072-.028a.621.621,0,0,0,.346-.285.593.593,0,0,0-.243-.8.637.637,0,0,0-.291-.073.469.469,0,0,0-.169.029l-.1.037-.016.006c-.137.053-.28.108-.417.17-.185.084-.375.163-.557.241l-.012,0-.134.057-.054.023c-.119.051-.234.1-.35.146l-.2.075c-.123.048-.245.1-.367.145-.791.32-1.561.7-2.345,1.095-.176.089-.352.18-.527.271l-.139.071-.022.011h0q-.051-.117-.1-.236c-.161-.4-.313-.81-.493-1.3-.046-.126-.089-.254-.134-.4-.024-.072-.046-.144-.071-.217q-.106-.311-.208-.623l-.042-.133h0c.185-.059.354-.111.516-.158.314-.092.636-.194.919-.284l.046-.014.025-.008c.121-.039.258-.083.395-.116.077-.02.154-.037.238-.057s.192-.046.287-.07a.567.567,0,0,0,.35-.282.615.615,0,0,0-.243-.851.6.6,0,0,0-.288-.071.774.774,0,0,0-.191.025c-.093.025-.185.046-.283.068l-.013,0c-.1.022-.194.045-.289.07-.136.037-.274.08-.4.118l-.127.039c-.223.068-.449.133-.667.2l-.439.128-.07.021-.156.045c-.157-.506-.281-1.031-.4-1.538v-.008l-.017-.071c-.1-.458-.166-.833-.222-1.181-.065-.4-.141-.884-.207-1.371-.057-.427-.123-.91-.172-1.387-.044-.429-.084-.866-.121-1.289v-.014l-.006-.065c-.049-.562-.09-1.134-.13-1.687l0-.04q-.038-.551-.081-1.1c-.035-.45-.057-.9-.066-1.33,0-.213-.01-.428-.018-.642l0-.068c-.008-.256-.016-.512-.02-.769-.013-.681,0-1.367.015-2.03.005-.236.01-.471.014-.706,0-.19,0-.381.006-.574v-.01c0-.269,0-.549.011-.823l0-.1,0-.074c.01-.42.022-.852.029-1.278,0-.209.01-.418.016-.627l0-.134c.048-.905.141-1.832.225-2.63q.073-.7.15-1.395c.054-.482.129-.969.223-1.447.042-.216.082-.437.12-.65l0-.014,0-.024c.037-.21.076-.427.118-.639.087-.441.182-.835.29-1.2.073-.23.144-.433.217-.62a4.493,4.493,0,0,1,.318-.644,1.616,1.616,0,0,1,.132-.174,1.678,1.678,0,0,1,.18-.122l.03-.014h0a.772.772,0,0,0,.232.036.717.717,0,0,0,.178-.021c.076.018.149.038.211.057a4.5,4.5,0,0,1,.515.2,5.563,5.563,0,0,1,.49.264,10.127,10.127,0,0,1,1.708,1.376c.192.208.37.416.545.636.2.26.4.526.557.752.313.439.626.932.957,1.507.053.1.105.2.157.293l.044.083.273.515.04.074,0-.009.017.031.017.033.016.029,0,0,.013.024-.013-.023,0,.005.045.085c.094.177.2.377.314.564l.01.018a6.05,6.05,0,0,0,.368.555,1.279,1.279,0,0,0,.512.42,1.028,1.028,0,0,0,.38.079.707.707,0,0,0,.155-.016,2.133,2.133,0,0,0,.346-.1c.217-.085.434-.184.624-.271l.058-.026c.224-.1.452-.21.651-.305.279-.133.566-.269.856-.4.465-.2.958-.426,1.553-.7.491-.227,1-.433,1.484-.633l.132-.054c.511-.21,1.043-.411,1.582-.6l.534-.187.065-.023c.346-.122.7-.247,1.062-.368l.259-.09c.157-.055.336-.118.513-.172.267-.082.54-.161.835-.241.216-.059.437-.116.651-.17l.015,0,.1-.026.288-.074.177-.042.053-.012.029-.007.031-.007.038-.01.069-.016.033-.008.017,0,.009,0h-.006l.02-.005c1.214-.293,2.307-.523,3.339-.705.578-.1,1.174-.18,1.7-.249.564-.073,1.124-.137,1.666-.189.26-.025.524-.055.78-.085l.027,0,.068-.007q.273-.032.547-.061c.415-.044.855-.074,1.384-.1.232-.009.493-.014.818-.014l.5,0h.018c.474,0,.885.01,1.255.018.328.013.661.03.983.046h.014l.115.007.538.025.534.023c.428.018.814.035,1.2.058.245.015.49.027.735.04l.091,0,.091.005q.41.021.819.044c.557.033,1.141.07,1.786.113.49.033.988.072,1.469.11l.046,0h.008c.638.05,1.3.1,1.948.139.175.01.349.024.542.038l.26.02.212.016c.2.014.418.03.634.05.445.042.9.1,1.332.151l.025,0,.356.044c.336.041.672.1,1,.152l.333.056.079.013.186.029a2.7,2.7,0,0,0,.384.022h.072a.4.4,0,0,0,.082-.012l.022,0a.907.907,0,0,0,.4-.164.881.881,0,0,0,.262-.325,1.825,1.825,0,0,0,.084-.261c.005-.021.009-.044.012-.066l0-.013a.417.417,0,0,1,.009-.057c.018-.079.042-.158.063-.228.042-.139.078-.282.116-.428l.037-.145c.1-.391.209-.78.329-1.19.086-.273.179-.554.261-.8l.014-.043c.052-.16.105-.32.157-.481.059-.181.115-.362.171-.545l.042-.137c.064-.2.135-.41.2-.608l.008-.025.043-.123c.177-.513.371-1.015.573-1.49.1-.244.2-.448.3-.647s.213-.392.346-.612c.119-.179.244-.351.38-.528.035-.046.072-.09.11-.134s.106-.094.16-.141c.183-.152.386-.3.619-.465l.025-.016.064-.042.039-.026a2.61,2.61,0,0,1,.491-.247,2.5,2.5,0,0,1,.412-.1,2.155,2.155,0,0,1,.312.023,1.28,1.28,0,0,1,.164.059,1.827,1.827,0,0,1,.208.144,2.678,2.678,0,0,1,.264.314c.089.146.166.3.242.446.034.067.069.134.1.2.152.289.268.53.365.758.238.564.442,1.141.593,1.581l.021.062c.075.228.153.472.214.718.046.193.091.4.13.573l.048.215.059.264c.089.4.182.811.257,1.22a15.088,15.088,0,0,1,.176,1.5c.015.2.033.4.052.607l.005.06c.023.256.053.574.073.879v.025l0,.025c.015.273.023.482.024.681,0,.254,0,.509,0,.763,0,.5-.006,1.024-.019,1.6s-.038,1.076-.077,1.538c-.008.089-.016.177-.023.266l-.007.088c-.032.393-.065.8-.118,1.2-.031.237-.07.5-.121.839-.022.139-.038.279-.054.415-.013.109-.026.217-.041.325-.085.6-.185,1.185-.262,1.629l-.029.166c-.082.47-.167.956-.234,1.442-.074.547-.164,1.089-.25,1.592-.11.64-.228,1.3-.333,1.881l-.1.582c-.048.267-.1.534-.143.8l-.013.072c-.092.521-.187,1.06-.286,1.589-.055.251-.106.48-.158.7h0q-.3-.009-.6-.014c-.125,0-.249,0-.373,0-.247,0-.487,0-.717.014a7.252,7.252,0,0,0-1.173.164.622.622,0,0,0,.126,1.233.618.618,0,0,0,.121-.012,8.972,8.972,0,0,1,.886-.142c.138,0,.284-.005.434-.005.266,0,.536.005.867.018l.113,0h0l-.043.161-.043.161-.016.059c-.057.212-.114.424-.167.636s-.1.4-.155.6c-.056.217-.113.433-.169.652-.145-.02-.289-.038-.434-.055-.3-.036-.611-.054-.885-.07l-.077-.005-.239-.014-.469-.032-.185-.012-.4-.027c-.208-.014-.425-.019-.615-.023-.126,0-.252-.006-.38-.011H395.3a.585.585,0,0,0-.449.982.546.546,0,0,0,.391.189c.075,0,.149,0,.224.006h.028c.123,0,.235,0,.346.011.236.015.438.031.62.048.295.028.6.052.886.075l.05,0,.315.025c.322.027.619.059.906.1l.07.01-.075.256-.031.107-.046.158q-.092.31-.18.622c-.013.044-.025.09-.037.135l-.015.053c-.037.138-.08.293-.129.444-.112.351-.218.656-.324.933l0,.005-.45-.1-.286-.066c-.178-.04-.355-.084-.532-.128l-.015,0c-.211-.052-.429-.106-.644-.154-.087-.02-.174-.037-.262-.055l-.031-.006-.067-.014c-.247-.052-.5-.105-.759-.155-.178-.035-.36-.064-.538-.093l-.057-.009-.2-.033c-.541-.092-1.029-.175-1.52-.275a.34.34,0,0,0-.065-.006.639.639,0,0,0-.38.154.61.61,0,0,0-.061.863l.117.1a.62.62,0,0,0,.3.1c.441.09.891.174,1.327.256l.022,0,.107.021q.383.071.765.145c.349.077.724.162,1.1.262l.409.111.01,0c.243.066.493.135.742.2l.159.039.238.061.043.011h0Z" transform="translate(-338.477 -76.51)"/><path class="b" d="M376.863,156.715a1.435,1.435,0,0,0-.111-.271l-.021-.042-.01-.02a2.184,2.184,0,0,0-.34-.472,1.007,1.007,0,0,0-.339-.239l-.03-.013a1.944,1.944,0,0,0-.323-.26.98.98,0,0,0-.244-.1l-.017-.006-.046-.015c-.042-.014-.084-.026-.127-.037l-.008,0a2.237,2.237,0,0,0-.5-.068h-.066a3.28,3.28,0,0,0-1.521.476,2.1,2.1,0,0,0-.953,1.032,3.466,3.466,0,0,0-.2.671c-.02.1-.032.194-.04.257a3.293,3.293,0,0,0-.036.439,1.718,1.718,0,0,0,.115.635,3.062,3.062,0,0,0,.188.383,1.639,1.639,0,0,0,.14.189l.028.034.014.018c.08.1.161.2.251.291a2.129,2.129,0,0,0,.3.235l.038.027a1.992,1.992,0,0,0,.715.3,2.688,2.688,0,0,0,.579.062,2.866,2.866,0,0,0,.779-.108,1.96,1.96,0,0,0,.271-.1,2.224,2.224,0,0,0,.921-.708,2.863,2.863,0,0,0,.585-1.156,3.914,3.914,0,0,0,.062-.461v-.011l.009-.094a2.577,2.577,0,0,0,.008-.464A2.348,2.348,0,0,0,376.863,156.715Z" transform="translate(-350.12 -94.982)"/><path class="b" d="M405.3,155.924a2.149,2.149,0,0,0-.083-.63,1.189,1.189,0,0,0-.171-.325,1.657,1.657,0,0,0-.285-.31,2.242,2.242,0,0,0-.752-.4,2.286,2.286,0,0,0-.464-.128l-.175-.022-.015,0-.015,0a2.8,2.8,0,0,0-.7-.1H402.6a3.243,3.243,0,0,0-.581.069l-.013,0a2.411,2.411,0,0,0-.539.164l-.027.012a2.351,2.351,0,0,0-.317.156,2.478,2.478,0,0,0-.339.267,2.256,2.256,0,0,0-.442.559,1.931,1.931,0,0,0-.192.64,2.7,2.7,0,0,0-.035.665,3.6,3.6,0,0,0,.139.682,1.933,1.933,0,0,0,.322.646,2.2,2.2,0,0,0,.286.319,2.837,2.837,0,0,0,.348.258,2.263,2.263,0,0,0,.656.26,3.034,3.034,0,0,0,.668.082h.027a2.786,2.786,0,0,0,.615-.094l.026-.006a2.832,2.832,0,0,0,.7-.266,1.333,1.333,0,0,0,.207-.135,4.5,4.5,0,0,0,.354-.3,2.729,2.729,0,0,0,.416-.554,3.656,3.656,0,0,0,.277-.623l.029-.08a1.876,1.876,0,0,0,.119-.733Z" transform="translate(-359.927 -94.571)"/><path class="b" d="M394.5,167.711a.725.725,0,0,0-.547.092l-.141.117a.714.714,0,0,0-.173.322l-.01.03c-.033.09-.064.181-.094.272l-.044.126a2.4,2.4,0,0,1-.162.306c-.059.071-.124.138-.182.2l-.038.04c-.061.064-.127.128-.2.192a1.606,1.606,0,0,1-.2.127,3.226,3.226,0,0,1-.528.181c-.054,0-.107.007-.161.007l-.1,0a1.941,1.941,0,0,1-.261-.061,2.494,2.494,0,0,1-.365-.195,1.542,1.542,0,0,1-.134-.125,1.459,1.459,0,0,1-.1-.166,2.626,2.626,0,0,1-.123-.445c-.03-.206-.047-.416-.063-.619V168.1c-.006-.078-.012-.157-.019-.235l0-.048,0-.026c-.008-.086-.016-.171-.025-.258h0v0h0l.008-.007a5.778,5.778,0,0,0,.482-.422l.08-.076c.043-.041.086-.082.128-.124a2.666,2.666,0,0,0,.275-.341,2.514,2.514,0,0,0,.182-.317l.049-.1.007-.014.014-.027c.032-.061.065-.121.095-.183s.054-.11.082-.165l.022-.045c.067-.134.144-.286.212-.437a3.2,3.2,0,0,0,.173-.48,2.811,2.811,0,0,0,.072-.5l0-.047a1.235,1.235,0,0,0-.048-.439.987.987,0,0,0-.2-.364.578.578,0,0,0-.07-.163l-.047-.057-.047-.057a.573.573,0,0,0-.259-.138,3.183,3.183,0,0,0-.553-.159c-.163-.03-.346-.053-.573-.076-.153-.015-.3-.03-.455-.038l-.1-.007-.117-.009c-.153-.013-.308-.018-.46-.018-.13,0-.258,0-.381.014-.059,0-.117.01-.175.016h-.008c-.1,0-.21-.006-.314-.006a3.056,3.056,0,0,0-.442.027,8.406,8.406,0,0,0-1.164.238l-.229.07-.043.013-.271.083a3.8,3.8,0,0,0-.658.246.909.909,0,0,0-.242.189,1,1,0,0,0-.2.364l-.012.033a1.171,1.171,0,0,0-.055.262l0,.024a2.552,2.552,0,0,0-.028.445,1.96,1.96,0,0,0,.078.439,2.617,2.617,0,0,0,.27.632,4.087,4.087,0,0,0,.413.553,4.653,4.653,0,0,0,.751.7,4.406,4.406,0,0,0,.6.4l.016.009c.164.088.333.179.508.254a6.938,6.938,0,0,0,.716.254,2.251,2.251,0,0,0,.376.082h0c0,.049-.006.1-.01.148a3.917,3.917,0,0,1-.206.789,2.917,2.917,0,0,1-.235.464,1.7,1.7,0,0,1-.142.154,3.439,3.439,0,0,1-.445.278,2.741,2.741,0,0,1-.466.142,2.68,2.68,0,0,1-.3.017c-.058,0-.121,0-.187-.006a2.888,2.888,0,0,1-.485-.111,1.281,1.281,0,0,1-.163-.087l-.062-.049-.031-.024-.093-.074c-.034-.026-.067-.054-.1-.081a2.244,2.244,0,0,0-.259-.192.609.609,0,0,0-.316-.083.718.718,0,0,0-.381.108.7.7,0,0,0-.29.791.914.914,0,0,0,.295.416c.037.032.075.062.113.092l.016.013.049.038.035.029a2.286,2.286,0,0,0,.528.348,3.532,3.532,0,0,0,1.323.267h.038a3.266,3.266,0,0,0,.636-.071,3.089,3.089,0,0,0,.729-.261,3.017,3.017,0,0,0,.912-.663,2.126,2.126,0,0,0,.22-.289c.008-.013.014-.026.022-.039v0h0a2.443,2.443,0,0,0,.256.308,1.783,1.783,0,0,0,.3.243l.018.013c.069.048.161.111.255.169a2.2,2.2,0,0,0,.382.171l.029.011a1.881,1.881,0,0,0,.251.079,2.7,2.7,0,0,0,.594.066h.06a2.98,2.98,0,0,0,1.015-.246,2.345,2.345,0,0,0,.486-.241,3.808,3.808,0,0,0,.456-.382,3.033,3.033,0,0,0,.618-.789,3.4,3.4,0,0,0,.23-.6,1.853,1.853,0,0,0,.074-.56A.722.722,0,0,0,394.5,167.711Z" transform="translate(-354.72 -97.742)"/><path class="c" d="M376.763,64.868c-.575,0-1.1.022-1.619.066-.874.076-1.725.2-2.593.333-.52.087-1.068.192-1.673.323-.52.113-1.043.26-1.549.4l-.009,0-.035.01c-.515.144-1.014.311-1.392.44-.3.1-.61.227-.883.336-.136.055-.273.109-.411.163l-.028.011c-.4.155-.852.331-1.291.506-.4.159-.8.333-1.183.5l-.058.026c-.208.093-.493.221-.75.356-.282.15-.615.328-.943.524s-.634.387-.9.568-.5.356-.768.559c-.222.183-.453.38-.7.6-.2.173-.383.364-.564.549-.068.069-.13.133-.193.2a14.767,14.767,0,0,0-1.239,1.459,19.254,19.254,0,0,0-1.261,2.073c-.186.352-.368.715-.543,1.065l-.009.017-.03.062c-.14.278-.32.646-.482,1.026a15.773,15.773,0,0,0-.578,1.71c-.069.269-.155.6-.209.926-.043.26-.082.538-.12.847-.02.2-.041.4-.058.6-.019.217-.034.413-.034.611a9.859,9.859,0,0,0,.082,1.153l.065.372.01.053q.032.177.062.354l.007.036c.046.265.094.536.161.8a12.767,12.767,0,0,0,.526,1.57,6.568,6.568,0,0,0,.4.741c.156.244.329.49.513.73.238.273.482.53.724.763s.508.459.847.725a9.9,9.9,0,0,0,2.149,1.234,11.845,11.845,0,0,0,1.476.467l.107.025c.23.053.467.109.7.15.182.031.38.059.639.09.292.031.58.059.882.086l.2.017c.239.022.51.046.771.059.134.006.254.009.368.009.192,0,.37-.008.542-.024.239-.023.47-.056.685-.088L366.9,91c.225-.037.451-.074.677-.109l-.073.009c.21-.032.427-.066.639-.113l.182-.042c.184-.041.368-.082.553-.121.515-.109,1.063-.23,1.595-.39.114-.034.229-.067.343-.1.248-.07.5-.142.75-.235.213-.081.428-.167.636-.25l.016-.007.109-.043.266-.105a7.156,7.156,0,0,1,.753-.237l.01,0a2.019,2.019,0,0,1,.479-.088h.032a.654.654,0,0,1,.072,0,1.184,1.184,0,0,1,.343.065.744.744,0,0,1,.314.18l.1.124.019.023q.018.03.034.061a.525.525,0,0,1,.217.213c.093.173.212.4.315.645.04.094.077.191.115.291s.067.178.1.266c.155.373.32.749.461,1.073.134.307.264.626.379.908l.082.2c.089.219.181.435.272.652l.08-.09c.136-.158.262-.321.408-.517.174-.239.316-.439.448-.63.059-.086.117-.172.176-.258.1-.142.2-.289.3-.433s.185-.259.278-.388l.231-.322c.132-.183.272-.365.408-.541l.071-.092.1-.136.077-.1.076-.1.03-.042c.185-.25.371-.5.571-.742a1.241,1.241,0,0,1,.345-.289,1.744,1.744,0,0,1,.214-.1,1.194,1.194,0,0,1,.237-.052l.037-.005c.061-.009.121-.015.182-.021.2-.019.4-.025.6-.031h.09c.438-.013.884-.026,1.322-.063l.37-.031c.31-.025.661-.053,1-.092.441-.05.876-.111,1.319-.176l.094-.016.095-.016a11.182,11.182,0,0,0,1.3-.28c.478-.14.948-.3,1.389-.451.98-.336,1.763-.634,2.463-.938a13.786,13.786,0,0,0,1.411-.76,15.3,15.3,0,0,0,1.267-.895c.24-.2.495-.416.723-.65a10.4,10.4,0,0,0,.7-.8,7.74,7.74,0,0,0,.624-1.022c.21-.417.385-.8.536-1.156a7.826,7.826,0,0,0,.314-1.04c.065-.309.107-.62.142-.91a9.542,9.542,0,0,0,.066-1.287,11.843,11.843,0,0,0-.111-1.227c-.034-.2-.074-.411-.126-.623-.066-.267-.143-.532-.2-.733-.142-.468-.29-.9-.453-1.308-.091-.2-.191-.416-.308-.619-.161-.279-.289-.493-.417-.691-.19-.294-.347-.53-.493-.741-.125-.18-.265-.354-.4-.524-.385-.451-.787-.881-1.2-1.282-.158-.152-.327-.3-.49-.439l-.147-.127c-.2-.17-.4-.329-.636-.515-.365-.267-.675-.478-.974-.663-.123-.077-.246-.155-.368-.234l-.02-.013c-.227-.146-.484-.31-.739-.458-.321-.186-.746-.426-1.188-.629-.362-.166-.739-.331-1.184-.52-.584-.221-1.182-.428-1.7-.605-.536-.184-.977-.329-1.389-.457-.358-.109-.733-.214-1.065-.307l-.271-.075c-.426-.12-.87-.223-1.32-.306-.4-.073-.829-.138-1.348-.2-.341-.036-.674-.072-1.005-.1l-.213-.02h-.012c-.31-.029-.63-.06-.946-.075-.462-.023-.889-.034-1.3-.034Zm1.615,17.323h.11c.087,0,.167-.01.244-.019a2.018,2.018,0,0,0,.293-.093,3.687,3.687,0,0,0,.592-.375,3.111,3.111,0,0,0,.332-.352,2.762,2.762,0,0,0,.191-.345,2.1,2.1,0,0,0,.059-.294,3.3,3.3,0,0,0-.023-.6,5.391,5.391,0,0,0-.28-.925c-.111-.276-.235-.563-.379-.876a6.547,6.547,0,0,0-.673-1.017c-.049-.064-.1-.126-.152-.19l-.008-.01c-.071-.087-.144-.178-.211-.27a3.4,3.4,0,0,1-.325-.511,5.116,5.116,0,0,1-.277-.651,2.283,2.283,0,0,1-.127-.7,4.026,4.026,0,0,1,.084-.693,2.146,2.146,0,0,1,.221-.651,2.2,2.2,0,0,1,.422-.533,2.567,2.567,0,0,1,.582-.426,1.758,1.758,0,0,1,.381-.154,2.351,2.351,0,0,1,.38-.058c.037,0,.074,0,.111,0a3.012,3.012,0,0,1,.546.06.517.517,0,0,1,.337.233.592.592,0,0,1,.084.449.572.572,0,0,1-.248.349.556.556,0,0,1-.3.086.711.711,0,0,1-.132-.013l-.159-.028h-.02a1.591,1.591,0,0,0-.173.01,1.374,1.374,0,0,0-.166.052,1.828,1.828,0,0,0-.223.148,2.286,2.286,0,0,0-.239.245,1.572,1.572,0,0,0-.1.19,2.6,2.6,0,0,0-.078.418,1.962,1.962,0,0,0,0,.339,2.871,2.871,0,0,0,.149.432,3.936,3.936,0,0,0,.453.7,11.593,11.593,0,0,1,.8,1.016,4.009,4.009,0,0,1,.3.515c.09.184.179.376.257.545l.016.033a9.1,9.1,0,0,1,.4.952,4.435,4.435,0,0,1,.12.432,4.3,4.3,0,0,1,.1.619,3.875,3.875,0,0,1-.015.729c-.012.115-.026.2-.042.288a2.1,2.1,0,0,1-.127.382A3.2,3.2,0,0,1,380.7,82.7a4.146,4.146,0,0,1-1.026.716l-.011,0a2.406,2.406,0,0,1-.425.177,4.214,4.214,0,0,1-.47.09,2.675,2.675,0,0,1-.365.026,2.034,2.034,0,0,1-.35-.029.737.737,0,0,1-.462-.329.753.753,0,0,1,.233-1.038.746.746,0,0,1,.376-.116,1.125,1.125,0,0,1,.138-.006Zm9.342.815a1.854,1.854,0,0,1-.453-.054,1.1,1.1,0,0,1-.114-.038l-.014,0a1.239,1.239,0,0,1-.5-.272,2.592,2.592,0,0,1-.435-.6,5.411,5.411,0,0,1-.46-1.23,7.442,7.442,0,0,1-.169-1.242,9.839,9.839,0,0,1-.016-1.224c.02-.377.059-.76.1-1.131V77.2l.026-.248c.039-.389.1-.782.156-1.162v-.009l.005-.035c.047-.31.1-.625.155-.928l.038-.213c.029-.167.055-.335.08-.5l0-.015,0-.013a4.487,4.487,0,0,1,.127-.584.642.642,0,0,1,.274-.385.626.626,0,0,1,.338-.1.649.649,0,0,1,.144.016.658.658,0,0,1,.4.306.575.575,0,0,1,.063.45,3.155,3.155,0,0,0-.108.5l0,.025c-.018.133-.034.264-.047.392-.016.155-.036.312-.055.465s-.038.308-.054.464l.008-.047c-.014.1-.024.193-.035.29l-.01.092-.011.1-.03.279,0,.03-.017.162c-.028.33-.047.658-.06.907l-.01.2v.009c-.013.235-.027.477-.028.716a11.079,11.079,0,0,0,.131,1.7,5.047,5.047,0,0,0,.326,1.05,3.137,3.137,0,0,0,.192.323l.013,0c.038,0,.074,0,.111-.006s.073-.022.109-.035l.057-.035c.045-.046.087-.1.128-.146l.028-.032.009-.01.008-.009c.053-.063.105-.125.156-.189a5.763,5.763,0,0,0,.293-.529c.05-.1.1-.194.152-.289l.007-.013c.062-.114.132-.243.195-.372.214-.438.4-.847.556-1.25l.013-.028.045-.123a.848.848,0,0,1,.053-.149l.026-.07.009-.026c.106-.294.215-.6.314-.9s.2-.642.317-1.036c.1-.354.2-.715.285-1.072.041-.17.078-.35.116-.549.008-.044.016-.09.023-.137a1.481,1.481,0,0,1,.165-.559.778.778,0,0,1,.265-.284.762.762,0,0,1,.382-.119h.028a.766.766,0,0,1,.766.739,1.209,1.209,0,0,1-.032.366l-.011.063q-.009.044-.016.089l-.007.04c-.007.044-.015.088-.023.132-.029.159-.065.349-.111.539-.162.676-.36,1.372-.6,2.128-.109.337-.233.679-.341.979l-.035.1-.021.06c-.024.068-.045.127-.07.186l-.011.026-.009.026c-.057.152-.108.287-.163.424a22.5,22.5,0,0,1-1,2.079,4.679,4.679,0,0,1-.687.941,1.943,1.943,0,0,1-1.4.619Zm-13.333-1.177a1.871,1.871,0,0,0,.192-.01,2.2,2.2,0,0,0,.29-.092,1.842,1.842,0,0,0,.2-.134,2.6,2.6,0,0,0,.277-.31,2.155,2.155,0,0,0,.148-.26c.009-.033.016-.067.022-.1a3.316,3.316,0,0,0-.028-.523,4.779,4.779,0,0,0-.229-.733c-.107-.275-.2-.5-.291-.708a7.33,7.33,0,0,0-.6-.982c-.073-.1-.148-.2-.223-.3-.173-.233-.35-.472-.5-.72a5.356,5.356,0,0,1-.289-.518l-.013-.026a3.254,3.254,0,0,1-.252-.662,2.153,2.153,0,0,1-.058-.418,2.211,2.211,0,0,1,.032-.384,3.143,3.143,0,0,1,.126-.559,2.01,2.01,0,0,1,.394-.7,2.427,2.427,0,0,1,.285-.26,1.165,1.165,0,0,1,.2-.137,2.2,2.2,0,0,1,.781-.272,1.208,1.208,0,0,1,.134-.007c.1,0,.206.011.307.021l.108.011h.02a.577.577,0,0,1,.275.069l.035.025.086.061a.578.578,0,0,1,.029.817.575.575,0,0,1-.376.186h-.026l-.069-.007h-.009c-.1-.009-.2-.019-.3-.019-.031,0-.062,0-.092,0a1.427,1.427,0,0,0-.154.053,1.76,1.76,0,0,0-.206.127,1.738,1.738,0,0,0-.122.132,1.685,1.685,0,0,0-.1.192,2.272,2.272,0,0,0-.073.369,1.845,1.845,0,0,0,0,.263,2.426,2.426,0,0,0,.113.341,6.308,6.308,0,0,0,.65.993l.037.047.013.018c.217.279.441.569.643.866.093.137.2.3.3.469a5.532,5.532,0,0,1,.276.558l.043.094a8.419,8.419,0,0,1,.4,1.048,4.238,4.238,0,0,1,.138.7,2.4,2.4,0,0,1,.018.534c0,.023,0,.047-.006.07v.018a1.314,1.314,0,0,1-.059.35l-.016.046a2.773,2.773,0,0,1-.142.341,3.962,3.962,0,0,1-.42.609,2.771,2.771,0,0,1-.483.445,2.008,2.008,0,0,1-.594.309,2.756,2.756,0,0,1-.714.136l-.1,0a1.8,1.8,0,0,1-.76-.163,2.069,2.069,0,0,1-.561-.42c-.033-.032-.065-.066-.1-.1l-.06-.062a1.164,1.164,0,0,1-.287-.434.7.7,0,0,1,.673-.914.732.732,0,0,1,.16.018.7.7,0,0,1,.317.17l.011.011a2.891,2.891,0,0,1,.223.187c.078.072.147.132.215.188l.05.027.059.013h.041ZM370.8,83.463a.715.715,0,0,1-.6-.331,1.508,1.508,0,0,1-.167-.7l-.032-.4,0-.031c-.028-.356-.051-.654-.071-.953l-.012-.184,0-.026c-.038-.571-.076-1.162-.1-1.744-.005-.115-.012-.23-.018-.345,0-.08-.009-.161-.013-.241s-.007-.158-.01-.237v-.035c0-.1-.009-.209-.015-.313-.022-.346-.032-.7-.042-1.037l-.006-.192c-.01-.368-.027-.76-.051-1.237,0-.036,0-.072-.007-.109l0-.058c-.007-.115-.017-.259-.016-.4a6.055,6.055,0,0,1,.061-.744.622.622,0,0,1,.282-.4.64.64,0,0,1,.347-.1.67.67,0,0,1,.148.016.653.653,0,0,1,.4.283.641.641,0,0,1,.1.322c-.005.057-.011.115-.017.172l0,.042c-.005.041-.011.082-.015.123a6.513,6.513,0,0,0,.028.713l.007.092.01.134.01.134V75.7c.015.2.031.41.043.615.006.105.011.211.016.317l0,.078c.009.186.019.372.03.559.009.142.022.285.036.443.012.137.026.292.036.444.026.413.054.827.085,1.231.013.18.029.36.045.539l.005.061c.016.184.032.361.045.539.037.471.069.847.1,1.181.012.126.024.252.037.376l.02.206c0,.038.008.076.012.113a1.549,1.549,0,0,1,0,.511.721.721,0,0,1-.668.548Zm-6.713-4.22c.078-.224.164-.474.269-.789.053-.159.1-.318.155-.478.071-.22.143-.447.22-.669.117-.335.238-.7.389-1.194.065-.209.124-.418.188-.65l.016-.055c.042-.147.082-.295.126-.441a5.581,5.581,0,0,1,.236-.649,1.01,1.01,0,0,1,.213-.331.723.723,0,0,1,.687-.208.743.743,0,0,1,.457.331,3.188,3.188,0,0,1,.259.64c.064.2.12.4.169.574l.01.034.054.192.016.057c.03.105.06.211.089.318.039.146.071.3.1.442.011.053.022.1.032.15.038.177.078.354.119.53.048.213.1.426.142.64.051.238.1.477.146.742.028.146.055.292.084.437.044.226.09.452.136.678l.006.03,0,.016c.113.557.229,1.134.33,1.7.081.457.16.851.241,1.206.038.168.084.366.139.561l.038.136.038.136c.022.08.042.159.059.245l0,.009a.761.761,0,0,1-.053.565.729.729,0,0,1-1.141.189,1.228,1.228,0,0,1-.335-.669l-.017-.065c-.048-.177-.089-.346-.125-.516-.09-.426-.165-.811-.228-1.175-.013-.075-.026-.15-.039-.225l0-.021-.018-.11-.1-.544-.024-.13q-.143-.768-.288-1.536-.044-.235-.086-.47c-.04-.224-.082-.46-.128-.692s-.1-.493-.153-.74l-.008-.038q-.042-.2-.084-.4l-.055-.267c-.065.193-.13.385-.194.577l-.039.115c-.061.183-.122.366-.182.549q-.109.333-.215.667c-.173.545-.353,1.108-.556,1.659-.014.038-.027.074-.04.112a2.826,2.826,0,0,1-.132.33.888.888,0,0,1-.31.353.705.705,0,0,1-.37.109h-.03a.685.685,0,0,1-.3-.067l-.052-.02a1.15,1.15,0,0,1-.333-.233,2.4,2.4,0,0,1-.239-.263l-.034-.041c-.09-.108-.174-.227-.249-.332l-.013-.018c-.026-.037-.052-.073-.078-.109-.09-.123-.209-.285-.335-.443l-.02-.023c-.115-.138-.233-.277-.356-.405-.151-.155-.32-.325-.516-.517l-.115-.113-.115-.113c-.011.152-.017.3-.023.454l0,.04c-.01.243-.02.493-.036.739-.028.425-.048.839-.059,1.231l-.007.229c-.009.3-.018.629-.012.955.008.394.026.794.042,1.181.005.121.007.241.009.358v.016a6.256,6.256,0,0,0,.036.683c.015.072.031.144.047.216a.691.691,0,0,1-.047.507.651.651,0,0,1-.577.345.657.657,0,0,1-.31-.078.635.635,0,0,1-.314-.38,5.091,5.091,0,0,1-.127-.762c-.009-.116-.012-.234-.015-.348v-.063c0-.063,0-.126-.007-.19-.01-.231-.022-.461-.035-.692-.01-.179-.018-.352-.027-.524-.019-.4-.023-.8-.011-1.181,0-.121.007-.242.01-.363.007-.285.015-.58.032-.872,0-.07.009-.14.013-.21l0-.023c.008-.13.017-.266.021-.4l.006-.211v-.054c0-.122.007-.244.012-.366.008-.207.017-.395.028-.574.012-.21.037-.426.059-.617l.013-.12V77.43a1.66,1.66,0,0,1,.038-.244,1.053,1.053,0,0,1,.214-.418.78.78,0,0,1,.316-.2.535.535,0,0,1,.192-.043l.028,0,.053,0a.773.773,0,0,1,.343.086.973.973,0,0,1,.1.059l.047.032.02.014a1.556,1.556,0,0,1,.158.116c.055.047.109.095.162.143l.042.038c.252.227.52.48.868.822l.094.09c.118.115.235.229.343.347.15.163.3.331.417.474.139.162.267.331.386.491h0Z" transform="translate(-344.256 -63.336)"/><path class="d" d="M401.287,104.274h0a2.535,2.535,0,0,0-.411.1,2.638,2.638,0,0,0-.491.25l-.039.026-.063.043-.025.016c-.233.162-.435.316-.618.47q-.082.07-.16.142c-.038.045-.075.09-.11.136-.136.179-.261.353-.38.534-.133.224-.246.427-.346.62s-.2.408-.3.656c-.2.481-.395.988-.572,1.508l-.043.125-.008.025c-.069.2-.14.41-.2.617l-.042.138q-.084.277-.171.551-.078.244-.158.487l-.014.043c-.082.252-.175.536-.261.813-.118.414-.226.808-.328,1.2l-.037.147c-.037.148-.074.292-.115.433-.021.071-.045.152-.063.232q-.006.028-.01.057v.013a.562.562,0,0,1-.012.068,1.776,1.776,0,0,1-.083.264.855.855,0,0,1-.661.494l-.021.005a.4.4,0,0,1-.081.013h-.072a2.647,2.647,0,0,1-.383-.023l-.186-.03-.079-.013-.332-.057c-.324-.055-.66-.113-1-.154l-.356-.044-.025,0c-.435-.054-.886-.11-1.33-.153-.216-.02-.437-.037-.633-.051l-.212-.016-.26-.02c-.193-.016-.367-.029-.541-.04-.649-.037-1.307-.09-1.944-.141H388.1l-.046,0c-.481-.038-.978-.078-1.467-.111-.644-.043-1.227-.08-1.783-.115q-.409-.025-.818-.045l-.091-.005-.091,0q-.366-.019-.733-.04c-.389-.023-.775-.04-1.2-.059l-.533-.024-.537-.026-.115-.005h-.014c-.322-.016-.654-.033-.982-.046-.37-.009-.78-.015-1.253-.018h-.018l-.5,0c-.325,0-.585,0-.817.014-.528.022-.967.052-1.382.1l-.545.062-.068.007-.027,0c-.255.03-.519.06-.778.086-.541.053-1.1.118-1.663.192-.528.069-1.122.148-1.7.251-1.031.184-2.121.418-3.333.714l-.019.005h.012l-.033,0-.033.008-.068.017-.039.009-.031.008-.029.007-.053.013-.177.043-.287.075-.1.026-.015,0c-.213.055-.434.112-.65.172-.294.081-.566.161-.833.244-.177.055-.355.118-.512.173l-.259.091c-.356.123-.714.25-1.06.374l-.064.023-.534.189c-.538.19-1.07.393-1.58.605l-.132.055c-.487.2-.991.41-1.482.64-.593.278-1.086.5-1.55.709-.29.128-.577.267-.855.4-.2.1-.426.206-.65.309l-.058.026c-.19.088-.406.188-.623.274a2.1,2.1,0,0,1-.345.1.7.7,0,0,1-.156.016,1.015,1.015,0,0,1-.379-.08,1.28,1.28,0,0,1-.511-.426,6.05,6.05,0,0,1-.367-.563l-.01-.017c-.114-.189-.22-.392-.313-.571l-.046-.088.01.02-.014-.03-.016-.029-.017-.033-.017-.032.008.02-.318-.607-.044-.084-.156-.3c-.33-.582-.643-1.08-.956-1.525-.16-.228-.352-.5-.556-.76-.175-.223-.352-.434-.544-.644a10.135,10.135,0,0,0-1.705-1.393,5.53,5.53,0,0,0-.489-.267,4.445,4.445,0,0,0-.515-.2c-.062-.019-.135-.04-.211-.058a.742.742,0,0,1-.178.022.758.758,0,0,1-.233-.037l-.031.014a1.68,1.68,0,0,0-.18.123,1.743,1.743,0,0,0-.132.177,4.576,4.576,0,0,0-.317.652c-.073.19-.143.4-.216.628-.108.374-.2.772-.289,1.219-.042.215-.081.434-.119.647l0,.024,0,.014c-.038.216-.078.439-.12.658-.094.484-.169.976-.223,1.465-.052.47-.1.941-.15,1.412-.084.808-.177,1.747-.225,2.663l0,.136c-.006.211-.012.423-.016.634-.007.431-.018.868-.029,1.293l0,.075,0,.1c-.007.277-.009.56-.011.833v.011c0,.2,0,.388-.006.581,0,.238-.008.476-.014.715-.014.671-.028,1.366-.015,2.056,0,.26.012.519.02.779l0,.068c.007.217.014.434.018.65.008.438.031.891.066,1.346.029.372.055.743.081,1.115l0,.04c.04.56.081,1.139.13,1.708l.006.066v.014c.038.428.076.87.121,1.3.049.482.115.972.172,1.4.066.493.141.979.207,1.388.056.352.126.731.221,1.2l.016.072,0,.008c.12.514.243,1.046.4,1.557.053-.014.1-.03.156-.045l.069-.02c.147-.044.293-.087.439-.129.218-.064.443-.13.666-.2l.127-.04c.122-.038.26-.082.4-.119.1-.026.193-.049.289-.071l.012,0c.1-.023.191-.045.283-.07a.772.772,0,0,1,.192-.026.594.594,0,0,1,.287.072.632.632,0,0,1,.3.363.648.648,0,0,1-.055.5.566.566,0,0,1-.35.286c-.1.026-.191.048-.287.071s-.161.038-.238.057c-.136.034-.273.078-.394.117l-.025.008-.046.014c-.283.091-.6.194-.918.287-.162.048-.33.1-.515.159l.042.134c.068.211.138.421.208.631.025.073.048.146.071.219.046.145.088.275.134.4.18.492.332.9.492,1.312q.048.121.1.239l.162-.084c.175-.092.35-.184.526-.275.783-.4,1.552-.784,2.341-1.108.122-.05.244-.1.367-.146l.195-.076c.115-.045.231-.1.349-.148l.054-.024.134-.058.012,0c.184-.078.373-.159.557-.244.137-.062.279-.118.417-.172l.016-.006.1-.038a.463.463,0,0,1,.169-.03.629.629,0,0,1,.291.074.6.6,0,0,1,.242.814.623.623,0,0,1-.345.289l-.072.028c-.132.051-.26.1-.385.157-.219.1-.441.2-.657.3l-.5.223c-.1.046-.208.09-.3.128-.072.03-.145.059-.216.09-.169.073-.337.148-.5.224-.339.163-.664.334-.965.5l-.137.072c-.269.144-.574.308-.867.472-.135.076-.271.151-.406.225.1.2.209.4.328.6.172.29.36.584.574.9s.4.58.612.849l.134.165.068-.054.133-.106c.638-.508,1.309-.958,2.056-1.451l.345-.228.661-.437.074-.049c.148-.1.3-.2.434-.3.086-.065.17-.132.254-.2s.161-.13.244-.192a.568.568,0,0,1,.343-.1.642.642,0,0,1,.554.3.669.669,0,0,1,.083.5.688.688,0,0,1-.285.4c-.087.066-.173.135-.26.206-.3.24-.617.455-.928.661l-.045.03c-.156.1-.311.209-.466.314l-.058.039-.512.346c-.407.271-.73.5-1.017.713-.247.185-.494.378-.756.592.086.084.173.166.261.246.292.268.6.521.838.712a17.665,17.665,0,0,0,1.631,1.137,16.03,16.03,0,0,0,1.766.973,17.73,17.73,0,0,0,1.755.66c.609.169,1.264.322,2.123.5,1.054.213,1.926.37,2.745.49.911.134,1.807.192,2.563.232.369.011.7.015,1.018.015.4,0,.756-.007,1.1-.023l.464-.018.059,0c.2-.007.393-.014.59-.024.416-.022.737-.034,1.04-.038.154,0,.309,0,.464,0h.908c.435,0,.892-.007,1.359-.016.562-.011.985-.024,1.372-.04l.279-.009.066,0,.193-.007c.224-.018.451-.035.676-.049l.216-.015c.1-.008.214-.018.33-.031.314-.036.563-.067.785-.1.1-.016.208-.034.311-.051l.04-.007c.079-.013.16-.027.24-.039l.04-.007c.39-.059.793-.121,1.188-.186.416-.069.86-.149,1.356-.244.349-.067.7-.118,1.044-.167l.026,0,.364-.053c.15-.022.3-.051.448-.078l.044-.008.234-.043.351-.059c.131-.021.261-.043.392-.066.466-.084.916-.2,1.449-.341l.186-.049.018,0c.415-.112.844-.227,1.262-.356s.853-.27,1.334-.433c.113-.04.226-.082.339-.123l.228-.083.162-.057c.122-.043.257-.09.386-.143.249-.1.5-.206.745-.311l.464-.2c.242-.1.477-.211.717-.325l.306-.142.029-.014c.142-.065.281-.128.419-.2.45-.219.929-.453,1.4-.711l.44-.241.081-.044.875-.482c.393-.217.8-.469,1.255-.769l.076-.053c.212-.148.43-.3.634-.466l.035-.028c.216-.174.44-.354.653-.539a15.743,15.743,0,0,0,1.258-1.177,12.058,12.058,0,0,0,1.031-1.4c.34-.547.618-1.034.851-1.49l.018-.035.012-.023c.08-.161.164-.339.273-.575.044-.1.091-.193.136-.289l.011-.023c.049-.1.1-.208.147-.312l.037-.08.057-.124-.282-.072-.158-.04c-.248-.063-.5-.132-.741-.2l-.01,0-.408-.112c-.375-.1-.748-.188-1.1-.266q-.382-.075-.764-.147l-.107-.02-.023,0c-.435-.082-.884-.168-1.324-.259a.606.606,0,0,1-.3-.106l-.117-.106a.625.625,0,0,1,.441-1.03.316.316,0,0,1,.065.006c.491.1.977.185,1.517.278l.2.033.057.009c.177.029.36.059.537.094.255.05.511.1.758.157l.066.014.031.006c.088.018.175.036.262.055.216.049.433.1.643.156l.015,0c.177.045.354.089.532.13l.286.067.449.1c.106-.281.212-.592.325-.949.049-.153.091-.31.128-.45l.015-.053c.012-.045.024-.092.037-.136q.088-.316.179-.63l.046-.16.031-.109.075-.26c-.307-.045-.625-.08-.974-.109l-.315-.026-.05,0c-.29-.024-.59-.048-.885-.076-.181-.017-.384-.033-.619-.048-.111-.007-.222-.009-.345-.011h-.028c-.075,0-.149,0-.224-.006a.55.55,0,0,1-.39-.192.606.606,0,0,1-.154-.443.593.593,0,0,1,.6-.551h.024c.127.005.253.009.379.012.191,0,.407.01.614.024l.4.027.184.013.468.032.238.015.077,0c.274.016.585.034.884.07.145.017.289.036.433.055q.085-.331.169-.66.078-.3.154-.608c.054-.215.111-.43.167-.644l.016-.059.043-.163.043-.163c-.384-.016-.686-.023-.981-.023-.15,0-.3,0-.433.005a8.817,8.817,0,0,0-.885.144.609.609,0,0,1-.121.012.631.631,0,0,1-.126-1.248,7.211,7.211,0,0,1,1.171-.166c.229-.009.47-.014.716-.014.124,0,.247,0,.372,0q.3,0,.594.014c.052-.222.1-.454.158-.71.1-.535.193-1.08.286-1.608l.012-.073c.048-.27.094-.541.143-.811l.1-.59c.1-.589.223-1.257.332-1.9.085-.511.175-1.059.25-1.613.066-.491.151-.984.233-1.459l.029-.168c.078-.449.177-1.043.261-1.649.016-.109.029-.219.042-.329.016-.137.033-.279.054-.42.051-.34.09-.609.121-.849.053-.4.086-.816.117-1.214l.007-.089c.008-.09.015-.179.022-.269.039-.468.064-.963.077-1.557s.02-1.111.02-1.618c0-.257,0-.515,0-.772,0-.2-.009-.413-.024-.689l0-.026v-.025c-.02-.309-.049-.631-.073-.89l-.005-.061c-.018-.2-.036-.41-.052-.615-.037-.488-.084-1.009-.175-1.521-.075-.413-.167-.83-.257-1.234l-.059-.267-.048-.217c-.039-.181-.084-.385-.131-.58-.061-.25-.138-.5-.212-.727l-.021-.062c-.151-.446-.355-1.032-.593-1.6-.1-.231-.212-.475-.364-.768-.035-.067-.07-.135-.1-.2-.076-.149-.153-.3-.242-.452a2.758,2.758,0,0,0-.264-.318,1.827,1.827,0,0,0-.208-.146,1.364,1.364,0,0,0-.164-.059,2.136,2.136,0,0,0-.311-.024Zm-17.746,37.541a2.932,2.932,0,0,1-.661-.082,2.231,2.231,0,0,1-.648-.26,2.83,2.83,0,0,1-.345-.258,2.268,2.268,0,0,1-.282-.318,1.964,1.964,0,0,1-.319-.647,3.68,3.68,0,0,1-.137-.682,2.767,2.767,0,0,1,.035-.664,1.938,1.938,0,0,1,.19-.64,2.241,2.241,0,0,1,.437-.56,2.511,2.511,0,0,1,.335-.267,2.317,2.317,0,0,1,.313-.156l.027-.012a2.357,2.357,0,0,1,.533-.164l.013,0a3.217,3.217,0,0,1,.574-.069h.042a2.766,2.766,0,0,1,.692.1l.015,0,.015,0,.172.022a2.281,2.281,0,0,1,.459.128,2.207,2.207,0,0,1,.743.4,1.651,1.651,0,0,1,.282.31,1.175,1.175,0,0,1,.169.325,2.155,2.155,0,0,1,.083.63l0,.062a1.9,1.9,0,0,1-.118.733l-.029.08a3.672,3.672,0,0,1-.274.623,2.73,2.73,0,0,1-.411.554,4.466,4.466,0,0,1-.35.3,1.347,1.347,0,0,1-.2.135,2.789,2.789,0,0,1-.692.266l-.027.006a2.727,2.727,0,0,1-.608.094Zm-18.419,1.036a2.591,2.591,0,0,1-.573-.063,1.942,1.942,0,0,1-.707-.3l-.038-.027a2.067,2.067,0,0,1-.292-.235c-.089-.091-.17-.193-.248-.291l-.014-.017-.027-.034a1.506,1.506,0,0,1-.137-.19,2.846,2.846,0,0,1-.187-.383,1.736,1.736,0,0,1-.113-.635,3.208,3.208,0,0,1,.036-.439c.008-.064.02-.16.039-.258a3.544,3.544,0,0,1,.2-.671,2.094,2.094,0,0,1,.942-1.032,3.216,3.216,0,0,1,1.5-.476h.065a2.153,2.153,0,0,1,.491.069l.008,0c.042.011.084.023.126.037l.044.015.018.006a.972.972,0,0,1,.241.1,1.923,1.923,0,0,1,.32.26l.029.012a1,1,0,0,1,.335.239,2.167,2.167,0,0,1,.336.472l.01.02.021.042a1.4,1.4,0,0,1,.109.271,2.448,2.448,0,0,1,.067.391,2.751,2.751,0,0,1-.008.464l-.008.094v.011a3.815,3.815,0,0,1-.061.461,2.885,2.885,0,0,1-.578,1.156,2.2,2.2,0,0,1-.911.708,1.925,1.925,0,0,1-.268.1,2.8,2.8,0,0,1-.77.108Zm10.323-.036h.008c.057-.007.115-.012.173-.016.122-.009.248-.014.377-.014.15,0,.3.006.455.018l.115.009.1.007c.149.008.3.022.45.038.224.022.4.046.566.076a3.116,3.116,0,0,1,.547.159.564.564,0,0,1,.256.138l.046.057.047.057a.587.587,0,0,1,.069.162,1,1,0,0,1,.2.364,1.255,1.255,0,0,1,.048.44l0,.047a2.894,2.894,0,0,1-.072.5,3.144,3.144,0,0,1-.171.48c-.067.152-.143.3-.209.437l-.023.045-.081.165c-.029.061-.061.123-.093.183l-.014.027-.007.014c-.016.031-.033.063-.049.095a2.514,2.514,0,0,1-.18.317,2.665,2.665,0,0,1-.272.341c-.042.042-.085.083-.127.124l-.08.076a5.731,5.731,0,0,1-.476.422l-.009.007c.01.088.018.173.025.26l0,.027,0,.047c.007.078.013.157.019.235v.008c.016.2.033.412.063.619a2.772,2.772,0,0,0,.12.445,1.556,1.556,0,0,0,.1.166,1.653,1.653,0,0,0,.133.125,2.555,2.555,0,0,0,.361.194,1.9,1.9,0,0,0,.258.061l.1,0c.053,0,.106,0,.16-.007a3.112,3.112,0,0,0,.522-.18,1.587,1.587,0,0,0,.2-.127c.069-.063.135-.127.2-.192l.037-.04c.057-.06.122-.128.18-.2a2.422,2.422,0,0,0,.16-.306l.043-.127c.03-.091.061-.182.093-.272l.01-.03a.717.717,0,0,1,.171-.322l.139-.117a.7.7,0,0,1,.541-.092.72.72,0,0,1,.544.67,1.892,1.892,0,0,1-.074.56,3.372,3.372,0,0,1-.227.6,3.041,3.041,0,0,1-.611.789,3.78,3.78,0,0,1-.451.382,2.406,2.406,0,0,1-.479.242,2.945,2.945,0,0,1-1,.246h-.059a2.638,2.638,0,0,1-.588-.066,1.844,1.844,0,0,1-.249-.079l-.028-.011a2.208,2.208,0,0,1-.378-.171c-.093-.058-.184-.121-.252-.169l-.019-.013a1.849,1.849,0,0,1-.3-.243,2.4,2.4,0,0,1-.253-.309,2.157,2.157,0,0,1-.242.328,3.292,3.292,0,0,1-1.623.924,3.1,3.1,0,0,1-.629.072h-.037a3.459,3.459,0,0,1-1.308-.268,2.233,2.233,0,0,1-.522-.347l-.035-.029-.048-.038-.016-.012c-.038-.03-.076-.061-.113-.092a.917.917,0,0,1-.291-.416.69.69,0,0,1,.663-.9.6.6,0,0,1,.313.083,2.221,2.221,0,0,1,.256.192l.1.081.091.074.031.024.061.049a1.257,1.257,0,0,0,.161.087,2.813,2.813,0,0,0,.479.111c.065,0,.128.006.185.006a2.643,2.643,0,0,0,.3-.017,2.7,2.7,0,0,0,.46-.142,3.394,3.394,0,0,0,.44-.278,1.7,1.7,0,0,0,.14-.154,2.933,2.933,0,0,0,.232-.464,3.99,3.99,0,0,0,.2-.789c0-.049.007-.1.01-.148a2.174,2.174,0,0,1-.373-.082,6.655,6.655,0,0,1-.708-.254c-.173-.076-.34-.167-.5-.254l-.016-.009a4.268,4.268,0,0,1-.59-.4,4.643,4.643,0,0,1-.742-.7,4.1,4.1,0,0,1-.408-.553,2.636,2.636,0,0,1-.267-.632,1.953,1.953,0,0,1-.077-.439,2.59,2.59,0,0,1,.028-.445l0-.024a1.213,1.213,0,0,1,.055-.262l.012-.033a1,1,0,0,1,.2-.364.9.9,0,0,1,.24-.188,3.715,3.715,0,0,1,.649-.247l.268-.083.042-.013c.075-.024.15-.047.225-.07a8.253,8.253,0,0,1,1.151-.238,2.988,2.988,0,0,1,.437-.027c.1,0,.207,0,.311.006Z" transform="translate(-340.941 -77.798)"/></g></g></g></svg>