<svg xmlns="http://www.w3.org/2000/svg" width="80" height="95" viewBox="0 0 80 95"><defs><style>.a{fill:#fff;}.b{fill:#1c3043;}.c{fill:#a5a8c2;}.d{fill:#c1dff2;}</style></defs><g transform="translate(-103.526 -237.417)"><path class="a" d="M183.27,277.676c-.846-5.478-3.616-11.486-5.5-15.029-9.061-17.012-27.35-30.815-47.037-22.976-9.581,3.819-24.21,20.92-26.684,30.884a14.13,14.13,0,0,0,.063,7.825c.675,2.025,1.949,3.81,2.631,5.832,1.38,4.095-2.044,9.3-2.347,13.567a30,30,0,0,0,2.685,14.433,34.9,34.9,0,0,0,21.24,18.607c13.273,4.121,29.274.17,38.247-10.641,1.894-2.281,12.5-30.268,7.646-30.293h.069a11.286,11.286,0,0,0,1.345-.077C182.84,288.95,184.19,283.626,183.27,277.676Z" transform="translate(0 0)"/><g transform="translate(110.39 244.034)"><path class="b" d="M155.031,248.36c-.78.045-1.557.129-2.33.243-.835.123-1.656.33-2.475.53l-.087.022c-.8.187-1.6.394-2.38.659q-.539.184-1.076.374c-.367.13-.729.272-1.093.409-.411.154-.818.315-1.218.495-.363.163-.718.345-1.067.537-.4.219-.805.428-1.192.668-.337.21-.658.443-.978.677a9.046,9.046,0,0,0-.992.859c-.286.281-.57.568-.835.869a10.968,10.968,0,0,0-.751.928,7.648,7.648,0,0,0-.636,1.079c-.084.174-.157.355-.231.534s-.145.346-.212.521c-.157.409-.288.824-.4,1.246a12.856,12.856,0,0,0-.406,2.343c-.037.451-.042.906-.048,1.358,0,.2,0,.405,0,.608s.011.381.02.571a18.094,18.094,0,0,0,.234,2.294c.133.759.239,1.525.4,2.279.169.806.385,1.6.611,2.392q.32,1.117.691,2.219c.124.363.246.727.373,1.09s.233.7.36,1.046c.087.236.172.473.254.711a2.5,2.5,0,0,0,.428.866l.118.123a.665.665,0,0,0,.813.02.675.675,0,0,0,.2-.841h0a.642.642,0,0,0-.055-.089c-.009-.01-.017-.021-.025-.033a5.3,5.3,0,0,1-.25-.662c-.033-.1-.068-.206-.1-.308l-.105-.291c-.079-.216-.177-.485-.263-.743-.127-.377-.258-.747-.38-1.092-.1-.275-.191-.568-.265-.8l-.09-.28c-.136-.422-.274-.882-.42-1.406-.123-.438-.222-.807-.306-1.14-.017-.065-.034-.131-.05-.2v.007l-.041-.164c-.174-.765-.3-1.545-.416-2.233l0-.018c-.022-.136-.046-.271-.069-.406l0-.031c-.041-.234-.083-.475-.117-.714-.045-.314-.069-.634-.092-.942l-.013-.172c-.016-.206-.027-.388-.035-.557,0-.054,0-.109-.008-.167-.007-.127-.014-.258-.014-.387,0-.325,0-.671.013-1.088a13.156,13.156,0,0,1,.157-1.651,13.886,13.886,0,0,1,.371-1.6c.116-.361.26-.716.4-1.048a8.519,8.519,0,0,1,.5-1.065c.119-.186.23-.349.341-.5s.253-.318.385-.473l.066-.077c.327-.383.671-.731.965-1.021a10.222,10.222,0,0,1,.945-.774,12.476,12.476,0,0,1,1.15-.757l.277-.152.369-.2c.333-.181.7-.361,1.12-.55.265-.119.541-.225.808-.328l.012,0,.3-.117c.744-.292,1.514-.557,2.24-.8.2-.067.4-.127.6-.184l.016,0,.219-.063c.229-.068.479-.136.809-.22s.676-.162,1.048-.256c.877-.2,1.555-.333,2.2-.42.423-.057.82-.1,1.212-.137.319-.028.645-.048.965-.067l.222-.014c.432-.026.944-.054,1.475-.057h.152c.336,0,.7,0,1.148.016.777.035,1.584.109,2.4.222l.436.061.855.119c.354.05.711.121,1.056.19l.165.032c.33.066.667.146.964.216l.029.007c.229.055.464.105.691.155l.016,0,.191.041q.216.047.433.09c.207.042.394.08.582.122.292.067.577.15.823.222a18.406,18.406,0,0,1,3.469,1.588,8.065,8.065,0,0,1,.73.542c.2.166.4.349.589.545a5.6,5.6,0,0,1,.573.722c.182.276.357.559.519.839a6.341,6.341,0,0,1,.305.656,6.476,6.476,0,0,1,.242.768c.044.188.072.334.09.472a6.09,6.09,0,0,1,.049.668c.008.406,0,.819-.011,1.218v.017c-.011.3-.03.7-.078,1.1-.051.421-.1.8-.152,1.181-.057.4-.133.789-.205,1.167l0,.009q-.106.552-.208,1.106c-.143.774-.316,1.555-.515,2.32-.108.421-.2.808-.287,1.185-.072.329-.163.738-.266,1.124-.131.492-.237.871-.344,1.228l-.04.13-.045.15-.046.149-.066.213c-.09.289-.18.579-.268.869l-.03.1-.013.042.01-.033c-.1.316-.2.634-.306.942l0,.009-.009.024c-.125.381-.255.776-.377,1.165-.111.357-.242.714-.369,1.059l-.008.02c-.133.363-.285.775-.408,1.178l-.007.022,0,.009-.065.208c-.04.129-.082.258-.124.386l-.013.039-.015.046-.1.3c-.047.148-.092.3-.132.448a.515.515,0,0,0,.1.4.531.531,0,0,0,.743.113.564.564,0,0,0,.21-.341c.023-.082.044-.164.068-.247.1-.319.221-.633.328-.95.118-.352.253-.7.39-1.042.292-.729.526-1.476.793-2.213s.49-1.468.729-2.2c.13-.4.258-.8.375-1.208.11-.382.225-.764.32-1.15s.177-.751.267-1.125c.1-.4.206-.8.308-1.2.1-.382.192-.765.278-1.149s.155-.777.233-1.165q.112-.557.221-1.114c.075-.386.135-.773.191-1.162s.11-.777.146-1.167c.043-.473.055-.947.066-1.421.009-.4.02-.8,0-1.2a6.686,6.686,0,0,0-.222-1.277,6.08,6.08,0,0,0-.378-1.073,10.028,10.028,0,0,0-.646-1.152,6.525,6.525,0,0,0-.722-.973,8.758,8.758,0,0,0-.961-.917c-.164-.131-.33-.258-.5-.374-.22-.146-.446-.283-.674-.415-.361-.208-.732-.395-1.106-.577a15.809,15.809,0,0,0-2.383-.944c-.394-.118-.791-.222-1.194-.3s-.781-.164-1.171-.25-.779-.185-1.17-.268q-.621-.132-1.248-.24c-.391-.068-.785-.115-1.177-.17q-.652-.092-1.306-.16c-.392-.041-.784-.082-1.178-.1-.471-.022-.944-.032-1.416-.038h-.257c-.73,0-1.457.04-2.185.081Z" transform="translate(-123.495 -248.279)"/><path class="b" d="M163.4,260.469h-.473c-.629,0-1.28,0-1.919.016-.437.009-.836.027-1.22.054-.184.012-.37.021-.564.03s-.414.02-.62.036a18.331,18.331,0,0,0-2.384.352,10.652,10.652,0,0,0-2.363.758,10.5,10.5,0,0,0-1.125.618,7.955,7.955,0,0,0-.937.687c-.383.325-.7.606-1.01.913a4.307,4.307,0,0,0-.381.416c-.131.17-.247.348-.334.484l-.026.042c-.112.176-.228.358-.327.545a3.7,3.7,0,0,0-.215.508,5.933,5.933,0,0,0-.274,1.2,16.21,16.21,0,0,0-.073,2.512c.008.334.024.773.074,1.214.036.322.09.675.168,1.113.063.344.13.68.183.935.035.174.068.348.1.523l.008.042.016.084c.02.1.04.209.06.313.041.211.087.423.13.634l.009.04.049.233c.074.352.164.712.245,1.03l.007.03c.06.254.118.512.175.764l.018.079,0,.015c.07.314.143.638.219.956.018.077.037.154.056.23l.007.029c.06.255.123.518.194.774.04.141.087.284.125.4.033.1.066.194.1.291a.593.593,0,0,0,1.093.028.613.613,0,0,0,.012-.461c-.1-.29-.195-.581-.273-.876-.1-.438-.2-.876-.292-1.316-.1-.505-.216-1.008-.34-1.508-.171-.718-.307-1.446-.434-2.174-.063-.368-.143-.732-.207-1.1s-.121-.744-.166-1.118a19.022,19.022,0,0,1-.088-2.437,8.337,8.337,0,0,1,.241-1.9c.041-.126.087-.251.139-.373a3.144,3.144,0,0,1,.185-.35c.113-.18.23-.358.356-.528a4.479,4.479,0,0,1,.472-.519c.324-.3.66-.586,1.005-.861a8.01,8.01,0,0,1,1.047-.688,8.6,8.6,0,0,1,1.1-.494c.193-.071.387-.141.584-.2.16-.047.32-.089.481-.129q.551-.122,1.109-.213c.412-.068.825-.114,1.241-.154.387-.038.774-.058,1.162-.07.408-.012.814-.043,1.222-.055.5-.015,1.005-.013,1.508-.014.472,0,.945,0,1.418,0,.687.03,1.371.083,2.054.169.356.044.709.108,1.062.17.314.055.625.121.931.207.113.038.222.08.334.122.156.059.313.116.466.181a7.031,7.031,0,0,1,.8.381,6.072,6.072,0,0,1,.991.8,3.961,3.961,0,0,1,.4.53,5.686,5.686,0,0,1,.276.7c.081.244.154.489.22.737a11.743,11.743,0,0,1,.186,2.607c-.016.355-.048.708-.088,1.062-.044.39-.089.78-.148,1.169-.117.769-.28,1.528-.422,2.293-.07.378-.136.757-.224,1.132s-.178.732-.263,1.1c-.172.743-.353,1.483-.526,2.225-.047.2-.09.4-.138.6-.046.185-.1.37-.14.555-.049.2-.1.4-.147.606-.025.1-.051.2-.079.3a1.743,1.743,0,0,0-.073.338.745.745,0,0,0,1.006.814l.169-.093a.743.743,0,0,0,.238-.294l0-.009h0c.134-.423.239-.863.333-1.276.034-.149.071-.3.107-.447l0-.012c.044-.18.09-.367.131-.554.116-.526.238-1.048.375-1.627l.043-.183c.032-.137.065-.274.1-.411.021-.085.04-.171.06-.257l.029-.129c.051-.224.111-.485.174-.74.077-.319.147-.654.227-1.087l.038-.206c.054-.294.115-.628.181-.956.083-.413.151-.79.207-1.152.063-.408.113-.813.158-1.191.043-.362.085-.749.1-1.124s.024-.813.01-1.338a11.005,11.005,0,0,0-.074-1.192,9.1,9.1,0,0,0-.29-1.33,7.6,7.6,0,0,0-.378-1.058,3.552,3.552,0,0,0-.356-.614,4.989,4.989,0,0,0-.454-.523,6.03,6.03,0,0,0-.874-.738c-.2-.138-.4-.266-.609-.382a4.636,4.636,0,0,0-.43-.2l-.028-.012c-.185-.08-.359-.151-.531-.216l-.112-.043-.046-.018c-.108-.041-.23-.089-.353-.13a9.874,9.874,0,0,0-1.255-.305c-.42-.079-.8-.139-1.153-.183s-.722-.08-1.173-.115-.868-.052-1.273-.052Z" transform="translate(-128.397 -253.043)"/><path class="b" d="M141.969,290.228c-.275,0-.551.012-.826.025s-.535.041-.8.067-.529.054-.793.091c-.522.076-1.044.16-1.561.269l-.12.026v0c-.507.113-1.01.258-1.5.4l-.063.018-.224.064-.011,0c-.427.122-.867.247-1.288.408a14.187,14.187,0,0,0-1.339.595c-.171.087-.353.185-.543.292h0c-.094.054-.188.109-.281.165-.243.146-.488.288-.732.434s-.5.31-.753.465-.473.319-.705.484c-.457.325-.9.663-1.337,1.019-.219.18-.436.36-.646.55s-.444.406-.662.613a29.184,29.184,0,0,0-2.429,2.643c-.378.459-.752.92-1.135,1.374s-.746.9-1.1,1.363-.721.953-1.064,1.443c-.369.527-.69,1.086-1.014,1.641q-.459.79-.882,1.6c-.257.492-.5.988-.73,1.494-.478,1.069-.923,2.155-1.352,3.245-.2.507-.37,1.028-.54,1.546q-.291.892-.543,1.8a33.137,33.137,0,0,0-.7,3.292c-.1.573-.192,1.145-.254,1.723-.029.272-.042.545-.061.818-.021.292-.039.585-.047.878-.036,1.234-.033,2.47-.029,3.7a8.817,8.817,0,0,0,.18,1.705c.119.595.246,1.185.4,1.772.068.26.136.521.225.776s.189.531.287.794.206.525.321.782.228.529.349.791.263.545.4.814c.152.295.323.578.491.863.3.506.61,1.006.936,1.495a21.7,21.7,0,0,0,2.214,2.711c.411.442.838.869,1.268,1.291s.882.849,1.332,1.264a14.916,14.916,0,0,0,1.322,1.072c.241.177.491.341.737.511.226.157.459.3.692.449q.819.512,1.676.961c.494.26.985.528,1.488.768.263.125.526.251.8.361s.552.217.827.328c.541.221,1.09.416,1.637.623.568.216,1.141.415,1.722.591.528.161,1.066.291,1.6.422.252.061.5.122.759.177s.534.1.8.146c.524.091,1.053.16,1.581.227.5.063.995.107,1.494.146.541.042,1.084.057,1.626.071.288.013.576.029.862.049.27.02.54.041.81.049.362.011.722.018,1.084.01l.809-.019c.558-.015,1.116-.049,1.673-.087s1.126-.075,1.685-.147c.526-.067,1.05-.151,1.57-.26.548-.115,1.095-.245,1.639-.377.323-.078.646-.155.963-.254q.4-.126.8-.267c.247-.087.491-.18.736-.275s.507-.191.757-.3c.513-.217,1.023-.447,1.523-.693a17.077,17.077,0,0,0,1.67-.89c.476-.3.939-.62,1.388-.963s.92-.7,1.366-1.06c.25-.2.486-.428.715-.656s.438-.44.651-.666c.4-.43.8-.863,1.181-1.317s.726-.917,1.066-1.393.658-.979.969-1.481c.328-.528.658-1.056.972-1.594.14-.24.278-.481.411-.726s.277-.5.4-.76q.389-.83.764-1.666c.111-.245.223-.49.331-.736.126-.287.24-.578.352-.871.278-.729.5-1.481.719-2.229.085-.281.169-.561.243-.845s.134-.541.2-.812c.13-.541.257-1.083.374-1.627a27.332,27.332,0,0,0,.546-3.347c.05-.566.118-1.132.147-1.7.033-.642.045-1.285.048-1.928,0-.571,0-1.141,0-1.712s-.028-1.112-.074-1.668-.13-1.1-.217-1.645-.18-1.093-.286-1.639-.219-1.072-.346-1.6c-.14-.585-.282-1.173-.472-1.744-.176-.527-.378-1.047-.6-1.555-.107-.239-.206-.484-.319-.721-.126-.266-.262-.528-.39-.794-.112-.232-.213-.47-.327-.7s-.237-.484-.358-.726c-.262-.526-.531-1.048-.822-1.56-.142-.249-.286-.493-.45-.726s-.336-.439-.5-.66-.338-.433-.5-.657c-.146-.2-.286-.412-.439-.611-.3-.387-.6-.772-.9-1.158s-.641-.756-.978-1.12c-.269-.291-.56-.559-.838-.841-.2-.207-.418-.4-.636-.593-.173-.151-.362-.282-.546-.418-.156-.115-.31-.225-.472-.329l.074.046c-.122-.084-.238-.169-.364-.248l.131.081c-.029-.019-.054-.044-.082-.063a1.561,1.561,0,0,0-.223-.129l-.057-.034c-.034-.022-.068-.043-.1-.063a.54.54,0,0,0-.134-.052c-.035-.023-.071-.045-.108-.066-.084-.049-.17-.1-.258-.138h0c-.094-.046-.192-.089-.289-.128-.231-.092-.421-.164-.6-.227-.158-.056-.321-.1-.482-.151l-.17-.05c-.454-.136-.923-.259-1.375-.376l-.015,0-.1-.026c-.159-.041-.34-.086-.554-.138-.367-.085-.735-.163-1.1-.236-.559-.111-1.123-.205-1.685-.3s-1.1-.193-1.652-.281c-.267-.042-.532-.093-.8-.134s-.536-.08-.8-.118c-.549-.079-1.1-.167-1.645-.242s-1.082-.129-1.624-.165-1.1-.063-1.646-.114c-.618-.058-1.239-.069-1.859-.077-.539-.006-1.078-.008-1.618-.01l-.885,0Zm1.989,54.976c-.421-.031-.85-.041-1.269-.051l-.136,0a30.993,30.993,0,0,1-3.233-.314c-.557-.082-1.133-.168-1.691-.3-.6-.136-1.186-.288-1.634-.406-.16-.041-.307-.082-.45-.124-.509-.165-1.033-.35-1.558-.549-.277-.1-.557-.208-.794-.295-.263-.1-.528-.2-.782-.307l-.025-.01-.035-.015-.35-.139-.051-.02c-.128-.05-.256-.1-.384-.152-.207-.084-.412-.183-.611-.278l-.164-.079c-.255-.121-.508-.256-.753-.386l-.01-.005-.041-.021q-.222-.118-.446-.233l-.029-.015-.08-.041-.2-.1c-.467-.245-.928-.518-1.317-.752-.431-.274-.858-.57-1.271-.855l-.013-.01-.019-.014c-.207-.143-.4-.3-.6-.454l-.039-.031c-.229-.184-.453-.373-.664-.562-.166-.149-.33-.3-.488-.456l-.119-.113-.19-.179-.055-.051c-.133-.124-.262-.245-.385-.366-.358-.351-.724-.719-1.12-1.123-.312-.336-.62-.678-.916-1.017-.384-.441-.681-.81-.934-1.161-.63-.875-1.182-1.79-1.592-2.49-.172-.324-.338-.643-.484-.977-.057-.132-.117-.264-.18-.4-.114-.254-.234-.517-.336-.781l-.033-.085c-.131-.334-.267-.68-.377-1.028-.1-.311-.194-.646-.289-1.027-.122-.538-.219-1.013-.3-1.452a8.763,8.763,0,0,1-.117-1.51c0-.975-.005-2.013.016-3.042.018-.491.048-1,.093-1.568.041-.5.115-1.054.233-1.735l.045-.262,0-.013c.082-.472.166-.959.26-1.436.1-.5.22-1.03.373-1.634.086-.337.183-.674.268-.958.163-.526.327-1.037.487-1.521.154-.467.346-.943.514-1.363l.093-.231.039-.1c.407-1.019.828-2.074,1.326-3.076.262-.528.536-1.047.77-1.486.2-.376.427-.76.628-1.1l.068-.116.112-.189c.159-.256.293-.465.424-.657.154-.226.31-.441.5-.7.375-.509.758-1,1.084-1.409.209-.263.43-.523.647-.779.157-.185.318-.375.474-.565l.082-.1c.341-.416.694-.847,1.053-1.264.625-.723,1.163-1.3,1.694-1.826l.006-.006c.332-.316.707-.673,1.1-.992.364-.3.8-.649,1.268-.991.182-.133.371-.266.553-.394l.031-.023.03-.021c.176-.124.362-.238.541-.348l.062-.038.1-.062c.425-.264.874-.534,1.332-.8a12.512,12.512,0,0,1,2.03-.883c.285-.093.579-.176.862-.256l.034-.01.293-.083c.433-.124.769-.217,1.09-.3.465-.1.96-.194,1.474-.271s1.06-.131,1.607-.182c.5-.046,1.006-.046,1.5-.047h1.834c.278,0,.571,0,.894.012.354.014.714.04,1.066.064l.076.005c.143.01.285.021.428.029.123.008.247.014.37.02l.043,0,.382.02c.181.011.359.026.557.043l.067.005.2.016c.481.038.993.1,1.66.2.289.044.585.082.871.118.217.027.487.062.743.1.562.082,1.117.172,1.654.26l.362.058.164.027.079.013c.355.057.723.116,1.082.177.531.091,1.1.193,1.663.311.427.09.854.193,1.251.291l.009,0,.266.065c.4.1.8.207,1.2.325.249.081.5.166.744.269.007.028.014.056.021.084a.734.734,0,0,0,.221.3.574.574,0,0,0,.089.075c.036.027.071.054.108.079h0l.062.041.009,0,.01.006a1.487,1.487,0,0,0,.133.081l.051.034.052.036.208.144.052.034-.028-.017.027.018-.048-.031c.076.051.147.1.227.163l.01.009.077.057.112.082c.138.1.28.205.414.318.211.178.412.373.591.545.062.06.122.121.182.182s.116.117.174.174l.05.049c.094.09.188.18.279.274.347.371.625.69.878,1,.074.092.147.186.22.279l.02.026c.064.082.127.165.192.246.162.2.322.415.463.6s.29.4.428.591l0,.007c.159.225.334.451.488.652l.008.01.129.167.025.032c.119.154.237.306.352.461a6.391,6.391,0,0,1,.448.7l.11.195c.223.414.443.841.672,1.305.128.258.257.531.37.771.1.214.215.457.329.688l.074.15.038.077.007.015c.084.169.171.345.251.52.073.158.143.32.213.486l.107.249a16.231,16.231,0,0,1,.586,1.572c.119.372.212.748.306,1.132.112.472.22.971.331,1.527.093.47.184.984.285,1.616a20.529,20.529,0,0,1,.3,3.307v.46c0,.728,0,1.553-.017,2.35-.022.544-.071,1.094-.117,1.626v.012l-.007.078c-.048.537-.1,1.111-.185,1.667s-.179,1.092-.287,1.614c-.079.377-.168.766-.246,1.109l-.025.113c-.038.168-.077.336-.114.5-.149.674-.3,1.262-.452,1.795q-.091.3-.181.6l-.012.038c-.153.5-.31,1.007-.5,1.5-.116.3-.221.579-.341.851-.086.195-.174.389-.261.583l-.077.171c-.24.531-.5,1.1-.759,1.656-.108.23-.232.458-.352.679l-.008.015-.041.073c-.135.25-.277.5-.421.745q-.17.29-.341.577c-.191.309-.384.617-.579.928l-.234.373c-.151.242-.311.482-.474.712l-.1.136-.005.008c-.134.19-.272.386-.415.573-.349.451-.723.93-1.124,1.376-.32.356-.746.822-1.2,1.277l-.143.142c-.258.241-.528.471-.822.7s-.591.458-.887.681-.614.461-.931.679c-.289.2-.594.391-.935.586-.426.229-.864.439-1.276.634-.543.258-.989.455-1.4.621-.459.184-.931.362-1.4.529-.446.158-.91.3-1.416.425-.439.106-.959.229-1.486.34-.487.1-1,.187-1.57.26-.533.068-1.08.105-1.609.141l-.076.005c-.531.035-1.1.071-1.673.087l-.076,0h-.034c-.4.01-.81.021-1.215.023-.411-.016-.816-.043-1.193-.069Z" transform="translate(-115.229 -265.455)"/><path class="b" d="M205.259,276.694a3.471,3.471,0,0,0-.859.227,3.161,3.161,0,0,0-.639.33,9.645,9.645,0,0,0-1.853,1.672c-.15.168-.3.337-.438.514-.121.154-.232.316-.344.475a12.646,12.646,0,0,0-.7,1.123c-.2.36-.4.718-.574,1.09a12.566,12.566,0,0,0-.492,1.2c-.134.385-.258.772-.376,1.161s-.2.777-.3,1.164c-.041.151-.084.3-.126.451s-.072.317-.1.475a.511.511,0,0,0,.386.6l.04.007.045.026a.6.6,0,0,0,.478.037,1.341,1.341,0,0,0,.327-.2l-.019.017a2.272,2.272,0,0,1,.386-.244c.133-.062.269-.119.4-.177.213-.091.421-.192.629-.294.316-.15.636-.292.95-.448l.517-.258c.167-.085.328-.18.492-.271A10.592,10.592,0,0,0,204,284.8c.161-.113.317-.231.476-.346s.294-.211.437-.321a13.425,13.425,0,0,0,1.025-.871c.141-.132.272-.275.4-.419s.239-.264.355-.4a12.638,12.638,0,0,0,.814-1.064,3.435,3.435,0,0,0,.288-.5,2.932,2.932,0,0,0,.228-.685,4.648,4.648,0,0,0,.065-.724c0-.1,0-.192,0-.288a2.3,2.3,0,0,0-.064-.422,3.2,3.2,0,0,0-1.035-1.565,3.167,3.167,0,0,0-.38-.288,1.338,1.338,0,0,0-.333-.146,1.586,1.586,0,0,0-.271-.071,2.1,2.1,0,0,0-.316-.022c-.145,0-.29.012-.432.024Zm-5.435,8.577c.135-.526.306-1.03.457-1.452a11.633,11.633,0,0,1,.668-1.5c.281-.523.588-1.041.914-1.539.128-.182.244-.342.355-.489.155-.2.326-.392.486-.566.345-.373.641-.673.935-.945a6.48,6.48,0,0,1,1.014-.709,4.162,4.162,0,0,1,.6-.2,3.272,3.272,0,0,1,.431-.029h.1a1.177,1.177,0,0,1,.162.04c.032.015.065.032.1.051a3.786,3.786,0,0,1,.483.46c.058.071.1.128.142.186a2.125,2.125,0,0,1,.14.238,1.727,1.727,0,0,1,.082.261,3.612,3.612,0,0,1,0,.606,2.652,2.652,0,0,1-.1.475,3.822,3.822,0,0,1-.33.609,10.284,10.284,0,0,1-.762.939l-.01.012c-.259.281-.553.6-.872.885-.27.228-.524.43-.778.615-.327.239-.6.437-.89.63-.23.155-.473.292-.709.425l-.157.088c-.256.146-.523.281-.781.411l-.009,0-.157.079-.361.171-.352.165-.08.038h.005l-.186.089-.032.016-.1.046c-.1.048-.2.093-.3.138l-.014.006-.146.063-.028.013h0c.029-.108.057-.216.085-.324Z" transform="translate(-147.86 -259.564)"/><path class="b" d="M211.046,292.566a8.379,8.379,0,0,0-1.327.225,10.694,10.694,0,0,0-2.372,1c-.718.379-1.418.8-2.108,1.224-.167.1-.33.211-.493.32s-.305.224-.457.336c-.175.127-.35.255-.522.388s-.356.3-.528.452a5.207,5.207,0,0,0-.477.506.553.553,0,0,0-.106.2.642.642,0,0,0-.183.479.627.627,0,0,0,.1.314.6.6,0,0,0,.392.27,2.088,2.088,0,0,0,.308.016c.053,0,.106-.01.159-.016s.1,0,.144-.008.108-.011.163-.012c.148,0,.294-.018.442-.023.119,0,.238,0,.358,0h.16c.37,0,.739-.015,1.109-.017.189,0,.377-.015.565-.024s.378-.02.567-.033c.38-.027.758-.069,1.135-.119.394-.051.791-.091,1.186-.139.461-.055.919-.118,1.374-.212.394-.08.788-.164,1.174-.278a6.16,6.16,0,0,0,.6-.208c.129-.052.252-.118.376-.181a2.13,2.13,0,0,0,.241-.136,3.514,3.514,0,0,0,.554-.464,2.456,2.456,0,0,0,.235-.313,2.225,2.225,0,0,0,.143-.244,2.382,2.382,0,0,0,.185-.489,2.55,2.55,0,0,0,.058-.44,1.384,1.384,0,0,0-.005-.289c-.008-.058-.02-.116-.03-.174-.016-.092-.035-.182-.055-.273a1.678,1.678,0,0,0-.384-.732,2.95,2.95,0,0,0-.24-.261,2.186,2.186,0,0,0-.289-.2,2.691,2.691,0,0,0-.875-.38,3.207,3.207,0,0,0-.687-.066l-.256,0c-.112,0-.224,0-.336.012Zm-6.723,4.379c.187-.143.386-.285.563-.41l.115-.082c.205-.147.366-.256.521-.356.132-.085.269-.167.4-.246l.013-.007.1-.057c.69-.411,1.4-.805,2.124-1.172l.154-.076c.358-.171.69-.312,1.014-.434a7.97,7.97,0,0,1,.982-.286,6.877,6.877,0,0,1,.717-.094c.122-.009.256-.013.406-.013.13,0,.258,0,.389.007a2.311,2.311,0,0,1,.391.082,2.774,2.774,0,0,1,.436.238,1.216,1.216,0,0,1,.132.12.745.745,0,0,1,.216.45l.008.051a1.252,1.252,0,0,1,.015.235,1.985,1.985,0,0,1-.058.274,2.348,2.348,0,0,1-.146.272,2.248,2.248,0,0,1-.228.251,3.231,3.231,0,0,1-.405.258,5.142,5.142,0,0,1-.889.308c-.342.086-.662.158-.974.222-.542.1-1.113.157-1.617.212-.234.026-.468.051-.7.08-.436.053-.8.088-1.136.11-.177.012-.358.021-.59.032l-.143.007c-.143.007-.272.013-.4.015-.306,0-.575.005-.821.012l-.233,0h-.352Z" transform="translate(-149.436 -265.858)"/><path class="b" d="M213.921,305.645c-.389.019-.775.074-1.161.127-.417.057-.832.136-1.243.227a10.794,10.794,0,0,0-1.087.286c-.182.06-.361.123-.538.2a4.647,4.647,0,0,0-.579.294.45.45,0,0,0-.16.163.629.629,0,0,0,.241,1.119c.083.018.166.031.249.051a2.091,2.091,0,0,1,.2.062l.034.013c.624.232,1.233.5,1.835.783.345.164.694.316,1.045.468a8.812,8.812,0,0,0,1.187.43,6.419,6.419,0,0,0,2.4.224c.241-.03.484-.06.721-.113a3.167,3.167,0,0,0,.573-.166c.105-.046.21-.1.311-.15a1.638,1.638,0,0,0,.164-.113,1.667,1.667,0,0,0,.554-.645c.021-.046.036-.1.054-.144a1.4,1.4,0,0,0,.109-.5,3.2,3.2,0,0,0-.026-.358,1.779,1.779,0,0,0-.124-.508,2.39,2.39,0,0,0-.259-.437,2.631,2.631,0,0,0-.756-.693,3.253,3.253,0,0,0-.54-.267,5.737,5.737,0,0,0-.693-.207,4.374,4.374,0,0,0-.574-.093q-.376-.042-.754-.056-.22-.008-.441-.008-.371,0-.742.019Zm-3,1.584c.359-.1.723-.175,1.065-.244.526-.093,1.086-.166,1.662-.217.239-.021.491-.032.769-.032.259,0,.534.009.893.027a5.881,5.881,0,0,1,.648.086c.228.049.444.1.662.174a3.525,3.525,0,0,1,.47.239,2.541,2.541,0,0,1,.3.267,2.384,2.384,0,0,1,.181.266,1.221,1.221,0,0,1,.042.126,2.921,2.921,0,0,1,.026.32c0,.021-.01.043-.016.064a1.307,1.307,0,0,1-.059.127c-.027.032-.054.062-.082.09a1.981,1.981,0,0,1-.195.132,3.351,3.351,0,0,1-.545.162,5.735,5.735,0,0,1-.667.079c-.137.005-.258.008-.37.008s-.22,0-.324-.008a7.016,7.016,0,0,1-1.533-.348c-.27-.1-.539-.224-.8-.344l-.164-.075c-.178-.08-.351-.164-.542-.257l-.022-.01c-.152-.074-.308-.15-.464-.222l-.068-.031-.009,0c-.27-.124-.55-.253-.832-.362l-.016-.007-.011,0h0Z" transform="translate(-151.949 -271.043)"/><path class="b" d="M125.848,275.522a2.115,2.115,0,0,0-.272.013,1.729,1.729,0,0,0-.25.065,2.928,2.928,0,0,0-.275.1,2.213,2.213,0,0,0-.334.185,1.592,1.592,0,0,0-.313.294c-.038.043-.076.087-.111.13a2.082,2.082,0,0,0-.242.423,2.618,2.618,0,0,0-.169.593,2.138,2.138,0,0,0-.04.271c-.015.2-.021.39-.019.586a4.785,4.785,0,0,0,.037.686c.015.094.034.185.055.278a3.553,3.553,0,0,0,.262.725c.1.217.209.432.314.648.174.355.369.7.573,1.033a5.618,5.618,0,0,0,.641.814c.239.27.49.526.75.776l-.069-.066.124.119-.054-.053c.3.284.6.56.905.834.286.256.57.517.86.767q.2.175.411.346c.133.108.275.2.413.3.246.179.489.357.725.548a5.323,5.323,0,0,0,.7.467c.093.054.185.108.277.164a2.39,2.39,0,0,0,.253.142,1.343,1.343,0,0,0,.252.058.643.643,0,0,0,.674-.408.568.568,0,0,0,.029-.1c.005-.013.011-.025.016-.038L132,286.1a.528.528,0,0,0-.04-.272c-.055-.183-.108-.367-.17-.548s-.128-.369-.194-.553c-.135-.373-.274-.744-.409-1.117-.281-.777-.578-1.549-.857-2.327a20.035,20.035,0,0,0-.886-2.208c-.179-.357-.358-.714-.562-1.057-.126-.212-.253-.424-.382-.634-.1-.165-.2-.332-.31-.492a3.962,3.962,0,0,0-.379-.459,2.985,2.985,0,0,0-.544-.461,2.8,2.8,0,0,0-.631-.32,3.514,3.514,0,0,0-.525-.115,1.514,1.514,0,0,0-.235-.016Zm4.559,9.233c-.055-.044-.109-.088-.165-.13-.132-.1-.272-.2-.406-.293l-.015-.01c-.128-.089-.243-.17-.358-.255-.284-.212-.553-.448-.85-.712-.177-.158-.36-.315-.538-.468l-.18-.154c-.208-.179-.427-.378-.691-.628-.1-.1-.214-.211-.321-.32s-.2-.212-.293-.317l-.087-.1c-.121-.133-.239-.278-.361-.443-.083-.112-.154-.229-.226-.349-.122-.215-.217-.394-.3-.562l-.072-.146-.144-.294-.024-.048a4.384,4.384,0,0,1-.245-.559,3.561,3.561,0,0,1-.071-.413c-.013-.118-.017-.237-.02-.347,0-.128,0-.266.015-.406a3.258,3.258,0,0,1,.06-.405,1.839,1.839,0,0,1,.1-.269,1.682,1.682,0,0,1,.145-.19c.034-.03.066-.055.1-.079a2.165,2.165,0,0,1,.262-.108,1.087,1.087,0,0,1,.118-.016,2.687,2.687,0,0,1,.363.051,1.881,1.881,0,0,1,.256.1,3.4,3.4,0,0,1,.462.34,4.3,4.3,0,0,1,.484.624c.178.28.327.516.465.742a14.687,14.687,0,0,1,.987,1.993c.143.357.29.739.45,1.168.076.2.155.406.234.609l.026.067c.063.16.125.32.186.481l.145.379c.15.392.32.836.478,1.265l.018.048c.018.05.037.1.054.15l.018.048,0,0v0l-.06-.048Z" transform="translate(-118.322 -259.109)"/><path class="b" d="M118.327,288.315a2.9,2.9,0,0,0-.643.163,1.905,1.905,0,0,0-.264.119,1.831,1.831,0,0,0-.588.454,1.358,1.358,0,0,0-.2.325,1.441,1.441,0,0,0-.126.47,1.687,1.687,0,0,0,.005.38,2,2,0,0,0,.055.263l.007.023v0l0-.019,0,.019.01.034c.007.027.015.055.023.083l-.008-.027a3.221,3.221,0,0,0,.2.548c.09.182.188.36.289.535.122.209.245.418.386.616a3.411,3.411,0,0,0,.481.516,3.508,3.508,0,0,0,.439.356c.206.135.418.257.636.372.358.188.725.361,1.092.53a11.154,11.154,0,0,0,2.283.7c.375.082.749.16,1.128.225.359.062.72.092,1.078.155.148.026.3.049.443.078l.163.034a.785.785,0,0,0,.472-.043.673.673,0,0,0,.4-.536.693.693,0,0,0,0-.079.541.541,0,0,0,.012-.685,5.855,5.855,0,0,1-.359-.464c-.105-.151-.22-.294-.336-.437-.242-.3-.5-.583-.756-.873a22.6,22.6,0,0,0-1.8-1.8,7.155,7.155,0,0,0-.906-.732c-.336-.219-.691-.411-1.038-.612a5.744,5.744,0,0,0-1.2-.551,3.535,3.535,0,0,0-1.028-.153c-.118,0-.235.006-.352.018Zm5.905,5.417c-.136-.013-.286-.034-.461-.062-.6-.1-1.21-.222-1.874-.383a8.776,8.776,0,0,1-1.232-.41c-.372-.158-.76-.341-1.185-.557-.166-.094-.3-.177-.421-.261a3.466,3.466,0,0,1-.367-.3,3.92,3.92,0,0,1-.486-.657c-.1-.167-.176-.311-.246-.451a2.744,2.744,0,0,1-.171-.441,2.035,2.035,0,0,1-.035-.207c0-.024,0-.048.008-.072s.02-.055.032-.083l.007-.01a1.561,1.561,0,0,1,.147-.114,2.307,2.307,0,0,1,.336-.139c.061-.015.119-.028.178-.039a1.449,1.449,0,0,1,.189-.017c.119,0,.23.008.341.016a2.411,2.411,0,0,1,.295.049,5.465,5.465,0,0,1,.986.416l.147.082.038.021c.173.1.346.193.518.292a5.389,5.389,0,0,1,.734.487c.226.185.453.383.673.587.106.1.213.2.321.294s.21.189.313.286c.191.186.375.372.531.529.141.141.277.293.408.439l.01.011c.067.074.134.149.2.223.161.175.286.316.4.445l.065.077h0l0,0c-.148-.024-.277-.041-.395-.052Z" transform="translate(-115.459 -264.172)"/><path class="b" d="M117.084,299.939a3,3,0,0,0-.585.064,4.063,4.063,0,0,0-.651.205,1.862,1.862,0,0,0-.615.381,1.839,1.839,0,0,0-.2.222,1.765,1.765,0,0,0-.125.213,1,1,0,0,0-.093.693,2.753,2.753,0,0,0,.291.693,3.888,3.888,0,0,0,.388.587,3.383,3.383,0,0,0,1.165.82,2.745,2.745,0,0,0,.539.189,5.166,5.166,0,0,0,.722.129,5.294,5.294,0,0,0,.59.021c.231,0,.464,0,.7-.013.391-.021.783-.067,1.171-.12l1.042-.142c.155-.021.309-.042.464-.066a2.262,2.262,0,0,0,.571-.133.649.649,0,0,0,.384-.681.606.606,0,0,0-.06-.188.519.519,0,0,0-.208-.361c-.3-.218-.588-.443-.894-.651-.157-.107-.31-.217-.468-.321s-.336-.209-.5-.313c-.375-.231-.747-.464-1.14-.662a5.944,5.944,0,0,0-1.13-.446,4.179,4.179,0,0,0-1.091-.125c-.087,0-.174,0-.261,0Zm.384,2.831a3.625,3.625,0,0,1-.543-.224,3.3,3.3,0,0,1-.423-.292,2.8,2.8,0,0,1-.283-.368,2.944,2.944,0,0,1-.2-.389c.013-.018.026-.036.04-.053.032-.027.065-.052.1-.077a3.046,3.046,0,0,1,.52-.21,3.137,3.137,0,0,1,.6-.074,4.419,4.419,0,0,1,.913.076,6.562,6.562,0,0,1,1.279.533c.149.085.3.172.443.258l.027.016.154.09.055.032.013.009c.194.113.394.232.585.357l.044.029.155.1.048.031h0l0,0c-.228.032-.456.064-.683.1-.327.05-.658.087-1,.122-.286.03-.567.037-.853.042a5.039,5.039,0,0,1-1-.11Z" transform="translate(-114.793 -268.782)"/><path class="b" d="M172.521,291.385a.478.478,0,0,0-.085.671.467.467,0,0,0,.324.183c.359.013.716.067,1.075.1.4.033.788.086,1.181.136s.756.123,1.132.2.741.134,1.107.219l.051.012c.372.1.743.195,1.115.288l-.06-.015c.358.094.721.179,1.068.308.168.062.333.127.5.186.144.051.289.1.432.15l.011,0,.027.011c.1.04.2.085.3.129l.014.007.173.077c.075.033.153.062.229.091l.014.005c.082.032.168.065.249.1s.188.09.264.129.128.065.193.1.108.048.168.072.12.049.178.079l.024.014c.1.057.2.12.316.174.131.063.243.113.353.161l.022.009.228.1.009.005c.171.074.339.152.5.24.314.183.623.37.924.576a.558.558,0,0,0,.4.1.542.542,0,0,0,.249-.971,9.335,9.335,0,0,0-1.421-.858c-.321-.15-.662-.263-.975-.43l-.032-.018-.06-.034-.023-.013.012.007a2.858,2.858,0,0,0-.347-.161c-.148-.057-.289-.132-.433-.2s-.285-.122-.433-.176-.318-.131-.476-.2c-.295-.127-.6-.217-.905-.324-.168-.059-.333-.122-.5-.176s-.369-.1-.554-.146-.386-.1-.579-.146l.129.032-.656-.161c-.207-.052-.412-.1-.62-.149-.185-.041-.373-.071-.56-.1s-.366-.063-.548-.1-.383-.075-.577-.1c-.378-.058-.758-.1-1.139-.143s-.77-.06-1.154-.1c-.163-.018-.323-.031-.487-.037h-.035a.488.488,0,0,0-.312.1Z" transform="translate(-137.526 -265.352)"/><path class="b" d="M143.053,307.451a.637.637,0,0,0-.216.419c-.057.378-.126.775-.216,1.251q-.026.136-.053.272c-.057.288-.116.586-.15.885a7.856,7.856,0,0,0-.03,1.362,3.287,3.287,0,0,0,.772,2.089,2.657,2.657,0,0,0,.688.545,3.518,3.518,0,0,0,.415.194,3.416,3.416,0,0,0,.526.135l.024,0a1.883,1.883,0,0,0,.366.034,2.713,2.713,0,0,0,.561-.063,4.99,4.99,0,0,0,.921-.309,5.751,5.751,0,0,0,.871-.49c.172-.113.351-.236.562-.387a9.284,9.284,0,0,0,.838-.708l.092-.083c.277-.253.533-.53.78-.8l.1-.105c.222-.239.454-.478.679-.708l.013-.013c.228-.234.464-.476.692-.722.082-.088.157-.167.23-.241l.046-.047v0c-.019.316-.037.632-.055.953-.048.847-.11,1.687-.171,2.47q-.014.18-.029.359l0,.016c-.021.269-.044.546-.06.819-.009.138-.015.277-.022.415l0,.071-.012.2c-.217.007-.408.022-.585.044-.207.026-.42.058-.634.1-.168.03-.335.074-.5.117l-.082.021c-.135.035-.269.078-.4.119l-.042.014-.116.036c-.243.076-.485.157-.732.241a5.518,5.518,0,0,0-.529.206l-.1.044c-.149.067-.3.137-.446.219a7.263,7.263,0,0,0-1.14.782,8.95,8.95,0,0,0-1,.992,5.848,5.848,0,0,0-.763,1.127,5.553,5.553,0,0,0-.3.684,3.39,3.39,0,0,0-.114,1.714,3.731,3.731,0,0,0,.189.661,1.811,1.811,0,0,0,.16.305,3.2,3.2,0,0,0,.324.439,3.078,3.078,0,0,0,.7.57,3.278,3.278,0,0,0,.464.228,3.172,3.172,0,0,0,.584.147,3.208,3.208,0,0,0,.386.039l.08,0c.071,0,.143.007.216.007a4.846,4.846,0,0,0,.644-.047,4.513,4.513,0,0,0,.88-.232,4.233,4.233,0,0,0,.807-.388,6.107,6.107,0,0,0,.593-.408l.069-.054c.058-.044.119-.091.174-.141l.13-.119.13-.119c.055-.05.107-.107.161-.167l.074-.082a5.941,5.941,0,0,0,.454-.525l.168-.223.041-.055a5.654,5.654,0,0,0,.49-.826,8.026,8.026,0,0,0,.748-2.6c.057-.412.091-.834.121-1.231l.012-.147.085,0c.239.008.488.024.76.049l.116.012a4.581,4.581,0,0,0,.478.033,1.641,1.641,0,0,0,.333-.03.794.794,0,0,0,.194-.066.735.735,0,0,0,.232-1.132.725.725,0,0,0-.39-.236v0a.984.984,0,0,0-.11-.022h0l.024.005-.018,0,.024.007a1.731,1.731,0,0,0-.3-.039c-.077,0-.155-.009-.233-.015l-.043,0-.194-.015-.046,0c-.116-.009-.231-.018-.348-.024-.135-.009-.282-.014-.492-.018.009-.221.018-.478.034-.727.019-.3.04-.607.061-.91l.028-.4c.059-.868.106-1.659.143-2.42q.028-.588.062-1.176l.008-.139.005-.091c.007-.129.015-.258.021-.388,0-.087.008-.175.011-.269l0-.09a1.1,1.1,0,0,0-.086-.608.674.674,0,0,0-.608-.383.583.583,0,0,0-.122.013.845.845,0,0,0-.4.208l-.091.082c-.059.055-.116.111-.174.167l-.046.045c-.1.094-.193.186-.29.277l-.113.106c-.227.214-.445.444-.655.666l-.207.217-.554.577-.289.3c-.169.176-.336.355-.5.533l-.376.4c-.258.271-.545.521-.827.767l-.077.066a8.012,8.012,0,0,1-.844.622l-.27.158a4.381,4.381,0,0,1-.749.339,2.834,2.834,0,0,1-.481.1,2.139,2.139,0,0,1-.31-.029,2.422,2.422,0,0,1-.415-.147,2.373,2.373,0,0,1-.311-.22,2.208,2.208,0,0,1-.225-.261,2.524,2.524,0,0,1-.184-.394,4.538,4.538,0,0,1-.147-.9c0-.28,0-.537.013-.786a6.621,6.621,0,0,1,.1-.775l.012-.066c.029-.168.059-.334.089-.5l.006-.033c.068-.375.144-.8.207-1.222a.6.6,0,0,0-.144-.449.616.616,0,0,0-.419-.216l-.051,0a.617.617,0,0,0-.4.145Zm3.2,15.161a2.29,2.29,0,0,1-.333-.121,2.719,2.719,0,0,1-.345-.244,2.441,2.441,0,0,1-.237-.276,1.97,1.97,0,0,1-.131-.278,3.226,3.226,0,0,1-.1-.548,2.868,2.868,0,0,1,.037-.486,4.187,4.187,0,0,1,.286-.738c.113-.193.219-.356.322-.5s.224-.3.372-.475c.173-.177.348-.346.534-.515a6.68,6.68,0,0,1,.659-.51c.124-.077.227-.138.322-.192.146-.082.3-.152.443-.216.281-.126.564-.225.8-.306l.143-.044c.3-.094.61-.191.92-.258a8.576,8.576,0,0,1,1.12-.164h.033l0,0c-.051.6-.107,1.1-.175,1.568-.015.1-.034.194-.052.289l0,.009-.008.038-.042.165-.042.166c-.024.094-.056.191-.085.276-.015.044-.029.088-.043.132s-.035.1-.054.144l-.01.024-.019.049-.025.068c-.014.039-.029.08-.047.118l-.032.071-.023.049c-.038.082-.076.165-.115.247a6.946,6.946,0,0,1-.537.805c-.084.11-.179.221-.256.309l-.017.02-.09.094-.084.088c-.05.052-.1.1-.161.15l-.016.014-.047.042a5.175,5.175,0,0,1-.577.448,4.572,4.572,0,0,1-.813.391,3.864,3.864,0,0,1-.752.143h-.1a3.664,3.664,0,0,1-.62-.05Z" transform="translate(-125.687 -271.778)"/><path class="b" d="M167.716,306.816l-.024,0a3.146,3.146,0,0,0-1.109.313,4.174,4.174,0,0,0-.649.408,2.871,2.871,0,0,0-.426.373,7.24,7.24,0,0,0-.523.614c-.06.081-.122.174-.19.283h0c-.045.074-.089.147-.132.222a4.416,4.416,0,0,0-.4.925.542.542,0,0,0-.21-.141.562.562,0,0,0-.435.021.524.524,0,0,0-.051.027l0,0a.6.6,0,0,0-.23.282l-.04.091-.073.17-.01.02a11.117,11.117,0,0,0-.628,1.777c-.072.3-.152.6-.225.9l-.006.029c-.018.077-.037.154-.055.231l-.006.029a11.09,11.09,0,0,0-.235,1.226c-.018.16-.03.334-.033.517a7.07,7.07,0,0,0,.035.789,3.782,3.782,0,0,0,.1.54c.009.032.016.064.024.1h0a4.464,4.464,0,0,0,.213.637,2.652,2.652,0,0,0,.464.757c.086.093.178.185.3.3.037.034.074.066.113.1a1.582,1.582,0,0,0,.364.208l.043.02a2.115,2.115,0,0,0,.259.1,3.464,3.464,0,0,0,.347.09,1.381,1.381,0,0,0,.285.026c.087,0,.176-.005.253-.011a2.456,2.456,0,0,0,.5-.094,4.128,4.128,0,0,0,.41-.133,6.276,6.276,0,0,0,1.207-.644,5.356,5.356,0,0,0,.992-.918,7.83,7.83,0,0,0,.705-.956c.136-.212.231-.366.32-.512.071-.118.145-.248.227-.4.04-.019.079-.04.118-.06.158-.085.341-.185.518-.291a10.7,10.7,0,0,0,2.054-1.55c.09-.088.186-.186.293-.3l.065-.069v0l0,0c-.013.087-.023.168-.029.246l-.006.072a4.153,4.153,0,0,0-.023.5c.005.181.01.32.021.465l0,.071a2.278,2.278,0,0,0,.022.233c.017.107.037.213.061.323a3.633,3.633,0,0,0,.119.391l.026.074a3.142,3.142,0,0,0,.245.542,2.9,2.9,0,0,0,.356.507,2.1,2.1,0,0,0,.486.428,2.021,2.021,0,0,0,.322.163,1.241,1.241,0,0,0,.429.069,1.988,1.988,0,0,0,.2-.011,1.83,1.83,0,0,0,.409-.107l.055-.019a1.884,1.884,0,0,0,.4-.207,6.535,6.535,0,0,0,.688-.512c.283-.236.55-.5.808-.751l.105-.1c.118-.115.232-.239.342-.359l.007-.007.079-.087c.158-.172.326-.355.482-.545s.313-.386.46-.575l.1-.137v0l0,0c-.014.119-.025.24-.035.357l0,.027a6.381,6.381,0,0,0,.023,1.327,2.849,2.849,0,0,0,.131.526l.01.034a4.354,4.354,0,0,0,.291.708,2.733,2.733,0,0,0,.938,1.076,2.336,2.336,0,0,0,.865.319,1.261,1.261,0,0,0,.21.018,1.578,1.578,0,0,0,.71-.182,2.475,2.475,0,0,0,.45-.3,3.148,3.148,0,0,0,.352-.352l.054-.06c.351-.386.659-.791,1-1.244l.116-.153c.106-.139.2-.265.29-.395a5.408,5.408,0,0,0,.33-.581l0-.007.018-.034.038-.072c.017-.032.033-.063.051-.094l0,0-.016.029.049-.1.01-.01a.738.738,0,0,0-.348-1.114.794.794,0,0,0-.266-.046.62.62,0,0,0-.3.072,1.147,1.147,0,0,0-.436.394c-.049.083-.093.169-.141.265l-.013.024a4.34,4.34,0,0,1-.253.426c-.086.126-.18.249-.271.369l-.027.036-.1.128c-.3.4-.588.78-.91,1.142a2.553,2.553,0,0,1-.309.277c-.03.016-.06.032-.091.046h-.014a1.662,1.662,0,0,1-.185-.068,1.594,1.594,0,0,1-.153-.107,2.415,2.415,0,0,1-.184-.226,3.921,3.921,0,0,1-.3-.627,2.081,2.081,0,0,1-.074-.291c-.018-.114-.032-.23-.041-.355a7.734,7.734,0,0,1,.079-1.2c.051-.365.129-.733.206-1.093l0-.023a16.219,16.219,0,0,1,.674-2.161,4.284,4.284,0,0,0,.211-.74.489.489,0,0,0-.015-.239l-.062-.189a.78.78,0,0,0-.251-.3.8.8,0,0,0-.387-.142c-.021,0-.043,0-.065,0a.769.769,0,0,0-.345.082,1.177,1.177,0,0,0-.432.446l-.006.009q-.322.483-.642.967c-.147.225-.292.453-.431.673l-.006.01c-.238.376-.485.765-.747,1.134-.506.71-.916,1.24-1.33,1.717-.256.274-.532.553-.821.829a8.078,8.078,0,0,1-.932.792,1.886,1.886,0,0,1-.258.129l-.005,0h0l-.006,0-.046-.032a2.617,2.617,0,0,1-.211-.252,3.438,3.438,0,0,1-.244-.54c-.035-.134-.06-.248-.078-.359s-.026-.217-.033-.311c0-.216,0-.427.021-.646a5.449,5.449,0,0,1,.108-.685,13.337,13.337,0,0,1,.477-1.577c.094-.254.2-.514.3-.757.044-.107.087-.216.128-.325l.023-.059c.016-.044.032-.088.048-.133l.015-.043c.011-.032.022-.063.031-.1a.929.929,0,0,0,.04-.443.765.765,0,0,0-.487-.575c-.069-.018-.138-.034-.2-.045l-.1,0-.1,0a.768.768,0,0,0-.352.168.6.6,0,0,0-.134.138c-.012.016-.024.031-.036.045-.037.044-.07.091-.1.138l0,.007-.019.027c-.074.107-.155.212-.233.313l-.005.007-.046.06c-.12.157-.247.313-.37.464l-.005.007c-.087.107-.174.213-.259.321-.126.16-.255.318-.383.476l-.066.082c-.066.082-.132.163-.2.245-.183.228-.389.475-.631.753a9,9,0,0,1-.679.645l-.178.152v0l0,0c.128-.409.217-.821.314-1.281a6.815,6.815,0,0,0,.164-1.223,3.721,3.721,0,0,0-.068-.859,3.174,3.174,0,0,0-.144-.468,1.994,1.994,0,0,0-.115-.25,3.574,3.574,0,0,0-.362-.554,3.238,3.238,0,0,0-.532-.514l-.021-.017c-.068-.054-.138-.11-.212-.157a3.426,3.426,0,0,0-.419-.229,2.616,2.616,0,0,0-.26-.1,2.252,2.252,0,0,0-.223-.063l-.04-.009a2.167,2.167,0,0,0-.274-.05,1.137,1.137,0,0,0-.13-.006c-.089,0-.182.007-.256.013Zm-.615,7.213a2.92,2.92,0,0,1-.506-.191,3.211,3.211,0,0,1-.45-.313,3.256,3.256,0,0,1-.372-.451,3.05,3.05,0,0,1-.236-.5,3.385,3.385,0,0,1-.113-.634,3.774,3.774,0,0,1,.037-.637c.023-.149.049-.3.08-.457s.079-.33.135-.5a4.706,4.706,0,0,1,.219-.54c.07-.12.142-.237.22-.357a3.363,3.363,0,0,1,.247-.325l.043-.052c.077-.081.155-.158.238-.237a2.406,2.406,0,0,1,.8-.49,2.615,2.615,0,0,1,.427-.084,1.563,1.563,0,0,1,.172.011,2.737,2.737,0,0,1,.341.127,3.491,3.491,0,0,1,.408.3,2.816,2.816,0,0,1,.281.324,2.71,2.71,0,0,1,.179.37,3.327,3.327,0,0,1,.076.437,4.556,4.556,0,0,1-.046.755c-.037.245-.085.506-.157.842a10.25,10.25,0,0,1-.48,1.519c-.127.311-.266.624-.409.931l-.04.016-.024.01a3.838,3.838,0,0,1-.7.155,2.485,2.485,0,0,1-.366-.033Zm-3.389-1.394v-.009c.019-.1.038-.191.058-.287.051-.212.111-.428.178-.641h0l0,0c0,.08,0,.163,0,.246a4.061,4.061,0,0,0,.128.941,3.529,3.529,0,0,0,.373.887,3.913,3.913,0,0,0,.529.709,3.545,3.545,0,0,0,.706.568,3.494,3.494,0,0,0,1.461.512l.109.008h0c-.139.2-.294.4-.457.594a5.747,5.747,0,0,1-.742.662,5.568,5.568,0,0,1-.989.49,2.87,2.87,0,0,1-.419.088,1.379,1.379,0,0,1-.155-.011,2.757,2.757,0,0,1-.346-.127,1.422,1.422,0,0,1-.139-.1,2.421,2.421,0,0,1-.234-.266,3.471,3.471,0,0,1-.253-.548,4.868,4.868,0,0,1-.181-.942,7.336,7.336,0,0,1,.048-1.08c.018-.139.043-.28.068-.417l0-.016.026-.142c.031-.174.062-.334.094-.485l.007-.034-.009.034-.008.036.008-.035-.01.034c.049-.222.1-.45.14-.669Zm.093-.442-.012.054.012-.054Zm20.468,2.2-.005.011.005-.011Z" transform="translate(-133.493 -271.549)"/><path class="b" d="M165.1,309.893l-.163.1,0,0a2.416,2.416,0,0,0-.228.155c-.066.052-.133.1-.2.15l-.012.009-.064.047-.094.067c-.049.035-.1.07-.147.108a2,2,0,0,0-.2.188l-.033.035-.016.016h0c-.074.082-.15.172-.241.285l0,0-.074.093a2.511,2.511,0,0,0-.256.426l-.009.021-.027.053-.041.082a4.523,4.523,0,0,0-.291.614c-.088.249-.161.509-.229.754-.091.333-.163.612-.219.9l-.053.272-.011.054-.007.028q-.049.26-.1.52a.517.517,0,0,0,.126.393.539.539,0,0,0,.76.064l.093-.1a.533.533,0,0,0,.1-.265q.082-.387.164-.774c.076-.321.166-.638.263-.953a5.664,5.664,0,0,1,.289-.818c.071-.132.138-.265.206-.4a3.407,3.407,0,0,1,.39-.567,2.893,2.893,0,0,1,.3-.249c.127-.1.249-.2.378-.295l.1-.062.113-.074a.52.52,0,0,0,.155-.221.529.529,0,0,0-.314-.679.58.58,0,0,0-.2-.034.406.406,0,0,0-.213.053Z" transform="translate(-133.564 -272.721)"/><path class="b" d="M137.087,335.553l-.091,0h-.009a5.773,5.773,0,0,0-.6.048c-.206.031-.413.079-.551.113a8.079,8.079,0,0,0-1.217.391,7.4,7.4,0,0,0-1.016.554,10.6,10.6,0,0,0-1.109.78,10.021,10.021,0,0,0-.844.792,8.341,8.341,0,0,0-.874,1.05c-.175.252-.344.519-.483.738l-.156.244c-.1.157-.2.322-.3.492l-.091.151c-.068.111-.144.236-.211.361-.028.051-.055.1-.082.153l-.007.01a10.411,10.411,0,0,0-.891,2.223,12.914,12.914,0,0,0-.359,2.493c-.021.362-.043.789-.039,1.218,0,.3.015.548.036.785l0,.025a4.5,4.5,0,0,0,.07.54,5.918,5.918,0,0,0,.152.606,5.477,5.477,0,0,0,.278.718,5.02,5.02,0,0,0,.3.526,5.217,5.217,0,0,0,.421.6,4.075,4.075,0,0,0,1,.889l.066.038.011,0c.111.062.229.113.339.161a2.427,2.427,0,0,0,.555.138l.013,0c.186.031.385.062.589.077.082.005.165.009.253.009.155,0,.307-.008.464-.016h.016l.068,0,.11-.007a2.178,2.178,0,0,0,.36-.066l.023-.007a5.013,5.013,0,0,0,.68-.224,4.681,4.681,0,0,0,.521-.274,5.946,5.946,0,0,0,1.068-.8,9.945,9.945,0,0,0,.874-.961,7.027,7.027,0,0,0,.65-.944,5.311,5.311,0,0,0,.319-.64,3.975,3.975,0,0,0,.182-.659l.009-.043a1.628,1.628,0,0,0,.036-.247.874.874,0,0,0-.192-.628,1.148,1.148,0,0,0-.173-.166l-.047-.04a2.076,2.076,0,0,0-.175-.13c-.122-.085-.242-.177-.358-.266-.145-.113-.3-.228-.453-.33-.085-.055-.162-.1-.235-.139l-.055-.029a1.316,1.316,0,0,0-.305-.133,1.118,1.118,0,0,0-.292-.045c-.038,0-.082,0-.147.007a.836.836,0,0,0-.426.188,1,1,0,0,0-.19.208l-.036.047-.142.18c-.07.088-.14.175-.208.266-.055.074-.115.149-.18.23l-.021.028c-.063.077-.13.158-.206.246a6.945,6.945,0,0,1-1.038.874,4.654,4.654,0,0,1-.807.395,1.006,1.006,0,0,1-.1.023c-.011-.025-.022-.051-.032-.076a1.887,1.887,0,0,1-.047-.219q-.007-.06-.011-.121a3.834,3.834,0,0,1,.075-.743,6.741,6.741,0,0,1,.288-.87c.131-.316.27-.627.415-.925.219-.41.456-.818.684-1.213l0-.007c.146-.251.288-.5.425-.74l.087-.154c.156-.28.333-.6.523-.892l.018-.027a9.938,9.938,0,0,1,.675-.966c.146-.177.294-.345.42-.487a8.956,8.956,0,0,1,1.351-1.183,2.493,2.493,0,0,1,.316-.155.271.271,0,0,1,.046-.009l.038-.007.032,0c.028.01.057.02.084.032l.009.006c.015.016.028.033.041.05.023.042.044.086.063.132a1.486,1.486,0,0,1,.038.2,2.759,2.759,0,0,1-.062.462,3.754,3.754,0,0,1-.277.8c-.038.073-.071.132-.108.191s-.089.132-.135.194l-.034.046a.53.53,0,0,0-.063.5,1.147,1.147,0,0,0-.043.944.99.99,0,0,0,.441.439c.152.08.309.154.461.225l.14.066a3.394,3.394,0,0,0,.489.2c.083.024.168.044.24.062l.008,0a2.623,2.623,0,0,0,.426.078c.027,0,.054,0,.081,0a.962.962,0,0,0,.437-.1,1.2,1.2,0,0,0,.288-.208,4.733,4.733,0,0,0,.442-.5c.235-.3.448-.616.625-.882.108-.163.208-.32.3-.48.033-.054.063-.11.091-.166v-.005l0-.007.03-.058.007-.014a3.962,3.962,0,0,0,.18-.369,3.155,3.155,0,0,0,.177-.676c.029-.177.062-.378.077-.577a6.346,6.346,0,0,0,0-1.282,3.412,3.412,0,0,0-.125-.576,5.585,5.585,0,0,0-.246-.671,2.978,2.978,0,0,0-.369-.611,4.069,4.069,0,0,0-.471-.479l-.066-.061a3.135,3.135,0,0,0-.341-.269l-.077-.051-.009-.007c-.108-.068-.219-.129-.324-.184l-.007,0h0c-.1-.052-.219-.113-.351-.169a1.971,1.971,0,0,0-.352-.1l-.056-.012c-.19-.041-.387-.065-.572-.086s-.4-.043-.632-.054h-.014c-.085,0-.173-.006-.26-.006s-.153,0-.229.005Z" transform="translate(-120.013 -283.167)"/><path class="b" d="M140.648,339.825a1.516,1.516,0,0,0-.46.182.5.5,0,0,0-.24.264.474.474,0,0,0,.281.609.46.46,0,0,0,.368-.017,1.767,1.767,0,0,1,.171-.09,1.263,1.263,0,0,1,.158-.027,2.567,2.567,0,0,1,.386.024.751.751,0,0,1,.08.029l.043.029a1.417,1.417,0,0,1,.1.12,1.541,1.541,0,0,1,.1.208c.008.03.015.06.021.091h0c.006.034.011.066.015.1a3.12,3.12,0,0,1-.065.615,4.435,4.435,0,0,1-.287.857c-.038.08-.077.16-.117.239s-.064.129-.1.194l-.02.04c-.051.107-.1.214-.155.32-.029.054-.058.107-.088.16-.06.108-.121.219-.177.333a1.332,1.332,0,0,0-.08.2.95.95,0,0,0-.034.4.712.712,0,0,0,.167.352.962.962,0,0,0,.236.2c.076.049.151.1.224.136.143.079.3.155.419.215l.044.022.156.077.068.037c.193.1.41.221.628.319a3.627,3.627,0,0,0,.691.252l.048.011a1.578,1.578,0,0,0,.205.038.709.709,0,0,0,.072,0c.05,0,.1,0,.143-.007l.04,0a.816.816,0,0,0,.3-.091,1.877,1.877,0,0,0,.52-.452,4.794,4.794,0,0,0,.592-.742,4.239,4.239,0,0,0,.476-1.061l.007-.025c.037-.134.082-.3.12-.461l0,0c.012-.051.023-.1.033-.152a2.542,2.542,0,0,0,.04-.518c0-.214-.011-.432-.027-.646-.015-.2-.047-.394-.075-.59a.574.574,0,0,0-1.033-.224.608.608,0,0,0-.094.436c.015.149.029.3.043.446s0,.31,0,.465a3.006,3.006,0,0,1-.038.486,5.091,5.091,0,0,1-.343,1.015,3.589,3.589,0,0,1-.28.439c-.11.146-.23.286-.353.423-.03.032-.061.064-.094.094l-.011,0a4.9,4.9,0,0,1-.906-.36c-.132-.07-.264-.14-.4-.2s-.281-.131-.42-.2l-.022-.012c.024-.05.049-.1.074-.147l-.012.022c.151-.295.282-.6.419-.9a4.888,4.888,0,0,0,.2-.478c.061-.185.108-.372.151-.56l0,.021.022-.1-.014.065c.037-.169.071-.338.091-.511a3.2,3.2,0,0,0,.006-.551,1.768,1.768,0,0,0-.414-1,1.3,1.3,0,0,0-.488-.37,1.633,1.633,0,0,0-.595-.111c-.046,0-.093,0-.139,0a1.971,1.971,0,0,0-.384.034Z" transform="translate(-124.707 -284.62)"/><path class="b" d="M137.2,335.546h-.014a5.488,5.488,0,0,0-.643.088,8.672,8.672,0,0,0-1.3.386,9.932,9.932,0,0,0-2.178,1.128,14.585,14.585,0,0,0-1.807,1.5,10.852,10.852,0,0,0-.827.928c-.252.305-.481.632-.712.953-.111.155-.23.306-.345.458-.1.136-.2.277-.3.418l-.005.01-.035.052a9.692,9.692,0,0,0-.632,1.1,9.183,9.183,0,0,0-.436.967c-.1.281-.2.57-.284.849l-.065.205a11.989,11.989,0,0,0-.3,1.213,5.607,5.607,0,0,0-.121,1.04,7.771,7.771,0,0,0,.249,2.351,3.681,3.681,0,0,0,.185.518c.055.116.119.236.2.367a5.676,5.676,0,0,0,.573.8,4.252,4.252,0,0,0,1.365,1.055l0,0-.029-.015.028.014-.027-.015c.152.079.269.135.379.178l.01.006c.072.029.145.054.221.077.172.05.344.1.518.139a6.187,6.187,0,0,0,.691.126,4.706,4.706,0,0,0,.516.029c.058,0,.116,0,.174,0l.082,0h.016l.068,0a4.085,4.085,0,0,0,.917-.153,5.285,5.285,0,0,0,.641-.227,4.971,4.971,0,0,0,.469-.245c.134-.078.29-.168.442-.264a4.088,4.088,0,0,0,.338-.231c.068-.053.133-.113.2-.174l.014-.013a5.237,5.237,0,0,0,.752-.863c.145-.211.283-.433.417-.646l.016-.026.109-.174c.169-.269.336-.557.494-.857l.031-.059.032-.061.026-.049.006-.012.007-.012a2.5,2.5,0,0,0,.323-.826.917.917,0,0,0-.107-.506,1.738,1.738,0,0,0-.236-.345,2.253,2.253,0,0,0-.356-.309c-.085-.063-.177-.13-.272-.189-.2-.124-.409-.238-.6-.339l-.088-.046.018.01.073.038-.067-.035.066.036c-.142-.074-.27-.141-.406-.2l-.093-.041c-.065-.029-.132-.06-.2-.083-.048-.016-.1-.03-.141-.041-.062-.016-.138-.034-.2-.045a.436.436,0,0,0-.084-.008.722.722,0,0,0-.637.413l-.018.026c-.059.088-.124.174-.188.258l-.082.108-.07.094-.01.014-.2.266-.14.188-.02.025c-.044.06-.089.121-.134.181-.087.116-.18.227-.274.336a8.406,8.406,0,0,1-.649.609c-.122.1-.245.209-.372.307-.11.085-.225.162-.341.239-.154.1-.309.188-.463.281l-.135.088a.629.629,0,0,0,.189,1.072l.164.037a.627.627,0,0,0,.324-.06,2.533,2.533,0,0,0,.5-.277c.2-.129.4-.256.588-.4a9.873,9.873,0,0,0,.857-.763,7.575,7.575,0,0,0,.8-.955c.171-.238.351-.47.521-.708.068.032.136.063.2.1a5.9,5.9,0,0,1,.966.615l.011.012c-.012.028-.025.056-.038.083l-.014.026c-.212.393-.434.779-.674,1.156a9.42,9.42,0,0,1-.78,1.113,3.94,3.94,0,0,1-.584.516c-.167.1-.336.2-.507.3a3.918,3.918,0,0,1-.6.272,4.01,4.01,0,0,1-.844.158,4.718,4.718,0,0,1-1.047-.087c-.172-.041-.343-.088-.513-.138a2.614,2.614,0,0,1-.462-.192,3.163,3.163,0,0,1-.662-.459,4.826,4.826,0,0,1-.612-.729,3.682,3.682,0,0,1-.32-.634,6.356,6.356,0,0,1-.24-1.439,8.2,8.2,0,0,1,.007-.874,7.254,7.254,0,0,1,.143-.95c.111-.476.26-.943.411-1.408a9.5,9.5,0,0,1,.582-1.372c.143-.266.291-.528.459-.778.2-.292.406-.574.617-.858s.418-.583.634-.87c.188-.249.389-.492.6-.725a13.029,13.029,0,0,1,1.023-.952,11.909,11.909,0,0,1,1.125-.85,9.54,9.54,0,0,1,1.937-.9c.258-.077.517-.145.78-.205a4.275,4.275,0,0,1,.669-.09c.122,0,.245-.006.367,0a2.682,2.682,0,0,1,.376.047,2.306,2.306,0,0,1,.381.12,3.036,3.036,0,0,1,.4.3,4.7,4.7,0,0,1,.535.666,1.907,1.907,0,0,1,.115.235,2.978,2.978,0,0,1,.086.507c0,.1-.007.2-.011.3a2.4,2.4,0,0,0,.033.458.52.52,0,0,0,1.022-.192c-.005-.038-.012-.077-.016-.116,0-.144.023-.288.021-.433a3.7,3.7,0,0,0-.055-.625,2.084,2.084,0,0,0-.213-.613,5.756,5.756,0,0,0-.4-.6,2.852,2.852,0,0,0-.43-.476l-.1-.087-.01-.006a2.362,2.362,0,0,0-.369-.27,2.207,2.207,0,0,0-.357-.172c-.085-.03-.174-.052-.263-.074l-.008,0a2.992,2.992,0,0,0-.666-.11l-.164,0c-.169,0-.334.006-.491.018Z" transform="translate(-119.639 -283.159)"/><path class="b" d="M153.926,336.614l-.149.007h.012c-.329.014-.711.034-1.081.085a6.083,6.083,0,0,0-.82.154,1.55,1.55,0,0,0-.549.266,1.823,1.823,0,0,0-.329.336,2.529,2.529,0,0,0-.182.269l-.052.085c-.1.161-.2.331-.282.481l-.159.281-.159.281-.076.11-.122.178c-.1.14-.213.308-.325.486-.191.307-.4.638-.6.975-.069.116-.138.231-.207.347l-.035.059-.009.015c-.127.211-.258.429-.382.646-.261.457-.5.936-.734,1.4l0,.008-.022.043q-.131.26-.263.52l-.222.415q-.154.286-.306.573l-.081.15-.042.079-.006.01c-.161.3-.328.609-.478.924-.341.71-.648,1.422-.986,2.211l-.087.2-.09.21c-.235.546-.5,1.167-.741,1.779l-.129.327c-.1.249-.2.507-.3.766-.016.044-.032.088-.049.131l-.021.056-.029.078,0,.01c-.086.228-.183.486-.266.742-.039.122-.076.256-.111.409l-.02.083a3.636,3.636,0,0,0-.089.471,1.523,1.523,0,0,0,.113.671,1.306,1.306,0,0,0,.217.356,1.439,1.439,0,0,0,.269.25,1.617,1.617,0,0,0,.284.158l.02.009.053.025a1.653,1.653,0,0,0,.2.076l.041.014a4.972,4.972,0,0,0,.523.131l.072.015c.151.033.3.062.459.091l.014,0,.3.06.074.018a2.841,2.841,0,0,0,.478.09l.078,0a.953.953,0,0,0,.189-.018.964.964,0,0,0,.376-.178l.01-.007a1.064,1.064,0,0,0,.191-.186l.006-.007.031-.035.007-.007a2.155,2.155,0,0,0,.283-.4c.1-.18.2-.37.325-.616.178-.355.334-.715.476-1.05.082-.193.169-.388.254-.576l.014-.031.008-.018c.068-.15.136-.3.2-.451.241-.554.43-1.011.6-1.438q.079-.2.16-.4l.016-.041c.04-.1.08-.2.119-.3.074-.188.149-.373.236-.555.017-.029.035-.055.054-.083l.046-.019c.117-.032.236-.053.369-.077l.019,0c.163-.029.357-.062.549-.086l.065-.008c.275-.034.586-.073.894-.093l.127-.006.319-.012h.049c0,.275,0,.553-.006.8v.039c-.007.4-.033.8-.059,1.178-.01.137-.02.274-.03.415v.009c-.048.642-.1,1.306-.088,1.963,0,.171.006.342.01.512l0,.1,0,.1v.01q.005.236.01.471c0,.238.01.47.035.694.009.086.023.174.036.249a2.17,2.17,0,0,0,.1.365l.021.063a1.208,1.208,0,0,0,.1.216,2.573,2.573,0,0,0,.152.229,1.128,1.128,0,0,0,.18.182l.032.029a1.433,1.433,0,0,0,.359.211l.049.023a1.648,1.648,0,0,0,.246.091c.078.023.166.046.262.069l.071.018a2.963,2.963,0,0,0,.383.075,3.532,3.532,0,0,0,.393.02c.063,0,.125,0,.188,0a7.194,7.194,0,0,0,1.312-.15c.177-.041.333-.082.476-.126.114-.035.225-.071.332-.113a1.418,1.418,0,0,0,.263-.15l.018-.012a.938.938,0,0,0,.321-.474,3.2,3.2,0,0,0,.09-.381l0-.015a3.914,3.914,0,0,0,.058-.564c.016-.342.017-.691.018-1.03v-.121c0-.452,0-.823.013-1.17q.006-.271.015-.543c.006-.22.013-.44.018-.66l0-.1v-.052c.008-.343.015-.7.033-1.046.013-.268.029-.535.044-.8.008-.133.015-.266.023-.4.024-.43.036-.878.046-1.275v-.038c.01-.356.02-.726.036-1.087.006-.124.012-.248.018-.372v-.029c.012-.237.026-.533.036-.814.005-.15.009-.3.012-.45v-.017c0-.2.01-.435.021-.659.023-.429.037-.816.043-1.183,0-.166.008-.333.013-.5v-.051l0-.054q.009-.274.015-.547l0-.207a17.343,17.343,0,0,0-.038-2.026,6.975,6.975,0,0,0-.169-1,4.937,4.937,0,0,0-.2-.609,2.327,2.327,0,0,0-.243-.446,1.007,1.007,0,0,0-.1-.125,1.809,1.809,0,0,0-.175-.163,1.211,1.211,0,0,0-.248-.147l-.037-.017a1.279,1.279,0,0,0-.211-.074l-.021-.005c-.1-.029-.2-.05-.311-.072l-.035-.007-.086-.018-.119-.027-.007,0c-.155-.034-.315-.069-.475-.091a5.2,5.2,0,0,0-.545-.037c-.267-.009-.514-.013-.751-.013-.2,0-.4,0-.589.008ZM152,344.463a8.848,8.848,0,0,1,.415-1.128c.093-.221.188-.448.27-.676.122-.338.235-.633.345-.9l.007-.015.009-.022a.578.578,0,0,0,.124-.043.616.616,0,0,0,.3-.33c.07-.158.136-.3.2-.44l.022.147,0,.023c.021.131.035.264.046.4h0v0c.009.1.015.2.022.294v.028l.007.1c.016.245.038.5.059.737l.005.061,0,.014c.024.27.046.535.065.8a5.639,5.639,0,0,1-.044,1.066h-.4c-.162,0-.346,0-.526-.011-.211-.014-.39-.03-.548-.049-.138-.016-.266-.035-.391-.057Z" transform="translate(-126.076 -283.58)"/><path class="b" d="M158.164,341.969a.544.544,0,0,0-.33.213,1.672,1.672,0,0,0-.168.234c-.068.122-.133.247-.195.372-.1.2-.192.393-.284.592-.177.384-.346.771-.538,1.147l.019-.037-.017.033c-.147.271-.294.54-.433.816-.121.24-.236.483-.357.723-.138.257-.278.514-.417.77-.076.142-.158.281-.235.422-.1.192-.195.387-.286.584a.561.561,0,0,0,.021.448.578.578,0,0,0,.77.272l.124-.08a.579.579,0,0,0,.169-.241c.035-.069.068-.14.1-.21.206-.364.4-.734.588-1.105.054-.1.107-.208.159-.313h0c.135-.275.26-.544.353-.747.081-.177.169-.353.254-.524l.006-.012c.08-.163.16-.322.233-.479.12-.256.231-.518.338-.771l.035-.084.072-.168.108-.252h0c.077-.175.157-.349.242-.521a2.195,2.195,0,0,1,.185-.269.52.52,0,0,0-.428-.819.5.5,0,0,0-.1.009Zm-2,5.947-.044.086h0l.044-.086Zm-.046.087-.005.011,0,.006-.034.065.043-.082Z" transform="translate(-130.608 -285.482)"/><path class="b" d="M183.17,329.535a3.087,3.087,0,0,0-.531.141,6.369,6.369,0,0,0-1.109.546,10.283,10.283,0,0,0-1,.656l-.039.029a2.715,2.715,0,0,0-.283.233.926.926,0,0,0-.3.694,1.407,1.407,0,0,0,.01.229c.012.135.029.283.05.453.018.151.038.3.058.451l0,.012.009.062.007.055q.075.549.154,1.1l0,.018.012.086.013.092q.076.532.148,1.065l.008.058.007.051.039.377c.063.613.129,1.248.223,1.876.048.322.109.677.193,1.118.04.211.075.428.106.619l0,.015c.029.178.057.353.089.526.054.3.1.61.137.839.012.077.026.154.042.233l.007.04.018.1c.01.059.02.118.03.177l0,.013.007.049h0l-.062-.055c-.3-.263-.57-.512-.816-.763l-.046-.048c-.256-.258-.52-.526-.761-.807-.268-.311-.5-.594-.708-.866l-.127-.17-.158-.211-.119-.163-.016-.021-.01-.013c-.094-.13-.2-.277-.309-.414s-.21-.267-.316-.4l-.079-.1c-.147-.2-.294-.41-.445-.626-.22-.315-.447-.64-.688-.948-.209-.278-.428-.559-.649-.832-.118-.146-.24-.29-.365-.436l-.01-.013c-.086-.1-.174-.2-.259-.307-.154-.185-.319-.364-.489-.546a1.067,1.067,0,0,0-.768-.359h-.054a.627.627,0,0,0-.3.076.532.532,0,0,0-.1-.009.524.524,0,0,0-.121.013l-.119.024-.034.007c-.105.021-.236.047-.359.082a3.969,3.969,0,0,0-.425.161l-.076.032c-.1.039-.211.074-.306.105l-.016.005a4.479,4.479,0,0,0-.692.272,4.32,4.32,0,0,0-.427.268c-.06.041-.117.084-.171.128a.7.7,0,0,0-.105.121l-.01.013-.018.023a.9.9,0,0,0-.117.228l-.013.033a1.522,1.522,0,0,0-.054.179l-.013.053c-.025.094-.046.191-.066.3-.038.2-.062.407-.083.6l-.012.1c-.051.443-.085.813-.108,1.168-.024.372-.051.794-.055,1.209l-.005.479q-.005.37-.008.74c0,.172,0,.345,0,.522v.026c0,.223,0,.445-.005.668,0,.2,0,.4-.007.6s-.006.4-.007.6c0,.429.01.86.02,1.277v.04c.009.364.018.741.018,1.122s0,.8.019,1.206.02.831.022,1.189.011.73.029,1.186c.015.353.034.771.066,1.2.036.487.077.911.128,1.3l.007.061c.023.179.046.355.076.529a3.146,3.146,0,0,0,.195.646,1.266,1.266,0,0,0,.521.6,1.992,1.992,0,0,0,.757.232,1.944,1.944,0,0,0,.285.019c.108,0,.218-.007.3-.013a7.106,7.106,0,0,0,.736-.094,9.235,9.235,0,0,0,1.089-.274c.094-.029.191-.063.274-.093s.15-.054.226-.077a3.665,3.665,0,0,0,.356-.136.884.884,0,0,0,.308-.214.941.941,0,0,0,.21-.371,1.389,1.389,0,0,0,.035-.208l.007-.061c.009-.067.013-.14.016-.207,0-.034,0-.068.006-.1.011-.148.024-.344.032-.539.015-.372.013-.745,0-1.109-.038-.807-.1-1.614-.156-2.307-.009-.12-.019-.241-.027-.361l-.007-.09,0-.033c-.024-.323-.05-.659-.082-.989-.024-.249-.045-.492-.062-.724-.02-.266-.048-.526-.074-.746s-.04-.418-.062-.617l-.015-.177-.007-.1-.007-.074,0,0v0c.072.083.141.166.207.247.492.607,1,1.218,1.478,1.792.261.314.543.635.792.92.233.266.5.568.747.867.436.521.955,1.131,1.508,1.708.116.121.255.265.4.407a5.558,5.558,0,0,0,.55.465,2.638,2.638,0,0,0,.751.421,1.738,1.738,0,0,0,.359.077l.024,0a1,1,0,0,0,.136.008c.042,0,.085,0,.127,0,.132-.007.275-.021.448-.044a3.244,3.244,0,0,0,.517-.122c.256-.077.51-.172.76-.267l.056-.021.143-.053c.326-.121.7-.265,1.08-.439a3.149,3.149,0,0,0,.392-.222l.069-.044a2.031,2.031,0,0,0,.361-.272,1.424,1.424,0,0,0,.325-.555,1.572,1.572,0,0,0,.055-.23c.027-.14.051-.288.069-.439a9.171,9.171,0,0,0,.043-1.128,36.06,36.06,0,0,0-.249-3.9c-.053-.544-.121-1.094-.167-1.461s-.086-.776-.147-1.266c-.066-.622-.148-1.277-.25-2.005-.029-.2-.057-.408-.088-.618-.052-.372-.112-.794-.168-1.21v-.008q-.034-.315-.069-.631c-.009-.09-.019-.18-.028-.27-.032-.3-.065-.616-.108-.932q-.083-.606-.17-1.21l-.021-.147c-.016-.122-.037-.274-.063-.42-.032-.178-.074-.363-.108-.512l0-.012a5.77,5.77,0,0,0-.405-1.174,1.713,1.713,0,0,0-.665-.827,1.173,1.173,0,0,0-.525-.148h-.055a2.224,2.224,0,0,0-.367.04Z" transform="translate(-136.697 -280.801)"/><g transform="translate(2.178 1.346)"><path class="c" d="M172.311,316.223v-.453a19.887,19.887,0,0,0-.306-3.259c-.1-.623-.193-1.129-.287-1.593-.111-.548-.221-1.04-.333-1.5-.094-.379-.189-.75-.308-1.116a15.931,15.931,0,0,0-.59-1.549l-.107-.245c-.071-.164-.141-.324-.214-.479-.082-.172-.169-.346-.253-.513l-.007-.014-.038-.076-.074-.148c-.114-.228-.229-.467-.331-.678-.114-.237-.243-.505-.372-.76-.23-.457-.452-.878-.677-1.286l-.111-.192a6.278,6.278,0,0,0-.451-.694c-.116-.152-.236-.3-.355-.454l-.025-.032-.13-.164-.009-.01c-.155-.2-.331-.421-.492-.642l0-.007c-.139-.192-.282-.39-.431-.582s-.3-.391-.466-.592c-.065-.08-.129-.161-.193-.242l-.02-.025c-.073-.092-.146-.184-.221-.276-.254-.309-.535-.623-.884-.989-.092-.091-.186-.181-.281-.27l-.051-.048c-.06-.056-.118-.113-.175-.172s-.121-.121-.183-.18c-.18-.169-.383-.361-.595-.537-.135-.111-.278-.214-.417-.313l-.113-.082-.077-.056-.01-.008c-.08-.059-.153-.111-.228-.161l.048.031c-.089-.059-.173-.116-.261-.176l-.052-.035-.052-.034a1.489,1.489,0,0,1-.133-.08l-.01-.006-.228-.1-.022-.009c-.11-.046-.222-.1-.353-.158-.111-.053-.22-.115-.316-.171l-.024-.014c-.058-.029-.119-.053-.178-.077s-.115-.046-.168-.071-.128-.062-.192-.094-.171-.086-.264-.127-.167-.069-.249-.1l-.014-.005c-.076-.029-.154-.058-.229-.09l-.173-.076-.014-.007c-.1-.043-.2-.088-.3-.127l-.027-.011c-.4-.1-.83-.2-1.26-.286-.567-.117-1.139-.217-1.673-.307-.362-.061-.732-.119-1.089-.175l-.079-.013-.165-.026-.364-.057c-.541-.086-1.1-.175-1.666-.256-.258-.037-.529-.07-.747-.1-.288-.035-.585-.073-.877-.116-.671-.1-1.187-.162-1.671-.2l-.2-.016-.068-.006c-.2-.016-.378-.031-.56-.042-.129-.008-.256-.013-.385-.019l-.043,0c-.124-.006-.249-.012-.373-.02-.144-.008-.287-.019-.431-.029l-.076-.005c-.355-.025-.716-.049-1.073-.063-.325-.007-.62-.01-.9-.011h-1.846c-.5,0-1.008,0-1.508.046-.551.05-1.089.1-1.618.18s-1.015.165-1.483.266c-.323.081-.662.172-1.1.295l-.3.082-.034.01c-.286.079-.581.16-.868.252a12.738,12.738,0,0,0-2.044.87c-.462.262-.913.527-1.341.788l-.1.061-.063.038c-.18.109-.367.221-.545.343l-.03.02-.032.022c-.183.126-.373.256-.556.388-.471.337-.91.682-1.276.976-.392.314-.769.666-1.1.977l-.006.006c-.535.515-1.077,1.087-1.706,1.8-.362.411-.716.835-1.06,1.246l-.082.1c-.157.188-.32.376-.478.557-.218.252-.441.508-.651.768-.328.4-.715.887-1.092,1.389-.19.253-.347.465-.5.687-.132.19-.267.4-.427.648l-.113.187-.069.113c-.2.334-.43.711-.631,1.082-.236.432-.512.944-.775,1.464-.5.987-.925,2.026-1.335,3.031l-.039.095-.093.228c-.17.414-.362.884-.518,1.343-.161.476-.327.98-.491,1.5-.085.281-.183.612-.269.944-.154.595-.277,1.121-.375,1.609-.094.471-.18.951-.261,1.416l0,.013-.046.258c-.119.671-.193,1.214-.234,1.71-.046.556-.076,1.061-.094,1.545-.022,1.013-.02,2.036-.016,3a8.458,8.458,0,0,0,.118,1.488c.079.433.177.9.3,1.431.1.375.19.707.29,1.012.112.343.248.684.38,1.013l.034.084c.1.26.224.519.339.77.062.136.122.266.18.4.147.329.314.643.487.962.413.689.969,1.591,1.6,2.453.255.346.554.71.94,1.144.3.334.608.672.922,1,.4.4.768.761,1.128,1.107.124.119.255.238.388.361l.055.05.192.176.119.112c.16.149.324.3.492.449.213.186.437.372.668.554l.04.031c.193.151.392.307.6.448l.02.014.013.009c.416.282.846.574,1.28.843.392.231.856.5,1.326.741l.2.1.08.04.029.015c.15.076.3.152.449.23l.041.021.01.005c.247.128.5.262.758.381l.165.077c.2.094.406.192.615.274q.193.076.386.15l.052.02.351.137.035.014.026.01c.257.1.523.208.788.3.239.086.521.187.8.291.528.2,1.055.378,1.567.54.144.041.292.082.453.122.451.116,1.045.267,1.645.4.562.125,1.142.21,1.7.291a31.659,31.659,0,0,0,3.255.31l.137,0c.422.01.853.02,1.277.05.379.027.787.053,1.2.069.408,0,.822-.013,1.223-.023h.035l.077,0c.58-.015,1.15-.051,1.684-.086l.076-.005c.532-.035,1.083-.072,1.62-.139.574-.072,1.09-.156,1.581-.256.53-.109,1.053-.23,1.495-.335.51-.126.977-.263,1.426-.418.476-.165.951-.34,1.413-.521.417-.163.866-.358,1.413-.612.415-.193.856-.4,1.285-.625.343-.193.651-.382.941-.578.319-.215.638-.449.937-.669s.6-.445.893-.671.568-.454.828-.692l.144-.14c.46-.448.888-.908,1.21-1.258.4-.44.78-.911,1.131-1.356.144-.184.283-.377.418-.564l.005-.008.1-.133c.164-.228.325-.464.478-.7l.235-.367c.2-.306.39-.609.582-.914q.173-.285.344-.568c.145-.242.288-.489.423-.734l.041-.073.008-.014c.121-.217.245-.442.354-.669.266-.552.523-1.109.765-1.632l.077-.169c.088-.191.177-.382.263-.574.121-.268.227-.538.344-.839.189-.487.348-.991.5-1.479l.012-.038q.09-.3.182-.6c.155-.525.3-1.1.455-1.769q.057-.249.115-.5l.026-.112c.079-.339.168-.722.247-1.093.11-.515.207-1.051.289-1.591s.139-1.114.187-1.643l.007-.077v-.011c.047-.525.1-1.067.118-1.6C172.312,317.754,172.312,316.941,172.311,316.223Zm-39.042,15.831-.109.171-.016.026c-.134.211-.272.429-.417.637a5.21,5.21,0,0,1-.752.851l-.014.013c-.065.059-.129.119-.2.171-.1.077-.208.147-.338.228-.152.094-.308.183-.442.26a5.149,5.149,0,0,1-.469.241,5.274,5.274,0,0,1-.641.223,4.176,4.176,0,0,1-.917.151l-.068,0h-.016c-.156.008-.309.016-.464.016-.088,0-.171,0-.253-.008-.2-.014-.4-.045-.589-.075l-.013,0a2.492,2.492,0,0,1-.555-.136c-.11-.047-.227-.1-.339-.158-.11-.043-.227-.1-.379-.176l.033.019a4.568,4.568,0,0,1-.7-.423,4.492,4.492,0,0,1-.665-.617,5.538,5.538,0,0,1-.573-.785c-.077-.129-.142-.247-.2-.361a3.5,3.5,0,0,1-.186-.51,7.587,7.587,0,0,1-.249-2.317,5.5,5.5,0,0,1,.121-1.025,11.671,11.671,0,0,1,.3-1.2l.065-.2c.088-.276.18-.56.284-.837a9.11,9.11,0,0,1,.436-.953,9.467,9.467,0,0,1,.632-1.083l.035-.051c.027-.05.054-.1.082-.151.067-.122.143-.246.211-.355l.091-.149c.1-.167.2-.331.3-.484l.156-.241c.139-.216.308-.479.483-.727a8.21,8.21,0,0,1,.874-1.035,10.27,10.27,0,0,1,.844-.78,10.609,10.609,0,0,1,1.11-.768,7.325,7.325,0,0,1,1.016-.546,8.1,8.1,0,0,1,1.217-.385c.138-.033.345-.08.551-.111a6.006,6.006,0,0,1,.6-.048h.009l.091,0c.076,0,.153-.005.229-.005s.175,0,.26.005h0c.157-.011.322-.017.491-.017l.164,0a3.074,3.074,0,0,1,.666.107l.009,0c.088.022.177.044.263.073a2.223,2.223,0,0,1,.357.169,2.359,2.359,0,0,1,.369.266l.076.05a3.062,3.062,0,0,1,.341.265l.066.06a4.078,4.078,0,0,1,.471.471,2.917,2.917,0,0,1,.369.6,5.257,5.257,0,0,1,.247.662,3.32,3.32,0,0,1,.125.568,6.161,6.161,0,0,1,0,1.264c-.016.2-.048.394-.077.569a3.108,3.108,0,0,1-.177.666,3.739,3.739,0,0,1-.18.363l-.007.014-.03.057,0,.007c-.037.158-.083.322-.12.454l-.007.025a4.147,4.147,0,0,1-.476,1.046,4.738,4.738,0,0,1-.592.731,1.869,1.869,0,0,1-.52.445.824.824,0,0,1-.3.089l-.04,0c-.041,0-.093.007-.143.007a.717.717,0,0,1-.072,0,1.5,1.5,0,0,1-.205-.038l-.048-.01a3.733,3.733,0,0,1-.69-.249c-.218-.1-.436-.211-.628-.314l-.068-.036-.156-.076-.044-.022c-.123-.059-.277-.134-.419-.212-.073-.04-.149-.085-.224-.134a.943.943,0,0,1-.236-.2.7.7,0,0,1-.167-.347.915.915,0,0,1,.034-.391,1.238,1.238,0,0,1,.08-.2c.056-.112.118-.221.177-.328l.088-.157c.054-.1.1-.21.155-.316l.019-.04c.031-.064.063-.128.1-.191s.079-.156.116-.235a4.36,4.36,0,0,0,.288-.845,3.064,3.064,0,0,0,.065-.605c0-.034-.009-.067-.015-.1a.316.316,0,0,0-.049.009,2.5,2.5,0,0,0-.316.152,8.918,8.918,0,0,0-1.351,1.166c-.126.14-.275.306-.42.48a9.72,9.72,0,0,0-.675.952l-.018.027c-.189.292-.367.6-.523.879l-.086.151c-.137.24-.279.481-.425.729l0,.007c-.228.39-.465.792-.684,1.2-.145.293-.284.6-.416.911a6.572,6.572,0,0,0-.288.857,3.673,3.673,0,0,0-.074.732c0,.04.005.079.011.119a1.71,1.71,0,0,0,.046.215c.01.025.021.05.031.075a.988.988,0,0,0,.1-.022,4.624,4.624,0,0,0,.807-.389,6.888,6.888,0,0,0,1.038-.861c.076-.087.143-.167.206-.243.046-.062.093-.124.14-.185l.2-.261.01-.014.07-.093c.027-.036.054-.071.082-.106.064-.083.129-.168.188-.255l.018-.026a.8.8,0,0,1,.347-.34.812.812,0,0,1,.289-.067.483.483,0,0,1,.083.008c.065.011.141.028.2.044.043.011.093.025.141.041.069.023.136.053.2.082l.093.041c.135.057.264.122.406.2l-.145-.078c.227.118.49.256.742.409.1.058.187.124.273.186a2.294,2.294,0,0,1,.355.3,1.735,1.735,0,0,1,.236.341.892.892,0,0,1,.107.5,2.428,2.428,0,0,1-.324.814l-.006.012-.006.011-.026.049-.032.06-.031.058C133.6,331.5,133.439,331.789,133.269,332.054Zm15.25-8.258,0,.2c0,.179-.009.359-.015.538v.053l0,.051c0,.163-.01.327-.012.491-.007.362-.021.743-.044,1.166-.012.22-.017.448-.021.649v.017q0,.222-.012.444c-.01.277-.024.568-.037.8v.029c-.006.122-.012.244-.018.367-.017.357-.027.72-.037,1.072v.038c-.01.391-.023.833-.046,1.256q-.011.2-.023.394c-.015.264-.031.528-.044.792-.018.343-.026.693-.033,1.031v.051l0,.1q-.007.325-.018.65c0,.179-.01.357-.015.535-.008.341-.012.707-.013,1.153v.119c0,.334,0,.678-.018,1.015a3.784,3.784,0,0,1-.058.555l0,.016a3.26,3.26,0,0,1-.09.375.923.923,0,0,1-.321.467l-.018.012a1.42,1.42,0,0,1-.263.148c-.107.042-.218.076-.332.111-.144.043-.3.084-.476.124a7.3,7.3,0,0,1-1.312.148c-.063,0-.125,0-.188,0a3.749,3.749,0,0,1-.393-.019,2.909,2.909,0,0,1-.383-.075l-.071-.016c-.1-.023-.184-.047-.262-.069a1.733,1.733,0,0,1-.246-.09l-.049-.022a1.439,1.439,0,0,1-.359-.208l-.032-.028a1.149,1.149,0,0,1-.18-.179,2.53,2.53,0,0,1-.152-.226,1.2,1.2,0,0,1-.1-.212l-.021-.062a2.171,2.171,0,0,1-.1-.36c-.012-.073-.026-.16-.035-.245-.025-.222-.031-.45-.035-.684q0-.232-.01-.465v-.01l0-.1,0-.1c0-.168-.007-.337-.01-.5-.01-.647.04-1.3.088-1.934v-.009c.01-.139.021-.274.03-.409.027-.372.052-.769.06-1.161v-.038c0-.241.01-.515.005-.786h-.048c-.106,0-.212.008-.319.013l-.127.005c-.308.02-.619.058-.894.092l-.065.008c-.193.023-.386.055-.549.084l-.019,0c-.133.023-.252.044-.369.075l-.046.019c-.02.027-.037.053-.054.082-.087.18-.161.361-.236.547-.038.1-.079.195-.119.292l-.016.04c-.054.131-.108.261-.16.393-.166.421-.355.871-.6,1.417-.066.149-.134.3-.2.445l-.009.017-.014.031c-.085.185-.172.377-.253.567-.143.331-.3.686-.477,1.035-.122.242-.222.429-.324.607a2.173,2.173,0,0,1-.283.394l-.006.007-.032.035-.006.007a1.056,1.056,0,0,1-.191.184l-.01.007a.894.894,0,0,1-.566.193l-.078,0a2.867,2.867,0,0,1-.478-.088l-.074-.018-.3-.058-.013,0c-.156-.029-.308-.058-.459-.091l-.072-.015a4.9,4.9,0,0,1-.523-.13l-.041-.013a1.664,1.664,0,0,1-.2-.074l-.053-.025-.02-.009a1.624,1.624,0,0,1-.285-.155,1.432,1.432,0,0,1-.269-.246,1.3,1.3,0,0,1-.217-.352,1.49,1.49,0,0,1-.114-.661,3.624,3.624,0,0,1,.09-.464l.02-.082c.035-.151.072-.283.111-.4.082-.253.18-.507.266-.731l0-.01.03-.077.021-.055.049-.129c.1-.255.2-.509.3-.755q.065-.161.129-.322c.239-.6.506-1.214.741-1.753l.09-.207.087-.2c.338-.778.645-1.479.986-2.179.15-.31.317-.615.478-.91l.006-.01.043-.078.08-.148.306-.565.222-.408c.088-.17.175-.342.263-.513l.021-.043,0-.008c.233-.457.473-.929.735-1.379.124-.214.255-.429.381-.636l.009-.015.035-.058.207-.342c.2-.333.4-.659.6-.96.111-.176.227-.341.325-.479l.122-.176.076-.109.159-.277.159-.277c.085-.148.182-.315.282-.474l.052-.083a2.528,2.528,0,0,1,.181-.266,1.828,1.828,0,0,1,.33-.33,1.561,1.561,0,0,1,.548-.262,6.261,6.261,0,0,1,.82-.151c.37-.05.752-.07,1.081-.083l-.02,0c.244-.009.488-.014.745-.014.238,0,.484,0,.751.013a5.264,5.264,0,0,1,.545.037c.16.022.319.056.475.09l.007,0,.119.026.086.017.035.007c.106.022.211.043.311.071l.021.006a1.236,1.236,0,0,1,.211.073l.037.017a1.185,1.185,0,0,1,.248.144,1.8,1.8,0,0,1,.175.16.951.951,0,0,1,.1.123,2.283,2.283,0,0,1,.243.439,4.815,4.815,0,0,1,.2.6,6.87,6.87,0,0,1,.169.981A16.716,16.716,0,0,1,148.519,323.8Zm18.009,8.543c-.019.15-.042.295-.069.433a1.529,1.529,0,0,1-.055.226,1.407,1.407,0,0,1-.325.547,2.011,2.011,0,0,1-.362.268l-.069.043a3.153,3.153,0,0,1-.392.219c-.376.171-.755.313-1.08.432l-.143.052-.056.021c-.25.093-.5.187-.76.263a3.412,3.412,0,0,1-.517.121c-.173.023-.316.037-.448.043-.042,0-.085,0-.127,0a1,1,0,0,1-.136-.008l-.024,0a1.756,1.756,0,0,1-.359-.076,2.729,2.729,0,0,1-.315-.136,2.862,2.862,0,0,1-.437-.279,5.672,5.672,0,0,1-.549-.458c-.143-.14-.28-.282-.4-.4-.552-.568-1.072-1.169-1.508-1.683-.251-.3-.514-.592-.747-.855-.249-.281-.53-.6-.792-.907-.478-.565-.986-1.167-1.478-1.765-.065-.079-.135-.161-.207-.243l.012.177.015.175c.022.2.043.4.062.608s.054.474.073.735c.016.229.037.469.062.714.032.326.058.656.082.974l0,.032.007.089.027.355c.055.683.118,1.478.156,2.273.018.359.019.727,0,1.093-.007.192-.021.385-.032.531,0,.034,0,.067-.006.1,0,.067-.007.138-.016.2l-.007.061a1.338,1.338,0,0,1-.035.205.923.923,0,0,1-.21.366.894.894,0,0,1-.308.211,3.53,3.53,0,0,1-.356.133c-.076.024-.151.05-.226.077s-.18.064-.274.092a9.345,9.345,0,0,1-1.089.27,7.192,7.192,0,0,1-.736.092c-.083.006-.193.013-.3.013a1.957,1.957,0,0,1-.284-.019,2.007,2.007,0,0,1-.757-.229,1.251,1.251,0,0,1-.522-.6,3.047,3.047,0,0,1-.195-.638c-.03-.17-.054-.343-.076-.52l-.008-.061c-.049-.379-.091-.8-.127-1.277-.032-.423-.051-.835-.066-1.183-.018-.45-.027-.821-.029-1.169s-.005-.768-.022-1.171-.018-.8-.019-1.188-.01-.746-.018-1.106v-.039c-.01-.411-.021-.835-.02-1.258,0-.2,0-.4.007-.594s.007-.4.007-.594c0-.22,0-.438.006-.658v-.026c0-.173,0-.343,0-.514,0-.243,0-.486.008-.729q0-.237,0-.472c0-.409.031-.825.055-1.192.023-.35.057-.715.108-1.151l.012-.1c.022-.194.045-.394.084-.595.019-.1.041-.2.066-.292l.013-.052a1.518,1.518,0,0,1,.054-.176l.013-.033a.887.887,0,0,1,.117-.225l.018-.023.01-.013a.7.7,0,0,1,.105-.119c.054-.043.111-.086.171-.126a4.335,4.335,0,0,1,.427-.264,4.519,4.519,0,0,1,.692-.268l.016,0c.1-.031.2-.066.306-.1l.075-.032a4.2,4.2,0,0,1,.426-.158c.122-.035.253-.061.358-.082l.035-.007.119-.024a.558.558,0,0,1,.221,0,.635.635,0,0,1,.3-.074h.054a1.076,1.076,0,0,1,.768.354c.17.179.335.355.489.538.085.1.172.2.259.3l.01.013c.125.145.247.286.365.43.222.27.44.546.649.82.241.3.468.624.688.934.151.213.3.42.445.617l.079.1.316.394c.107.136.215.28.309.408l.01.013.016.021.119.16.158.208.127.168c.208.268.44.548.708.853.241.277.505.541.761.8l.046.047c.247.247.514.493.816.752l.062.055h0l-.007-.049,0-.013c-.009-.058-.019-.116-.029-.174l-.018-.1-.008-.04c-.015-.079-.03-.154-.041-.229-.035-.226-.083-.535-.137-.827-.032-.171-.06-.343-.089-.519l0-.014c-.031-.189-.066-.4-.107-.61-.083-.435-.144-.785-.192-1.1-.094-.62-.16-1.244-.223-1.849l-.039-.372-.007-.05-.008-.058q-.071-.525-.148-1.049l-.013-.091-.012-.086,0-.017q-.079-.54-.154-1.081l-.007-.055-.009-.061,0-.011c-.019-.148-.04-.3-.058-.445-.021-.168-.037-.313-.05-.446a1.37,1.37,0,0,1-.01-.226,1.044,1.044,0,0,1,.121-.466,1.055,1.055,0,0,1,.175-.218,2.628,2.628,0,0,1,.283-.229l.038-.029a10.385,10.385,0,0,1,1-.646,6.4,6.4,0,0,1,1.109-.538,3.176,3.176,0,0,1,.531-.139,2.253,2.253,0,0,1,.367-.04h.055a1.18,1.18,0,0,1,.525.146,1.693,1.693,0,0,1,.665.815,5.593,5.593,0,0,1,.4,1.157l0,.012c.034.146.077.328.109.5.026.143.046.293.063.414l.021.145q.086.6.17,1.193c.044.312.077.62.108.918.009.089.019.178.028.267q.035.311.069.621v.008c.055.41.115.825.168,1.192.03.207.058.408.087.609.1.717.184,1.363.251,1.976.061.483.107.879.147,1.247s.113.9.167,1.44a35.031,35.031,0,0,1,.249,3.84A8.909,8.909,0,0,1,166.529,332.339Zm.837-24.149a.718.718,0,0,1-.13.357l-.01.011-.049.1.026-.046c-.021.037-.041.075-.062.113l-.038.071-.018.034,0,.007a5.311,5.311,0,0,1-.33.572c-.09.128-.184.252-.29.39l-.116.15c-.338.446-.646.846-1,1.226l-.054.059a3.226,3.226,0,0,1-.352.346,2.518,2.518,0,0,1-.451.3,1.593,1.593,0,0,1-.71.179,1.281,1.281,0,0,1-.21-.017,2.348,2.348,0,0,1-.865-.315,2.711,2.711,0,0,1-.938-1.061,4.2,4.2,0,0,1-.29-.7l-.011-.033a2.821,2.821,0,0,1-.131-.518,6.2,6.2,0,0,1-.024-1.307l0-.027c.01-.115.021-.235.035-.352-.181.232-.366.462-.566.7-.155.187-.323.368-.482.537l-.079.085-.007.007c-.11.118-.224.241-.342.354l-.105.1c-.258.249-.526.507-.808.74a6.58,6.58,0,0,1-.688.5,1.92,1.92,0,0,1-.4.2l-.055.019a1.851,1.851,0,0,1-.409.105,2.021,2.021,0,0,1-.2.011,1.261,1.261,0,0,1-.429-.068,2.052,2.052,0,0,1-.322-.16,2.107,2.107,0,0,1-.486-.421,2.862,2.862,0,0,1-.356-.5,3.075,3.075,0,0,1-.245-.534l-.026-.073a3.541,3.541,0,0,1-.119-.385c-.024-.108-.044-.213-.061-.318a2.209,2.209,0,0,1-.022-.23l0-.07c-.01-.143-.015-.28-.021-.459a4.289,4.289,0,0,1,.023-.495l.006-.071c.006-.077.016-.157.029-.243-.134.139-.251.258-.359.363a10.706,10.706,0,0,1-2.054,1.527c-.178.1-.361.2-.518.286l-.118.059c-.082.149-.156.279-.227.394-.088.145-.184.3-.32.5a7.779,7.779,0,0,1-.705.942,5.343,5.343,0,0,1-.992.9,6.307,6.307,0,0,1-1.207.635,4.018,4.018,0,0,1-.41.13,2.411,2.411,0,0,1-.5.093c-.077.005-.166.011-.253.011a1.408,1.408,0,0,1-.285-.026,3.479,3.479,0,0,1-.346-.088,2.136,2.136,0,0,1-.259-.1l-.043-.02a1.566,1.566,0,0,1-.364-.2c-.038-.032-.076-.064-.113-.1-.122-.11-.214-.2-.3-.291a2.607,2.607,0,0,1-.464-.746,4.349,4.349,0,0,1-.212-.627.86.86,0,0,1-.2.065,1.659,1.659,0,0,1-.333.03c-.162,0-.33-.017-.478-.032l-.116-.011c-.272-.025-.52-.041-.76-.049l-.085,0-.012.144c-.03.391-.063.807-.121,1.213a7.808,7.808,0,0,1-.748,2.564,5.546,5.546,0,0,1-.49.814l-.041.055-.168.219a5.977,5.977,0,0,1-.454.517l-.074.08c-.055.059-.107.115-.161.164l-.13.117-.13.117c-.055.049-.115.095-.174.139l-.069.053a5.94,5.94,0,0,1-.593.4,4.3,4.3,0,0,1-.807.382,4.592,4.592,0,0,1-.881.229,5,5,0,0,1-.643.046c-.072,0-.145,0-.216-.007l-.08,0a3.424,3.424,0,0,1-.971-.184,3.293,3.293,0,0,1-.464-.225,3.056,3.056,0,0,1-.7-.562,3.132,3.132,0,0,1-.324-.433,1.746,1.746,0,0,1-.16-.3,3.634,3.634,0,0,1-.189-.651,3.3,3.3,0,0,1,.114-1.689,5.429,5.429,0,0,1,.3-.674,5.759,5.759,0,0,1,.763-1.111,8.9,8.9,0,0,1,1-.977,7.243,7.243,0,0,1,1.141-.77c.143-.081.3-.15.445-.216l.1-.043a5.613,5.613,0,0,1,.529-.2c.247-.083.489-.163.732-.237l.116-.036.042-.013c.13-.04.264-.083.4-.117l.081-.022c.162-.042.329-.086.5-.116.214-.038.428-.07.634-.1.176-.022.367-.036.585-.043l.01-.193,0-.07c.007-.136.014-.273.022-.409.016-.269.038-.543.06-.807l0-.016c.01-.118.02-.235.029-.354.06-.771.122-1.6.171-2.434.018-.316.037-.628.055-.94-.087.085-.177.178-.277.283-.228.243-.464.481-.692.712l-.013.013c-.224.228-.456.462-.679.7l-.1.1c-.247.263-.5.536-.78.786l-.092.082a9.245,9.245,0,0,1-.838.7c-.211.149-.389.27-.562.381a5.778,5.778,0,0,1-.871.483,5.13,5.13,0,0,1-.921.3,2.788,2.788,0,0,1-.561.062,1.872,1.872,0,0,1-.366-.034l-.023,0a3.531,3.531,0,0,1-.526-.134,3.386,3.386,0,0,1-.414-.191,2.643,2.643,0,0,1-.689-.537,3.21,3.21,0,0,1-.772-2.058,7.692,7.692,0,0,1,.03-1.342c.035-.295.094-.588.151-.872q.027-.134.053-.268c.09-.469.159-.86.215-1.232a.612.612,0,0,1,.614-.556l.051,0a.622.622,0,0,1,.419.213.582.582,0,0,1,.144.442c-.063.415-.139.834-.207,1.2l-.006.033c-.03.164-.06.328-.089.493l-.012.065a6.415,6.415,0,0,0-.1.764c-.013.246-.018.5-.013.775a4.454,4.454,0,0,0,.147.891,2.559,2.559,0,0,0,.184.388,2.246,2.246,0,0,0,.226.258,1.5,1.5,0,0,0,.726.362,2.163,2.163,0,0,0,.31.028,2.859,2.859,0,0,0,.481-.1,4.392,4.392,0,0,0,.749-.334l.27-.156a7.939,7.939,0,0,0,.843-.613l.077-.065c.282-.242.57-.489.827-.756.126-.131.252-.263.377-.394.167-.176.334-.352.5-.525l.289-.3.554-.569.207-.215c.21-.219.428-.445.655-.656l.113-.1c.1-.09.194-.181.29-.273l.046-.044c.058-.055.115-.11.174-.164.03-.028.06-.055.091-.081a.847.847,0,0,1,.4-.205.593.593,0,0,1,.122-.013.691.691,0,0,1,.388.121.671.671,0,0,1,.22.256,1.066,1.066,0,0,1,.086.6c0,.031,0,.06,0,.089,0,.092-.007.179-.011.265-.006.128-.013.255-.021.382l-.005.09-.008.137q-.033.579-.062,1.159c-.037.75-.084,1.53-.143,2.384l-.028.4q-.031.448-.061.9c-.015.246-.026.5-.034.716.21,0,.356.009.491.017.117.007.233.016.348.024l.046,0,.194.014.043,0c.077.005.155.011.232.014a1.744,1.744,0,0,1,.3.038l-.033-.009h0a1,1,0,0,1,.11.022c0-.2.015-.393.035-.567a10.785,10.785,0,0,1,.235-1.208l.006-.029c.018-.076.037-.152.055-.228l.01-.053.053-.267c.056-.282.128-.558.219-.885.068-.242.141-.5.23-.743a4.39,4.39,0,0,1,.29-.605l.041-.08.027-.052.073-.167.04-.09a.591.591,0,0,1,.23-.277c.091-.112.168-.2.241-.282l0,0,.016-.017.033-.034a1.992,1.992,0,0,1,.2-.185c.047-.037.1-.073.147-.107l.094-.066.064-.046.012-.009c.067-.049.135-.1.2-.148a2.55,2.55,0,0,1,.228-.153c.068-.108.13-.2.19-.279a7.374,7.374,0,0,1,.523-.605,2.824,2.824,0,0,1,.426-.368,4.181,4.181,0,0,1,.649-.4,3.2,3.2,0,0,1,1.109-.309h.024c.074-.006.168-.013.256-.013a1.141,1.141,0,0,1,.129.006,2.432,2.432,0,0,1,.275.049l.04.009a2.1,2.1,0,0,1,.223.062,2.371,2.371,0,0,1,.26.1,3.327,3.327,0,0,1,.42.225c.074.047.144.1.212.155l.021.017a3.216,3.216,0,0,1,.532.506,3.56,3.56,0,0,1,.362.546,1.951,1.951,0,0,1,.115.247,3.091,3.091,0,0,1,.144.462,3.648,3.648,0,0,1,.068.846,6.629,6.629,0,0,1-.164,1.2c-.1.452-.186.859-.314,1.262a9.119,9.119,0,0,0,.859-.784c.241-.274.447-.517.631-.742.065-.081.132-.161.2-.242l.066-.08c.129-.155.257-.312.383-.469.085-.106.172-.211.259-.316l.005-.007c.123-.148.25-.3.37-.457l.046-.059.005-.007c.078-.1.158-.2.233-.309l.019-.027.005-.007c.032-.046.065-.092.1-.136.013-.014.024-.029.037-.044a.583.583,0,0,1,.134-.136.772.772,0,0,1,.352-.166l.1,0,.1,0c.067.011.136.026.2.044a.767.767,0,0,1,.319.22.742.742,0,0,1,.168.346.9.9,0,0,1-.04.436c-.009.032-.02.063-.031.095l-.015.041c-.016.044-.032.088-.048.131l-.023.058c-.041.107-.083.214-.128.32-.1.239-.208.5-.3.746a13,13,0,0,0-.477,1.554,5.305,5.305,0,0,0-.108.675c-.018.216-.024.424-.021.637.007.093.016.2.033.307s.043.222.077.354a3.418,3.418,0,0,0,.245.532,2.6,2.6,0,0,0,.211.248l.046.032a1.923,1.923,0,0,0,.27-.132,8.051,8.051,0,0,0,.932-.78c.289-.273.565-.547.821-.817.414-.47.824-.992,1.33-1.692.262-.363.509-.746.747-1.117l.006-.01c.14-.217.284-.442.431-.663q.32-.477.642-.952l.006-.01a1.167,1.167,0,0,1,.432-.439.778.778,0,0,1,.345-.08c.022,0,.043,0,.065,0a.8.8,0,0,1,.387.14.765.765,0,0,1,.251.292c.021.062.041.124.062.187a.466.466,0,0,1,.015.235,4.165,4.165,0,0,1-.211.729,15.816,15.816,0,0,0-.674,2.13l-.005.023c-.077.355-.155.717-.205,1.077a7.522,7.522,0,0,0-.079,1.184c.01.123.023.237.041.349a2.028,2.028,0,0,0,.074.287,3.815,3.815,0,0,0,.3.618,2.486,2.486,0,0,0,.184.223.741.741,0,0,0,.338.172h.014c.031-.014.061-.029.091-.046a2.539,2.539,0,0,0,.309-.273c.321-.357.613-.736.91-1.126l.1-.126.027-.035c.091-.118.185-.239.272-.363a4.383,4.383,0,0,0,.253-.42l.013-.024c.049-.094.093-.179.142-.261a1.136,1.136,0,0,1,.436-.388.628.628,0,0,1,.3-.071.788.788,0,0,1,.266.046.731.731,0,0,1,.308.212A.721.721,0,0,1,167.366,308.19Z" transform="translate(-118.369 -266.922)"/><path class="c" d="M152.829,322.792a8.446,8.446,0,0,0-1.119.164c-.311.067-.621.164-.922.258l-.142.044c-.24.08-.523.18-.8.306-.144.065-.3.134-.443.216-.1.054-.2.115-.322.192a6.528,6.528,0,0,0-.659.511c-.186.169-.361.337-.534.515-.147.177-.266.327-.372.475s-.209.308-.322.5a4.186,4.186,0,0,0-.286.738,2.868,2.868,0,0,0-.037.486,3.226,3.226,0,0,0,.1.548,1.972,1.972,0,0,0,.131.278,2.383,2.383,0,0,0,.237.275,2.661,2.661,0,0,0,.345.244,2.287,2.287,0,0,0,.333.121,3.664,3.664,0,0,0,.62.049h.1a3.864,3.864,0,0,0,.752-.143,4.572,4.572,0,0,0,.813-.391,5.108,5.108,0,0,0,.577-.448l.047-.041.016-.015c.057-.05.111-.1.161-.15l.084-.088.09-.094.017-.02c.077-.089.172-.2.256-.309a6.894,6.894,0,0,0,.537-.805c.04-.082.077-.164.115-.247l.023-.049.032-.071c.018-.038.033-.079.047-.118l.025-.068.02-.049.01-.024c.019-.048.039-.1.054-.145l.043-.131c.029-.085.061-.182.085-.277l.042-.166.042-.165.007-.038,0-.009c.018-.1.038-.193.052-.289.069-.471.125-.969.176-1.568l0,0Z" transform="translate(-129.507 -279.215)"/><path class="c" d="M171.252,309.965a2.815,2.815,0,0,0-.281-.324,3.484,3.484,0,0,0-.408-.3,2.7,2.7,0,0,0-.341-.127,1.418,1.418,0,0,0-.172-.011h0a2.7,2.7,0,0,0-.427.083,2.419,2.419,0,0,0-.8.49c-.083.079-.161.156-.238.237l-.043.052a3.467,3.467,0,0,0-.247.325c-.077.12-.149.237-.219.357a4.62,4.62,0,0,0-.219.54c-.057.169-.1.347-.135.5s-.057.308-.08.457a3.777,3.777,0,0,0-.037.637,3.427,3.427,0,0,0,.112.634,3.134,3.134,0,0,0,.237.5,2.072,2.072,0,0,0,.822.763,2.92,2.92,0,0,0,.506.191,2.488,2.488,0,0,0,.366.032,3.794,3.794,0,0,0,.7-.155l.024-.01.04-.016c.144-.307.282-.62.409-.931a10.32,10.32,0,0,0,.481-1.519c.071-.337.119-.6.157-.842a4.622,4.622,0,0,0,.046-.755,3.416,3.416,0,0,0-.076-.437A2.641,2.641,0,0,0,171.252,309.965Z" transform="translate(-137.612 -273.818)"/><path class="c" d="M165.831,317.622a3.912,3.912,0,0,1-.529-.709,3.5,3.5,0,0,1-.373-.887,4.022,4.022,0,0,1-.129-.941c0-.083,0-.166,0-.246l0,0h0c-.068.213-.127.429-.178.641-.02.1-.039.191-.058.287l0,.009c-.044.22-.09.447-.139.669.009-.03.016-.062.023-.093-.037.168-.071.346-.107.542l-.026.142,0,.016c-.024.136-.05.278-.068.417a7.425,7.425,0,0,0-.048,1.08,4.869,4.869,0,0,0,.181.942,3.47,3.47,0,0,0,.253.548,2.425,2.425,0,0,0,.235.266,1.449,1.449,0,0,0,.138.1,2.8,2.8,0,0,0,.347.127,1.379,1.379,0,0,0,.155.011,2.879,2.879,0,0,0,.419-.088,5.567,5.567,0,0,0,.989-.49,5.7,5.7,0,0,0,.742-.662c.164-.193.318-.393.457-.594a3.435,3.435,0,0,1-1.571-.521A3.53,3.53,0,0,1,165.831,317.622Z" transform="translate(-136.277 -276.054)"/><path class="c" d="M159.62,345.838v-.014l-.005-.061c-.021-.241-.043-.492-.06-.737l-.007-.1V344.9c-.007-.1-.013-.195-.022-.294h0c-.037.084-.073.168-.11.252l-.071.168-.035.084c-.107.253-.218.515-.338.771-.074.157-.152.316-.234.479l-.005.012c-.085.171-.173.347-.254.524-.093.2-.218.473-.354.747.168.023.363.04.6.055.18.012.364.012.526.012h.4a5.643,5.643,0,0,0,.044-1.067C159.667,346.374,159.644,346.109,159.62,345.838Z" transform="translate(-133.904 -287.858)"/><path class="c" d="M138.883,264.681c.008.169.019.351.035.557l.013.172c.023.309.047.629.092.942.034.239.076.48.117.714l.005.031c.023.135.047.271.069.406l0,.018c.114.688.243,1.469.416,2.233l.041.164v-.012c.094.385.208.813.356,1.341s.284.984.42,1.406l.09.28c.074.236.168.528.265.8.122.345.253.715.38,1.092.087.258.184.527.263.743l.105.291c.037.1.07.2.1.308a5.3,5.3,0,0,0,.25.662c.008.012.016.023.025.033a.642.642,0,0,1,.055.089c.191-.107.374-.2.546-.292a14.489,14.489,0,0,1,1.348-.595c.424-.161.867-.286,1.3-.408l.011,0,.225-.064.063-.018c.489-.139,1-.284,1.506-.4-.038-.116-.085-.259-.125-.4-.072-.257-.135-.52-.195-.775l-.007-.029-.056-.23c-.076-.317-.149-.642-.219-.956l0-.015-.018-.079c-.057-.252-.115-.51-.174-.763l-.007-.03c-.081-.318-.172-.678-.246-1.03l-.049-.232-.008-.04c-.045-.211-.09-.422-.131-.634-.021-.1-.04-.209-.06-.313l-.016-.084-.008-.041c-.034-.175-.066-.349-.1-.523-.052-.255-.121-.592-.183-.936-.079-.437-.132-.791-.168-1.112-.05-.44-.066-.88-.074-1.214a16.136,16.136,0,0,1,.073-2.512,5.893,5.893,0,0,1,.274-1.2,3.635,3.635,0,0,1,.214-.508c.1-.187.215-.369.327-.545l.026-.041c.087-.136.2-.314.334-.484a4.234,4.234,0,0,1,.381-.416c.309-.307.627-.587,1.01-.913a7.909,7.909,0,0,1,.938-.687,10.427,10.427,0,0,1,1.125-.618,10.652,10.652,0,0,1,2.363-.758,18.332,18.332,0,0,1,2.384-.352c.207-.016.417-.026.62-.036s.38-.018.564-.03c.383-.027.782-.044,1.22-.054.639-.014,1.29-.015,1.919-.016h.52c.4,0,.832.017,1.273.052s.824.071,1.173.115.733.1,1.153.183a9.781,9.781,0,0,1,1.255.306c.123.04.245.088.353.129l.046.018.112.043c.172.065.346.135.531.216l.028.012c.146.063.293.127.43.2.2.116.409.244.609.383a5.988,5.988,0,0,1,.874.738,4.988,4.988,0,0,1,.454.523,3.553,3.553,0,0,1,.356.614,7.594,7.594,0,0,1,.378,1.058,9.1,9.1,0,0,1,.29,1.33,11.166,11.166,0,0,1,.074,1.192c.013.525.01.95-.01,1.338s-.062.762-.1,1.124c-.044.378-.094.783-.157,1.19-.056.363-.124.74-.207,1.153-.066.328-.127.662-.181.956l-.038.206c-.079.433-.149.768-.227,1.087-.063.255-.122.515-.174.74l-.03.129-.059.258q-.048.2-.1.41l-.043.183c-.137.579-.26,1.1-.375,1.627-.041.188-.087.374-.131.554l0,.012c-.037.149-.073.3-.107.447-.094.413-.2.853-.333,1.277.225.054.415.1.581.143l.1.027.015,0c.456.118.927.239,1.384.377l.171.05c.162.047.327.094.486.15.178.063.369.135.6.227.1.038.2.082.291.128q.053-.159.1-.316l.015-.046.013-.039c.043-.129.085-.257.124-.386l.065-.208,0-.009.007-.022c.122-.4.274-.815.408-1.178l.007-.02c.127-.345.258-.7.369-1.059.122-.389.252-.784.378-1.165l.008-.024,0-.009c.113-.343.23-.7.34-1.047q.132-.435.269-.869l.066-.214.046-.149.046-.15.04-.13c.107-.356.213-.735.344-1.228.1-.386.193-.795.266-1.124.084-.376.178-.764.287-1.185.2-.766.372-1.546.514-2.32.068-.369.136-.738.208-1.105l0-.009c.073-.378.149-.769.205-1.167.055-.381.1-.76.152-1.18.048-.4.066-.8.077-1.1V260c.01-.4.019-.812.011-1.218a5.944,5.944,0,0,0-.049-.668c-.018-.138-.046-.284-.09-.472a6.585,6.585,0,0,0-.242-.768,6.455,6.455,0,0,0-.3-.656c-.163-.281-.337-.564-.52-.839a5.6,5.6,0,0,0-.573-.722c-.193-.2-.391-.38-.589-.545a8.184,8.184,0,0,0-.73-.542,18.442,18.442,0,0,0-3.469-1.587c-.245-.072-.531-.155-.823-.222-.188-.043-.375-.081-.582-.123q-.217-.044-.433-.09l-.191-.041-.016,0c-.227-.049-.462-.1-.691-.155l-.029-.007c-.3-.071-.635-.15-.964-.216l-.164-.032c-.346-.069-.7-.14-1.057-.19l-.855-.119-.436-.06c-.814-.113-1.621-.188-2.4-.222-.448-.012-.812-.016-1.148-.016h-.152c-.531,0-1.044.03-1.476.057l-.222.013c-.32.019-.645.039-.964.067-.392.036-.789.08-1.212.137-.645.087-1.323.216-2.2.42-.373.094-.716.177-1.048.256s-.58.152-.808.22l-.219.063-.017,0c-.2.057-.4.117-.6.184-.726.246-1.5.511-2.24.8l-.3.117-.012,0c-.267.1-.542.208-.808.328-.421.189-.788.369-1.12.55l-.37.2-.276.152a12.559,12.559,0,0,0-1.15.757,10.319,10.319,0,0,0-.945.774c-.294.29-.638.638-.965,1.022l-.066.077c-.132.155-.266.311-.385.473s-.222.314-.341.5a8.563,8.563,0,0,0-.5,1.065c-.137.333-.28.687-.4,1.048a13.848,13.848,0,0,0-.371,1.6,13.386,13.386,0,0,0-.157,1.651c-.009.417-.013.763-.013,1.088,0,.129.007.26.014.387C138.878,264.572,138.88,264.626,138.883,264.681Z" transform="translate(-126.378 -250.489)"/></g><path class="d" d="M126.625,277.516h0a1.075,1.075,0,0,0-.118.016,2.165,2.165,0,0,0-.262.108c-.032.024-.064.049-.1.079a1.812,1.812,0,0,0-.145.189,1.9,1.9,0,0,0-.1.27,3.272,3.272,0,0,0-.06.405c-.011.14-.013.278-.015.406,0,.11.007.229.02.347a3.564,3.564,0,0,0,.071.413,4.383,4.383,0,0,0,.245.559l.024.048.144.294.072.146c.083.168.178.347.3.562.072.12.144.237.227.349a5.712,5.712,0,0,0,.361.443l.087.1c.094.1.192.213.293.317s.221.222.321.32c.264.25.484.449.691.628l.179.154c.178.153.361.31.538.468.3.264.567.5.851.712.114.085.229.165.357.255l.015.01c.135.094.274.191.406.293.056.042.11.086.165.13l.06.048c-.023-.067-.046-.133-.071-.2l-.018-.049c-.158-.43-.328-.874-.478-1.265l-.145-.379c-.061-.161-.124-.321-.186-.481l-.026-.067c-.079-.2-.158-.406-.234-.609-.16-.43-.308-.811-.45-1.168a14.657,14.657,0,0,0-.987-1.993c-.139-.226-.287-.462-.465-.742a4.265,4.265,0,0,0-.484-.623,3.36,3.36,0,0,0-.462-.341,1.812,1.812,0,0,0-.256-.1,2.794,2.794,0,0,0-.363-.051Z" transform="translate(-119.104 -259.893)"/><path class="d" d="M119.458,290.32h0a1.449,1.449,0,0,0-.189.017c-.059.011-.118.024-.178.038a2.347,2.347,0,0,0-.336.139,1.381,1.381,0,0,0-.147.114l-.007.01c-.012.027-.023.055-.032.083s-.005.048-.007.072a1.627,1.627,0,0,0,.035.207,2.8,2.8,0,0,0,.17.442c.07.14.148.283.246.451a3.959,3.959,0,0,0,.487.657,3.544,3.544,0,0,0,.367.3c.121.084.255.167.421.261.425.217.813.4,1.185.557a8.776,8.776,0,0,0,1.232.41c.664.16,1.277.285,1.874.383.174.028.324.048.46.062.118.012.247.029.4.052-.124-.15-.266-.311-.461-.523-.068-.074-.135-.149-.2-.223l-.01-.011c-.131-.146-.267-.3-.408-.439-.155-.157-.34-.343-.531-.529-.1-.1-.208-.191-.313-.286s-.214-.195-.32-.294c-.221-.2-.447-.4-.673-.587a5.427,5.427,0,0,0-.734-.487c-.172-.1-.345-.195-.518-.291l-.038-.021-.147-.082a5.483,5.483,0,0,0-.986-.416,2.411,2.411,0,0,0-.295-.049c-.11-.009-.222-.014-.341-.016Z" transform="translate(-116.266 -264.966)"/><path class="d" d="M118.073,301.821h0a3.178,3.178,0,0,0-.6.074,3.082,3.082,0,0,0-.521.211c-.034.025-.067.05-.1.077l-.04.053a3.182,3.182,0,0,0,.2.389,2.81,2.81,0,0,0,.283.367,3.28,3.28,0,0,0,.423.292,3.656,3.656,0,0,0,.543.224,5.039,5.039,0,0,0,1,.11c.287,0,.568-.012.853-.042.339-.036.671-.073,1-.122.227-.035.454-.067.682-.1-.068-.046-.135-.091-.2-.135l-.044-.029c-.191-.125-.391-.244-.585-.358l-.013-.008-.055-.032-.154-.09-.027-.016-.443-.259a6.6,6.6,0,0,0-1.279-.532,4.421,4.421,0,0,0-.913-.076Z" transform="translate(-115.583 -269.522)"/><path class="d" d="M206.518,278.585a3.273,3.273,0,0,0-.431.029,4.183,4.183,0,0,0-.6.2,6.481,6.481,0,0,0-1.014.709c-.294.272-.59.572-.935.945-.16.174-.33.362-.486.566-.111.147-.228.306-.355.489-.325.5-.632,1.016-.914,1.538a11.766,11.766,0,0,0-.668,1.505c-.15.423-.322.925-.456,1.453q-.042.162-.085.323c.059-.024.117-.049.175-.075l.015-.007c.1-.044.2-.09.3-.137l.1-.047.033-.016.186-.089-.01,0,.437-.2.36-.171.157-.079.009,0c.258-.13.525-.266.781-.411l.157-.088c.236-.133.479-.27.709-.425.287-.193.563-.392.89-.63.253-.185.508-.386.777-.615a12.237,12.237,0,0,0,.873-.886l.01-.011a10.363,10.363,0,0,0,.762-.938,3.911,3.911,0,0,0,.331-.609,2.709,2.709,0,0,0,.1-.475,3.612,3.612,0,0,0,0-.606,1.767,1.767,0,0,0-.082-.261,2.274,2.274,0,0,0-.141-.239c-.04-.058-.084-.115-.142-.186a3.782,3.782,0,0,0-.483-.46.989.989,0,0,0-.1-.051,1.266,1.266,0,0,0-.162-.04Z" transform="translate(-148.694 -260.317)"/><path class="d" d="M212.619,294.454c-.151,0-.284,0-.406.013a6.747,6.747,0,0,0-.717.094,7.854,7.854,0,0,0-.982.284c-.324.122-.656.264-1.014.434l-.154.076c-.719.367-1.435.761-2.124,1.173l-.1.057-.013.008c-.133.079-.27.16-.4.246-.155.1-.315.21-.521.356l-.115.082c-.176.125-.376.267-.563.41l.06,0h.292c.077,0,.155,0,.233,0,.246-.007.515-.011.821-.012.129,0,.257-.007.4-.015l.143-.007c.232-.01.413-.02.59-.032.339-.023.7-.057,1.136-.11.234-.029.468-.054.7-.08.5-.055,1.075-.117,1.617-.212.313-.064.632-.136.974-.222a5.145,5.145,0,0,0,.889-.308,3.231,3.231,0,0,0,.405-.258,2.309,2.309,0,0,0,.228-.251,2.447,2.447,0,0,0,.146-.272,1.984,1.984,0,0,0,.058-.274,1.206,1.206,0,0,0-.015-.235l-.008-.051a.745.745,0,0,0-.216-.45,1.272,1.272,0,0,0-.132-.12,2.779,2.779,0,0,0-.436-.238,2.373,2.373,0,0,0-.391-.081c-.13,0-.258-.007-.389-.007Z" transform="translate(-150.624 -266.604)"/><path class="d" d="M215.715,307.449c-.278,0-.53.01-.77.032-.576.052-1.136.125-1.662.217-.342.068-.705.144-1.064.244l.028.013c.281.109.562.238.832.362l.009,0,.068.03c.156.071.313.148.464.222l.022.01c.191.093.364.177.542.258l.164.074c.263.119.531.241.8.344a7.05,7.05,0,0,0,1.533.347c.1.005.21.008.324.008s.233,0,.37-.008a5.735,5.735,0,0,0,.667-.079,3.354,3.354,0,0,0,.545-.162,1.979,1.979,0,0,0,.195-.132c.029-.029.055-.058.082-.09s.04-.081.059-.127c.005-.021.012-.043.016-.064a3.074,3.074,0,0,0-.027-.32c-.012-.043-.026-.084-.041-.126a1.469,1.469,0,0,0-.485-.532,3.564,3.564,0,0,0-.47-.239c-.217-.068-.434-.125-.662-.174a5.858,5.858,0,0,0-.648-.086c-.359-.019-.634-.027-.893-.027Z" transform="translate(-153.245 -271.756)"/></g></g></svg>