<svg xmlns="http://www.w3.org/2000/svg" width="80" height="80" viewBox="0 0 80 80"><defs><style>.a{fill:#fff;}.b{fill:#76c8f7;}.c{fill:#45b6f7;}.d{fill:#3d3d3d;}.e{fill:none;stroke:#3d3d3d;stroke-linecap:round;stroke-linejoin:round;stroke-width:1.851px;}.f{fill:#64c4fe;}.g{fill:#aae7f2;}</style></defs><g transform="translate(-344.115 -32.422)"><path class="a" d="M423.163,42.1a4.448,4.448,0,0,0-3.5-2.684,4.231,4.231,0,0,0-3.921,1.651,4.606,4.606,0,0,1-3.632,1.271,10.576,10.576,0,0,0-6.293,1.436,15.982,15.982,0,0,0-5.455-2.047c-.654-.149-1.272-.289-1.819-.456a3.325,3.325,0,0,1-1.775-1.123,4.166,4.166,0,0,0-4.375-2.857,4.622,4.622,0,0,0-4.045,3.926c-.716,3.912-.151,12.079,7.114,14.989,1.269.508,2.849,1.141.588,7.619a.611.611,0,0,1-.446.453,3.7,3.7,0,0,1-1.9.059,24.454,24.454,0,0,0-12.735-14.26c.094-.079.189-.153.282-.238a5.979,5.979,0,0,0,1.965-4.737,6.249,6.249,0,0,0-2.456-4.617c-.111-.081-.228-.154-.345-.228a5.52,5.52,0,0,0,.438-2.461A5.632,5.632,0,0,0,374.7,32.44a7.515,7.515,0,0,0-5.534,2.938,9.483,9.483,0,0,0-2.406-.5,6.363,6.363,0,0,0-4.249,1.168,6.252,6.252,0,0,0-2.457,4.618,5.98,5.98,0,0,0,1.966,4.736,12.1,12.1,0,0,0,4.12,2.3c-12.414,1.573-22.024,11.709-22.024,23.948,0,9.058,5.82,17.912,14.008,22.982a4.741,4.741,0,0,0-1.115-.133,4.82,4.82,0,0,0-2.249.561,4.839,4.839,0,0,0-2.229-.561,4.946,4.946,0,0,0-2.812.9,5.345,5.345,0,0,0-1.751,2.047c-.064.13-.121.263-.172.4l-.9,2.386a4.816,4.816,0,0,0-1.484,1.452,5.14,5.14,0,0,0-.827,2.818,5.359,5.359,0,0,0,.192,1.434,4.975,4.975,0,0,0-.216,1.441,4.92,4.92,0,0,0,2,3.972,5,5,0,0,0,3,1.014,4.716,4.716,0,0,0,2.97-1.054,4.717,4.717,0,0,0,2.971,1.054,4.909,4.909,0,0,0,1.915-.39,4.809,4.809,0,0,0,3.836-.045,4.755,4.755,0,0,0,4.2-.113,4.732,4.732,0,0,0,2.21.549h6.375a4.7,4.7,0,0,0,2-.446,9.836,9.836,0,0,0,2.857.433,8.511,8.511,0,0,0,4.078-.931,7.4,7.4,0,0,0,6.794.34,5.015,5.015,0,0,0,5.225-.278,4.8,4.8,0,0,0,.6-.491,4.909,4.909,0,0,0,3.444,1.372,4.973,4.973,0,0,0,1.306-.183,4.77,4.77,0,0,0,1.286.183h6.374a4.782,4.782,0,0,0,1.093-.129,5.783,5.783,0,0,0,1.214.129,5.422,5.422,0,0,0,2.97-.877,5.047,5.047,0,0,0,2.294-4.243V106.9a5.113,5.113,0,0,0-.393-1.971c.014-.151.021-.3.021-.458V98.737a4.832,4.832,0,0,0-2.113-4.015,4.936,4.936,0,0,0-2.78-.845,5,5,0,0,0-2.449.631h-6.232a4.614,4.614,0,0,0-1.27.181,5.25,5.25,0,0,0-1.507-.232,4.739,4.739,0,0,0-3.244,1.254,4.71,4.71,0,0,0-1.3-.841c.333-.2.661-.4.978-.6l.035-.024c.366-.239.718-.486,1.064-.738.2-.143.392-.291.584-.44q.255-.2.5-.4a25.1,25.1,0,0,0,3.809-3.833c.079-.1.139-.207.209-.311,5.436-7.034,6.783-16,7.651-21.793.96-6.4,2.994-8.359,3.771-8.616a4.378,4.378,0,0,0,.741-.109c4.667-1.1,7.84-3.339,9.431-6.651A11.519,11.519,0,0,0,423.163,42.1Z"/><g transform="translate(348.594 41.954)"><path class="b" d="M421.67,49.368a9.02,9.02,0,0,1-7.339,2.819c-4.718-.353-6.64,4.052-6.64,4.052-.35-4.4-4.368-4.228-7.863-5.286a7.124,7.124,0,0,1-4.543-3.524s-1.4,7.576,4.368,9.867,5.067,7.753,3.145,13.215-9.99,3.552-10.39,1.606h0C390.169,63.61,381.924,57.3,372.091,57.3c-11.556,0-20.924,8.717-20.924,19.47s10.655,21.394,22.158,22.5c28.785,2.767,32.095-15.539,33.986-28.049S415.2,58.882,415.2,58.882C424.99,56.591,421.67,49.368,421.67,49.368Z" transform="translate(-351.167 -47.429)"/><path class="c" d="M376.287,123.372c14.51,1.383,22.6-2.5,27.3-8.292-19.033,7.915-35.616,2.871-44.815-1.575A26.336,26.336,0,0,0,376.287,123.372Z" transform="translate(-353.942 -71.536)"/><g transform="translate(2.378 21.684)"><path class="d" d="M359.3,94.377a2.334,2.334,0,1,1-3.158-.96A2.334,2.334,0,0,1,359.3,94.377Z" transform="translate(-354.911 -85.791)"/><path class="d" d="M380.981,82.8a2.334,2.334,0,1,1-3.157-.96A2.334,2.334,0,0,1,380.981,82.8Z" transform="translate(-362.82 -81.569)"/><path class="e" d="M370.3,89.3a2.333,2.333,0,1,1-4.117,2.2" transform="translate(-359.023 -84.389)"/></g><path class="f" d="M373.505,67.469a12.012,12.012,0,0,1,3.2-1.134,16.3,16.3,0,0,1,3.369-.378c.567-.02,1.135.029,1.7.064a16.514,16.514,0,0,1,1.683.272,11.19,11.19,0,0,1,3.187,1.173.3.3,0,0,1-.156.563h-.016c-1.112-.044-2.162-.171-3.225-.213-1.056-.067-2.109-.086-3.163-.088s-2.112.026-3.176.083-2.14.14-3.22.215l-.02,0a.3.3,0,0,1-.163-.56Z" transform="translate(-359.404 -54.187)"/><path class="f" d="M429.481,57.454a4.494,4.494,0,0,1,1.855-.472,4.093,4.093,0,0,1,2.383.628,4.279,4.279,0,0,1,1.632,2.221.5.5,0,0,1-.1.4c-.064.086-.134.119-.182.095l-.007,0c-.48-.242-.9-.551-1.361-.781a11.894,11.894,0,0,0-1.38-.654,12.917,12.917,0,0,0-1.451-.5c-.5-.14-1.009-.257-1.519-.383l-.01,0c-.078-.019-.095-.159-.038-.314A.43.43,0,0,1,429.481,57.454Z" transform="translate(-380.114 -50.913)"/><path class="f" d="M449.064,58.232a4.492,4.492,0,0,0-1.855-.471,4.062,4.062,0,0,0-1.647.26,4.106,4.106,0,0,0-.736.367,4.4,4.4,0,0,0-.649.557,4.3,4.3,0,0,0-.983,1.665.5.5,0,0,0,.1.4c.063.085.133.118.181.095l.007,0c.48-.242.9-.551,1.361-.781a11.893,11.893,0,0,1,1.38-.654,12.927,12.927,0,0,1,1.451-.5c.5-.14,1.009-.257,1.519-.383l.01,0c.077-.019.095-.16.038-.314A.432.432,0,0,0,449.064,58.232Z" transform="translate(-385.333 -51.197)"/><path class="e" d="M421.67,49.368a9.02,9.02,0,0,1-7.339,2.819c-4.718-.353-6.64,4.052-6.64,4.052-.35-4.4-4.368-4.228-7.863-5.286a7.124,7.124,0,0,1-4.543-3.524s-1.4,7.576,4.368,9.867,5.067,7.753,3.145,13.215-9.99,3.552-10.39,1.606h0C390.169,63.61,381.924,57.3,372.091,57.3c-11.556,0-20.924,8.717-20.924,19.47s10.655,21.394,22.158,22.5c28.785,2.767,32.095-15.539,33.986-28.049S415.2,58.882,415.2,58.882C424.99,56.591,421.67,49.368,421.67,49.368Z" transform="translate(-351.167 -47.429)"/><path class="e" d="M391.211,81.452s4.682,6.362,12.384,3.476c0,0-1.152-7.68-8.412-8.9" transform="translate(-366.032 -57.864)"/></g><g transform="translate(364.458 36.901)"><g transform="translate(0 0)"><path class="g" d="M382.577,49.1a.276.276,0,0,0,.5-.185c-.2-2.184-1.106-5.363-4.694-5.633a2,2,0,0,0-1.326.328,1.488,1.488,0,0,0-.115,2.305C378.607,47.411,381.431,47.4,382.577,49.1Z" transform="translate(-376.434 -40.859)"/><path class="g" d="M389.143,56.019a.276.276,0,0,1-.5-.185c.2-2.184,1.106-5.363,4.693-5.633a2,2,0,0,1,1.326.327,1.489,1.489,0,0,1,.115,2.306C393.112,54.333,390.289,54.321,389.143,56.019Z" transform="translate(-380.888 -43.385)"/><path class="g" d="M388.224,43.644a.2.2,0,0,1-.356-.132c.141-1.564.791-3.839,3.359-4.033a1.434,1.434,0,0,1,.949.234,1.065,1.065,0,0,1,.083,1.65C391.065,42.438,389.044,42.429,388.224,43.644Z" transform="translate(-380.605 -39.474)"/></g><g transform="translate(0 0)"><path class="e" d="M382.577,49.1a.276.276,0,0,0,.5-.185c-.2-2.184-1.106-5.363-4.694-5.633a2,2,0,0,0-1.326.328,1.488,1.488,0,0,0-.115,2.305C378.607,47.411,381.431,47.4,382.577,49.1Z" transform="translate(-376.434 -40.859)"/><path class="e" d="M389.143,56.019a.276.276,0,0,1-.5-.185c.2-2.184,1.106-5.363,4.693-5.633a2,2,0,0,1,1.326.327,1.489,1.489,0,0,1,.115,2.306C393.112,54.333,390.289,54.321,389.143,56.019Z" transform="translate(-380.888 -43.385)"/><path class="e" d="M388.224,43.644a.2.2,0,0,1-.356-.132c.141-1.564.791-3.839,3.359-4.033a1.434,1.434,0,0,1,.949.234,1.065,1.065,0,0,1,.083,1.65C391.065,42.438,389.044,42.429,388.224,43.644Z" transform="translate(-380.605 -39.474)"/></g></g><g transform="translate(352.624 99.432)"><path d="M359.859,143.132l-.736,2.423h-1.611l2.74-8.551h1.993l2.778,8.551h-1.675l-.774-2.423Zm2.449-1.18-.672-2.106c-.165-.52-.3-1.1-.432-1.6h-.025c-.126.495-.254,1.091-.406,1.6l-.66,2.106Z" transform="translate(-357.512 -136.864)"/><path d="M371.054,145.555,368.961,137h1.662l.812,3.882c.216,1.04.419,2.132.558,2.981h.025c.14-.9.381-1.916.622-2.994l.926-3.87H375.2l.85,3.933c.215,1.015.393,1.966.52,2.893h.025c.152-.939.355-1.916.583-2.955l.888-3.87h1.586l-2.3,8.551h-1.674l-.889-4.022a24.481,24.481,0,0,1-.469-2.715H374.3c-.152.913-.318,1.738-.572,2.715l-.989,4.022Z" transform="translate(-361.689 -136.864)"/><path d="M392.224,141.761H389v2.512h3.6v1.282h-5.164V137h4.973v1.282H389v2.207h3.222Z" transform="translate(-368.431 -136.864)"/><path d="M397.474,143.775a4.32,4.32,0,0,0,2.067.546c1,0,1.56-.469,1.56-1.167,0-.647-.431-1.027-1.522-1.42-1.408-.508-2.309-1.256-2.309-2.487,0-1.4,1.167-2.461,3.019-2.461a4.512,4.512,0,0,1,2.055.432l-.38,1.256a3.618,3.618,0,0,0-1.7-.406c-.99,0-1.421.533-1.421,1.028,0,.659.494.964,1.636,1.408,1.484.558,2.208,1.307,2.208,2.537,0,1.37-1.04,2.562-3.248,2.562a5.074,5.074,0,0,1-2.309-.533Z" transform="translate(-371.966 -136.784)"/><path d="M415.431,141.111c0,2.867-1.738,4.5-4.1,4.5-2.41,0-3.933-1.839-3.933-4.352,0-2.626,1.65-4.479,4.06-4.479C413.959,136.784,415.431,138.675,415.431,141.111Zm-6.382.126c0,1.738.875,3.121,2.372,3.121s2.36-1.4,2.36-3.184c0-1.611-.8-3.134-2.36-3.134S409.05,139.474,409.05,141.237Z" transform="translate(-375.713 -136.784)"/><path d="M429.261,142.066c-.051-1.1-.114-2.436-.1-3.591h-.038c-.279,1.04-.635,2.2-1.014,3.273l-1.244,3.7h-1.206l-1.141-3.653c-.33-1.091-.635-2.259-.863-3.324h-.025c-.039,1.117-.089,2.474-.153,3.641l-.189,3.438h-1.46L422.4,137h2.055l1.116,3.438c.3,1,.572,2.017.787,2.969h.038c.229-.926.52-1.979.85-2.981l1.18-3.425h2.03l.494,8.551h-1.522Z" transform="translate(-380.976 -136.864)"/><path d="M443.471,141.761h-3.222v2.512h3.6v1.282h-5.164V137h4.973v1.282h-3.413v2.207h3.222Z" transform="translate(-387.128 -136.864)"/></g></g></svg>