<svg xmlns="http://www.w3.org/2000/svg" width="200" height="160" viewBox="0 0 200 160"><defs><style>.a,.d{fill:none;}.b{fill:#fff;}.c{fill:#dde6ed;}.d{stroke:#38435d;stroke-linecap:round;stroke-linejoin:round;stroke-width:2.2px;}</style></defs><g transform="translate(-365 -326)"><rect class="a" width="200" height="160" transform="translate(365 326)"/><g transform="translate(-40 -37)"><path class="b" d="M468.91,466.98c-.55,3.15-.91,5.02-.91,5.02l-2.71,18.94a7.566,7.566,0,0,1-1.59,3.68l-2.03,2.54a3.61,3.61,0,0,0-.49.85l-13.12-.19a6.665,6.665,0,0,0-.31-1.6l-.89-2.78a17.694,17.694,0,0,1-.86-5.45v-8.44a31.907,31.907,0,0,1,.41-5.07l6.21-38.16a38.3,38.3,0,0,1,1.06-4.6c1.99-6.67,7.85-26.13,10.32-32.72,3-8,11-11,11-11s13.89,17.63,35.04,14.23a43.246,43.246,0,0,0,17.85-7.61l15.47,16.17,15.5,31.85.53-.09,5.2,31.93a31.911,31.911,0,0,1,.41,5.07v8.44a17.693,17.693,0,0,1-.86,5.45l-.89,2.78a6.665,6.665,0,0,0-.31,1.6l-13.12.19a3.61,3.61,0,0,0-.49-.85l-2.03-2.54a7.566,7.566,0,0,1-1.59-3.68L543,472s-.36-1.87-.91-5.02c-.91-5.29-2.34-14.22-3.43-24.06L538,443l-13.58,40H474.43a3.92,3.92,0,0,1-1.41-.26,3.989,3.989,0,0,1-2.54-3.13L469,467Z"/><path class="b" d="M562.94,497.82l-.8,10.33a2,2,0,0,1-1.99,1.85h-7.73a2,2,0,0,1-2-1.92l-.38-9a3.24,3.24,0,0,0-.22-1.07Z"/><path class="c" d="M558.38,436.32l1.01,6.23-.53.09-15.5-31.85-15.47-16.17A69.119,69.119,0,0,0,536,388s8,3,11,11c2.47,6.59,8.33,26.05,10.32,32.72A38.3,38.3,0,0,1,558.38,436.32Z"/><path class="c" d="M542.09,466.98,542,467l-1.48,12.61a4,4,0,0,1-3.95,3.39H524.42L538,443l.66-.08C539.75,452.76,541.18,461.69,542.09,466.98Z"/><path class="c" d="M538.77,492.11a2.992,2.992,0,0,1-2.67,3.22c-3.25.34-9.02.87-16.12,1.22L520,496l4.42-13h13.63Z"/><path class="c" d="M532.19,376.36C537.61,378.37,536,388,536,388a69.119,69.119,0,0,1-8.11,6.62l-8-8.37c6.8-2.88,10.58-6.37,12.27-9.67Z"/><path class="b" d="M519.89,386.25q-.9.375-1.89.75a57.26,57.26,0,0,0-12,5.84l-1.07.18A28.707,28.707,0,0,0,499,390c-12.19-4.69-18.51-12.38-19.26-13.32l-.09-.55A6.313,6.313,0,0,1,481,376h49a6.361,6.361,0,0,1,2.19.36l-.03.22C530.47,379.88,526.69,383.37,519.89,386.25Z"/><path class="b" d="M519.89,386.25l8,8.37a43.246,43.246,0,0,1-17.85,7.61L510,402s1.31-4.58-5.07-8.98l1.07-.18A57.26,57.26,0,0,1,518,387Q518.99,386.625,519.89,386.25Z"/><path class="b" d="M524.42,483,520,496l-.02.55c-4.26.21-9.01.36-13.98.36h-1c-13.26,0-24.9-1.04-30.1-1.58a2.992,2.992,0,0,1-2.67-3.22l.72-9.11.07-.26a3.92,3.92,0,0,0,1.41.26h49.99Z"/><path class="b" d="M479.74,376.68c.75.94,7.07,8.63,19.26,13.32a28.707,28.707,0,0,1,5.93,3.02c6.38,4.4,5.07,8.98,5.07,8.98l.04.23C488.89,405.63,475,388,475,388s-1.76-10.59,4.65-11.87Z"/><path class="b" d="M448.06,497.82l13.12.19a3.242,3.242,0,0,0-.22,1.07l-.38,9a2,2,0,0,1-2,1.92h-7.73a2,2,0,0,1-1.99-1.85Z"/><path class="d" d="M473.5,410.5c1.56,17.94-2.66,45.3-4.59,56.48-.55,3.15-.91,5.02-.91,5.02l-2.71,18.94a7.566,7.566,0,0,1-1.59,3.68l-2.03,2.54a3.61,3.61,0,0,0-.49.85,3.242,3.242,0,0,0-.22,1.07l-.38,9a2,2,0,0,1-2,1.92h-7.73a2,2,0,0,1-1.99-1.85l-.8-10.33a6.665,6.665,0,0,0-.31-1.6l-.89-2.78a17.694,17.694,0,0,1-.86-5.45v-8.44a31.907,31.907,0,0,1,.41-5.07l6.21-38.16a38.3,38.3,0,0,1,1.06-4.6c1.99-6.67,7.85-26.13,10.32-32.72,3-8,11-11,11-11s-1.76-10.59,4.65-11.87A6.313,6.313,0,0,1,481,376h24"/><line class="d" x1="13.12" y1="0.19" transform="translate(448.06 497.82)"/><path class="d" d="M469,467l1.48,12.61a3.989,3.989,0,0,0,2.54,3.13,3.92,3.92,0,0,0,1.41.26H505"/><path class="d" d="M472.95,483l-.72,9.11a2.992,2.992,0,0,0,2.67,3.22c5.2.54,16.84,1.58,30.1,1.58"/><path class="d" d="M537.5,410.5c-.82,9.44-.04,21.49,1.16,32.42,1.09,9.84,2.52,18.77,3.43,24.06.55,3.15.91,5.02.91,5.02l2.71,18.94a7.566,7.566,0,0,0,1.59,3.68l2.03,2.54a3.61,3.61,0,0,1,.49.85,3.24,3.24,0,0,1,.22,1.07l.38,9a2,2,0,0,0,2,1.92h7.73a2,2,0,0,0,1.99-1.85l.8-10.33a6.665,6.665,0,0,1,.31-1.6l.89-2.78a17.693,17.693,0,0,0,.86-5.45v-8.44a31.911,31.911,0,0,0-.41-5.07l-5.2-31.93-1.01-6.23a38.3,38.3,0,0,0-1.06-4.6c-1.99-6.67-7.85-26.13-10.32-32.72-3-8-11-11-11-11s1.61-9.63-3.81-11.64A6.361,6.361,0,0,0,530,376H506"/><line class="d" y1="0.19" x2="13.12" transform="translate(549.82 497.82)"/><path class="d" d="M542,467l-1.48,12.61a4,4,0,0,1-3.95,3.39H506"/><path class="d" d="M538.05,483l.72,9.11a2.992,2.992,0,0,1-2.67,3.22c-3.25.34-9.02.87-16.12,1.22-4.26.21-9.01.36-13.98.36"/><path class="d" d="M479.67,376.58s.02.03.07.1c.75.94,7.07,8.63,19.26,13.32a28.707,28.707,0,0,1,5.93,3.02c6.38,4.4,5.07,8.98,5.07,8.98"/><path class="d" d="M475,388s13.89,17.63,35.04,14.23a43.246,43.246,0,0,0,17.85-7.61A69.119,69.119,0,0,0,536,388"/><path class="d" d="M506,392.84A57.26,57.26,0,0,1,518,387q.99-.375,1.89-.75c6.8-2.88,10.58-6.37,12.27-9.67"/></g></g></svg>