<svg xmlns="http://www.w3.org/2000/svg" width="200" height="160" viewBox="0 0 200 160"><defs><style>.a,.e{fill:none;}.b{fill:#fff;}.c{fill:#dde6ed;}.d{fill:#38435d;}.e{stroke:#38435d;stroke-linecap:round;stroke-linejoin:round;stroke-width:2.2px;}</style></defs><g transform="translate(-365 -326)"><rect class="a" width="200" height="160" transform="translate(365 326)"/><g transform="translate(144.659 -37.18)"><path class="b" d="M375.08,423.91l1.3,1.52-9.13,7.82a2.494,2.494,0,0,1-3.02.16l-5.81-4c-3.82-8.58-2.1-20.83-.14-29.19Z"/><path class="c" d="M383.56,416.71a2.023,2.023,0,0,1-.26,2.8l-6.92,5.92-1.3-1.52-16.8-23.69a88.736,88.736,0,0,1,2.69-9.33,9.8,9.8,0,0,1,4.48,3.15Z"/><path class="c" d="M361.43,507.25a2.944,2.944,0,0,1-3,2.93H339.69v-.77L354,456h.04a20.758,20.758,0,0,0,.08,3.94Z"/><path class="c" d="M342,384l18.97,6.89a88.736,88.736,0,0,0-2.69,9.33l-1.62-2.29L340.09,389a26.241,26.241,0,0,0,1.47-4.82Z"/><path class="b" d="M358.42,429.41l-4.13,24.4a20.386,20.386,0,0,0-.25,2.19H354l-14.31,53.41v.77H282.92a2.952,2.952,0,0,1-3.01-2.93l7.32-47.31a22.487,22.487,0,0,0-.17-6.13l-4.13-24.4c6.33-14.22-2.55-38.52-2.55-38.52l18.18-6.71s2,10,9,17c0,0,3.84-5.23,8.92-7.61l-2.31,1.88a82.606,82.606,0,0,1,2.39,12.73l.2.02c-.08.64-.15,1.3-.2,1.98v6h7s0-16,2-21l.25-.33c1.92,1.54,4.55,3.93,5.75,6.33A36.143,36.143,0,0,0,340.09,389l16.57,8.93,1.62,2.29C356.32,408.58,354.6,420.83,358.42,429.41Z"/><path class="c" d="M334.4,377.18l7.16,7a26.241,26.241,0,0,1-1.47,4.82l-8.34-4.5A26.5,26.5,0,0,0,334.4,377.18Z"/><path class="b" d="M331.75,384.5l8.34,4.5a36.143,36.143,0,0,1-8.53,12.18c-1.2-2.4-3.83-4.79-5.75-6.33-1.28-1.03-2.25-1.67-2.25-1.67A20.883,20.883,0,0,0,331.75,384.5Z"/><path class="b" d="M331.75,384.5a20.883,20.883,0,0,1-8.19,8.68,10.513,10.513,0,0,0-2.23,2.31l-.77-.31-.67-1.61h-3.41s-9.92-6.39-9.92-14.39l1.37-1.02a35.19,35.19,0,0,0,26.47-.98A26.5,26.5,0,0,1,331.75,384.5Z"/><path class="b" d="M325.81,394.85l-.25.33c-2,5-2,21-2,21h-7v-6c.05-.68.12-1.34.2-1.98.81-6.53,2.91-10.5,4.57-12.71a10.513,10.513,0,0,1,2.23-2.31S324.53,393.82,325.81,394.85Zm-4.25,13.83a1.5,1.5,0,1,0-1.5,1.5A1.5,1.5,0,0,0,321.56,408.68Z"/><path class="b" d="M320.56,395.18l.77.31c-1.66,2.21-3.76,6.18-4.57,12.71l-.2-.02a82.606,82.606,0,0,0-2.39-12.73l2.31-1.88h3.41Z"/><circle class="d" cx="1.5" cy="1.5" r="1.5" transform="translate(318.56 407.18)"/><path class="b" d="M306.56,379.18c0,8,9.92,14.39,9.92,14.39-5.08,2.38-8.92,7.61-8.92,7.61-7-7-9-17-9-17a39.877,39.877,0,0,0,7-7,21.971,21.971,0,0,0,2.37.98Z"/><path class="b" d="M280.38,390.89s8.88,24.3,2.55,38.52l-5.81,4a2.493,2.493,0,0,1-3.02-.16l-16.05-13.74a2.013,2.013,0,0,1-.26-2.8l18.1-22.67A9.825,9.825,0,0,1,280.38,390.89Z"/><path class="e" d="M325.56,395.18c-2,5-2,21-2,21h-7v-6c.05-.68.12-1.34.2-1.98.81-6.53,2.91-10.5,4.57-12.71a10.513,10.513,0,0,1,2.23-2.31,20.883,20.883,0,0,0,8.19-8.68,26.5,26.5,0,0,0,2.65-7.32,35.19,35.19,0,0,1-26.47.98,21.971,21.971,0,0,1-2.37-.98,39.877,39.877,0,0,1-7,7s2,10,9,17c0,0,3.84-5.23,8.92-7.61,0,0-9.92-6.39-9.92-14.39"/><path class="e" d="M323.56,393.18s.97.64,2.25,1.67c1.92,1.54,4.55,3.93,5.75,6.33A36.143,36.143,0,0,0,340.09,389a26.241,26.241,0,0,0,1.47-4.82l-7.16-7"/><path class="e" d="M316.56,408.18a82.606,82.606,0,0,0-2.39-12.73l2.31-1.88h3.41l.67,1.61"/><path class="e" d="M320,510.18H282.92a2.952,2.952,0,0,1-3.01-2.93l7.32-47.31a22.487,22.487,0,0,0-.17-6.13l-4.13-24.4-5.81,4a2.493,2.493,0,0,1-3.02-.16l-16.05-13.74a2.013,2.013,0,0,1-.26-2.8l18.1-22.67a9.825,9.825,0,0,1,4.49-3.15l18.18-6.71"/><path class="e" d="M280.38,390.89s8.88,24.3,2.55,38.52"/><path class="e" d="M320.34,510.18h38.09a2.944,2.944,0,0,0,3-2.93l-7.31-47.31a20.758,20.758,0,0,1-.08-3.94,20.386,20.386,0,0,1,.25-2.19l4.13-24.4,5.81,4a2.494,2.494,0,0,0,3.02-.16l9.13-7.82,6.92-5.92a2.023,2.023,0,0,0,.26-2.8l-18.11-22.67a9.8,9.8,0,0,0-4.48-3.15L342,384"/><path class="e" d="M360.97,390.89a88.736,88.736,0,0,0-2.69,9.33c-1.96,8.36-3.68,20.61.14,29.19"/></g></g></svg>