<svg xmlns="http://www.w3.org/2000/svg" width="200" height="160" viewBox="0 0 200 160"><defs><style>.a,.e{fill:none;}.b{fill:#fff;}.c{fill:#dde6ed;}.d{fill:#38435d;}.e{stroke:#38435d;stroke-linecap:round;stroke-linejoin:round;stroke-width:2.2px;}</style></defs><g transform="translate(-365 -326)"><rect class="a" width="200" height="160" transform="translate(365 326)"/><g transform="translate(-610.231 -36.759)"><path class="b" d="M1147.98,499.29a5.982,5.982,0,0,1-4.2,6.2c-11.05,3.41-23.59,4.33-34.66,4.21l-33.89-69.23V394.84c10.33,0,18.68-.22,25.43-.57l.04.43a2.574,2.574,0,0,0,5.13-.43l-.02-.3c5.69-.4,9.98-.89,13.22-1.4l2.2.43s5.48,40.77,19.24,40.77C1144.65,459.78,1147.12,488.34,1147.98,499.29Z"/><path class="b" d="M1130.18,391.97c4.16,9.24,7.58,24.99,10.29,41.8-13.76,0-19.24-40.77-19.24-40.77l-2.2-.43c9.06-1.42,9.86-3,9.86-3l.51-.1A11.143,11.143,0,0,0,1130.18,391.97Z"/><path class="b" d="M1129.4,389.47l-.51.1s-.8,1.58-9.86,3c-3.24.51-7.53,1-13.22,1.4l-.97-11.69c-.01-.07-.02-.15-.03-.22,15.79-1.03,23.36-2.57,23.36-2.57l.49-.33a2.7,2.7,0,0,1,.57,1.67v6.81A10.131,10.131,0,0,0,1129.4,389.47Z"/><path class="b" d="M1128.66,379.16l-.49.33s-7.57,1.54-23.36,2.57a2.57,2.57,0,0,0-5.1.29c-6.87.35-15.01.59-24.48.59H1075c-9.46,0-17.61-.24-24.48-.59a2.57,2.57,0,0,0-5.1-.29c-15.78-1.03-23.36-2.57-23.36-2.57l-.49-.33a2.692,2.692,0,0,1,1.48-.96c4.08-1,16.19-2.59,51.95-2.43h.23c35.76-.16,47.87,1.43,51.95,2.43A2.728,2.728,0,0,1,1128.66,379.16Z"/><path class="c" d="M1075.23,440.47l33.89,69.23a197.066,197.066,0,0,1-26.07-2.07,4.174,4.174,0,0,1-3.54-4.38C1080.52,485.22,1076,465,1076,465Z"/><path class="b" d="M1105.83,394.27a2.574,2.574,0,0,1-5.13.43l-.04-.43c1.83-.09,3.55-.19,5.15-.3Z"/><path class="b" d="M1104.84,382.28l.97,11.69c-1.6.11-3.32.21-5.15.3l-.95-11.56a1.618,1.618,0,0,1-.01-.22.659.659,0,0,1,.01-.14c1.79-.09,3.49-.19,5.1-.29C1104.82,382.13,1104.83,382.21,1104.84,382.28Z"/><path class="b" d="M1102.06,379.93a2.571,2.571,0,0,1,2.75,2.13c-1.61.1-3.31.2-5.1.29A2.561,2.561,0,0,1,1102.06,379.93Z"/><path class="b" d="M1099.71,382.71l.95,11.56c-6.75.35-15.1.57-25.43.57v-11.9c9.47,0,17.61-.24,24.48-.59a.659.659,0,0,0-.01.14A1.618,1.618,0,0,0,1099.71,382.71ZM1085,389a3,3,0,1,0-3,3A3,3,0,0,0,1085,389Z"/><circle class="d" cx="3" cy="3" r="3" transform="translate(1079 386)"/><path class="b" d="M1070.72,503.25a4.174,4.174,0,0,1-3.54,4.38c-10.14,1.5-38.46,4.73-60.73-2.14a5.982,5.982,0,0,1-4.2-6.2c.86-10.95,3.33-39.51,7.51-65.52,13.76,0,19.24-40.77,19.24-40.77l.04-.8a136.871,136.871,0,0,0,15.38,1.77l-.02.3a2.574,2.574,0,0,0,5.13.43l.04-.43c6.75.35,15.1.57,25.43.57h.23v45.63"/><path class="b" d="M1075.23,382.94v11.9H1075c-10.33,0-18.68-.22-25.43-.57l.95-11.56a1.618,1.618,0,0,0,.01-.22.659.659,0,0,0-.01-.14c6.87.35,15.02.59,24.48.59Z"/><path class="b" d="M1050.52,382.35a.659.659,0,0,1,.01.14,1.618,1.618,0,0,1-.01.22l-.95,11.56c-1.83-.09-3.55-.19-5.15-.3l.97-11.69c.01-.07.02-.15.03-.22C1047.03,382.16,1048.73,382.26,1050.52,382.35Z"/><path class="b" d="M1049.57,394.27l-.04.43a2.574,2.574,0,0,1-5.13-.43l.02-.3C1046.02,394.08,1047.74,394.18,1049.57,394.27Z"/><path class="b" d="M1048.17,379.93a2.553,2.553,0,0,1,2.35,2.42c-1.79-.09-3.49-.19-5.1-.29A2.571,2.571,0,0,1,1048.17,379.93Z"/><path class="b" d="M1045.42,382.06c-.01.07-.02.15-.03.22l-.97,11.69a136.871,136.871,0,0,1-15.38-1.77c-7.04-1.31-7.7-2.63-7.7-2.63l-.51-.1a10.131,10.131,0,0,0,.17-1.83v-6.81a2.7,2.7,0,0,1,.57-1.67l.49.33S1029.64,381.03,1045.42,382.06Z"/><path class="b" d="M1029.04,392.2l-.04.8s-5.48,40.77-19.24,40.77c2.7-16.81,6.12-32.56,10.29-41.8a11.149,11.149,0,0,0,.78-2.5l.51.1S1022,390.89,1029.04,392.2Z"/><path class="e" d="M1075,455s-5.29,30.22-4.28,48.25a4.174,4.174,0,0,1-3.54,4.38c-10.14,1.5-38.46,4.73-60.73-2.14a5.982,5.982,0,0,1-4.2-6.2c.86-10.95,3.33-39.51,7.51-65.52,2.7-16.81,6.12-32.56,10.29-41.8a11.149,11.149,0,0,0,.78-2.5,10.131,10.131,0,0,0,.17-1.83v-6.81a2.7,2.7,0,0,1,2.05-2.63c4.08-1,16.19-2.59,51.95-2.43"/><path class="e" d="M1050.52,382.35c6.87.35,15.02.59,24.48.59"/><path class="e" d="M1022.06,379.49s7.58,1.54,23.36,2.57"/><path class="e" d="M1049.57,394.27c6.75.35,15.1.57,25.43.57"/><path class="e" d="M1021.34,389.57s.66,1.32,7.7,2.63a136.871,136.871,0,0,0,15.38,1.77"/><path class="e" d="M1049.57,394.27l-.04.43a2.574,2.574,0,0,1-5.13-.43l.02-.3.97-11.69c.01-.07.02-.15.03-.22a2.57,2.57,0,0,1,5.1.29.659.659,0,0,1,.01.14,1.618,1.618,0,0,1-.01.22Z"/><path class="e" d="M1029,393s-5.48,40.77-19.24,40.77"/><path class="e" d="M1104.81,382.06c15.79-1.03,23.36-2.57,23.36-2.57"/><path class="e" d="M1075.23,375.77c35.76-.16,47.87,1.43,51.95,2.43a2.728,2.728,0,0,1,1.48.96,2.7,2.7,0,0,1,.57,1.67v6.81a10.131,10.131,0,0,0,.17,1.83,11.143,11.143,0,0,0,.78,2.5c4.16,9.24,7.58,24.99,10.29,41.8,4.18,26.01,6.65,54.57,7.51,65.52a5.982,5.982,0,0,1-4.2,6.2c-11.05,3.41-23.59,4.33-34.66,4.21a197.066,197.066,0,0,1-26.07-2.07,4.174,4.174,0,0,1-3.54-4.38c1.01-18.03-4.28-46.42-4.28-46.42V382.94c9.47,0,17.61-.24,24.48-.59"/><path class="e" d="M1100.66,394.27c-6.75.35-15.1.57-25.43.57"/><path class="e" d="M1128.89,389.57s-.8,1.58-9.86,3c-3.24.51-7.53,1-13.22,1.4"/><path class="e" d="M1100.66,394.27l.04.43a2.574,2.574,0,0,0,5.13-.43l-.02-.3-.97-11.69c-.01-.07-.02-.15-.03-.22a2.57,2.57,0,0,0-5.1.29.659.659,0,0,0-.01.14,1.618,1.618,0,0,0,.01.22Z"/><path class="e" d="M1121.23,393s5.48,40.77,19.24,40.77"/></g></g></svg>