<svg xmlns="http://www.w3.org/2000/svg" width="80" height="84" viewBox="0 0 80 84"><defs><style>.a{fill:#ff5dc9;}</style></defs><g transform="translate(-364.376 -62.725)"><path class="a" d="M380.464,76.543c.769.111,1.993-.18,1.987-1.155-.006-.84-.659-1.214-1.381-1.387.027-.036.033-.072,0-.1a1.463,1.463,0,0,0-2.1.431C378.376,75.407,379.461,76.4,380.464,76.543Z" transform="translate(-9.455 -7.143)"/><path class="a" d="M485.1,96.006c1.592-.316,1.039-2.087,1.639-3.156.11-.2-.164-.238-.382-.178a1.958,1.958,0,0,0-.108-1.959c-.121-.157-.526-.055-.6.114a11.041,11.041,0,0,0-.919,5.082C484.735,96.058,485.022,96.021,485.1,96.006Z" transform="translate(-79.002 -18.296)"/><path class="a" d="M588.2,143.434a.512.512,0,0,0-.054-.093c.06-.06.058-.117-.075-.142-.026,0-.052,0-.078-.009a1,1,0,0,0-1.224.158,2.147,2.147,0,0,0-.881.652c-.215.275-.5.806-.152,1.082a1.487,1.487,0,0,0,1.139.086C587.565,145,588.574,144.271,588.2,143.434Z" transform="translate(-145.226 -52.735)"/><path class="a" d="M534.493,171.535l-.012.006c-.2.092-.27.386.022.389a11.67,11.67,0,0,0,5.851-1.456c.267-.147.21-.4-.1-.389a21.356,21.356,0,0,0-5.518,1.166C534.544,171.31,534.473,171.435,534.493,171.535Z" transform="translate(-111.574 -70.484)"/><path class="a" d="M546.809,229.186c-.126-.01-.5.157-.509.246a.4.4,0,0,0-.145.692c.834.961,2.655,1.065,3.8.891.061-.009.488-.131.354-.261A5.578,5.578,0,0,0,546.809,229.186Z" transform="translate(-119.25 -109.286)"/><path class="a" d="M565.612,250.058a2.194,2.194,0,0,0-1.786.681c-.947,1.07.173,2.573,1.4,2.63a2.607,2.607,0,0,0,2.641-1.845C568.179,250.121,566.648,249.963,565.612,250.058Z" transform="translate(-130.739 -122.978)"/><path class="a" d="M591.212,267.184a1.809,1.809,0,0,0-2.4.581c-.062.107.034.147.167.147a1.011,1.011,0,0,0-.087.839,1.506,1.506,0,0,0,2.148.621A1.323,1.323,0,0,0,591.212,267.184Z" transform="translate(-147.341 -134.108)"/><path class="a" d="M545.06,260.7a1.023,1.023,0,0,0-.687.8c-.155.87,1.019,1.216,1.667,1.029a1.185,1.185,0,0,0,.814-1.648A1.207,1.207,0,0,0,545.06,260.7Z" transform="translate(-118.164 -129.813)"/><path class="a" d="M521.452,274.12a.759.759,0,0,0-.163.064.706.706,0,0,0-.127.055.955.955,0,0,0-.431,1.186,1,1,0,0,0,1.294.4c.457-.154.916-.577.745-1.1A1.053,1.053,0,0,0,521.452,274.12Z" transform="translate(-102.604 -138.786)"/><path class="a" d="M487.735,289.441a1.4,1.4,0,0,0-1.344,1.016,1.211,1.211,0,0,0,.566,1.177,1.626,1.626,0,0,0,1.329.1c.825-.25,1.54-1.229.852-2.022A1.318,1.318,0,0,0,487.735,289.441Z" transform="translate(-80.099 -148.801)"/><path class="a" d="M444.513,277.291a3.8,3.8,0,0,0-.282.729c-.722.143-.9,1.124-1.027,1.723-.284,1.352-.061,2.8-.519,4.121-.312.9-1.978,2.141-1.412,3.219a.792.792,0,0,0,.944.409c.749-.136.793-.652.881-1.281a5.217,5.217,0,0,1,.908-2.5,4.153,4.153,0,0,0,.651-1.612c.206-1.245-.073-2.484.107-3.691.035-.027.061-.055.06-.088a.579.579,0,0,0-.02-.133,3.831,3.831,0,0,1,.344-1.009C445.19,277.092,444.6,277.128,444.513,277.291Z" transform="translate(-50.409 -140.788)"/><path class="a" d="M392.99,240.918a4.647,4.647,0,0,0,1.033-2.1c.069-.321-.59-.246-.654.046,0,.011-.005.022-.008.033a5.8,5.8,0,0,0-1.947,1.412c-.339.384-.747,1.181-.018,1.411C392.023,241.922,392.617,241.343,392.99,240.918Z" transform="translate(-17.446 -115.478)"/><path class="a" d="M412.887,256.763a.868.868,0,0,0-.432.259c-.025.028-.028.048-.021.067a9.222,9.222,0,0,0-3.018,4.1c-.028.073.068.106.119.114,1.955.275,3.089-1.976,3.661-3.673.142-.03.282-.092.31-.18a.623.623,0,0,0-.165-.707C413.242,256.634,413.031,256.693,412.887,256.763Z" transform="translate(-29.567 -127.345)"/><path class="a" d="M370.188,231.223a1.329,1.329,0,0,0-.276-.018h-.048a.993.993,0,0,0-.973.653c-.016.07.032.107.105.124a.818.818,0,0,0,.084.719c.187.2.609.16.843.1a1.315,1.315,0,0,0,.752-.494A.682.682,0,0,0,370.188,231.223Z" transform="translate(-2.958 -110.611)"/><path class="a" d="M368.085,204.913a1.208,1.208,0,0,0-.418-.1c-.045-.056-.179-.037-.239-.028a1.394,1.394,0,0,0-.349.105,1.122,1.122,0,0,0-.621.454c-.025.041,0,.061.051.07a.837.837,0,0,0-.054.58c.182.706,1.107.571,1.581.276C368.556,205.945,368.734,205.208,368.085,204.913Z" transform="translate(-1.344 -93.258)"/><path class="a" d="M428.09,111.978c1.42-1.331-.093-3.04-1.473-3.517-1.284-.444-3.1-.34-2.989-2.14.044-.758.405-1.606.106-2.355a1.557,1.557,0,0,0-1.526-.953,17.777,17.777,0,0,1-3.281.245q.034-.384.069-.768a4.739,4.739,0,0,0,.531-.317,3.478,3.478,0,0,0,.745-.8c.072-.126-.06-.183-.173-.183l-2.51,0c-.829,0-1.727.218-1.728-.979,0-1.422,2.153-2.755,3.134-3.532l3.75-2.969a17.309,17.309,0,0,0,2.792-2.331c.806-.992.919-2.875-.741-2.964a3.118,3.118,0,0,0-1.749.689c-1.482.956-2.926.71-4.49,1.2a4.186,4.186,0,0,0-1.858,1.243,14.429,14.429,0,0,1-1.328,1.559c-1.673,1.328-2.884.59-3.186-1.019-.257-1.363.561-2.591,1.067-3.788.266-.629.711-1.614-.086-2.042a.98.98,0,0,0-.951.022c-.183.109-.291.467-.434.525-.728.291-1.057-1.311-1.191-1.984a23.522,23.522,0,0,1-.309-4.362c-.013-1.036-.1-2.282-1.159-2.81a1.821,1.821,0,0,0-2.538,1.307c-.177.534-.216,1.1-.376,1.641a4.033,4.033,0,0,1-1.761,2.111,7.543,7.543,0,0,0-.876.683,6.1,6.1,0,0,0-.626.8l-.274.434q-.636,1.362-2.459.2c.008-.085-.052-.11-.123-.13a1.256,1.256,0,0,0-1.1.118c-.894.539-.61,1.327-.5,2.2a2.654,2.654,0,0,1,.147,1.291q-.982.732-1.548-.055a10.151,10.151,0,0,1-1.729-1.75l-2.575-2.607a18.025,18.025,0,0,0-1.748-3.714,17.687,17.687,0,0,0-1.232-1.485c-1.143-2.33-2.282-4.665-3.277-7.059q-.636-1.527-1.152-3.1c-.008-.374-.007-.748.009-1.125a5.732,5.732,0,0,0-.074-2.1,1.878,1.878,0,0,0-1.569-1.358,3.208,3.208,0,0,0-.481-.545,2.615,2.615,0,0,0-3.592.069c-1.4,1.61,0,4.19,1.267,5.763a7.255,7.255,0,0,0,.18,1.2c.914,3.644,3.3,6.913,4.852,10.3,1.062,2.323,4.624,10.989-.352,11.095-1.935.041-4.258-2.6-5.632-3.725-1.844-1.511-3.657-3.077-5.54-4.539a3.664,3.664,0,0,0-2.607-1.11,1.652,1.652,0,0,0-1.542,1.419c-.188,3.018,4.921,4.8,6.818,6.156a26.905,26.905,0,0,1,3.774,3.223,2.923,2.923,0,0,0,.167.686c.11.317.435.7.449,1.032a.644.644,0,0,1,.1.294c-.5.27-2.176-.307-2.576-.35a12.04,12.04,0,0,0-2.955.084c-.148.021-.331.1-.353.269a1.516,1.516,0,0,0,1.066,1.656,4.041,4.041,0,0,0,1.394.264l.168.014.241.137a6.2,6.2,0,0,1,1.317.751l.279.177a.824.824,0,0,1-.01.133c.007.039.006.077.009.116l-.525.995a2.331,2.331,0,0,1-.451.232.4.4,0,0,0-.232.125,21.546,21.546,0,0,1-2.392-.247c-.865-.054-1.729-.126-2.587-.252a29.714,29.714,0,0,1-5.325-1.6,4.143,4.143,0,0,0-2.719-.179c-1.734.6-2.18,2.5-.63,3.609a6.309,6.309,0,0,0,3.386.88c.747.039,1.5.051,2.248.056.542.1,1.091.136,1.678.207,1.347.162,2.108,1.061,3.322,1.4,1.194.338,2.285.125,3.416.867a8.166,8.166,0,0,1,1.373,1.1,2.324,2.324,0,0,1,.585.784c.293.8-.281,1.052-1.042,1.122-.991.092-1.961-.228-2.967-.078a10.015,10.015,0,0,0-2.219.818c-1.11.441-2.145.119-3.215.427a1.4,1.4,0,0,0-.881.569c-.553.99.672,1.743,1.524,1.731a3.568,3.568,0,0,0,1.649-.6c1.7-.965,3.529-2.4,5.589-1.808,1.32.38.872,1.075-.169,1.657a5.653,5.653,0,0,1-1.933.682,8.48,8.48,0,0,0-2.235.816c-1.064.586-3.2,2.447-2.1,3.841.71.9,1.5.335,2.164-.164,1.364-1.031,1.766-1.681,2.416-.269.534,1.164.061.872-.915,1.175a8.688,8.688,0,0,0-.969.326,2.963,2.963,0,0,0-1.7,1.65c-.03.074.071.1.118.11,1.474.32,2.411-.688,3.557-1.47a9.8,9.8,0,0,1,4.251-1.386c-.073.17.066.375.346.3.552-.154,1.137-.272,1.478.195a1.359,1.359,0,0,1,.128.963c-.142.929-.862,1.128-1.565,1.517a1.262,1.262,0,0,0-.789,1.278.8.8,0,0,0,1.039.555c.389-.088.534-.352.852-.543.094-.056.145-.234.242-.267q1.019-.01.953.428c-2.744,2.56-5.749,4.691-8.663,7.042-1.587,1.279-3.563,4.2-1.376,5.945,1.712,1.368,4,.115,5.287-1.183a22.086,22.086,0,0,0,2.877-3.7c.94-1.474,1.784-3.11,3.364-3.939l-.5,2.515c-.053.269.55.132.624-.025a12.92,12.92,0,0,1,2.592-3.728,7.831,7.831,0,0,1,1.027-.89l.658-.37,2.171.588c.262.228.586.91.82,1.182a2.4,2.4,0,0,1,.561,2.366,18.079,18.079,0,0,0-.322,2.352,14.425,14.425,0,0,0,.547,4.568c.066.236.608.069.645-.124q.416-2.164.832-4.329c.531,1.428,1.1,3.34,2.892,2.787a1.423,1.423,0,0,0,.982-1.159c.124-.542-.2-1.308.078-1.785.5-.854,1.678-.907,2.52-1.1a2.569,2.569,0,0,0,1.531-.877c.589-.736.485-2.307,1.139-2.859a2.117,2.117,0,0,1,1.607-.172,3.511,3.511,0,0,1,.776.758,4.861,4.861,0,0,0,.961,1.081,8.7,8.7,0,0,1,1.952,1.445,20.916,20.916,0,0,1,1.552,2.487c1.247,2.1,2.452,4.991,5.3,4.907.136,0,.392-.058.451-.208.448-1.128-.219-1.9-.838-2.793-1.126-1.617-1.159-2.974-1.357-4.836-.151-1.422-1.122-2-1.609-3.264-.411-1.063-.346-2.155-1.218-2.992l-.01,0a2.655,2.655,0,0,1-.27-.866c-.163-1.623,2.254-2.311,3.289-1.156,1.01,1.127,1.65,2.048,3.338,1.841.872-.106,2.232-.678,2.285-1.737a.919.919,0,0,0-.558-.942c-.178-.093-.613-.023-.762-.136q-.283-1.806.991-1.647a2.4,2.4,0,0,0,.572-.1c.111-.021.385-.087.369-.252C421.7,111.24,426.383,113.578,428.09,111.978Z"/><path class="a" d="M539.944,249.008c-.361-.6-1.221-.369-1.774-.12a1.007,1.007,0,0,0-1.052.628c-.263.91.872,1.284,1.554,1.129C539.294,250.5,540.416,249.789,539.944,249.008Z" transform="translate(-113.386 -122.052)"/></g></svg>