<svg xmlns="http://www.w3.org/2000/svg" width="100" height="16" viewBox="0 0 100 16"><defs><style>.a{fill:#202020;}</style></defs><path class="a" d="M670.821,408.63l-.957.559-.982.493c-.661.356-1.349.665-2.083.993-.014-.081-.041-.236-.776.075a44.57,44.57,0,0,1-6.774,1.907,22.936,22.936,0,0,1-5.139.527,33.353,33.353,0,0,0-3.734-.1c.746,0,1.489-.068,2.234-.108l-.007-.247a62.133,62.133,0,0,1-9.649-.372l.009-.246c-.493-.037-.985-.088-1.477-.15-.723-.376.94-.278,3.246-.185a63.757,63.757,0,0,0,7.1-.073l-.007-.329c-.491.035-.982.058-1.473.063l0-.165a52.272,52.272,0,0,0,6.238-.533c1.087-.153,2.175-.346,3.285-.59-.008-.082-.029-.142-.741-.012a42.8,42.8,0,0,0,4.706-1.2,24.428,24.428,0,0,0,4.577-2.027c.339-.218.321-.3-.041-.2s-1.064.392-2.126.781a34.365,34.365,0,0,1-5.709,1.836l-.016-.163a29.139,29.139,0,0,0,5-1.532c.692-.342-1.451.272-.758-.067a12.262,12.262,0,0,0,2.085-.931,31.149,31.149,0,0,1-7.081,2.294c-.726.072-1.455.114-1.467-.045a23.272,23.272,0,0,1-8.7.261c-.525-.084-2.582-.093-4.5-.182-12.269-1.1-25.125-5.5-36.823-8.458-.731-.242-2.2-.679-2.937-.9a59.525,59.525,0,0,0-19.489-1.063,11.98,11.98,0,0,0-2.093.439,10.985,10.985,0,0,0-1.651.6,12.4,12.4,0,0,0-1.464.748c-.736.341-1.445.843-.686.83.746-.159,2.05-.369,3.169-.514,1.12-.1,2.054-.145,2.061.021a5.512,5.512,0,0,1-1.479.283c.013.3-2.151,1.343-2.877,1.5-.357.186-1.626.591-2.867,1.161a18.969,18.969,0,0,0-1.744.813c-.5.256-.9.46-1.067.565-1.054.545.088.46,1.809.233,1.735-.189,4.075-.429,5.52-.516s.028.41.048.655a8.31,8.31,0,0,1,1.786-.238c.539-.031,1.075-.073,1.792-.169,0,.011.068.014.19.014l.517-.017c.437-.029,1.044-.044,1.718-.059s1.416-.036,2.126-.027c.709-.009,1.385,0,1.927.021l.632-.027c.451-.019,1.174,0,2.258.063.723.037.726-.032.728-.118l0,.164a24.349,24.349,0,0,1,2.9.189l-.007.165a38.315,38.315,0,0,1,4.339.509l-.011.164a4.733,4.733,0,0,1,1.437.322l-.012.164c.716.213,2.17.314,2.157.487l.013-.163c2.883.577,5.045,1.18,7.2,1.793a166.669,166.669,0,0,0,19.711,4.751c.741.139,1.492.114.765-.188.738.144,1.482.269,2.223.39,1.483.247.757-.124,2.242.093a70.728,70.728,0,0,0,17.974-.116,41.65,41.65,0,0,0,8.964-2.3,26.036,26.036,0,0,0,8.651-5.461A22.768,22.768,0,0,1,670.821,408.63Zm-26.717.276c-.36-.024-.7-.052-1.017-.086C643.427,408.848,643.765,408.879,644.1,408.906Z" transform="translate(-574.752 -398.167)"/></svg>